<svg width="1674" height="1701" viewBox="0 0 1674 1701" fill="none" xmlns="http://www.w3.org/2000/svg">
<g id="Group 12">
<path id="&#233;&#129;&#147;&#232;&#183;&#175;(Stroke)" d="M1533.21 346.781C1593.13 379.463 1623.28 426.173 1622.23 473.531C1621.21 519.982 1590.24 563.364 1535.76 591.071C1534.92 591.498 1534.15 592.068 1533.51 592.752C1524.71 602.066 1516.24 610.331 1507.78 617.631C1488.7 634.103 1469.76 645.587 1447.22 653.318C1425.36 660.821 1400.54 664.638 1369.65 666.422C1369.01 666.458 1368.37 666.572 1367.76 666.76C1343.84 674.122 1333.88 681.014 1330.36 686.102C1328.87 688.248 1328.52 690.095 1328.74 692.124C1329 694.486 1330.12 697.559 1332.55 701.586C1337.66 710.064 1345.81 718.693 1355.06 730.052C1357.89 733.522 1360.77 737.21 1363.51 741.103C1366.65 745.575 1373.26 746.276 1377.29 742.577C1400.92 720.837 1431.72 710.374 1460.77 712.587C1498.91 715.491 1533.46 740.261 1544.18 787.864L1544.23 788.105C1544.37 788.739 1544.44 789.388 1544.42 790.037L1544.42 790.284C1543.53 830.044 1538.1 862.096 1518.96 893.272C1501.48 921.739 1473.07 948.63 1428.44 980.279C1425.46 982.396 1424.25 986.262 1425.57 989.675C1430.35 1002 1435.64 1014.67 1441.56 1028L1441.59 1028.07L1441.62 1028.14C1450.66 1049.36 1454.81 1066.66 1454.31 1080.72C1454.1 1086.76 1453.02 1092.2 1451.14 1097.04C1449.56 1101.12 1450.53 1106 1454.19 1108.41L1485.23 1128.81C1488.92 1131.24 1489.95 1136.2 1487.52 1139.89L1485.32 1143.23C1482.9 1146.92 1477.94 1147.95 1474.24 1145.52L1436.41 1120.66C1433.93 1119.03 1430.78 1118.95 1428.07 1120.13C1419.21 1123.98 1409.09 1125.7 1399.1 1126.44C1390.68 1127.06 1381.74 1127.02 1372.82 1126.71C1368.25 1126.55 1364.42 1130.18 1364.42 1134.76V1638.06C1364.42 1642.48 1360.84 1646.06 1356.42 1646.06H1352.42C1348 1646.06 1344.42 1642.48 1344.42 1638.06V1132.82C1344.42 1128.57 1341.1 1125.05 1336.85 1124.86C1328.29 1124.5 1320.43 1124.39 1313.56 1124.92C1301.7 1125.83 1296.39 1128.45 1294.42 1131.07C1281.15 1148.71 1269.48 1163.67 1258.02 1172.78C1252.14 1177.46 1245.75 1181.07 1238.66 1182.53C1231.37 1184.04 1224.13 1183.12 1216.97 1179.98C1203.4 1174.04 1189.85 1159.99 1174.39 1138.99C1162.93 1123.45 1149.84 1103.24 1134.4 1077.87C1131.05 1072.36 1122.79 1072.78 1119.61 1078.38C1109.64 1095.94 1096.09 1112.5 1077.86 1127.57C1076.61 1128.61 1075.85 1130.12 1075.62 1131.74C1075.08 1135.68 1073.79 1140.77 1072.04 1146.6C1068.5 1158.42 1062.51 1175.1 1054.67 1195.68C1040.93 1231.74 1021.2 1280.58 998.238 1337.77L987.945 1363.43L987.597 1364.03C952.545 1425.17 929.78 1462.66 893.609 1523.76C891.358 1527.56 886.447 1528.83 882.644 1526.58L879.201 1524.54C875.398 1522.29 874.143 1517.38 876.394 1513.58C912.545 1452.52 935.128 1415.32 969.905 1354.68C997.106 1286.81 1020.41 1229.43 1035.98 1188.56C1043.8 1168.02 1049.57 1151.92 1052.89 1140.85C1054.03 1137.05 1054.82 1134.04 1055.31 1131.77C1055.67 1130.1 1055.37 1128.35 1054.47 1126.9C1043.79 1109.59 1023.22 1104.04 994.265 1099.17C966.736 1094.54 932.49 1090.69 904.881 1071.56C903.892 1070.87 902.769 1070.4 901.585 1070.18C882.906 1066.85 868.851 1063.67 857.712 1059.9C844.559 1055.44 835.41 1050.14 827.33 1042.92C826.179 1041.89 824.778 1041.16 823.256 1040.9C814.77 1039.47 809.974 1039.46 806.969 1040.21C804.961 1040.72 803.309 1041.64 801.354 1044.8C800.982 1045.4 800.724 1046.07 800.551 1046.75L773.174 1155.2C772.077 1159.55 774.763 1163.94 779.128 1164.95L785.88 1166.51C790.185 1167.51 792.868 1171.81 791.872 1176.11L790.971 1180.01C789.976 1184.31 785.68 1187 781.375 1186L773.919 1184.28C769.676 1183.3 765.427 1185.89 764.36 1190.11L749.583 1248.65C749.488 1249.02 749.367 1249.39 749.22 1249.74L749.165 1249.88C744.063 1262.23 735.376 1269.74 723.926 1272.64C713.317 1275.33 701.299 1273.79 689.36 1270.86C677.255 1267.89 663.808 1263.1 649.955 1258.09C636.053 1253.06 621.543 1247.74 606.51 1243.28C595.839 1241.16 587.054 1237.05 580.339 1230.37C573.539 1223.61 569.682 1215.04 567.517 1205.59C563.649 1188.69 564.721 1166.29 566.116 1140.49C566.212 1138.7 565.731 1136.91 564.589 1135.53C559.05 1128.84 550.77 1123.88 539.425 1119.31C532.572 1116.55 524.992 1114.07 516.63 1111.38C508.371 1108.73 499.4 1105.89 490.258 1102.5C455.359 1089.56 417.35 1068.35 392.012 1015.27C390.654 1012.43 387.804 1010.56 384.649 1010.56H276.969C258.177 1012.59 242.623 1006.31 231.242 995.624C219.962 985.033 213.058 970.427 210.399 955.927C207.754 941.505 209.109 926.037 215.821 913.72C221.709 902.915 231.563 894.963 244.957 892.709C249.314 891.975 252.922 895.642 252.922 900.06V904.06C252.922 908.479 249.24 911.852 245.039 913.222C239.704 914.962 235.965 918.553 233.383 923.291C229.392 930.614 228.028 941.178 230.071 952.319C232.099 963.381 237.289 973.869 244.931 981.044C252.348 988.007 262.327 992.144 275.258 990.629L275.838 990.56H392.463C396.144 990.56 399.329 988.043 400.016 984.426C400.357 982.633 400.728 980.616 401.158 978.331C402.269 972.42 403.68 965.294 405.826 957.285C413.741 927.74 431.339 887.432 479.588 845.965C483.067 842.974 483.461 837.696 480.549 834.15C473.498 825.564 467.552 816.415 462.321 805.36C454.868 789.61 449.032 770.338 443.209 743.917C442.754 741.854 441.511 740.045 439.74 738.894L217.734 594.589C214.872 592.729 211.145 592.889 208.454 594.988L17.3806 744.025C13.8969 746.742 8.86987 746.121 6.15247 742.637L3.6925 739.484C0.974976 736 1.59619 730.973 5.08008 728.255L341.212 466.072C343.303 464.441 344.442 461.871 344.3 459.222C342.779 430.88 345.649 411.435 353.292 396.22C360.537 381.796 371.633 372.202 384.063 362.8C387.587 360.135 392.607 360.899 395.234 364.452L397.612 367.668C400.238 371.221 399.475 376.22 395.957 378.893C384.139 387.873 376.302 394.969 371.164 405.198C366.868 413.749 364.154 425.209 363.924 442.903C363.854 448.317 369.274 451.977 374.42 450.294C403.346 440.835 435.982 433.953 470.677 429.598C556.895 418.777 656.982 423.423 746.729 443.926C751.738 445.07 756.555 441.332 756.726 436.197C757.302 418.962 758.817 403.955 762.265 389.778C767.216 369.425 776.012 351.294 790.803 330.722L791.435 329.843C793.013 327.649 795.591 326.4 798.29 326.521L799.373 326.57C886.918 330.516 935.593 319.225 979.195 312.429C1021.07 305.903 1057.73 303.717 1115.92 323.165C1118.94 324.178 1122.29 323.327 1124.52 321.044C1140.6 304.628 1157.29 295.044 1177.79 291.731C1197.74 288.508 1220.44 291.4 1248.23 297.886C1251.9 298.741 1255.68 296.979 1257.34 293.601L1282.92 241.348C1284.87 237.38 1289.66 235.738 1293.63 237.681L1297.22 239.44C1301.19 241.383 1302.83 246.175 1300.89 250.143L1279.02 294.799C1276.73 299.468 1279.44 305.045 1284.53 306.128C1329.3 315.659 1366.02 322.738 1404.24 328.881C1406.65 329.269 1409.11 328.528 1410.91 326.876L1448.77 292.107C1452.02 289.118 1457.08 289.333 1460.07 292.587L1462.77 295.533C1465.76 298.788 1465.55 303.848 1462.29 306.837L1445.82 321.967C1440.86 326.526 1443.41 334.79 1450.09 335.713C1464.33 337.681 1479.21 339.609 1495.14 341.558C1506.07 342.897 1517.5 344.245 1529.56 345.625L1529.95 345.67C1530.97 345.787 1531.96 346.101 1532.87 346.593L1533.21 346.781ZM770.865 618.796C774.832 604.979 776.078 584.156 773.005 552.409L758.623 472.215C758.069 469.124 755.763 466.64 752.713 465.893C667.589 445.038 571.554 439.118 487.536 447.802C483.769 448.191 480.815 451.202 480.515 454.977C479.616 466.259 479.46 474.66 480.339 481.22C480.934 485.659 481.962 488.987 483.502 491.657C485.71 495.484 486.735 500.398 484.11 503.952L481.734 507.169C479.11 510.723 474.012 511.537 471.029 508.278C465.004 501.697 461.82 493.607 460.516 483.877C459.636 477.312 459.585 469.779 460.046 461.188C460.322 456.041 455.877 451.834 450.79 452.664C417.452 458.103 386.994 466.046 361.013 476.388C360.318 476.664 359.67 477.039 359.081 477.498L238.479 571.568C234.147 574.947 234.432 581.589 239.04 584.583L457.569 726.629C459.352 727.788 460.6 729.609 461.038 731.69L461.208 732.502C467.463 762.24 473.286 781.772 480.399 796.805C486.863 810.466 494.555 820.75 505.256 831.727C506.057 832.548 507.033 833.18 508.106 833.585L582.854 861.848C587.785 863.712 593.137 860.377 593.711 855.137C596.496 829.74 600.186 808.646 606.063 789.101C613.465 764.484 624.218 742.716 640.452 718.01C640.927 717.288 641.285 716.492 641.513 715.658C644.811 703.615 649.335 691.33 653.412 681.721C655.615 676.529 657.751 671.967 659.566 668.551C660.459 666.869 661.374 665.275 662.259 663.969C662.692 663.331 663.258 662.551 663.935 661.806C664.292 661.414 665.913 659.578 668.592 658.632L669.005 658.485L669.43 658.376C687.272 653.784 704.363 652.31 718.598 650.685C733.368 649 744.501 647.183 753.041 642.73C760.805 638.681 767.048 632.089 770.865 618.796ZM727.249 1033.91C724.98 1033.25 723.116 1031.63 722.159 1029.47L721.781 1028.61C707.468 996.346 697.228 965.063 679.643 939.107C662.733 914.147 639.559 895.242 599.976 889.455L599.76 889.423C599.189 889.34 598.628 889.195 598.088 888.99L506.863 854.496C504.235 853.503 501.262 853.964 499.083 855.736C449.189 896.29 432.447 935.201 425.144 962.461C423.196 969.733 421.896 976.271 420.814 982.026C419.779 987.533 418.835 992.987 417.675 997.165C417.08 999.309 416.295 1001.64 415.146 1003.77C415.105 1003.85 415.063 1003.93 415.021 1004C413.242 1007.22 412.256 1011.19 413.999 1014.42C436.229 1055.68 467.243 1072.63 497.211 1083.75C505.851 1086.95 514.357 1089.65 522.748 1092.34C531.036 1095.01 539.281 1097.69 546.904 1100.76C562.073 1106.88 576.377 1115.14 585.06 1130.02L585.362 1130.54C586.149 1131.89 586.524 1133.44 586.44 1135L586.408 1135.6C584.807 1165.3 583.634 1186.37 587.012 1201.13C588.618 1208.14 591.1 1212.87 594.44 1216.19C597.753 1219.48 602.728 1222.2 610.792 1223.74L611.282 1223.83L611.759 1223.97C627.63 1228.67 642.89 1234.27 656.755 1239.28C670.799 1244.36 683.236 1248.77 694.127 1251.44C705.184 1254.15 713.275 1254.71 719.016 1253.25C723.616 1252.09 727.339 1249.5 730.143 1243.47C730.329 1243.07 730.47 1242.65 730.578 1242.22L777.47 1056.48C778.525 1052.3 776.078 1048.03 771.936 1046.83L727.249 1033.91ZM967.041 735.012C968.635 732.66 968.654 729.602 967.481 727.014C965.162 721.898 963.335 715.216 961.784 708.008C958.654 693.468 956.117 674.165 953.549 654.909C950.947 635.393 948.297 615.782 944.933 599.82C943.251 591.84 941.454 585.084 939.513 579.875C937.456 574.353 935.689 571.843 934.779 571.034L934.245 570.56C934.173 570.497 934.107 570.427 934.048 570.352C933.926 570.198 933.779 570.066 933.607 569.973C933.288 569.802 932.711 569.524 931.766 569.183C929.597 568.402 926.432 567.627 922.141 566.921C913.583 565.512 901.906 564.591 887.661 563.933C863.81 562.833 834.688 562.527 802.697 561.666C797.959 561.539 794.146 565.528 794.373 570.262C795.465 593.017 794.017 610.633 790.088 624.315C784.903 642.374 775.354 653.651 762.289 660.465C749.998 666.874 735.259 668.914 720.866 670.556C707.327 672.101 693.43 673.337 678.908 676.655C678.19 676.819 677.574 677.282 677.228 677.932C675.771 680.676 673.884 684.675 671.823 689.533C667.7 699.25 663.137 711.798 660.106 723.556L660.022 723.884C659.798 724.753 659.429 725.579 658.93 726.326L658.743 726.607C642.401 751.123 632.169 771.736 625.215 794.86C619.313 814.488 615.683 836.22 612.877 864.154C612.469 868.214 615.226 871.891 619.181 872.891C655.58 882.099 679.048 902.571 696.201 927.889C713.503 953.428 724.821 984.863 736.718 1012.79C737.654 1014.99 739.533 1016.64 741.826 1017.3L782.02 1028.93C785.102 1029.82 788.347 1028.7 790.779 1026.6C793.852 1023.96 797.546 1021.96 802.09 1020.82C810.449 1018.72 820.539 1019.89 832.381 1022.25L832.982 1022.37C834.547 1022.69 835.984 1023.46 837.106 1024.6L837.537 1025.03C841.272 1028.81 845.13 1031.97 849.97 1034.75C853.579 1036.83 858.094 1035.24 859.868 1031.47C864.145 1022.38 867.981 1011.85 871.403 999.625C872.245 996.619 871.155 993.448 868.934 991.254C858.883 981.331 853.695 968.502 851.285 953.01C848.5 935.108 849.254 912.535 850.626 885.136C850.802 881.619 848.626 878.449 845.128 878.047C844.407 877.964 843.622 877.889 842.766 877.823C837.497 877.417 830.956 877.451 823.196 877.614C817.887 877.725 812.033 877.896 805.929 877.991C801.511 878.059 797.927 874.479 797.923 870.06L797.92 866.06C797.917 861.642 801.497 858.059 805.914 857.989C811.724 857.896 817.343 857.732 822.777 857.618C830.503 857.456 837.941 857.392 844.301 857.882C850.329 858.346 856.998 859.388 862.171 862.493C864.983 864.18 867.668 866.661 869.359 870.208C870.962 873.571 871.297 877.11 870.89 880.455C869.315 911.086 868.454 933.268 871.047 949.935C871.154 950.624 871.267 951.3 871.385 951.965C872.655 959.103 880.416 958.15 881.519 950.984C884.236 933.328 886.503 913.494 888.395 891.215L888.415 890.976C888.469 890.338 888.599 889.71 888.803 889.104L888.879 888.877C898.049 861.572 908.636 836.26 921.534 811.011C934.233 786.151 949.133 761.432 967.041 735.012ZM1233.58 426.45C1234.18 422.059 1231.1 418.013 1226.7 417.49C1198.25 414.105 1164.78 412.047 1123.68 411.057L1123.44 411.052C1122.79 411.036 1122.15 410.942 1121.53 410.772L1121.3 410.709C1113.08 408.471 1105.77 405.254 1100.62 400.033C1095 394.341 1092.89 387.259 1093.4 379.697C1093.88 372.667 1096.6 365.215 1100.3 357.592C1101.4 355.328 1102.62 352.978 1103.95 350.539C1106.4 346.054 1104.3 340.373 1099.41 338.894C1050.85 324.211 1019.25 326.428 982.275 332.191C940.861 338.645 892.218 349.733 808.403 346.937C805.658 346.845 803.013 348.146 801.506 350.442C791.325 365.944 785.311 379.655 781.699 394.505C777.498 411.776 776.416 431.078 776.423 457.463C776.423 457.933 776.465 458.408 776.548 458.871L790.193 534.947C790.86 538.668 794.041 541.415 797.819 541.523C831.362 542.481 863.652 542.804 888.583 543.955C902.981 544.619 915.623 545.579 925.388 547.186C930.259 547.988 934.757 549.003 938.543 550.367C941.819 551.547 945.758 553.395 948.644 556.619C953.04 560.807 956.031 566.923 958.254 572.891C960.691 579.431 962.729 587.275 964.503 595.696C968.052 612.536 970.796 632.939 973.374 652.265C975.985 671.851 978.414 690.22 981.336 703.799C981.643 705.225 983.517 705.572 984.379 704.394C988.251 699.097 992.76 694.129 997.529 689.501C1008.74 678.624 1022.33 668.717 1035.09 659.994C1048.21 651.019 1059.9 643.634 1068.84 636.962C1073.25 633.668 1076.41 630.96 1078.39 628.777C1078.48 628.677 1078.56 628.58 1078.64 628.486C1079.56 627.436 1079.93 626.055 1079.99 624.66C1080.71 608.681 1087.3 591.748 1096.84 580.662C1101.91 574.77 1108.67 569.566 1116.82 568.082C1123.38 566.887 1129.75 568.293 1135.45 571.973C1136.94 572.937 1138.65 573.56 1140.42 573.56H1172.05L1172.18 573.563C1187.95 573.965 1196.31 571.249 1202.34 565.407C1208.95 558.992 1214.46 547.267 1220.09 525.135L1233.58 426.45ZM1121.66 877.509C1121.61 872.713 1117.37 869.046 1112.61 869.627C1065.61 875.365 1030.55 876.09 1002.12 870.148C977.806 865.067 958.709 855.2 941.303 840.299C937.145 836.74 930.632 837.893 928.372 842.878C920.985 859.173 914.456 875.76 908.528 893.207C908.322 893.815 908.19 894.45 908.135 895.089C904.752 934.153 900.157 966.387 893.804 992.891C889.957 1008.94 885.433 1023.03 880.064 1035.35C878.019 1040.04 880.526 1045.57 885.527 1046.67C892.299 1048.15 900.085 1049.64 909.13 1051.21L909.607 1051.29C910.866 1051.51 912.054 1052.02 913.073 1052.8L913.459 1053.09C936.789 1070.76 966.783 1074.27 997.58 1079.45C1020.32 1083.27 1044.77 1088.16 1061.67 1104.26C1064.95 1107.38 1070.13 1107.94 1073.42 1104.84C1094.68 1084.9 1107.49 1062.61 1115.11 1038.99C1118.91 1027.19 1121.44 1014.98 1123.05 1002.46L1121.66 877.509ZM1459.12 626.72C1465.6 623.482 1463.75 614.389 1456.63 613.009C1437.43 609.286 1423.21 605.281 1413.2 600.459C1404.8 596.407 1398.09 591.192 1394.39 583.881C1390.95 577.077 1390.87 569.937 1392.27 563.133C1392.38 562.599 1392.44 562.053 1392.45 561.509C1392.86 535.006 1393.07 515.068 1391.85 499.86C1390.81 486.793 1388.79 478.535 1385.87 473.117C1385.29 472.039 1384.38 471.178 1383.34 470.546C1344.62 447.189 1311.07 432.18 1262.6 422.952C1258.15 422.106 1253.94 425.195 1253.32 429.678L1239.75 528.969L1239.62 529.511C1233.87 552.247 1227.29 569.068 1216.26 579.765C1204.62 591.054 1189.74 593.998 1171.82 593.56H1133.09C1130.97 593.56 1128.94 592.717 1127.44 591.217L1126.85 590.632C1123.79 587.576 1121.74 587.513 1120.4 587.758C1118.43 588.117 1115.43 589.726 1112 593.709C1105.12 601.699 1099.92 615.36 1099.92 627.56C1099.92 633.863 1096.18 638.926 1093.21 642.205C1089.92 645.836 1085.53 649.461 1080.8 652.987C1071.47 659.955 1058.57 668.164 1046.38 676.502C1033.82 685.09 1021.39 694.215 1011.46 703.854C1001.72 713.304 995.256 722.427 992.85 731.121L992.629 731.961L992.54 732.322C992.305 733.271 991.899 734.169 991.34 734.971L991.127 735.277C973.011 761.279 958.006 785.212 945.262 808.844C943.629 811.872 944.146 815.619 946.602 818.028C964.139 835.236 982.161 845.545 1006.21 850.571C1032.29 856.02 1065.98 855.381 1114.62 849.22C1118.55 848.722 1121.51 845.395 1121.65 841.435C1121.88 834.873 1122.31 828.391 1123.01 822.021C1123.49 817.629 1127.57 814.615 1131.94 815.266L1135.9 815.855C1140.27 816.505 1143.27 820.575 1142.81 824.969C1141.73 835.125 1141.36 845.821 1141.43 857C1141.57 879.779 1143.47 903.485 1144.63 928.625C1145.47 946.917 1145.89 965.675 1144.79 984.366C1144.51 989.046 1148.19 993.06 1152.88 993.06H1210.42C1214.84 993.06 1218.42 996.642 1218.42 1001.06V1005.06C1218.42 1009.48 1214.84 1013.06 1210.42 1013.06H1148.54C1144.61 1013.06 1141.28 1015.92 1140.55 1019.78C1139.43 1025.69 1138.08 1031.58 1136.45 1037.42C1135.86 1039.57 1136.13 1041.87 1137.27 1043.79C1159.09 1080.57 1176.26 1107.82 1190.49 1127.13C1205.86 1147.99 1216.72 1158.04 1224.99 1161.66C1228.75 1163.31 1231.78 1163.53 1234.61 1162.95C1237.63 1162.33 1241.19 1160.61 1245.57 1157.13C1254.65 1149.91 1264.77 1137.21 1278.43 1119.05C1286.13 1108.81 1299.8 1105.92 1312.02 1104.98C1324.88 1103.99 1340.24 1104.95 1355 1105.8C1370.04 1106.67 1384.7 1107.45 1397.62 1106.49C1410.76 1105.52 1420.33 1102.84 1426.26 1098.2C1430.76 1094.68 1433.99 1089.38 1434.33 1080.01C1434.68 1070.16 1431.75 1056.02 1423.25 1036.03C1415.08 1017.64 1408.04 1000.4 1401.87 983.484C1379.23 921.349 1368.66 864.324 1357.16 772.599C1357.12 772.213 1357.04 771.826 1356.93 771.453C1354.19 762.089 1347.71 752.696 1339.55 742.678C1331.69 733.022 1321.5 721.994 1315.42 711.91C1312.25 706.656 1309.57 700.721 1308.86 694.315C1308.12 687.577 1309.64 680.896 1313.91 674.721C1321.81 663.311 1338.45 654.636 1364.06 646.979L1364.29 646.911C1364.89 646.731 1365.51 646.622 1366.14 646.588L1366.38 646.575C1397.4 644.894 1420.82 641.234 1440.73 634.4C1447.14 632.204 1453.22 629.663 1459.12 626.72ZM1602.24 473.09C1603.05 436.152 1580.1 396.183 1526.72 366.053C1525.81 365.536 1524.78 365.207 1523.74 365.086C1514.63 364.038 1505.88 363.005 1497.41 361.98C1496.06 361.816 1494.7 361.998 1493.43 362.496C1450.57 379.291 1382.1 383.577 1313.68 379.944C1248.92 376.505 1182.28 365.852 1134.25 350.626C1130.69 349.497 1126.79 350.904 1124.91 354.127C1122.28 358.617 1120.07 362.661 1118.29 366.321C1114.97 373.169 1113.57 377.862 1113.36 381.05C1113.18 383.705 1113.8 384.914 1114.85 385.984C1116.21 387.357 1118.99 389.108 1124.43 390.795C1125.09 390.999 1125.79 391.103 1126.48 391.121C1175.76 392.364 1214.68 395.166 1247.41 400.091C1310.67 409.606 1350.44 427.004 1397.14 455.526L1397.46 455.724C1398.31 456.246 1399.06 456.923 1399.67 457.721L1399.9 458.023C1407.49 468.048 1410.47 481.747 1411.79 498.269C1413.13 514.997 1412.85 536.599 1412.42 563.717L1412.42 563.947C1412.41 564.553 1412.33 565.156 1412.18 565.745L1412.13 565.969C1410.96 570.677 1411.4 573.188 1412.24 574.861C1413.17 576.69 1415.52 579.371 1421.89 582.442C1434.16 588.359 1456.48 593.493 1494.41 598.991C1496.74 599.329 1499.11 598.616 1500.85 597.018C1507.38 591.012 1514.07 584.285 1521.11 576.737L1521.36 576.469C1522.03 575.758 1522.81 575.174 1523.69 574.745L1524.02 574.583C1575.72 549.21 1601.4 510.81 1602.24 473.09ZM1409.63 359.106C1415.59 358.606 1415.63 350.922 1409.73 350C1361.57 342.48 1316.93 333.699 1257.8 320.832L1257.61 320.792L1257.43 320.745C1223.14 311.919 1199.75 308.443 1180.98 311.475C1170.69 313.139 1161.42 316.836 1152.27 323.357C1147.3 326.894 1148.99 334.25 1154.87 335.873C1199.31 348.151 1257.44 356.93 1314.74 359.972C1348.07 361.742 1380.59 361.54 1409.63 359.106ZM1524.37 792.117C1524.38 791.428 1524.31 790.726 1524.15 790.057C1514.91 752.81 1488.36 734.746 1459.26 732.529C1430.89 730.368 1399.62 743.29 1379.18 770.07C1377.96 771.67 1377.46 773.718 1377.72 775.715C1387.45 852.393 1396.58 903.426 1412.96 954.195C1414.6 959.28 1420.71 961.252 1425.02 958.102C1463.88 929.746 1487.47 906.328 1501.91 882.806C1518.09 856.472 1523.36 829.071 1524.37 792.117Z" fill="white" fill-opacity="0.3" stroke="black" stroke-width="4"/>
<g id="&#227;&#131;&#143;&#227;&#130;&#166;&#227;&#130;&#185;">
<path id="plot_28" d="M1278.91 2.81839L1446 100.274C1448.87 101.943 1449.83 105.617 1448.16 108.48L1367.07 247.517C1365.4 250.379 1361.73 251.347 1358.87 249.677L1191.77 152.222C1188.91 150.552 1187.94 146.878 1189.61 144.016L1270.7 4.97845C1272.37 2.11602 1276.05 1.14892 1278.91 2.81839Z" fill="white" fill-opacity="0.3" stroke="black" stroke-width="4"/>
<path id="plot_3" d="M1410.14 1224.65L1557.85 1099.75C1560.38 1097.61 1564.17 1097.93 1566.3 1100.46L1670.23 1223.37C1672.37 1225.9 1672.05 1229.69 1669.52 1231.83L1521.81 1356.72C1519.28 1358.86 1515.49 1358.55 1513.35 1356.02L1409.43 1233.11C1407.29 1230.57 1407.61 1226.79 1410.14 1224.65Z" fill="white" fill-opacity="0.3" stroke="black" stroke-width="4"/>
<path id="plot_6" d="M740.106 1318.38L822.049 1143.15C823.453 1140.15 827.024 1138.86 830.026 1140.26L975.828 1208.45C978.83 1209.85 980.125 1213.42 978.721 1216.42L896.778 1391.65C895.374 1394.65 891.803 1395.94 888.801 1394.54L742.999 1326.36C739.998 1324.95 738.702 1321.38 740.106 1318.38Z" fill="white" fill-opacity="0.3" stroke="black" stroke-width="4"/>
<path id="plot_21" d="M946.697 376.124V516.283C946.697 519.597 944.01 522.283 940.697 522.283H820.89C817.576 522.283 814.89 519.597 814.89 516.283V376.124C814.89 372.81 817.576 370.124 820.89 370.124H940.697C944.01 370.124 946.697 372.81 946.697 376.124Z" fill="white" fill-opacity="0.3" stroke="black" stroke-width="4"/>
<path id="plot_5" d="M927.763 912.06L1067.92 912.06C1071.24 912.06 1073.92 914.747 1073.92 918.06L1073.92 1037.87C1073.92 1041.18 1071.24 1043.87 1067.92 1043.87L927.763 1043.87C924.449 1043.87 921.763 1041.18 921.763 1037.87L921.763 918.06C921.763 914.747 924.449 912.06 927.763 912.06Z" fill="white" fill-opacity="0.3" stroke="black" stroke-width="4"/>
<path id="plot_11" d="M396.921 830.083L396.898 970.242C396.897 973.555 394.21 976.241 390.897 976.241L271.09 976.221C267.776 976.22 265.09 973.533 265.091 970.22L265.114 830.061C265.115 826.747 267.802 824.061 271.115 824.062L390.922 824.082C394.236 824.082 396.921 826.769 396.921 830.083Z" fill="white" fill-opacity="0.3" stroke="black" stroke-width="4"/>
<path id="plot_1" d="M1122.76 1215.06L1262.92 1215.06C1266.24 1215.06 1268.92 1217.75 1268.92 1221.06L1268.92 1340.87C1268.92 1344.18 1266.24 1346.87 1262.92 1346.87L1122.76 1346.87C1119.45 1346.87 1116.76 1344.18 1116.76 1340.87L1116.76 1221.06C1116.76 1217.75 1119.45 1215.06 1122.76 1215.06Z" fill="white" fill-opacity="0.3" stroke="black" stroke-width="4"/>
<path id="plot_30" d="M1563.92 417.06V557.219C1563.92 560.533 1561.24 563.219 1557.92 563.219H1438.12C1434.8 563.219 1432.12 560.533 1432.12 557.219V417.06C1432.12 413.747 1434.8 411.06 1438.12 411.06H1557.92C1561.24 411.06 1563.92 413.747 1563.92 417.06Z" fill="white" fill-opacity="0.3" stroke="black" stroke-width="4"/>
<path id="plot_27" d="M990.857 127.347L1124.69 168.983C1127.85 169.968 1129.62 173.331 1128.64 176.495L1093.05 290.893C1092.06 294.057 1088.7 295.824 1085.53 294.84L951.702 253.203C948.538 252.219 946.771 248.856 947.755 245.691L983.346 131.293C984.33 128.129 987.693 126.362 990.857 127.347Z" fill="white" fill-opacity="0.3" stroke="black" stroke-width="4"/>
<path id="plot_16" d="M374.304 303.293L479.647 210.841C482.138 208.655 485.929 208.902 488.114 211.392L567.142 301.438C569.328 303.929 569.081 307.72 566.59 309.906L461.248 402.358C458.757 404.544 454.966 404.297 452.78 401.807L373.753 311.761C371.567 309.27 371.814 305.479 374.304 303.293Z" fill="white" fill-opacity="0.3" stroke="black" stroke-width="4"/>
<path id="plot_2" d="M1242.91 950.06L1334.92 950.06C1338.24 950.06 1340.92 952.747 1340.92 956.06L1340.92 1051.31C1340.92 1054.62 1338.24 1057.31 1334.92 1057.31L1242.91 1057.31C1239.6 1057.31 1236.91 1054.62 1236.91 1051.31L1236.91 956.06C1236.91 952.747 1239.6 950.06 1242.91 950.06Z" fill="white" fill-opacity="0.3" stroke="black" stroke-width="4"/>
<path id="plot_4" d="M1159.91 791.06L1251.92 791.06C1255.24 791.06 1257.92 793.747 1257.92 797.06L1257.92 892.311C1257.92 895.625 1255.24 898.311 1251.92 898.311L1159.91 898.311C1156.6 898.311 1153.91 895.625 1153.91 892.311L1153.91 797.06C1153.91 793.747 1156.6 791.06 1159.91 791.06Z" fill="white" fill-opacity="0.3" stroke="black" stroke-width="4"/>
<path id="plot_25" d="M1137.91 618.06L1229.92 618.06C1233.24 618.06 1235.92 620.747 1235.92 624.06L1235.92 719.311C1235.92 722.625 1233.24 725.311 1229.92 725.311L1137.91 725.311C1134.6 725.311 1131.91 722.625 1131.91 719.311L1131.91 624.06C1131.91 620.747 1134.6 618.06 1137.91 618.06Z" fill="white" fill-opacity="0.3" stroke="black" stroke-width="4"/>
<path id="plot_24" d="M1092.91 433.06L1184.92 433.06C1188.24 433.06 1190.92 435.747 1190.92 439.06L1190.92 534.311C1190.92 537.625 1188.24 540.311 1184.92 540.311L1092.91 540.311C1089.6 540.311 1086.91 537.625 1086.91 534.311L1086.91 439.06C1086.91 435.747 1089.6 433.06 1092.91 433.06Z" fill="white" fill-opacity="0.3" stroke="black" stroke-width="4"/>
<path id="plot_22" d="M978.91 483.06L1070.92 483.06C1074.24 483.06 1076.92 485.747 1076.92 489.06L1076.92 584.311C1076.92 587.625 1074.24 590.311 1070.92 590.311L978.91 590.311C975.596 590.311 972.91 587.625 972.91 584.311L972.91 489.06C972.91 485.747 975.596 483.06 978.91 483.06Z" fill="white" fill-opacity="0.3" stroke="black" stroke-width="4"/>
<path id="plot_20" d="M824.91 599.06L916.922 599.06C920.236 599.06 922.922 601.747 922.922 605.06L922.922 700.311C922.922 703.625 920.236 706.311 916.922 706.311L824.91 706.311C821.596 706.311 818.91 703.625 818.91 700.311L818.91 605.06C818.91 601.747 821.596 599.06 824.91 599.06Z" fill="white" fill-opacity="0.3" stroke="black" stroke-width="4"/>
<path id="plot_13" d="M772.91 744.06L864.922 744.06C868.236 744.06 870.922 746.747 870.922 750.06L870.922 845.311C870.922 848.625 868.236 851.311 864.922 851.311L772.91 851.311C769.596 851.311 766.91 848.625 766.91 845.311L766.91 750.06C766.91 746.747 769.596 744.06 772.91 744.06Z" fill="white" fill-opacity="0.3" stroke="black" stroke-width="4"/>
<path id="plot_12" d="M741.91 894.06L833.922 894.06C837.236 894.06 839.922 896.747 839.922 900.06L839.922 995.311C839.922 998.625 837.236 1001.31 833.922 1001.31L741.91 1001.31C738.596 1001.31 735.91 998.625 735.91 995.311L735.91 900.06C735.91 896.747 738.596 894.06 741.91 894.06Z" fill="white" fill-opacity="0.3" stroke="black" stroke-width="4"/>
<path id="plot_7" d="M623.374 1107.99L714.742 1118.87C718.032 1119.26 720.382 1122.24 719.991 1125.53L708.734 1220.12C708.343 1223.41 705.358 1225.76 702.067 1225.36L610.699 1214.49C607.409 1214.1 605.059 1211.11 605.451 1207.82L616.707 1113.24C617.099 1109.95 620.084 1107.6 623.374 1107.99Z" fill="white" fill-opacity="0.3" stroke="black" stroke-width="4"/>
<path id="plot_9" d="M442.91 1143.06L534.922 1143.06C538.236 1143.06 540.922 1145.75 540.922 1149.06L540.922 1244.31C540.922 1247.62 538.236 1250.31 534.922 1250.31L442.91 1250.31C439.596 1250.31 436.91 1247.62 436.91 1244.31L436.91 1149.06C436.91 1145.75 439.596 1143.06 442.91 1143.06Z" fill="white" fill-opacity="0.3" stroke="black" stroke-width="4"/>
<path id="plot_10" d="M423.491 997.955L469.031 918.002C470.671 915.122 474.334 914.118 477.214 915.758L559.981 962.9C562.86 964.54 563.865 968.203 562.225 971.083L516.686 1051.04C515.046 1053.92 511.382 1054.92 508.502 1053.28L425.735 1006.14C422.856 1004.5 421.851 1000.83 423.491 997.955Z" fill="white" fill-opacity="0.3" stroke="black" stroke-width="4"/>
<path id="plot_8" d="M545.271 1028.72L612.577 965.978C615.001 963.719 618.797 963.852 621.057 966.276L686.004 1035.95C688.264 1038.37 688.13 1042.17 685.707 1044.43L618.401 1107.17C615.977 1109.43 612.18 1109.3 609.92 1106.87L544.973 1037.2C542.714 1034.77 542.847 1030.98 545.271 1028.72Z" fill="white" fill-opacity="0.3" stroke="black" stroke-width="4"/>
<path id="plot_14" d="M646.91 758.06L738.922 758.06C742.236 758.06 744.922 760.747 744.922 764.06L744.922 859.311C744.922 862.625 742.236 865.311 738.922 865.311L646.91 865.311C643.596 865.311 640.91 862.625 640.91 859.311L640.91 764.06C640.91 760.747 643.596 758.06 646.91 758.06Z" fill="white" fill-opacity="0.3" stroke="black" stroke-width="4"/>
<path id="plot_15" d="M496.91 680.06L588.922 680.06C592.236 680.06 594.922 682.747 594.922 686.06L594.922 781.311C594.922 784.625 592.236 787.311 588.922 787.311L496.91 787.311C493.596 787.311 490.91 784.625 490.91 781.311L490.91 686.06C490.91 682.747 493.596 680.06 496.91 680.06Z" fill="white" fill-opacity="0.3" stroke="black" stroke-width="4"/>
<path id="plot_17" d="M472.034 559.726L530.307 488.518C532.406 485.954 536.186 485.576 538.75 487.675L612.464 547.998C615.029 550.097 615.407 553.877 613.308 556.442L555.035 627.65C552.936 630.214 549.156 630.592 546.592 628.493L472.877 568.169C470.313 566.071 469.935 562.291 472.034 559.726Z" fill="white" fill-opacity="0.3" stroke="black" stroke-width="4"/>
<path id="plot_18" d="M650.91 507.06L742.922 507.06C746.236 507.06 748.922 509.747 748.922 513.06L748.922 608.311C748.922 611.625 746.236 614.311 742.922 614.311L650.91 614.311C647.596 614.311 644.91 611.625 644.91 608.311L644.91 513.06C644.91 509.747 647.596 507.06 650.91 507.06Z" fill="white" fill-opacity="0.3" stroke="black" stroke-width="4"/>
<path id="plot_19" d="M673.22 272.22L756.818 310.659C759.829 312.043 761.147 315.606 759.763 318.617L719.971 405.158C718.587 408.168 715.024 409.487 712.013 408.103L628.414 369.663C625.404 368.279 624.085 364.716 625.469 361.705L665.262 275.164C666.646 272.154 670.209 270.835 673.22 272.22Z" fill="white" fill-opacity="0.3" stroke="black" stroke-width="4"/>
<path id="plot_23" d="M975.91 355.06L1067.92 355.06C1071.24 355.06 1073.92 357.747 1073.92 361.06L1073.92 456.311C1073.92 459.625 1071.24 462.311 1067.92 462.311L975.91 462.311C972.596 462.311 969.91 459.625 969.91 456.311L969.91 361.06C969.91 357.747 972.596 355.06 975.91 355.06Z" fill="white" fill-opacity="0.3" stroke="black" stroke-width="4"/>
<path id="plot_26" d="M1267.91 507.06L1359.92 507.06C1363.24 507.06 1365.92 509.747 1365.92 513.06L1365.92 608.311C1365.92 611.625 1363.24 614.311 1359.92 614.311L1267.91 614.311C1264.6 614.311 1261.91 611.625 1261.91 608.311L1261.91 513.06C1261.91 509.747 1264.6 507.06 1267.91 507.06Z" fill="white" fill-opacity="0.3" stroke="black" stroke-width="4"/>
<path id="plot_29" d="M1437.72 236.385L1507 175.831C1509.5 173.65 1513.29 173.905 1515.47 176.4L1578.15 248.117C1580.33 250.612 1580.08 254.402 1577.58 256.583L1508.3 317.137C1505.81 319.318 1502.02 319.063 1499.84 316.568L1437.15 244.851C1434.97 242.356 1435.23 238.566 1437.72 236.385Z" fill="white" fill-opacity="0.3" stroke="black" stroke-width="4"/>
<path id="apart_2" d="M1329.92 1698.06H1239.92C1236.61 1698.06 1233.92 1695.37 1233.92 1692.06V1476.06C1233.92 1472.75 1236.61 1470.06 1239.92 1470.06H1329.92C1333.24 1470.06 1335.92 1472.75 1335.92 1476.06V1692.06L1335.91 1692.37C1335.75 1695.54 1333.13 1698.06 1329.92 1698.06Z" fill="white" fill-opacity="0.3" stroke="black" stroke-width="4"/>
</g>
<g id="&#227;&#130;&#168;&#227;&#131;&#188;&#227;&#131;&#134;&#227;&#131;&#169;&#227;&#130;&#164;&#227;&#131;&#136;">
<g id="[&#230;&#139;&#161;&#229;&#188;&#181;&#232;&#161;&#151;]&#231;&#180;&#171;&#230;&#176;&#180;&#230;&#161;&#159;&#230;&#169;&#139;">
<g id="Group 5">
<path id="Polygon 22" d="M137.393 743.131L125.481 745.341L122.539 750.309L130.782 754.292H144.003L152.247 750.309L149.305 745.341L137.393 743.131Z" fill="#F0FEFF" fill-opacity="0.4"/>
<path id="Polygon 23" d="M137.422 739.138L125.304 741.382L122.311 746.424L130.697 750.467H144.147L152.534 746.424L149.541 741.382L137.422 739.138Z" fill="#F0FEFF" fill-opacity="0.4"/>
</g>
<g id="Group 2">
<g id="Polygon 1">
<path d="M136.897 682.06L132.499 706.059H141.295L136.897 682.06Z" fill="#D9D9D9" fill-opacity="0.3"/>
<path d="M133.099 705.559H140.695L136.898 684.833L133.099 705.559Z" stroke="#00BFFF" stroke-opacity="0.4"/>
</g>
<g id="Polygon 11">
<path d="M134.196 746.057L138.595 720.297L129.798 720.297L134.196 746.057Z" fill="#D9D9D9" fill-opacity="0.3"/>
<path d="M138.003 720.797L130.39 720.797L134.196 743.088L138.003 720.797Z" stroke="#00BFFF" stroke-opacity="0.4"/>
</g>
<g id="Polygon 2">
<path d="M135.106 688.8L128.827 714.167L137.6 714.813L135.106 688.8Z" fill="#D9D9D9" fill-opacity="0.3"/>
<path d="M129.454 713.712L137.046 714.271L134.888 691.761L129.454 713.712Z" stroke="#00BFFF" stroke-opacity="0.4"/>
</g>
<g id="Polygon 6">
<path d="M136.027 684.422L128.216 715.341L136.135 716.312L136.027 684.422Z" fill="#D9D9D9" fill-opacity="0.3"/>
<path d="M128.839 714.914L135.632 715.747L135.54 688.39L128.839 714.914Z" stroke="#00BFFF" stroke-opacity="0.4"/>
</g>
<g id="Polygon 13">
<path d="M138.189 746.526L142.587 720.766L133.791 720.766L138.189 746.526Z" fill="#D9D9D9" fill-opacity="0.3"/>
<path d="M141.995 721.266L134.383 721.266L138.188 743.557L141.995 721.266Z" stroke="#00BFFF" stroke-opacity="0.4"/>
</g>
<g id="Polygon 5">
<path d="M136.521 683.485L131.018 709.032L139.806 709.411L136.521 683.485Z" fill="#D9D9D9" fill-opacity="0.3"/>
<path d="M131.631 708.558L139.236 708.885L136.393 686.451L131.631 708.558Z" stroke="#00BFFF" stroke-opacity="0.4"/>
</g>
<g id="Polygon 14">
<path d="M141.85 746.027L144.659 713.197L139.623 713.153L141.85 746.027Z" fill="#D9D9D9" fill-opacity="0.3"/>
<path d="M144.116 713.692L140.157 713.657L141.908 739.482L144.116 713.692Z" stroke="#00BFFF" stroke-opacity="0.4"/>
</g>
<g id="Polygon 15">
<path d="M135.391 744.129L146.402 720.43L137.915 718.119L135.391 744.129Z" fill="#D9D9D9" fill-opacity="0.3"/>
<path d="M145.7 720.757L138.355 718.757L136.17 741.265L145.7 720.757Z" stroke="#00BFFF" stroke-opacity="0.4"/>
</g>
<g id="Polygon 3">
<path d="M138.561 687.525L134.751 713.379L143.545 713.178L138.561 687.525Z" fill="#D9D9D9" fill-opacity="0.3"/>
<path d="M135.331 712.865L142.942 712.691L138.629 690.493L135.331 712.865Z" stroke="#00BFFF" stroke-opacity="0.4"/>
</g>
<g id="Polygon 16">
<path d="M135.906 743.71L137.813 722.317L130.858 722.834L135.906 743.71Z" fill="#D9D9D9" fill-opacity="0.3"/>
<path d="M137.262 722.86L131.483 723.289L135.678 740.64L137.262 722.86Z" stroke="#00BFFF" stroke-opacity="0.4"/>
</g>
<g id="Polygon 7">
<path d="M141.36 729.259L145.478 703.453L136.682 703.549L141.36 729.259Z" fill="#D9D9D9" fill-opacity="0.3"/>
<path d="M144.891 703.96L137.279 704.042L141.327 726.291L144.891 703.96Z" stroke="#00BFFF" stroke-opacity="0.4"/>
</g>
<g id="Polygon 21">
<path d="M140.995 726.911L145.121 700.84L136.303 700.936L140.995 726.911Z" fill="#D9D9D9" fill-opacity="0.3"/>
<path d="M144.534 701.346L136.9 701.429L140.962 723.917L144.534 701.346Z" stroke="#00BFFF" stroke-opacity="0.4"/>
</g>
<g id="Polygon 17">
<path d="M133.081 744.002L137.479 718.242L128.683 718.242L133.081 744.002Z" fill="#D9D9D9" fill-opacity="0.3"/>
<path d="M136.887 718.742L129.275 718.742L133.08 741.033L136.887 718.742Z" stroke="#00BFFF" stroke-opacity="0.4"/>
</g>
<g id="Polygon 10">
<path d="M135.723 694.038L131.325 719.798H140.121L135.723 694.038Z" fill="#D9D9D9" fill-opacity="0.3"/>
<path d="M131.917 719.297H139.529L135.723 697.006L131.917 719.297Z" stroke="#00BFFF" stroke-opacity="0.4"/>
</g>
<g id="Polygon 18">
<path d="M136.369 739.716L140.767 713.956L131.971 713.956L136.369 739.716Z" fill="#D9D9D9" fill-opacity="0.3"/>
<path d="M140.175 714.456L132.563 714.456L136.368 736.747L140.175 714.456Z" stroke="#00BFFF" stroke-opacity="0.4"/>
</g>
<g id="Polygon 9">
<path d="M132.671 693.106L127.638 718.75L136.431 718.967L132.671 693.106Z" fill="#D9D9D9" fill-opacity="0.3"/>
<path d="M128.242 718.264L135.852 718.452L132.599 696.074L128.242 718.264Z" stroke="#00BFFF" stroke-opacity="0.4"/>
</g>
<g id="Polygon 19">
<path d="M138.274 751.713L136.884 723.572L128.274 725.372L138.274 751.713Z" fill="#D9D9D9" fill-opacity="0.3"/>
<path d="M136.414 724.181L128.949 725.742L137.619 748.58L136.414 724.181Z" stroke="#00BFFF" stroke-opacity="0.4"/>
</g>
<g id="Polygon 4">
<path d="M139.295 691.059L137.308 717.116L146.066 716.299L139.295 691.059Z" fill="#D9D9D9" fill-opacity="0.3"/>
<path d="M137.851 716.563L145.43 715.856L139.571 694.015L137.851 716.563Z" stroke="#00BFFF" stroke-opacity="0.4"/>
</g>
<g id="Polygon 20">
<path d="M133.087 743.736L136.245 717.795L127.459 718.216L133.087 743.736Z" fill="#D9D9D9" fill-opacity="0.3"/>
<path d="M135.678 718.323L128.074 718.687L132.944 740.771L135.678 718.323Z" stroke="#00BFFF" stroke-opacity="0.4"/>
</g>
<g id="Polygon 8">
<path d="M135.782 690.926L131.383 716.686H140.18L135.782 690.926Z" fill="#D9D9D9" fill-opacity="0.3"/>
<path d="M131.975 716.186H139.588L135.782 693.895L131.975 716.186Z" stroke="#00BFFF" stroke-opacity="0.4"/>
</g>
<g id="Polygon 12">
<path d="M140.774 740.638L147.019 715.263L138.245 714.628L140.774 740.638Z" fill="#D9D9D9" fill-opacity="0.3"/>
<path d="M146.392 715.719L138.8 715.17L140.988 737.677L146.392 715.719Z" stroke="#00BFFF" stroke-opacity="0.4"/>
</g>
</g>
</g>
<g id="[&#230;&#139;&#161;&#229;&#188;&#181;&#232;&#161;&#151;]&#227;&#131;&#169;&#227;&#131;&#153;&#227;&#131;&#179;&#227;&#131;&#128;&#227;&#131;&#188;&#227;&#131;&#153;&#227;&#131;&#131;&#227;&#131;&#137;&#229;&#141;&#151;">
<g id="Group 5_2">
<path id="Polygon 22_2" d="M964.393 1106.13L952.481 1108.34L949.539 1113.31L957.782 1117.29H971.003L979.247 1113.31L976.305 1108.34L964.393 1106.13Z" fill="#F0FEFF" fill-opacity="0.4"/>
<path id="Polygon 23_2" d="M964.422 1102.14L952.304 1104.38L949.311 1109.42L957.697 1113.47H971.147L979.534 1109.42L976.541 1104.38L964.422 1102.14Z" fill="#F0FEFF" fill-opacity="0.4"/>
</g>
<g id="Group 2_2">
<g id="Polygon 1_2">
<path d="M963.897 1045.06L959.499 1069.06H968.295L963.897 1045.06Z" fill="#D9D9D9" fill-opacity="0.3"/>
<path d="M960.099 1068.56H967.695L963.898 1047.83L960.099 1068.56Z" stroke="#00BFFF" stroke-opacity="0.4"/>
</g>
<g id="Polygon 11_2">
<path d="M961.196 1109.06L965.595 1083.3L956.798 1083.3L961.196 1109.06Z" fill="#D9D9D9" fill-opacity="0.3"/>
<path d="M965.003 1083.8L957.39 1083.8L961.196 1106.09L965.003 1083.8Z" stroke="#00BFFF" stroke-opacity="0.4"/>
</g>
<g id="Polygon 2_2">
<path d="M962.106 1051.8L955.827 1077.17L964.6 1077.81L962.106 1051.8Z" fill="#D9D9D9" fill-opacity="0.3"/>
<path d="M956.454 1076.71L964.046 1077.27L961.888 1054.76L956.454 1076.71Z" stroke="#00BFFF" stroke-opacity="0.4"/>
</g>
<g id="Polygon 6_2">
<path d="M963.027 1047.42L955.216 1078.34L963.135 1079.31L963.027 1047.42Z" fill="#D9D9D9" fill-opacity="0.3"/>
<path d="M955.839 1077.91L962.632 1078.75L962.54 1051.39L955.839 1077.91Z" stroke="#00BFFF" stroke-opacity="0.4"/>
</g>
<g id="Polygon 13_2">
<path d="M965.189 1109.53L969.587 1083.77L960.791 1083.77L965.189 1109.53Z" fill="#D9D9D9" fill-opacity="0.3"/>
<path d="M968.995 1084.27L961.383 1084.27L965.188 1106.56L968.995 1084.27Z" stroke="#00BFFF" stroke-opacity="0.4"/>
</g>
<g id="Polygon 5_2">
<path d="M963.521 1046.49L958.018 1072.03L966.806 1072.41L963.521 1046.49Z" fill="#D9D9D9" fill-opacity="0.3"/>
<path d="M958.631 1071.56L966.236 1071.89L963.393 1049.45L958.631 1071.56Z" stroke="#00BFFF" stroke-opacity="0.4"/>
</g>
<g id="Polygon 14_2">
<path d="M968.85 1109.03L971.659 1076.2L966.623 1076.15L968.85 1109.03Z" fill="#D9D9D9" fill-opacity="0.3"/>
<path d="M971.116 1076.69L967.157 1076.66L968.908 1102.48L971.116 1076.69Z" stroke="#00BFFF" stroke-opacity="0.4"/>
</g>
<g id="Polygon 15_2">
<path d="M962.391 1107.13L973.402 1083.43L964.915 1081.12L962.391 1107.13Z" fill="#D9D9D9" fill-opacity="0.3"/>
<path d="M972.7 1083.76L965.355 1081.76L963.17 1104.26L972.7 1083.76Z" stroke="#00BFFF" stroke-opacity="0.4"/>
</g>
<g id="Polygon 3_2">
<path d="M965.561 1050.53L961.751 1076.38L970.545 1076.18L965.561 1050.53Z" fill="#D9D9D9" fill-opacity="0.3"/>
<path d="M962.331 1075.86L969.942 1075.69L965.629 1053.49L962.331 1075.86Z" stroke="#00BFFF" stroke-opacity="0.4"/>
</g>
<g id="Polygon 16_2">
<path d="M962.906 1106.71L964.813 1085.32L957.858 1085.83L962.906 1106.71Z" fill="#D9D9D9" fill-opacity="0.3"/>
<path d="M964.262 1085.86L958.483 1086.29L962.678 1103.64L964.262 1085.86Z" stroke="#00BFFF" stroke-opacity="0.4"/>
</g>
<g id="Polygon 7_2">
<path d="M968.36 1092.26L972.477 1066.45L963.682 1066.55L968.36 1092.26Z" fill="#D9D9D9" fill-opacity="0.3"/>
<path d="M971.891 1066.96L964.279 1067.04L968.327 1089.29L971.891 1066.96Z" stroke="#00BFFF" stroke-opacity="0.4"/>
</g>
<g id="Polygon 21_2">
<path d="M967.995 1089.91L972.121 1063.84L963.303 1063.94L967.995 1089.91Z" fill="#D9D9D9" fill-opacity="0.3"/>
<path d="M971.534 1064.35L963.9 1064.43L967.962 1086.92L971.534 1064.35Z" stroke="#00BFFF" stroke-opacity="0.4"/>
</g>
<g id="Polygon 17_2">
<path d="M960.081 1107L964.479 1081.24L955.683 1081.24L960.081 1107Z" fill="#D9D9D9" fill-opacity="0.3"/>
<path d="M963.887 1081.74L956.275 1081.74L960.08 1104.03L963.887 1081.74Z" stroke="#00BFFF" stroke-opacity="0.4"/>
</g>
<g id="Polygon 10_2">
<path d="M962.723 1057.04L958.325 1082.8H967.121L962.723 1057.04Z" fill="#D9D9D9" fill-opacity="0.3"/>
<path d="M958.917 1082.3H966.529L962.723 1060.01L958.917 1082.3Z" stroke="#00BFFF" stroke-opacity="0.4"/>
</g>
<g id="Polygon 18_2">
<path d="M963.369 1102.72L967.767 1076.96L958.971 1076.96L963.369 1102.72Z" fill="#D9D9D9" fill-opacity="0.3"/>
<path d="M967.175 1077.46L959.563 1077.46L963.368 1099.75L967.175 1077.46Z" stroke="#00BFFF" stroke-opacity="0.4"/>
</g>
<g id="Polygon 9_2">
<path d="M959.671 1056.11L954.638 1081.75L963.431 1081.97L959.671 1056.11Z" fill="#D9D9D9" fill-opacity="0.3"/>
<path d="M955.242 1081.26L962.852 1081.45L959.599 1059.07L955.242 1081.26Z" stroke="#00BFFF" stroke-opacity="0.4"/>
</g>
<g id="Polygon 19_2">
<path d="M965.274 1114.71L963.884 1086.57L955.274 1088.37L965.274 1114.71Z" fill="#D9D9D9" fill-opacity="0.3"/>
<path d="M963.414 1087.18L955.949 1088.74L964.619 1111.58L963.414 1087.18Z" stroke="#00BFFF" stroke-opacity="0.4"/>
</g>
<g id="Polygon 4_2">
<path d="M966.295 1054.06L964.308 1080.12L973.066 1079.3L966.295 1054.06Z" fill="#D9D9D9" fill-opacity="0.3"/>
<path d="M964.851 1079.56L972.43 1078.86L966.571 1057.01L964.851 1079.56Z" stroke="#00BFFF" stroke-opacity="0.4"/>
</g>
<g id="Polygon 20_2">
<path d="M960.087 1106.74L963.245 1080.79L954.459 1081.22L960.087 1106.74Z" fill="#D9D9D9" fill-opacity="0.3"/>
<path d="M962.678 1081.32L955.074 1081.69L959.944 1103.77L962.678 1081.32Z" stroke="#00BFFF" stroke-opacity="0.4"/>
</g>
<g id="Polygon 8_2">
<path d="M962.782 1053.93L958.383 1079.69H967.18L962.782 1053.93Z" fill="#D9D9D9" fill-opacity="0.3"/>
<path d="M958.975 1079.19H966.588L962.782 1056.89L958.975 1079.19Z" stroke="#00BFFF" stroke-opacity="0.4"/>
</g>
<g id="Polygon 12_2">
<path d="M967.774 1103.64L974.019 1078.26L965.245 1077.63L967.774 1103.64Z" fill="#D9D9D9" fill-opacity="0.3"/>
<path d="M973.392 1078.72L965.8 1078.17L967.988 1100.68L973.392 1078.72Z" stroke="#00BFFF" stroke-opacity="0.4"/>
</g>
</g>
</g>
<g id="[&#230;&#139;&#161;&#229;&#188;&#181;&#232;&#161;&#151;]&#227;&#131;&#169;&#227;&#131;&#153;&#227;&#131;&#179;&#227;&#131;&#128;&#227;&#131;&#188;&#227;&#131;&#153;&#227;&#131;&#131;&#227;&#131;&#137;&#229;&#141;&#151;&#232;&#165;&#191;">
<g id="Group 5_3">
<path id="Polygon 22_3" d="M522.393 1133.13L510.481 1135.34L507.539 1140.31L515.782 1144.29H529.003L537.247 1140.31L534.305 1135.34L522.393 1133.13Z" fill="#F0FEFF" fill-opacity="0.4"/>
<path id="Polygon 23_3" d="M522.422 1129.14L510.304 1131.38L507.311 1136.42L515.697 1140.47H529.147L537.534 1136.42L534.541 1131.38L522.422 1129.14Z" fill="#F0FEFF" fill-opacity="0.4"/>
</g>
<g id="Group 2_3">
<g id="Polygon 1_3">
<path d="M521.897 1072.06L517.499 1096.06H526.295L521.897 1072.06Z" fill="#D9D9D9" fill-opacity="0.3"/>
<path d="M518.099 1095.56H525.695L521.898 1074.83L518.099 1095.56Z" stroke="#00BFFF" stroke-opacity="0.4"/>
</g>
<g id="Polygon 11_3">
<path d="M519.196 1136.06L523.595 1110.3L514.798 1110.3L519.196 1136.06Z" fill="#D9D9D9" fill-opacity="0.3"/>
<path d="M523.003 1110.8L515.39 1110.8L519.196 1133.09L523.003 1110.8Z" stroke="#00BFFF" stroke-opacity="0.4"/>
</g>
<g id="Polygon 2_3">
<path d="M520.106 1078.8L513.827 1104.17L522.6 1104.81L520.106 1078.8Z" fill="#D9D9D9" fill-opacity="0.3"/>
<path d="M514.454 1103.71L522.046 1104.27L519.888 1081.76L514.454 1103.71Z" stroke="#00BFFF" stroke-opacity="0.4"/>
</g>
<g id="Polygon 6_3">
<path d="M521.027 1074.42L513.216 1105.34L521.135 1106.31L521.027 1074.42Z" fill="#D9D9D9" fill-opacity="0.3"/>
<path d="M513.839 1104.91L520.632 1105.75L520.54 1078.39L513.839 1104.91Z" stroke="#00BFFF" stroke-opacity="0.4"/>
</g>
<g id="Polygon 13_3">
<path d="M523.189 1136.53L527.587 1110.77L518.791 1110.77L523.189 1136.53Z" fill="#D9D9D9" fill-opacity="0.3"/>
<path d="M526.995 1111.27L519.383 1111.27L523.188 1133.56L526.995 1111.27Z" stroke="#00BFFF" stroke-opacity="0.4"/>
</g>
<g id="Polygon 5_3">
<path d="M521.521 1073.49L516.018 1099.03L524.806 1099.41L521.521 1073.49Z" fill="#D9D9D9" fill-opacity="0.3"/>
<path d="M516.631 1098.56L524.236 1098.89L521.393 1076.45L516.631 1098.56Z" stroke="#00BFFF" stroke-opacity="0.4"/>
</g>
<g id="Polygon 14_3">
<path d="M526.85 1136.03L529.659 1103.2L524.623 1103.15L526.85 1136.03Z" fill="#D9D9D9" fill-opacity="0.3"/>
<path d="M529.116 1103.69L525.157 1103.66L526.908 1129.48L529.116 1103.69Z" stroke="#00BFFF" stroke-opacity="0.4"/>
</g>
<g id="Polygon 15_3">
<path d="M520.391 1134.13L531.402 1110.43L522.915 1108.12L520.391 1134.13Z" fill="#D9D9D9" fill-opacity="0.3"/>
<path d="M530.7 1110.76L523.355 1108.76L521.17 1131.26L530.7 1110.76Z" stroke="#00BFFF" stroke-opacity="0.4"/>
</g>
<g id="Polygon 3_3">
<path d="M523.561 1077.53L519.751 1103.38L528.545 1103.18L523.561 1077.53Z" fill="#D9D9D9" fill-opacity="0.3"/>
<path d="M520.331 1102.86L527.942 1102.69L523.629 1080.49L520.331 1102.86Z" stroke="#00BFFF" stroke-opacity="0.4"/>
</g>
<g id="Polygon 16_3">
<path d="M520.906 1133.71L522.813 1112.32L515.858 1112.83L520.906 1133.71Z" fill="#D9D9D9" fill-opacity="0.3"/>
<path d="M522.262 1112.86L516.483 1113.29L520.678 1130.64L522.262 1112.86Z" stroke="#00BFFF" stroke-opacity="0.4"/>
</g>
<g id="Polygon 7_3">
<path d="M526.36 1119.26L530.478 1093.45L521.682 1093.55L526.36 1119.26Z" fill="#D9D9D9" fill-opacity="0.3"/>
<path d="M529.891 1093.96L522.279 1094.04L526.327 1116.29L529.891 1093.96Z" stroke="#00BFFF" stroke-opacity="0.4"/>
</g>
<g id="Polygon 21_3">
<path d="M525.995 1116.91L530.121 1090.84L521.303 1090.94L525.995 1116.91Z" fill="#D9D9D9" fill-opacity="0.3"/>
<path d="M529.534 1091.35L521.9 1091.43L525.962 1113.92L529.534 1091.35Z" stroke="#00BFFF" stroke-opacity="0.4"/>
</g>
<g id="Polygon 17_3">
<path d="M518.081 1134L522.479 1108.24L513.683 1108.24L518.081 1134Z" fill="#D9D9D9" fill-opacity="0.3"/>
<path d="M521.887 1108.74L514.275 1108.74L518.08 1131.03L521.887 1108.74Z" stroke="#00BFFF" stroke-opacity="0.4"/>
</g>
<g id="Polygon 10_3">
<path d="M520.723 1084.04L516.325 1109.8H525.121L520.723 1084.04Z" fill="#D9D9D9" fill-opacity="0.3"/>
<path d="M516.917 1109.3H524.529L520.723 1087.01L516.917 1109.3Z" stroke="#00BFFF" stroke-opacity="0.4"/>
</g>
<g id="Polygon 18_3">
<path d="M521.369 1129.72L525.767 1103.96L516.971 1103.96L521.369 1129.72Z" fill="#D9D9D9" fill-opacity="0.3"/>
<path d="M525.175 1104.46L517.563 1104.46L521.368 1126.75L525.175 1104.46Z" stroke="#00BFFF" stroke-opacity="0.4"/>
</g>
<g id="Polygon 9_3">
<path d="M517.671 1083.11L512.638 1108.75L521.431 1108.97L517.671 1083.11Z" fill="#D9D9D9" fill-opacity="0.3"/>
<path d="M513.242 1108.26L520.852 1108.45L517.599 1086.07L513.242 1108.26Z" stroke="#00BFFF" stroke-opacity="0.4"/>
</g>
<g id="Polygon 19_3">
<path d="M523.274 1141.71L521.884 1113.57L513.274 1115.37L523.274 1141.71Z" fill="#D9D9D9" fill-opacity="0.3"/>
<path d="M521.414 1114.18L513.949 1115.74L522.619 1138.58L521.414 1114.18Z" stroke="#00BFFF" stroke-opacity="0.4"/>
</g>
<g id="Polygon 4_3">
<path d="M524.295 1081.06L522.308 1107.12L531.066 1106.3L524.295 1081.06Z" fill="#D9D9D9" fill-opacity="0.3"/>
<path d="M522.851 1106.56L530.43 1105.86L524.571 1084.01L522.851 1106.56Z" stroke="#00BFFF" stroke-opacity="0.4"/>
</g>
<g id="Polygon 20_3">
<path d="M518.087 1133.74L521.245 1107.79L512.459 1108.22L518.087 1133.74Z" fill="#D9D9D9" fill-opacity="0.3"/>
<path d="M520.678 1108.32L513.074 1108.69L517.944 1130.77L520.678 1108.32Z" stroke="#00BFFF" stroke-opacity="0.4"/>
</g>
<g id="Polygon 8_3">
<path d="M520.782 1080.93L516.383 1106.69H525.18L520.782 1080.93Z" fill="#D9D9D9" fill-opacity="0.3"/>
<path d="M516.975 1106.19H524.588L520.782 1083.89L516.975 1106.19Z" stroke="#00BFFF" stroke-opacity="0.4"/>
</g>
<g id="Polygon 12_3">
<path d="M525.774 1130.64L532.019 1105.26L523.245 1104.63L525.774 1130.64Z" fill="#D9D9D9" fill-opacity="0.3"/>
<path d="M531.392 1105.72L523.8 1105.17L525.988 1127.68L531.392 1105.72Z" stroke="#00BFFF" stroke-opacity="0.4"/>
</g>
</g>
</g>
<g id="[&#230;&#139;&#161;&#229;&#188;&#181;&#232;&#161;&#151;]&#227;&#131;&#170;&#227;&#131;&#170;&#227;&#131;&#188;&#227;&#131;&#146;&#227;&#131;&#171;&#227;&#130;&#186;">
<g id="Group 5_4">
<path id="Polygon 22_4" d="M1396.39 1687.13L1384.48 1689.34L1381.54 1694.31L1389.78 1698.29H1403L1411.25 1694.31L1408.3 1689.34L1396.39 1687.13Z" fill="#F0FEFF" fill-opacity="0.4"/>
<path id="Polygon 23_4" d="M1396.42 1683.14L1384.3 1685.38L1381.31 1690.42L1389.7 1694.47H1403.15L1411.53 1690.42L1408.54 1685.38L1396.42 1683.14Z" fill="#F0FEFF" fill-opacity="0.4"/>
</g>
<g id="Group 2_4">
<g id="Polygon 1_4">
<path d="M1395.9 1626.06L1391.5 1650.06H1400.3L1395.9 1626.06Z" fill="#D9D9D9" fill-opacity="0.3"/>
<path d="M1392.1 1649.56H1399.7L1395.9 1628.83L1392.1 1649.56Z" stroke="#00BFFF" stroke-opacity="0.4"/>
</g>
<g id="Polygon 11_4">
<path d="M1393.2 1690.06L1397.59 1664.3L1388.8 1664.3L1393.2 1690.06Z" fill="#D9D9D9" fill-opacity="0.3"/>
<path d="M1397 1664.8L1389.39 1664.8L1393.2 1687.09L1397 1664.8Z" stroke="#00BFFF" stroke-opacity="0.4"/>
</g>
<g id="Polygon 2_4">
<path d="M1394.11 1632.8L1387.83 1658.17L1396.6 1658.81L1394.11 1632.8Z" fill="#D9D9D9" fill-opacity="0.3"/>
<path d="M1388.45 1657.71L1396.05 1658.27L1393.89 1635.76L1388.45 1657.71Z" stroke="#00BFFF" stroke-opacity="0.4"/>
</g>
<g id="Polygon 6_4">
<path d="M1395.03 1628.42L1387.22 1659.34L1395.13 1660.31L1395.03 1628.42Z" fill="#D9D9D9" fill-opacity="0.3"/>
<path d="M1387.84 1658.91L1394.63 1659.75L1394.54 1632.39L1387.84 1658.91Z" stroke="#00BFFF" stroke-opacity="0.4"/>
</g>
<g id="Polygon 13_4">
<path d="M1397.19 1690.53L1401.59 1664.77L1392.79 1664.77L1397.19 1690.53Z" fill="#D9D9D9" fill-opacity="0.3"/>
<path d="M1400.99 1665.27L1393.38 1665.27L1397.19 1687.56L1400.99 1665.27Z" stroke="#00BFFF" stroke-opacity="0.4"/>
</g>
<g id="Polygon 5_4">
<path d="M1395.52 1627.49L1390.02 1653.03L1398.81 1653.41L1395.52 1627.49Z" fill="#D9D9D9" fill-opacity="0.3"/>
<path d="M1390.63 1652.56L1398.24 1652.89L1395.39 1630.45L1390.63 1652.56Z" stroke="#00BFFF" stroke-opacity="0.4"/>
</g>
<g id="Polygon 14_4">
<path d="M1400.85 1690.03L1403.66 1657.2L1398.62 1657.15L1400.85 1690.03Z" fill="#D9D9D9" fill-opacity="0.3"/>
<path d="M1403.12 1657.69L1399.16 1657.66L1400.91 1683.48L1403.12 1657.69Z" stroke="#00BFFF" stroke-opacity="0.4"/>
</g>
<g id="Polygon 15_4">
<path d="M1394.39 1688.13L1405.4 1664.43L1396.91 1662.12L1394.39 1688.13Z" fill="#D9D9D9" fill-opacity="0.3"/>
<path d="M1404.7 1664.76L1397.35 1662.76L1395.17 1685.26L1404.7 1664.76Z" stroke="#00BFFF" stroke-opacity="0.4"/>
</g>
<g id="Polygon 3_4">
<path d="M1397.56 1631.53L1393.75 1657.38L1402.54 1657.18L1397.56 1631.53Z" fill="#D9D9D9" fill-opacity="0.3"/>
<path d="M1394.33 1656.86L1401.94 1656.69L1397.63 1634.49L1394.33 1656.86Z" stroke="#00BFFF" stroke-opacity="0.4"/>
</g>
<g id="Polygon 16_4">
<path d="M1394.91 1687.71L1396.81 1666.32L1389.86 1666.83L1394.91 1687.71Z" fill="#D9D9D9" fill-opacity="0.3"/>
<path d="M1396.26 1666.86L1390.48 1667.29L1394.68 1684.64L1396.26 1666.86Z" stroke="#00BFFF" stroke-opacity="0.4"/>
</g>
<g id="Polygon 7_4">
<path d="M1400.36 1673.26L1404.48 1647.45L1395.68 1647.55L1400.36 1673.26Z" fill="#D9D9D9" fill-opacity="0.3"/>
<path d="M1403.89 1647.96L1396.28 1648.04L1400.33 1670.29L1403.89 1647.96Z" stroke="#00BFFF" stroke-opacity="0.4"/>
</g>
<g id="Polygon 21_4">
<path d="M1399.99 1670.91L1404.12 1644.84L1395.3 1644.94L1399.99 1670.91Z" fill="#D9D9D9" fill-opacity="0.3"/>
<path d="M1403.53 1645.35L1395.9 1645.43L1399.96 1667.92L1403.53 1645.35Z" stroke="#00BFFF" stroke-opacity="0.4"/>
</g>
<g id="Polygon 17_4">
<path d="M1392.08 1688L1396.48 1662.24L1387.68 1662.24L1392.08 1688Z" fill="#D9D9D9" fill-opacity="0.3"/>
<path d="M1395.89 1662.74L1388.27 1662.74L1392.08 1685.03L1395.89 1662.74Z" stroke="#00BFFF" stroke-opacity="0.4"/>
</g>
<g id="Polygon 10_4">
<path d="M1394.72 1638.04L1390.32 1663.8H1399.12L1394.72 1638.04Z" fill="#D9D9D9" fill-opacity="0.3"/>
<path d="M1390.92 1663.3H1398.53L1394.72 1641.01L1390.92 1663.3Z" stroke="#00BFFF" stroke-opacity="0.4"/>
</g>
<g id="Polygon 18_4">
<path d="M1395.37 1683.72L1399.77 1657.96L1390.97 1657.96L1395.37 1683.72Z" fill="#D9D9D9" fill-opacity="0.3"/>
<path d="M1399.17 1658.46L1391.56 1658.46L1395.37 1680.75L1399.17 1658.46Z" stroke="#00BFFF" stroke-opacity="0.4"/>
</g>
<g id="Polygon 9_4">
<path d="M1391.67 1637.11L1386.64 1662.75L1395.43 1662.97L1391.67 1637.11Z" fill="#D9D9D9" fill-opacity="0.3"/>
<path d="M1387.24 1662.26L1394.85 1662.45L1391.6 1640.07L1387.24 1662.26Z" stroke="#00BFFF" stroke-opacity="0.4"/>
</g>
<g id="Polygon 19_4">
<path d="M1397.27 1695.71L1395.88 1667.57L1387.27 1669.37L1397.27 1695.71Z" fill="#D9D9D9" fill-opacity="0.3"/>
<path d="M1395.41 1668.18L1387.95 1669.74L1396.62 1692.58L1395.41 1668.18Z" stroke="#00BFFF" stroke-opacity="0.4"/>
</g>
<g id="Polygon 4_4">
<path d="M1398.29 1635.06L1396.31 1661.12L1405.07 1660.3L1398.29 1635.06Z" fill="#D9D9D9" fill-opacity="0.3"/>
<path d="M1396.85 1660.56L1404.43 1659.86L1398.57 1638.01L1396.85 1660.56Z" stroke="#00BFFF" stroke-opacity="0.4"/>
</g>
<g id="Polygon 20_4">
<path d="M1392.09 1687.74L1395.25 1661.79L1386.46 1662.22L1392.09 1687.74Z" fill="#D9D9D9" fill-opacity="0.3"/>
<path d="M1394.68 1662.32L1387.07 1662.69L1391.94 1684.77L1394.68 1662.32Z" stroke="#00BFFF" stroke-opacity="0.4"/>
</g>
<g id="Polygon 8_4">
<path d="M1394.78 1634.93L1390.38 1660.69H1399.18L1394.78 1634.93Z" fill="#D9D9D9" fill-opacity="0.3"/>
<path d="M1390.98 1660.19H1398.59L1394.78 1637.89L1390.98 1660.19Z" stroke="#00BFFF" stroke-opacity="0.4"/>
</g>
<g id="Polygon 12_4">
<path d="M1399.77 1684.64L1406.02 1659.26L1397.25 1658.63L1399.77 1684.64Z" fill="#D9D9D9" fill-opacity="0.3"/>
<path d="M1405.39 1659.72L1397.8 1659.17L1399.99 1681.68L1405.39 1659.72Z" stroke="#00BFFF" stroke-opacity="0.4"/>
</g>
</g>
</g>
<g id="[&#230;&#139;&#161;&#229;&#188;&#181;&#232;&#161;&#151;]&#232;&#139;&#165;&#232;&#141;&#137;&#229;&#149;&#134;&#229;&#186;&#151;&#232;&#161;&#151;">
<g id="Group 5_5">
<path id="Polygon 22_5" d="M1076.39 644.131L1064.48 646.341L1061.54 651.309L1069.78 655.292H1083L1091.25 651.309L1088.3 646.341L1076.39 644.131Z" fill="#F0FEFF" fill-opacity="0.4"/>
<path id="Polygon 23_5" d="M1076.42 640.138L1064.3 642.382L1061.31 647.424L1069.7 651.467H1083.15L1091.53 647.424L1088.54 642.382L1076.42 640.138Z" fill="#F0FEFF" fill-opacity="0.4"/>
</g>
<g id="Group 2_5">
<g id="Polygon 1_5">
<path d="M1075.9 583.06L1071.5 607.059H1080.3L1075.9 583.06Z" fill="#D9D9D9" fill-opacity="0.3"/>
<path d="M1072.1 606.559H1079.7L1075.9 585.833L1072.1 606.559Z" stroke="#00BFFF" stroke-opacity="0.4"/>
</g>
<g id="Polygon 11_5">
<path d="M1073.2 647.057L1077.59 621.297L1068.8 621.297L1073.2 647.057Z" fill="#D9D9D9" fill-opacity="0.3"/>
<path d="M1077 621.797L1069.39 621.797L1073.2 644.088L1077 621.797Z" stroke="#00BFFF" stroke-opacity="0.4"/>
</g>
<g id="Polygon 2_5">
<path d="M1074.11 589.8L1067.83 615.167L1076.6 615.813L1074.11 589.8Z" fill="#D9D9D9" fill-opacity="0.3"/>
<path d="M1068.45 614.712L1076.05 615.271L1073.89 592.761L1068.45 614.712Z" stroke="#00BFFF" stroke-opacity="0.4"/>
</g>
<g id="Polygon 6_5">
<path d="M1075.03 585.422L1067.22 616.341L1075.13 617.312L1075.03 585.422Z" fill="#D9D9D9" fill-opacity="0.3"/>
<path d="M1067.84 615.914L1074.63 616.747L1074.54 589.39L1067.84 615.914Z" stroke="#00BFFF" stroke-opacity="0.4"/>
</g>
<g id="Polygon 13_5">
<path d="M1077.19 647.526L1081.59 621.766L1072.79 621.766L1077.19 647.526Z" fill="#D9D9D9" fill-opacity="0.3"/>
<path d="M1080.99 622.266L1073.38 622.266L1077.19 644.557L1080.99 622.266Z" stroke="#00BFFF" stroke-opacity="0.4"/>
</g>
<g id="Polygon 5_5">
<path d="M1075.52 584.485L1070.02 610.032L1078.81 610.411L1075.52 584.485Z" fill="#D9D9D9" fill-opacity="0.3"/>
<path d="M1070.63 609.558L1078.24 609.885L1075.39 587.451L1070.63 609.558Z" stroke="#00BFFF" stroke-opacity="0.4"/>
</g>
<g id="Polygon 14_5">
<path d="M1080.85 647.027L1083.66 614.197L1078.62 614.153L1080.85 647.027Z" fill="#D9D9D9" fill-opacity="0.3"/>
<path d="M1083.12 614.692L1079.16 614.657L1080.91 640.482L1083.12 614.692Z" stroke="#00BFFF" stroke-opacity="0.4"/>
</g>
<g id="Polygon 15_5">
<path d="M1074.39 645.129L1085.4 621.43L1076.91 619.119L1074.39 645.129Z" fill="#D9D9D9" fill-opacity="0.3"/>
<path d="M1084.7 621.757L1077.35 619.757L1075.17 642.265L1084.7 621.757Z" stroke="#00BFFF" stroke-opacity="0.4"/>
</g>
<g id="Polygon 3_5">
<path d="M1077.56 588.525L1073.75 614.379L1082.54 614.178L1077.56 588.525Z" fill="#D9D9D9" fill-opacity="0.3"/>
<path d="M1074.33 613.865L1081.94 613.691L1077.63 591.493L1074.33 613.865Z" stroke="#00BFFF" stroke-opacity="0.4"/>
</g>
<g id="Polygon 16_5">
<path d="M1074.91 644.71L1076.81 623.317L1069.86 623.834L1074.91 644.71Z" fill="#D9D9D9" fill-opacity="0.3"/>
<path d="M1076.26 623.86L1070.48 624.289L1074.68 641.64L1076.26 623.86Z" stroke="#00BFFF" stroke-opacity="0.4"/>
</g>
<g id="Polygon 7_5">
<path d="M1080.36 630.259L1084.48 604.453L1075.68 604.549L1080.36 630.259Z" fill="#D9D9D9" fill-opacity="0.3"/>
<path d="M1083.89 604.96L1076.28 605.042L1080.33 627.291L1083.89 604.96Z" stroke="#00BFFF" stroke-opacity="0.4"/>
</g>
<g id="Polygon 21_5">
<path d="M1079.99 627.911L1084.12 601.84L1075.3 601.936L1079.99 627.911Z" fill="#D9D9D9" fill-opacity="0.3"/>
<path d="M1083.53 602.346L1075.9 602.429L1079.96 624.917L1083.53 602.346Z" stroke="#00BFFF" stroke-opacity="0.4"/>
</g>
<g id="Polygon 17_5">
<path d="M1072.08 645.002L1076.48 619.242L1067.68 619.242L1072.08 645.002Z" fill="#D9D9D9" fill-opacity="0.3"/>
<path d="M1075.89 619.742L1068.27 619.742L1072.08 642.033L1075.89 619.742Z" stroke="#00BFFF" stroke-opacity="0.4"/>
</g>
<g id="Polygon 10_5">
<path d="M1074.72 595.038L1070.32 620.798H1079.12L1074.72 595.038Z" fill="#D9D9D9" fill-opacity="0.3"/>
<path d="M1070.92 620.297H1078.53L1074.72 598.006L1070.92 620.297Z" stroke="#00BFFF" stroke-opacity="0.4"/>
</g>
<g id="Polygon 18_5">
<path d="M1075.37 640.716L1079.77 614.956L1070.97 614.956L1075.37 640.716Z" fill="#D9D9D9" fill-opacity="0.3"/>
<path d="M1079.17 615.456L1071.56 615.456L1075.37 637.747L1079.17 615.456Z" stroke="#00BFFF" stroke-opacity="0.4"/>
</g>
<g id="Polygon 9_5">
<path d="M1071.67 594.106L1066.64 619.75L1075.43 619.967L1071.67 594.106Z" fill="#D9D9D9" fill-opacity="0.3"/>
<path d="M1067.24 619.264L1074.85 619.452L1071.6 597.074L1067.24 619.264Z" stroke="#00BFFF" stroke-opacity="0.4"/>
</g>
<g id="Polygon 19_5">
<path d="M1077.27 652.713L1075.88 624.572L1067.27 626.372L1077.27 652.713Z" fill="#D9D9D9" fill-opacity="0.3"/>
<path d="M1075.41 625.181L1067.95 626.742L1076.62 649.58L1075.41 625.181Z" stroke="#00BFFF" stroke-opacity="0.4"/>
</g>
<g id="Polygon 4_5">
<path d="M1078.29 592.059L1076.31 618.116L1085.07 617.299L1078.29 592.059Z" fill="#D9D9D9" fill-opacity="0.3"/>
<path d="M1076.85 617.563L1084.43 616.856L1078.57 595.015L1076.85 617.563Z" stroke="#00BFFF" stroke-opacity="0.4"/>
</g>
<g id="Polygon 20_5">
<path d="M1072.09 644.736L1075.25 618.795L1066.46 619.216L1072.09 644.736Z" fill="#D9D9D9" fill-opacity="0.3"/>
<path d="M1074.68 619.323L1067.07 619.687L1071.94 641.771L1074.68 619.323Z" stroke="#00BFFF" stroke-opacity="0.4"/>
</g>
<g id="Polygon 8_5">
<path d="M1074.78 591.926L1070.38 617.686H1079.18L1074.78 591.926Z" fill="#D9D9D9" fill-opacity="0.3"/>
<path d="M1070.98 617.186H1078.59L1074.78 594.895L1070.98 617.186Z" stroke="#00BFFF" stroke-opacity="0.4"/>
</g>
<g id="Polygon 12_5">
<path d="M1079.77 641.638L1086.02 616.263L1077.25 615.628L1079.77 641.638Z" fill="#D9D9D9" fill-opacity="0.3"/>
<path d="M1085.39 616.719L1077.8 616.17L1079.99 638.677L1085.39 616.719Z" stroke="#00BFFF" stroke-opacity="0.4"/>
</g>
</g>
</g>
<g id="[&#230;&#139;&#161;&#229;&#188;&#181;&#232;&#161;&#151;]&#227;&#131;&#169;&#227;&#131;&#153;&#227;&#131;&#179;&#227;&#131;&#128;&#227;&#131;&#188;&#227;&#131;&#153;&#227;&#131;&#131;&#227;&#131;&#137;&#229;&#140;&#151;&#230;&#157;&#177;">
<g id="Group 5_6">
<path id="Polygon 22_6" d="M1132.39 335.131L1120.48 337.341L1117.54 342.309L1125.78 346.292H1139L1147.25 342.309L1144.3 337.341L1132.39 335.131Z" fill="#F0FEFF" fill-opacity="0.4"/>
<path id="Polygon 23_6" d="M1132.42 331.138L1120.3 333.382L1117.31 338.424L1125.7 342.467H1139.15L1147.53 338.424L1144.54 333.382L1132.42 331.138Z" fill="#F0FEFF" fill-opacity="0.4"/>
</g>
<g id="Group 2_6">
<g id="Polygon 1_6">
<path d="M1131.9 274.06L1127.5 298.059H1136.3L1131.9 274.06Z" fill="#D9D9D9" fill-opacity="0.3"/>
<path d="M1128.1 297.559H1135.7L1131.9 276.833L1128.1 297.559Z" stroke="#00BFFF" stroke-opacity="0.4"/>
</g>
<g id="Polygon 11_6">
<path d="M1129.2 338.057L1133.59 312.297L1124.8 312.297L1129.2 338.057Z" fill="#D9D9D9" fill-opacity="0.3"/>
<path d="M1133 312.797L1125.39 312.797L1129.2 335.088L1133 312.797Z" stroke="#00BFFF" stroke-opacity="0.4"/>
</g>
<g id="Polygon 2_6">
<path d="M1130.11 280.8L1123.83 306.167L1132.6 306.813L1130.11 280.8Z" fill="#D9D9D9" fill-opacity="0.3"/>
<path d="M1124.45 305.712L1132.05 306.271L1129.89 283.761L1124.45 305.712Z" stroke="#00BFFF" stroke-opacity="0.4"/>
</g>
<g id="Polygon 6_6">
<path d="M1131.03 276.422L1123.22 307.341L1131.13 308.312L1131.03 276.422Z" fill="#D9D9D9" fill-opacity="0.3"/>
<path d="M1123.84 306.914L1130.63 307.747L1130.54 280.39L1123.84 306.914Z" stroke="#00BFFF" stroke-opacity="0.4"/>
</g>
<g id="Polygon 13_6">
<path d="M1133.19 338.526L1137.59 312.766L1128.79 312.766L1133.19 338.526Z" fill="#D9D9D9" fill-opacity="0.3"/>
<path d="M1137 313.266L1129.38 313.266L1133.19 335.557L1137 313.266Z" stroke="#00BFFF" stroke-opacity="0.4"/>
</g>
<g id="Polygon 5_6">
<path d="M1131.52 275.485L1126.02 301.032L1134.81 301.411L1131.52 275.485Z" fill="#D9D9D9" fill-opacity="0.3"/>
<path d="M1126.63 300.558L1134.24 300.885L1131.39 278.451L1126.63 300.558Z" stroke="#00BFFF" stroke-opacity="0.4"/>
</g>
<g id="Polygon 14_6">
<path d="M1136.85 338.027L1139.66 305.197L1134.62 305.153L1136.85 338.027Z" fill="#D9D9D9" fill-opacity="0.3"/>
<path d="M1139.12 305.692L1135.16 305.657L1136.91 331.482L1139.12 305.692Z" stroke="#00BFFF" stroke-opacity="0.4"/>
</g>
<g id="Polygon 15_6">
<path d="M1130.39 336.129L1141.4 312.43L1132.92 310.119L1130.39 336.129Z" fill="#D9D9D9" fill-opacity="0.3"/>
<path d="M1140.7 312.757L1133.35 310.757L1131.17 333.265L1140.7 312.757Z" stroke="#00BFFF" stroke-opacity="0.4"/>
</g>
<g id="Polygon 3_6">
<path d="M1133.56 279.525L1129.75 305.379L1138.55 305.178L1133.56 279.525Z" fill="#D9D9D9" fill-opacity="0.3"/>
<path d="M1130.33 304.865L1137.94 304.691L1133.63 282.493L1130.33 304.865Z" stroke="#00BFFF" stroke-opacity="0.4"/>
</g>
<g id="Polygon 16_6">
<path d="M1130.91 335.71L1132.81 314.317L1125.86 314.834L1130.91 335.71Z" fill="#D9D9D9" fill-opacity="0.3"/>
<path d="M1132.26 314.86L1126.48 315.289L1130.68 332.64L1132.26 314.86Z" stroke="#00BFFF" stroke-opacity="0.4"/>
</g>
<g id="Polygon 7_6">
<path d="M1136.36 321.259L1140.48 295.453L1131.68 295.549L1136.36 321.259Z" fill="#D9D9D9" fill-opacity="0.3"/>
<path d="M1139.89 295.96L1132.28 296.042L1136.33 318.291L1139.89 295.96Z" stroke="#00BFFF" stroke-opacity="0.4"/>
</g>
<g id="Polygon 21_6">
<path d="M1135.99 318.911L1140.12 292.84L1131.3 292.936L1135.99 318.911Z" fill="#D9D9D9" fill-opacity="0.3"/>
<path d="M1139.53 293.346L1131.9 293.429L1135.96 315.917L1139.53 293.346Z" stroke="#00BFFF" stroke-opacity="0.4"/>
</g>
<g id="Polygon 17_6">
<path d="M1128.08 336.002L1132.48 310.242L1123.68 310.242L1128.08 336.002Z" fill="#D9D9D9" fill-opacity="0.3"/>
<path d="M1131.89 310.742L1124.27 310.742L1128.08 333.033L1131.89 310.742Z" stroke="#00BFFF" stroke-opacity="0.4"/>
</g>
<g id="Polygon 10_6">
<path d="M1130.72 286.038L1126.32 311.798H1135.12L1130.72 286.038Z" fill="#D9D9D9" fill-opacity="0.3"/>
<path d="M1126.92 311.297H1134.53L1130.72 289.006L1126.92 311.297Z" stroke="#00BFFF" stroke-opacity="0.4"/>
</g>
<g id="Polygon 18_6">
<path d="M1131.37 331.716L1135.77 305.956L1126.97 305.956L1131.37 331.716Z" fill="#D9D9D9" fill-opacity="0.3"/>
<path d="M1135.18 306.456L1127.56 306.456L1131.37 328.747L1135.18 306.456Z" stroke="#00BFFF" stroke-opacity="0.4"/>
</g>
<g id="Polygon 9_6">
<path d="M1127.67 285.106L1122.64 310.75L1131.43 310.967L1127.67 285.106Z" fill="#D9D9D9" fill-opacity="0.3"/>
<path d="M1123.24 310.264L1130.85 310.452L1127.6 288.074L1123.24 310.264Z" stroke="#00BFFF" stroke-opacity="0.4"/>
</g>
<g id="Polygon 19_6">
<path d="M1133.27 343.713L1131.88 315.572L1123.27 317.372L1133.27 343.713Z" fill="#D9D9D9" fill-opacity="0.3"/>
<path d="M1131.41 316.181L1123.95 317.742L1132.62 340.58L1131.41 316.181Z" stroke="#00BFFF" stroke-opacity="0.4"/>
</g>
<g id="Polygon 4_6">
<path d="M1134.3 283.059L1132.31 309.116L1141.07 308.299L1134.3 283.059Z" fill="#D9D9D9" fill-opacity="0.3"/>
<path d="M1132.85 308.563L1140.43 307.856L1134.57 286.015L1132.85 308.563Z" stroke="#00BFFF" stroke-opacity="0.4"/>
</g>
<g id="Polygon 20_6">
<path d="M1128.09 335.736L1131.25 309.795L1122.46 310.216L1128.09 335.736Z" fill="#D9D9D9" fill-opacity="0.3"/>
<path d="M1130.68 310.323L1123.07 310.688L1127.94 332.771L1130.68 310.323Z" stroke="#00BFFF" stroke-opacity="0.4"/>
</g>
<g id="Polygon 8_6">
<path d="M1130.78 282.926L1126.38 308.686H1135.18L1130.78 282.926Z" fill="#D9D9D9" fill-opacity="0.3"/>
<path d="M1126.98 308.186H1134.59L1130.78 285.895L1126.98 308.186Z" stroke="#00BFFF" stroke-opacity="0.4"/>
</g>
<g id="Polygon 12_6">
<path d="M1135.77 332.638L1142.02 307.263L1133.25 306.628L1135.77 332.638Z" fill="#D9D9D9" fill-opacity="0.3"/>
<path d="M1141.39 307.719L1133.8 307.17L1135.99 329.677L1141.39 307.719Z" stroke="#00BFFF" stroke-opacity="0.4"/>
</g>
</g>
</g>
<g id="[&#230;&#139;&#161;&#229;&#188;&#181;&#232;&#161;&#151;]&#227;&#131;&#169;&#227;&#131;&#153;&#227;&#131;&#179;&#227;&#131;&#128;&#227;&#131;&#188;&#227;&#131;&#153;&#227;&#131;&#131;&#227;&#131;&#137;&#229;&#140;&#151;&#232;&#165;&#191;">
<g id="Group 5_7">
<path id="Polygon 22_7" d="M463.393 441.131L451.481 443.341L448.539 448.309L456.782 452.292H470.004L478.247 448.309L475.305 443.341L463.393 441.131Z" fill="#F0FEFF" fill-opacity="0.4"/>
<path id="Polygon 23_7" d="M463.422 437.138L451.304 439.382L448.311 444.424L456.697 448.467H470.147L478.534 444.424L475.541 439.382L463.422 437.138Z" fill="#F0FEFF" fill-opacity="0.4"/>
</g>
<g id="Group 2_7">
<g id="Polygon 1_7">
<path d="M462.897 380.06L458.499 404.059H467.295L462.897 380.06Z" fill="#D9D9D9" fill-opacity="0.3"/>
<path d="M459.099 403.559H466.696L462.898 382.833L459.099 403.559Z" stroke="#00BFFF" stroke-opacity="0.4"/>
</g>
<g id="Polygon 11_7">
<path d="M460.196 444.057L464.595 418.297L455.798 418.297L460.196 444.057Z" fill="#D9D9D9" fill-opacity="0.3"/>
<path d="M464.003 418.797L456.39 418.797L460.196 441.088L464.003 418.797Z" stroke="#00BFFF" stroke-opacity="0.4"/>
</g>
<g id="Polygon 2_7">
<path d="M461.106 386.8L454.827 412.167L463.6 412.813L461.106 386.8Z" fill="#D9D9D9" fill-opacity="0.3"/>
<path d="M455.454 411.712L463.046 412.271L460.888 389.761L455.454 411.712Z" stroke="#00BFFF" stroke-opacity="0.4"/>
</g>
<g id="Polygon 6_7">
<path d="M462.027 382.422L454.216 413.341L462.135 414.312L462.027 382.422Z" fill="#D9D9D9" fill-opacity="0.3"/>
<path d="M454.839 412.914L461.632 413.747L461.54 386.39L454.839 412.914Z" stroke="#00BFFF" stroke-opacity="0.4"/>
</g>
<g id="Polygon 13_7">
<path d="M464.189 444.526L468.587 418.766L459.791 418.766L464.189 444.526Z" fill="#D9D9D9" fill-opacity="0.3"/>
<path d="M467.995 419.266L460.383 419.266L464.188 441.557L467.995 419.266Z" stroke="#00BFFF" stroke-opacity="0.4"/>
</g>
<g id="Polygon 5_7">
<path d="M462.521 381.485L457.018 407.032L465.806 407.411L462.521 381.485Z" fill="#D9D9D9" fill-opacity="0.3"/>
<path d="M457.631 406.558L465.236 406.885L462.393 384.451L457.631 406.558Z" stroke="#00BFFF" stroke-opacity="0.4"/>
</g>
<g id="Polygon 14_7">
<path d="M467.85 444.027L470.66 411.197L465.623 411.153L467.85 444.027Z" fill="#D9D9D9" fill-opacity="0.3"/>
<path d="M470.116 411.692L466.157 411.657L467.908 437.482L470.116 411.692Z" stroke="#00BFFF" stroke-opacity="0.4"/>
</g>
<g id="Polygon 15_7">
<path d="M461.391 442.129L472.402 418.43L463.915 416.119L461.391 442.129Z" fill="#D9D9D9" fill-opacity="0.3"/>
<path d="M471.7 418.757L464.355 416.757L462.17 439.265L471.7 418.757Z" stroke="#00BFFF" stroke-opacity="0.4"/>
</g>
<g id="Polygon 3_7">
<path d="M464.561 385.525L460.751 411.379L469.545 411.178L464.561 385.525Z" fill="#D9D9D9" fill-opacity="0.3"/>
<path d="M461.331 410.865L468.942 410.691L464.629 388.493L461.331 410.865Z" stroke="#00BFFF" stroke-opacity="0.4"/>
</g>
<g id="Polygon 16_7">
<path d="M461.906 441.71L463.813 420.317L456.858 420.834L461.906 441.71Z" fill="#D9D9D9" fill-opacity="0.3"/>
<path d="M463.262 420.86L457.483 421.289L461.678 438.64L463.262 420.86Z" stroke="#00BFFF" stroke-opacity="0.4"/>
</g>
<g id="Polygon 7_7">
<path d="M467.36 427.259L471.478 401.453L462.682 401.549L467.36 427.259Z" fill="#D9D9D9" fill-opacity="0.3"/>
<path d="M470.891 401.96L463.279 402.042L467.327 424.291L470.891 401.96Z" stroke="#00BFFF" stroke-opacity="0.4"/>
</g>
<g id="Polygon 21_7">
<path d="M466.995 424.911L471.121 398.84L462.303 398.936L466.995 424.911Z" fill="#D9D9D9" fill-opacity="0.3"/>
<path d="M470.534 399.346L462.9 399.429L466.962 421.917L470.534 399.346Z" stroke="#00BFFF" stroke-opacity="0.4"/>
</g>
<g id="Polygon 17_7">
<path d="M459.081 442.002L463.479 416.242L454.683 416.242L459.081 442.002Z" fill="#D9D9D9" fill-opacity="0.3"/>
<path d="M462.887 416.742L455.275 416.742L459.08 439.033L462.887 416.742Z" stroke="#00BFFF" stroke-opacity="0.4"/>
</g>
<g id="Polygon 10_7">
<path d="M461.723 392.038L457.325 417.798H466.121L461.723 392.038Z" fill="#D9D9D9" fill-opacity="0.3"/>
<path d="M457.917 417.297H465.529L461.724 395.006L457.917 417.297Z" stroke="#00BFFF" stroke-opacity="0.4"/>
</g>
<g id="Polygon 18_7">
<path d="M462.369 437.716L466.767 411.956L457.971 411.956L462.369 437.716Z" fill="#D9D9D9" fill-opacity="0.3"/>
<path d="M466.175 412.456L458.563 412.456L462.368 434.747L466.175 412.456Z" stroke="#00BFFF" stroke-opacity="0.4"/>
</g>
<g id="Polygon 9_7">
<path d="M458.672 391.106L453.638 416.75L462.431 416.967L458.672 391.106Z" fill="#D9D9D9" fill-opacity="0.3"/>
<path d="M454.242 416.264L461.852 416.452L458.599 394.074L454.242 416.264Z" stroke="#00BFFF" stroke-opacity="0.4"/>
</g>
<g id="Polygon 19_7">
<path d="M464.274 449.713L462.884 421.572L454.274 423.372L464.274 449.713Z" fill="#D9D9D9" fill-opacity="0.3"/>
<path d="M462.414 422.181L454.949 423.742L463.619 446.58L462.414 422.181Z" stroke="#00BFFF" stroke-opacity="0.4"/>
</g>
<g id="Polygon 4_7">
<path d="M465.295 389.059L463.308 415.116L472.066 414.299L465.295 389.059Z" fill="#D9D9D9" fill-opacity="0.3"/>
<path d="M463.851 414.563L471.43 413.856L465.571 392.015L463.851 414.563Z" stroke="#00BFFF" stroke-opacity="0.4"/>
</g>
<g id="Polygon 20_7">
<path d="M459.087 441.736L462.245 415.795L453.459 416.216L459.087 441.736Z" fill="#D9D9D9" fill-opacity="0.3"/>
<path d="M461.678 416.323L454.074 416.687L458.944 438.771L461.678 416.323Z" stroke="#00BFFF" stroke-opacity="0.4"/>
</g>
<g id="Polygon 8_7">
<path d="M461.782 388.926L457.383 414.686H466.18L461.782 388.926Z" fill="#D9D9D9" fill-opacity="0.3"/>
<path d="M457.976 414.186H465.588L461.782 391.895L457.976 414.186Z" stroke="#00BFFF" stroke-opacity="0.4"/>
</g>
<g id="Polygon 12_7">
<path d="M466.774 438.638L473.019 413.263L464.245 412.628L466.774 438.638Z" fill="#D9D9D9" fill-opacity="0.3"/>
<path d="M472.392 413.719L464.8 413.17L466.988 435.677L472.392 413.719Z" stroke="#00BFFF" stroke-opacity="0.4"/>
</g>
</g>
</g>
<g id="[&#230;&#139;&#161;&#229;&#188;&#181;&#232;&#161;&#151;]&#230;&#168;&#185;&#229;&#134;&#160;&#229;&#149;&#134;&#229;&#186;&#151;&#232;&#161;&#151;">
<g id="Group 5_8">
<path id="Polygon 22_8" d="M1356.39 854.131L1344.48 856.341L1341.54 861.309L1349.78 865.292H1363L1371.25 861.309L1368.3 856.341L1356.39 854.131Z" fill="#F0FEFF" fill-opacity="0.4"/>
<path id="Polygon 23_8" d="M1356.42 850.138L1344.3 852.382L1341.31 857.424L1349.7 861.467H1363.15L1371.53 857.424L1368.54 852.382L1356.42 850.138Z" fill="#F0FEFF" fill-opacity="0.4"/>
</g>
<g id="Group 2_8">
<g id="Polygon 1_8">
<path d="M1355.9 793.06L1351.5 817.059H1360.3L1355.9 793.06Z" fill="#D9D9D9" fill-opacity="0.3"/>
<path d="M1352.1 816.559H1359.7L1355.9 795.833L1352.1 816.559Z" stroke="#00BFFF" stroke-opacity="0.4"/>
</g>
<g id="Polygon 11_8">
<path d="M1353.2 857.057L1357.59 831.297L1348.8 831.297L1353.2 857.057Z" fill="#D9D9D9" fill-opacity="0.3"/>
<path d="M1357 831.797L1349.39 831.797L1353.2 854.088L1357 831.797Z" stroke="#00BFFF" stroke-opacity="0.4"/>
</g>
<g id="Polygon 2_8">
<path d="M1354.11 799.8L1347.83 825.167L1356.6 825.813L1354.11 799.8Z" fill="#D9D9D9" fill-opacity="0.3"/>
<path d="M1348.45 824.712L1356.05 825.271L1353.89 802.761L1348.45 824.712Z" stroke="#00BFFF" stroke-opacity="0.4"/>
</g>
<g id="Polygon 6_8">
<path d="M1355.03 795.422L1347.22 826.341L1355.13 827.312L1355.03 795.422Z" fill="#D9D9D9" fill-opacity="0.3"/>
<path d="M1347.84 825.914L1354.63 826.747L1354.54 799.39L1347.84 825.914Z" stroke="#00BFFF" stroke-opacity="0.4"/>
</g>
<g id="Polygon 13_8">
<path d="M1357.19 857.526L1361.59 831.766L1352.79 831.766L1357.19 857.526Z" fill="#D9D9D9" fill-opacity="0.3"/>
<path d="M1360.99 832.266L1353.38 832.266L1357.19 854.557L1360.99 832.266Z" stroke="#00BFFF" stroke-opacity="0.4"/>
</g>
<g id="Polygon 5_8">
<path d="M1355.52 794.485L1350.02 820.032L1358.81 820.411L1355.52 794.485Z" fill="#D9D9D9" fill-opacity="0.3"/>
<path d="M1350.63 819.558L1358.24 819.885L1355.39 797.451L1350.63 819.558Z" stroke="#00BFFF" stroke-opacity="0.4"/>
</g>
<g id="Polygon 14_8">
<path d="M1360.85 857.027L1363.66 824.197L1358.62 824.153L1360.85 857.027Z" fill="#D9D9D9" fill-opacity="0.3"/>
<path d="M1363.12 824.692L1359.16 824.657L1360.91 850.482L1363.12 824.692Z" stroke="#00BFFF" stroke-opacity="0.4"/>
</g>
<g id="Polygon 15_8">
<path d="M1354.39 855.129L1365.4 831.43L1356.91 829.119L1354.39 855.129Z" fill="#D9D9D9" fill-opacity="0.3"/>
<path d="M1364.7 831.757L1357.35 829.757L1355.17 852.265L1364.7 831.757Z" stroke="#00BFFF" stroke-opacity="0.4"/>
</g>
<g id="Polygon 3_8">
<path d="M1357.56 798.525L1353.75 824.379L1362.54 824.178L1357.56 798.525Z" fill="#D9D9D9" fill-opacity="0.3"/>
<path d="M1354.33 823.865L1361.94 823.691L1357.63 801.493L1354.33 823.865Z" stroke="#00BFFF" stroke-opacity="0.4"/>
</g>
<g id="Polygon 16_8">
<path d="M1354.91 854.71L1356.81 833.317L1349.86 833.834L1354.91 854.71Z" fill="#D9D9D9" fill-opacity="0.3"/>
<path d="M1356.26 833.86L1350.48 834.289L1354.68 851.64L1356.26 833.86Z" stroke="#00BFFF" stroke-opacity="0.4"/>
</g>
<g id="Polygon 7_8">
<path d="M1360.36 840.259L1364.48 814.453L1355.68 814.549L1360.36 840.259Z" fill="#D9D9D9" fill-opacity="0.3"/>
<path d="M1363.89 814.96L1356.28 815.042L1360.33 837.291L1363.89 814.96Z" stroke="#00BFFF" stroke-opacity="0.4"/>
</g>
<g id="Polygon 21_8">
<path d="M1359.99 837.911L1364.12 811.84L1355.3 811.936L1359.99 837.911Z" fill="#D9D9D9" fill-opacity="0.3"/>
<path d="M1363.53 812.346L1355.9 812.429L1359.96 834.917L1363.53 812.346Z" stroke="#00BFFF" stroke-opacity="0.4"/>
</g>
<g id="Polygon 17_8">
<path d="M1352.08 855.002L1356.48 829.242L1347.68 829.242L1352.08 855.002Z" fill="#D9D9D9" fill-opacity="0.3"/>
<path d="M1355.89 829.742L1348.27 829.742L1352.08 852.033L1355.89 829.742Z" stroke="#00BFFF" stroke-opacity="0.4"/>
</g>
<g id="Polygon 10_8">
<path d="M1354.72 805.038L1350.32 830.798H1359.12L1354.72 805.038Z" fill="#D9D9D9" fill-opacity="0.3"/>
<path d="M1350.92 830.297H1358.53L1354.72 808.006L1350.92 830.297Z" stroke="#00BFFF" stroke-opacity="0.4"/>
</g>
<g id="Polygon 18_8">
<path d="M1355.37 850.716L1359.77 824.956L1350.97 824.956L1355.37 850.716Z" fill="#D9D9D9" fill-opacity="0.3"/>
<path d="M1359.17 825.456L1351.56 825.456L1355.37 847.747L1359.17 825.456Z" stroke="#00BFFF" stroke-opacity="0.4"/>
</g>
<g id="Polygon 9_8">
<path d="M1351.67 804.106L1346.64 829.75L1355.43 829.967L1351.67 804.106Z" fill="#D9D9D9" fill-opacity="0.3"/>
<path d="M1347.24 829.264L1354.85 829.452L1351.6 807.074L1347.24 829.264Z" stroke="#00BFFF" stroke-opacity="0.4"/>
</g>
<g id="Polygon 19_8">
<path d="M1357.27 862.713L1355.88 834.572L1347.27 836.372L1357.27 862.713Z" fill="#D9D9D9" fill-opacity="0.3"/>
<path d="M1355.41 835.181L1347.95 836.742L1356.62 859.58L1355.41 835.181Z" stroke="#00BFFF" stroke-opacity="0.4"/>
</g>
<g id="Polygon 4_8">
<path d="M1358.29 802.059L1356.31 828.116L1365.07 827.299L1358.29 802.059Z" fill="#D9D9D9" fill-opacity="0.3"/>
<path d="M1356.85 827.563L1364.43 826.856L1358.57 805.015L1356.85 827.563Z" stroke="#00BFFF" stroke-opacity="0.4"/>
</g>
<g id="Polygon 20_8">
<path d="M1352.09 854.736L1355.25 828.795L1346.46 829.216L1352.09 854.736Z" fill="#D9D9D9" fill-opacity="0.3"/>
<path d="M1354.68 829.323L1347.07 829.687L1351.94 851.771L1354.68 829.323Z" stroke="#00BFFF" stroke-opacity="0.4"/>
</g>
<g id="Polygon 8_8">
<path d="M1354.78 801.926L1350.38 827.686H1359.18L1354.78 801.926Z" fill="#D9D9D9" fill-opacity="0.3"/>
<path d="M1350.98 827.186H1358.59L1354.78 804.895L1350.98 827.186Z" stroke="#00BFFF" stroke-opacity="0.4"/>
</g>
<g id="Polygon 12_8">
<path d="M1359.77 851.638L1366.02 826.263L1357.25 825.628L1359.77 851.638Z" fill="#D9D9D9" fill-opacity="0.3"/>
<path d="M1365.39 826.719L1357.8 826.17L1359.99 848.677L1365.39 826.719Z" stroke="#00BFFF" stroke-opacity="0.4"/>
</g>
</g>
</g>
</g>
<path id="&#227;&#131;&#138;&#227;&#131;&#147;&#227;&#130;&#178;&#227;&#131;&#188;&#227;&#130;&#183;&#227;&#131;&#167;&#227;&#131;&#179;&#231;&#148;&#168;&#233;&#129;&#147;&#232;&#183;&#175;" d="M11.9231 735.56L217.423 577.56M791.422 1043.06L729.922 1022.56C691.943 919.894 662.846 889.884 599.422 877.06L496.423 843.06C473.668 810.861 463.995 786.983 451.423 735.56L217.423 577.56M217.423 577.56L354.923 466.56M493.423 846.06C447.487 881.084 426.89 913.714 401.923 1001.56M401.923 1001.56C380.423 1001.56 305.423 1001.56 261.423 1001.56C217.423 1001.56 198.309 916.524 244.923 902.56M401.923 1001.56C436.923 1112.56 575.9 1099.55 574.923 1134.06C573.945 1168.57 573.199 1218.01 585.923 1224.56L709.422 1265.56C724.922 1264.69 730.859 1260.62 738.922 1250.06L761.922 1169.56M761.922 1169.56L780.922 1176.06M761.922 1169.56L791.422 1043.06M791.422 1043.06C800.536 1029.44 809.936 1028.7 829.922 1032.56C845.771 1045.5 854.123 1051.17 865.922 1052.06M865.922 1052.06L912.922 1064.06C937.068 1080.29 949.993 1085.49 971.922 1087.56C1029.14 1094.01 1049.35 1101.74 1067.92 1121.56M865.922 1052.06C880.322 1016.05 883.609 1000.49 882.422 979.56M1067.92 1121.56C1040.13 1207.74 1019.57 1261.32 978.922 1361.06L885.922 1517.56M1067.92 1121.56C1091.74 1105.35 1104.33 1089.1 1125.92 1052.06M1434.92 1108.56C1408.64 1118.56 1390.8 1119.81 1355.42 1117.06L1314.42 1114.06C1304.14 1113.74 1297.86 1115.48 1283.92 1128.56L1259.92 1159.56C1238.06 1177.22 1226.93 1177.23 1208.42 1165.56C1192.88 1150.04 1169.96 1116.8 1125.92 1052.06M1125.92 1052.06C1129.7 1033.22 1131.16 1022.35 1132.92 1002.56M1355.42 1117.06V1635.56M1434.92 1108.56L1478.92 1137.06M1365.42 767.06C1379.57 864.843 1389.55 910.317 1410.42 977.56C1430.46 1024.08 1438.66 1045.41 1443.42 1068.06C1446.7 1082.07 1445.59 1090.73 1434.92 1108.56M1263.92 311.06L1414.92 340.06L1476.42 347.646L1528.42 354.06C1576.01 391.563 1609.01 409.46 1612.92 468.56C1622.17 536.705 1537.29 574.448 1528.42 585.56L1493.42 615.06C1447.88 646.142 1419.96 655.438 1365.42 656.06L1329.42 672.56C1324.94 672.476 1308.75 694.972 1322.92 704.06C1337.09 713.149 1373.38 768.614 1365.42 763.06C1357.46 757.507 1501.38 662.282 1535.92 792.56C1523.46 884.44 1499.54 926.856 1410.42 977.56M1125.92 337.06L1106.42 372.56C1101.04 388.033 1100.19 395.84 1122.92 400.06L1247.42 409.06C1302.93 421.928 1333.05 431.487 1382.92 457.56C1396.1 467.039 1399.89 472.997 1401.42 484.56V569.06C1403.08 586.588 1408.38 590.019 1419.92 593.06L1493.42 615.06M1414.92 340.06L1453.42 301.56M1263.92 311.06L1289.92 247.56M1263.92 311.06L1205.92 300.56C1159.99 304.663 1143.41 313.304 1125.92 337.06M1125.92 337.06C1067.08 317.792 1036.25 316.045 983.422 322.06C892.485 337.084 856.626 339.104 798.922 340.06C775.307 369.491 767.907 395.261 763.422 455.06M1125.92 337.06C1237.56 368.249 1300.8 375.711 1414.92 368.56C1444.23 361.946 1456.69 357.071 1476.42 347.646M354.923 466.56C387.615 452.995 413.198 447.554 467.923 440.56C561.813 431.845 615.641 427.753 763.422 455.06M763.422 455.06L783.422 554.06M467.923 440.56C467.878 468.076 467.474 483.979 476.922 499.56M354.923 466.56C352.378 406.336 362.579 389.642 389.423 372.56M599.422 877.06C609.919 797.595 620.563 763.794 648.422 723.56L669.922 669.56L752.922 655.56C774.87 640.042 779.243 628.637 783.422 607.06V554.06M783.422 554.06L924.422 557.56C940.139 558.997 944.729 562.531 947.922 572.06L972.422 712.06L979.922 726.56M979.922 726.56C1003.04 694.224 1027.37 674.918 1084.42 639.06C1092.19 601.247 1099.95 588.041 1118.92 576.56C1126.5 576.127 1130.13 577.597 1135.42 583.56H1196.42C1214.79 566.918 1220.82 554.638 1228.42 530.56L1247.42 409.06M979.922 726.56C960.043 761.571 948.875 782.173 928.922 820.56M928.922 820.56C915.091 842.266 909.029 858.273 899.422 889.56C894.192 939.402 890.448 958.878 882.422 979.56M928.922 820.56C983.773 867.992 1028.7 871.428 1118.92 861.06H1129.92M882.422 979.56C871.222 982.344 865.998 978.51 860.422 952.56V889.56C862.393 875.081 858.932 870.484 845.922 867.56H808.922M1129.92 861.06L1132.92 827.56M1129.92 861.06C1134.25 928.981 1135.31 961.582 1132.92 1002.56M1132.92 1002.56H1208.42" stroke="#FF0000"/>
<g id="Node">
<circle id="node_26" cx="1140.92" cy="1003.06" r="27.5" transform="rotate(180 1140.92 1003.06)" stroke="#FF0000"/>
<circle id="node_25" cx="1120.92" cy="1056.06" r="27.5" transform="rotate(180 1120.92 1056.06)" stroke="#FF0000"/>
<circle id="node_24" cx="1065.92" cy="1121.06" r="27.5" transform="rotate(180 1065.92 1121.06)" stroke="#FF0000"/>
<circle id="node_23" cx="858.922" cy="1052.06" r="27.5" transform="rotate(180 858.922 1052.06)" stroke="#FF0000"/>
<circle id="node_22" cx="790.922" cy="1046.06" r="27.5" transform="rotate(180 790.922 1046.06)" stroke="#FF0000"/>
<circle id="node_21" cx="402.922" cy="1000.06" r="27.5" transform="rotate(180 402.922 1000.06)" stroke="#FF0000"/>
<circle id="node_20" cx="601.922" cy="872.06" r="27.5" transform="rotate(180 601.922 872.06)" stroke="#FF0000"/>
<circle id="node_19" cx="495.922" cy="842.06" r="27.5" transform="rotate(180 495.922 842.06)" stroke="#FF0000"/>
<circle id="node_18" cx="467.922" cy="442.06" r="27.5" transform="rotate(180 467.922 442.06)" stroke="#FF0000"/>
<circle id="node_17" cx="366.922" cy="464.06" r="27.5" transform="rotate(180 366.922 464.06)" stroke="#FF0000"/>
<circle id="node_16" cx="220.922" cy="576.06" r="27.5" transform="rotate(180 220.922 576.06)" stroke="#FF0000"/>
<circle id="node_15" cx="880.922" cy="976.06" r="27.5" transform="rotate(180 880.922 976.06)" stroke="#FF0000"/>
<circle id="node_14" cx="928.922" cy="822.06" r="27.5" transform="rotate(180 928.922 822.06)" stroke="#FF0000"/>
<circle id="node_13" cx="975.922" cy="714.06" r="27.5" transform="rotate(180 975.922 714.06)" stroke="#FF0000"/>
<circle id="node_12" cx="1365.92" cy="766.06" r="27.5" transform="rotate(180 1365.92 766.06)" stroke="#FF0000"/>
<circle id="node_11" cx="1481.92" cy="616.06" r="27.5" transform="rotate(180 1481.92 616.06)" stroke="#FF0000"/>
<circle id="node_10" cx="1428.92" cy="353.06" r="27.5" transform="rotate(180 1428.92 353.06)" stroke="#FF0000"/>
<circle id="node_9" cx="1270.92" cy="310.06" r="27.5" transform="rotate(180 1270.92 310.06)" stroke="#FF0000"/>
<circle id="node_8" cx="1130.92" cy="332.06" r="27.5" transform="rotate(180 1130.92 332.06)" stroke="#FF0000"/>
<circle id="node_7" cx="784.922" cy="552.06" r="27.5" transform="rotate(180 784.922 552.06)" stroke="#FF0000"/>
<circle id="node_6" cx="762.922" cy="459.06" r="27.5" transform="rotate(180 762.922 459.06)" stroke="#FF0000"/>
<circle id="node_5" cx="1242.92" cy="411.06" r="27.5" transform="rotate(180 1242.92 411.06)" stroke="#FF0000"/>
<circle id="node_4" cx="1410.92" cy="969.06" r="27.5" transform="rotate(180 1410.92 969.06)" stroke="#FF0000"/>
<circle id="node_3" cx="1432.92" cy="1107.06" r="27.5" transform="rotate(180 1432.92 1107.06)" stroke="#FF0000"/>
<circle id="node_2" cx="1361.92" cy="1115.06" r="27.5" transform="rotate(180 1361.92 1115.06)" stroke="#FF0000"/>
<circle id="node_1" cx="1128.92" cy="860.06" r="27.5" transform="rotate(180 1128.92 860.06)" stroke="#FF0000"/>
</g>
</g>
</svg>
