<svg width="1882" height="1394" viewBox="0 0 1882 1394" fill="none" xmlns="http://www.w3.org/2000/svg">
<g id="&#233;&#129;&#147;&#232;&#183;&#175;(Stroke)">
<mask id="path-1-inside-1_44_26" fill="white">
<path d="M536 939.5C536 943.918 539.582 947.5 544 947.5H710.509C713.339 947.5 715.959 946.004 717.398 943.567L776.997 842.604C780.145 837.272 785.876 834 792.067 834H817.25C821.668 834 825.25 830.418 825.25 826V661.5C825.25 657.082 821.668 653.5 817.25 653.5H544C539.582 653.5 536 657.082 536 661.5V939.5ZM286.308 832.782C286.753 835.39 288.459 837.609 290.865 838.71L505.671 937.019C510.969 939.444 517 935.572 517 929.745V645.5C517 641.082 513.418 637.5 509 637.5H262.458C257.502 637.5 253.738 641.96 254.572 646.846L286.308 832.782ZM1099.22 440.623C1096.36 442.5 1093.02 443.5 1089.61 443.5H1016.62C1012.29 443.5 1008.74 446.954 1008.63 451.288L1004.7 598.965C1004.45 608.445 996.694 616 987.21 616H898.146C896.611 616 895.107 616.442 893.816 617.273L847.92 646.82C845.632 648.293 844.25 650.827 844.25 653.547V826C844.25 830.418 847.832 834 852.25 834H877.139C883.468 834 889.287 837.416 892.381 842.902L892.672 843.439L902.731 862.825C905.45 868.067 912.717 868.656 916.246 863.921L964.922 798.612L965.187 798.267C966.529 796.556 968.179 795.11 970.053 794.003L1085.29 725.933L1085.8 725.643C1088.37 724.238 1091.25 723.5 1094.19 723.5H1250.1C1253.93 723.5 1257.22 720.794 1257.95 717.042L1281.16 598.87L1281.3 598.228C1282.85 591.639 1288.07 586.512 1294.74 585.114L1385.44 566.09C1387.38 565.682 1389.11 564.564 1390.27 562.955L1442.51 490.88C1444.72 487.826 1444.5 483.64 1441.98 480.835L1335.65 362.65C1334.13 360.963 1331.97 360 1329.7 360H1224.24C1222.68 360 1221.15 360.457 1219.84 361.315L1099.22 440.623ZM797 626.5C797 630.918 800.582 634.5 805 634.5H829.604C831.139 634.5 832.643 634.058 833.934 633.227L885.88 599.785L886.415 599.454C889.116 597.85 892.203 597 895.353 597H977.959C982.294 597 985.841 593.546 985.956 589.213L989.61 451.713C989.729 447.213 986.114 443.5 981.613 443.5H805C800.582 443.5 797 447.082 797 451.5V626.5ZM536 626.5C536 630.918 539.582 634.5 544 634.5H770C774.418 634.5 778 630.918 778 626.5V451.5C778 447.082 774.418 443.5 770 443.5H601.5C591.835 443.5 584 435.665 584 426C584 422.41 581.09 419.5 577.5 419.5H544C539.582 419.5 536 423.082 536 427.5V626.5ZM243.737 573.208C242.882 574.785 242.581 576.603 242.883 578.37L248.598 611.846C249.254 615.689 252.585 618.5 256.483 618.5H509C513.418 618.5 517 614.918 517 610.5V427.5C517 423.082 513.418 419.5 509 419.5H331.914C328.98 419.5 326.282 421.106 324.883 423.684L243.737 573.208ZM1331 1204.96C1331 1211.04 1337.51 1214.89 1342.84 1211.97L1473.91 1140.16C1476.69 1138.64 1478.31 1135.61 1478.03 1132.44L1450.45 819.797C1450.08 815.667 1446.62 812.5 1442.48 812.5H1272.5C1262.83 812.5 1255 804.665 1255 795V750.5C1255 746.082 1251.42 742.5 1247 742.5H1096.78C1095.35 742.5 1093.95 742.884 1092.71 743.612L981.361 809.389C980.447 809.929 979.65 810.645 979.016 811.496L921.333 888.889C919.502 891.346 919.235 894.634 920.647 897.354L963.226 979.411C964.029 980.957 965.314 982.199 966.887 982.949L1108.24 1050.28L1108.6 1050.46C1110.41 1051.37 1112.04 1052.59 1113.43 1054.06L1234.23 1181.99C1235.74 1183.59 1237.84 1184.5 1240.05 1184.5H1274C1278.42 1184.5 1282 1180.92 1282 1176.5V1151C1282 1141.33 1289.83 1133.5 1299.5 1133.5H1313.5C1323.17 1133.5 1331 1141.33 1331 1151V1204.96ZM1635.5 835.5C1635.5 845.165 1627.67 853 1618 853H1481.19C1476.49 853 1472.8 857.025 1473.22 861.703L1495.11 1109.78C1495.67 1116.13 1503.06 1119.31 1508.05 1115.34L1526.97 1100.32C1528.89 1098.8 1530 1096.49 1530 1094.05V1010.5C1530 1000.84 1537.83 993 1547.5 993H1679.75C1684.17 993 1687.75 989.418 1687.75 985V861C1687.75 856.582 1684.17 853 1679.75 853H1669C1659.33 853 1651.5 845.165 1651.5 835.5V750.5C1651.5 746.082 1647.92 742.5 1643.5 742.5C1639.08 742.5 1635.5 746.082 1635.5 750.5V835.5ZM697.5 299.5C697.5 309.165 689.665 317 680 317H611C606.582 317 603 320.582 603 325V416.5C603 420.918 606.582 424.5 611 424.5H889.667C894.085 424.5 897.667 420.918 897.667 416.5V303.859C897.667 299.842 894.688 296.448 890.705 295.927L803.38 284.5H705.5C701.082 284.5 697.5 288.082 697.5 292.5V299.5ZM916.667 416.5C916.667 420.918 920.249 424.5 924.667 424.5H1086.76C1088.32 424.5 1089.85 424.043 1091.16 423.185L1211.78 343.877C1214.64 342 1217.98 341 1221.39 341H1333.94C1338.74 341 1343.33 342.977 1346.63 346.454L1346.95 346.796L1461.24 473.838C1466.76 479.973 1467.24 489.13 1462.4 495.812L1403.5 577.074C1400.95 580.595 1397.18 583.039 1392.93 583.932L1304.8 602.418C1301.65 603.077 1299.21 605.554 1298.59 608.706L1274.15 733.161C1274.05 733.669 1274 734.185 1274 734.703V785.5C1274 789.918 1277.58 793.5 1282 793.5H1451.17C1460.1 793.5 1467.57 800.213 1468.56 809.04L1468.61 809.462L1470.13 826.703C1470.49 830.833 1473.95 834 1478.1 834H1608.5C1612.92 834 1616.5 830.418 1616.5 826V741C1616.5 731.335 1624.33 723.5 1634 723.5H1653C1662.67 723.5 1670.5 731.335 1670.5 741V826C1670.5 830.418 1674.08 834 1678.5 834H1689.25C1698.92 834 1706.75 841.835 1706.75 851.5V985C1706.75 989.418 1710.33 993 1714.75 993H1814.5C1818.92 993 1822.5 996.582 1822.5 1001V1004C1822.5 1008.42 1818.92 1012 1814.5 1012H1589.5C1585.08 1012 1581.5 1015.58 1581.5 1020V1125.5C1581.5 1129.92 1585.08 1133.5 1589.5 1133.5H1653C1657.42 1133.5 1661 1137.08 1661 1141.5V1144.5C1661 1148.92 1657.42 1152.5 1653 1152.5H1580C1570.33 1152.5 1562.5 1144.67 1562.5 1135V1018.75C1562.5 1015.02 1559.48 1012 1555.75 1012C1552.02 1012 1549 1015.02 1549 1018.75V1098.64C1549 1103.98 1546.56 1109.02 1542.38 1112.34L1494.31 1150.52C1493.95 1150.8 1493.57 1151.05 1493.18 1151.27L1337.91 1236.34C1326.25 1242.73 1312 1234.29 1312 1221V1158C1312 1154.96 1309.54 1152.5 1306.5 1152.5C1303.46 1152.5 1301 1154.96 1301 1158V1186C1301 1195.67 1293.17 1203.5 1283.5 1203.5H1235.95C1231.13 1203.5 1226.53 1201.52 1223.22 1198.01L1100.84 1068.4C1100.16 1067.68 1099.35 1067.09 1098.46 1066.67L955.839 998.731C952.614 997.195 949.941 994.711 948.173 991.619L947.831 990.992L878.466 857.315C877.09 854.664 874.352 853 871.365 853H797.491C794.661 853 792.041 854.496 790.602 856.933L731.003 957.896C727.855 963.228 722.124 966.5 715.933 966.5H548.713C543.537 966.5 539.724 971.34 540.935 976.372L548.514 1007.85L548.628 1008.36C548.875 1009.54 549 1010.74 549 1011.95V1385.5C549 1389.92 545.418 1393.5 541 1393.5H538C533.582 1393.5 530 1389.92 530 1385.5V1013.08C530 1012.44 529.925 1011.82 529.778 1011.2L519.255 967.498C518.68 965.109 517.04 963.118 514.807 962.096L278.392 853.898C273.129 851.49 269.398 846.635 268.424 840.93L225.62 590.154C224.964 586.311 221.633 583.5 217.734 583.5H114C109.582 583.5 106 579.918 106 575.5V572.5C106 568.082 109.582 564.5 114 564.5H222.086C225.02 564.5 227.718 562.894 229.117 560.316L310.88 409.653L311.175 409.131C314.31 403.797 320.044 400.5 326.261 400.5H576C580.418 400.5 584 396.918 584 392.5V315.5C584 305.835 591.835 298 601.5 298H670.5C674.918 298 678.5 294.418 678.5 290V283C678.5 273.335 686.335 265.5 696 265.5H786.5C790.918 265.5 794.5 261.918 794.5 257.5V8C794.5 3.58172 798.082 0 802.5 0H805.5C809.918 0 813.5 3.58172 813.5 8V259.64C813.5 263.657 816.479 267.051 820.462 267.572L901.438 278.169C910.15 279.309 916.667 286.734 916.667 295.521V416.5Z"/>
</mask>
<path d="M536 939.5C536 943.918 539.582 947.5 544 947.5H710.509C713.339 947.5 715.959 946.004 717.398 943.567L776.997 842.604C780.145 837.272 785.876 834 792.067 834H817.25C821.668 834 825.25 830.418 825.25 826V661.5C825.25 657.082 821.668 653.5 817.25 653.5H544C539.582 653.5 536 657.082 536 661.5V939.5ZM286.308 832.782C286.753 835.39 288.459 837.609 290.865 838.71L505.671 937.019C510.969 939.444 517 935.572 517 929.745V645.5C517 641.082 513.418 637.5 509 637.5H262.458C257.502 637.5 253.738 641.96 254.572 646.846L286.308 832.782ZM1099.22 440.623C1096.36 442.5 1093.02 443.5 1089.61 443.5H1016.62C1012.29 443.5 1008.74 446.954 1008.63 451.288L1004.7 598.965C1004.45 608.445 996.694 616 987.21 616H898.146C896.611 616 895.107 616.442 893.816 617.273L847.92 646.82C845.632 648.293 844.25 650.827 844.25 653.547V826C844.25 830.418 847.832 834 852.25 834H877.139C883.468 834 889.287 837.416 892.381 842.902L892.672 843.439L902.731 862.825C905.45 868.067 912.717 868.656 916.246 863.921L964.922 798.612L965.187 798.267C966.529 796.556 968.179 795.11 970.053 794.003L1085.29 725.933L1085.8 725.643C1088.37 724.238 1091.25 723.5 1094.19 723.5H1250.1C1253.93 723.5 1257.22 720.794 1257.95 717.042L1281.16 598.87L1281.3 598.228C1282.85 591.639 1288.07 586.512 1294.74 585.114L1385.44 566.09C1387.38 565.682 1389.11 564.564 1390.27 562.955L1442.51 490.88C1444.72 487.826 1444.5 483.64 1441.98 480.835L1335.65 362.65C1334.13 360.963 1331.97 360 1329.7 360H1224.24C1222.68 360 1221.15 360.457 1219.84 361.315L1099.22 440.623ZM797 626.5C797 630.918 800.582 634.5 805 634.5H829.604C831.139 634.5 832.643 634.058 833.934 633.227L885.88 599.785L886.415 599.454C889.116 597.85 892.203 597 895.353 597H977.959C982.294 597 985.841 593.546 985.956 589.213L989.61 451.713C989.729 447.213 986.114 443.5 981.613 443.5H805C800.582 443.5 797 447.082 797 451.5V626.5ZM536 626.5C536 630.918 539.582 634.5 544 634.5H770C774.418 634.5 778 630.918 778 626.5V451.5C778 447.082 774.418 443.5 770 443.5H601.5C591.835 443.5 584 435.665 584 426C584 422.41 581.09 419.5 577.5 419.5H544C539.582 419.5 536 423.082 536 427.5V626.5ZM243.737 573.208C242.882 574.785 242.581 576.603 242.883 578.37L248.598 611.846C249.254 615.689 252.585 618.5 256.483 618.5H509C513.418 618.5 517 614.918 517 610.5V427.5C517 423.082 513.418 419.5 509 419.5H331.914C328.98 419.5 326.282 421.106 324.883 423.684L243.737 573.208ZM1331 1204.96C1331 1211.04 1337.51 1214.89 1342.84 1211.97L1473.91 1140.16C1476.69 1138.64 1478.31 1135.61 1478.03 1132.44L1450.45 819.797C1450.08 815.667 1446.62 812.5 1442.48 812.5H1272.5C1262.83 812.5 1255 804.665 1255 795V750.5C1255 746.082 1251.42 742.5 1247 742.5H1096.78C1095.35 742.5 1093.95 742.884 1092.71 743.612L981.361 809.389C980.447 809.929 979.65 810.645 979.016 811.496L921.333 888.889C919.502 891.346 919.235 894.634 920.647 897.354L963.226 979.411C964.029 980.957 965.314 982.199 966.887 982.949L1108.24 1050.28L1108.6 1050.46C1110.41 1051.37 1112.04 1052.59 1113.43 1054.06L1234.23 1181.99C1235.74 1183.59 1237.84 1184.5 1240.05 1184.5H1274C1278.42 1184.5 1282 1180.92 1282 1176.5V1151C1282 1141.33 1289.83 1133.5 1299.5 1133.5H1313.5C1323.17 1133.5 1331 1141.33 1331 1151V1204.96ZM1635.5 835.5C1635.5 845.165 1627.67 853 1618 853H1481.19C1476.49 853 1472.8 857.025 1473.22 861.703L1495.11 1109.78C1495.67 1116.13 1503.06 1119.31 1508.05 1115.34L1526.97 1100.32C1528.89 1098.8 1530 1096.49 1530 1094.05V1010.5C1530 1000.84 1537.83 993 1547.5 993H1679.75C1684.17 993 1687.75 989.418 1687.75 985V861C1687.75 856.582 1684.17 853 1679.75 853H1669C1659.33 853 1651.5 845.165 1651.5 835.5V750.5C1651.5 746.082 1647.92 742.5 1643.5 742.5C1639.08 742.5 1635.5 746.082 1635.5 750.5V835.5ZM697.5 299.5C697.5 309.165 689.665 317 680 317H611C606.582 317 603 320.582 603 325V416.5C603 420.918 606.582 424.5 611 424.5H889.667C894.085 424.5 897.667 420.918 897.667 416.5V303.859C897.667 299.842 894.688 296.448 890.705 295.927L803.38 284.5H705.5C701.082 284.5 697.5 288.082 697.5 292.5V299.5ZM916.667 416.5C916.667 420.918 920.249 424.5 924.667 424.5H1086.76C1088.32 424.5 1089.85 424.043 1091.16 423.185L1211.78 343.877C1214.64 342 1217.98 341 1221.39 341H1333.94C1338.74 341 1343.33 342.977 1346.63 346.454L1346.95 346.796L1461.24 473.838C1466.76 479.973 1467.24 489.13 1462.4 495.812L1403.5 577.074C1400.95 580.595 1397.18 583.039 1392.93 583.932L1304.8 602.418C1301.65 603.077 1299.21 605.554 1298.59 608.706L1274.15 733.161C1274.05 733.669 1274 734.185 1274 734.703V785.5C1274 789.918 1277.58 793.5 1282 793.5H1451.17C1460.1 793.5 1467.57 800.213 1468.56 809.04L1468.61 809.462L1470.13 826.703C1470.49 830.833 1473.95 834 1478.1 834H1608.5C1612.92 834 1616.5 830.418 1616.5 826V741C1616.5 731.335 1624.33 723.5 1634 723.5H1653C1662.67 723.5 1670.5 731.335 1670.5 741V826C1670.5 830.418 1674.08 834 1678.5 834H1689.25C1698.92 834 1706.75 841.835 1706.75 851.5V985C1706.75 989.418 1710.33 993 1714.75 993H1814.5C1818.92 993 1822.5 996.582 1822.5 1001V1004C1822.5 1008.42 1818.92 1012 1814.5 1012H1589.5C1585.08 1012 1581.5 1015.58 1581.5 1020V1125.5C1581.5 1129.92 1585.08 1133.5 1589.5 1133.5H1653C1657.42 1133.5 1661 1137.08 1661 1141.5V1144.5C1661 1148.92 1657.42 1152.5 1653 1152.5H1580C1570.33 1152.5 1562.5 1144.67 1562.5 1135V1018.75C1562.5 1015.02 1559.48 1012 1555.75 1012C1552.02 1012 1549 1015.02 1549 1018.75V1098.64C1549 1103.98 1546.56 1109.02 1542.38 1112.34L1494.31 1150.52C1493.95 1150.8 1493.57 1151.05 1493.18 1151.27L1337.91 1236.34C1326.25 1242.73 1312 1234.29 1312 1221V1158C1312 1154.96 1309.54 1152.5 1306.5 1152.5C1303.46 1152.5 1301 1154.96 1301 1158V1186C1301 1195.67 1293.17 1203.5 1283.5 1203.5H1235.95C1231.13 1203.5 1226.53 1201.52 1223.22 1198.01L1100.84 1068.4C1100.16 1067.68 1099.35 1067.09 1098.46 1066.67L955.839 998.731C952.614 997.195 949.941 994.711 948.173 991.619L947.831 990.992L878.466 857.315C877.09 854.664 874.352 853 871.365 853H797.491C794.661 853 792.041 854.496 790.602 856.933L731.003 957.896C727.855 963.228 722.124 966.5 715.933 966.5H548.713C543.537 966.5 539.724 971.34 540.935 976.372L548.514 1007.85L548.628 1008.36C548.875 1009.54 549 1010.74 549 1011.95V1385.5C549 1389.92 545.418 1393.5 541 1393.5H538C533.582 1393.5 530 1389.92 530 1385.5V1013.08C530 1012.44 529.925 1011.82 529.778 1011.2L519.255 967.498C518.68 965.109 517.04 963.118 514.807 962.096L278.392 853.898C273.129 851.49 269.398 846.635 268.424 840.93L225.62 590.154C224.964 586.311 221.633 583.5 217.734 583.5H114C109.582 583.5 106 579.918 106 575.5V572.5C106 568.082 109.582 564.5 114 564.5H222.086C225.02 564.5 227.718 562.894 229.117 560.316L310.88 409.653L311.175 409.131C314.31 403.797 320.044 400.5 326.261 400.5H576C580.418 400.5 584 396.918 584 392.5V315.5C584 305.835 591.835 298 601.5 298H670.5C674.918 298 678.5 294.418 678.5 290V283C678.5 273.335 686.335 265.5 696 265.5H786.5C790.918 265.5 794.5 261.918 794.5 257.5V8C794.5 3.58172 798.082 0 802.5 0H805.5C809.918 0 813.5 3.58172 813.5 8V259.64C813.5 263.657 816.479 267.051 820.462 267.572L901.438 278.169C910.15 279.309 916.667 286.734 916.667 295.521V416.5Z" fill="white" fill-opacity="0.3" stroke="black" stroke-width="8" mask="url(#path-1-inside-1_44_26)"/>
</g>
<g id="&#227;&#131;&#143;&#227;&#130;&#166;&#227;&#130;&#185;">
<path id="plot_5" d="M8.00252 903.836L178.799 813.022C181.724 811.466 185.357 812.577 186.913 815.503L262.478 957.619C264.034 960.545 262.923 964.178 259.997 965.734L89.2009 1056.55C86.2751 1058.1 82.6421 1056.99 81.0864 1054.07L5.52167 911.95C3.96598 909.024 5.07669 905.391 8.00252 903.836Z" fill="white" fill-opacity="0.3" stroke="black" stroke-width="4"/>
<path id="apart_1" d="M8 464.5H98C101.314 464.5 104 467.186 104 470.5L104 686.5C104 689.814 101.314 692.5 98 692.5H8C4.68629 692.5 2 689.814 2 686.5L2 470.5L2.00781 470.191C2.16325 467.123 4.62332 464.663 7.69141 464.508L8 464.5Z" fill="white" fill-opacity="0.3" stroke="black" stroke-width="4"/>
<path id="plot_6" d="M577.133 776.147L677.688 678.508C680.065 676.2 683.864 676.255 686.172 678.633L769.632 764.586C771.941 766.963 771.885 770.762 769.508 773.07L668.953 870.709C666.575 873.017 662.777 872.961 660.468 870.584L577.008 784.631C574.699 782.254 574.755 778.455 577.133 776.147Z" fill="white" fill-opacity="0.3" stroke="black" stroke-width="4"/>
<path id="plot_30" d="M1417.95 1252.91L1540.1 1184.17C1542.99 1182.54 1546.64 1183.56 1548.27 1186.45L1607.03 1290.86C1608.65 1293.75 1607.63 1297.41 1604.74 1299.03L1482.6 1367.77C1479.71 1369.4 1476.05 1368.37 1474.42 1365.49L1415.67 1261.08C1414.04 1258.19 1415.06 1254.53 1417.95 1252.91Z" fill="white" fill-opacity="0.3" stroke="black" stroke-width="4"/>
<path id="plot_29" d="M1733 1044.5H1873.16C1876.47 1044.5 1879.16 1047.19 1879.16 1050.5V1170.31C1879.16 1173.62 1876.47 1176.31 1873.16 1176.31H1733C1729.69 1176.31 1727 1173.62 1727 1170.31V1050.5C1727 1047.19 1729.69 1044.5 1733 1044.5Z" fill="white" fill-opacity="0.3" stroke="black" stroke-width="4"/>
<path id="plot_14" d="M1153.16 499.858L1257.97 406.798C1260.44 404.598 1264.24 404.823 1266.44 407.301L1345.98 496.889C1348.18 499.366 1347.96 503.159 1345.48 505.359L1240.67 598.419C1238.2 600.619 1234.4 600.394 1232.2 597.916L1152.66 508.329C1150.46 505.851 1150.68 502.058 1153.16 499.858Z" fill="white" fill-opacity="0.3" stroke="black" stroke-width="4"/>
<path id="plot_1" d="M422.01 223.287L562.168 222.543C565.481 222.525 568.182 225.197 568.199 228.511L568.835 348.316C568.853 351.629 566.181 354.33 562.867 354.347L422.71 355.091C419.396 355.109 416.696 352.437 416.678 349.123L416.042 229.318C416.025 226.005 418.697 223.304 422.01 223.287Z" fill="white" fill-opacity="0.3" stroke="black" stroke-width="4"/>
<path id="plot_4" d="M345.991 799.385L345.991 659.225C345.991 655.912 348.678 653.225 351.991 653.225L471.798 653.225C475.112 653.226 477.798 655.912 477.798 659.225L477.798 799.385C477.798 802.698 475.112 805.385 471.798 805.385L351.991 805.385C348.678 805.385 345.991 802.698 345.991 799.385Z" fill="white" fill-opacity="0.3" stroke="black" stroke-width="4"/>
<path id="plot_3" d="M324 554.513L324 462.5C324 459.186 326.686 456.5 330 456.5L425.251 456.5C428.565 456.5 431.251 459.186 431.251 462.5L431.251 554.513C431.251 557.826 428.565 560.513 425.251 560.513L330 560.513C326.686 560.513 324 557.826 324 554.513Z" fill="white" fill-opacity="0.3" stroke="black" stroke-width="4"/>
<path id="plot_8" d="M723 403.513L723 311.5C723 308.186 725.686 305.5 729 305.5L824.251 305.5C827.565 305.5 830.251 308.186 830.251 311.5L830.251 403.513C830.251 406.826 827.565 409.513 824.251 409.513L729 409.513C725.686 409.513 723 406.826 723 403.513Z" fill="white" fill-opacity="0.3" stroke="black" stroke-width="4"/>
<path id="plot_9" d="M984 383.513L984 291.5C984 288.186 986.686 285.5 990 285.5L1085.25 285.5C1088.56 285.5 1091.25 288.186 1091.25 291.5L1091.25 383.513C1091.25 386.826 1088.56 389.513 1085.25 389.513L990 389.513C986.686 389.513 984 386.826 984 383.513Z" fill="white" fill-opacity="0.3" stroke="black" stroke-width="4"/>
<path id="plot_19" d="M979.573 957.363L1010.51 870.707C1011.62 867.586 1015.05 865.959 1018.18 867.073L1107.88 899.096C1111 900.211 1112.63 903.644 1111.52 906.764L1080.58 993.421C1079.47 996.542 1076.03 998.169 1072.91 997.055L983.207 965.031C980.086 963.917 978.459 960.484 979.573 957.363Z" fill="white" fill-opacity="0.3" stroke="black" stroke-width="4"/>
<path id="plot_20" d="M1093.89 995.793L1142.01 917.365C1143.74 914.54 1147.43 913.655 1150.26 915.388L1231.45 965.2C1234.27 966.933 1235.16 970.628 1233.42 973.452L1185.3 1051.88C1183.57 1054.7 1179.88 1055.59 1177.05 1053.86L1095.86 1004.04C1093.04 1002.31 1092.16 998.617 1093.89 995.793Z" fill="white" fill-opacity="0.3" stroke="black" stroke-width="4"/>
<path id="plot_21" d="M1191.67 1061.27L1266.54 1007.78C1269.24 1005.85 1272.98 1006.48 1274.91 1009.17L1330.28 1086.68C1332.21 1089.37 1331.58 1093.12 1328.89 1095.05L1254.02 1148.53C1251.32 1150.46 1247.58 1149.84 1245.65 1147.14L1190.28 1069.64C1188.35 1066.94 1188.98 1063.19 1191.67 1061.27Z" fill="white" fill-opacity="0.3" stroke="black" stroke-width="4"/>
<path id="plot_23" d="M1339 963.513L1339 871.5C1339 868.186 1341.69 865.5 1345 865.5L1440.25 865.5C1443.56 865.5 1446.25 868.186 1446.25 871.5L1446.25 963.513C1446.25 966.826 1443.56 969.513 1440.25 969.513L1345 969.513C1341.69 969.513 1339 966.826 1339 963.513Z" fill="white" fill-opacity="0.3" stroke="black" stroke-width="4"/>
<path id="plot_17" d="M1306 721.513L1306 629.5C1306 626.186 1308.69 623.5 1312 623.5L1407.25 623.5C1410.56 623.5 1413.25 626.186 1413.25 629.5L1413.25 721.513C1413.25 724.826 1410.56 727.513 1407.25 727.513L1312 727.513C1308.69 727.513 1306 724.826 1306 721.513Z" fill="white" fill-opacity="0.3" stroke="black" stroke-width="4"/>
<path id="plot_16" d="M1437 676.513L1437 584.5C1437 581.186 1439.69 578.5 1443 578.5L1538.25 578.5C1541.56 578.5 1544.25 581.186 1544.25 584.5L1544.25 676.513C1544.25 679.826 1541.56 682.513 1538.25 682.513L1443 682.513C1439.69 682.513 1437 679.826 1437 676.513Z" fill="white" fill-opacity="0.3" stroke="black" stroke-width="4"/>
<path id="plot_24" d="M1493 820.513L1493 728.5C1493 725.186 1495.69 722.5 1499 722.5L1594.25 722.5C1597.56 722.5 1600.25 725.186 1600.25 728.5L1600.25 820.513C1600.25 823.826 1597.56 826.513 1594.25 826.513L1499 826.513C1495.69 826.513 1493 823.826 1493 820.513Z" fill="white" fill-opacity="0.3" stroke="black" stroke-width="4"/>
<path id="plot_27" d="M1685 820.513L1685 728.5C1685 725.186 1687.69 722.5 1691 722.5L1786.25 722.5C1789.56 722.5 1792.25 725.186 1792.25 728.5L1792.25 820.513C1792.25 823.826 1789.56 826.513 1786.25 826.513L1691 826.513C1687.69 826.513 1685 823.826 1685 820.513Z" fill="white" fill-opacity="0.3" stroke="black" stroke-width="4"/>
<path id="plot_28" d="M1727 963.513L1727 871.5C1727 868.186 1729.69 865.5 1733 865.5L1828.25 865.5C1831.56 865.5 1834.25 868.186 1834.25 871.5L1834.25 963.513C1834.25 966.826 1831.56 969.513 1828.25 969.513L1733 969.513C1729.69 969.513 1727 966.826 1727 963.513Z" fill="white" fill-opacity="0.3" stroke="black" stroke-width="4"/>
<path id="plot_25" d="M1561 963.513L1561 871.5C1561 868.186 1563.69 865.5 1567 865.5L1662.25 865.5C1665.56 865.5 1668.25 868.186 1668.25 871.5L1668.25 963.513C1668.25 966.826 1665.56 969.513 1662.25 969.513L1567 969.513C1563.69 969.513 1561 966.826 1561 963.513Z" fill="white" fill-opacity="0.3" stroke="black" stroke-width="4"/>
<path id="plot_26" d="M1594 1121.51L1594 1029.5C1594 1026.19 1596.69 1023.5 1600 1023.5L1695.25 1023.5C1698.56 1023.5 1701.25 1026.19 1701.25 1029.5L1701.25 1121.51C1701.25 1124.83 1698.56 1127.51 1695.25 1127.51L1600 1127.51C1596.69 1127.51 1594 1124.83 1594 1121.51Z" fill="white" fill-opacity="0.3" stroke="black" stroke-width="4"/>
<path id="plot_22" d="M1362 1121.51L1362 1029.5C1362 1026.19 1364.69 1023.5 1368 1023.5L1463.25 1023.5C1466.56 1023.5 1469.25 1026.19 1469.25 1029.5L1469.25 1121.51C1469.25 1124.83 1466.56 1127.51 1463.25 1127.51L1368 1127.51C1364.69 1127.51 1362 1124.83 1362 1121.51Z" fill="white" fill-opacity="0.3" stroke="black" stroke-width="4"/>
<path id="plot_13" d="M1084 697.513L1084 605.5C1084 602.186 1086.69 599.5 1090 599.5L1185.25 599.5C1188.56 599.5 1191.25 602.186 1191.25 605.5L1191.25 697.513C1191.25 700.826 1188.56 703.513 1185.25 703.513L1090 703.513C1086.69 703.513 1084 700.826 1084 697.513Z" fill="white" fill-opacity="0.3" stroke="black" stroke-width="4"/>
<path id="plot_18" d="M1130 866.513L1130 774.5C1130 771.186 1132.69 768.5 1136 768.5L1231.25 768.5C1234.56 768.5 1237.25 771.186 1237.25 774.5L1237.25 866.513C1237.25 869.826 1234.56 872.513 1231.25 872.513L1136 872.513C1132.69 872.513 1130 869.826 1130 866.513Z" fill="white" fill-opacity="0.3" stroke="black" stroke-width="4"/>
<path id="plot_12" d="M1019 568.513L1019 476.5C1019 473.186 1021.69 470.5 1025 470.5L1120.25 470.5C1123.56 470.5 1126.25 473.186 1126.25 476.5L1126.25 568.513C1126.25 571.826 1123.56 574.513 1120.25 574.513L1025 574.513C1021.69 574.513 1019 571.826 1019 568.513Z" fill="white" fill-opacity="0.3" stroke="black" stroke-width="4"/>
<path id="plot_11" d="M814 574.513L814 482.5C814 479.186 816.686 476.5 820 476.5L915.251 476.5C918.565 476.5 921.251 479.186 921.251 482.5L921.251 574.513C921.251 577.826 918.565 580.513 915.251 580.513L820 580.513C816.686 580.513 814 577.826 814 574.513Z" fill="white" fill-opacity="0.3" stroke="black" stroke-width="4"/>
<path id="plot_10" d="M1095 265.513L1095 173.5C1095 170.186 1097.69 167.5 1101 167.5L1196.25 167.5C1199.56 167.5 1202.25 170.186 1202.25 173.5L1202.25 265.513C1202.25 268.826 1199.56 271.513 1196.25 271.513L1101 271.513C1097.69 271.513 1095 268.826 1095 265.513Z" fill="white" fill-opacity="0.3" stroke="black" stroke-width="4"/>
<path id="plot_7" d="M719.73 588.339L579.572 588.938C576.258 588.952 573.56 586.278 573.546 582.964L573.034 463.158C573.02 459.845 575.695 457.147 579.009 457.133L719.166 456.534C722.48 456.52 725.178 459.195 725.192 462.508L725.704 582.314C725.718 585.627 723.043 588.325 719.73 588.339Z" fill="white" fill-opacity="0.3" stroke="black" stroke-width="4"/>
<path id="plot_2" d="M55.9959 346.792L190.37 207.644C192.672 205.261 196.47 205.194 198.854 207.496L314.636 319.306C317.02 321.608 317.086 325.407 314.784 327.79L180.411 466.938C178.109 469.322 174.311 469.388 171.927 467.086L56.144 355.276C53.7604 352.974 53.694 349.176 55.9959 346.792Z" fill="white" fill-opacity="0.3" stroke="black" stroke-width="4"/>
<path id="plot_15" d="M1417 311.792L1551.37 172.644C1553.67 170.261 1557.47 170.194 1559.85 172.496L1675.64 284.306C1678.02 286.608 1678.09 290.407 1675.78 292.79L1541.41 431.938C1539.11 434.322 1535.31 434.388 1532.93 432.086L1417.14 320.276C1414.76 317.974 1414.69 314.176 1417 311.792Z" fill="white" fill-opacity="0.3" stroke="black" stroke-width="4"/>
</g>
<g id="&#227;&#130;&#168;&#227;&#131;&#188;&#227;&#131;&#134;&#227;&#131;&#169;&#227;&#130;&#164;&#227;&#131;&#136;">
<g id="&#227;&#130;&#183;&#227;&#131;&#188;&#227;&#130;&#178;&#227;&#130;&#164;&#227;&#130;&#186;&#229;&#149;&#134;&#233;&#128;&#154;&#227;&#130;&#138;">
<g id="Group 5">
<path id="Polygon 22" d="M899.471 851.571L887.559 853.781L884.617 858.748L892.86 862.732H906.081L914.324 858.748L911.382 853.781L899.471 851.571Z" fill="#F0FEFF" fill-opacity="0.4"/>
<path id="Polygon 23" d="M899.5 847.578L887.382 849.822L884.389 854.863L892.775 858.907H906.225L914.611 854.863L911.618 849.822L899.5 847.578Z" fill="#F0FEFF" fill-opacity="0.4"/>
</g>
<g id="Group 2">
<g id="Polygon 1">
<path d="M898.975 790.5L894.577 814.499H903.373L898.975 790.5Z" fill="#D9D9D9" fill-opacity="0.3"/>
<path d="M895.177 813.999H902.773L898.975 793.272L895.177 813.999Z" stroke="#00BFFF" stroke-opacity="0.4"/>
</g>
<g id="Polygon 11">
<path d="M896.274 854.496L900.672 828.736L891.876 828.736L896.274 854.496Z" fill="#D9D9D9" fill-opacity="0.3"/>
<path d="M900.08 829.236L892.468 829.236L896.274 851.527L900.08 829.236Z" stroke="#00BFFF" stroke-opacity="0.4"/>
</g>
<g id="Polygon 2">
<path d="M897.183 797.24L890.905 822.607L899.678 823.253L897.183 797.24Z" fill="#D9D9D9" fill-opacity="0.3"/>
<path d="M891.532 822.152L899.124 822.711L896.966 800.2L891.532 822.152Z" stroke="#00BFFF" stroke-opacity="0.4"/>
</g>
<g id="Polygon 6">
<path d="M898.104 792.862L890.293 823.781L898.212 824.752L898.104 792.862Z" fill="#D9D9D9" fill-opacity="0.3"/>
<path d="M890.917 823.354L897.71 824.187L897.618 796.829L890.917 823.354Z" stroke="#00BFFF" stroke-opacity="0.4"/>
</g>
<g id="Polygon 13">
<path d="M900.267 854.966L904.665 829.206L895.868 829.206L900.267 854.966Z" fill="#D9D9D9" fill-opacity="0.3"/>
<path d="M904.073 829.706L896.46 829.706L900.266 851.997L904.073 829.706Z" stroke="#00BFFF" stroke-opacity="0.4"/>
</g>
<g id="Polygon 5">
<path d="M898.598 791.925L893.096 817.472L901.884 817.85L898.598 791.925Z" fill="#D9D9D9" fill-opacity="0.3"/>
<path d="M893.709 816.998L901.314 817.325L898.471 794.891L893.709 816.998Z" stroke="#00BFFF" stroke-opacity="0.4"/>
</g>
<g id="Polygon 14">
<path d="M903.927 854.467L906.737 821.637L901.7 821.592L903.927 854.467Z" fill="#D9D9D9" fill-opacity="0.3"/>
<path d="M906.194 822.132L902.235 822.097L903.986 847.922L906.194 822.132Z" stroke="#00BFFF" stroke-opacity="0.4"/>
</g>
<g id="Polygon 15">
<path d="M897.468 852.569L908.48 828.87L899.993 826.558L897.468 852.569Z" fill="#D9D9D9" fill-opacity="0.3"/>
<path d="M907.777 829.197L900.433 827.197L898.248 849.704L907.777 829.197Z" stroke="#00BFFF" stroke-opacity="0.4"/>
</g>
<g id="Polygon 3">
<path d="M900.638 795.965L896.829 821.818L905.623 821.618L900.638 795.965Z" fill="#D9D9D9" fill-opacity="0.3"/>
<path d="M897.409 821.305L905.019 821.131L900.706 798.933L897.409 821.305Z" stroke="#00BFFF" stroke-opacity="0.4"/>
</g>
<g id="Polygon 16">
<path d="M897.983 852.149L899.891 830.757L892.936 831.274L897.983 852.149Z" fill="#D9D9D9" fill-opacity="0.3"/>
<path d="M899.34 831.299L893.561 831.729L897.755 849.08L899.34 831.299Z" stroke="#00BFFF" stroke-opacity="0.4"/>
</g>
<g id="Polygon 7">
<path d="M903.437 837.699L907.555 811.893L898.759 811.988L903.437 837.699Z" fill="#D9D9D9" fill-opacity="0.3"/>
<path d="M906.969 812.399L899.357 812.482L903.405 834.73L906.969 812.399Z" stroke="#00BFFF" stroke-opacity="0.4"/>
</g>
<g id="Polygon 21">
<path d="M903.073 835.35L907.198 809.28L898.381 809.376L903.073 835.35Z" fill="#D9D9D9" fill-opacity="0.3"/>
<path d="M906.612 809.786L898.978 809.869L903.04 832.356L906.612 809.786Z" stroke="#00BFFF" stroke-opacity="0.4"/>
</g>
<g id="Polygon 17">
<path d="M895.159 852.441L899.557 826.681L890.76 826.681L895.159 852.441Z" fill="#D9D9D9" fill-opacity="0.3"/>
<path d="M898.965 827.182L891.352 827.182L895.158 849.473L898.965 827.182Z" stroke="#00BFFF" stroke-opacity="0.4"/>
</g>
<g id="Polygon 10">
<path d="M897.801 802.477L893.402 828.237H902.199L897.801 802.477Z" fill="#D9D9D9" fill-opacity="0.3"/>
<path d="M893.995 827.737H901.607L897.801 805.446L893.995 827.737Z" stroke="#00BFFF" stroke-opacity="0.4"/>
</g>
<g id="Polygon 18">
<path d="M898.447 848.155L902.845 822.395L894.048 822.395L898.447 848.155Z" fill="#D9D9D9" fill-opacity="0.3"/>
<path d="M902.253 822.896L894.64 822.896L898.446 845.187L902.253 822.896Z" stroke="#00BFFF" stroke-opacity="0.4"/>
</g>
<g id="Polygon 9">
<path d="M894.749 801.546L889.715 827.189L898.509 827.407L894.749 801.546Z" fill="#D9D9D9" fill-opacity="0.3"/>
<path d="M890.32 826.704L897.93 826.892L894.676 804.514L890.32 826.704Z" stroke="#00BFFF" stroke-opacity="0.4"/>
</g>
<g id="Polygon 19">
<path d="M900.352 860.153L898.962 832.011L890.351 833.812L900.352 860.153Z" fill="#D9D9D9" fill-opacity="0.3"/>
<path d="M898.491 832.621L891.027 834.182L899.696 857.02L898.491 832.621Z" stroke="#00BFFF" stroke-opacity="0.4"/>
</g>
<g id="Polygon 4">
<path d="M901.373 799.498L899.385 825.555L908.144 824.739L901.373 799.498Z" fill="#D9D9D9" fill-opacity="0.3"/>
<path d="M899.928 825.002L907.508 824.296L901.649 802.454L899.928 825.002Z" stroke="#00BFFF" stroke-opacity="0.4"/>
</g>
<g id="Polygon 20">
<path d="M895.164 852.176L898.323 826.234L889.537 826.656L895.164 852.176Z" fill="#D9D9D9" fill-opacity="0.3"/>
<path d="M897.756 826.762L890.152 827.127L895.022 849.21L897.756 826.762Z" stroke="#00BFFF" stroke-opacity="0.4"/>
</g>
<g id="Polygon 8">
<path d="M897.859 799.366L893.461 825.125H902.258L897.859 799.366Z" fill="#D9D9D9" fill-opacity="0.3"/>
<path d="M894.053 824.625H901.666L897.86 802.334L894.053 824.625Z" stroke="#00BFFF" stroke-opacity="0.4"/>
</g>
<g id="Polygon 12">
<path d="M902.852 849.078L909.096 823.702L900.323 823.068L902.852 849.078Z" fill="#D9D9D9" fill-opacity="0.3"/>
<path d="M908.47 824.159L900.877 823.609L903.065 846.117L908.47 824.159Z" stroke="#00BFFF" stroke-opacity="0.4"/>
</g>
</g>
</g>
<g id="&#227;&#131;&#159;&#227;&#130;&#185;&#227;&#131;&#136;&#227;&#131;&#187;&#227;&#131;&#180;&#227;&#130;&#163;&#227;&#131;&#172;&#227;&#131;&#131;&#227;&#130;&#184;&#230;&#157;&#177;">
<g id="Group 5_2">
<path id="Polygon 22_2" d="M1208.47 719.571L1196.56 721.781L1193.62 726.748L1201.86 730.732H1215.08L1223.32 726.748L1220.38 721.781L1208.47 719.571Z" fill="#F0FEFF" fill-opacity="0.4"/>
<path id="Polygon 23_2" d="M1208.5 715.578L1196.38 717.822L1193.39 722.863L1201.77 726.907H1215.23L1223.61 722.863L1220.62 717.822L1208.5 715.578Z" fill="#F0FEFF" fill-opacity="0.4"/>
</g>
<g id="Group 2_2">
<g id="Polygon 1_2">
<path d="M1207.97 658.5L1203.58 682.499H1212.37L1207.97 658.5Z" fill="#D9D9D9" fill-opacity="0.3"/>
<path d="M1204.18 681.999H1211.77L1207.98 661.272L1204.18 681.999Z" stroke="#00BFFF" stroke-opacity="0.4"/>
</g>
<g id="Polygon 11_2">
<path d="M1205.27 722.496L1209.67 696.736L1200.88 696.736L1205.27 722.496Z" fill="#D9D9D9" fill-opacity="0.3"/>
<path d="M1209.08 697.236L1201.47 697.236L1205.27 719.527L1209.08 697.236Z" stroke="#00BFFF" stroke-opacity="0.4"/>
</g>
<g id="Polygon 2_2">
<path d="M1206.18 665.24L1199.9 690.607L1208.68 691.253L1206.18 665.24Z" fill="#D9D9D9" fill-opacity="0.3"/>
<path d="M1200.53 690.152L1208.12 690.711L1205.97 668.2L1200.53 690.152Z" stroke="#00BFFF" stroke-opacity="0.4"/>
</g>
<g id="Polygon 6_2">
<path d="M1207.1 660.862L1199.29 691.781L1207.21 692.752L1207.1 660.862Z" fill="#D9D9D9" fill-opacity="0.3"/>
<path d="M1199.92 691.354L1206.71 692.187L1206.62 664.829L1199.92 691.354Z" stroke="#00BFFF" stroke-opacity="0.4"/>
</g>
<g id="Polygon 13_2">
<path d="M1209.27 722.966L1213.66 697.206L1204.87 697.206L1209.27 722.966Z" fill="#D9D9D9" fill-opacity="0.3"/>
<path d="M1213.07 697.706L1205.46 697.706L1209.27 719.997L1213.07 697.706Z" stroke="#00BFFF" stroke-opacity="0.4"/>
</g>
<g id="Polygon 5_2">
<path d="M1207.6 659.925L1202.1 685.472L1210.88 685.85L1207.6 659.925Z" fill="#D9D9D9" fill-opacity="0.3"/>
<path d="M1202.71 684.998L1210.31 685.325L1207.47 662.891L1202.71 684.998Z" stroke="#00BFFF" stroke-opacity="0.4"/>
</g>
<g id="Polygon 14_2">
<path d="M1212.93 722.467L1215.74 689.637L1210.7 689.592L1212.93 722.467Z" fill="#D9D9D9" fill-opacity="0.3"/>
<path d="M1215.19 690.132L1211.23 690.097L1212.99 715.922L1215.19 690.132Z" stroke="#00BFFF" stroke-opacity="0.4"/>
</g>
<g id="Polygon 15_2">
<path d="M1206.47 720.569L1217.48 696.87L1208.99 694.558L1206.47 720.569Z" fill="#D9D9D9" fill-opacity="0.3"/>
<path d="M1216.78 697.197L1209.43 695.197L1207.25 717.704L1216.78 697.197Z" stroke="#00BFFF" stroke-opacity="0.4"/>
</g>
<g id="Polygon 3_2">
<path d="M1209.64 663.965L1205.83 689.818L1214.62 689.618L1209.64 663.965Z" fill="#D9D9D9" fill-opacity="0.3"/>
<path d="M1206.41 689.305L1214.02 689.131L1209.71 666.933L1206.41 689.305Z" stroke="#00BFFF" stroke-opacity="0.4"/>
</g>
<g id="Polygon 16_2">
<path d="M1206.98 720.149L1208.89 698.757L1201.94 699.274L1206.98 720.149Z" fill="#D9D9D9" fill-opacity="0.3"/>
<path d="M1208.34 699.299L1202.56 699.729L1206.76 717.08L1208.34 699.299Z" stroke="#00BFFF" stroke-opacity="0.4"/>
</g>
<g id="Polygon 7_2">
<path d="M1212.44 705.699L1216.56 679.893L1207.76 679.988L1212.44 705.699Z" fill="#D9D9D9" fill-opacity="0.3"/>
<path d="M1215.97 680.399L1208.36 680.482L1212.4 702.73L1215.97 680.399Z" stroke="#00BFFF" stroke-opacity="0.4"/>
</g>
<g id="Polygon 21_2">
<path d="M1212.07 703.35L1216.2 677.28L1207.38 677.376L1212.07 703.35Z" fill="#D9D9D9" fill-opacity="0.3"/>
<path d="M1215.61 677.786L1207.98 677.869L1212.04 700.356L1215.61 677.786Z" stroke="#00BFFF" stroke-opacity="0.4"/>
</g>
<g id="Polygon 17_2">
<path d="M1204.16 720.441L1208.56 694.681L1199.76 694.681L1204.16 720.441Z" fill="#D9D9D9" fill-opacity="0.3"/>
<path d="M1207.96 695.182L1200.35 695.182L1204.16 717.473L1207.96 695.182Z" stroke="#00BFFF" stroke-opacity="0.4"/>
</g>
<g id="Polygon 10_2">
<path d="M1206.8 670.477L1202.4 696.237H1211.2L1206.8 670.477Z" fill="#D9D9D9" fill-opacity="0.3"/>
<path d="M1202.99 695.737H1210.61L1206.8 673.446L1202.99 695.737Z" stroke="#00BFFF" stroke-opacity="0.4"/>
</g>
<g id="Polygon 18_2">
<path d="M1207.45 716.155L1211.84 690.395L1203.05 690.395L1207.45 716.155Z" fill="#D9D9D9" fill-opacity="0.3"/>
<path d="M1211.25 690.896L1203.64 690.896L1207.45 713.187L1211.25 690.896Z" stroke="#00BFFF" stroke-opacity="0.4"/>
</g>
<g id="Polygon 9_2">
<path d="M1203.75 669.546L1198.72 695.189L1207.51 695.407L1203.75 669.546Z" fill="#D9D9D9" fill-opacity="0.3"/>
<path d="M1199.32 694.704L1206.93 694.892L1203.68 672.514L1199.32 694.704Z" stroke="#00BFFF" stroke-opacity="0.4"/>
</g>
<g id="Polygon 19_2">
<path d="M1209.35 728.153L1207.96 700.011L1199.35 701.812L1209.35 728.153Z" fill="#D9D9D9" fill-opacity="0.3"/>
<path d="M1207.49 700.621L1200.03 702.182L1208.7 725.02L1207.49 700.621Z" stroke="#00BFFF" stroke-opacity="0.4"/>
</g>
<g id="Polygon 4_2">
<path d="M1210.37 667.498L1208.39 693.555L1217.14 692.739L1210.37 667.498Z" fill="#D9D9D9" fill-opacity="0.3"/>
<path d="M1208.93 693.002L1216.51 692.296L1210.65 670.454L1208.93 693.002Z" stroke="#00BFFF" stroke-opacity="0.4"/>
</g>
<g id="Polygon 20_2">
<path d="M1204.16 720.176L1207.32 694.234L1198.54 694.656L1204.16 720.176Z" fill="#D9D9D9" fill-opacity="0.3"/>
<path d="M1206.76 694.762L1199.15 695.127L1204.02 717.21L1206.76 694.762Z" stroke="#00BFFF" stroke-opacity="0.4"/>
</g>
<g id="Polygon 8_2">
<path d="M1206.86 667.366L1202.46 693.125H1211.26L1206.86 667.366Z" fill="#D9D9D9" fill-opacity="0.3"/>
<path d="M1203.05 692.625H1210.67L1206.86 670.334L1203.05 692.625Z" stroke="#00BFFF" stroke-opacity="0.4"/>
</g>
<g id="Polygon 12_2">
<path d="M1211.85 717.078L1218.1 691.702L1209.32 691.068L1211.85 717.078Z" fill="#D9D9D9" fill-opacity="0.3"/>
<path d="M1217.47 692.159L1209.88 691.609L1212.07 714.117L1217.47 692.159Z" stroke="#00BFFF" stroke-opacity="0.4"/>
</g>
</g>
</g>
<g id="&#227;&#131;&#159;&#227;&#130;&#185;&#227;&#131;&#136;&#227;&#131;&#187;&#227;&#131;&#180;&#227;&#130;&#163;&#227;&#131;&#172;&#227;&#131;&#131;&#227;&#130;&#184;&#229;&#141;&#151;&#230;&#157;&#177;">
<g id="Group 5_3">
<path id="Polygon 22_3" d="M1517.47 997.571L1505.56 999.781L1502.62 1004.75L1510.86 1008.73H1524.08L1532.32 1004.75L1529.38 999.781L1517.47 997.571Z" fill="#F0FEFF" fill-opacity="0.4"/>
<path id="Polygon 23_3" d="M1517.5 993.578L1505.38 995.822L1502.39 1000.86L1510.77 1004.91H1524.23L1532.61 1000.86L1529.62 995.822L1517.5 993.578Z" fill="#F0FEFF" fill-opacity="0.4"/>
</g>
<g id="Group 2_3">
<g id="Polygon 1_3">
<path d="M1516.98 936.5L1512.58 960.499H1521.37L1516.98 936.5Z" fill="#D9D9D9" fill-opacity="0.3"/>
<path d="M1513.18 959.999H1520.77L1516.98 939.272L1513.18 959.999Z" stroke="#00BFFF" stroke-opacity="0.4"/>
</g>
<g id="Polygon 11_3">
<path d="M1514.27 1000.5L1518.67 974.736L1509.88 974.736L1514.27 1000.5Z" fill="#D9D9D9" fill-opacity="0.3"/>
<path d="M1518.08 975.237L1510.47 975.237L1514.27 997.528L1518.08 975.237Z" stroke="#00BFFF" stroke-opacity="0.4"/>
</g>
<g id="Polygon 2_3">
<path d="M1515.18 943.24L1508.9 968.607L1517.68 969.253L1515.18 943.24Z" fill="#D9D9D9" fill-opacity="0.3"/>
<path d="M1509.53 968.152L1517.12 968.711L1514.97 946.2L1509.53 968.152Z" stroke="#00BFFF" stroke-opacity="0.4"/>
</g>
<g id="Polygon 6_3">
<path d="M1516.1 938.862L1508.29 969.781L1516.21 970.752L1516.1 938.862Z" fill="#D9D9D9" fill-opacity="0.3"/>
<path d="M1508.92 969.354L1515.71 970.187L1515.62 942.829L1508.92 969.354Z" stroke="#00BFFF" stroke-opacity="0.4"/>
</g>
<g id="Polygon 13_3">
<path d="M1518.27 1000.97L1522.66 975.206L1513.87 975.206L1518.27 1000.97Z" fill="#D9D9D9" fill-opacity="0.3"/>
<path d="M1522.07 975.706L1514.46 975.706L1518.27 997.997L1522.07 975.706Z" stroke="#00BFFF" stroke-opacity="0.4"/>
</g>
<g id="Polygon 5_3">
<path d="M1516.6 937.925L1511.1 963.472L1519.88 963.85L1516.6 937.925Z" fill="#D9D9D9" fill-opacity="0.3"/>
<path d="M1511.71 962.998L1519.31 963.325L1516.47 940.891L1511.71 962.998Z" stroke="#00BFFF" stroke-opacity="0.4"/>
</g>
<g id="Polygon 14_3">
<path d="M1521.93 1000.47L1524.74 967.637L1519.7 967.592L1521.93 1000.47Z" fill="#D9D9D9" fill-opacity="0.3"/>
<path d="M1524.19 968.132L1520.24 968.097L1521.99 993.922L1524.19 968.132Z" stroke="#00BFFF" stroke-opacity="0.4"/>
</g>
<g id="Polygon 15_3">
<path d="M1515.47 998.569L1526.48 974.87L1517.99 972.558L1515.47 998.569Z" fill="#D9D9D9" fill-opacity="0.3"/>
<path d="M1525.78 975.197L1518.43 973.197L1516.25 995.704L1525.78 975.197Z" stroke="#00BFFF" stroke-opacity="0.4"/>
</g>
<g id="Polygon 3_3">
<path d="M1518.64 941.965L1514.83 967.818L1523.62 967.618L1518.64 941.965Z" fill="#D9D9D9" fill-opacity="0.3"/>
<path d="M1515.41 967.305L1523.02 967.131L1518.71 944.933L1515.41 967.305Z" stroke="#00BFFF" stroke-opacity="0.4"/>
</g>
<g id="Polygon 16_3">
<path d="M1515.98 998.15L1517.89 976.757L1510.94 977.274L1515.98 998.15Z" fill="#D9D9D9" fill-opacity="0.3"/>
<path d="M1517.34 977.299L1511.56 977.729L1515.76 995.08L1517.34 977.299Z" stroke="#00BFFF" stroke-opacity="0.4"/>
</g>
<g id="Polygon 7_3">
<path d="M1521.44 983.699L1525.56 957.893L1516.76 957.988L1521.44 983.699Z" fill="#D9D9D9" fill-opacity="0.3"/>
<path d="M1524.97 958.399L1517.36 958.482L1521.4 980.73L1524.97 958.399Z" stroke="#00BFFF" stroke-opacity="0.4"/>
</g>
<g id="Polygon 21_3">
<path d="M1521.07 981.35L1525.2 955.28L1516.38 955.376L1521.07 981.35Z" fill="#D9D9D9" fill-opacity="0.3"/>
<path d="M1524.61 955.786L1516.98 955.869L1521.04 978.356L1524.61 955.786Z" stroke="#00BFFF" stroke-opacity="0.4"/>
</g>
<g id="Polygon 17_3">
<path d="M1513.16 998.441L1517.56 972.681L1508.76 972.681L1513.16 998.441Z" fill="#D9D9D9" fill-opacity="0.3"/>
<path d="M1516.96 973.182L1509.35 973.182L1513.16 995.473L1516.96 973.182Z" stroke="#00BFFF" stroke-opacity="0.4"/>
</g>
<g id="Polygon 10_3">
<path d="M1515.8 948.477L1511.4 974.237H1520.2L1515.8 948.477Z" fill="#D9D9D9" fill-opacity="0.3"/>
<path d="M1511.99 973.737H1519.61L1515.8 951.446L1511.99 973.737Z" stroke="#00BFFF" stroke-opacity="0.4"/>
</g>
<g id="Polygon 18_3">
<path d="M1516.45 994.155L1520.84 968.395L1512.05 968.395L1516.45 994.155Z" fill="#D9D9D9" fill-opacity="0.3"/>
<path d="M1520.25 968.896L1512.64 968.896L1516.45 991.187L1520.25 968.896Z" stroke="#00BFFF" stroke-opacity="0.4"/>
</g>
<g id="Polygon 9_3">
<path d="M1512.75 947.546L1507.72 973.189L1516.51 973.407L1512.75 947.546Z" fill="#D9D9D9" fill-opacity="0.3"/>
<path d="M1508.32 972.704L1515.93 972.892L1512.68 950.514L1508.32 972.704Z" stroke="#00BFFF" stroke-opacity="0.4"/>
</g>
<g id="Polygon 19_3">
<path d="M1518.35 1006.15L1516.96 978.011L1508.35 979.812L1518.35 1006.15Z" fill="#D9D9D9" fill-opacity="0.3"/>
<path d="M1516.49 978.621L1509.03 980.182L1517.7 1003.02L1516.49 978.621Z" stroke="#00BFFF" stroke-opacity="0.4"/>
</g>
<g id="Polygon 4_3">
<path d="M1519.37 945.498L1517.39 971.555L1526.14 970.739L1519.37 945.498Z" fill="#D9D9D9" fill-opacity="0.3"/>
<path d="M1517.93 971.002L1525.51 970.296L1519.65 948.454L1517.93 971.002Z" stroke="#00BFFF" stroke-opacity="0.4"/>
</g>
<g id="Polygon 20_3">
<path d="M1513.16 998.176L1516.32 972.234L1507.54 972.656L1513.16 998.176Z" fill="#D9D9D9" fill-opacity="0.3"/>
<path d="M1515.76 972.762L1508.15 973.127L1513.02 995.21L1515.76 972.762Z" stroke="#00BFFF" stroke-opacity="0.4"/>
</g>
<g id="Polygon 8_3">
<path d="M1515.86 945.366L1511.46 971.125H1520.26L1515.86 945.366Z" fill="#D9D9D9" fill-opacity="0.3"/>
<path d="M1512.05 970.625H1519.67L1515.86 948.334L1512.05 970.625Z" stroke="#00BFFF" stroke-opacity="0.4"/>
</g>
<g id="Polygon 12_3">
<path d="M1520.85 995.078L1527.1 969.702L1518.32 969.068L1520.85 995.078Z" fill="#D9D9D9" fill-opacity="0.3"/>
<path d="M1526.47 970.159L1518.88 969.609L1521.07 992.117L1526.47 970.159Z" stroke="#00BFFF" stroke-opacity="0.4"/>
</g>
</g>
</g>
<g id="&#227;&#131;&#159;&#227;&#130;&#185;&#227;&#131;&#136;&#227;&#131;&#187;&#227;&#131;&#180;&#227;&#130;&#163;&#227;&#131;&#172;&#227;&#131;&#131;&#227;&#130;&#184;&#229;&#140;&#151;&#230;&#157;&#177;">
<g id="Group 5_4">
<path id="Polygon 22_4" d="M1244.47 325.571L1232.56 327.781L1229.62 332.748L1237.86 336.732H1251.08L1259.32 332.748L1256.38 327.781L1244.47 325.571Z" fill="#F0FEFF" fill-opacity="0.4"/>
<path id="Polygon 23_4" d="M1244.5 321.578L1232.38 323.822L1229.39 328.863L1237.77 332.907H1251.23L1259.61 328.863L1256.62 323.822L1244.5 321.578Z" fill="#F0FEFF" fill-opacity="0.4"/>
</g>
<g id="Group 2_4">
<g id="Polygon 1_4">
<path d="M1243.97 264.5L1239.58 288.499H1248.37L1243.97 264.5Z" fill="#D9D9D9" fill-opacity="0.3"/>
<path d="M1240.18 287.999H1247.77L1243.98 267.272L1240.18 287.999Z" stroke="#00BFFF" stroke-opacity="0.4"/>
</g>
<g id="Polygon 11_4">
<path d="M1241.27 328.496L1245.67 302.736L1236.88 302.736L1241.27 328.496Z" fill="#D9D9D9" fill-opacity="0.3"/>
<path d="M1245.08 303.236L1237.47 303.236L1241.27 325.528L1245.08 303.236Z" stroke="#00BFFF" stroke-opacity="0.4"/>
</g>
<g id="Polygon 2_4">
<path d="M1242.18 271.24L1235.9 296.607L1244.68 297.253L1242.18 271.24Z" fill="#D9D9D9" fill-opacity="0.3"/>
<path d="M1236.53 296.152L1244.12 296.711L1241.97 274.2L1236.53 296.152Z" stroke="#00BFFF" stroke-opacity="0.4"/>
</g>
<g id="Polygon 6_4">
<path d="M1243.1 266.862L1235.29 297.781L1243.21 298.752L1243.1 266.862Z" fill="#D9D9D9" fill-opacity="0.3"/>
<path d="M1235.92 297.354L1242.71 298.187L1242.62 270.829L1235.92 297.354Z" stroke="#00BFFF" stroke-opacity="0.4"/>
</g>
<g id="Polygon 13_4">
<path d="M1245.27 328.966L1249.66 303.206L1240.87 303.206L1245.27 328.966Z" fill="#D9D9D9" fill-opacity="0.3"/>
<path d="M1249.07 303.706L1241.46 303.706L1245.27 325.997L1249.07 303.706Z" stroke="#00BFFF" stroke-opacity="0.4"/>
</g>
<g id="Polygon 5_4">
<path d="M1243.6 265.925L1238.1 291.472L1246.88 291.85L1243.6 265.925Z" fill="#D9D9D9" fill-opacity="0.3"/>
<path d="M1238.71 290.998L1246.31 291.325L1243.47 268.891L1238.71 290.998Z" stroke="#00BFFF" stroke-opacity="0.4"/>
</g>
<g id="Polygon 14_4">
<path d="M1248.93 328.467L1251.74 295.637L1246.7 295.592L1248.93 328.467Z" fill="#D9D9D9" fill-opacity="0.3"/>
<path d="M1251.19 296.132L1247.23 296.097L1248.99 321.922L1251.19 296.132Z" stroke="#00BFFF" stroke-opacity="0.4"/>
</g>
<g id="Polygon 15_4">
<path d="M1242.47 326.569L1253.48 302.87L1244.99 300.558L1242.47 326.569Z" fill="#D9D9D9" fill-opacity="0.3"/>
<path d="M1252.78 303.197L1245.43 301.197L1243.25 323.704L1252.78 303.197Z" stroke="#00BFFF" stroke-opacity="0.4"/>
</g>
<g id="Polygon 3_4">
<path d="M1245.64 269.965L1241.83 295.818L1250.62 295.618L1245.64 269.965Z" fill="#D9D9D9" fill-opacity="0.3"/>
<path d="M1242.41 295.305L1250.02 295.131L1245.71 272.933L1242.41 295.305Z" stroke="#00BFFF" stroke-opacity="0.4"/>
</g>
<g id="Polygon 16_4">
<path d="M1242.98 326.149L1244.89 304.757L1237.94 305.274L1242.98 326.149Z" fill="#D9D9D9" fill-opacity="0.3"/>
<path d="M1244.34 305.299L1238.56 305.729L1242.76 323.08L1244.34 305.299Z" stroke="#00BFFF" stroke-opacity="0.4"/>
</g>
<g id="Polygon 7_4">
<path d="M1248.44 311.699L1252.56 285.893L1243.76 285.988L1248.44 311.699Z" fill="#D9D9D9" fill-opacity="0.3"/>
<path d="M1251.97 286.399L1244.36 286.482L1248.4 308.73L1251.97 286.399Z" stroke="#00BFFF" stroke-opacity="0.4"/>
</g>
<g id="Polygon 21_4">
<path d="M1248.07 309.35L1252.2 283.28L1243.38 283.376L1248.07 309.35Z" fill="#D9D9D9" fill-opacity="0.3"/>
<path d="M1251.61 283.786L1243.98 283.869L1248.04 306.356L1251.61 283.786Z" stroke="#00BFFF" stroke-opacity="0.4"/>
</g>
<g id="Polygon 17_4">
<path d="M1240.16 326.441L1244.56 300.681L1235.76 300.681L1240.16 326.441Z" fill="#D9D9D9" fill-opacity="0.3"/>
<path d="M1243.96 301.182L1236.35 301.182L1240.16 323.473L1243.96 301.182Z" stroke="#00BFFF" stroke-opacity="0.4"/>
</g>
<g id="Polygon 10_4">
<path d="M1242.8 276.477L1238.4 302.237H1247.2L1242.8 276.477Z" fill="#D9D9D9" fill-opacity="0.3"/>
<path d="M1238.99 301.737H1246.61L1242.8 279.446L1238.99 301.737Z" stroke="#00BFFF" stroke-opacity="0.4"/>
</g>
<g id="Polygon 18_4">
<path d="M1243.45 322.155L1247.84 296.395L1239.05 296.395L1243.45 322.155Z" fill="#D9D9D9" fill-opacity="0.3"/>
<path d="M1247.25 296.896L1239.64 296.896L1243.45 319.187L1247.25 296.896Z" stroke="#00BFFF" stroke-opacity="0.4"/>
</g>
<g id="Polygon 9_4">
<path d="M1239.75 275.546L1234.72 301.189L1243.51 301.407L1239.75 275.546Z" fill="#D9D9D9" fill-opacity="0.3"/>
<path d="M1235.32 300.704L1242.93 300.892L1239.68 278.514L1235.32 300.704Z" stroke="#00BFFF" stroke-opacity="0.4"/>
</g>
<g id="Polygon 19_4">
<path d="M1245.35 334.153L1243.96 306.011L1235.35 307.812L1245.35 334.153Z" fill="#D9D9D9" fill-opacity="0.3"/>
<path d="M1243.49 306.621L1236.03 308.182L1244.7 331.02L1243.49 306.621Z" stroke="#00BFFF" stroke-opacity="0.4"/>
</g>
<g id="Polygon 4_4">
<path d="M1246.37 273.498L1244.39 299.555L1253.14 298.739L1246.37 273.498Z" fill="#D9D9D9" fill-opacity="0.3"/>
<path d="M1244.93 299.002L1252.51 298.296L1246.65 276.454L1244.93 299.002Z" stroke="#00BFFF" stroke-opacity="0.4"/>
</g>
<g id="Polygon 20_4">
<path d="M1240.16 326.176L1243.32 300.234L1234.54 300.656L1240.16 326.176Z" fill="#D9D9D9" fill-opacity="0.3"/>
<path d="M1242.76 300.762L1235.15 301.127L1240.02 323.21L1242.76 300.762Z" stroke="#00BFFF" stroke-opacity="0.4"/>
</g>
<g id="Polygon 8_4">
<path d="M1242.86 273.366L1238.46 299.125H1247.26L1242.86 273.366Z" fill="#D9D9D9" fill-opacity="0.3"/>
<path d="M1239.05 298.625H1246.67L1242.86 276.334L1239.05 298.625Z" stroke="#00BFFF" stroke-opacity="0.4"/>
</g>
<g id="Polygon 12_4">
<path d="M1247.85 323.078L1254.1 297.702L1245.32 297.068L1247.85 323.078Z" fill="#D9D9D9" fill-opacity="0.3"/>
<path d="M1253.47 298.159L1245.88 297.61L1248.07 320.117L1253.47 298.159Z" stroke="#00BFFF" stroke-opacity="0.4"/>
</g>
</g>
</g>
<g id="&#227;&#131;&#136;&#227;&#131;&#131;&#227;&#131;&#151;&#227;&#131;&#158;&#227;&#130;&#185;&#227;&#131;&#136;">
<g id="Group 5_5">
<path id="Polygon 22_5" d="M133.471 547.571L121.559 549.781L118.617 554.748L126.861 558.732H140.082L148.325 554.748L145.383 549.781L133.471 547.571Z" fill="#F0FEFF" fill-opacity="0.4"/>
<path id="Polygon 23_5" d="M133.5 543.578L121.382 545.822L118.389 550.863L126.775 554.907H140.226L148.612 550.863L145.619 545.822L133.5 543.578Z" fill="#F0FEFF" fill-opacity="0.4"/>
</g>
<g id="Group 2_5">
<g id="Polygon 1_5">
<path d="M132.975 486.5L128.577 510.499H137.374L132.975 486.5Z" fill="#D9D9D9" fill-opacity="0.3"/>
<path d="M129.177 509.999H136.774L132.976 489.272L129.177 509.999Z" stroke="#00BFFF" stroke-opacity="0.4"/>
</g>
<g id="Polygon 11_5">
<path d="M130.275 550.496L134.673 524.736L125.876 524.736L130.275 550.496Z" fill="#D9D9D9" fill-opacity="0.3"/>
<path d="M134.081 525.236L126.469 525.236L130.274 547.528L134.081 525.236Z" stroke="#00BFFF" stroke-opacity="0.4"/>
</g>
<g id="Polygon 2_5">
<path d="M131.184 493.24L124.905 518.607L133.678 519.253L131.184 493.24Z" fill="#D9D9D9" fill-opacity="0.3"/>
<path d="M125.533 518.152L133.124 518.711L130.966 496.2L125.533 518.152Z" stroke="#00BFFF" stroke-opacity="0.4"/>
</g>
<g id="Polygon 6_5">
<path d="M132.105 488.862L124.294 519.781L132.213 520.752L132.105 488.862Z" fill="#D9D9D9" fill-opacity="0.3"/>
<path d="M124.918 519.354L131.711 520.187L131.618 492.829L124.918 519.354Z" stroke="#00BFFF" stroke-opacity="0.4"/>
</g>
<g id="Polygon 13_5">
<path d="M134.267 550.966L138.665 525.206L129.869 525.206L134.267 550.966Z" fill="#D9D9D9" fill-opacity="0.3"/>
<path d="M138.073 525.706L130.461 525.706L134.267 547.997L138.073 525.706Z" stroke="#00BFFF" stroke-opacity="0.4"/>
</g>
<g id="Polygon 5_5">
<path d="M132.599 487.925L127.096 513.472L135.885 513.85L132.599 487.925Z" fill="#D9D9D9" fill-opacity="0.3"/>
<path d="M127.709 512.998L135.315 513.325L132.472 490.891L127.709 512.998Z" stroke="#00BFFF" stroke-opacity="0.4"/>
</g>
<g id="Polygon 14_5">
<path d="M137.928 550.467L140.738 517.637L135.701 517.592L137.928 550.467Z" fill="#D9D9D9" fill-opacity="0.3"/>
<path d="M140.194 518.132L136.235 518.097L137.986 543.922L140.194 518.132Z" stroke="#00BFFF" stroke-opacity="0.4"/>
</g>
<g id="Polygon 15_5">
<path d="M131.469 548.569L142.481 524.87L133.993 522.558L131.469 548.569Z" fill="#D9D9D9" fill-opacity="0.3"/>
<path d="M141.778 525.197L134.433 523.197L132.248 545.704L141.778 525.197Z" stroke="#00BFFF" stroke-opacity="0.4"/>
</g>
<g id="Polygon 3_5">
<path d="M134.639 491.965L130.829 517.818L139.623 517.618L134.639 491.965Z" fill="#D9D9D9" fill-opacity="0.3"/>
<path d="M131.41 517.305L139.02 517.131L134.707 494.933L131.41 517.305Z" stroke="#00BFFF" stroke-opacity="0.4"/>
</g>
<g id="Polygon 16_5">
<path d="M131.984 548.149L133.891 526.757L126.936 527.274L131.984 548.149Z" fill="#D9D9D9" fill-opacity="0.3"/>
<path d="M133.34 527.299L127.561 527.729L131.756 545.08L133.34 527.299Z" stroke="#00BFFF" stroke-opacity="0.4"/>
</g>
<g id="Polygon 7_5">
<path d="M137.438 533.699L141.556 507.893L132.76 507.988L137.438 533.699Z" fill="#D9D9D9" fill-opacity="0.3"/>
<path d="M140.969 508.399L133.357 508.482L137.405 530.73L140.969 508.399Z" stroke="#00BFFF" stroke-opacity="0.4"/>
</g>
<g id="Polygon 21_5">
<path d="M137.073 531.35L141.199 505.28L132.381 505.376L137.073 531.35Z" fill="#D9D9D9" fill-opacity="0.3"/>
<path d="M140.613 505.786L132.978 505.869L137.04 528.356L140.613 505.786Z" stroke="#00BFFF" stroke-opacity="0.4"/>
</g>
<g id="Polygon 17_5">
<path d="M129.159 548.441L133.557 522.681L124.761 522.681L129.159 548.441Z" fill="#D9D9D9" fill-opacity="0.3"/>
<path d="M132.965 523.182L125.353 523.182L129.159 545.473L132.965 523.182Z" stroke="#00BFFF" stroke-opacity="0.4"/>
</g>
<g id="Polygon 10_5">
<path d="M131.801 498.477L127.403 524.237H136.199L131.801 498.477Z" fill="#D9D9D9" fill-opacity="0.3"/>
<path d="M127.995 523.737H135.607L131.802 501.446L127.995 523.737Z" stroke="#00BFFF" stroke-opacity="0.4"/>
</g>
<g id="Polygon 18_5">
<path d="M132.447 544.155L136.845 518.395L128.049 518.395L132.447 544.155Z" fill="#D9D9D9" fill-opacity="0.3"/>
<path d="M136.253 518.896L128.641 518.896L132.447 541.187L136.253 518.896Z" stroke="#00BFFF" stroke-opacity="0.4"/>
</g>
<g id="Polygon 9_5">
<path d="M128.75 497.546L123.716 523.189L132.51 523.407L128.75 497.546Z" fill="#D9D9D9" fill-opacity="0.3"/>
<path d="M124.32 522.704L131.93 522.892L128.677 500.514L124.32 522.704Z" stroke="#00BFFF" stroke-opacity="0.4"/>
</g>
<g id="Polygon 19_5">
<path d="M134.352 556.153L132.962 528.011L124.352 529.812L134.352 556.153Z" fill="#D9D9D9" fill-opacity="0.3"/>
<path d="M132.492 528.621L125.027 530.182L133.697 553.02L132.492 528.621Z" stroke="#00BFFF" stroke-opacity="0.4"/>
</g>
<g id="Polygon 4_5">
<path d="M135.373 495.498L133.386 521.555L142.144 520.739L135.373 495.498Z" fill="#D9D9D9" fill-opacity="0.3"/>
<path d="M133.929 521.002L141.508 520.296L135.649 498.454L133.929 521.002Z" stroke="#00BFFF" stroke-opacity="0.4"/>
</g>
<g id="Polygon 20_5">
<path d="M129.165 548.176L132.324 522.234L123.537 522.656L129.165 548.176Z" fill="#D9D9D9" fill-opacity="0.3"/>
<path d="M131.756 522.762L124.153 523.127L129.022 545.21L131.756 522.762Z" stroke="#00BFFF" stroke-opacity="0.4"/>
</g>
<g id="Polygon 8_5">
<path d="M131.86 495.366L127.462 521.126H136.258L131.86 495.366Z" fill="#D9D9D9" fill-opacity="0.3"/>
<path d="M128.054 520.625H135.666L131.86 498.334L128.054 520.625Z" stroke="#00BFFF" stroke-opacity="0.4"/>
</g>
<g id="Polygon 12_5">
<path d="M136.852 545.078L143.097 519.702L134.323 519.068L136.852 545.078Z" fill="#D9D9D9" fill-opacity="0.3"/>
<path d="M142.47 520.159L134.878 519.61L137.066 542.117L142.47 520.159Z" stroke="#00BFFF" stroke-opacity="0.4"/>
</g>
</g>
</g>
<g id="&#227;&#131;&#159;&#227;&#130;&#185;&#227;&#131;&#136;&#227;&#130;&#178;&#227;&#131;&#188;&#227;&#131;&#136;&#227;&#131;&#187;&#227;&#130;&#185;&#227;&#130;&#175;&#227;&#130;&#168;&#227;&#130;&#162;">
<g id="Group 5_6">
<path id="Polygon 22_6" d="M831.471 279.571L819.559 281.781L816.617 286.748L824.86 290.732H838.081L846.324 286.748L843.382 281.781L831.471 279.571Z" fill="#F0FEFF" fill-opacity="0.4"/>
<path id="Polygon 23_6" d="M831.5 275.578L819.382 277.822L816.389 282.863L824.775 286.907H838.225L846.611 282.863L843.618 277.822L831.5 275.578Z" fill="#F0FEFF" fill-opacity="0.4"/>
</g>
<g id="Group 2_6">
<g id="Polygon 1_6">
<path d="M830.975 218.5L826.577 242.499H835.373L830.975 218.5Z" fill="#D9D9D9" fill-opacity="0.3"/>
<path d="M827.177 241.999H834.773L830.975 221.272L827.177 241.999Z" stroke="#00BFFF" stroke-opacity="0.4"/>
</g>
<g id="Polygon 11_6">
<path d="M828.274 282.496L832.672 256.736L823.876 256.736L828.274 282.496Z" fill="#D9D9D9" fill-opacity="0.3"/>
<path d="M832.08 257.236L824.468 257.236L828.274 279.527L832.08 257.236Z" stroke="#00BFFF" stroke-opacity="0.4"/>
</g>
<g id="Polygon 2_6">
<path d="M829.183 225.24L822.905 250.607L831.678 251.253L829.183 225.24Z" fill="#D9D9D9" fill-opacity="0.3"/>
<path d="M823.532 250.152L831.124 250.711L828.966 228.2L823.532 250.152Z" stroke="#00BFFF" stroke-opacity="0.4"/>
</g>
<g id="Polygon 6_6">
<path d="M830.104 220.862L822.293 251.781L830.212 252.752L830.104 220.862Z" fill="#D9D9D9" fill-opacity="0.3"/>
<path d="M822.917 251.354L829.71 252.187L829.618 224.829L822.917 251.354Z" stroke="#00BFFF" stroke-opacity="0.4"/>
</g>
<g id="Polygon 13_6">
<path d="M832.267 282.966L836.665 257.206L827.868 257.206L832.267 282.966Z" fill="#D9D9D9" fill-opacity="0.3"/>
<path d="M836.073 257.706L828.46 257.706L832.266 279.997L836.073 257.706Z" stroke="#00BFFF" stroke-opacity="0.4"/>
</g>
<g id="Polygon 5_6">
<path d="M830.598 219.925L825.096 245.472L833.884 245.85L830.598 219.925Z" fill="#D9D9D9" fill-opacity="0.3"/>
<path d="M825.709 244.998L833.314 245.325L830.471 222.891L825.709 244.998Z" stroke="#00BFFF" stroke-opacity="0.4"/>
</g>
<g id="Polygon 14_6">
<path d="M835.927 282.467L838.737 249.637L833.7 249.592L835.927 282.467Z" fill="#D9D9D9" fill-opacity="0.3"/>
<path d="M838.194 250.132L834.235 250.097L835.986 275.922L838.194 250.132Z" stroke="#00BFFF" stroke-opacity="0.4"/>
</g>
<g id="Polygon 15_6">
<path d="M829.468 280.569L840.48 256.87L831.993 254.558L829.468 280.569Z" fill="#D9D9D9" fill-opacity="0.3"/>
<path d="M839.777 257.197L832.433 255.197L830.248 277.704L839.777 257.197Z" stroke="#00BFFF" stroke-opacity="0.4"/>
</g>
<g id="Polygon 3_6">
<path d="M832.638 223.965L828.829 249.818L837.623 249.618L832.638 223.965Z" fill="#D9D9D9" fill-opacity="0.3"/>
<path d="M829.409 249.305L837.019 249.131L832.706 226.933L829.409 249.305Z" stroke="#00BFFF" stroke-opacity="0.4"/>
</g>
<g id="Polygon 16_6">
<path d="M829.983 280.149L831.891 258.757L824.936 259.274L829.983 280.149Z" fill="#D9D9D9" fill-opacity="0.3"/>
<path d="M831.34 259.299L825.561 259.729L829.755 277.08L831.34 259.299Z" stroke="#00BFFF" stroke-opacity="0.4"/>
</g>
<g id="Polygon 7_6">
<path d="M835.437 265.699L839.555 239.893L830.759 239.988L835.437 265.699Z" fill="#D9D9D9" fill-opacity="0.3"/>
<path d="M838.969 240.399L831.357 240.482L835.405 262.73L838.969 240.399Z" stroke="#00BFFF" stroke-opacity="0.4"/>
</g>
<g id="Polygon 21_6">
<path d="M835.073 263.35L839.198 237.28L830.381 237.376L835.073 263.35Z" fill="#D9D9D9" fill-opacity="0.3"/>
<path d="M838.612 237.786L830.978 237.869L835.04 260.356L838.612 237.786Z" stroke="#00BFFF" stroke-opacity="0.4"/>
</g>
<g id="Polygon 17_6">
<path d="M827.159 280.441L831.557 254.681L822.76 254.681L827.159 280.441Z" fill="#D9D9D9" fill-opacity="0.3"/>
<path d="M830.965 255.182L823.352 255.182L827.158 277.473L830.965 255.182Z" stroke="#00BFFF" stroke-opacity="0.4"/>
</g>
<g id="Polygon 10_6">
<path d="M829.801 230.477L825.402 256.237H834.199L829.801 230.477Z" fill="#D9D9D9" fill-opacity="0.3"/>
<path d="M825.995 255.737H833.607L829.801 233.446L825.995 255.737Z" stroke="#00BFFF" stroke-opacity="0.4"/>
</g>
<g id="Polygon 18_6">
<path d="M830.447 276.155L834.845 250.395L826.048 250.395L830.447 276.155Z" fill="#D9D9D9" fill-opacity="0.3"/>
<path d="M834.253 250.896L826.64 250.896L830.446 273.187L834.253 250.896Z" stroke="#00BFFF" stroke-opacity="0.4"/>
</g>
<g id="Polygon 9_6">
<path d="M826.749 229.546L821.715 255.189L830.509 255.407L826.749 229.546Z" fill="#D9D9D9" fill-opacity="0.3"/>
<path d="M822.32 254.704L829.93 254.892L826.676 232.514L822.32 254.704Z" stroke="#00BFFF" stroke-opacity="0.4"/>
</g>
<g id="Polygon 19_6">
<path d="M832.352 288.153L830.962 260.011L822.351 261.812L832.352 288.153Z" fill="#D9D9D9" fill-opacity="0.3"/>
<path d="M830.491 260.621L823.027 262.182L831.696 285.02L830.491 260.621Z" stroke="#00BFFF" stroke-opacity="0.4"/>
</g>
<g id="Polygon 4_6">
<path d="M833.373 227.498L831.385 253.555L840.144 252.739L833.373 227.498Z" fill="#D9D9D9" fill-opacity="0.3"/>
<path d="M831.928 253.002L839.508 252.296L833.649 230.454L831.928 253.002Z" stroke="#00BFFF" stroke-opacity="0.4"/>
</g>
<g id="Polygon 20_6">
<path d="M827.164 280.176L830.323 254.234L821.537 254.656L827.164 280.176Z" fill="#D9D9D9" fill-opacity="0.3"/>
<path d="M829.756 254.762L822.152 255.127L827.022 277.21L829.756 254.762Z" stroke="#00BFFF" stroke-opacity="0.4"/>
</g>
<g id="Polygon 8_6">
<path d="M829.859 227.366L825.461 253.125H834.258L829.859 227.366Z" fill="#D9D9D9" fill-opacity="0.3"/>
<path d="M826.053 252.625H833.666L829.86 230.334L826.053 252.625Z" stroke="#00BFFF" stroke-opacity="0.4"/>
</g>
<g id="Polygon 12_6">
<path d="M834.852 277.078L841.096 251.702L832.323 251.068L834.852 277.078Z" fill="#D9D9D9" fill-opacity="0.3"/>
<path d="M840.47 252.159L832.877 251.61L835.065 274.117L840.47 252.159Z" stroke="#00BFFF" stroke-opacity="0.4"/>
</g>
</g>
</g>
<g id="&#227;&#131;&#159;&#227;&#130;&#185;&#227;&#131;&#136;&#227;&#131;&#187;&#227;&#131;&#180;&#227;&#130;&#163;&#227;&#131;&#172;&#227;&#131;&#131;&#227;&#130;&#184;&#229;&#141;&#151;">
<g id="Group 5_7">
<path id="Polygon 22_7" d="M569.471 1007.57L557.559 1009.78L554.617 1014.75L562.86 1018.73H576.081L584.325 1014.75L581.383 1009.78L569.471 1007.57Z" fill="#F0FEFF" fill-opacity="0.4"/>
<path id="Polygon 23_7" d="M569.5 1003.58L557.382 1005.82L554.389 1010.86L562.775 1014.91H576.225L584.612 1010.86L581.619 1005.82L569.5 1003.58Z" fill="#F0FEFF" fill-opacity="0.4"/>
</g>
<g id="Group 2_7">
<g id="Polygon 1_7">
<path d="M568.975 946.5L564.577 970.499H573.373L568.975 946.5Z" fill="#D9D9D9" fill-opacity="0.3"/>
<path d="M565.177 969.999H572.773L568.976 949.272L565.177 969.999Z" stroke="#00BFFF" stroke-opacity="0.4"/>
</g>
<g id="Polygon 11_7">
<path d="M566.274 1010.5L570.672 984.736L561.876 984.736L566.274 1010.5Z" fill="#D9D9D9" fill-opacity="0.3"/>
<path d="M570.08 985.237L562.468 985.237L566.274 1007.53L570.08 985.237Z" stroke="#00BFFF" stroke-opacity="0.4"/>
</g>
<g id="Polygon 2_7">
<path d="M567.183 953.24L560.905 978.607L569.678 979.253L567.183 953.24Z" fill="#D9D9D9" fill-opacity="0.3"/>
<path d="M561.532 978.152L569.124 978.711L566.966 956.2L561.532 978.152Z" stroke="#00BFFF" stroke-opacity="0.4"/>
</g>
<g id="Polygon 6_7">
<path d="M568.105 948.862L560.294 979.781L568.212 980.752L568.105 948.862Z" fill="#D9D9D9" fill-opacity="0.3"/>
<path d="M560.917 979.354L567.71 980.187L567.618 952.829L560.917 979.354Z" stroke="#00BFFF" stroke-opacity="0.4"/>
</g>
<g id="Polygon 13_7">
<path d="M570.267 1010.97L574.665 985.206L565.869 985.206L570.267 1010.97Z" fill="#D9D9D9" fill-opacity="0.3"/>
<path d="M574.073 985.706L566.461 985.706L570.266 1008L574.073 985.706Z" stroke="#00BFFF" stroke-opacity="0.4"/>
</g>
<g id="Polygon 5_7">
<path d="M568.598 947.925L563.096 973.472L571.884 973.85L568.598 947.925Z" fill="#D9D9D9" fill-opacity="0.3"/>
<path d="M563.709 972.998L571.314 973.325L568.471 950.891L563.709 972.998Z" stroke="#00BFFF" stroke-opacity="0.4"/>
</g>
<g id="Polygon 14_7">
<path d="M573.928 1010.47L576.737 977.637L571.7 977.592L573.928 1010.47Z" fill="#D9D9D9" fill-opacity="0.3"/>
<path d="M576.194 978.132L572.235 978.097L573.986 1003.92L576.194 978.132Z" stroke="#00BFFF" stroke-opacity="0.4"/>
</g>
<g id="Polygon 15_7">
<path d="M567.468 1008.57L578.48 984.87L569.993 982.558L567.468 1008.57Z" fill="#D9D9D9" fill-opacity="0.3"/>
<path d="M577.778 985.197L570.433 983.197L568.248 1005.7L577.778 985.197Z" stroke="#00BFFF" stroke-opacity="0.4"/>
</g>
<g id="Polygon 3_7">
<path d="M570.638 951.965L566.829 977.818L575.623 977.618L570.638 951.965Z" fill="#D9D9D9" fill-opacity="0.3"/>
<path d="M567.409 977.305L575.019 977.131L570.707 954.933L567.409 977.305Z" stroke="#00BFFF" stroke-opacity="0.4"/>
</g>
<g id="Polygon 16_7">
<path d="M567.983 1008.15L569.891 986.757L562.936 987.274L567.983 1008.15Z" fill="#D9D9D9" fill-opacity="0.3"/>
<path d="M569.34 987.299L563.561 987.729L567.756 1005.08L569.34 987.299Z" stroke="#00BFFF" stroke-opacity="0.4"/>
</g>
<g id="Polygon 7_7">
<path d="M573.437 993.699L577.555 967.893L568.76 967.988L573.437 993.699Z" fill="#D9D9D9" fill-opacity="0.3"/>
<path d="M576.969 968.399L569.357 968.482L573.405 990.73L576.969 968.399Z" stroke="#00BFFF" stroke-opacity="0.4"/>
</g>
<g id="Polygon 21_7">
<path d="M573.073 991.35L577.199 965.28L568.381 965.376L573.073 991.35Z" fill="#D9D9D9" fill-opacity="0.3"/>
<path d="M576.612 965.786L568.978 965.869L573.04 988.356L576.612 965.786Z" stroke="#00BFFF" stroke-opacity="0.4"/>
</g>
<g id="Polygon 17_7">
<path d="M565.159 1008.44L569.557 982.681L560.761 982.681L565.159 1008.44Z" fill="#D9D9D9" fill-opacity="0.3"/>
<path d="M568.965 983.182L561.353 983.182L565.158 1005.47L568.965 983.182Z" stroke="#00BFFF" stroke-opacity="0.4"/>
</g>
<g id="Polygon 10_7">
<path d="M567.801 958.477L563.403 984.237H572.199L567.801 958.477Z" fill="#D9D9D9" fill-opacity="0.3"/>
<path d="M563.995 983.737H571.607L567.801 961.446L563.995 983.737Z" stroke="#00BFFF" stroke-opacity="0.4"/>
</g>
<g id="Polygon 18_7">
<path d="M568.447 1004.16L572.845 978.395L564.049 978.395L568.447 1004.16Z" fill="#D9D9D9" fill-opacity="0.3"/>
<path d="M572.253 978.896L564.641 978.896L568.446 1001.19L572.253 978.896Z" stroke="#00BFFF" stroke-opacity="0.4"/>
</g>
<g id="Polygon 9_7">
<path d="M564.749 957.546L559.716 983.189L568.509 983.407L564.749 957.546Z" fill="#D9D9D9" fill-opacity="0.3"/>
<path d="M560.32 982.704L567.93 982.892L564.676 960.514L560.32 982.704Z" stroke="#00BFFF" stroke-opacity="0.4"/>
</g>
<g id="Polygon 19_7">
<path d="M570.352 1016.15L568.962 988.011L560.352 989.812L570.352 1016.15Z" fill="#D9D9D9" fill-opacity="0.3"/>
<path d="M568.491 988.621L561.027 990.182L569.696 1013.02L568.491 988.621Z" stroke="#00BFFF" stroke-opacity="0.4"/>
</g>
<g id="Polygon 4_7">
<path d="M571.373 955.498L569.386 981.555L578.144 980.739L571.373 955.498Z" fill="#D9D9D9" fill-opacity="0.3"/>
<path d="M569.929 981.002L577.508 980.296L571.649 958.454L569.929 981.002Z" stroke="#00BFFF" stroke-opacity="0.4"/>
</g>
<g id="Polygon 20_7">
<path d="M565.165 1008.18L568.323 982.234L559.537 982.656L565.165 1008.18Z" fill="#D9D9D9" fill-opacity="0.3"/>
<path d="M567.756 982.762L560.152 983.127L565.022 1005.21L567.756 982.762Z" stroke="#00BFFF" stroke-opacity="0.4"/>
</g>
<g id="Polygon 8_7">
<path d="M567.86 955.366L563.461 981.125H572.258L567.86 955.366Z" fill="#D9D9D9" fill-opacity="0.3"/>
<path d="M564.053 980.625H571.666L567.86 958.334L564.053 980.625Z" stroke="#00BFFF" stroke-opacity="0.4"/>
</g>
<g id="Polygon 12_7">
<path d="M572.852 1005.08L579.097 979.702L570.323 979.068L572.852 1005.08Z" fill="#D9D9D9" fill-opacity="0.3"/>
<path d="M578.47 980.159L570.878 979.609L573.065 1002.12L578.47 980.159Z" stroke="#00BFFF" stroke-opacity="0.4"/>
</g>
</g>
</g>
<g id="&#227;&#131;&#159;&#227;&#130;&#185;&#227;&#131;&#136;&#227;&#131;&#187;&#227;&#131;&#180;&#227;&#130;&#163;&#227;&#131;&#172;&#227;&#131;&#131;&#227;&#130;&#184;&#229;&#140;&#151;&#232;&#165;&#191;">
<g id="Group 5_8">
<path id="Polygon 22_8" d="M349.471 383.571L337.559 385.781L334.617 390.748L342.861 394.732H356.082L364.325 390.748L361.383 385.781L349.471 383.571Z" fill="#F0FEFF" fill-opacity="0.4"/>
<path id="Polygon 23_8" d="M349.5 379.578L337.382 381.822L334.389 386.863L342.775 390.907H356.226L364.612 386.863L361.619 381.822L349.5 379.578Z" fill="#F0FEFF" fill-opacity="0.4"/>
</g>
<g id="Group 2_8">
<g id="Polygon 1_8">
<path d="M348.975 322.5L344.577 346.499H353.374L348.975 322.5Z" fill="#D9D9D9" fill-opacity="0.3"/>
<path d="M345.177 345.999H352.774L348.976 325.272L345.177 345.999Z" stroke="#00BFFF" stroke-opacity="0.4"/>
</g>
<g id="Polygon 11_8">
<path d="M346.275 386.496L350.673 360.736L341.876 360.736L346.275 386.496Z" fill="#D9D9D9" fill-opacity="0.3"/>
<path d="M350.081 361.236L342.469 361.236L346.274 383.528L350.081 361.236Z" stroke="#00BFFF" stroke-opacity="0.4"/>
</g>
<g id="Polygon 2_8">
<path d="M347.184 329.24L340.905 354.607L349.678 355.253L347.184 329.24Z" fill="#D9D9D9" fill-opacity="0.3"/>
<path d="M341.533 354.152L349.124 354.711L346.966 332.2L341.533 354.152Z" stroke="#00BFFF" stroke-opacity="0.4"/>
</g>
<g id="Polygon 6_8">
<path d="M348.105 324.862L340.294 355.781L348.213 356.752L348.105 324.862Z" fill="#D9D9D9" fill-opacity="0.3"/>
<path d="M340.918 355.354L347.71 356.187L347.618 328.829L340.918 355.354Z" stroke="#00BFFF" stroke-opacity="0.4"/>
</g>
<g id="Polygon 13_8">
<path d="M350.267 386.966L354.665 361.206L345.869 361.206L350.267 386.966Z" fill="#D9D9D9" fill-opacity="0.3"/>
<path d="M354.073 361.706L346.461 361.706L350.267 383.997L354.073 361.706Z" stroke="#00BFFF" stroke-opacity="0.4"/>
</g>
<g id="Polygon 5_8">
<path d="M348.599 323.925L343.096 349.472L351.885 349.85L348.599 323.925Z" fill="#D9D9D9" fill-opacity="0.3"/>
<path d="M343.709 348.998L351.315 349.325L348.472 326.891L343.709 348.998Z" stroke="#00BFFF" stroke-opacity="0.4"/>
</g>
<g id="Polygon 14_8">
<path d="M353.928 386.467L356.738 353.637L351.701 353.592L353.928 386.467Z" fill="#D9D9D9" fill-opacity="0.3"/>
<path d="M356.194 354.132L352.235 354.097L353.986 379.922L356.194 354.132Z" stroke="#00BFFF" stroke-opacity="0.4"/>
</g>
<g id="Polygon 15_8">
<path d="M347.469 384.569L358.481 360.87L349.993 358.558L347.469 384.569Z" fill="#D9D9D9" fill-opacity="0.3"/>
<path d="M357.778 361.197L350.433 359.197L348.248 381.704L357.778 361.197Z" stroke="#00BFFF" stroke-opacity="0.4"/>
</g>
<g id="Polygon 3_8">
<path d="M350.639 327.965L346.829 353.818L355.623 353.618L350.639 327.965Z" fill="#D9D9D9" fill-opacity="0.3"/>
<path d="M347.41 353.305L355.02 353.131L350.707 330.933L347.41 353.305Z" stroke="#00BFFF" stroke-opacity="0.4"/>
</g>
<g id="Polygon 16_8">
<path d="M347.984 384.149L349.891 362.757L342.936 363.274L347.984 384.149Z" fill="#D9D9D9" fill-opacity="0.3"/>
<path d="M349.34 363.299L343.561 363.729L347.756 381.08L349.34 363.299Z" stroke="#00BFFF" stroke-opacity="0.4"/>
</g>
<g id="Polygon 7_8">
<path d="M353.438 369.699L357.556 343.893L348.76 343.988L353.438 369.699Z" fill="#D9D9D9" fill-opacity="0.3"/>
<path d="M356.969 344.399L349.357 344.482L353.405 366.73L356.969 344.399Z" stroke="#00BFFF" stroke-opacity="0.4"/>
</g>
<g id="Polygon 21_8">
<path d="M353.073 367.35L357.199 341.28L348.381 341.376L353.073 367.35Z" fill="#D9D9D9" fill-opacity="0.3"/>
<path d="M356.613 341.786L348.978 341.869L353.04 364.356L356.613 341.786Z" stroke="#00BFFF" stroke-opacity="0.4"/>
</g>
<g id="Polygon 17_8">
<path d="M345.159 384.441L349.557 358.681L340.761 358.681L345.159 384.441Z" fill="#D9D9D9" fill-opacity="0.3"/>
<path d="M348.965 359.182L341.353 359.182L345.159 381.473L348.965 359.182Z" stroke="#00BFFF" stroke-opacity="0.4"/>
</g>
<g id="Polygon 10_8">
<path d="M347.801 334.477L343.403 360.237H352.199L347.801 334.477Z" fill="#D9D9D9" fill-opacity="0.3"/>
<path d="M343.995 359.737H351.607L347.802 337.446L343.995 359.737Z" stroke="#00BFFF" stroke-opacity="0.4"/>
</g>
<g id="Polygon 18_8">
<path d="M348.447 380.155L352.845 354.395L344.049 354.395L348.447 380.155Z" fill="#D9D9D9" fill-opacity="0.3"/>
<path d="M352.253 354.896L344.641 354.896L348.447 377.187L352.253 354.896Z" stroke="#00BFFF" stroke-opacity="0.4"/>
</g>
<g id="Polygon 9_8">
<path d="M344.75 333.546L339.716 359.189L348.51 359.407L344.75 333.546Z" fill="#D9D9D9" fill-opacity="0.3"/>
<path d="M340.32 358.704L347.93 358.892L344.677 336.514L340.32 358.704Z" stroke="#00BFFF" stroke-opacity="0.4"/>
</g>
<g id="Polygon 19_8">
<path d="M350.352 392.153L348.962 364.011L340.352 365.812L350.352 392.153Z" fill="#D9D9D9" fill-opacity="0.3"/>
<path d="M348.492 364.621L341.027 366.182L349.697 389.02L348.492 364.621Z" stroke="#00BFFF" stroke-opacity="0.4"/>
</g>
<g id="Polygon 4_8">
<path d="M351.373 331.498L349.386 357.555L358.144 356.739L351.373 331.498Z" fill="#D9D9D9" fill-opacity="0.3"/>
<path d="M349.929 357.002L357.508 356.296L351.649 334.454L349.929 357.002Z" stroke="#00BFFF" stroke-opacity="0.4"/>
</g>
<g id="Polygon 20_8">
<path d="M345.165 384.176L348.324 358.234L339.537 358.656L345.165 384.176Z" fill="#D9D9D9" fill-opacity="0.3"/>
<path d="M347.756 358.762L340.153 359.127L345.022 381.21L347.756 358.762Z" stroke="#00BFFF" stroke-opacity="0.4"/>
</g>
<g id="Polygon 8_8">
<path d="M347.86 331.366L343.462 357.126H352.258L347.86 331.366Z" fill="#D9D9D9" fill-opacity="0.3"/>
<path d="M344.054 356.625H351.666L347.86 334.334L344.054 356.625Z" stroke="#00BFFF" stroke-opacity="0.4"/>
</g>
<g id="Polygon 12_8">
<path d="M352.852 381.078L359.097 355.702L350.323 355.068L352.852 381.078Z" fill="#D9D9D9" fill-opacity="0.3"/>
<path d="M358.47 356.159L350.878 355.61L353.066 378.117L358.47 356.159Z" stroke="#00BFFF" stroke-opacity="0.4"/>
</g>
</g>
</g>
</g>
<path id="&#227;&#131;&#138;&#227;&#131;&#147;&#227;&#130;&#178;&#227;&#131;&#188;&#227;&#130;&#183;&#227;&#131;&#167;&#227;&#131;&#179;&#231;&#148;&#168;&#233;&#129;&#147;&#232;&#183;&#175;" d="M117.5 573.5H232M232 573.5L324 408H526.5M526.5 955.585L280.5 843L242.078 629.5L232 573.5M528.5 956.5L539.5 1009.5V1383M528.5 956.5H719L787.5 844.5H834.5M528.5 956.5L526.5 955.585M1572.5 1002.5H1548L1540 1005.5V1100.5L1492 1139.5L1341.5 1223H1323.5L1320.5 1145.5H1293.5L1288.5 1192L1234.5 1194.5L1106 1059.5L958.5 989L906.012 890.5L881.5 844.5H834.5M1492 1139.5L1462.5 842M1572.5 1002.5V1139.5L1582.5 1143H1651.5M1572.5 1002.5H1697.5M1812.5 1002.5H1697.5M1697.5 1002.5V848L1688.5 844.5H1669L1661.5 838.5V742.5L1655 735H1632L1625.5 742.5V835.5L1616.5 842H1462.5M1462.5 842L1457.5 805L1266.5 801.5L1263.5 733.5M1263.5 733.5L1293 595.5L1395.5 572.5L1456.5 486L1339 351.5H1223H1218L1092.5 432.5H999.5M1263.5 733.5L1092.5 732.5L973 802L906.012 890.5M906.5 432.5V292L899.5 287L804.5 273M906.5 432.5H999.5M906.5 432.5H788M804.5 273V9.5M804.5 273L690 277.5L684 305.5L594.5 310.5V408M594.5 408H526.5M594.5 408V432.5H788M242.078 629.5H526.5M526.5 629.5V408M526.5 629.5V643.5M526.5 955.585V643.5M526.5 643.5H788M835 643.5L893.5 607H983.5L995.5 599.5L999.5 432.5M835 643.5H788M835 643.5L834.5 844.5M788 643.5V432.5" stroke="#FF0000"/>
<g id="Node">
<path id="node_19" d="M525.5 930C537.63 930 547.5 940.277 547.5 953C547.5 965.723 537.63 976 525.5 976C513.37 976 503.5 965.723 503.5 953C503.5 940.277 513.37 930 525.5 930Z" stroke="#FF0000"/>
<path id="node_18" d="M525.5 607C537.63 607 547.5 617.277 547.5 630C547.5 642.723 537.63 653 525.5 653C513.37 653 503.5 642.723 503.5 630C503.5 617.277 513.37 607 525.5 607Z" stroke="#FF0000"/>
<path id="node_17" d="M245.5 605C257.63 605 267.5 615.277 267.5 628C267.5 640.723 257.63 651 245.5 651C233.37 651 223.5 640.723 223.5 628C223.5 615.277 233.37 605 245.5 605Z" stroke="#FF0000"/>
<path id="node_16" d="M233.5 553C245.63 553 255.5 563.277 255.5 576C255.5 588.723 245.63 599 233.5 599C221.37 599 211.5 588.723 211.5 576C211.5 563.277 221.37 553 233.5 553Z" stroke="#FF0000"/>
<path id="node_15" d="M525.5 390C537.63 390 547.5 400.277 547.5 413C547.5 425.723 537.63 436 525.5 436C513.37 436 503.5 425.723 503.5 413C503.5 400.277 513.37 390 525.5 390Z" stroke="#FF0000"/>
<path id="node_14" d="M592.5 382C604.63 382 614.5 392.277 614.5 405C614.5 417.723 604.63 428 592.5 428C580.37 428 570.5 417.723 570.5 405C570.5 392.277 580.37 382 592.5 382Z" stroke="#FF0000"/>
<path id="node_13" d="M798.5 245C810.63 245 820.5 255.277 820.5 268C820.5 280.723 810.63 291 798.5 291C786.37 291 776.5 280.723 776.5 268C776.5 255.277 786.37 245 798.5 245Z" stroke="#FF0000"/>
<path id="node_12" d="M789.5 412C801.63 412 811.5 422.277 811.5 435C811.5 447.723 801.63 458 789.5 458C777.37 458 767.5 447.723 767.5 435C767.5 422.277 777.37 412 789.5 412Z" stroke="#FF0000"/>
<path id="node_11" d="M905.5 408C917.63 408 927.5 418.277 927.5 431C927.5 443.723 917.63 454 905.5 454C893.37 454 883.5 443.723 883.5 431C883.5 418.277 893.37 408 905.5 408Z" stroke="#FF0000"/>
<path id="node_10" d="M997.5 416C1009.63 416 1019.5 426.277 1019.5 439C1019.5 451.723 1009.63 462 997.5 462C985.37 462 975.5 451.723 975.5 439C975.5 426.277 985.37 416 997.5 416Z" stroke="#FF0000"/>
<path id="node_9" d="M789.5 613C801.63 613 811.5 623.277 811.5 636C811.5 648.723 801.63 659 789.5 659C777.37 659 767.5 648.723 767.5 636C767.5 623.277 777.37 613 789.5 613Z" stroke="#FF0000"/>
<path id="node_8" d="M836.5 625C848.63 625 858.5 635.277 858.5 648C858.5 660.723 848.63 671 836.5 671C824.37 671 814.5 660.723 814.5 648C814.5 635.277 824.37 625 836.5 625Z" stroke="#FF0000"/>
<path id="node_7" d="M831.5 817C843.63 817 853.5 827.277 853.5 840C853.5 852.723 843.63 863 831.5 863C819.37 863 809.5 852.723 809.5 840C809.5 827.277 819.37 817 831.5 817Z" stroke="#FF0000"/>
<path id="node_6" d="M907.5 863C919.63 863 929.5 873.277 929.5 886C929.5 898.723 919.63 909 907.5 909C895.37 909 885.5 898.723 885.5 886C885.5 873.277 895.37 863 907.5 863Z" stroke="#FF0000"/>
<path id="node_5" d="M1261.5 710C1273.63 710 1283.5 720.277 1283.5 733C1283.5 745.723 1273.63 756 1261.5 756C1249.37 756 1239.5 745.723 1239.5 733C1239.5 720.277 1249.37 710 1261.5 710Z" stroke="#FF0000"/>
<path id="node_4" d="M1468.5 816C1480.63 816 1490.5 826.277 1490.5 839C1490.5 851.723 1480.63 862 1468.5 862C1456.37 862 1446.5 851.723 1446.5 839C1446.5 826.277 1456.37 816 1468.5 816Z" stroke="#FF0000"/>
<path id="node_3" d="M1492.5 1111C1504.63 1111 1514.5 1121.28 1514.5 1134C1514.5 1146.72 1504.63 1157 1492.5 1157C1480.37 1157 1470.5 1146.72 1470.5 1134C1470.5 1121.28 1480.37 1111 1492.5 1111Z" stroke="#FF0000"/>
<path id="node_2" d="M1569.5 983C1581.63 983 1591.5 993.277 1591.5 1006C1591.5 1018.72 1581.63 1029 1569.5 1029C1557.37 1029 1547.5 1018.72 1547.5 1006C1547.5 993.277 1557.37 983 1569.5 983Z" stroke="#FF0000"/>
<path id="node_1" d="M1692.5 973C1704.63 973 1714.5 983.277 1714.5 996C1714.5 1008.72 1704.63 1019 1692.5 1019C1680.37 1019 1670.5 1008.72 1670.5 996C1670.5 983.277 1680.37 973 1692.5 973Z" stroke="#FF0000"/>
</g>
</svg>
