<svg width="1394" height="1997" viewBox="0 0 1394 1997" fill="none" xmlns="http://www.w3.org/2000/svg">
<g id="Group 6">
<g id="&#233;&#129;&#147;&#232;&#183;&#175;(Stroke)">
<mask id="path-1-inside-1_49_10" fill="white">
<path fill-rule="evenodd" clip-rule="evenodd" d="M454 651.67C449.582 651.67 446 655.252 446 659.67L446 826.179C446 829.01 447.496 831.629 449.933 833.068L550.896 892.667C556.228 895.815 559.5 901.546 559.5 907.738L559.5 932.92C559.5 937.339 563.082 940.92 567.5 940.92L732 940.92C736.418 940.92 740 937.339 740 932.92L740 659.67C740 655.252 736.418 651.67 732 651.67L454 651.67ZM560.718 401.978C558.11 402.423 555.891 404.129 554.79 406.535L456.481 621.341C454.056 626.64 457.928 632.67 463.755 632.67L748 632.67C752.418 632.67 756 629.089 756 624.67L756 378.128C756 373.172 751.54 369.408 746.654 370.242L560.718 401.978ZM952.877 1214.89C951 1212.04 950 1208.69 950 1205.28L950 1132.29C950 1127.96 946.546 1124.41 942.212 1124.3L794.535 1120.37C785.055 1120.12 777.5 1112.36 777.5 1102.88L777.5 1013.82C777.5 1012.28 777.058 1010.78 776.227 1009.49L746.68 963.59C745.207 961.303 742.673 959.92 739.953 959.92L567.5 959.92C563.082 959.92 559.5 963.502 559.5 967.92L559.5 992.809C559.5 999.139 556.084 1004.96 550.598 1008.05L550.061 1008.34L530.675 1018.4C525.433 1021.12 524.844 1028.39 529.579 1031.92L594.888 1080.59L595.233 1080.86C596.944 1082.2 598.39 1083.85 599.497 1085.72L667.567 1200.96L667.857 1201.47C669.262 1204.04 670 1206.92 670 1209.86L670 1365.77C670 1369.6 672.706 1372.89 676.458 1373.62L794.63 1396.83L795.272 1396.97C801.861 1398.52 806.988 1403.74 808.386 1410.41L827.41 1501.11C827.818 1503.05 828.935 1504.78 830.545 1505.94L902.62 1558.18C905.674 1560.39 909.86 1560.17 912.665 1557.65L1030.85 1451.32C1032.54 1449.81 1033.5 1447.64 1033.5 1445.37L1033.5 1339.91C1033.5 1338.35 1033.04 1336.82 1032.18 1335.51L952.877 1214.89ZM767 912.67C762.582 912.67 759 916.252 759 920.67L759 945.274C759 946.81 759.442 948.313 760.273 949.604L793.715 1001.55L794.046 1002.09C795.65 1004.79 796.5 1007.87 796.5 1011.02L796.5 1093.63C796.5 1097.96 799.954 1101.51 804.287 1101.63L941.787 1105.28C946.287 1105.4 950 1101.78 950 1097.28L950 920.67C950 916.252 946.418 912.67 942 912.67L767 912.67ZM767 651.67C762.582 651.67 759 655.252 759 659.67L759 885.67C759 890.089 762.582 893.67 767 893.67L942 893.67C946.418 893.67 950 890.089 950 885.67L950 717.17C950 707.505 957.835 699.67 967.5 699.67C971.09 699.67 974 696.76 974 693.17L974 659.67C974 655.252 970.418 651.67 966 651.67L767 651.67ZM820.292 359.408C818.715 358.552 816.897 358.251 815.13 358.553L781.654 364.268C777.811 364.924 775 368.255 775 372.154L775 624.67C775 629.089 778.582 632.67 783 632.67L966 632.67C970.418 632.67 974 629.089 974 624.67L974 447.584C974 444.651 972.394 441.952 969.816 440.553L820.292 359.408ZM188.542 1446.67C182.463 1446.67 178.605 1453.18 181.527 1458.51L253.337 1589.58C254.863 1592.36 257.892 1593.98 261.056 1593.7L573.703 1566.12C577.833 1565.75 581 1562.29 581 1558.15L581 1388.17C581 1378.51 588.835 1370.67 598.5 1370.67L643 1370.67C647.418 1370.67 651 1367.09 651 1362.67L651 1212.45C651 1211.02 650.616 1209.62 649.888 1208.38L584.111 1097.03C583.571 1096.12 582.855 1095.32 582.004 1094.69L504.611 1037C502.154 1035.17 498.866 1034.91 496.146 1036.32L414.089 1078.9C412.543 1079.7 411.301 1080.98 410.551 1082.56L343.22 1223.91L343.041 1224.27C342.128 1226.08 340.909 1227.71 339.436 1229.1L211.508 1349.9C209.907 1351.41 209 1353.51 209 1355.72L209 1389.67C209 1394.09 212.582 1397.67 217 1397.67L242.5 1397.67C252.165 1397.67 260 1405.51 260 1415.17L260 1429.17C260 1438.84 252.165 1446.67 242.5 1446.67L188.542 1446.67ZM1094 813.17C1084.34 813.17 1076.5 805.335 1076.5 795.67L1076.5 726.67C1076.5 722.252 1072.92 718.67 1068.5 718.67L977 718.67C972.582 718.67 969 722.252 969 726.67L969 1005.34C969 1009.76 972.582 1013.34 977 1013.34L1089.64 1013.34C1093.66 1013.34 1097.05 1010.36 1097.57 1006.38L1109 919.05L1109 821.17C1109 816.752 1105.42 813.17 1101 813.17L1094 813.17ZM977 1032.34C972.582 1032.34 969 1035.92 969 1040.34L969 1202.43C969 1204 969.457 1205.52 970.315 1206.83L1049.62 1327.45C1051.5 1330.31 1052.5 1333.65 1052.5 1337.06L1052.5 1449.61C1052.5 1454.41 1050.52 1459 1047.05 1462.3L1046.7 1462.62L919.662 1576.91C913.527 1582.43 904.37 1582.91 897.688 1578.07L816.426 1519.18C812.905 1516.62 810.461 1512.85 809.568 1508.6L791.082 1420.47C790.423 1417.32 787.946 1414.88 784.794 1414.26L660.339 1389.82C659.831 1389.72 659.315 1389.67 658.797 1389.67L608 1389.67C603.582 1389.67 600 1393.25 600 1397.67L600 1566.85C600 1575.77 593.287 1583.24 584.46 1584.23L584.038 1584.28L566.797 1585.8C562.667 1586.16 559.5 1589.62 559.5 1593.77L559.5 1724.17C559.5 1728.59 563.082 1732.17 567.5 1732.17L652.5 1732.17C662.165 1732.17 670 1740.01 670 1749.67L670 1768.67C670 1778.34 662.165 1786.17 652.5 1786.17L567.5 1786.17C563.082 1786.17 559.5 1789.75 559.5 1794.17L559.5 1804.92C559.5 1814.59 551.665 1822.42 542 1822.42L408.5 1822.42C404.082 1822.42 400.5 1826 400.5 1830.42L400.5 1930.17C400.5 1934.59 396.918 1938.17 392.5 1938.17L389.5 1938.17C385.082 1938.17 381.5 1934.59 381.5 1930.17L381.5 1705.17C381.5 1700.75 377.918 1697.17 373.5 1697.17L268 1697.17C263.582 1697.17 260 1700.75 260 1705.17L260 1768.67C260 1773.09 256.418 1776.67 252 1776.67L249 1776.67C244.582 1776.67 241 1773.09 241 1768.67L241 1695.67C241 1686.01 248.835 1678.17 258.5 1678.17L374.75 1678.17C378.478 1678.17 381.5 1675.15 381.5 1671.42C381.5 1667.69 378.478 1664.67 374.75 1664.67L294.862 1664.67C289.524 1664.67 284.478 1662.23 281.158 1658.05L242.981 1609.98C242.699 1609.62 242.448 1609.24 242.23 1608.85L157.158 1453.58C150.769 1441.92 159.207 1427.67 172.505 1427.67L235.5 1427.67C238.538 1427.67 241 1425.21 241 1422.17C241 1419.13 238.538 1416.67 235.5 1416.67L207.5 1416.67C197.835 1416.67 190 1408.84 190 1399.17L190 1351.62C190 1346.8 191.984 1342.2 195.485 1338.89L325.1 1216.51C325.819 1215.83 326.405 1215.02 326.83 1214.13L394.769 1071.51C396.305 1068.28 398.789 1065.61 401.881 1063.84L402.508 1063.5L536.185 994.136C538.836 992.76 540.5 990.022 540.5 987.035L540.5 913.162C540.5 910.331 539.004 907.711 536.567 906.272L435.604 846.673C430.272 843.526 427 837.795 427 831.603L427 664.383C427 659.208 422.16 655.394 417.128 656.605L385.646 664.184L385.142 664.298C383.961 664.546 382.758 664.67 381.551 664.67L8.00001 664.67C3.58173 664.67 1.131e-05 661.089 1.15031e-05 656.67L1.16343e-05 653.67C1.18274e-05 649.252 3.58173 645.67 8.00001 645.67L380.425 645.67C381.055 645.67 381.684 645.596 382.297 645.448L426.002 634.926C428.391 634.351 430.382 632.711 431.404 630.477L539.602 394.062C542.01 388.799 546.865 385.068 552.57 384.094L803.346 341.29C807.189 340.634 810 337.303 810 333.404L810 229.67C810 225.252 813.582 221.67 818 221.67L821 221.67C825.418 221.67 829 225.252 829 229.67L829 337.756C829 340.69 830.606 343.388 833.184 344.788L983.847 426.55L984.369 426.845C989.703 429.98 993 435.714 993 441.931L993 691.67C993 696.089 996.582 699.67 1001 699.67L1078 699.67C1087.66 699.67 1095.5 707.505 1095.5 717.17L1095.5 786.17C1095.5 790.589 1099.08 794.17 1103.5 794.17L1110.5 794.17C1120.16 794.17 1128 802.005 1128 811.67L1128 902.17C1128 906.589 1131.58 910.17 1136 910.17L1385.5 910.17C1389.92 910.17 1393.5 913.752 1393.5 918.17L1393.5 921.17C1393.5 925.589 1389.92 929.17 1385.5 929.17L1133.86 929.17C1129.84 929.17 1126.45 932.149 1125.93 936.132L1115.33 1017.11C1114.19 1025.82 1106.77 1032.34 1097.98 1032.34L977 1032.34ZM540.5 1596.86C540.5 1592.16 536.474 1588.47 531.797 1588.89L283.718 1610.78C277.37 1611.34 274.193 1618.73 278.156 1623.72L293.185 1642.65C294.702 1644.56 297.009 1645.67 299.45 1645.67L383 1645.67C384.077 1645.67 385.131 1645.65 386.155 1645.64C389.943 1645.58 394.313 1645.87 397.907 1646.49C402.443 1647.29 409.047 1649.77 413.643 1649.5L532.972 1642.45C537.2 1642.2 540.5 1638.69 540.5 1634.46L540.5 1596.86ZM540.5 1733.67C540.5 1743.34 548.335 1751.17 558 1751.17L643 1751.17C647.418 1751.17 651 1754.75 651 1759.17C651 1763.59 647.418 1767.17 643 1767.17L558 1767.17C548.335 1767.17 540.5 1775.01 540.5 1784.67L540.5 1795.42C540.5 1799.84 536.918 1803.42 532.5 1803.42L408.5 1803.42C404.082 1803.42 400.5 1799.84 400.5 1795.42L400.5 1675.13C400.5 1670.86 403.856 1667.34 408.123 1667.14L532.123 1661.29C536.684 1661.07 540.5 1664.71 540.5 1669.28L540.5 1733.67Z"/>
</mask>
<path fill-rule="evenodd" clip-rule="evenodd" d="M454 651.67C449.582 651.67 446 655.252 446 659.67L446 826.179C446 829.01 447.496 831.629 449.933 833.068L550.896 892.667C556.228 895.815 559.5 901.546 559.5 907.738L559.5 932.92C559.5 937.339 563.082 940.92 567.5 940.92L732 940.92C736.418 940.92 740 937.339 740 932.92L740 659.67C740 655.252 736.418 651.67 732 651.67L454 651.67ZM560.718 401.978C558.11 402.423 555.891 404.129 554.79 406.535L456.481 621.341C454.056 626.64 457.928 632.67 463.755 632.67L748 632.67C752.418 632.67 756 629.089 756 624.67L756 378.128C756 373.172 751.54 369.408 746.654 370.242L560.718 401.978ZM952.877 1214.89C951 1212.04 950 1208.69 950 1205.28L950 1132.29C950 1127.96 946.546 1124.41 942.212 1124.3L794.535 1120.37C785.055 1120.12 777.5 1112.36 777.5 1102.88L777.5 1013.82C777.5 1012.28 777.058 1010.78 776.227 1009.49L746.68 963.59C745.207 961.303 742.673 959.92 739.953 959.92L567.5 959.92C563.082 959.92 559.5 963.502 559.5 967.92L559.5 992.809C559.5 999.139 556.084 1004.96 550.598 1008.05L550.061 1008.34L530.675 1018.4C525.433 1021.12 524.844 1028.39 529.579 1031.92L594.888 1080.59L595.233 1080.86C596.944 1082.2 598.39 1083.85 599.497 1085.72L667.567 1200.96L667.857 1201.47C669.262 1204.04 670 1206.92 670 1209.86L670 1365.77C670 1369.6 672.706 1372.89 676.458 1373.62L794.63 1396.83L795.272 1396.97C801.861 1398.52 806.988 1403.74 808.386 1410.41L827.41 1501.11C827.818 1503.05 828.935 1504.78 830.545 1505.94L902.62 1558.18C905.674 1560.39 909.86 1560.17 912.665 1557.65L1030.85 1451.32C1032.54 1449.81 1033.5 1447.64 1033.5 1445.37L1033.5 1339.91C1033.5 1338.35 1033.04 1336.82 1032.18 1335.51L952.877 1214.89ZM767 912.67C762.582 912.67 759 916.252 759 920.67L759 945.274C759 946.81 759.442 948.313 760.273 949.604L793.715 1001.55L794.046 1002.09C795.65 1004.79 796.5 1007.87 796.5 1011.02L796.5 1093.63C796.5 1097.96 799.954 1101.51 804.287 1101.63L941.787 1105.28C946.287 1105.4 950 1101.78 950 1097.28L950 920.67C950 916.252 946.418 912.67 942 912.67L767 912.67ZM767 651.67C762.582 651.67 759 655.252 759 659.67L759 885.67C759 890.089 762.582 893.67 767 893.67L942 893.67C946.418 893.67 950 890.089 950 885.67L950 717.17C950 707.505 957.835 699.67 967.5 699.67C971.09 699.67 974 696.76 974 693.17L974 659.67C974 655.252 970.418 651.67 966 651.67L767 651.67ZM820.292 359.408C818.715 358.552 816.897 358.251 815.13 358.553L781.654 364.268C777.811 364.924 775 368.255 775 372.154L775 624.67C775 629.089 778.582 632.67 783 632.67L966 632.67C970.418 632.67 974 629.089 974 624.67L974 447.584C974 444.651 972.394 441.952 969.816 440.553L820.292 359.408ZM188.542 1446.67C182.463 1446.67 178.605 1453.18 181.527 1458.51L253.337 1589.58C254.863 1592.36 257.892 1593.98 261.056 1593.7L573.703 1566.12C577.833 1565.75 581 1562.29 581 1558.15L581 1388.17C581 1378.51 588.835 1370.67 598.5 1370.67L643 1370.67C647.418 1370.67 651 1367.09 651 1362.67L651 1212.45C651 1211.02 650.616 1209.62 649.888 1208.38L584.111 1097.03C583.571 1096.12 582.855 1095.32 582.004 1094.69L504.611 1037C502.154 1035.17 498.866 1034.91 496.146 1036.32L414.089 1078.9C412.543 1079.7 411.301 1080.98 410.551 1082.56L343.22 1223.91L343.041 1224.27C342.128 1226.08 340.909 1227.71 339.436 1229.1L211.508 1349.9C209.907 1351.41 209 1353.51 209 1355.72L209 1389.67C209 1394.09 212.582 1397.67 217 1397.67L242.5 1397.67C252.165 1397.67 260 1405.51 260 1415.17L260 1429.17C260 1438.84 252.165 1446.67 242.5 1446.67L188.542 1446.67ZM1094 813.17C1084.34 813.17 1076.5 805.335 1076.5 795.67L1076.5 726.67C1076.5 722.252 1072.92 718.67 1068.5 718.67L977 718.67C972.582 718.67 969 722.252 969 726.67L969 1005.34C969 1009.76 972.582 1013.34 977 1013.34L1089.64 1013.34C1093.66 1013.34 1097.05 1010.36 1097.57 1006.38L1109 919.05L1109 821.17C1109 816.752 1105.42 813.17 1101 813.17L1094 813.17ZM977 1032.34C972.582 1032.34 969 1035.92 969 1040.34L969 1202.43C969 1204 969.457 1205.52 970.315 1206.83L1049.62 1327.45C1051.5 1330.31 1052.5 1333.65 1052.5 1337.06L1052.5 1449.61C1052.5 1454.41 1050.52 1459 1047.05 1462.3L1046.7 1462.62L919.662 1576.91C913.527 1582.43 904.37 1582.91 897.688 1578.07L816.426 1519.18C812.905 1516.62 810.461 1512.85 809.568 1508.6L791.082 1420.47C790.423 1417.32 787.946 1414.88 784.794 1414.26L660.339 1389.82C659.831 1389.72 659.315 1389.67 658.797 1389.67L608 1389.67C603.582 1389.67 600 1393.25 600 1397.67L600 1566.85C600 1575.77 593.287 1583.24 584.46 1584.23L584.038 1584.28L566.797 1585.8C562.667 1586.16 559.5 1589.62 559.5 1593.77L559.5 1724.17C559.5 1728.59 563.082 1732.17 567.5 1732.17L652.5 1732.17C662.165 1732.17 670 1740.01 670 1749.67L670 1768.67C670 1778.34 662.165 1786.17 652.5 1786.17L567.5 1786.17C563.082 1786.17 559.5 1789.75 559.5 1794.17L559.5 1804.92C559.5 1814.59 551.665 1822.42 542 1822.42L408.5 1822.42C404.082 1822.42 400.5 1826 400.5 1830.42L400.5 1930.17C400.5 1934.59 396.918 1938.17 392.5 1938.17L389.5 1938.17C385.082 1938.17 381.5 1934.59 381.5 1930.17L381.5 1705.17C381.5 1700.75 377.918 1697.17 373.5 1697.17L268 1697.17C263.582 1697.17 260 1700.75 260 1705.17L260 1768.67C260 1773.09 256.418 1776.67 252 1776.67L249 1776.67C244.582 1776.67 241 1773.09 241 1768.67L241 1695.67C241 1686.01 248.835 1678.17 258.5 1678.17L374.75 1678.17C378.478 1678.17 381.5 1675.15 381.5 1671.42C381.5 1667.69 378.478 1664.67 374.75 1664.67L294.862 1664.67C289.524 1664.67 284.478 1662.23 281.158 1658.05L242.981 1609.98C242.699 1609.62 242.448 1609.24 242.23 1608.85L157.158 1453.58C150.769 1441.92 159.207 1427.67 172.505 1427.67L235.5 1427.67C238.538 1427.67 241 1425.21 241 1422.17C241 1419.13 238.538 1416.67 235.5 1416.67L207.5 1416.67C197.835 1416.67 190 1408.84 190 1399.17L190 1351.62C190 1346.8 191.984 1342.2 195.485 1338.89L325.1 1216.51C325.819 1215.83 326.405 1215.02 326.83 1214.13L394.769 1071.51C396.305 1068.28 398.789 1065.61 401.881 1063.84L402.508 1063.5L536.185 994.136C538.836 992.76 540.5 990.022 540.5 987.035L540.5 913.162C540.5 910.331 539.004 907.711 536.567 906.272L435.604 846.673C430.272 843.526 427 837.795 427 831.603L427 664.383C427 659.208 422.16 655.394 417.128 656.605L385.646 664.184L385.142 664.298C383.961 664.546 382.758 664.67 381.551 664.67L8.00001 664.67C3.58173 664.67 1.131e-05 661.089 1.15031e-05 656.67L1.16343e-05 653.67C1.18274e-05 649.252 3.58173 645.67 8.00001 645.67L380.425 645.67C381.055 645.67 381.684 645.596 382.297 645.448L426.002 634.926C428.391 634.351 430.382 632.711 431.404 630.477L539.602 394.062C542.01 388.799 546.865 385.068 552.57 384.094L803.346 341.29C807.189 340.634 810 337.303 810 333.404L810 229.67C810 225.252 813.582 221.67 818 221.67L821 221.67C825.418 221.67 829 225.252 829 229.67L829 337.756C829 340.69 830.606 343.388 833.184 344.788L983.847 426.55L984.369 426.845C989.703 429.98 993 435.714 993 441.931L993 691.67C993 696.089 996.582 699.67 1001 699.67L1078 699.67C1087.66 699.67 1095.5 707.505 1095.5 717.17L1095.5 786.17C1095.5 790.589 1099.08 794.17 1103.5 794.17L1110.5 794.17C1120.16 794.17 1128 802.005 1128 811.67L1128 902.17C1128 906.589 1131.58 910.17 1136 910.17L1385.5 910.17C1389.92 910.17 1393.5 913.752 1393.5 918.17L1393.5 921.17C1393.5 925.589 1389.92 929.17 1385.5 929.17L1133.86 929.17C1129.84 929.17 1126.45 932.149 1125.93 936.132L1115.33 1017.11C1114.19 1025.82 1106.77 1032.34 1097.98 1032.34L977 1032.34ZM540.5 1596.86C540.5 1592.16 536.474 1588.47 531.797 1588.89L283.718 1610.78C277.37 1611.34 274.193 1618.73 278.156 1623.72L293.185 1642.65C294.702 1644.56 297.009 1645.67 299.45 1645.67L383 1645.67C384.077 1645.67 385.131 1645.65 386.155 1645.64C389.943 1645.58 394.313 1645.87 397.907 1646.49C402.443 1647.29 409.047 1649.77 413.643 1649.5L532.972 1642.45C537.2 1642.2 540.5 1638.69 540.5 1634.46L540.5 1596.86ZM540.5 1733.67C540.5 1743.34 548.335 1751.17 558 1751.17L643 1751.17C647.418 1751.17 651 1754.75 651 1759.17C651 1763.59 647.418 1767.17 643 1767.17L558 1767.17C548.335 1767.17 540.5 1775.01 540.5 1784.67L540.5 1795.42C540.5 1799.84 536.918 1803.42 532.5 1803.42L408.5 1803.42C404.082 1803.42 400.5 1799.84 400.5 1795.42L400.5 1675.13C400.5 1670.86 403.856 1667.34 408.123 1667.14L532.123 1661.29C536.684 1661.07 540.5 1664.71 540.5 1669.28L540.5 1733.67Z" fill="white" fill-opacity="0.3" stroke="black" stroke-width="8" mask="url(#path-1-inside-1_49_10)"/>
</g>
<g id="&#227;&#131;&#143;&#227;&#130;&#166;&#227;&#130;&#185;">
<path id="plot_5" d="M489.664 123.673L580.478 294.469C582.034 297.395 580.923 301.028 577.997 302.583L435.881 378.148C432.955 379.704 429.322 378.593 427.766 375.667L336.952 204.871C335.397 201.945 336.507 198.312 339.433 196.757L481.55 121.192C484.476 119.636 488.109 120.747 489.664 123.673Z" fill="white" fill-opacity="0.3" stroke="black" stroke-width="4"/>
<path id="apart_2" d="M863.17 230L773.17 230C769.857 230 767.17 227.314 767.17 224L767.17 8.00001C767.17 4.6863 769.857 2.00001 773.17 2.00001L863.17 2.00001C866.484 2.00001 869.17 4.68631 869.17 8.00001L869.17 224L869.163 224.309C869.002 227.479 866.381 230 863.17 230Z" fill="white" fill-opacity="0.3" stroke="black" stroke-width="4"/>
<path id="plot_6" d="M617.353 692.803L714.992 793.358C717.3 795.735 717.245 799.534 714.867 801.842L628.914 885.303C626.536 887.611 622.738 887.555 620.429 885.178L522.791 784.623C520.483 782.246 520.539 778.447 522.916 776.139L608.869 692.678C611.246 690.37 615.045 690.426 617.353 692.803Z" fill="white" fill-opacity="0.3" stroke="black" stroke-width="4"/>
<path id="plot_30" d="M140.594 1533.62L209.333 1655.77C210.959 1658.66 209.935 1662.31 207.047 1663.94L102.639 1722.7C99.7509 1724.32 96.0924 1723.3 94.4672 1720.41L25.7275 1598.27C24.1024 1595.38 25.1261 1591.72 28.0137 1590.09L132.422 1531.34C135.31 1529.71 138.969 1530.74 140.594 1533.62Z" fill="white" fill-opacity="0.3" stroke="black" stroke-width="4"/>
<path id="plot_29" d="M349 1848.67L349 1988.83C349 1992.14 346.314 1994.83 343 1994.83L223.193 1994.83C219.88 1994.83 217.193 1992.14 217.193 1988.83L217.193 1848.67C217.193 1845.36 219.88 1842.67 223.193 1842.67L343 1842.67C346.314 1842.67 349 1845.36 349 1848.67Z" fill="white" fill-opacity="0.3" stroke="black" stroke-width="4"/>
<path id="plot_14" d="M893.642 1268.83L986.702 1373.64C988.902 1376.11 988.677 1379.91 986.199 1382.11L896.611 1461.65C894.134 1463.85 890.341 1463.63 888.141 1461.15L795.081 1356.34C792.881 1353.87 793.106 1350.07 795.584 1347.87L885.171 1268.33C887.649 1266.13 891.442 1266.35 893.642 1268.83Z" fill="white" fill-opacity="0.3" stroke="black" stroke-width="4"/>
<path id="plot_1" d="M1170.21 537.681L1170.96 677.838C1170.97 681.152 1168.3 683.852 1164.99 683.87L1045.18 684.506C1041.87 684.523 1039.17 681.851 1039.15 678.538L1038.41 538.38C1038.39 535.067 1041.06 532.366 1044.38 532.349L1164.18 531.713C1167.5 531.695 1170.2 534.367 1170.21 537.681Z" fill="white" fill-opacity="0.3" stroke="black" stroke-width="4"/>
<path id="plot_4" d="M594.115 461.662L734.275 461.662C737.588 461.662 740.275 464.348 740.275 467.662L740.275 587.468C740.274 590.782 737.588 593.468 734.275 593.468L594.115 593.468C590.802 593.468 588.115 590.782 588.115 587.468L588.115 467.662C588.115 464.348 590.802 461.662 594.115 461.662Z" fill="white" fill-opacity="0.3" stroke="black" stroke-width="4"/>
<path id="plot_3" d="M838.987 439.67L931 439.67C934.314 439.67 937 442.357 937 445.67L937 540.921C937 544.235 934.314 546.921 931 546.921L838.987 546.921C835.674 546.921 832.987 544.235 832.987 540.921L832.987 445.67C832.987 442.357 835.674 439.67 838.987 439.67Z" fill="white" fill-opacity="0.3" stroke="black" stroke-width="4"/>
<path id="plot_8" d="M989.987 838.67L1082 838.67C1085.31 838.67 1088 841.357 1088 844.67L1088 939.921C1088 943.235 1085.31 945.921 1082 945.921L989.987 945.921C986.674 945.921 983.987 943.235 983.987 939.921L983.987 844.67C983.987 841.357 986.674 838.67 989.987 838.67Z" fill="white" fill-opacity="0.3" stroke="black" stroke-width="4"/>
<path id="plot_9" d="M1009.99 1099.67L1102 1099.67C1105.31 1099.67 1108 1102.36 1108 1105.67L1108 1200.92C1108 1204.23 1105.31 1206.92 1102 1206.92L1009.99 1206.92C1006.67 1206.92 1003.99 1204.23 1003.99 1200.92L1003.99 1105.67C1003.99 1102.36 1006.67 1099.67 1009.99 1099.67Z" fill="white" fill-opacity="0.3" stroke="black" stroke-width="4"/>
<path id="plot_19" d="M436.137 1095.24L522.793 1126.18C525.914 1127.29 527.541 1130.73 526.427 1133.85L494.403 1223.55C493.289 1226.67 489.856 1228.3 486.736 1227.19L400.079 1196.25C396.958 1195.14 395.331 1191.7 396.445 1188.58L428.469 1098.88C429.583 1095.76 433.016 1094.13 436.137 1095.24Z" fill="white" fill-opacity="0.3" stroke="black" stroke-width="4"/>
<path id="plot_20" d="M397.707 1209.56L476.135 1257.68C478.96 1259.41 479.845 1263.1 478.112 1265.93L428.3 1347.12C426.567 1349.94 422.872 1350.83 420.048 1349.09L341.62 1300.98C338.795 1299.24 337.91 1295.55 339.643 1292.72L389.455 1211.54C391.188 1208.71 394.883 1207.83 397.707 1209.56Z" fill="white" fill-opacity="0.3" stroke="black" stroke-width="4"/>
<path id="plot_21" d="M332.234 1307.34L385.722 1382.21C387.648 1384.91 387.024 1388.65 384.328 1390.58L306.824 1445.95C304.128 1447.88 300.381 1447.25 298.454 1444.56L244.966 1369.69C243.04 1366.99 243.664 1363.25 246.36 1361.32L323.864 1305.95C326.56 1304.02 330.307 1304.65 332.234 1307.34Z" fill="white" fill-opacity="0.3" stroke="black" stroke-width="4"/>
<path id="plot_23" d="M429.987 1454.67L522 1454.67C525.314 1454.67 528 1457.36 528 1460.67L528 1555.92C528 1559.23 525.314 1561.92 522 1561.92L429.987 1561.92C426.674 1561.92 423.987 1559.23 423.987 1555.92L423.987 1460.67C423.987 1457.36 426.674 1454.67 429.987 1454.67Z" fill="white" fill-opacity="0.3" stroke="black" stroke-width="4"/>
<path id="plot_17" d="M671.987 1421.67L764 1421.67C767.314 1421.67 770 1424.36 770 1427.67L770 1522.92C770 1526.23 767.314 1528.92 764 1528.92L671.987 1528.92C668.674 1528.92 665.987 1526.23 665.987 1522.92L665.987 1427.67C665.987 1424.36 668.674 1421.67 671.987 1421.67Z" fill="white" fill-opacity="0.3" stroke="black" stroke-width="4"/>
<path id="plot_16" d="M716.987 1552.67L809 1552.67C812.314 1552.67 815 1555.36 815 1558.67L815 1653.92C815 1657.23 812.314 1659.92 809 1659.92L716.987 1659.92C713.674 1659.92 710.987 1657.23 710.987 1653.92L710.987 1558.67C710.987 1555.36 713.674 1552.67 716.987 1552.67Z" fill="white" fill-opacity="0.3" stroke="black" stroke-width="4"/>
<path id="plot_24" d="M572.987 1608.67L665 1608.67C668.314 1608.67 671 1611.36 671 1614.67L671 1709.92C671 1713.23 668.314 1715.92 665 1715.92L572.987 1715.92C569.674 1715.92 566.987 1713.23 566.987 1709.92L566.987 1614.67C566.987 1611.36 569.674 1608.67 572.987 1608.67Z" fill="white" fill-opacity="0.3" stroke="black" stroke-width="4"/>
<path id="plot_27" d="M572.987 1800.67L665 1800.67C668.314 1800.67 671 1803.36 671 1806.67L671 1901.92C671 1905.23 668.314 1907.92 665 1907.92L572.987 1907.92C569.674 1907.92 566.987 1905.23 566.987 1901.92L566.987 1806.67C566.987 1803.36 569.674 1800.67 572.987 1800.67Z" fill="white" fill-opacity="0.3" stroke="black" stroke-width="4"/>
<path id="plot_28" d="M429.987 1842.67L522 1842.67C525.314 1842.67 528 1845.36 528 1848.67L528 1943.92C528 1947.23 525.314 1949.92 522 1949.92L429.987 1949.92C426.673 1949.92 423.987 1947.23 423.987 1943.92L423.987 1848.67C423.987 1845.36 426.673 1842.67 429.987 1842.67Z" fill="white" fill-opacity="0.3" stroke="black" stroke-width="4"/>
<path id="plot_25" d="M429.987 1676.67L522 1676.67C525.314 1676.67 528 1679.36 528 1682.67L528 1777.92C528 1781.23 525.314 1783.92 522 1783.92L429.987 1783.92C426.674 1783.92 423.987 1781.23 423.987 1777.92L423.987 1682.67C423.987 1679.36 426.674 1676.67 429.987 1676.67Z" fill="white" fill-opacity="0.3" stroke="black" stroke-width="4"/>
<path id="plot_26" d="M271.987 1709.67L364 1709.67C367.314 1709.67 370 1712.36 370 1715.67L370 1810.92C370 1814.23 367.314 1816.92 364 1816.92L271.987 1816.92C268.674 1816.92 265.987 1814.23 265.987 1810.92L265.987 1715.67C265.987 1712.36 268.674 1709.67 271.987 1709.67Z" fill="white" fill-opacity="0.3" stroke="black" stroke-width="4"/>
<path id="plot_22" d="M271.987 1477.67L364 1477.67C367.314 1477.67 370 1480.36 370 1483.67L370 1578.92C370 1582.23 367.314 1584.92 364 1584.92L271.987 1584.92C268.674 1584.92 265.987 1582.23 265.987 1578.92L265.987 1483.67C265.987 1480.36 268.674 1477.67 271.987 1477.67Z" fill="white" fill-opacity="0.3" stroke="black" stroke-width="4"/>
<path id="plot_13" d="M695.987 1199.67L788 1199.67C791.314 1199.67 794 1202.36 794 1205.67L794 1300.92C794 1304.23 791.314 1306.92 788 1306.92L695.987 1306.92C692.674 1306.92 689.987 1304.23 689.987 1300.92L689.987 1205.67C689.987 1202.36 692.674 1199.67 695.987 1199.67Z" fill="white" fill-opacity="0.3" stroke="black" stroke-width="4"/>
<path id="plot_18" d="M526.987 1245.67L619 1245.67C622.314 1245.67 625 1248.36 625 1251.67L625 1346.92C625 1350.23 622.314 1352.92 619 1352.92L526.987 1352.92C523.674 1352.92 520.987 1350.23 520.987 1346.92L520.987 1251.67C520.987 1248.36 523.674 1245.67 526.987 1245.67Z" fill="white" fill-opacity="0.3" stroke="black" stroke-width="4"/>
<path id="plot_12" d="M824.987 1134.67L917 1134.67C920.314 1134.67 923 1137.36 923 1140.67L923 1235.92C923 1239.23 920.314 1241.92 917 1241.92L824.987 1241.92C821.674 1241.92 818.987 1239.23 818.987 1235.92L818.987 1140.67C818.987 1137.36 821.674 1134.67 824.987 1134.67Z" fill="white" fill-opacity="0.3" stroke="black" stroke-width="4"/>
<path id="plot_11" d="M818.987 929.67L911 929.67C914.314 929.67 917 932.357 917 935.67L917 1030.92C917 1034.24 914.314 1036.92 911 1036.92L818.987 1036.92C815.674 1036.92 812.987 1034.24 812.987 1030.92L812.987 935.67C812.987 932.357 815.674 929.67 818.987 929.67Z" fill="white" fill-opacity="0.3" stroke="black" stroke-width="4"/>
<path id="plot_10" d="M1127.99 1210.67L1220 1210.67C1223.31 1210.67 1226 1213.36 1226 1216.67L1226 1311.92C1226 1315.23 1223.31 1317.92 1220 1317.92L1127.99 1317.92C1124.67 1317.92 1121.99 1315.23 1121.99 1311.92L1121.99 1216.67C1121.99 1213.36 1124.67 1210.67 1127.99 1210.67Z" fill="white" fill-opacity="0.3" stroke="black" stroke-width="4"/>
<path id="plot_7" d="M805.161 835.4L804.562 695.242C804.548 691.928 807.222 689.231 810.536 689.216L930.342 688.705C933.655 688.691 936.353 691.365 936.367 694.679L936.966 834.837C936.98 838.15 934.305 840.848 930.992 840.862L811.186 841.374C807.872 841.388 805.175 838.714 805.161 835.4Z" fill="white" fill-opacity="0.3" stroke="black" stroke-width="4"/>
<path id="plot_2" d="M1046.71 171.666L1185.86 306.04C1188.24 308.342 1188.31 312.14 1186 314.524L1074.19 430.307C1071.89 432.69 1068.09 432.757 1065.71 430.455L926.562 296.081C924.178 293.779 924.112 289.981 926.413 287.597L1038.22 171.814C1040.53 169.431 1044.32 169.364 1046.71 171.666Z" fill="white" fill-opacity="0.3" stroke="black" stroke-width="4"/>
<path id="plot_15" d="M1081.71 1532.67L1220.86 1667.04C1223.24 1669.34 1223.31 1673.14 1221 1675.52L1109.19 1791.31C1106.89 1793.69 1103.09 1793.76 1100.71 1791.45L961.562 1657.08C959.178 1654.78 959.112 1650.98 961.413 1648.6L1073.22 1532.81C1075.53 1530.43 1079.32 1530.36 1081.71 1532.67Z" fill="white" fill-opacity="0.3" stroke="black" stroke-width="4"/>
</g>
<g id="&#227;&#130;&#168;&#227;&#131;&#188;&#227;&#131;&#134;&#227;&#131;&#169;&#227;&#130;&#164;&#227;&#131;&#136;">
<g id="[&#230;&#139;&#161;&#229;&#188;&#181;&#232;&#161;&#151;]&#227;&#130;&#183;&#227;&#131;&#188;&#227;&#130;&#178;&#227;&#130;&#164;&#227;&#130;&#186;&#229;&#149;&#134;&#233;&#128;&#154;&#227;&#130;&#138;">
<g id="Group 5">
<path id="Polygon 22" d="M566.311 1039.24L554.399 1041.45L551.457 1046.42L559.701 1050.4L572.922 1050.4L581.165 1046.42L578.223 1041.45L566.311 1039.24Z" fill="#F0FEFF" fill-opacity="0.4"/>
<path id="Polygon 23" d="M566.341 1035.25L554.222 1037.49L551.229 1042.53L559.615 1046.58L573.066 1046.58L581.452 1042.53L578.459 1037.49L566.341 1035.25Z" fill="#F0FEFF" fill-opacity="0.4"/>
</g>
<g id="Group 2">
<g id="Polygon 1">
<path d="M565.815 978.17L561.417 1002.17L570.214 1002.17L565.815 978.17Z" fill="#D9D9D9" fill-opacity="0.3"/>
<path d="M562.017 1001.67L569.614 1001.67L565.816 980.943L562.017 1001.67Z" stroke="#00BFFF" stroke-opacity="0.4"/>
</g>
<g id="Polygon 11">
<path d="M563.115 1042.17L567.513 1016.41L558.717 1016.41L563.115 1042.17Z" fill="#D9D9D9" fill-opacity="0.3"/>
<path d="M566.921 1016.91L559.309 1016.91L563.114 1039.2L566.921 1016.91Z" stroke="#00BFFF" stroke-opacity="0.4"/>
</g>
<g id="Polygon 2">
<path d="M564.024 984.91L557.745 1010.28L566.518 1010.92L564.024 984.91Z" fill="#D9D9D9" fill-opacity="0.3"/>
<path d="M558.373 1009.82L565.964 1010.38L563.806 987.871L558.373 1009.82Z" stroke="#00BFFF" stroke-opacity="0.4"/>
</g>
<g id="Polygon 6">
<path d="M564.945 980.532L557.134 1011.45L565.053 1012.42L564.945 980.532Z" fill="#D9D9D9" fill-opacity="0.3"/>
<path d="M557.758 1011.02L564.551 1011.86L564.458 984.5L557.758 1011.02Z" stroke="#00BFFF" stroke-opacity="0.4"/>
</g>
<g id="Polygon 13">
<path d="M567.107 1042.64L571.505 1016.88L562.709 1016.88L567.107 1042.64Z" fill="#D9D9D9" fill-opacity="0.3"/>
<path d="M570.913 1017.38L563.301 1017.38L567.107 1039.67L570.913 1017.38Z" stroke="#00BFFF" stroke-opacity="0.4"/>
</g>
<g id="Polygon 5">
<path d="M565.439 979.595L559.936 1005.14L568.725 1005.52L565.439 979.595Z" fill="#D9D9D9" fill-opacity="0.3"/>
<path d="M560.549 1004.67L568.155 1005L565.312 982.561L560.549 1004.67Z" stroke="#00BFFF" stroke-opacity="0.4"/>
</g>
<g id="Polygon 14">
<path d="M570.768 1042.14L573.578 1009.31L568.541 1009.26L570.768 1042.14Z" fill="#D9D9D9" fill-opacity="0.3"/>
<path d="M573.034 1009.8L569.076 1009.77L570.826 1035.59L573.034 1009.8Z" stroke="#00BFFF" stroke-opacity="0.4"/>
</g>
<g id="Polygon 15">
<path d="M564.309 1040.24L575.321 1016.54L566.833 1014.23L564.309 1040.24Z" fill="#D9D9D9" fill-opacity="0.3"/>
<path d="M574.618 1016.87L567.273 1014.87L565.088 1037.37L574.618 1016.87Z" stroke="#00BFFF" stroke-opacity="0.4"/>
</g>
<g id="Polygon 3">
<path d="M567.479 983.635L563.669 1009.49L572.463 1009.29L567.479 983.635Z" fill="#D9D9D9" fill-opacity="0.3"/>
<path d="M564.25 1008.97L571.86 1008.8L567.547 986.603L564.25 1008.97Z" stroke="#00BFFF" stroke-opacity="0.4"/>
</g>
<g id="Polygon 16">
<path d="M564.824 1039.82L566.731 1018.43L559.777 1018.94L564.824 1039.82Z" fill="#D9D9D9" fill-opacity="0.3"/>
<path d="M566.18 1018.97L560.401 1019.4L564.596 1036.75L566.18 1018.97Z" stroke="#00BFFF" stroke-opacity="0.4"/>
</g>
<g id="Polygon 7">
<path d="M570.278 1025.37L574.396 999.563L565.6 999.659L570.278 1025.37Z" fill="#D9D9D9" fill-opacity="0.3"/>
<path d="M573.809 1000.07L566.197 1000.15L570.245 1022.4L573.809 1000.07Z" stroke="#00BFFF" stroke-opacity="0.4"/>
</g>
<g id="Polygon 21">
<path d="M569.913 1023.02L574.039 996.95L565.222 997.046L569.913 1023.02Z" fill="#D9D9D9" fill-opacity="0.3"/>
<path d="M573.453 997.456L565.818 997.539L569.88 1020.03L573.453 997.456Z" stroke="#00BFFF" stroke-opacity="0.4"/>
</g>
<g id="Polygon 17">
<path d="M561.999 1040.11L566.397 1014.35L557.601 1014.35L561.999 1040.11Z" fill="#D9D9D9" fill-opacity="0.3"/>
<path d="M565.805 1014.85L558.193 1014.85L561.999 1037.14L565.805 1014.85Z" stroke="#00BFFF" stroke-opacity="0.4"/>
</g>
<g id="Polygon 10">
<path d="M564.641 990.147L560.243 1015.91L569.039 1015.91L564.641 990.147Z" fill="#D9D9D9" fill-opacity="0.3"/>
<path d="M560.835 1015.41L568.447 1015.41L564.642 993.116L560.835 1015.41Z" stroke="#00BFFF" stroke-opacity="0.4"/>
</g>
<g id="Polygon 18">
<path d="M565.287 1035.83L569.685 1010.07L560.889 1010.07L565.287 1035.83Z" fill="#D9D9D9" fill-opacity="0.3"/>
<path d="M569.093 1010.57L561.481 1010.57L565.287 1032.86L569.093 1010.57Z" stroke="#00BFFF" stroke-opacity="0.4"/>
</g>
<g id="Polygon 9">
<path d="M561.59 989.216L556.556 1014.86L565.35 1015.08L561.59 989.216Z" fill="#D9D9D9" fill-opacity="0.3"/>
<path d="M557.16 1014.37L564.77 1014.56L561.517 992.184L557.16 1014.37Z" stroke="#00BFFF" stroke-opacity="0.4"/>
</g>
<g id="Polygon 19">
<path d="M567.192 1047.82L565.802 1019.68L557.192 1021.48L567.192 1047.82Z" fill="#D9D9D9" fill-opacity="0.3"/>
<path d="M565.332 1020.29L557.867 1021.85L566.537 1044.69L565.332 1020.29Z" stroke="#00BFFF" stroke-opacity="0.4"/>
</g>
<g id="Polygon 4">
<path d="M568.213 987.169L566.226 1013.23L574.984 1012.41L568.213 987.169Z" fill="#D9D9D9" fill-opacity="0.3"/>
<path d="M566.769 1012.67L574.348 1011.97L568.489 990.125L566.769 1012.67Z" stroke="#00BFFF" stroke-opacity="0.4"/>
</g>
<g id="Polygon 20">
<path d="M562.005 1039.85L565.164 1013.9L556.377 1014.33L562.005 1039.85Z" fill="#D9D9D9" fill-opacity="0.3"/>
<path d="M564.596 1014.43L556.993 1014.8L561.862 1036.88L564.596 1014.43Z" stroke="#00BFFF" stroke-opacity="0.4"/>
</g>
<g id="Polygon 8">
<path d="M564.7 987.036L560.302 1012.8L569.098 1012.8L564.7 987.036Z" fill="#D9D9D9" fill-opacity="0.3"/>
<path d="M560.894 1012.3L568.506 1012.3L564.7 990.004L560.894 1012.3Z" stroke="#00BFFF" stroke-opacity="0.4"/>
</g>
<g id="Polygon 12">
<path d="M569.692 1036.75L575.937 1011.37L567.164 1010.74L569.692 1036.75Z" fill="#D9D9D9" fill-opacity="0.3"/>
<path d="M575.31 1011.83L567.718 1011.28L569.906 1033.79L575.31 1011.83Z" stroke="#00BFFF" stroke-opacity="0.4"/>
</g>
</g>
</g>
<g id="[&#230;&#139;&#161;&#229;&#188;&#181;&#232;&#161;&#151;]&#227;&#131;&#159;&#227;&#130;&#185;&#227;&#131;&#136;&#227;&#131;&#187;&#227;&#131;&#180;&#227;&#130;&#163;&#227;&#131;&#172;&#227;&#131;&#131;&#227;&#130;&#184;&#228;&#184;&#173;&#229;&#164;&#174;">
<g id="Group 5_2">
<path id="Polygon 22_2" d="M698.311 1348.24L686.4 1350.45L683.458 1355.42L691.701 1359.4L704.922 1359.4L713.165 1355.42L710.223 1350.45L698.311 1348.24Z" fill="#F0FEFF" fill-opacity="0.4"/>
<path id="Polygon 23_2" d="M698.341 1344.25L686.222 1346.49L683.229 1351.53L691.616 1355.58L705.066 1355.58L713.452 1351.53L710.459 1346.49L698.341 1344.25Z" fill="#F0FEFF" fill-opacity="0.4"/>
</g>
<g id="Group 2_2">
<g id="Polygon 1_2">
<path d="M697.816 1287.17L693.417 1311.17L702.214 1311.17L697.816 1287.17Z" fill="#D9D9D9" fill-opacity="0.3"/>
<path d="M694.017 1310.67L701.614 1310.67L697.816 1289.94L694.017 1310.67Z" stroke="#00BFFF" stroke-opacity="0.4"/>
</g>
<g id="Polygon 11_2">
<path d="M695.115 1351.17L699.513 1325.41L690.717 1325.41L695.115 1351.17Z" fill="#D9D9D9" fill-opacity="0.3"/>
<path d="M698.921 1325.91L691.309 1325.91L695.114 1348.2L698.921 1325.91Z" stroke="#00BFFF" stroke-opacity="0.4"/>
</g>
<g id="Polygon 2_2">
<path d="M696.024 1293.91L689.746 1319.28L698.518 1319.92L696.024 1293.91Z" fill="#D9D9D9" fill-opacity="0.3"/>
<path d="M690.373 1318.82L697.965 1319.38L695.806 1296.87L690.373 1318.82Z" stroke="#00BFFF" stroke-opacity="0.4"/>
</g>
<g id="Polygon 6_2">
<path d="M696.945 1289.53L689.134 1320.45L697.053 1321.42L696.945 1289.53Z" fill="#D9D9D9" fill-opacity="0.3"/>
<path d="M689.758 1320.02L696.551 1320.86L696.458 1293.5L689.758 1320.02Z" stroke="#00BFFF" stroke-opacity="0.4"/>
</g>
<g id="Polygon 13_2">
<path d="M699.107 1351.64L703.506 1325.88L694.709 1325.88L699.107 1351.64Z" fill="#D9D9D9" fill-opacity="0.3"/>
<path d="M702.913 1326.38L695.301 1326.38L699.107 1348.67L702.913 1326.38Z" stroke="#00BFFF" stroke-opacity="0.4"/>
</g>
<g id="Polygon 5_2">
<path d="M697.439 1288.6L691.937 1314.14L700.725 1314.52L697.439 1288.6Z" fill="#D9D9D9" fill-opacity="0.3"/>
<path d="M692.55 1313.67L700.155 1314L697.312 1291.56L692.55 1313.67Z" stroke="#00BFFF" stroke-opacity="0.4"/>
</g>
<g id="Polygon 14_2">
<path d="M702.768 1351.14L705.578 1318.31L700.541 1318.26L702.768 1351.14Z" fill="#D9D9D9" fill-opacity="0.3"/>
<path d="M705.034 1318.8L701.076 1318.77L702.826 1344.59L705.034 1318.8Z" stroke="#00BFFF" stroke-opacity="0.4"/>
</g>
<g id="Polygon 15_2">
<path d="M696.309 1349.24L707.321 1325.54L698.833 1323.23L696.309 1349.24Z" fill="#D9D9D9" fill-opacity="0.3"/>
<path d="M706.618 1325.87L699.273 1323.87L697.089 1346.37L706.618 1325.87Z" stroke="#00BFFF" stroke-opacity="0.4"/>
</g>
<g id="Polygon 3_2">
<path d="M699.479 1292.64L695.669 1318.49L704.463 1318.29L699.479 1292.64Z" fill="#D9D9D9" fill-opacity="0.3"/>
<path d="M696.25 1317.97L703.86 1317.8L699.547 1295.6L696.25 1317.97Z" stroke="#00BFFF" stroke-opacity="0.4"/>
</g>
<g id="Polygon 16_2">
<path d="M696.824 1348.82L698.731 1327.43L691.777 1327.94L696.824 1348.82Z" fill="#D9D9D9" fill-opacity="0.3"/>
<path d="M698.181 1327.97L692.402 1328.4L696.596 1345.75L698.181 1327.97Z" stroke="#00BFFF" stroke-opacity="0.4"/>
</g>
<g id="Polygon 7_2">
<path d="M702.278 1334.37L706.396 1308.56L697.6 1308.66L702.278 1334.37Z" fill="#D9D9D9" fill-opacity="0.3"/>
<path d="M705.809 1309.07L698.198 1309.15L702.245 1331.4L705.809 1309.07Z" stroke="#00BFFF" stroke-opacity="0.4"/>
</g>
<g id="Polygon 21_2">
<path d="M701.913 1332.02L706.039 1305.95L697.222 1306.05L701.913 1332.02Z" fill="#D9D9D9" fill-opacity="0.3"/>
<path d="M705.453 1306.46L697.818 1306.54L701.881 1329.03L705.453 1306.46Z" stroke="#00BFFF" stroke-opacity="0.4"/>
</g>
<g id="Polygon 17_2">
<path d="M693.999 1349.11L698.398 1323.35L689.601 1323.35L693.999 1349.11Z" fill="#D9D9D9" fill-opacity="0.3"/>
<path d="M697.806 1323.85L690.193 1323.85L693.999 1346.14L697.806 1323.85Z" stroke="#00BFFF" stroke-opacity="0.4"/>
</g>
<g id="Polygon 10_2">
<path d="M696.641 1299.15L692.243 1324.91L701.04 1324.91L696.641 1299.15Z" fill="#D9D9D9" fill-opacity="0.3"/>
<path d="M692.835 1324.41L700.448 1324.41L696.642 1302.12L692.835 1324.41Z" stroke="#00BFFF" stroke-opacity="0.4"/>
</g>
<g id="Polygon 18_2">
<path d="M697.287 1344.83L701.685 1319.07L692.889 1319.07L697.287 1344.83Z" fill="#D9D9D9" fill-opacity="0.3"/>
<path d="M701.093 1319.57L693.481 1319.57L697.287 1341.86L701.093 1319.57Z" stroke="#00BFFF" stroke-opacity="0.4"/>
</g>
<g id="Polygon 9_2">
<path d="M693.59 1298.22L688.556 1323.86L697.35 1324.08L693.59 1298.22Z" fill="#D9D9D9" fill-opacity="0.3"/>
<path d="M689.16 1323.37L696.77 1323.56L693.517 1301.18L689.16 1323.37Z" stroke="#00BFFF" stroke-opacity="0.4"/>
</g>
<g id="Polygon 19_2">
<path d="M699.193 1356.82L697.802 1328.68L689.192 1330.48L699.193 1356.82Z" fill="#D9D9D9" fill-opacity="0.3"/>
<path d="M697.332 1329.29L689.867 1330.85L698.537 1353.69L697.332 1329.29Z" stroke="#00BFFF" stroke-opacity="0.4"/>
</g>
<g id="Polygon 4_2">
<path d="M700.213 1296.17L698.226 1322.23L706.985 1321.41L700.213 1296.17Z" fill="#D9D9D9" fill-opacity="0.3"/>
<path d="M698.769 1321.67L706.349 1320.97L700.49 1299.12L698.769 1321.67Z" stroke="#00BFFF" stroke-opacity="0.4"/>
</g>
<g id="Polygon 20_2">
<path d="M694.005 1348.85L697.164 1322.9L688.377 1323.33L694.005 1348.85Z" fill="#D9D9D9" fill-opacity="0.3"/>
<path d="M696.596 1323.43L688.993 1323.8L693.862 1345.88L696.596 1323.43Z" stroke="#00BFFF" stroke-opacity="0.4"/>
</g>
<g id="Polygon 8_2">
<path d="M696.7 1296.04L692.302 1321.8L701.098 1321.8L696.7 1296.04Z" fill="#D9D9D9" fill-opacity="0.3"/>
<path d="M692.894 1321.3L700.506 1321.3L696.701 1299L692.894 1321.3Z" stroke="#00BFFF" stroke-opacity="0.4"/>
</g>
<g id="Polygon 12_2">
<path d="M701.692 1345.75L707.937 1320.37L699.164 1319.74L701.692 1345.75Z" fill="#D9D9D9" fill-opacity="0.3"/>
<path d="M707.311 1320.83L699.718 1320.28L701.906 1342.79L707.311 1320.83Z" stroke="#00BFFF" stroke-opacity="0.4"/>
</g>
</g>
</g>
<g id="[&#230;&#139;&#161;&#229;&#188;&#181;&#232;&#161;&#151;]&#227;&#131;&#159;&#227;&#130;&#185;&#227;&#131;&#136;&#227;&#131;&#187;&#227;&#131;&#180;&#227;&#130;&#163;&#227;&#131;&#172;&#227;&#131;&#131;&#227;&#130;&#184;&#229;&#141;&#151;&#232;&#165;&#191;">
<g id="Group 5_3">
<path id="Polygon 22_3" d="M421.641 1640.07L409.729 1642.28L406.787 1647.25L415.031 1651.23L428.252 1651.23L436.495 1647.25L433.553 1642.28L421.641 1640.07Z" fill="#F0FEFF" fill-opacity="0.4"/>
<path id="Polygon 23_3" d="M421.671 1636.08L409.552 1638.32L406.559 1643.36L414.945 1647.41L428.396 1647.41L436.782 1643.36L433.789 1638.32L421.671 1636.08Z" fill="#F0FEFF" fill-opacity="0.4"/>
</g>
<g id="Group 2_3">
<g id="Polygon 1_3">
<path d="M421.145 1579L416.747 1603L425.544 1603L421.145 1579Z" fill="#D9D9D9" fill-opacity="0.3"/>
<path d="M417.347 1602.5L424.944 1602.5L421.146 1581.77L417.347 1602.5Z" stroke="#00BFFF" stroke-opacity="0.4"/>
</g>
<g id="Polygon 11_3">
<path d="M418.445 1643L422.843 1617.24L414.046 1617.24L418.445 1643Z" fill="#D9D9D9" fill-opacity="0.3"/>
<path d="M422.251 1617.74L414.639 1617.74L418.444 1640.03L422.251 1617.74Z" stroke="#00BFFF" stroke-opacity="0.4"/>
</g>
<g id="Polygon 2_3">
<path d="M419.354 1585.74L413.075 1611.11L421.848 1611.75L419.354 1585.74Z" fill="#D9D9D9" fill-opacity="0.3"/>
<path d="M413.703 1610.65L421.294 1611.21L419.136 1588.7L413.703 1610.65Z" stroke="#00BFFF" stroke-opacity="0.4"/>
</g>
<g id="Polygon 6_3">
<path d="M420.275 1581.36L412.464 1612.28L420.383 1613.25L420.275 1581.36Z" fill="#D9D9D9" fill-opacity="0.3"/>
<path d="M413.088 1611.85L419.881 1612.69L419.788 1585.33L413.088 1611.85Z" stroke="#00BFFF" stroke-opacity="0.4"/>
</g>
<g id="Polygon 13_3">
<path d="M422.437 1643.47L426.835 1617.71L418.039 1617.71L422.437 1643.47Z" fill="#D9D9D9" fill-opacity="0.3"/>
<path d="M426.243 1618.21L418.631 1618.21L422.437 1640.5L426.243 1618.21Z" stroke="#00BFFF" stroke-opacity="0.4"/>
</g>
<g id="Polygon 5_3">
<path d="M420.769 1580.42L415.266 1605.97L424.055 1606.35L420.769 1580.42Z" fill="#D9D9D9" fill-opacity="0.3"/>
<path d="M415.879 1605.5L423.485 1605.83L420.642 1583.39L415.879 1605.5Z" stroke="#00BFFF" stroke-opacity="0.4"/>
</g>
<g id="Polygon 14_3">
<path d="M426.098 1642.97L428.908 1610.14L423.871 1610.09L426.098 1642.97Z" fill="#D9D9D9" fill-opacity="0.3"/>
<path d="M428.364 1610.63L424.405 1610.6L426.156 1636.42L428.364 1610.63Z" stroke="#00BFFF" stroke-opacity="0.4"/>
</g>
<g id="Polygon 15_3">
<path d="M419.639 1641.07L430.651 1617.37L422.163 1615.06L419.639 1641.07Z" fill="#D9D9D9" fill-opacity="0.3"/>
<path d="M429.948 1617.7L422.603 1615.7L420.418 1638.2L429.948 1617.7Z" stroke="#00BFFF" stroke-opacity="0.4"/>
</g>
<g id="Polygon 3_3">
<path d="M422.809 1584.46L418.999 1610.32L427.793 1610.12L422.809 1584.46Z" fill="#D9D9D9" fill-opacity="0.3"/>
<path d="M419.58 1609.8L427.19 1609.63L422.877 1587.43L419.58 1609.8Z" stroke="#00BFFF" stroke-opacity="0.4"/>
</g>
<g id="Polygon 16_3">
<path d="M420.154 1640.65L422.061 1619.26L415.107 1619.77L420.154 1640.65Z" fill="#D9D9D9" fill-opacity="0.3"/>
<path d="M421.51 1619.8L415.731 1620.23L419.926 1637.58L421.51 1619.8Z" stroke="#00BFFF" stroke-opacity="0.4"/>
</g>
<g id="Polygon 7_3">
<path d="M425.608 1626.2L429.726 1600.39L420.93 1600.49L425.608 1626.2Z" fill="#D9D9D9" fill-opacity="0.3"/>
<path d="M429.139 1600.9L421.527 1600.98L425.575 1623.23L429.139 1600.9Z" stroke="#00BFFF" stroke-opacity="0.4"/>
</g>
<g id="Polygon 21_3">
<path d="M425.243 1623.85L429.369 1597.78L420.552 1597.88L425.243 1623.85Z" fill="#D9D9D9" fill-opacity="0.3"/>
<path d="M428.783 1598.29L421.148 1598.37L425.21 1620.86L428.783 1598.29Z" stroke="#00BFFF" stroke-opacity="0.4"/>
</g>
<g id="Polygon 17_3">
<path d="M417.329 1640.94L421.727 1615.18L412.931 1615.18L417.329 1640.94Z" fill="#D9D9D9" fill-opacity="0.3"/>
<path d="M421.135 1615.68L413.523 1615.68L417.329 1637.97L421.135 1615.68Z" stroke="#00BFFF" stroke-opacity="0.4"/>
</g>
<g id="Polygon 10_3">
<path d="M419.971 1590.98L415.573 1616.74L424.369 1616.74L419.971 1590.98Z" fill="#D9D9D9" fill-opacity="0.3"/>
<path d="M416.165 1616.24L423.777 1616.24L419.972 1593.95L416.165 1616.24Z" stroke="#00BFFF" stroke-opacity="0.4"/>
</g>
<g id="Polygon 18_3">
<path d="M420.617 1636.66L425.015 1610.9L416.219 1610.9L420.617 1636.66Z" fill="#D9D9D9" fill-opacity="0.3"/>
<path d="M424.423 1611.4L416.811 1611.4L420.617 1633.69L424.423 1611.4Z" stroke="#00BFFF" stroke-opacity="0.4"/>
</g>
<g id="Polygon 9_3">
<path d="M416.92 1590.05L411.886 1615.69L420.68 1615.91L416.92 1590.05Z" fill="#D9D9D9" fill-opacity="0.3"/>
<path d="M412.49 1615.2L420.1 1615.39L416.847 1593.01L412.49 1615.2Z" stroke="#00BFFF" stroke-opacity="0.4"/>
</g>
<g id="Polygon 19_3">
<path d="M422.522 1648.65L421.132 1620.51L412.522 1622.31L422.522 1648.65Z" fill="#D9D9D9" fill-opacity="0.3"/>
<path d="M420.662 1621.12L413.197 1622.68L421.867 1645.52L420.662 1621.12Z" stroke="#00BFFF" stroke-opacity="0.4"/>
</g>
<g id="Polygon 4_3">
<path d="M423.543 1588L421.556 1614.06L430.314 1613.24L423.543 1588Z" fill="#D9D9D9" fill-opacity="0.3"/>
<path d="M422.099 1613.5L429.679 1612.8L423.819 1590.95L422.099 1613.5Z" stroke="#00BFFF" stroke-opacity="0.4"/>
</g>
<g id="Polygon 20_3">
<path d="M417.335 1640.68L420.494 1614.73L411.707 1615.16L417.335 1640.68Z" fill="#D9D9D9" fill-opacity="0.3"/>
<path d="M419.926 1615.26L412.323 1615.63L417.192 1637.71L419.926 1615.26Z" stroke="#00BFFF" stroke-opacity="0.4"/>
</g>
<g id="Polygon 8_3">
<path d="M420.03 1587.87L415.632 1613.63L424.428 1613.63L420.03 1587.87Z" fill="#D9D9D9" fill-opacity="0.3"/>
<path d="M416.224 1613.13L423.836 1613.13L420.03 1590.83L416.224 1613.13Z" stroke="#00BFFF" stroke-opacity="0.4"/>
</g>
<g id="Polygon 12_3">
<path d="M425.022 1637.58L431.267 1612.2L422.494 1611.57L425.022 1637.58Z" fill="#D9D9D9" fill-opacity="0.3"/>
<path d="M430.64 1612.66L423.048 1612.11L425.236 1634.62L430.64 1612.66Z" stroke="#00BFFF" stroke-opacity="0.4"/>
</g>
</g>
</g>
<g id="[&#230;&#139;&#161;&#229;&#188;&#181;&#232;&#161;&#151;]&#227;&#131;&#159;&#227;&#130;&#185;&#227;&#131;&#136;&#227;&#131;&#187;&#227;&#131;&#180;&#227;&#130;&#163;&#227;&#131;&#172;&#227;&#131;&#131;&#227;&#130;&#184;&#229;&#141;&#151;&#230;&#157;&#177;">
<g id="Group 5_4">
<path id="Polygon 22_4" d="M1092.31 1384.24L1080.4 1386.45L1077.46 1391.42L1085.7 1395.4L1098.92 1395.4L1107.17 1391.42L1104.22 1386.45L1092.31 1384.24Z" fill="#F0FEFF" fill-opacity="0.4"/>
<path id="Polygon 23_4" d="M1092.34 1380.25L1080.22 1382.49L1077.23 1387.53L1085.62 1391.58L1099.07 1391.58L1107.45 1387.53L1104.46 1382.49L1092.34 1380.25Z" fill="#F0FEFF" fill-opacity="0.4"/>
</g>
<g id="Group 2_4">
<g id="Polygon 1_4">
<path d="M1091.82 1323.17L1087.42 1347.17L1096.21 1347.17L1091.82 1323.17Z" fill="#D9D9D9" fill-opacity="0.3"/>
<path d="M1088.02 1346.67L1095.61 1346.67L1091.82 1325.94L1088.02 1346.67Z" stroke="#00BFFF" stroke-opacity="0.4"/>
</g>
<g id="Polygon 11_4">
<path d="M1089.11 1387.17L1093.51 1361.41L1084.72 1361.41L1089.11 1387.17Z" fill="#D9D9D9" fill-opacity="0.3"/>
<path d="M1092.92 1361.91L1085.31 1361.91L1089.11 1384.2L1092.92 1361.91Z" stroke="#00BFFF" stroke-opacity="0.4"/>
</g>
<g id="Polygon 2_4">
<path d="M1090.02 1329.91L1083.75 1355.28L1092.52 1355.92L1090.02 1329.91Z" fill="#D9D9D9" fill-opacity="0.3"/>
<path d="M1084.37 1354.82L1091.96 1355.38L1089.81 1332.87L1084.37 1354.82Z" stroke="#00BFFF" stroke-opacity="0.4"/>
</g>
<g id="Polygon 6_4">
<path d="M1090.95 1325.53L1083.13 1356.45L1091.05 1357.42L1090.95 1325.53Z" fill="#D9D9D9" fill-opacity="0.3"/>
<path d="M1083.76 1356.02L1090.55 1356.86L1090.46 1329.5L1083.76 1356.02Z" stroke="#00BFFF" stroke-opacity="0.4"/>
</g>
<g id="Polygon 13_4">
<path d="M1093.11 1387.64L1097.51 1361.88L1088.71 1361.88L1093.11 1387.64Z" fill="#D9D9D9" fill-opacity="0.3"/>
<path d="M1096.91 1362.38L1089.3 1362.38L1093.11 1384.67L1096.91 1362.38Z" stroke="#00BFFF" stroke-opacity="0.4"/>
</g>
<g id="Polygon 5_4">
<path d="M1091.44 1324.6L1085.94 1350.14L1094.72 1350.52L1091.44 1324.6Z" fill="#D9D9D9" fill-opacity="0.3"/>
<path d="M1086.55 1349.67L1094.15 1350L1091.31 1327.56L1086.55 1349.67Z" stroke="#00BFFF" stroke-opacity="0.4"/>
</g>
<g id="Polygon 14_4">
<path d="M1096.77 1387.14L1099.58 1354.31L1094.54 1354.26L1096.77 1387.14Z" fill="#D9D9D9" fill-opacity="0.3"/>
<path d="M1099.03 1354.8L1095.08 1354.77L1096.83 1380.59L1099.03 1354.8Z" stroke="#00BFFF" stroke-opacity="0.4"/>
</g>
<g id="Polygon 15_4">
<path d="M1090.31 1385.24L1101.32 1361.54L1092.83 1359.23L1090.31 1385.24Z" fill="#D9D9D9" fill-opacity="0.3"/>
<path d="M1100.62 1361.87L1093.27 1359.87L1091.09 1382.37L1100.62 1361.87Z" stroke="#00BFFF" stroke-opacity="0.4"/>
</g>
<g id="Polygon 3_4">
<path d="M1093.48 1328.64L1089.67 1354.49L1098.46 1354.29L1093.48 1328.64Z" fill="#D9D9D9" fill-opacity="0.3"/>
<path d="M1090.25 1353.98L1097.86 1353.8L1093.55 1331.6L1090.25 1353.98Z" stroke="#00BFFF" stroke-opacity="0.4"/>
</g>
<g id="Polygon 16_4">
<path d="M1090.82 1384.82L1092.73 1363.43L1085.78 1363.94L1090.82 1384.82Z" fill="#D9D9D9" fill-opacity="0.3"/>
<path d="M1092.18 1363.97L1086.4 1364.4L1090.6 1381.75L1092.18 1363.97Z" stroke="#00BFFF" stroke-opacity="0.4"/>
</g>
<g id="Polygon 7_4">
<path d="M1096.28 1370.37L1100.4 1344.56L1091.6 1344.66L1096.28 1370.37Z" fill="#D9D9D9" fill-opacity="0.3"/>
<path d="M1099.81 1345.07L1092.2 1345.15L1096.25 1367.4L1099.81 1345.07Z" stroke="#00BFFF" stroke-opacity="0.4"/>
</g>
<g id="Polygon 21_4">
<path d="M1095.91 1368.02L1100.04 1341.95L1091.22 1342.05L1095.91 1368.02Z" fill="#D9D9D9" fill-opacity="0.3"/>
<path d="M1099.45 1342.46L1091.82 1342.54L1095.88 1365.03L1099.45 1342.46Z" stroke="#00BFFF" stroke-opacity="0.4"/>
</g>
<g id="Polygon 17_4">
<path d="M1088 1385.11L1092.4 1359.35L1083.6 1359.35L1088 1385.11Z" fill="#D9D9D9" fill-opacity="0.3"/>
<path d="M1091.81 1359.85L1084.19 1359.85L1088 1382.14L1091.81 1359.85Z" stroke="#00BFFF" stroke-opacity="0.4"/>
</g>
<g id="Polygon 10_4">
<path d="M1090.64 1335.15L1086.24 1360.91L1095.04 1360.91L1090.64 1335.15Z" fill="#D9D9D9" fill-opacity="0.3"/>
<path d="M1086.84 1360.41L1094.45 1360.41L1090.64 1338.12L1086.84 1360.41Z" stroke="#00BFFF" stroke-opacity="0.4"/>
</g>
<g id="Polygon 18_4">
<path d="M1091.29 1380.83L1095.69 1355.07L1086.89 1355.07L1091.29 1380.83Z" fill="#D9D9D9" fill-opacity="0.3"/>
<path d="M1095.09 1355.57L1087.48 1355.57L1091.29 1377.86L1095.09 1355.57Z" stroke="#00BFFF" stroke-opacity="0.4"/>
</g>
<g id="Polygon 9_4">
<path d="M1087.59 1334.22L1082.56 1359.86L1091.35 1360.08L1087.59 1334.22Z" fill="#D9D9D9" fill-opacity="0.3"/>
<path d="M1083.16 1359.37L1090.77 1359.56L1087.52 1337.18L1083.16 1359.37Z" stroke="#00BFFF" stroke-opacity="0.4"/>
</g>
<g id="Polygon 19_4">
<path d="M1093.19 1392.82L1091.8 1364.68L1083.19 1366.48L1093.19 1392.82Z" fill="#D9D9D9" fill-opacity="0.3"/>
<path d="M1091.33 1365.29L1083.87 1366.85L1092.54 1389.69L1091.33 1365.29Z" stroke="#00BFFF" stroke-opacity="0.4"/>
</g>
<g id="Polygon 4_4">
<path d="M1094.21 1332.17L1092.23 1358.23L1100.98 1357.41L1094.21 1332.17Z" fill="#D9D9D9" fill-opacity="0.3"/>
<path d="M1092.77 1357.67L1100.35 1356.97L1094.49 1335.12L1092.77 1357.67Z" stroke="#00BFFF" stroke-opacity="0.4"/>
</g>
<g id="Polygon 20_4">
<path d="M1088.01 1384.85L1091.16 1358.9L1082.38 1359.33L1088.01 1384.85Z" fill="#D9D9D9" fill-opacity="0.3"/>
<path d="M1090.6 1359.43L1082.99 1359.8L1087.86 1381.88L1090.6 1359.43Z" stroke="#00BFFF" stroke-opacity="0.4"/>
</g>
<g id="Polygon 8_4">
<path d="M1090.7 1332.04L1086.3 1357.8L1095.1 1357.8L1090.7 1332.04Z" fill="#D9D9D9" fill-opacity="0.3"/>
<path d="M1086.89 1357.3L1094.51 1357.3L1090.7 1335L1086.89 1357.3Z" stroke="#00BFFF" stroke-opacity="0.4"/>
</g>
<g id="Polygon 12_4">
<path d="M1095.69 1381.75L1101.94 1356.37L1093.16 1355.74L1095.69 1381.75Z" fill="#D9D9D9" fill-opacity="0.3"/>
<path d="M1101.31 1356.83L1093.72 1356.28L1095.91 1378.79L1101.31 1356.83Z" stroke="#00BFFF" stroke-opacity="0.4"/>
</g>
</g>
</g>
<g id="[&#230;&#139;&#161;&#229;&#188;&#181;&#232;&#161;&#151;]&#227;&#131;&#136;&#227;&#131;&#131;&#227;&#131;&#151;&#227;&#131;&#158;&#227;&#130;&#185;&#227;&#131;&#136;">
<g id="Group 5_5">
<path id="Polygon 22_5" d="M870.312 273.241L858.4 275.451L855.458 280.419L863.701 284.402L876.922 284.402L885.166 280.419L882.224 275.451L870.312 273.241Z" fill="#F0FEFF" fill-opacity="0.4"/>
<path id="Polygon 23_5" d="M870.341 269.248L858.223 271.492L855.23 276.534L863.616 280.577L877.066 280.577L885.453 276.534L882.46 271.492L870.341 269.248Z" fill="#F0FEFF" fill-opacity="0.4"/>
</g>
<g id="Group 2_5">
<g id="Polygon 1_5">
<path d="M869.816 212.17L865.418 236.169L874.214 236.169L869.816 212.17Z" fill="#D9D9D9" fill-opacity="0.3"/>
<path d="M866.018 235.669L873.614 235.669L869.817 214.943L866.018 235.669Z" stroke="#00BFFF" stroke-opacity="0.4"/>
</g>
<g id="Polygon 11_5">
<path d="M867.115 276.167L871.514 250.407L862.717 250.407L867.115 276.167Z" fill="#D9D9D9" fill-opacity="0.3"/>
<path d="M870.921 250.907L863.309 250.907L867.115 273.198L870.921 250.907Z" stroke="#00BFFF" stroke-opacity="0.4"/>
</g>
<g id="Polygon 2_5">
<path d="M868.024 218.91L861.746 244.277L870.519 244.923L868.024 218.91Z" fill="#D9D9D9" fill-opacity="0.3"/>
<path d="M862.373 243.822L869.965 244.381L867.807 221.871L862.373 243.822Z" stroke="#00BFFF" stroke-opacity="0.4"/>
</g>
<g id="Polygon 6_5">
<path d="M868.946 214.532L861.135 245.451L869.054 246.422L868.946 214.532Z" fill="#D9D9D9" fill-opacity="0.3"/>
<path d="M861.758 245.024L868.551 245.857L868.459 218.5L861.758 245.024Z" stroke="#00BFFF" stroke-opacity="0.4"/>
</g>
<g id="Polygon 13_5">
<path d="M871.108 276.636L875.506 250.876L866.71 250.876L871.108 276.636Z" fill="#D9D9D9" fill-opacity="0.3"/>
<path d="M874.914 251.377L867.302 251.377L871.107 273.668L874.914 251.377Z" stroke="#00BFFF" stroke-opacity="0.4"/>
</g>
<g id="Polygon 5_5">
<path d="M869.439 213.595L863.937 239.142L872.725 239.521L869.439 213.595Z" fill="#D9D9D9" fill-opacity="0.3"/>
<path d="M864.55 238.668L872.155 238.995L869.312 216.561L864.55 238.668Z" stroke="#00BFFF" stroke-opacity="0.4"/>
</g>
<g id="Polygon 14_5">
<path d="M874.769 276.137L877.578 243.307L872.541 243.263L874.769 276.137Z" fill="#D9D9D9" fill-opacity="0.3"/>
<path d="M877.035 243.802L873.076 243.767L874.827 269.592L877.035 243.802Z" stroke="#00BFFF" stroke-opacity="0.4"/>
</g>
<g id="Polygon 15_5">
<path d="M868.31 274.239L879.321 250.54L870.834 248.229L868.31 274.239Z" fill="#D9D9D9" fill-opacity="0.3"/>
<path d="M878.619 250.867L871.274 248.867L869.089 271.375L878.619 250.867Z" stroke="#00BFFF" stroke-opacity="0.4"/>
</g>
<g id="Polygon 3_5">
<path d="M871.48 217.635L867.67 243.489L876.464 243.288L871.48 217.635Z" fill="#D9D9D9" fill-opacity="0.3"/>
<path d="M868.25 242.975L875.861 242.801L871.548 220.603L868.25 242.975Z" stroke="#00BFFF" stroke-opacity="0.4"/>
</g>
<g id="Polygon 16_5">
<path d="M868.825 273.82L870.732 252.427L863.777 252.944L868.825 273.82Z" fill="#D9D9D9" fill-opacity="0.3"/>
<path d="M870.181 252.97L864.402 253.399L868.597 270.75L870.181 252.97Z" stroke="#00BFFF" stroke-opacity="0.4"/>
</g>
<g id="Polygon 7_5">
<path d="M874.279 259.369L878.396 233.563L869.601 233.659L874.279 259.369Z" fill="#D9D9D9" fill-opacity="0.3"/>
<path d="M877.81 234.07L870.198 234.153L874.246 256.401L877.81 234.07Z" stroke="#00BFFF" stroke-opacity="0.4"/>
</g>
<g id="Polygon 21_5">
<path d="M873.914 257.021L878.04 230.95L869.222 231.046L873.914 257.021Z" fill="#D9D9D9" fill-opacity="0.3"/>
<path d="M877.453 231.456L869.819 231.539L873.881 254.027L877.453 231.456Z" stroke="#00BFFF" stroke-opacity="0.4"/>
</g>
<g id="Polygon 17_5">
<path d="M866 274.112L870.398 248.352L861.602 248.352L866 274.112Z" fill="#D9D9D9" fill-opacity="0.3"/>
<path d="M869.806 248.852L862.194 248.852L865.999 271.143L869.806 248.852Z" stroke="#00BFFF" stroke-opacity="0.4"/>
</g>
<g id="Polygon 10_5">
<path d="M868.642 224.148L864.244 249.908L873.04 249.908L868.642 224.148Z" fill="#D9D9D9" fill-opacity="0.3"/>
<path d="M864.836 249.407L872.448 249.407L868.642 227.116L864.836 249.407Z" stroke="#00BFFF" stroke-opacity="0.4"/>
</g>
<g id="Polygon 18_5">
<path d="M869.288 269.826L873.686 244.066L864.89 244.066L869.288 269.826Z" fill="#D9D9D9" fill-opacity="0.3"/>
<path d="M873.094 244.566L865.482 244.566L869.287 266.857L873.094 244.566Z" stroke="#00BFFF" stroke-opacity="0.4"/>
</g>
<g id="Polygon 9_5">
<path d="M865.59 223.216L860.557 248.86L869.35 249.077L865.59 223.216Z" fill="#D9D9D9" fill-opacity="0.3"/>
<path d="M861.161 248.374L868.771 248.563L865.517 226.184L861.161 248.374Z" stroke="#00BFFF" stroke-opacity="0.4"/>
</g>
<g id="Polygon 19_5">
<path d="M871.193 281.823L869.803 253.682L861.193 255.482L871.193 281.823Z" fill="#D9D9D9" fill-opacity="0.3"/>
<path d="M869.333 254.291L861.868 255.852L870.538 278.69L869.333 254.291Z" stroke="#00BFFF" stroke-opacity="0.4"/>
</g>
<g id="Polygon 4_5">
<path d="M872.214 221.169L870.227 247.226L878.985 246.409L872.214 221.169Z" fill="#D9D9D9" fill-opacity="0.3"/>
<path d="M870.77 246.673L878.349 245.966L872.49 224.125L870.77 246.673Z" stroke="#00BFFF" stroke-opacity="0.4"/>
</g>
<g id="Polygon 20_5">
<path d="M866.006 273.846L869.164 247.905L860.378 248.326L866.006 273.846Z" fill="#D9D9D9" fill-opacity="0.3"/>
<path d="M868.597 248.433L860.993 248.798L865.863 270.881L868.597 248.433Z" stroke="#00BFFF" stroke-opacity="0.4"/>
</g>
<g id="Polygon 8_5">
<path d="M868.701 221.036L864.302 246.796L873.099 246.796L868.701 221.036Z" fill="#D9D9D9" fill-opacity="0.3"/>
<path d="M864.894 246.296L872.507 246.296L868.701 224.005L864.894 246.296Z" stroke="#00BFFF" stroke-opacity="0.4"/>
</g>
<g id="Polygon 12_5">
<path d="M873.693 270.748L879.938 245.373L871.164 244.738L873.693 270.748Z" fill="#D9D9D9" fill-opacity="0.3"/>
<path d="M879.311 245.829L871.719 245.28L873.906 267.787L879.311 245.829Z" stroke="#00BFFF" stroke-opacity="0.4"/>
</g>
</g>
</g>
<g id="[&#230;&#139;&#161;&#229;&#188;&#181;&#232;&#161;&#151;]&#227;&#131;&#159;&#227;&#130;&#185;&#227;&#131;&#136;&#227;&#130;&#178;&#227;&#131;&#188;&#227;&#131;&#136;&#227;&#131;&#187;&#227;&#130;&#185;&#227;&#130;&#175;&#227;&#130;&#168;&#227;&#130;&#162;">
<g id="Group 5_6">
<path id="Polygon 22_6" d="M1138.31 971.241L1126.4 973.451L1123.46 978.419L1131.7 982.402L1144.92 982.402L1153.17 978.419L1150.22 973.451L1138.31 971.241Z" fill="#F0FEFF" fill-opacity="0.4"/>
<path id="Polygon 23_6" d="M1138.34 967.248L1126.22 969.492L1123.23 974.534L1131.62 978.577L1145.07 978.577L1153.45 974.534L1150.46 969.492L1138.34 967.248Z" fill="#F0FEFF" fill-opacity="0.4"/>
</g>
<g id="Group 2_6">
<g id="Polygon 1_6">
<path d="M1137.82 910.17L1133.42 934.169L1142.21 934.169L1137.82 910.17Z" fill="#D9D9D9" fill-opacity="0.3"/>
<path d="M1134.02 933.669L1141.61 933.669L1137.82 912.943L1134.02 933.669Z" stroke="#00BFFF" stroke-opacity="0.4"/>
</g>
<g id="Polygon 11_6">
<path d="M1135.11 974.167L1139.51 948.407L1130.72 948.407L1135.11 974.167Z" fill="#D9D9D9" fill-opacity="0.3"/>
<path d="M1138.92 948.907L1131.31 948.907L1135.11 971.198L1138.92 948.907Z" stroke="#00BFFF" stroke-opacity="0.4"/>
</g>
<g id="Polygon 2_6">
<path d="M1136.02 916.91L1129.75 942.277L1138.52 942.923L1136.02 916.91Z" fill="#D9D9D9" fill-opacity="0.3"/>
<path d="M1130.37 941.822L1137.96 942.381L1135.81 919.871L1130.37 941.822Z" stroke="#00BFFF" stroke-opacity="0.4"/>
</g>
<g id="Polygon 6_6">
<path d="M1136.95 912.532L1129.13 943.451L1137.05 944.422L1136.95 912.532Z" fill="#D9D9D9" fill-opacity="0.3"/>
<path d="M1129.76 943.024L1136.55 943.857L1136.46 916.5L1129.76 943.024Z" stroke="#00BFFF" stroke-opacity="0.4"/>
</g>
<g id="Polygon 13_6">
<path d="M1139.11 974.636L1143.51 948.876L1134.71 948.876L1139.11 974.636Z" fill="#D9D9D9" fill-opacity="0.3"/>
<path d="M1142.91 949.377L1135.3 949.377L1139.11 971.668L1142.91 949.377Z" stroke="#00BFFF" stroke-opacity="0.4"/>
</g>
<g id="Polygon 5_6">
<path d="M1137.44 911.595L1131.94 937.142L1140.72 937.521L1137.44 911.595Z" fill="#D9D9D9" fill-opacity="0.3"/>
<path d="M1132.55 936.668L1140.15 936.995L1137.31 914.561L1132.55 936.668Z" stroke="#00BFFF" stroke-opacity="0.4"/>
</g>
<g id="Polygon 14_6">
<path d="M1142.77 974.137L1145.58 941.307L1140.54 941.263L1142.77 974.137Z" fill="#D9D9D9" fill-opacity="0.3"/>
<path d="M1145.03 941.802L1141.08 941.767L1142.83 967.592L1145.03 941.802Z" stroke="#00BFFF" stroke-opacity="0.4"/>
</g>
<g id="Polygon 15_6">
<path d="M1136.31 972.239L1147.32 948.54L1138.83 946.229L1136.31 972.239Z" fill="#D9D9D9" fill-opacity="0.3"/>
<path d="M1146.62 948.867L1139.27 946.867L1137.09 969.375L1146.62 948.867Z" stroke="#00BFFF" stroke-opacity="0.4"/>
</g>
<g id="Polygon 3_6">
<path d="M1139.48 915.635L1135.67 941.489L1144.46 941.288L1139.48 915.635Z" fill="#D9D9D9" fill-opacity="0.3"/>
<path d="M1136.25 940.975L1143.86 940.801L1139.55 918.603L1136.25 940.975Z" stroke="#00BFFF" stroke-opacity="0.4"/>
</g>
<g id="Polygon 16_6">
<path d="M1136.82 971.82L1138.73 950.427L1131.78 950.944L1136.82 971.82Z" fill="#D9D9D9" fill-opacity="0.3"/>
<path d="M1138.18 950.97L1132.4 951.399L1136.6 968.75L1138.18 950.97Z" stroke="#00BFFF" stroke-opacity="0.4"/>
</g>
<g id="Polygon 7_6">
<path d="M1142.28 957.369L1146.4 931.563L1137.6 931.659L1142.28 957.369Z" fill="#D9D9D9" fill-opacity="0.3"/>
<path d="M1145.81 932.07L1138.2 932.153L1142.25 954.401L1145.81 932.07Z" stroke="#00BFFF" stroke-opacity="0.4"/>
</g>
<g id="Polygon 21_6">
<path d="M1141.91 955.021L1146.04 928.95L1137.22 929.046L1141.91 955.021Z" fill="#D9D9D9" fill-opacity="0.3"/>
<path d="M1145.45 929.456L1137.82 929.539L1141.88 952.027L1145.45 929.456Z" stroke="#00BFFF" stroke-opacity="0.4"/>
</g>
<g id="Polygon 17_6">
<path d="M1134 972.112L1138.4 946.352L1129.6 946.352L1134 972.112Z" fill="#D9D9D9" fill-opacity="0.3"/>
<path d="M1137.81 946.852L1130.19 946.852L1134 969.143L1137.81 946.852Z" stroke="#00BFFF" stroke-opacity="0.4"/>
</g>
<g id="Polygon 10_6">
<path d="M1136.64 922.148L1132.24 947.908L1141.04 947.908L1136.64 922.148Z" fill="#D9D9D9" fill-opacity="0.3"/>
<path d="M1132.84 947.407L1140.45 947.407L1136.64 925.116L1132.84 947.407Z" stroke="#00BFFF" stroke-opacity="0.4"/>
</g>
<g id="Polygon 18_6">
<path d="M1137.29 967.826L1141.69 942.066L1132.89 942.066L1137.29 967.826Z" fill="#D9D9D9" fill-opacity="0.3"/>
<path d="M1141.09 942.566L1133.48 942.566L1137.29 964.857L1141.09 942.566Z" stroke="#00BFFF" stroke-opacity="0.4"/>
</g>
<g id="Polygon 9_6">
<path d="M1133.59 921.216L1128.56 946.86L1137.35 947.077L1133.59 921.216Z" fill="#D9D9D9" fill-opacity="0.3"/>
<path d="M1129.16 946.374L1136.77 946.563L1133.52 924.184L1129.16 946.374Z" stroke="#00BFFF" stroke-opacity="0.4"/>
</g>
<g id="Polygon 19_6">
<path d="M1139.19 979.823L1137.8 951.682L1129.19 953.482L1139.19 979.823Z" fill="#D9D9D9" fill-opacity="0.3"/>
<path d="M1137.33 952.291L1129.87 953.852L1138.54 976.69L1137.33 952.291Z" stroke="#00BFFF" stroke-opacity="0.4"/>
</g>
<g id="Polygon 4_6">
<path d="M1140.21 919.169L1138.23 945.226L1146.98 944.409L1140.21 919.169Z" fill="#D9D9D9" fill-opacity="0.3"/>
<path d="M1138.77 944.673L1146.35 943.966L1140.49 922.125L1138.77 944.673Z" stroke="#00BFFF" stroke-opacity="0.4"/>
</g>
<g id="Polygon 20_6">
<path d="M1134.01 971.846L1137.16 945.905L1128.38 946.326L1134.01 971.846Z" fill="#D9D9D9" fill-opacity="0.3"/>
<path d="M1136.6 946.433L1128.99 946.798L1133.86 968.881L1136.6 946.433Z" stroke="#00BFFF" stroke-opacity="0.4"/>
</g>
<g id="Polygon 8_6">
<path d="M1136.7 919.036L1132.3 944.796L1141.1 944.796L1136.7 919.036Z" fill="#D9D9D9" fill-opacity="0.3"/>
<path d="M1132.89 944.296L1140.51 944.296L1136.7 922.005L1132.89 944.296Z" stroke="#00BFFF" stroke-opacity="0.4"/>
</g>
<g id="Polygon 12_6">
<path d="M1141.69 968.748L1147.94 943.373L1139.16 942.738L1141.69 968.748Z" fill="#D9D9D9" fill-opacity="0.3"/>
<path d="M1147.31 943.829L1139.72 943.28L1141.91 965.787L1147.31 943.829Z" stroke="#00BFFF" stroke-opacity="0.4"/>
</g>
</g>
</g>
<g id="[&#230;&#139;&#161;&#229;&#188;&#181;&#232;&#161;&#151;]&#227;&#131;&#159;&#227;&#130;&#185;&#227;&#131;&#136;&#227;&#131;&#187;&#227;&#131;&#180;&#227;&#130;&#163;&#227;&#131;&#172;&#227;&#131;&#131;&#227;&#130;&#184;&#229;&#140;&#151;&#232;&#165;&#191;">
<g id="Group 5_7">
<path id="Polygon 22_7" d="M410.311 709.241L398.4 711.451L395.458 716.419L403.701 720.402L416.922 720.402L425.165 716.419L422.223 711.451L410.311 709.241Z" fill="#F0FEFF" fill-opacity="0.4"/>
<path id="Polygon 23_7" d="M410.341 705.248L398.222 707.492L395.229 712.534L403.615 716.577L417.066 716.577L425.452 712.534L422.459 707.492L410.341 705.248Z" fill="#F0FEFF" fill-opacity="0.4"/>
</g>
<g id="Group 2_7">
<g id="Polygon 1_7">
<path d="M409.816 648.17L405.417 672.169L414.214 672.169L409.816 648.17Z" fill="#D9D9D9" fill-opacity="0.3"/>
<path d="M406.017 671.669L413.614 671.669L409.816 650.943L406.017 671.669Z" stroke="#00BFFF" stroke-opacity="0.4"/>
</g>
<g id="Polygon 11_7">
<path d="M407.115 712.167L411.513 686.407L402.717 686.407L407.115 712.167Z" fill="#D9D9D9" fill-opacity="0.3"/>
<path d="M410.921 686.907L403.309 686.907L407.114 709.198L410.921 686.907Z" stroke="#00BFFF" stroke-opacity="0.4"/>
</g>
<g id="Polygon 2_7">
<path d="M408.024 654.91L401.746 680.277L410.518 680.923L408.024 654.91Z" fill="#D9D9D9" fill-opacity="0.3"/>
<path d="M402.373 679.822L409.965 680.381L407.806 657.871L402.373 679.822Z" stroke="#00BFFF" stroke-opacity="0.4"/>
</g>
<g id="Polygon 6_7">
<path d="M408.945 650.532L401.134 681.451L409.053 682.422L408.945 650.532Z" fill="#D9D9D9" fill-opacity="0.3"/>
<path d="M401.758 681.024L408.551 681.857L408.458 654.5L401.758 681.024Z" stroke="#00BFFF" stroke-opacity="0.4"/>
</g>
<g id="Polygon 13_7">
<path d="M411.107 712.636L415.505 686.876L406.709 686.876L411.107 712.636Z" fill="#D9D9D9" fill-opacity="0.3"/>
<path d="M414.913 687.376L407.301 687.376L411.107 709.668L414.913 687.376Z" stroke="#00BFFF" stroke-opacity="0.4"/>
</g>
<g id="Polygon 5_7">
<path d="M409.439 649.595L403.937 675.142L412.725 675.521L409.439 649.595Z" fill="#D9D9D9" fill-opacity="0.3"/>
<path d="M404.55 674.668L412.155 674.995L409.312 652.561L404.55 674.668Z" stroke="#00BFFF" stroke-opacity="0.4"/>
</g>
<g id="Polygon 14_7">
<path d="M414.768 712.137L417.578 679.307L412.541 679.263L414.768 712.137Z" fill="#D9D9D9" fill-opacity="0.3"/>
<path d="M417.034 679.802L413.076 679.767L414.826 705.592L417.034 679.802Z" stroke="#00BFFF" stroke-opacity="0.4"/>
</g>
<g id="Polygon 15_7">
<path d="M408.309 710.239L419.321 686.54L410.833 684.229L408.309 710.239Z" fill="#D9D9D9" fill-opacity="0.3"/>
<path d="M418.618 686.867L411.273 684.867L409.089 707.375L418.618 686.867Z" stroke="#00BFFF" stroke-opacity="0.4"/>
</g>
<g id="Polygon 3_7">
<path d="M411.479 653.635L407.669 679.489L416.463 679.288L411.479 653.635Z" fill="#D9D9D9" fill-opacity="0.3"/>
<path d="M408.25 678.975L415.86 678.801L411.547 656.603L408.25 678.975Z" stroke="#00BFFF" stroke-opacity="0.4"/>
</g>
<g id="Polygon 16_7">
<path d="M408.824 709.82L410.731 688.427L403.777 688.944L408.824 709.82Z" fill="#D9D9D9" fill-opacity="0.3"/>
<path d="M410.181 688.97L404.402 689.399L408.596 706.75L410.181 688.97Z" stroke="#00BFFF" stroke-opacity="0.4"/>
</g>
<g id="Polygon 7_7">
<path d="M414.278 695.369L418.396 669.563L409.6 669.659L414.278 695.369Z" fill="#D9D9D9" fill-opacity="0.3"/>
<path d="M417.809 670.07L410.198 670.152L414.245 692.401L417.809 670.07Z" stroke="#00BFFF" stroke-opacity="0.4"/>
</g>
<g id="Polygon 21_7">
<path d="M413.913 693.021L418.039 666.95L409.222 667.046L413.913 693.021Z" fill="#D9D9D9" fill-opacity="0.3"/>
<path d="M417.453 667.456L409.818 667.539L413.881 690.027L417.453 667.456Z" stroke="#00BFFF" stroke-opacity="0.4"/>
</g>
<g id="Polygon 17_7">
<path d="M405.999 710.112L410.398 684.352L401.601 684.352L405.999 710.112Z" fill="#D9D9D9" fill-opacity="0.3"/>
<path d="M409.805 684.852L402.193 684.852L405.999 707.143L409.805 684.852Z" stroke="#00BFFF" stroke-opacity="0.4"/>
</g>
<g id="Polygon 10_7">
<path d="M408.641 660.148L404.243 685.908L413.04 685.908L408.641 660.148Z" fill="#D9D9D9" fill-opacity="0.3"/>
<path d="M404.835 685.407L412.448 685.407L408.642 663.116L404.835 685.407Z" stroke="#00BFFF" stroke-opacity="0.4"/>
</g>
<g id="Polygon 18_7">
<path d="M409.287 705.826L413.685 680.066L404.889 680.066L409.287 705.826Z" fill="#D9D9D9" fill-opacity="0.3"/>
<path d="M413.093 680.566L405.481 680.566L409.287 702.857L413.093 680.566Z" stroke="#00BFFF" stroke-opacity="0.4"/>
</g>
<g id="Polygon 9_7">
<path d="M405.59 659.216L400.556 684.86L409.35 685.077L405.59 659.216Z" fill="#D9D9D9" fill-opacity="0.3"/>
<path d="M401.16 684.374L408.77 684.563L405.517 662.184L401.16 684.374Z" stroke="#00BFFF" stroke-opacity="0.4"/>
</g>
<g id="Polygon 19_7">
<path d="M411.193 717.823L409.802 689.682L401.192 691.482L411.193 717.823Z" fill="#D9D9D9" fill-opacity="0.3"/>
<path d="M409.332 690.291L401.867 691.852L410.537 714.69L409.332 690.291Z" stroke="#00BFFF" stroke-opacity="0.4"/>
</g>
<g id="Polygon 4_7">
<path d="M412.213 657.169L410.226 683.226L418.985 682.409L412.213 657.169Z" fill="#D9D9D9" fill-opacity="0.3"/>
<path d="M410.769 682.673L418.349 681.966L412.49 660.125L410.769 682.673Z" stroke="#00BFFF" stroke-opacity="0.4"/>
</g>
<g id="Polygon 20_7">
<path d="M406.005 709.846L409.164 683.905L400.377 684.326L406.005 709.846Z" fill="#D9D9D9" fill-opacity="0.3"/>
<path d="M408.596 684.433L400.993 684.798L405.862 706.881L408.596 684.433Z" stroke="#00BFFF" stroke-opacity="0.4"/>
</g>
<g id="Polygon 8_7">
<path d="M408.7 657.036L404.302 682.796L413.098 682.796L408.7 657.036Z" fill="#D9D9D9" fill-opacity="0.3"/>
<path d="M404.894 682.296L412.506 682.296L408.701 660.005L404.894 682.296Z" stroke="#00BFFF" stroke-opacity="0.4"/>
</g>
<g id="Polygon 12_7">
<path d="M413.692 706.748L419.937 681.373L411.164 680.738L413.692 706.748Z" fill="#D9D9D9" fill-opacity="0.3"/>
<path d="M419.311 681.829L411.718 681.28L413.906 703.787L419.311 681.829Z" stroke="#00BFFF" stroke-opacity="0.4"/>
</g>
</g>
</g>
<g id="[&#230;&#139;&#161;&#229;&#188;&#181;&#232;&#161;&#151;]&#227;&#131;&#159;&#227;&#130;&#185;&#227;&#131;&#136;&#227;&#131;&#187;&#227;&#131;&#180;&#227;&#130;&#163;&#227;&#131;&#172;&#227;&#131;&#131;&#227;&#130;&#184;&#229;&#140;&#151;&#230;&#157;&#177;">
<g id="Group 5_8">
<path id="Polygon 22_8" d="M1034.31 489.241L1022.4 491.451L1019.46 496.418L1027.7 500.402L1040.92 500.402L1049.17 496.418L1046.22 491.451L1034.31 489.241Z" fill="#F0FEFF" fill-opacity="0.4"/>
<path id="Polygon 23_8" d="M1034.34 485.248L1022.22 487.492L1019.23 492.534L1027.62 496.577L1041.07 496.577L1049.45 492.534L1046.46 487.492L1034.34 485.248Z" fill="#F0FEFF" fill-opacity="0.4"/>
</g>
<g id="Group 2_8">
<g id="Polygon 1_8">
<path d="M1033.82 428.17L1029.42 452.169L1038.21 452.169L1033.82 428.17Z" fill="#D9D9D9" fill-opacity="0.3"/>
<path d="M1030.02 451.669L1037.61 451.669L1033.82 430.943L1030.02 451.669Z" stroke="#00BFFF" stroke-opacity="0.4"/>
</g>
<g id="Polygon 11_8">
<path d="M1031.12 492.167L1035.51 466.407L1026.72 466.407L1031.12 492.167Z" fill="#D9D9D9" fill-opacity="0.3"/>
<path d="M1034.92 466.907L1027.31 466.907L1031.11 489.198L1034.92 466.907Z" stroke="#00BFFF" stroke-opacity="0.4"/>
</g>
<g id="Polygon 2_8">
<path d="M1032.02 434.91L1025.75 460.277L1034.52 460.923L1032.02 434.91Z" fill="#D9D9D9" fill-opacity="0.3"/>
<path d="M1026.37 459.822L1033.96 460.381L1031.81 437.871L1026.37 459.822Z" stroke="#00BFFF" stroke-opacity="0.4"/>
</g>
<g id="Polygon 6_8">
<path d="M1032.95 430.532L1025.13 461.451L1033.05 462.422L1032.95 430.532Z" fill="#D9D9D9" fill-opacity="0.3"/>
<path d="M1025.76 461.024L1032.55 461.857L1032.46 434.5L1025.76 461.024Z" stroke="#00BFFF" stroke-opacity="0.4"/>
</g>
<g id="Polygon 13_8">
<path d="M1035.11 492.636L1039.51 466.876L1030.71 466.876L1035.11 492.636Z" fill="#D9D9D9" fill-opacity="0.3"/>
<path d="M1038.91 467.376L1031.3 467.376L1035.11 489.667L1038.91 467.376Z" stroke="#00BFFF" stroke-opacity="0.4"/>
</g>
<g id="Polygon 5_8">
<path d="M1033.44 429.595L1027.94 455.142L1036.73 455.521L1033.44 429.595Z" fill="#D9D9D9" fill-opacity="0.3"/>
<path d="M1028.55 454.668L1036.16 454.995L1033.31 432.561L1028.55 454.668Z" stroke="#00BFFF" stroke-opacity="0.4"/>
</g>
<g id="Polygon 14_8">
<path d="M1038.77 492.137L1041.58 459.307L1036.54 459.263L1038.77 492.137Z" fill="#D9D9D9" fill-opacity="0.3"/>
<path d="M1041.03 459.802L1037.08 459.767L1038.83 485.592L1041.03 459.802Z" stroke="#00BFFF" stroke-opacity="0.4"/>
</g>
<g id="Polygon 15_8">
<path d="M1032.31 490.239L1043.32 466.54L1034.83 464.229L1032.31 490.239Z" fill="#D9D9D9" fill-opacity="0.3"/>
<path d="M1042.62 466.867L1035.27 464.867L1033.09 487.375L1042.62 466.867Z" stroke="#00BFFF" stroke-opacity="0.4"/>
</g>
<g id="Polygon 3_8">
<path d="M1035.48 433.635L1031.67 459.488L1040.46 459.288L1035.48 433.635Z" fill="#D9D9D9" fill-opacity="0.3"/>
<path d="M1032.25 458.975L1039.86 458.801L1035.55 436.603L1032.25 458.975Z" stroke="#00BFFF" stroke-opacity="0.4"/>
</g>
<g id="Polygon 16_8">
<path d="M1032.82 489.82L1034.73 468.427L1027.78 468.944L1032.82 489.82Z" fill="#D9D9D9" fill-opacity="0.3"/>
<path d="M1034.18 468.97L1028.4 469.399L1032.6 486.75L1034.18 468.97Z" stroke="#00BFFF" stroke-opacity="0.4"/>
</g>
<g id="Polygon 7_8">
<path d="M1038.28 475.369L1042.4 449.563L1033.6 449.659L1038.28 475.369Z" fill="#D9D9D9" fill-opacity="0.3"/>
<path d="M1041.81 450.07L1034.2 450.152L1038.25 472.401L1041.81 450.07Z" stroke="#00BFFF" stroke-opacity="0.4"/>
</g>
<g id="Polygon 21_8">
<path d="M1037.91 473.021L1042.04 446.95L1033.22 447.046L1037.91 473.021Z" fill="#D9D9D9" fill-opacity="0.3"/>
<path d="M1041.45 447.456L1033.82 447.539L1037.88 470.027L1041.45 447.456Z" stroke="#00BFFF" stroke-opacity="0.4"/>
</g>
<g id="Polygon 17_8">
<path d="M1030 490.112L1034.4 464.352L1025.6 464.352L1030 490.112Z" fill="#D9D9D9" fill-opacity="0.3"/>
<path d="M1033.81 464.852L1026.19 464.852L1030 487.143L1033.81 464.852Z" stroke="#00BFFF" stroke-opacity="0.4"/>
</g>
<g id="Polygon 10_8">
<path d="M1032.64 440.148L1028.24 465.908L1037.04 465.908L1032.64 440.148Z" fill="#D9D9D9" fill-opacity="0.3"/>
<path d="M1028.84 465.407L1036.45 465.407L1032.64 443.116L1028.84 465.407Z" stroke="#00BFFF" stroke-opacity="0.4"/>
</g>
<g id="Polygon 18_8">
<path d="M1033.29 485.826L1037.69 460.066L1028.89 460.066L1033.29 485.826Z" fill="#D9D9D9" fill-opacity="0.3"/>
<path d="M1037.09 460.566L1029.48 460.566L1033.29 482.857L1037.09 460.566Z" stroke="#00BFFF" stroke-opacity="0.4"/>
</g>
<g id="Polygon 9_8">
<path d="M1029.59 439.216L1024.56 464.86L1033.35 465.077L1029.59 439.216Z" fill="#D9D9D9" fill-opacity="0.3"/>
<path d="M1025.16 464.374L1032.77 464.562L1029.52 442.184L1025.16 464.374Z" stroke="#00BFFF" stroke-opacity="0.4"/>
</g>
<g id="Polygon 19_8">
<path d="M1035.19 497.823L1033.8 469.682L1025.19 471.482L1035.19 497.823Z" fill="#D9D9D9" fill-opacity="0.3"/>
<path d="M1033.33 470.291L1025.87 471.852L1034.54 494.69L1033.33 470.291Z" stroke="#00BFFF" stroke-opacity="0.4"/>
</g>
<g id="Polygon 4_8">
<path d="M1036.21 437.169L1034.23 463.226L1042.98 462.409L1036.21 437.169Z" fill="#D9D9D9" fill-opacity="0.3"/>
<path d="M1034.77 462.673L1042.35 461.966L1036.49 440.125L1034.77 462.673Z" stroke="#00BFFF" stroke-opacity="0.4"/>
</g>
<g id="Polygon 20_8">
<path d="M1030.01 489.846L1033.16 463.905L1024.38 464.326L1030.01 489.846Z" fill="#D9D9D9" fill-opacity="0.3"/>
<path d="M1032.6 464.433L1024.99 464.797L1029.86 486.88L1032.6 464.433Z" stroke="#00BFFF" stroke-opacity="0.4"/>
</g>
<g id="Polygon 8_8">
<path d="M1032.7 437.036L1028.3 462.796L1037.1 462.796L1032.7 437.036Z" fill="#D9D9D9" fill-opacity="0.3"/>
<path d="M1028.89 462.296L1036.51 462.296L1032.7 440.005L1028.89 462.296Z" stroke="#00BFFF" stroke-opacity="0.4"/>
</g>
<g id="Polygon 12_8">
<path d="M1037.69 486.748L1043.94 461.373L1035.16 460.738L1037.69 486.748Z" fill="#D9D9D9" fill-opacity="0.3"/>
<path d="M1043.31 461.829L1035.72 461.28L1037.91 483.787L1043.31 461.829Z" stroke="#00BFFF" stroke-opacity="0.4"/>
</g>
</g>
</g>
</g>
<path id="&#227;&#131;&#138;&#227;&#131;&#147;&#227;&#130;&#178;&#227;&#131;&#188;&#227;&#130;&#183;&#227;&#131;&#167;&#227;&#131;&#179;&#231;&#148;&#168;&#233;&#129;&#147;&#232;&#183;&#175;" d="M820 233.17L820 347.67M820 347.67L985.5 439.67L985.5 642.17M437.915 642.17L550.5 396.17L764 357.748L820 347.67M437 644.17L384 655.17L10.5 655.17M437 644.17L437 834.67L549 903.17L549 950.17M437 644.17L437.915 642.17M394.171 1659.5L388 1655.67L293 1655.67L254 1607.67L170.5 1457.17L170.5 1439.17L248 1436.17L248 1409.17L201.5 1404.17L199 1350.17L334 1221.67L404.5 1074.17L503 1021.68L549 997.17L549 950.17M254 1607.67L551.5 1578.17M394.171 1659.5L391 1688.17M394.171 1659.5L551.5 1650.5M391 1688.17L254 1688.17L250.5 1698.17L250.5 1767.17M391 1688.17L391 1813.17M391 1928.17L391 1813.17M391 1813.17L545.5 1813.17L549 1804.17L549 1784.67L555 1777.17L651 1777.17L658.5 1770.67L658.5 1747.67L651 1741.17L558 1741.17L551.5 1732.17L551.5 1650.5M551.5 1578.17L588.5 1573.17L592 1382.17L660 1379.17M551.5 1578.17L551.5 1650.5M660 1379.17L798 1408.67L821 1511.17L907.5 1572.17L1042 1454.67L1042 1338.67L1042 1333.67L961 1208.17L961 1115.17M660 1379.17L661 1208.17L591.5 1088.67L503 1021.68M961 1022.17L1101.5 1022.17L1106.5 1015.17L1120.5 920.17M961 1022.17L961 1115.17M961 1022.17L961 903.67M1120.5 920.17L1384 920.17M1120.5 920.17L1116 805.67L1088 799.67L1083 710.17L985.5 710.17M985.5 710.17L985.5 642.17M985.5 710.17L961 710.17L961 903.67M764 357.748L764 642.17M764 642.17L985.5 642.17M764 642.17L750 642.17M437.915 642.17L750 642.17M750 642.17L750 903.67M750 950.67L786.5 1009.17L786.5 1099.17L794 1111.17L961 1115.17M750 950.67L750 903.67M750 950.67L549 950.17M750 903.67L961 903.67" stroke="#FF0000"/>
<g id="Node">
<path id="node_19" d="M463.5 641.17C463.5 653.3 453.223 663.17 440.5 663.17C427.777 663.17 417.5 653.3 417.5 641.17C417.5 629.04 427.777 619.17 440.5 619.17C453.223 619.17 463.5 629.04 463.5 641.17Z" stroke="#FF0000"/>
<path id="node_18" d="M786.5 641.17C786.5 653.3 776.223 663.17 763.5 663.17C750.777 663.17 740.5 653.3 740.5 641.17C740.5 629.04 750.777 619.17 763.5 619.17C776.223 619.17 786.5 629.04 786.5 641.17Z" stroke="#FF0000"/>
<path id="node_17" d="M788.5 361.17C788.5 373.3 778.223 383.17 765.5 383.17C752.777 383.17 742.5 373.3 742.5 361.17C742.5 349.04 752.777 339.17 765.5 339.17C778.223 339.17 788.5 349.04 788.5 361.17Z" stroke="#FF0000"/>
<path id="node_16" d="M840.5 349.17C840.5 361.3 830.223 371.17 817.5 371.17C804.777 371.17 794.5 361.3 794.5 349.17C794.5 337.04 804.777 327.17 817.5 327.17C830.223 327.17 840.5 337.04 840.5 349.17Z" stroke="#FF0000"/>
<path id="node_15" d="M1003.5 641.17C1003.5 653.3 993.223 663.17 980.5 663.17C967.777 663.17 957.5 653.3 957.5 641.17C957.5 629.04 967.777 619.17 980.5 619.17C993.223 619.17 1003.5 629.04 1003.5 641.17Z" stroke="#FF0000"/>
<path id="node_14" d="M1011.5 708.17C1011.5 720.3 1001.22 730.17 988.5 730.17C975.777 730.17 965.5 720.3 965.5 708.17C965.5 696.04 975.777 686.17 988.5 686.17C1001.22 686.17 1011.5 696.04 1011.5 708.17Z" stroke="#FF0000"/>
<path id="node_13" d="M1148.5 914.17C1148.5 926.3 1138.22 936.17 1125.5 936.17C1112.78 936.17 1102.5 926.3 1102.5 914.17C1102.5 902.04 1112.78 892.17 1125.5 892.17C1138.22 892.17 1148.5 902.04 1148.5 914.17Z" stroke="#FF0000"/>
<path id="node_12" d="M981.5 905.17C981.5 917.3 971.223 927.17 958.5 927.17C945.777 927.17 935.5 917.3 935.5 905.17C935.5 893.04 945.777 883.17 958.5 883.17C971.223 883.17 981.5 893.04 981.5 905.17Z" stroke="#FF0000"/>
<path id="node_11" d="M985.5 1021.17C985.5 1033.3 975.223 1043.17 962.5 1043.17C949.777 1043.17 939.5 1033.3 939.5 1021.17C939.5 1009.04 949.777 999.17 962.5 999.17C975.223 999.17 985.5 1009.04 985.5 1021.17Z" stroke="#FF0000"/>
<path id="node_10" d="M977.5 1113.17C977.5 1125.3 967.223 1135.17 954.5 1135.17C941.777 1135.17 931.5 1125.3 931.5 1113.17C931.5 1101.04 941.777 1091.17 954.5 1091.17C967.223 1091.17 977.5 1101.04 977.5 1113.17Z" stroke="#FF0000"/>
<path id="node_9" d="M780.5 905.17C780.5 917.3 770.223 927.17 757.5 927.17C744.777 927.17 734.5 917.3 734.5 905.17C734.5 893.04 744.777 883.17 757.5 883.17C770.223 883.17 780.5 893.04 780.5 905.17Z" stroke="#FF0000"/>
<path id="node_8" d="M768.5 952.17C768.5 964.3 758.223 974.17 745.5 974.17C732.777 974.17 722.5 964.3 722.5 952.17C722.5 940.04 732.777 930.17 745.5 930.17C758.223 930.17 768.5 940.04 768.5 952.17Z" stroke="#FF0000"/>
<path id="node_7" d="M576.5 947.17C576.5 959.3 566.223 969.17 553.5 969.17C540.777 969.17 530.5 959.3 530.5 947.17C530.5 935.04 540.777 925.17 553.5 925.17C566.223 925.17 576.5 935.04 576.5 947.17Z" stroke="#FF0000"/>
<path id="node_6" d="M530.5 1023.17C530.5 1035.3 520.223 1045.17 507.5 1045.17C494.777 1045.17 484.5 1035.3 484.5 1023.17C484.5 1011.04 494.777 1001.17 507.5 1001.17C520.223 1001.17 530.5 1011.04 530.5 1023.17Z" stroke="#FF0000"/>
<path id="node_5" d="M683.5 1377.17C683.5 1389.3 673.223 1399.17 660.5 1399.17C647.777 1399.17 637.5 1389.3 637.5 1377.17C637.5 1365.04 647.777 1355.17 660.5 1355.17C673.223 1355.17 683.5 1365.04 683.5 1377.17Z" stroke="#FF0000"/>
<path id="node_4" d="M577.5 1584.17C577.5 1596.3 567.223 1606.17 554.5 1606.17C541.777 1606.17 531.5 1596.3 531.5 1584.17C531.5 1572.04 541.777 1562.17 554.5 1562.17C567.223 1562.17 577.5 1572.04 577.5 1584.17Z" stroke="#FF0000"/>
<path id="node_3" d="M282.5 1608.17C282.5 1620.3 272.223 1630.17 259.5 1630.17C246.777 1630.17 236.5 1620.3 236.5 1608.17C236.5 1596.04 246.777 1586.17 259.5 1586.17C272.223 1586.17 282.5 1596.04 282.5 1608.17Z" stroke="#FF0000"/>
<path id="node_21" d="M410.5 1685.17C410.5 1697.3 400.223 1707.17 387.5 1707.17C374.777 1707.17 364.5 1697.3 364.5 1685.17C364.5 1673.04 374.777 1663.17 387.5 1663.17C400.223 1663.17 410.5 1673.04 410.5 1685.17Z" stroke="#FF0000"/>
<path id="node_20" d="M416.67 1658.5C416.67 1670.63 406.394 1680.5 393.67 1680.5C380.947 1680.5 370.67 1670.63 370.67 1658.5C370.67 1646.37 380.947 1636.5 393.67 1636.5C406.394 1636.5 416.67 1646.37 416.67 1658.5Z" stroke="#FF0000"/>
<path id="node_2" d="M568.67 1651.5C568.67 1663.63 558.394 1673.5 545.67 1673.5C532.947 1673.5 522.67 1663.63 522.67 1651.5C522.67 1639.37 532.947 1629.5 545.67 1629.5C558.394 1629.5 568.67 1639.37 568.67 1651.5Z" stroke="#FF0000"/>
<path id="node_1" d="M420.5 1808.17C420.5 1820.3 410.223 1830.17 397.5 1830.17C384.777 1830.17 374.5 1820.3 374.5 1808.17C374.5 1796.04 384.777 1786.17 397.5 1786.17C410.223 1786.17 420.5 1796.04 420.5 1808.17Z" stroke="#FF0000"/>
</g>
</g>
</svg>
