<svg width="1544" height="1815" viewBox="0 0 1544 1815" fill="none" xmlns="http://www.w3.org/2000/svg">
<g id="Group 13">
<g id="&#233;&#129;&#147;&#232;&#183;&#175;(Stroke)">
<path fill-rule="evenodd" clip-rule="evenodd" d="M1516.7 97.3194C1520.6 95.243 1525.46 96.7202 1527.4 100.689C1541.37 129.226 1545.23 153.155 1537.62 176.757C1529.69 201.351 1509.77 223.735 1481.92 249.916L1342.55 389.289C1327.69 404.78 1312.97 416.612 1299.24 427.294C1297.43 428.697 1295.65 430.075 1293.9 431.437C1282.1 440.571 1271.31 448.923 1261.32 458.577C1239.01 480.124 1220.42 508.44 1209.76 565.108L1209.45 566.739C1208.74 570.52 1205.44 573.26 1201.59 573.26H1120.35C1109.74 573.176 1099.49 573.197 1089.67 573.217C1066.4 573.265 1045.51 573.307 1027.78 571.939C1012.32 570.745 998.098 568.433 985.961 563.544C983.163 562.417 979.921 564.077 979.427 567.053C975.353 591.624 970.288 622.169 975.375 669.185L975.599 671.257C976.089 675.78 972.713 679.8 968.174 680.1L776.997 692.76C772.149 693.081 768.751 697.634 768.852 702.491C768.991 709.137 767.844 716.034 765.443 723.358C761.779 734.533 755.159 746.825 745.853 761.043C743.264 764.997 744.526 770.346 748.666 772.625L860.485 834.177C863.438 835.802 865.055 839.103 864.53 842.433L839.604 1000.3C839.009 1004.06 841.15 1007.73 844.728 1009.03C848.12 1010.27 851.498 1011.49 854.835 1012.7L854.841 1012.7L854.847 1012.7L854.853 1012.7L854.855 1012.71C864.476 1016.18 873.764 1019.54 882.117 1022.87C897.839 1029.13 912.528 1036.12 925.646 1045.89C951.789 1065.36 970.002 1094.59 980.929 1146.35C981.168 1147.48 981.648 1148.57 982.329 1149.5C992.003 1162.8 999.854 1176.33 1003.99 1191.59C1008.5 1208.28 1008.37 1226.29 1002.52 1247.45C991.221 1288.37 958.162 1342.28 893.882 1424.5L890.798 1428.44L890.394 1428.95L771.485 1545.32C768.308 1548.43 763.204 1548.35 760.123 1545.14L642.967 1423.3C640.527 1420.76 636.715 1420.12 633.576 1421.71L551.449 1463.44C547.956 1465.22 543.692 1464.2 541.375 1461.04L477.288 1373.69C474.805 1370.31 470.127 1369.42 466.575 1371.65L327.712 1459.1C326.282 1460 325.174 1461.33 324.547 1462.9L186.716 1807.73C185.502 1810.77 182.56 1812.76 179.288 1812.76H177.933C167.271 1812.76 159.942 1805.19 155.118 1797.99C150.074 1790.47 145.757 1780.39 141.756 1769.71C138.872 1762.01 136.107 1753.91 133.293 1745.68L133.292 1745.67L133.291 1745.67L133.291 1745.67C127.956 1730.06 122.442 1713.92 115.587 1698.92C105.038 1675.83 93.1779 1660.08 78.6398 1655.33C65.8929 1651.16 46.908 1654.36 18.1722 1678.85C14.8094 1681.72 9.7587 1681.5 6.78048 1678.24L4.08413 1675.28C1.10591 1672.02 1.32998 1666.94 4.68604 1664.07C35.6954 1637.52 62.0451 1628.87 84.8508 1636.32C108.188 1643.94 123.078 1667.19 133.779 1690.6C141.011 1706.43 147.176 1724.44 152.722 1740.64L152.726 1740.65L152.727 1740.65C155.444 1748.59 158.012 1756.09 160.485 1762.69C164.42 1773.19 168.073 1781.4 171.732 1786.86C172.215 1787.58 173.287 1787.44 173.609 1786.63L303.866 1460.76C305.026 1457.86 304.39 1454.55 302.239 1452.28L225.104 1371.04C223.63 1369.48 222.84 1367.41 222.91 1365.27L233.058 1057.96C233.162 1054.84 231.436 1051.94 228.641 1050.54L39.4188 955.932C35.8741 954.16 34.1613 950.059 35.3921 946.292L199.31 444.604C200.502 440.958 198.938 436.98 195.583 435.122L29.085 342.884C25.2201 340.743 23.8227 335.874 25.9638 332.009L27.9018 328.511C30.0428 324.646 34.9116 323.249 38.7765 325.39L205.17 417.569C208.545 419.439 212.776 418.629 215.23 415.652C268.763 350.698 316.376 295.235 358.846 248.068C427.748 171.545 483.229 116.725 528.584 78.5969C573.839 40.5528 609.545 18.6678 638.907 8.67602C668.701 -1.46254 692.235 0.581753 712.082 10.5286C731.295 20.1573 745.965 36.7142 759.186 52.9436L759.554 53.3955C760.514 54.575 761.119 56.0038 761.296 57.5145L778.75 206.145C779.268 210.556 783.28 213.701 787.687 213.15L870.254 202.829C874.638 202.281 878.637 205.391 879.185 209.775L879.681 213.745C880.229 218.129 877.119 222.127 872.735 222.675L738.838 239.412C732.437 240.212 729.561 247.876 733.824 252.717C741.67 261.626 748.996 270.089 755.998 278.246C761.903 285.126 767.575 291.785 773.133 298.31C810.89 342.637 843.368 380.767 907.69 439.646C910.972 442.651 916.081 442.381 919.03 439.048C939.474 415.951 959.708 392.515 978.956 370.22L978.963 370.212C994.669 352.02 1009.72 334.588 1023.69 318.72C1040.8 299.295 1056.23 282.281 1068.98 269.483C1075.35 263.088 1081.17 257.617 1086.28 253.382C1091.19 249.314 1096.17 245.763 1100.77 243.953L1101.24 243.769C1102.47 243.286 1103.8 243.115 1105.11 243.27L1105.61 243.329C1123.21 245.416 1131.82 242.176 1136.19 238.631C1140.59 235.065 1142.87 229.461 1143.86 221.844C1144.35 218.097 1144.48 214.219 1144.53 210.292C1144.54 209.471 1144.54 208.62 1144.55 207.754C1144.57 204.765 1144.6 201.606 1144.79 198.948C1144.92 197.168 1145.15 195.191 1145.63 193.274C1146.09 191.428 1146.94 188.951 1148.74 186.703C1150.76 184.183 1153.66 182.352 1157.21 181.831C1160.4 181.363 1163.29 182.077 1165.49 182.915L1166.05 183.127C1167.51 183.683 1168.77 184.653 1169.69 185.918L1170.04 186.402C1186.93 209.768 1189.03 237.204 1190.09 257.008C1190.16 258.366 1190.23 259.673 1190.29 260.931L1190.29 260.932C1190.73 269.436 1191.05 275.702 1192.12 280.324C1192.22 280.788 1192.33 281.199 1192.44 281.563C1192.8 282.797 1194.17 283.395 1194.98 282.395C1196.17 280.918 1197.75 277.651 1198.96 270.925C1201.39 257.495 1201.57 235.525 1200.44 201.593L1200.3 197.307C1200.07 190.516 1207.88 186.552 1213.23 190.743L1216.6 193.389C1249.46 219.138 1273.47 242.278 1293.36 270.881C1309.18 293.637 1322.17 319.542 1335.03 352.433C1337.16 357.86 1344.16 359.388 1348.28 355.268L1467.97 235.578L1468.09 235.472C1496.11 209.144 1512.39 189.833 1518.59 170.62C1524 153.838 1522.11 135.596 1509.74 110.095C1507.81 106.12 1509.27 101.276 1513.17 99.1995L1516.7 97.3194ZM106.159 819.839C101.961 818.471 97.4476 820.764 96.0761 824.961L59.7584 936.114C58.5275 939.882 60.2403 943.982 63.785 945.755L230.857 1029.29C234.97 1031.35 239.965 1029.52 241.783 1025.3L299.189 891.924C301.05 887.601 298.795 882.613 294.32 881.155L106.159 819.839ZM227.652 452.887C223.257 450.453 217.731 452.625 216.171 457.401L107.256 790.741C105.883 794.944 108.179 799.463 112.382 800.832L303.655 863.162C307.587 864.443 311.847 862.517 313.482 858.719L317.47 849.452L361.368 688.325C361.589 687.514 361.936 686.743 362.397 686.04L433.933 576.993C436.485 573.102 435.191 567.862 431.12 565.607L227.652 452.887ZM373.334 273.135C370.018 270.501 365.227 270.903 362.408 274.063C324.207 316.894 281.888 366.334 234.908 423.229C231.724 427.085 232.823 432.889 237.198 435.313L444.013 549.886C447.516 551.827 451.916 550.878 454.307 547.665L547.997 421.78C550.576 418.315 549.938 413.427 546.555 410.74L373.334 273.135ZM387.526 1134.85C385.295 1132.34 384.872 1128.7 386.468 1125.74L416.355 1070.35C418.406 1066.55 417.07 1061.81 413.338 1059.64L289.533 987.615C285.385 985.202 280.059 986.959 278.162 991.368L253.963 1047.59C253.568 1048.51 253.349 1049.49 253.316 1050.49L243.176 1357.56C243.105 1359.7 243.896 1361.78 245.37 1363.33L314.525 1436.17C317.15 1438.94 321.363 1439.47 324.59 1437.43L460.176 1352.05C462.798 1350.4 464.188 1347.38 464.032 1344.29C463.383 1331.37 466.496 1319.7 472.963 1307.93C479.143 1296.68 488.432 1285.27 500.032 1272.45C502.79 1269.4 502.841 1264.76 500.112 1261.68L387.526 1134.85ZM461.5 588.994C457.914 585.403 451.933 586.015 449.149 590.259L380.861 694.357C380.4 695.06 380.053 695.831 379.832 696.642L336.396 856.068L336.118 856.714L292.498 958.06C290.898 961.777 292.325 966.103 295.823 968.138L422.572 1041.87C426.448 1044.13 431.42 1042.76 433.593 1038.83L574.866 783.754C575.709 782.231 576.025 780.477 575.813 778.749C573.317 758.456 575.04 736.434 581.755 715.981C582.73 713.009 582.033 709.717 579.823 707.503L461.5 588.994ZM742.118 65.673C741.939 64.1474 741.325 62.7032 740.343 61.5227C728.347 47.1133 716.854 35.2906 703.121 28.4084C688.756 21.2093 670.863 18.929 645.351 27.6106C619.407 36.4391 585.927 56.5194 541.453 93.9065C499.892 128.846 449.192 178.501 386.584 247.236C383.471 250.653 383.906 255.992 387.525 258.867L562.072 397.524C564.858 399.738 568.771 399.844 571.674 397.787L726.473 288.052C730.324 285.322 730.988 279.866 727.888 276.304C718.159 265.122 707.691 253.292 696.038 240.491L693.442 237.64C689.076 232.844 691.93 225.12 698.365 224.316L751.965 217.615C756.326 217.07 759.43 213.109 758.918 208.744L742.118 65.673ZM616.437 851.53C615.733 850.405 614.754 849.482 613.624 848.786C604.374 843.088 596.799 834.783 590.875 824.919C587.384 819.106 578.436 818.588 575.151 824.519L442.203 1064.56L410.713 1122.93C409.117 1125.88 409.54 1129.52 411.771 1132.04L515.9 1249.34C518.503 1252.27 522.86 1252.9 526.084 1250.67C562.502 1225.44 588.102 1186.36 610.948 1151.47L612.307 1149.4L613.309 1147.87L613.946 1146.9C626.638 1127.55 638.991 1109.16 652.053 1097.3C658.702 1091.26 666.092 1086.37 674.42 1084.07C677.758 1083.15 681.139 1082.67 684.554 1082.66C688.314 1082.64 691.955 1080.68 693.34 1077.18L716.782 1018.04C717.719 1015.67 717.476 1013 716.126 1010.85L616.437 851.53ZM962.795 542.722C964.237 528.909 963.164 519.067 956.607 508.677C949.619 497.606 935.816 484.969 909.009 467.661L908.872 467.573C908.519 467.345 908.184 467.088 907.87 466.807L907.749 466.698C833.337 399.84 798.321 358.729 757.9 311.271L757.899 311.27C755.781 308.783 753.647 306.279 751.493 303.752C748.808 300.603 744.164 300.027 740.788 302.42L574.544 420.267C573.859 420.753 573.255 421.343 572.753 422.017L470.234 559.764C467.866 562.947 468.187 567.385 470.991 570.193L585.217 684.599C588.919 688.307 595.122 687.503 598.179 683.248C608.538 668.831 622.568 656.71 640.658 648.916C658.07 641.415 678.754 638.128 702.806 640.227C708.573 640.73 713.33 635.415 712.144 629.749C707.205 606.159 707.467 585.122 714.657 564.266C723.86 537.572 743.964 512.573 775.313 483.295C778.542 480.28 783.61 480.516 786.586 483.782L789.28 486.738C792.256 490.003 792.013 495.062 788.785 498.079C758.252 526.628 741.139 548.818 733.566 570.784C726.019 592.675 727.489 615.764 737.517 647.294C737.92 648.561 738.646 649.707 739.602 650.63C746.391 657.18 752.257 663.526 756.911 669.964C758.619 672.328 761.381 673.751 764.291 673.558L946.401 661.499C950.858 661.204 954.201 657.316 953.932 652.857C951.509 612.665 956.293 583.941 959.877 562.419C961.101 555.07 962.186 548.561 962.795 542.722ZM706.69 790.178C709.092 785.31 705.897 779.579 700.537 778.714C677.829 775.053 659.958 769.18 644.386 760.213C631.676 752.894 620.835 743.701 610.31 732.584C606.023 728.055 598.435 729.616 597.204 735.73C594.121 751.048 593.967 766.954 596.432 781.6C600.534 805.967 611.39 824.557 625.29 832.451C625.816 832.75 626.384 832.971 626.97 833.125C641.557 836.953 652.878 837.164 661.868 835.238C671.138 833.251 678.586 828.856 685.037 822.651C693.73 814.289 700.356 803.019 706.69 790.178ZM746.438 717.127C750.209 705.625 749.442 697.269 745.123 688.804C741.597 681.893 735.485 674.497 726.13 665.422C725.091 664.415 723.784 663.715 722.369 663.411C691.095 656.707 666.886 659.394 648.571 667.284C633.313 673.858 621.559 684.293 612.959 697.008C611.084 699.781 611.376 703.448 613.52 706.018C627.384 722.648 639.607 734.382 654.366 742.881C669.879 751.814 688.915 757.574 716.86 760.765C719.737 761.093 722.564 759.797 724.202 757.409C735.873 740.402 742.998 727.619 746.438 717.127ZM738.493 789.855C734.422 787.615 729.318 789.306 727.325 793.504C719.864 809.215 711.144 825.289 698.902 837.065C690.138 845.494 679.443 851.925 666.061 854.793C663.69 855.301 661.257 855.693 658.758 855.965C652.23 856.677 647.85 864.027 651.334 869.594L732.622 999.504C734.085 1001.84 736.647 1003.26 739.404 1003.26H812.052C815.989 1003.26 819.34 1000.4 819.954 996.508L842.584 853.183C843.11 849.854 841.493 846.552 838.54 844.927L738.493 789.855ZM983.247 1242.13C988.286 1223.89 988.132 1209.57 984.681 1196.81C981.177 1183.87 974.074 1171.78 963.933 1158.26L963.66 1157.9C962.943 1156.94 962.449 1155.83 962.215 1154.66L962.126 1154.22C951.92 1103.08 935.307 1078.02 913.7 1061.93C902.614 1053.67 889.769 1047.45 874.714 1041.45C866.271 1038.08 857.781 1035.02 848.689 1031.74L848.687 1031.74C841.866 1029.28 834.706 1026.7 826.971 1023.78C826.063 1023.44 825.1 1023.26 824.129 1023.26H741.661C738.381 1023.26 735.433 1025.26 734.224 1028.31L712.064 1084.22C710.581 1087.96 712.108 1092.22 715.629 1094.17L816.495 1149.96C820.317 1152.08 821.737 1156.87 819.685 1160.72L755.263 1281.74C753.559 1284.94 754.221 1288.89 756.877 1291.36L875.364 1401.56C878.803 1404.76 884.251 1404.32 887.118 1400.6C945.335 1325.05 973.6 1277.04 983.247 1242.13ZM1320.27 383.287C1322.51 381.136 1323.24 377.855 1322.17 374.94C1307.63 335.303 1293.85 306.618 1276.94 282.298C1264.94 265.046 1251.23 249.782 1234.23 234.278C1229.16 229.65 1221.15 233.416 1221.09 240.282C1220.95 254.342 1220.23 265.677 1218.64 274.48C1217.21 282.413 1214.86 289.607 1210.54 294.959C1205.75 300.892 1199.29 303.65 1192.08 303.759L1191.94 303.761C1191.56 303.767 1191.18 303.745 1190.8 303.697L1190.67 303.679C1185.39 303.004 1181.03 300.486 1177.89 296.567C1175.01 292.982 1173.52 288.698 1172.63 284.825C1171.13 278.326 1170.71 269.986 1170.31 261.819L1170.31 261.811L1170.31 261.805C1170.24 260.554 1170.18 259.307 1170.12 258.072C1169.53 247.092 1168.62 235.485 1165.72 224.239C1165.43 223.131 1163.84 223.29 1163.69 224.425C1162.42 234.183 1159 245.892 1148.78 254.17C1139.5 261.691 1126.37 264.967 1108.84 263.719C1107.16 263.6 1105.46 263.952 1104.07 264.915C1102.69 265.875 1101.02 267.143 1099.04 268.783C1094.62 272.447 1089.3 277.422 1083.15 283.596C1070.86 295.936 1055.76 312.565 1038.7 331.937C1025.03 347.458 1010.07 364.788 994.381 382.959L994.376 382.966L994.37 382.972L994.365 382.978C975.497 404.831 955.578 427.9 935.599 450.504C932.407 454.115 933.105 459.703 937.012 462.526C954.531 475.188 966.256 486.492 973.52 498.002C981.365 510.432 983.603 522.436 983.333 535.022C983.274 537.757 984.456 540.432 986.825 541.802C996.517 547.41 1010.26 550.526 1029.32 551.998C1046.23 553.303 1065.86 553.262 1088.67 553.215H1088.67H1088.68H1088.68C1098.64 553.194 1109.22 553.172 1120.43 553.26H1185.24C1189.02 553.26 1192.28 550.596 1193.13 546.91C1204.89 495.771 1223.98 466.838 1247.42 444.193C1258.26 433.722 1269.99 424.647 1281.71 415.572C1283.46 414.218 1285.21 412.865 1286.96 411.507C1297.95 402.955 1309.09 394.034 1320.27 383.287ZM862.307 1416.73C865.651 1419.84 865.718 1425.11 862.455 1428.31L771.918 1516.91C768.74 1520.02 763.637 1519.94 760.556 1516.74L664.384 1416.72C661.564 1413.79 661.394 1409.2 663.991 1406.07L739.917 1314.45C742.851 1310.91 748.158 1310.57 751.525 1313.7L862.307 1416.73ZM525.742 1274.59C525.057 1274.99 524.427 1275.49 523.886 1276.07C507.795 1293.31 496.883 1305.92 490.493 1317.56C484.869 1327.8 482.848 1337.12 484.513 1348.31C484.692 1349.52 485.188 1350.65 485.907 1351.63L547.455 1435.52C549.772 1438.68 554.036 1439.69 557.529 1437.92L641.508 1395.25C642.496 1394.75 643.37 1394.05 644.073 1393.19L680.738 1348.43C683.31 1345.29 683.123 1340.72 680.301 1337.8L583.307 1237.44C580.079 1234.1 574.704 1234.21 571.502 1237.58C558.108 1251.65 543.019 1264.49 525.742 1274.59ZM692.603 1104.29L789.593 1157.94C793.416 1160.05 794.836 1164.84 792.783 1168.7L727.865 1290.65C727.618 1291.11 727.325 1291.55 726.992 1291.96L704.714 1319.16C701.64 1322.91 695.961 1323.08 692.662 1319.53L597.726 1217.23C595.063 1214.36 594.874 1209.99 597.221 1206.86C608.282 1192.1 618.042 1177.17 626.966 1163.53C628.217 1161.61 629.45 1159.73 630.669 1157.87C643.727 1137.97 654.687 1121.92 665.5 1112.1C670.789 1107.3 675.477 1104.53 679.742 1103.35C683.647 1102.27 687.767 1102.36 692.603 1104.29Z" fill="white" fill-opacity="0.3"/>
<path d="M613.309 1147.87C613.522 1147.55 613.734 1147.22 613.946 1146.9C626.638 1127.55 638.991 1109.16 652.053 1097.3C658.702 1091.26 666.092 1086.37 674.42 1084.07C677.758 1083.15 681.139 1082.67 684.554 1082.66C688.314 1082.64 691.955 1080.68 693.34 1077.18L716.782 1018.04C717.719 1015.67 717.476 1013 716.126 1010.85L616.437 851.53C615.733 850.405 614.754 849.482 613.624 848.786C604.374 843.088 596.799 834.783 590.875 824.919C587.384 819.106 578.436 818.588 575.151 824.519L442.203 1064.56L410.713 1122.93C409.117 1125.88 409.54 1129.52 411.771 1132.04L515.9 1249.34C518.503 1252.27 522.86 1252.9 526.084 1250.67C562.502 1225.44 588.102 1186.36 610.948 1151.47M613.946 1146.9L613.309 1147.87M152.722 1740.64L152.726 1740.65L152.727 1740.65C155.444 1748.59 158.012 1756.09 160.485 1762.69C164.42 1773.19 168.073 1781.4 171.732 1786.86C172.215 1787.58 173.287 1787.44 173.609 1786.63L303.866 1460.76C305.026 1457.86 304.39 1454.55 302.239 1452.28L225.104 1371.04C223.63 1369.48 222.84 1367.41 222.91 1365.27L233.058 1057.96C233.162 1054.84 231.436 1051.94 228.641 1050.54L39.4188 955.932C35.8741 954.16 34.1613 950.059 35.3921 946.292L199.31 444.604C200.502 440.958 198.938 436.98 195.583 435.122L29.085 342.884C25.2201 340.743 23.8227 335.874 25.9638 332.009L27.9018 328.511C30.0428 324.646 34.9116 323.249 38.7765 325.39L205.17 417.569C208.545 419.439 212.776 418.629 215.23 415.652C268.763 350.698 316.376 295.235 358.846 248.068C427.748 171.545 483.229 116.725 528.584 78.5969C573.839 40.5528 609.545 18.6678 638.907 8.67602C668.701 -1.46254 692.235 0.581753 712.082 10.5286C731.295 20.1573 745.965 36.7142 759.186 52.9436L759.554 53.3955C760.514 54.575 761.119 56.0038 761.296 57.5145L778.75 206.145C779.268 210.556 783.28 213.701 787.687 213.15L870.254 202.829C874.638 202.281 878.637 205.391 879.185 209.775L879.681 213.745C880.229 218.129 877.119 222.127 872.735 222.675L738.838 239.412C732.437 240.212 729.561 247.876 733.824 252.717C741.67 261.626 748.996 270.089 755.998 278.246C761.903 285.126 767.575 291.785 773.133 298.31C810.89 342.637 843.368 380.767 907.69 439.646C910.972 442.651 916.081 442.381 919.03 439.048C939.474 415.951 959.708 392.515 978.956 370.22C978.959 370.217 978.961 370.215 978.963 370.212C994.669 352.02 1009.72 334.588 1023.69 318.72C1040.8 299.295 1056.23 282.281 1068.98 269.483C1075.35 263.088 1081.17 257.617 1086.28 253.382C1091.19 249.314 1096.17 245.763 1100.77 243.953L1101.24 243.769C1102.47 243.286 1103.8 243.115 1105.11 243.27L1105.61 243.329C1123.21 245.416 1131.82 242.176 1136.19 238.631C1140.59 235.065 1142.87 229.461 1143.86 221.844C1144.35 218.097 1144.48 214.219 1144.53 210.292C1144.54 209.471 1144.54 208.62 1144.55 207.754C1144.57 204.765 1144.6 201.606 1144.79 198.948C1144.92 197.168 1145.15 195.191 1145.63 193.274C1146.09 191.428 1146.94 188.951 1148.74 186.703C1150.76 184.183 1153.66 182.352 1157.21 181.831C1160.4 181.363 1163.29 182.077 1165.49 182.915L1166.05 183.127C1167.51 183.683 1168.77 184.653 1169.69 185.918L1170.04 186.402C1186.93 209.768 1189.03 237.204 1190.09 257.008C1190.16 258.366 1190.23 259.673 1190.29 260.931L1190.29 260.932C1190.73 269.436 1191.05 275.702 1192.12 280.324C1192.22 280.788 1192.33 281.199 1192.44 281.563C1192.8 282.797 1194.17 283.395 1194.98 282.395C1196.17 280.918 1197.75 277.651 1198.96 270.925C1201.39 257.495 1201.57 235.525 1200.44 201.593L1200.3 197.307C1200.07 190.516 1207.88 186.552 1213.23 190.743L1216.6 193.389C1249.46 219.138 1273.47 242.278 1293.36 270.881C1309.18 293.637 1322.17 319.542 1335.03 352.433C1337.16 357.86 1344.16 359.388 1348.28 355.268L1467.97 235.578L1468.09 235.472C1496.11 209.144 1512.39 189.833 1518.59 170.62C1524 153.838 1522.11 135.596 1509.74 110.095C1507.81 106.12 1509.27 101.276 1513.17 99.1995L1516.7 97.3194C1520.6 95.243 1525.46 96.7202 1527.4 100.689C1541.37 129.226 1545.23 153.155 1537.62 176.757C1529.69 201.351 1509.77 223.735 1481.92 249.916L1342.55 389.289C1327.69 404.78 1312.97 416.612 1299.24 427.294C1297.43 428.697 1295.65 430.075 1293.9 431.437C1282.1 440.571 1271.31 448.923 1261.32 458.577C1239.01 480.124 1220.42 508.44 1209.76 565.108L1209.45 566.739C1208.74 570.52 1205.44 573.26 1201.59 573.26H1120.35C1109.74 573.176 1099.49 573.197 1089.67 573.217C1066.4 573.265 1045.51 573.307 1027.78 571.939C1012.32 570.745 998.098 568.433 985.961 563.544C983.163 562.417 979.921 564.077 979.427 567.053C975.353 591.624 970.288 622.169 975.375 669.185L975.599 671.257C976.089 675.78 972.713 679.8 968.174 680.1L776.997 692.76C772.149 693.081 768.751 697.634 768.852 702.491C768.991 709.137 767.844 716.034 765.443 723.358C761.779 734.533 755.159 746.825 745.853 761.043C743.264 764.997 744.526 770.346 748.666 772.625L860.485 834.177C863.438 835.802 865.055 839.103 864.53 842.433L839.604 1000.3C839.009 1004.06 841.15 1007.73 844.728 1009.03C848.12 1010.27 851.498 1011.49 854.835 1012.7C854.837 1012.7 854.839 1012.7 854.841 1012.7M978.963 370.212L978.956 370.22M854.853 1012.7L854.847 1012.7M152.726 1740.65C152.725 1740.64 152.724 1740.64 152.722 1740.64C147.176 1724.44 141.011 1706.43 133.779 1690.6C123.078 1667.19 108.188 1643.94 84.8508 1636.32C62.0451 1628.87 35.6954 1637.52 4.68604 1664.07C1.32998 1666.94 1.10591 1672.02 4.08413 1675.28L6.78048 1678.24C9.7587 1681.5 14.8094 1681.72 18.1722 1678.85C46.908 1654.36 65.8929 1651.16 78.6398 1655.33C93.1779 1660.08 105.038 1675.83 115.587 1698.92C122.442 1713.92 127.956 1730.06 133.291 1745.67L133.291 1745.67L133.292 1745.67L133.293 1745.68C136.107 1753.91 138.872 1762.01 141.756 1769.71C145.757 1780.39 150.074 1790.47 155.118 1797.99C159.942 1805.19 167.271 1812.76 177.933 1812.76H179.288C182.56 1812.76 185.502 1810.77 186.716 1807.73L324.547 1462.9C325.174 1461.33 326.282 1460 327.712 1459.1L466.575 1371.65C470.127 1369.42 474.805 1370.31 477.288 1373.69L541.375 1461.04C543.692 1464.2 547.956 1465.22 551.449 1463.44L633.576 1421.71C636.715 1420.12 640.527 1420.76 642.967 1423.3L760.123 1545.14C763.204 1548.35 768.308 1548.43 771.485 1545.32L890.394 1428.95L890.798 1428.44L893.882 1424.5C958.162 1342.28 991.221 1288.37 1002.52 1247.45C1008.37 1226.29 1008.5 1208.28 1003.99 1191.59C999.854 1176.33 992.003 1162.8 982.329 1149.5C981.648 1148.57 981.168 1147.48 980.929 1146.35C970.002 1094.59 951.789 1065.36 925.646 1045.89C912.528 1036.12 897.839 1029.13 882.117 1022.87C873.764 1019.54 864.476 1016.18 854.855 1012.71L854.853 1012.7M854.853 1012.7C854.851 1012.7 854.849 1012.7 854.847 1012.7M610.948 1151.47L612.307 1149.4M613.309 1147.87C612.976 1148.38 612.642 1148.89 612.307 1149.4C611.855 1150.09 611.402 1150.78 610.948 1151.47M1170.31 261.811C1170.31 261.809 1170.31 261.807 1170.31 261.805C1170.24 260.554 1170.18 259.307 1170.12 258.072C1169.53 247.092 1168.62 235.485 1165.72 224.239C1165.43 223.131 1163.84 223.29 1163.69 224.425C1162.42 234.183 1159 245.892 1148.78 254.17C1139.5 261.691 1126.37 264.967 1108.84 263.719C1107.16 263.6 1105.46 263.952 1104.07 264.915C1102.69 265.875 1101.02 267.143 1099.04 268.783C1094.62 272.447 1089.3 277.422 1083.15 283.596C1070.86 295.936 1055.76 312.565 1038.7 331.937C1025.03 347.458 1010.07 364.788 994.381 382.959M994.381 382.959L994.376 382.966M994.381 382.959C994.379 382.961 994.378 382.964 994.376 382.966M1088.68 553.215C1088.68 553.215 1088.68 553.215 1088.68 553.215C1098.64 553.194 1109.22 553.172 1120.43 553.26H1185.24C1189.02 553.26 1192.28 550.596 1193.13 546.91C1204.89 495.771 1223.98 466.838 1247.42 444.193C1258.26 433.722 1269.99 424.647 1281.71 415.572C1283.46 414.218 1285.21 412.865 1286.96 411.507C1297.95 402.955 1309.09 394.034 1320.27 383.287C1322.51 381.136 1323.24 377.855 1322.17 374.94C1307.63 335.303 1293.85 306.618 1276.94 282.298C1264.94 265.046 1251.23 249.782 1234.23 234.278C1229.16 229.65 1221.15 233.416 1221.09 240.282C1220.95 254.342 1220.23 265.677 1218.64 274.48C1217.21 282.413 1214.86 289.607 1210.54 294.959C1205.75 300.892 1199.29 303.65 1192.08 303.759L1191.94 303.761C1191.56 303.767 1191.18 303.745 1190.8 303.697L1190.67 303.679C1185.39 303.004 1181.03 300.486 1177.89 296.567C1175.01 292.982 1173.52 288.698 1172.63 284.825C1171.13 278.326 1170.71 269.986 1170.31 261.819M1170.31 261.819L1170.31 261.811M1170.31 261.819C1170.31 261.816 1170.31 261.814 1170.31 261.811M854.847 1012.7L854.841 1012.7M854.847 1012.7C854.845 1012.7 854.843 1012.7 854.841 1012.7M612.307 1149.4L613.309 1147.87M1170.31 261.811L1170.31 261.805M994.376 382.966L994.37 382.972M994.376 382.966C994.374 382.968 994.372 382.97 994.37 382.972M994.37 382.972C994.369 382.974 994.367 382.976 994.365 382.978C975.497 404.831 955.578 427.9 935.599 450.504C932.407 454.115 933.105 459.703 937.012 462.526C954.531 475.188 966.256 486.492 973.52 498.002C981.365 510.432 983.603 522.436 983.333 535.022C983.274 537.757 984.456 540.432 986.825 541.802C996.517 547.41 1010.26 550.526 1029.32 551.998C1046.23 553.303 1065.86 553.262 1088.67 553.215H1088.67M1088.67 553.215H1088.68M1088.67 553.215C1088.67 553.215 1088.67 553.215 1088.68 553.215M854.841 1012.7L854.835 1012.7M1088.68 553.215H1088.68M994.37 382.972L994.365 382.978M317.47 849.452L313.482 858.719C311.847 862.517 307.587 864.443 303.655 863.162L112.382 800.832C108.179 799.463 105.883 794.944 107.256 790.741L216.171 457.401C217.731 452.625 223.257 450.453 227.652 452.887L431.12 565.607C435.191 567.862 436.485 573.102 433.933 576.993L362.397 686.04C361.936 686.743 361.589 687.514 361.368 688.325L317.47 849.452ZM472.963 1307.93C466.496 1319.7 463.383 1331.37 464.032 1344.29C464.188 1347.38 462.798 1350.4 460.176 1352.05L324.59 1437.43C321.363 1439.47 317.15 1438.94 314.525 1436.17L245.37 1363.33C243.896 1361.78 243.105 1359.7 243.176 1357.56L253.316 1050.49C253.349 1049.49 253.568 1048.51 253.963 1047.59L278.162 991.368C280.059 986.959 285.385 985.202 289.533 987.615L413.338 1059.64C417.07 1061.81 418.406 1066.55 416.355 1070.35L386.468 1125.74C384.872 1128.7 385.295 1132.34 387.526 1134.85L500.112 1261.68C502.841 1264.76 502.79 1269.4 500.032 1272.45C488.432 1285.27 479.143 1296.68 472.963 1307.93ZM336.396 856.068L336.118 856.714L292.498 958.06C290.898 961.777 292.325 966.103 295.823 968.138L422.572 1041.87C426.448 1044.13 431.42 1042.76 433.593 1038.83L574.866 783.754C575.709 782.231 576.025 780.477 575.813 778.749C573.317 758.456 575.04 736.434 581.755 715.981C582.73 713.009 582.033 709.717 579.823 707.503L461.5 588.994C457.914 585.403 451.933 586.015 449.149 590.259L380.861 694.357C380.4 695.06 380.053 695.831 379.832 696.642L336.396 856.068ZM703.121 28.4084C716.854 35.2906 728.347 47.1133 740.343 61.5227C741.325 62.7032 741.939 64.1474 742.118 65.673L758.918 208.744C759.43 213.109 756.326 217.07 751.965 217.615L698.365 224.316C691.93 225.12 689.076 232.844 693.442 237.64L696.038 240.491C707.691 253.292 718.159 265.122 727.888 276.304C730.988 279.866 730.324 285.322 726.473 288.052L571.674 397.787C568.771 399.844 564.858 399.738 562.072 397.524L387.525 258.867C383.906 255.992 383.471 250.653 386.584 247.236C449.192 178.501 499.892 128.846 541.453 93.9065C585.927 56.5194 619.407 36.4391 645.351 27.6106C670.863 18.929 688.756 21.2093 703.121 28.4084ZM962.795 542.722C964.237 528.909 963.164 519.067 956.607 508.677C949.619 497.606 935.816 484.969 909.009 467.661L908.872 467.573C908.519 467.345 908.184 467.088 907.87 466.807L907.749 466.698C833.337 399.84 798.321 358.729 757.9 311.271L757.899 311.27C755.781 308.783 753.647 306.279 751.493 303.752C748.808 300.603 744.164 300.027 740.788 302.42L574.544 420.267C573.859 420.753 573.255 421.343 572.753 422.017L470.234 559.764C467.866 562.947 468.187 567.385 470.991 570.193L585.217 684.599C588.919 688.307 595.122 687.503 598.179 683.248C608.538 668.831 622.568 656.71 640.658 648.916C658.07 641.415 678.754 638.128 702.806 640.227C708.573 640.73 713.33 635.415 712.144 629.749C707.205 606.159 707.467 585.122 714.657 564.266C723.86 537.572 743.964 512.573 775.313 483.295C778.542 480.28 783.61 480.516 786.586 483.782L789.28 486.738C792.256 490.003 792.013 495.062 788.785 498.079C758.252 526.628 741.139 548.818 733.566 570.784C726.019 592.675 727.489 615.764 737.517 647.294C737.92 648.561 738.646 649.707 739.602 650.63C746.391 657.18 752.257 663.526 756.911 669.964C758.619 672.328 761.381 673.751 764.291 673.558L946.401 661.499C950.858 661.204 954.201 657.316 953.932 652.857C951.509 612.665 956.293 583.941 959.877 562.419C961.101 555.07 962.186 548.561 962.795 542.722ZM692.603 1104.29L789.593 1157.94C793.416 1160.05 794.836 1164.84 792.783 1168.7L727.865 1290.65C727.618 1291.11 727.325 1291.55 726.992 1291.96L704.714 1319.16C701.64 1322.91 695.961 1323.08 692.662 1319.53L597.726 1217.23C595.063 1214.36 594.874 1209.99 597.221 1206.86C608.282 1192.1 618.042 1177.17 626.966 1163.53C628.217 1161.61 629.45 1159.73 630.669 1157.87C643.727 1137.97 654.687 1121.92 665.5 1112.1C670.789 1107.3 675.477 1104.53 679.742 1103.35C683.647 1102.27 687.767 1102.36 692.603 1104.29ZM490.493 1317.56C496.883 1305.92 507.795 1293.31 523.886 1276.07C524.427 1275.49 525.057 1274.99 525.742 1274.59C543.019 1264.49 558.108 1251.65 571.502 1237.58C574.704 1234.21 580.079 1234.1 583.307 1237.44L680.301 1337.8C683.123 1340.72 683.31 1345.29 680.738 1348.43L644.073 1393.19C643.37 1394.05 642.496 1394.75 641.508 1395.25L557.529 1437.92C554.036 1439.69 549.772 1438.68 547.455 1435.52L485.907 1351.63C485.188 1350.65 484.692 1349.52 484.513 1348.31C482.848 1337.12 484.869 1327.8 490.493 1317.56ZM644.386 760.213C659.958 769.18 677.829 775.053 700.537 778.714C705.897 779.579 709.092 785.31 706.69 790.178C700.356 803.019 693.73 814.289 685.037 822.651C678.586 828.856 671.138 833.251 661.868 835.238C652.878 837.164 641.557 836.953 626.97 833.125C626.384 832.971 625.816 832.75 625.29 832.451C611.39 824.557 600.534 805.967 596.432 781.6C593.967 766.954 594.121 751.048 597.204 735.73C598.435 729.616 606.023 728.055 610.31 732.584C620.835 743.701 631.676 752.894 644.386 760.213ZM746.438 717.127C750.209 705.625 749.442 697.269 745.123 688.804C741.597 681.893 735.485 674.497 726.13 665.422C725.091 664.415 723.784 663.715 722.369 663.411C691.095 656.707 666.886 659.394 648.571 667.284C633.313 673.858 621.559 684.293 612.959 697.008C611.084 699.781 611.376 703.448 613.52 706.018C627.384 722.648 639.607 734.382 654.366 742.881C669.879 751.814 688.915 757.574 716.86 760.765C719.737 761.093 722.564 759.797 724.202 757.409C735.873 740.402 742.998 727.619 746.438 717.127ZM698.902 837.065C711.144 825.289 719.864 809.215 727.325 793.504C729.318 789.306 734.422 787.615 738.493 789.855L838.54 844.927C841.493 846.552 843.11 849.854 842.584 853.183L819.954 996.508C819.34 1000.4 815.989 1003.26 812.052 1003.26H739.404C736.647 1003.26 734.085 1001.84 732.622 999.504L651.334 869.594C647.85 864.027 652.23 856.677 658.758 855.965C661.257 855.693 663.69 855.301 666.061 854.793C679.443 851.925 690.138 845.494 698.902 837.065ZM983.247 1242.13C988.286 1223.89 988.132 1209.57 984.681 1196.81C981.177 1183.87 974.074 1171.78 963.933 1158.26L963.66 1157.9C962.943 1156.94 962.449 1155.83 962.215 1154.66L962.126 1154.22C951.92 1103.08 935.307 1078.02 913.7 1061.93C902.614 1053.67 889.769 1047.45 874.714 1041.45C866.271 1038.08 857.781 1035.02 848.689 1031.74L848.687 1031.74C841.866 1029.28 834.706 1026.7 826.971 1023.78C826.063 1023.44 825.1 1023.26 824.129 1023.26H741.661C738.381 1023.26 735.433 1025.26 734.224 1028.31L712.064 1084.22C710.581 1087.96 712.108 1092.22 715.629 1094.17L816.495 1149.96C820.317 1152.08 821.737 1156.87 819.685 1160.72L755.263 1281.74C753.559 1284.94 754.221 1288.89 756.877 1291.36L875.364 1401.56C878.803 1404.76 884.251 1404.32 887.118 1400.6C945.335 1325.05 973.6 1277.04 983.247 1242.13ZM751.525 1313.7L862.307 1416.73C865.651 1419.84 865.718 1425.11 862.455 1428.31L771.918 1516.91C768.74 1520.02 763.637 1519.94 760.556 1516.74L664.384 1416.72C661.564 1413.79 661.394 1409.2 663.991 1406.07L739.917 1314.45C742.851 1310.91 748.158 1310.57 751.525 1313.7ZM444.013 549.886L237.198 435.313C232.823 432.889 231.724 427.085 234.908 423.229C281.888 366.334 324.207 316.894 362.408 274.063C365.227 270.903 370.018 270.501 373.334 273.135L546.555 410.74C549.938 413.427 550.576 418.315 547.997 421.78L454.307 547.665C451.916 550.878 447.516 551.827 444.013 549.886ZM294.32 881.155L106.159 819.839C101.961 818.471 97.4476 820.764 96.0761 824.961L59.7584 936.114C58.5275 939.882 60.2403 943.982 63.785 945.755L230.857 1029.29C234.97 1031.35 239.965 1029.52 241.783 1025.3L299.189 891.924C301.05 887.601 298.795 882.613 294.32 881.155Z" stroke="black" stroke-width="4"/>
</g>
<g id="&#227;&#131;&#143;&#227;&#130;&#166;&#227;&#130;&#185;">
<path id="plot_30" d="M1498.79 149.265L1359.53 283.525C1357.14 285.825 1353.34 285.755 1351.04 283.37L1239.33 167.496C1237.03 165.11 1237.1 161.312 1239.48 159.012L1378.74 24.7519C1381.13 22.452 1384.93 22.5214 1387.23 24.907L1498.94 140.781C1501.24 143.167 1501.17 146.965 1498.79 149.265Z" fill="white" fill-opacity="0.3" stroke="black" stroke-width="4"/>
<path id="plot_7" d="M20.9756 1259.2L20.9756 1065.76C20.9756 1062.45 23.6619 1059.76 26.9756 1059.76L187.933 1059.76C191.246 1059.76 193.933 1062.45 193.933 1065.76L193.933 1259.2C193.933 1262.51 191.246 1265.2 187.933 1265.2L26.9756 1265.2C23.6619 1265.2 20.9756 1262.51 20.9756 1259.2Z" fill="white" fill-opacity="0.3" stroke="black" stroke-width="4"/>
<path id="plot_16" d="M784.235 1556.56L918.098 1416.92C920.391 1414.53 924.189 1414.45 926.581 1416.74L1042.77 1528.12C1045.17 1530.42 1045.25 1534.22 1042.95 1536.61L909.09 1676.25C906.797 1678.64 902.999 1678.72 900.607 1676.43L784.415 1565.04C782.023 1562.75 781.942 1558.95 784.235 1556.56Z" fill="white" fill-opacity="0.3" stroke="black" stroke-width="4"/>
<path id="plot_1" d="M203.332 669.767L338.688 706.144C341.888 707.004 343.785 710.296 342.925 713.496L311.83 829.197C310.97 832.397 307.679 834.294 304.478 833.434L169.122 797.057C165.922 796.197 164.025 792.905 164.885 789.705L195.98 674.004C196.84 670.804 200.131 668.907 203.332 669.767Z" fill="white" fill-opacity="0.3" stroke="black" stroke-width="4"/>
<path id="plot_24" d="M1009.95 313.14L912.95 414.308C910.656 416.7 906.858 416.78 904.466 414.487L817.989 331.57C815.597 329.276 815.517 325.478 817.81 323.086L914.813 221.918C917.106 219.526 920.905 219.446 923.296 221.739L1009.77 304.656C1012.17 306.95 1012.25 310.748 1009.95 313.14Z" fill="white" fill-opacity="0.3" stroke="black" stroke-width="4"/>
<path id="plot_8" d="M169.186 1347.76L269.798 1445.35C272.176 1447.65 272.234 1451.45 269.927 1453.83L186.517 1539.83C184.21 1542.21 180.411 1542.27 178.032 1539.96L77.4209 1442.38C75.0423 1440.07 74.9843 1436.27 77.2912 1433.9L160.702 1347.89C163.009 1345.52 166.808 1345.46 169.186 1347.76Z" fill="white" fill-opacity="0.3" stroke="black" stroke-width="4"/>
<path id="plot_13" d="M961.902 1221.27L885.642 1338.87C883.839 1341.65 880.124 1342.44 877.344 1340.64L776.823 1275.46C774.043 1273.65 773.25 1269.94 775.053 1267.16L851.313 1149.56C853.116 1146.78 856.832 1145.99 859.612 1147.79L960.132 1212.98C962.913 1214.78 963.705 1218.49 961.902 1221.27Z" fill="white" fill-opacity="0.3" stroke="black" stroke-width="4"/>
<path id="plot_28" d="M1399.93 492.759V632.919C1399.93 636.232 1397.25 638.919 1393.93 638.919H1274.13C1270.81 638.918 1268.13 636.232 1268.13 632.919V492.759C1268.13 489.446 1270.81 486.759 1274.13 486.759H1393.93C1397.25 486.759 1399.93 489.446 1399.93 492.759Z" fill="white" fill-opacity="0.3" stroke="black" stroke-width="4"/>
<path id="plot_19" d="M550.173 176.721L651.757 273.289C654.158 275.572 654.254 279.369 651.971 281.771L569.426 368.604C567.143 371.005 563.345 371.102 560.944 368.819L459.36 272.251C456.958 269.968 456.862 266.17 459.145 263.768L541.69 176.935C543.974 174.534 547.771 174.438 550.173 176.721Z" fill="white" fill-opacity="0.3" stroke="black" stroke-width="4"/>
<path id="plot_15" d="M638.211 1441.89L735.922 1542.37C738.232 1544.75 738.179 1548.55 735.803 1550.86L649.91 1634.38C647.534 1636.69 643.735 1636.64 641.425 1634.26L543.714 1533.78C541.404 1531.4 541.458 1527.6 543.833 1525.29L629.727 1441.77C632.102 1439.46 635.901 1439.51 638.211 1441.89Z" fill="white" fill-opacity="0.3" stroke="black" stroke-width="4"/>
<path id="plot_12" d="M676.14 1123.34L756.95 1167.34C759.861 1168.93 760.935 1172.57 759.351 1175.48L713.802 1259.13C712.217 1262.05 708.573 1263.12 705.663 1261.54L624.853 1217.53C621.942 1215.95 620.868 1212.31 622.452 1209.4L668.002 1125.74C669.586 1122.83 673.23 1121.76 676.14 1123.34Z" fill="white" fill-opacity="0.3" stroke="black" stroke-width="4"/>
<path id="plot_27" d="M990.92 580.759L1082.93 580.759C1086.25 580.759 1088.93 583.446 1088.93 586.759L1088.93 682.01C1088.93 685.324 1086.25 688.01 1082.93 688.01L990.92 688.01C987.606 688.01 984.92 685.324 984.92 682.01L984.92 586.759C984.92 583.446 987.606 580.759 990.92 580.759Z" fill="white" fill-opacity="0.3" stroke="black" stroke-width="4"/>
<path id="plot_26" d="M980.937 451.16L1045.75 385.847C1048.08 383.495 1051.88 383.48 1054.23 385.814L1121.85 452.906C1124.2 455.24 1124.21 459.039 1121.88 461.391L1057.07 526.705C1054.73 529.057 1050.93 529.072 1048.58 526.737L980.97 459.645C978.617 457.311 978.603 453.512 980.937 451.16Z" fill="white" fill-opacity="0.3" stroke="black" stroke-width="4"/>
<path id="plot_23" d="M1020.76 129.946L1083.98 196.8C1086.26 199.208 1086.15 203.006 1083.75 205.282L1014.54 270.728C1012.13 273.005 1008.33 272.899 1006.06 270.491L942.836 203.637C940.56 201.229 940.666 197.431 943.073 195.155L1012.28 129.709C1014.69 127.432 1018.49 127.538 1020.76 129.946Z" fill="white" fill-opacity="0.3" stroke="black" stroke-width="4"/>
<path id="plot_22" d="M785.147 81.1032L876.839 73.4203C880.141 73.1436 883.042 75.5962 883.319 78.8983L891.272 173.817C891.549 177.119 889.096 180.02 885.794 180.297L794.102 187.98C790.8 188.256 787.899 185.804 787.622 182.502L779.669 87.5832C779.392 84.2811 781.845 81.3799 785.147 81.1032Z" fill="white" fill-opacity="0.3" stroke="black" stroke-width="4"/>
<path id="plot_20" d="M738.612 335.287L795.42 407.669C797.466 410.276 797.012 414.048 794.405 416.094L719.475 474.901C716.869 476.947 713.097 476.492 711.051 473.886L654.243 401.503C652.197 398.897 652.652 395.125 655.258 393.079L730.188 334.272C732.795 332.226 736.566 332.681 738.612 335.287Z" fill="white" fill-opacity="0.3" stroke="black" stroke-width="4"/>
<path id="plot_25" d="M850.843 463.339L922.451 521.12C925.03 523.201 925.434 526.978 923.353 529.557L863.539 603.686C861.458 606.265 857.68 606.668 855.101 604.587L783.493 546.807C780.914 544.726 780.511 540.948 782.591 538.37L842.406 464.241C844.486 461.662 848.264 461.259 850.843 463.339Z" fill="white" fill-opacity="0.3" stroke="black" stroke-width="4"/>
<path id="plot_10" d="M380.181 1454.93L453.395 1399.2C456.032 1397.19 459.797 1397.7 461.804 1400.34L519.496 1476.13C521.503 1478.76 520.992 1482.53 518.356 1484.54L445.141 1540.27C442.504 1542.27 438.74 1541.76 436.733 1539.13L379.04 1463.34C377.033 1460.7 377.544 1456.93 380.181 1454.93Z" fill="white" fill-opacity="0.3" stroke="black" stroke-width="4"/>
<path id="plot_14" d="M772.28 1350.73L838.769 1414.34C841.164 1416.63 841.248 1420.43 838.958 1422.82L773.115 1491.65C770.824 1494.05 767.026 1494.13 764.631 1491.84L698.142 1428.23C695.748 1425.94 695.664 1422.15 697.954 1419.75L763.797 1350.92C766.088 1348.53 769.886 1348.44 772.28 1350.73Z" fill="white" fill-opacity="0.3" stroke="black" stroke-width="4"/>
<path id="plot_9" d="M266.36 1328.72L341.759 1275.98C344.474 1274.08 348.215 1274.75 350.114 1277.46L404.709 1355.51C406.608 1358.23 405.946 1361.97 403.231 1363.87L327.832 1416.61C325.116 1418.51 321.376 1417.85 319.476 1415.13L264.882 1337.08C262.983 1334.36 263.644 1330.62 266.36 1328.72Z" fill="white" fill-opacity="0.3" stroke="black" stroke-width="4"/>
<path id="plot_5" d="M420.502 1119.65L466.041 1039.7C467.681 1036.82 471.345 1035.82 474.224 1037.46L556.991 1084.6C559.871 1086.24 560.876 1089.9 559.236 1092.78L513.696 1172.73C512.056 1175.61 508.392 1176.62 505.513 1174.98L422.746 1127.84C419.867 1126.2 418.862 1122.53 420.502 1119.65Z" fill="white" fill-opacity="0.3" stroke="black" stroke-width="4"/>
<path id="plot_11" d="M495.212 1323.1L570.366 1270.01C573.073 1268.1 576.817 1268.74 578.729 1271.45L633.684 1349.25C635.596 1351.95 634.951 1355.7 632.245 1357.61L557.091 1410.7C554.384 1412.61 550.64 1411.96 548.728 1409.26L493.773 1331.46C491.861 1328.75 492.506 1325.01 495.212 1323.1Z" fill="white" fill-opacity="0.3" stroke="black" stroke-width="4"/>
<path id="plot_6" d="M266.92 1071.76L358.933 1071.76C362.247 1071.76 364.933 1074.45 364.933 1077.76L364.933 1173.01C364.933 1176.32 362.247 1179.01 358.933 1179.01L266.92 1179.01C263.606 1179.01 260.92 1176.32 260.92 1173.01L260.92 1077.76C260.92 1074.45 263.606 1071.76 266.92 1071.76Z" fill="white" fill-opacity="0.3" stroke="black" stroke-width="4"/>
<path id="plot_4" d="M392.308 886.229L473.914 928.736C476.853 930.267 477.994 933.89 476.463 936.829L432.46 1021.31C430.93 1024.25 427.306 1025.39 424.367 1023.86L342.761 981.349C339.823 979.818 338.681 976.195 340.212 973.256L384.215 888.778C385.746 885.839 389.369 884.698 392.308 886.229Z" fill="white" fill-opacity="0.3" stroke="black" stroke-width="4"/>
<path id="plot_2" d="M356.248 815.001L383.104 726.995C384.071 723.825 387.424 722.04 390.594 723.007L481.697 750.809C484.867 751.776 486.652 755.129 485.685 758.299L458.829 846.305C457.861 849.474 454.508 851.259 451.339 850.292L360.235 822.491C357.066 821.524 355.28 818.17 356.248 815.001Z" fill="white" fill-opacity="0.3" stroke="black" stroke-width="4"/>
<path id="plot_3" d="M175.863 864.858L259.815 902.519C262.839 903.875 264.19 907.426 262.834 910.449L223.848 997.356C222.491 1000.38 218.941 1001.73 215.917 1000.37L131.965 962.714C128.942 961.358 127.59 957.808 128.946 954.784L167.932 867.877C169.289 864.854 172.839 863.502 175.863 864.858Z" fill="white" fill-opacity="0.3" stroke="black" stroke-width="4"/>
<path id="plot_17" d="M437.782 342.074L512.282 396.075C514.965 398.02 515.563 401.771 513.618 404.454L457.717 481.576C455.772 484.259 452.02 484.857 449.337 482.913L374.838 428.911C372.155 426.966 371.556 423.215 373.501 420.532L429.403 343.41C431.348 340.727 435.099 340.129 437.782 342.074Z" fill="white" fill-opacity="0.3" stroke="black" stroke-width="4"/>
<path id="plot_21" d="M632.691 91.5549L724.26 82.534C727.558 82.2091 730.495 84.6191 730.82 87.9168L740.158 182.709C740.483 186.007 738.073 188.943 734.775 189.268L643.206 198.289C639.908 198.614 636.971 196.204 636.647 192.906L627.308 98.1142C626.983 94.8165 629.393 91.8797 632.691 91.5549Z" fill="white" fill-opacity="0.3" stroke="black" stroke-width="4"/>
<path id="plot_18" d="M528.747 507.799L582.892 433.404C584.842 430.725 588.595 430.134 591.274 432.084L668.288 488.135C670.967 490.085 671.558 493.837 669.608 496.517L615.463 570.912C613.513 573.591 609.76 574.182 607.081 572.232L530.068 516.181C527.388 514.231 526.797 510.479 528.747 507.799Z" fill="white" fill-opacity="0.3" stroke="black" stroke-width="4"/>
<path id="plot_29" d="M1150.52 342.826L1230.03 296.514C1232.9 294.846 1236.57 295.815 1238.24 298.679L1286.18 380.985C1287.85 383.849 1286.88 387.522 1284.01 389.19L1204.51 435.501C1201.64 437.169 1197.97 436.2 1196.3 433.337L1148.36 351.03C1146.69 348.167 1147.66 344.494 1150.52 342.826Z" fill="white" fill-opacity="0.3" stroke="black" stroke-width="4"/>
<path id="apart_2" d="M992.933 955.759H902.933C899.619 955.759 896.933 953.073 896.933 949.759V733.759C896.933 730.446 899.619 727.759 902.933 727.759H992.933C996.247 727.759 998.933 730.446 998.933 733.759V949.759L998.925 950.068C998.764 953.238 996.143 955.759 992.933 955.759Z" fill="white" fill-opacity="0.3" stroke="black" stroke-width="4"/>
</g>
<g id="&#227;&#130;&#168;&#227;&#131;&#188;&#227;&#131;&#134;&#227;&#131;&#169;&#227;&#130;&#164;&#227;&#131;&#136;">
<g id="[&#230;&#139;&#161;&#229;&#188;&#181;&#232;&#161;&#151;]&#232;&#140;&#156;&#233;&#155;&#178;&#230;&#161;&#159;&#230;&#169;&#139;">
<g id="Group 5">
<path id="Polygon 22" d="M188.404 470.83L176.492 473.04L173.55 478.008L181.793 481.991H195.014L203.257 478.008L200.315 473.04L188.404 470.83Z" fill="#F0FEFF" fill-opacity="0.4"/>
<path id="Polygon 23" d="M188.433 466.837L176.315 469.081L173.322 474.123L181.708 478.166H195.158L203.544 474.123L200.551 469.081L188.433 466.837Z" fill="#F0FEFF" fill-opacity="0.4"/>
</g>
<g id="Group 2">
<g id="Polygon 1">
<path d="M187.908 409.759L183.51 433.758H192.306L187.908 409.759Z" fill="#D9D9D9" fill-opacity="0.3"/>
<path d="M184.109 433.258H191.706L187.908 412.532L184.109 433.258Z" stroke="#00BFFF" stroke-opacity="0.4"/>
</g>
<g id="Polygon 11">
<path d="M185.207 473.756L189.605 447.996L180.809 447.996L185.207 473.756Z" fill="#D9D9D9" fill-opacity="0.3"/>
<path d="M189.013 448.496L181.401 448.496L185.207 470.787L189.013 448.496Z" stroke="#00BFFF" stroke-opacity="0.4"/>
</g>
<g id="Polygon 2">
<path d="M186.116 416.499L179.838 441.866L188.61 442.512L186.116 416.499Z" fill="#D9D9D9" fill-opacity="0.3"/>
<path d="M180.465 441.411L188.057 441.97L185.899 419.46L180.465 441.411Z" stroke="#00BFFF" stroke-opacity="0.4"/>
</g>
<g id="Polygon 6">
<path d="M187.037 412.121L179.226 443.04L187.145 444.011L187.037 412.121Z" fill="#D9D9D9" fill-opacity="0.3"/>
<path d="M179.85 442.613L186.643 443.446L186.551 416.089L179.85 442.613Z" stroke="#00BFFF" stroke-opacity="0.4"/>
</g>
<g id="Polygon 13">
<path d="M189.2 474.225L193.598 448.465L184.801 448.465L189.2 474.225Z" fill="#D9D9D9" fill-opacity="0.3"/>
<path d="M193.006 448.966L185.393 448.966L189.199 471.257L193.006 448.966Z" stroke="#00BFFF" stroke-opacity="0.4"/>
</g>
<g id="Polygon 5">
<path d="M187.531 411.184L182.029 436.731L190.817 437.11L187.531 411.184Z" fill="#D9D9D9" fill-opacity="0.3"/>
<path d="M182.642 436.257L190.247 436.584L187.404 414.15L182.642 436.257Z" stroke="#00BFFF" stroke-opacity="0.4"/>
</g>
<g id="Polygon 14">
<path d="M192.86 473.726L195.67 440.896L190.633 440.852L192.86 473.726Z" fill="#D9D9D9" fill-opacity="0.3"/>
<path d="M195.127 441.391L191.168 441.356L192.918 467.181L195.127 441.391Z" stroke="#00BFFF" stroke-opacity="0.4"/>
</g>
<g id="Polygon 15">
<path d="M186.401 471.828L197.413 448.129L188.926 445.818L186.401 471.828Z" fill="#D9D9D9" fill-opacity="0.3"/>
<path d="M196.71 448.456L189.365 446.456L187.181 468.964L196.71 448.456Z" stroke="#00BFFF" stroke-opacity="0.4"/>
</g>
<g id="Polygon 3">
<path d="M189.571 415.224L185.761 441.078L194.556 440.877L189.571 415.224Z" fill="#D9D9D9" fill-opacity="0.3"/>
<path d="M186.342 440.564L193.952 440.39L189.639 418.192L186.342 440.564Z" stroke="#00BFFF" stroke-opacity="0.4"/>
</g>
<g id="Polygon 16">
<path d="M186.916 471.409L188.823 450.016L181.869 450.533L186.916 471.409Z" fill="#D9D9D9" fill-opacity="0.3"/>
<path d="M188.273 450.559L182.494 450.988L186.688 468.339L188.273 450.559Z" stroke="#00BFFF" stroke-opacity="0.4"/>
</g>
<g id="Polygon 7">
<path d="M192.37 456.958L196.488 431.152L187.692 431.248L192.37 456.958Z" fill="#D9D9D9" fill-opacity="0.3"/>
<path d="M195.902 431.659L188.29 431.742L192.338 453.99L195.902 431.659Z" stroke="#00BFFF" stroke-opacity="0.4"/>
</g>
<g id="Polygon 21">
<path d="M192.006 454.61L196.131 428.539L187.314 428.635L192.006 454.61Z" fill="#D9D9D9" fill-opacity="0.3"/>
<path d="M195.545 429.045L187.911 429.128L191.973 451.616L195.545 429.045Z" stroke="#00BFFF" stroke-opacity="0.4"/>
</g>
<g id="Polygon 17">
<path d="M184.092 471.701L188.49 445.941L179.693 445.941L184.092 471.701Z" fill="#D9D9D9" fill-opacity="0.3"/>
<path d="M187.898 446.441L180.285 446.441L184.091 468.732L187.898 446.441Z" stroke="#00BFFF" stroke-opacity="0.4"/>
</g>
<g id="Polygon 10">
<path d="M186.734 421.737L182.335 447.497H191.132L186.734 421.737Z" fill="#D9D9D9" fill-opacity="0.3"/>
<path d="M182.927 446.996H190.54L186.734 424.705L182.927 446.996Z" stroke="#00BFFF" stroke-opacity="0.4"/>
</g>
<g id="Polygon 18">
<path d="M187.38 467.415L191.778 441.655L182.981 441.655L187.38 467.415Z" fill="#D9D9D9" fill-opacity="0.3"/>
<path d="M191.186 442.155L183.573 442.155L187.379 464.446L191.186 442.155Z" stroke="#00BFFF" stroke-opacity="0.4"/>
</g>
<g id="Polygon 9">
<path d="M183.682 420.805L178.648 446.449L187.442 446.666L183.682 420.805Z" fill="#D9D9D9" fill-opacity="0.3"/>
<path d="M179.253 445.963L186.863 446.151L183.609 423.773L179.253 445.963Z" stroke="#00BFFF" stroke-opacity="0.4"/>
</g>
<g id="Polygon 19">
<path d="M189.285 479.412L187.895 451.271L179.284 453.071L189.285 479.412Z" fill="#D9D9D9" fill-opacity="0.3"/>
<path d="M187.424 451.88L179.96 453.441L188.629 476.279L187.424 451.88Z" stroke="#00BFFF" stroke-opacity="0.4"/>
</g>
<g id="Polygon 4">
<path d="M190.306 418.758L188.318 444.815L197.077 443.998L190.306 418.758Z" fill="#D9D9D9" fill-opacity="0.3"/>
<path d="M188.861 444.262L196.441 443.555L190.582 421.714L188.861 444.262Z" stroke="#00BFFF" stroke-opacity="0.4"/>
</g>
<g id="Polygon 20">
<path d="M184.097 471.435L187.256 445.494L178.47 445.915L184.097 471.435Z" fill="#D9D9D9" fill-opacity="0.3"/>
<path d="M186.689 446.022L179.085 446.387L183.955 468.47L186.689 446.022Z" stroke="#00BFFF" stroke-opacity="0.4"/>
</g>
<g id="Polygon 8">
<path d="M186.792 418.625L182.394 444.385H191.191L186.792 418.625Z" fill="#D9D9D9" fill-opacity="0.3"/>
<path d="M182.986 443.885H190.598L186.793 421.594L182.986 443.885Z" stroke="#00BFFF" stroke-opacity="0.4"/>
</g>
<g id="Polygon 12">
<path d="M191.785 468.337L198.029 442.962L189.256 442.327L191.785 468.337Z" fill="#D9D9D9" fill-opacity="0.3"/>
<path d="M197.403 443.418L189.81 442.869L191.998 465.376L197.403 443.418Z" stroke="#00BFFF" stroke-opacity="0.4"/>
</g>
</g>
</g>
<g id="[&#230;&#139;&#161;&#229;&#188;&#181;&#232;&#161;&#151;]&#227;&#130;&#183;&#227;&#131;&#173;&#227;&#130;&#172;&#227;&#131;&#141;&#232;&#165;&#191;">
<g id="Group 5_2">
<path id="Polygon 22_2" d="M337.403 916.83L325.492 919.04L322.55 924.007L330.793 927.991H344.014L352.257 924.007L349.315 919.04L337.403 916.83Z" fill="#F0FEFF" fill-opacity="0.4"/>
<path id="Polygon 23_2" d="M337.433 912.837L325.314 915.081L322.321 920.123L330.707 924.166H344.158L352.544 920.123L349.551 915.081L337.433 912.837Z" fill="#F0FEFF" fill-opacity="0.4"/>
</g>
<g id="Group 2_2">
<g id="Polygon 1_2">
<path d="M336.908 855.759L332.509 879.758H341.306L336.908 855.759Z" fill="#D9D9D9" fill-opacity="0.3"/>
<path d="M333.109 879.258H340.706L336.908 858.532L333.109 879.258Z" stroke="#00BFFF" stroke-opacity="0.4"/>
</g>
<g id="Polygon 11_2">
<path d="M334.207 919.755L338.605 893.996L329.809 893.996L334.207 919.755Z" fill="#D9D9D9" fill-opacity="0.3"/>
<path d="M338.013 894.496L330.401 894.496L334.206 916.787L338.013 894.496Z" stroke="#00BFFF" stroke-opacity="0.4"/>
</g>
<g id="Polygon 2_2">
<path d="M335.116 862.499L328.838 887.866L337.61 888.512L335.116 862.499Z" fill="#D9D9D9" fill-opacity="0.3"/>
<path d="M329.465 887.411L337.057 887.97L334.898 865.46L329.465 887.411Z" stroke="#00BFFF" stroke-opacity="0.4"/>
</g>
<g id="Polygon 6_2">
<path d="M336.037 858.121L328.226 889.04L336.145 890.011L336.037 858.121Z" fill="#D9D9D9" fill-opacity="0.3"/>
<path d="M328.85 888.613L335.643 889.446L335.55 862.089L328.85 888.613Z" stroke="#00BFFF" stroke-opacity="0.4"/>
</g>
<g id="Polygon 13_2">
<path d="M338.199 920.225L342.597 894.465L333.801 894.465L338.199 920.225Z" fill="#D9D9D9" fill-opacity="0.3"/>
<path d="M342.005 894.965L334.393 894.965L338.199 917.256L342.005 894.965Z" stroke="#00BFFF" stroke-opacity="0.4"/>
</g>
<g id="Polygon 5_2">
<path d="M336.531 857.184L331.029 882.731L339.817 883.11L336.531 857.184Z" fill="#D9D9D9" fill-opacity="0.3"/>
<path d="M331.642 882.257L339.247 882.584L336.404 860.15L331.642 882.257Z" stroke="#00BFFF" stroke-opacity="0.4"/>
</g>
<g id="Polygon 14_2">
<path d="M341.86 919.726L344.67 886.896L339.633 886.852L341.86 919.726Z" fill="#D9D9D9" fill-opacity="0.3"/>
<path d="M344.126 887.391L340.168 887.356L341.918 913.181L344.126 887.391Z" stroke="#00BFFF" stroke-opacity="0.4"/>
</g>
<g id="Polygon 15_2">
<path d="M335.401 917.828L346.413 894.129L337.925 891.818L335.401 917.828Z" fill="#D9D9D9" fill-opacity="0.3"/>
<path d="M345.71 894.456L338.365 892.456L336.181 914.964L345.71 894.456Z" stroke="#00BFFF" stroke-opacity="0.4"/>
</g>
<g id="Polygon 3_2">
<path d="M338.571 861.224L334.761 887.077L343.555 886.877L338.571 861.224Z" fill="#D9D9D9" fill-opacity="0.3"/>
<path d="M335.342 886.564L342.952 886.39L338.639 864.192L335.342 886.564Z" stroke="#00BFFF" stroke-opacity="0.4"/>
</g>
<g id="Polygon 16_2">
<path d="M335.916 917.409L337.823 896.016L330.869 896.533L335.916 917.409Z" fill="#D9D9D9" fill-opacity="0.3"/>
<path d="M337.273 896.559L331.494 896.988L335.688 914.339L337.273 896.559Z" stroke="#00BFFF" stroke-opacity="0.4"/>
</g>
<g id="Polygon 7_2">
<path d="M341.37 902.958L345.488 877.152L336.692 877.248L341.37 902.958Z" fill="#D9D9D9" fill-opacity="0.3"/>
<path d="M344.901 877.659L337.29 877.741L341.337 899.99L344.901 877.659Z" stroke="#00BFFF" stroke-opacity="0.4"/>
</g>
<g id="Polygon 21_2">
<path d="M341.005 900.61L345.131 874.539L336.314 874.635L341.005 900.61Z" fill="#D9D9D9" fill-opacity="0.3"/>
<path d="M344.545 875.045L336.91 875.128L340.973 897.616L344.545 875.045Z" stroke="#00BFFF" stroke-opacity="0.4"/>
</g>
<g id="Polygon 17_2">
<path d="M333.091 917.701L337.489 891.941L328.693 891.941L333.091 917.701Z" fill="#D9D9D9" fill-opacity="0.3"/>
<path d="M336.897 892.441L329.285 892.441L333.091 914.732L336.897 892.441Z" stroke="#00BFFF" stroke-opacity="0.4"/>
</g>
<g id="Polygon 10_2">
<path d="M335.733 867.737L331.335 893.496H340.132L335.733 867.737Z" fill="#D9D9D9" fill-opacity="0.3"/>
<path d="M331.927 892.996H339.54L335.734 870.705L331.927 892.996Z" stroke="#00BFFF" stroke-opacity="0.4"/>
</g>
<g id="Polygon 18_2">
<path d="M336.379 913.415L340.777 887.655L331.981 887.655L336.379 913.415Z" fill="#D9D9D9" fill-opacity="0.3"/>
<path d="M340.185 888.155L332.573 888.155L336.379 910.446L340.185 888.155Z" stroke="#00BFFF" stroke-opacity="0.4"/>
</g>
<g id="Polygon 9_2">
<path d="M332.682 866.805L327.648 892.449L336.442 892.666L332.682 866.805Z" fill="#D9D9D9" fill-opacity="0.3"/>
<path d="M328.252 891.963L335.862 892.151L332.609 869.773L328.252 891.963Z" stroke="#00BFFF" stroke-opacity="0.4"/>
</g>
<g id="Polygon 19_2">
<path d="M338.285 925.412L336.894 897.271L328.284 899.071L338.285 925.412Z" fill="#D9D9D9" fill-opacity="0.3"/>
<path d="M336.424 897.88L328.959 899.441L337.629 922.279L336.424 897.88Z" stroke="#00BFFF" stroke-opacity="0.4"/>
</g>
<g id="Polygon 4_2">
<path d="M339.305 864.758L337.318 890.815L346.077 889.998L339.305 864.758Z" fill="#D9D9D9" fill-opacity="0.3"/>
<path d="M337.861 890.262L345.441 889.555L339.582 867.714L337.861 890.262Z" stroke="#00BFFF" stroke-opacity="0.4"/>
</g>
<g id="Polygon 20_2">
<path d="M333.097 917.435L336.256 891.494L327.469 891.915L333.097 917.435Z" fill="#D9D9D9" fill-opacity="0.3"/>
<path d="M335.688 892.022L328.085 892.386L332.954 914.469L335.688 892.022Z" stroke="#00BFFF" stroke-opacity="0.4"/>
</g>
<g id="Polygon 8_2">
<path d="M335.792 864.625L331.394 890.385H340.19L335.792 864.625Z" fill="#D9D9D9" fill-opacity="0.3"/>
<path d="M331.986 889.885H339.598L335.793 867.594L331.986 889.885Z" stroke="#00BFFF" stroke-opacity="0.4"/>
</g>
<g id="Polygon 12_2">
<path d="M340.784 914.337L347.029 888.962L338.256 888.327L340.784 914.337Z" fill="#D9D9D9" fill-opacity="0.3"/>
<path d="M346.403 889.418L338.81 888.869L340.998 911.376L346.403 889.418Z" stroke="#00BFFF" stroke-opacity="0.4"/>
</g>
</g>
</g>
<g id="[&#230;&#139;&#161;&#229;&#188;&#181;&#232;&#161;&#151;]&#227;&#130;&#183;&#227;&#131;&#173;&#227;&#130;&#172;&#227;&#131;&#141;&#229;&#141;&#151;&#232;&#165;&#191;">
<g id="Group 5_3">
<path id="Polygon 22_3" d="M280.403 1252.83L268.492 1255.04L265.55 1260.01L273.793 1263.99H287.014L295.257 1260.01L292.315 1255.04L280.403 1252.83Z" fill="#F0FEFF" fill-opacity="0.4"/>
<path id="Polygon 23_3" d="M280.433 1248.84L268.314 1251.08L265.321 1256.12L273.707 1260.17H287.158L295.544 1256.12L292.551 1251.08L280.433 1248.84Z" fill="#F0FEFF" fill-opacity="0.4"/>
</g>
<g id="Group 2_3">
<g id="Polygon 1_3">
<path d="M279.908 1191.76L275.509 1215.76H284.306L279.908 1191.76Z" fill="#D9D9D9" fill-opacity="0.3"/>
<path d="M276.109 1215.26H283.706L279.908 1194.53L276.109 1215.26Z" stroke="#00BFFF" stroke-opacity="0.4"/>
</g>
<g id="Polygon 11_3">
<path d="M277.207 1255.76L281.605 1230L272.809 1230L277.207 1255.76Z" fill="#D9D9D9" fill-opacity="0.3"/>
<path d="M281.013 1230.5L273.401 1230.5L277.206 1252.79L281.013 1230.5Z" stroke="#00BFFF" stroke-opacity="0.4"/>
</g>
<g id="Polygon 2_3">
<path d="M278.116 1198.5L271.838 1223.87L280.61 1224.51L278.116 1198.5Z" fill="#D9D9D9" fill-opacity="0.3"/>
<path d="M272.465 1223.41L280.057 1223.97L277.898 1201.46L272.465 1223.41Z" stroke="#00BFFF" stroke-opacity="0.4"/>
</g>
<g id="Polygon 6_3">
<path d="M279.037 1194.12L271.226 1225.04L279.145 1226.01L279.037 1194.12Z" fill="#D9D9D9" fill-opacity="0.3"/>
<path d="M271.85 1224.61L278.643 1225.45L278.55 1198.09L271.85 1224.61Z" stroke="#00BFFF" stroke-opacity="0.4"/>
</g>
<g id="Polygon 13_3">
<path d="M281.199 1256.23L285.597 1230.47L276.801 1230.47L281.199 1256.23Z" fill="#D9D9D9" fill-opacity="0.3"/>
<path d="M285.005 1230.97L277.393 1230.97L281.199 1253.26L285.005 1230.97Z" stroke="#00BFFF" stroke-opacity="0.4"/>
</g>
<g id="Polygon 5_3">
<path d="M279.531 1193.18L274.029 1218.73L282.817 1219.11L279.531 1193.18Z" fill="#D9D9D9" fill-opacity="0.3"/>
<path d="M274.642 1218.26L282.247 1218.58L279.404 1196.15L274.642 1218.26Z" stroke="#00BFFF" stroke-opacity="0.4"/>
</g>
<g id="Polygon 14_3">
<path d="M284.86 1255.73L287.67 1222.9L282.633 1222.85L284.86 1255.73Z" fill="#D9D9D9" fill-opacity="0.3"/>
<path d="M287.126 1223.39L283.168 1223.36L284.918 1249.18L287.126 1223.39Z" stroke="#00BFFF" stroke-opacity="0.4"/>
</g>
<g id="Polygon 15_3">
<path d="M278.401 1253.83L289.413 1230.13L280.925 1227.82L278.401 1253.83Z" fill="#D9D9D9" fill-opacity="0.3"/>
<path d="M288.71 1230.46L281.365 1228.46L279.181 1250.96L288.71 1230.46Z" stroke="#00BFFF" stroke-opacity="0.4"/>
</g>
<g id="Polygon 3_3">
<path d="M281.571 1197.22L277.761 1223.08L286.555 1222.88L281.571 1197.22Z" fill="#D9D9D9" fill-opacity="0.3"/>
<path d="M278.342 1222.56L285.952 1222.39L281.639 1200.19L278.342 1222.56Z" stroke="#00BFFF" stroke-opacity="0.4"/>
</g>
<g id="Polygon 16_3">
<path d="M278.916 1253.41L280.823 1232.02L273.869 1232.53L278.916 1253.41Z" fill="#D9D9D9" fill-opacity="0.3"/>
<path d="M280.273 1232.56L274.494 1232.99L278.688 1250.34L280.273 1232.56Z" stroke="#00BFFF" stroke-opacity="0.4"/>
</g>
<g id="Polygon 7_3">
<path d="M284.37 1238.96L288.488 1213.15L279.692 1213.25L284.37 1238.96Z" fill="#D9D9D9" fill-opacity="0.3"/>
<path d="M287.901 1213.66L280.29 1213.74L284.337 1235.99L287.901 1213.66Z" stroke="#00BFFF" stroke-opacity="0.4"/>
</g>
<g id="Polygon 21_3">
<path d="M284.005 1236.61L288.131 1210.54L279.314 1210.64L284.005 1236.61Z" fill="#D9D9D9" fill-opacity="0.3"/>
<path d="M287.545 1211.05L279.91 1211.13L283.973 1233.62L287.545 1211.05Z" stroke="#00BFFF" stroke-opacity="0.4"/>
</g>
<g id="Polygon 17_3">
<path d="M276.091 1253.7L280.489 1227.94L271.693 1227.94L276.091 1253.7Z" fill="#D9D9D9" fill-opacity="0.3"/>
<path d="M279.897 1228.44L272.285 1228.44L276.091 1250.73L279.897 1228.44Z" stroke="#00BFFF" stroke-opacity="0.4"/>
</g>
<g id="Polygon 10_3">
<path d="M278.733 1203.74L274.335 1229.5H283.132L278.733 1203.74Z" fill="#D9D9D9" fill-opacity="0.3"/>
<path d="M274.927 1229H282.54L278.734 1206.71L274.927 1229Z" stroke="#00BFFF" stroke-opacity="0.4"/>
</g>
<g id="Polygon 18_3">
<path d="M279.379 1249.41L283.777 1223.65L274.981 1223.65L279.379 1249.41Z" fill="#D9D9D9" fill-opacity="0.3"/>
<path d="M283.185 1224.15L275.573 1224.15L279.379 1246.45L283.185 1224.15Z" stroke="#00BFFF" stroke-opacity="0.4"/>
</g>
<g id="Polygon 9_3">
<path d="M275.682 1202.81L270.648 1228.45L279.442 1228.67L275.682 1202.81Z" fill="#D9D9D9" fill-opacity="0.3"/>
<path d="M271.252 1227.96L278.862 1228.15L275.609 1205.77L271.252 1227.96Z" stroke="#00BFFF" stroke-opacity="0.4"/>
</g>
<g id="Polygon 19_3">
<path d="M281.285 1261.41L279.894 1233.27L271.284 1235.07L281.285 1261.41Z" fill="#D9D9D9" fill-opacity="0.3"/>
<path d="M279.424 1233.88L271.959 1235.44L280.629 1258.28L279.424 1233.88Z" stroke="#00BFFF" stroke-opacity="0.4"/>
</g>
<g id="Polygon 4_3">
<path d="M282.305 1200.76L280.318 1226.81L289.077 1226L282.305 1200.76Z" fill="#D9D9D9" fill-opacity="0.3"/>
<path d="M280.861 1226.26L288.441 1225.55L282.582 1203.71L280.861 1226.26Z" stroke="#00BFFF" stroke-opacity="0.4"/>
</g>
<g id="Polygon 20_3">
<path d="M276.097 1253.43L279.256 1227.49L270.469 1227.92L276.097 1253.43Z" fill="#D9D9D9" fill-opacity="0.3"/>
<path d="M278.688 1228.02L271.085 1228.39L275.954 1250.47L278.688 1228.02Z" stroke="#00BFFF" stroke-opacity="0.4"/>
</g>
<g id="Polygon 8_3">
<path d="M278.792 1200.62L274.394 1226.38H283.19L278.792 1200.62Z" fill="#D9D9D9" fill-opacity="0.3"/>
<path d="M274.986 1225.88H282.598L278.793 1203.59L274.986 1225.88Z" stroke="#00BFFF" stroke-opacity="0.4"/>
</g>
<g id="Polygon 12_3">
<path d="M283.784 1250.34L290.029 1224.96L281.256 1224.33L283.784 1250.34Z" fill="#D9D9D9" fill-opacity="0.3"/>
<path d="M289.403 1225.42L281.81 1224.87L283.998 1247.38L289.403 1225.42Z" stroke="#00BFFF" stroke-opacity="0.4"/>
</g>
</g>
</g>
<g id="[&#230;&#139;&#161;&#229;&#188;&#181;&#232;&#161;&#151;]&#227;&#130;&#183;&#227;&#131;&#173;&#227;&#130;&#172;&#227;&#131;&#141;&#229;&#141;&#151;">
<g id="Group 5_4">
<path id="Polygon 22_4" d="M676.404 1416.83L664.492 1419.04L661.55 1424.01L669.793 1427.99H683.014L691.257 1424.01L688.315 1419.04L676.404 1416.83Z" fill="#F0FEFF" fill-opacity="0.4"/>
<path id="Polygon 23_4" d="M676.433 1412.84L664.314 1415.08L661.321 1420.12L669.708 1424.17H683.158L691.544 1420.12L688.551 1415.08L676.433 1412.84Z" fill="#F0FEFF" fill-opacity="0.4"/>
</g>
<g id="Group 2_4">
<g id="Polygon 1_4">
<path d="M675.908 1355.76L671.51 1379.76H680.306L675.908 1355.76Z" fill="#D9D9D9" fill-opacity="0.3"/>
<path d="M672.109 1379.26H679.706L675.908 1358.53L672.109 1379.26Z" stroke="#00BFFF" stroke-opacity="0.4"/>
</g>
<g id="Polygon 11_4">
<path d="M673.207 1419.76L677.605 1394L668.809 1394L673.207 1419.76Z" fill="#D9D9D9" fill-opacity="0.3"/>
<path d="M677.013 1394.5L669.401 1394.5L673.207 1416.79L677.013 1394.5Z" stroke="#00BFFF" stroke-opacity="0.4"/>
</g>
<g id="Polygon 2_4">
<path d="M674.116 1362.5L667.838 1387.87L676.61 1388.51L674.116 1362.5Z" fill="#D9D9D9" fill-opacity="0.3"/>
<path d="M668.465 1387.41L676.057 1387.97L673.899 1365.46L668.465 1387.41Z" stroke="#00BFFF" stroke-opacity="0.4"/>
</g>
<g id="Polygon 6_4">
<path d="M675.037 1358.12L667.226 1389.04L675.145 1390.01L675.037 1358.12Z" fill="#D9D9D9" fill-opacity="0.3"/>
<path d="M667.85 1388.61L674.643 1389.45L674.551 1362.09L667.85 1388.61Z" stroke="#00BFFF" stroke-opacity="0.4"/>
</g>
<g id="Polygon 13_4">
<path d="M677.199 1420.23L681.598 1394.47L672.801 1394.47L677.199 1420.23Z" fill="#D9D9D9" fill-opacity="0.3"/>
<path d="M681.006 1394.97L673.393 1394.97L677.199 1417.26L681.006 1394.97Z" stroke="#00BFFF" stroke-opacity="0.4"/>
</g>
<g id="Polygon 5_4">
<path d="M675.531 1357.18L670.029 1382.73L678.817 1383.11L675.531 1357.18Z" fill="#D9D9D9" fill-opacity="0.3"/>
<path d="M670.642 1382.26L678.247 1382.58L675.404 1360.15L670.642 1382.26Z" stroke="#00BFFF" stroke-opacity="0.4"/>
</g>
<g id="Polygon 14_4">
<path d="M680.86 1419.73L683.67 1386.9L678.633 1386.85L680.86 1419.73Z" fill="#D9D9D9" fill-opacity="0.3"/>
<path d="M683.127 1387.39L679.168 1387.36L680.918 1413.18L683.127 1387.39Z" stroke="#00BFFF" stroke-opacity="0.4"/>
</g>
<g id="Polygon 15_4">
<path d="M674.401 1417.83L685.413 1394.13L676.926 1391.82L674.401 1417.83Z" fill="#D9D9D9" fill-opacity="0.3"/>
<path d="M684.71 1394.46L677.365 1392.46L675.181 1414.96L684.71 1394.46Z" stroke="#00BFFF" stroke-opacity="0.4"/>
</g>
<g id="Polygon 3_4">
<path d="M677.571 1361.22L673.761 1387.08L682.555 1386.88L677.571 1361.22Z" fill="#D9D9D9" fill-opacity="0.3"/>
<path d="M674.342 1386.56L681.952 1386.39L677.639 1364.19L674.342 1386.56Z" stroke="#00BFFF" stroke-opacity="0.4"/>
</g>
<g id="Polygon 16_4">
<path d="M674.916 1417.41L676.823 1396.02L669.869 1396.53L674.916 1417.41Z" fill="#D9D9D9" fill-opacity="0.3"/>
<path d="M676.273 1396.56L670.494 1396.99L674.688 1414.34L676.273 1396.56Z" stroke="#00BFFF" stroke-opacity="0.4"/>
</g>
<g id="Polygon 7_4">
<path d="M680.37 1402.96L684.488 1377.15L675.692 1377.25L680.37 1402.96Z" fill="#D9D9D9" fill-opacity="0.3"/>
<path d="M683.902 1377.66L676.29 1377.74L680.337 1399.99L683.902 1377.66Z" stroke="#00BFFF" stroke-opacity="0.4"/>
</g>
<g id="Polygon 21_4">
<path d="M680.005 1400.61L684.131 1374.54L675.314 1374.64L680.005 1400.61Z" fill="#D9D9D9" fill-opacity="0.3"/>
<path d="M683.545 1375.05L675.911 1375.13L679.973 1397.62L683.545 1375.05Z" stroke="#00BFFF" stroke-opacity="0.4"/>
</g>
<g id="Polygon 17_4">
<path d="M672.091 1417.7L676.49 1391.94L667.693 1391.94L672.091 1417.7Z" fill="#D9D9D9" fill-opacity="0.3"/>
<path d="M675.898 1392.44L668.285 1392.44L672.091 1414.73L675.898 1392.44Z" stroke="#00BFFF" stroke-opacity="0.4"/>
</g>
<g id="Polygon 10_4">
<path d="M674.734 1367.74L670.335 1393.5H679.132L674.734 1367.74Z" fill="#D9D9D9" fill-opacity="0.3"/>
<path d="M670.927 1393H678.54L674.734 1370.71L670.927 1393Z" stroke="#00BFFF" stroke-opacity="0.4"/>
</g>
<g id="Polygon 18_4">
<path d="M675.379 1413.41L679.778 1387.65L670.981 1387.65L675.379 1413.41Z" fill="#D9D9D9" fill-opacity="0.3"/>
<path d="M679.186 1388.15L671.573 1388.15L675.379 1410.45L679.186 1388.15Z" stroke="#00BFFF" stroke-opacity="0.4"/>
</g>
<g id="Polygon 9_4">
<path d="M671.682 1366.81L666.648 1392.45L675.442 1392.67L671.682 1366.81Z" fill="#D9D9D9" fill-opacity="0.3"/>
<path d="M667.253 1391.96L674.862 1392.15L671.609 1369.77L667.253 1391.96Z" stroke="#00BFFF" stroke-opacity="0.4"/>
</g>
<g id="Polygon 19_4">
<path d="M677.285 1425.41L675.895 1397.27L667.284 1399.07L677.285 1425.41Z" fill="#D9D9D9" fill-opacity="0.3"/>
<path d="M675.424 1397.88L667.96 1399.44L676.629 1422.28L675.424 1397.88Z" stroke="#00BFFF" stroke-opacity="0.4"/>
</g>
<g id="Polygon 4_4">
<path d="M678.306 1364.76L676.318 1390.81L685.077 1390L678.306 1364.76Z" fill="#D9D9D9" fill-opacity="0.3"/>
<path d="M676.861 1390.26L684.441 1389.55L678.582 1367.71L676.861 1390.26Z" stroke="#00BFFF" stroke-opacity="0.4"/>
</g>
<g id="Polygon 20_4">
<path d="M672.097 1417.43L675.256 1391.49L666.47 1391.92L672.097 1417.43Z" fill="#D9D9D9" fill-opacity="0.3"/>
<path d="M674.688 1392.02L667.085 1392.39L671.955 1414.47L674.688 1392.02Z" stroke="#00BFFF" stroke-opacity="0.4"/>
</g>
<g id="Polygon 8_4">
<path d="M674.792 1364.62L670.394 1390.38H679.19L674.792 1364.62Z" fill="#D9D9D9" fill-opacity="0.3"/>
<path d="M670.986 1389.88H678.598L674.793 1367.59L670.986 1389.88Z" stroke="#00BFFF" stroke-opacity="0.4"/>
</g>
<g id="Polygon 12_4">
<path d="M679.784 1414.34L686.029 1388.96L677.256 1388.33L679.784 1414.34Z" fill="#D9D9D9" fill-opacity="0.3"/>
<path d="M685.403 1389.42L677.81 1388.87L679.998 1411.38L685.403 1389.42Z" stroke="#00BFFF" stroke-opacity="0.4"/>
</g>
</g>
</g>
<g id="[&#230;&#139;&#161;&#229;&#188;&#181;&#232;&#161;&#151;]&#231;&#180;&#133;&#230;&#162;&#133;&#229;&#190;&#161;&#230;&#174;&#191;">
<g id="Group 5_5">
<path id="Polygon 22_5" d="M869.403 826.83L857.492 829.04L854.55 834.008L862.793 837.991H876.014L884.257 834.008L881.315 829.04L869.403 826.83Z" fill="#F0FEFF" fill-opacity="0.4"/>
<path id="Polygon 23_5" d="M869.433 822.837L857.314 825.081L854.321 830.123L862.708 834.166H876.158L884.544 830.123L881.551 825.081L869.433 822.837Z" fill="#F0FEFF" fill-opacity="0.4"/>
</g>
<g id="Group 2_5">
<g id="Polygon 1_5">
<path d="M868.908 765.759L864.509 789.758H873.306L868.908 765.759Z" fill="#D9D9D9" fill-opacity="0.3"/>
<path d="M865.109 789.258H872.706L868.908 768.532L865.109 789.258Z" stroke="#00BFFF" stroke-opacity="0.4"/>
</g>
<g id="Polygon 11_5">
<path d="M866.207 829.756L870.605 803.996L861.809 803.996L866.207 829.756Z" fill="#D9D9D9" fill-opacity="0.3"/>
<path d="M870.013 804.496L862.401 804.496L866.206 826.787L870.013 804.496Z" stroke="#00BFFF" stroke-opacity="0.4"/>
</g>
<g id="Polygon 2_5">
<path d="M867.116 772.499L860.838 797.866L869.61 798.512L867.116 772.499Z" fill="#D9D9D9" fill-opacity="0.3"/>
<path d="M861.465 797.411L869.057 797.97L866.898 775.46L861.465 797.411Z" stroke="#00BFFF" stroke-opacity="0.4"/>
</g>
<g id="Polygon 6_5">
<path d="M868.037 768.121L860.226 799.04L868.145 800.011L868.037 768.121Z" fill="#D9D9D9" fill-opacity="0.3"/>
<path d="M860.85 798.613L867.643 799.446L867.55 772.089L860.85 798.613Z" stroke="#00BFFF" stroke-opacity="0.4"/>
</g>
<g id="Polygon 13_5">
<path d="M870.199 830.225L874.598 804.465L865.801 804.465L870.199 830.225Z" fill="#D9D9D9" fill-opacity="0.3"/>
<path d="M874.005 804.965L866.393 804.965L870.199 827.256L874.005 804.965Z" stroke="#00BFFF" stroke-opacity="0.4"/>
</g>
<g id="Polygon 5_5">
<path d="M868.531 767.184L863.029 792.731L871.817 793.11L868.531 767.184Z" fill="#D9D9D9" fill-opacity="0.3"/>
<path d="M863.642 792.257L871.247 792.584L868.404 770.15L863.642 792.257Z" stroke="#00BFFF" stroke-opacity="0.4"/>
</g>
<g id="Polygon 14_5">
<path d="M873.86 829.726L876.67 796.896L871.633 796.852L873.86 829.726Z" fill="#D9D9D9" fill-opacity="0.3"/>
<path d="M876.127 797.391L872.168 797.356L873.918 823.181L876.127 797.391Z" stroke="#00BFFF" stroke-opacity="0.4"/>
</g>
<g id="Polygon 15_5">
<path d="M867.401 827.828L878.413 804.129L869.925 801.818L867.401 827.828Z" fill="#D9D9D9" fill-opacity="0.3"/>
<path d="M877.71 804.456L870.365 802.456L868.181 824.964L877.71 804.456Z" stroke="#00BFFF" stroke-opacity="0.4"/>
</g>
<g id="Polygon 3_5">
<path d="M870.571 771.224L866.761 797.078L875.555 796.877L870.571 771.224Z" fill="#D9D9D9" fill-opacity="0.3"/>
<path d="M867.342 796.564L874.952 796.39L870.639 774.192L867.342 796.564Z" stroke="#00BFFF" stroke-opacity="0.4"/>
</g>
<g id="Polygon 16_5">
<path d="M867.916 827.409L869.823 806.016L862.869 806.533L867.916 827.409Z" fill="#D9D9D9" fill-opacity="0.3"/>
<path d="M869.273 806.559L863.494 806.988L867.688 824.339L869.273 806.559Z" stroke="#00BFFF" stroke-opacity="0.4"/>
</g>
<g id="Polygon 7_5">
<path d="M873.37 812.958L877.488 787.152L868.692 787.248L873.37 812.958Z" fill="#D9D9D9" fill-opacity="0.3"/>
<path d="M876.901 787.659L869.29 787.741L873.337 809.99L876.901 787.659Z" stroke="#00BFFF" stroke-opacity="0.4"/>
</g>
<g id="Polygon 21_5">
<path d="M873.005 810.61L877.131 784.539L868.314 784.635L873.005 810.61Z" fill="#D9D9D9" fill-opacity="0.3"/>
<path d="M876.545 785.045L868.91 785.128L872.973 807.616L876.545 785.045Z" stroke="#00BFFF" stroke-opacity="0.4"/>
</g>
<g id="Polygon 17_5">
<path d="M865.091 827.701L869.49 801.941L860.693 801.941L865.091 827.701Z" fill="#D9D9D9" fill-opacity="0.3"/>
<path d="M868.898 802.441L861.285 802.441L865.091 824.732L868.898 802.441Z" stroke="#00BFFF" stroke-opacity="0.4"/>
</g>
<g id="Polygon 10_5">
<path d="M867.733 777.737L863.335 803.497H872.132L867.733 777.737Z" fill="#D9D9D9" fill-opacity="0.3"/>
<path d="M863.927 802.996H871.54L867.734 780.705L863.927 802.996Z" stroke="#00BFFF" stroke-opacity="0.4"/>
</g>
<g id="Polygon 18_5">
<path d="M868.379 823.415L872.777 797.655L863.981 797.655L868.379 823.415Z" fill="#D9D9D9" fill-opacity="0.3"/>
<path d="M872.185 798.155L864.573 798.155L868.379 820.446L872.185 798.155Z" stroke="#00BFFF" stroke-opacity="0.4"/>
</g>
<g id="Polygon 9_5">
<path d="M864.682 776.805L859.648 802.449L868.442 802.666L864.682 776.805Z" fill="#D9D9D9" fill-opacity="0.3"/>
<path d="M860.252 801.963L867.862 802.151L864.609 779.773L860.252 801.963Z" stroke="#00BFFF" stroke-opacity="0.4"/>
</g>
<g id="Polygon 19_5">
<path d="M870.285 835.412L868.894 807.271L860.284 809.071L870.285 835.412Z" fill="#D9D9D9" fill-opacity="0.3"/>
<path d="M868.424 807.88L860.959 809.441L869.629 832.279L868.424 807.88Z" stroke="#00BFFF" stroke-opacity="0.4"/>
</g>
<g id="Polygon 4_5">
<path d="M871.305 774.758L869.318 800.815L878.077 799.998L871.305 774.758Z" fill="#D9D9D9" fill-opacity="0.3"/>
<path d="M869.861 800.262L877.441 799.555L871.582 777.714L869.861 800.262Z" stroke="#00BFFF" stroke-opacity="0.4"/>
</g>
<g id="Polygon 20_5">
<path d="M865.097 827.435L868.256 801.494L859.469 801.915L865.097 827.435Z" fill="#D9D9D9" fill-opacity="0.3"/>
<path d="M867.688 802.022L860.085 802.386L864.954 824.469L867.688 802.022Z" stroke="#00BFFF" stroke-opacity="0.4"/>
</g>
<g id="Polygon 8_5">
<path d="M867.792 774.625L863.394 800.385H872.19L867.792 774.625Z" fill="#D9D9D9" fill-opacity="0.3"/>
<path d="M863.986 799.885H871.598L867.793 777.594L863.986 799.885Z" stroke="#00BFFF" stroke-opacity="0.4"/>
</g>
<g id="Polygon 12_5">
<path d="M872.784 824.337L879.029 798.962L870.256 798.327L872.784 824.337Z" fill="#D9D9D9" fill-opacity="0.3"/>
<path d="M878.403 799.418L870.81 798.869L872.998 821.376L878.403 799.418Z" stroke="#00BFFF" stroke-opacity="0.4"/>
</g>
</g>
</g>
<g id="[&#230;&#139;&#161;&#229;&#188;&#181;&#232;&#161;&#151;]&#227;&#130;&#183;&#227;&#131;&#173;&#227;&#130;&#172;&#227;&#131;&#141;&#229;&#140;&#151;&#230;&#157;&#177;">
<g id="Group 5_6">
<path id="Polygon 22_6" d="M967.404 484.83L955.492 487.04L952.55 492.008L960.793 495.991H974.014L982.257 492.008L979.315 487.04L967.404 484.83Z" fill="#F0FEFF" fill-opacity="0.4"/>
<path id="Polygon 23_6" d="M967.433 480.837L955.314 483.081L952.321 488.123L960.708 492.166H974.158L982.544 488.123L979.551 483.081L967.433 480.837Z" fill="#F0FEFF" fill-opacity="0.4"/>
</g>
<g id="Group 2_6">
<g id="Polygon 1_6">
<path d="M966.908 423.759L962.51 447.758H971.306L966.908 423.759Z" fill="#D9D9D9" fill-opacity="0.3"/>
<path d="M963.109 447.258H970.706L966.908 426.532L963.109 447.258Z" stroke="#00BFFF" stroke-opacity="0.4"/>
</g>
<g id="Polygon 11_6">
<path d="M964.207 487.756L968.605 461.996L959.809 461.996L964.207 487.756Z" fill="#D9D9D9" fill-opacity="0.3"/>
<path d="M968.013 462.496L960.401 462.496L964.207 484.787L968.013 462.496Z" stroke="#00BFFF" stroke-opacity="0.4"/>
</g>
<g id="Polygon 2_6">
<path d="M965.116 430.499L958.838 455.866L967.61 456.512L965.116 430.499Z" fill="#D9D9D9" fill-opacity="0.3"/>
<path d="M959.465 455.411L967.057 455.97L964.899 433.46L959.465 455.411Z" stroke="#00BFFF" stroke-opacity="0.4"/>
</g>
<g id="Polygon 6_6">
<path d="M966.037 426.121L958.226 457.04L966.145 458.011L966.037 426.121Z" fill="#D9D9D9" fill-opacity="0.3"/>
<path d="M958.85 456.613L965.643 457.446L965.551 430.089L958.85 456.613Z" stroke="#00BFFF" stroke-opacity="0.4"/>
</g>
<g id="Polygon 13_6">
<path d="M968.199 488.225L972.598 462.465L963.801 462.465L968.199 488.225Z" fill="#D9D9D9" fill-opacity="0.3"/>
<path d="M972.006 462.965L964.393 462.965L968.199 485.256L972.006 462.965Z" stroke="#00BFFF" stroke-opacity="0.4"/>
</g>
<g id="Polygon 5_6">
<path d="M966.531 425.184L961.029 450.731L969.817 451.11L966.531 425.184Z" fill="#D9D9D9" fill-opacity="0.3"/>
<path d="M961.642 450.257L969.247 450.584L966.404 428.15L961.642 450.257Z" stroke="#00BFFF" stroke-opacity="0.4"/>
</g>
<g id="Polygon 14_6">
<path d="M971.86 487.726L974.67 454.896L969.633 454.852L971.86 487.726Z" fill="#D9D9D9" fill-opacity="0.3"/>
<path d="M974.127 455.391L970.168 455.356L971.918 481.181L974.127 455.391Z" stroke="#00BFFF" stroke-opacity="0.4"/>
</g>
<g id="Polygon 15_6">
<path d="M965.401 485.828L976.413 462.129L967.926 459.818L965.401 485.828Z" fill="#D9D9D9" fill-opacity="0.3"/>
<path d="M975.71 462.456L968.365 460.456L966.181 482.964L975.71 462.456Z" stroke="#00BFFF" stroke-opacity="0.4"/>
</g>
<g id="Polygon 3_6">
<path d="M968.571 429.224L964.761 455.078L973.556 454.877L968.571 429.224Z" fill="#D9D9D9" fill-opacity="0.3"/>
<path d="M965.342 454.564L972.952 454.39L968.639 432.192L965.342 454.564Z" stroke="#00BFFF" stroke-opacity="0.4"/>
</g>
<g id="Polygon 16_6">
<path d="M965.916 485.409L967.823 464.016L960.869 464.533L965.916 485.409Z" fill="#D9D9D9" fill-opacity="0.3"/>
<path d="M967.273 464.559L961.494 464.988L965.688 482.339L967.273 464.559Z" stroke="#00BFFF" stroke-opacity="0.4"/>
</g>
<g id="Polygon 7_6">
<path d="M971.37 470.958L975.488 445.152L966.692 445.248L971.37 470.958Z" fill="#D9D9D9" fill-opacity="0.3"/>
<path d="M974.902 445.659L967.29 445.741L971.337 467.99L974.902 445.659Z" stroke="#00BFFF" stroke-opacity="0.4"/>
</g>
<g id="Polygon 21_6">
<path d="M971.005 468.61L975.131 442.539L966.314 442.635L971.005 468.61Z" fill="#D9D9D9" fill-opacity="0.3"/>
<path d="M974.545 443.045L966.911 443.128L970.973 465.616L974.545 443.045Z" stroke="#00BFFF" stroke-opacity="0.4"/>
</g>
<g id="Polygon 17_6">
<path d="M963.091 485.701L967.49 459.941L958.693 459.941L963.091 485.701Z" fill="#D9D9D9" fill-opacity="0.3"/>
<path d="M966.898 460.441L959.285 460.441L963.091 482.732L966.898 460.441Z" stroke="#00BFFF" stroke-opacity="0.4"/>
</g>
<g id="Polygon 10_6">
<path d="M965.734 435.737L961.335 461.497H970.132L965.734 435.737Z" fill="#D9D9D9" fill-opacity="0.3"/>
<path d="M961.927 460.996H969.54L965.734 438.705L961.927 460.996Z" stroke="#00BFFF" stroke-opacity="0.4"/>
</g>
<g id="Polygon 18_6">
<path d="M966.379 481.415L970.778 455.655L961.981 455.655L966.379 481.415Z" fill="#D9D9D9" fill-opacity="0.3"/>
<path d="M970.186 456.155L962.573 456.155L966.379 478.446L970.186 456.155Z" stroke="#00BFFF" stroke-opacity="0.4"/>
</g>
<g id="Polygon 9_6">
<path d="M962.682 434.805L957.648 460.449L966.442 460.666L962.682 434.805Z" fill="#D9D9D9" fill-opacity="0.3"/>
<path d="M958.253 459.963L965.862 460.151L962.609 437.773L958.253 459.963Z" stroke="#00BFFF" stroke-opacity="0.4"/>
</g>
<g id="Polygon 19_6">
<path d="M968.285 493.412L966.895 465.271L958.284 467.071L968.285 493.412Z" fill="#D9D9D9" fill-opacity="0.3"/>
<path d="M966.424 465.88L958.96 467.441L967.629 490.279L966.424 465.88Z" stroke="#00BFFF" stroke-opacity="0.4"/>
</g>
<g id="Polygon 4_6">
<path d="M969.306 432.758L967.318 458.815L976.077 457.998L969.306 432.758Z" fill="#D9D9D9" fill-opacity="0.3"/>
<path d="M967.861 458.262L975.441 457.555L969.582 435.714L967.861 458.262Z" stroke="#00BFFF" stroke-opacity="0.4"/>
</g>
<g id="Polygon 20_6">
<path d="M963.097 485.435L966.256 459.494L957.47 459.915L963.097 485.435Z" fill="#D9D9D9" fill-opacity="0.3"/>
<path d="M965.689 460.022L958.085 460.386L962.955 482.47L965.689 460.022Z" stroke="#00BFFF" stroke-opacity="0.4"/>
</g>
<g id="Polygon 8_6">
<path d="M965.792 432.625L961.394 458.385H970.19L965.792 432.625Z" fill="#D9D9D9" fill-opacity="0.3"/>
<path d="M961.986 457.885H969.598L965.793 435.594L961.986 457.885Z" stroke="#00BFFF" stroke-opacity="0.4"/>
</g>
<g id="Polygon 12_6">
<path d="M970.784 482.337L977.029 456.962L968.256 456.327L970.784 482.337Z" fill="#D9D9D9" fill-opacity="0.3"/>
<path d="M976.403 457.418L968.81 456.869L970.998 479.376L976.403 457.418Z" stroke="#00BFFF" stroke-opacity="0.4"/>
</g>
</g>
</g>
<g id="[&#230;&#139;&#161;&#229;&#188;&#181;&#232;&#161;&#151;]&#227;&#130;&#183;&#227;&#131;&#173;&#227;&#130;&#172;&#227;&#131;&#141;&#229;&#140;&#151;">
<g id="Group 5_7">
<path id="Polygon 22_7" d="M796.404 281.83L784.492 284.04L781.55 289.008L789.793 292.991H803.014L811.257 289.008L808.315 284.04L796.404 281.83Z" fill="#F0FEFF" fill-opacity="0.4"/>
<path id="Polygon 23_7" d="M796.433 277.837L784.314 280.081L781.321 285.123L789.708 289.166H803.158L811.544 285.123L808.551 280.081L796.433 277.837Z" fill="#F0FEFF" fill-opacity="0.4"/>
</g>
<g id="Group 2_7">
<g id="Polygon 1_7">
<path d="M795.908 220.759L791.51 244.758H800.306L795.908 220.759Z" fill="#D9D9D9" fill-opacity="0.3"/>
<path d="M792.109 244.258H799.706L795.908 223.532L792.109 244.258Z" stroke="#00BFFF" stroke-opacity="0.4"/>
</g>
<g id="Polygon 11_7">
<path d="M793.207 284.756L797.605 258.996L788.809 258.996L793.207 284.756Z" fill="#D9D9D9" fill-opacity="0.3"/>
<path d="M797.013 259.496L789.401 259.496L793.207 281.787L797.013 259.496Z" stroke="#00BFFF" stroke-opacity="0.4"/>
</g>
<g id="Polygon 2_7">
<path d="M794.116 227.499L787.838 252.866L796.61 253.512L794.116 227.499Z" fill="#D9D9D9" fill-opacity="0.3"/>
<path d="M788.465 252.411L796.057 252.97L793.899 230.46L788.465 252.411Z" stroke="#00BFFF" stroke-opacity="0.4"/>
</g>
<g id="Polygon 6_7">
<path d="M795.037 223.121L787.226 254.04L795.145 255.011L795.037 223.121Z" fill="#D9D9D9" fill-opacity="0.3"/>
<path d="M787.85 253.613L794.643 254.446L794.551 227.089L787.85 253.613Z" stroke="#00BFFF" stroke-opacity="0.4"/>
</g>
<g id="Polygon 13_7">
<path d="M797.199 285.225L801.598 259.465L792.801 259.465L797.199 285.225Z" fill="#D9D9D9" fill-opacity="0.3"/>
<path d="M801.006 259.965L793.393 259.965L797.199 282.256L801.006 259.965Z" stroke="#00BFFF" stroke-opacity="0.4"/>
</g>
<g id="Polygon 5_7">
<path d="M795.531 222.184L790.029 247.731L798.817 248.11L795.531 222.184Z" fill="#D9D9D9" fill-opacity="0.3"/>
<path d="M790.642 247.257L798.247 247.584L795.404 225.15L790.642 247.257Z" stroke="#00BFFF" stroke-opacity="0.4"/>
</g>
<g id="Polygon 14_7">
<path d="M800.86 284.726L803.67 251.896L798.633 251.852L800.86 284.726Z" fill="#D9D9D9" fill-opacity="0.3"/>
<path d="M803.127 252.391L799.168 252.356L800.918 278.181L803.127 252.391Z" stroke="#00BFFF" stroke-opacity="0.4"/>
</g>
<g id="Polygon 15_7">
<path d="M794.401 282.828L805.413 259.129L796.926 256.818L794.401 282.828Z" fill="#D9D9D9" fill-opacity="0.3"/>
<path d="M804.71 259.456L797.365 257.456L795.181 279.964L804.71 259.456Z" stroke="#00BFFF" stroke-opacity="0.4"/>
</g>
<g id="Polygon 3_7">
<path d="M797.571 226.224L793.761 252.078L802.556 251.877L797.571 226.224Z" fill="#D9D9D9" fill-opacity="0.3"/>
<path d="M794.342 251.564L801.952 251.39L797.639 229.192L794.342 251.564Z" stroke="#00BFFF" stroke-opacity="0.4"/>
</g>
<g id="Polygon 16_7">
<path d="M794.916 282.409L796.823 261.016L789.869 261.533L794.916 282.409Z" fill="#D9D9D9" fill-opacity="0.3"/>
<path d="M796.273 261.559L790.494 261.988L794.688 279.339L796.273 261.559Z" stroke="#00BFFF" stroke-opacity="0.4"/>
</g>
<g id="Polygon 7_7">
<path d="M800.37 267.958L804.488 242.152L795.692 242.248L800.37 267.958Z" fill="#D9D9D9" fill-opacity="0.3"/>
<path d="M803.902 242.659L796.29 242.741L800.337 264.99L803.902 242.659Z" stroke="#00BFFF" stroke-opacity="0.4"/>
</g>
<g id="Polygon 21_7">
<path d="M800.005 265.61L804.131 239.539L795.314 239.635L800.005 265.61Z" fill="#D9D9D9" fill-opacity="0.3"/>
<path d="M803.545 240.045L795.911 240.128L799.973 262.616L803.545 240.045Z" stroke="#00BFFF" stroke-opacity="0.4"/>
</g>
<g id="Polygon 17_7">
<path d="M792.091 282.701L796.49 256.941L787.693 256.941L792.091 282.701Z" fill="#D9D9D9" fill-opacity="0.3"/>
<path d="M795.898 257.441L788.285 257.441L792.091 279.732L795.898 257.441Z" stroke="#00BFFF" stroke-opacity="0.4"/>
</g>
<g id="Polygon 10_7">
<path d="M794.734 232.737L790.335 258.497H799.132L794.734 232.737Z" fill="#D9D9D9" fill-opacity="0.3"/>
<path d="M790.927 257.996H798.54L794.734 235.705L790.927 257.996Z" stroke="#00BFFF" stroke-opacity="0.4"/>
</g>
<g id="Polygon 18_7">
<path d="M795.379 278.415L799.778 252.655L790.981 252.655L795.379 278.415Z" fill="#D9D9D9" fill-opacity="0.3"/>
<path d="M799.186 253.155L791.573 253.155L795.379 275.446L799.186 253.155Z" stroke="#00BFFF" stroke-opacity="0.4"/>
</g>
<g id="Polygon 9_7">
<path d="M791.682 231.805L786.648 257.449L795.442 257.666L791.682 231.805Z" fill="#D9D9D9" fill-opacity="0.3"/>
<path d="M787.253 256.963L794.862 257.151L791.609 234.773L787.253 256.963Z" stroke="#00BFFF" stroke-opacity="0.4"/>
</g>
<g id="Polygon 19_7">
<path d="M797.285 290.412L795.895 262.271L787.284 264.071L797.285 290.412Z" fill="#D9D9D9" fill-opacity="0.3"/>
<path d="M795.424 262.88L787.96 264.441L796.629 287.279L795.424 262.88Z" stroke="#00BFFF" stroke-opacity="0.4"/>
</g>
<g id="Polygon 4_7">
<path d="M798.306 229.758L796.318 255.815L805.077 254.998L798.306 229.758Z" fill="#D9D9D9" fill-opacity="0.3"/>
<path d="M796.861 255.262L804.441 254.555L798.582 232.714L796.861 255.262Z" stroke="#00BFFF" stroke-opacity="0.4"/>
</g>
<g id="Polygon 20_7">
<path d="M792.097 282.435L795.256 256.494L786.47 256.915L792.097 282.435Z" fill="#D9D9D9" fill-opacity="0.3"/>
<path d="M794.689 257.022L787.085 257.386L791.955 279.47L794.689 257.022Z" stroke="#00BFFF" stroke-opacity="0.4"/>
</g>
<g id="Polygon 8_7">
<path d="M794.792 229.625L790.394 255.385H799.19L794.792 229.625Z" fill="#D9D9D9" fill-opacity="0.3"/>
<path d="M790.986 254.885H798.598L794.793 232.594L790.986 254.885Z" stroke="#00BFFF" stroke-opacity="0.4"/>
</g>
<g id="Polygon 12_7">
<path d="M799.784 279.337L806.029 253.962L797.256 253.327L799.784 279.337Z" fill="#D9D9D9" fill-opacity="0.3"/>
<path d="M805.403 254.418L797.81 253.869L799.998 276.376L805.403 254.418Z" stroke="#00BFFF" stroke-opacity="0.4"/>
</g>
</g>
</g>
<g id="[&#230;&#139;&#161;&#229;&#188;&#181;&#232;&#161;&#151;]&#227;&#130;&#183;&#227;&#131;&#173;&#227;&#130;&#172;&#227;&#131;&#141;&#230;&#157;&#177;">
<g id="Group 5_8">
<path id="Polygon 22_8" d="M1366.4 451.83L1354.49 454.04L1351.55 459.007L1359.79 462.991H1373.01L1381.26 459.007L1378.32 454.04L1366.4 451.83Z" fill="#F0FEFF" fill-opacity="0.4"/>
<path id="Polygon 23_8" d="M1366.43 447.837L1354.31 450.081L1351.32 455.123L1359.71 459.166H1373.16L1381.54 455.123L1378.55 450.081L1366.43 447.837Z" fill="#F0FEFF" fill-opacity="0.4"/>
</g>
<g id="Group 2_8">
<g id="Polygon 1_8">
<path d="M1365.91 390.759L1361.51 414.758H1370.31L1365.91 390.759Z" fill="#D9D9D9" fill-opacity="0.3"/>
<path d="M1362.11 414.258H1369.71L1365.91 393.532L1362.11 414.258Z" stroke="#00BFFF" stroke-opacity="0.4"/>
</g>
<g id="Polygon 11_8">
<path d="M1363.21 454.755L1367.61 428.995L1358.81 428.995L1363.21 454.755Z" fill="#D9D9D9" fill-opacity="0.3"/>
<path d="M1367.01 429.496L1359.4 429.496L1363.21 451.787L1367.01 429.496Z" stroke="#00BFFF" stroke-opacity="0.4"/>
</g>
<g id="Polygon 2_8">
<path d="M1364.12 397.499L1357.84 422.866L1366.61 423.512L1364.12 397.499Z" fill="#D9D9D9" fill-opacity="0.3"/>
<path d="M1358.46 422.411L1366.06 422.97L1363.9 400.459L1358.46 422.411Z" stroke="#00BFFF" stroke-opacity="0.4"/>
</g>
<g id="Polygon 6_8">
<path d="M1365.04 393.121L1357.23 424.04L1365.15 425.011L1365.04 393.121Z" fill="#D9D9D9" fill-opacity="0.3"/>
<path d="M1357.85 423.613L1364.64 424.446L1364.55 397.088L1357.85 423.613Z" stroke="#00BFFF" stroke-opacity="0.4"/>
</g>
<g id="Polygon 13_8">
<path d="M1367.2 455.225L1371.6 429.465L1362.8 429.465L1367.2 455.225Z" fill="#D9D9D9" fill-opacity="0.3"/>
<path d="M1371.01 429.965L1363.39 429.965L1367.2 452.256L1371.01 429.965Z" stroke="#00BFFF" stroke-opacity="0.4"/>
</g>
<g id="Polygon 5_8">
<path d="M1365.53 392.184L1360.03 417.731L1368.82 418.109L1365.53 392.184Z" fill="#D9D9D9" fill-opacity="0.3"/>
<path d="M1360.64 417.257L1368.25 417.584L1365.4 395.15L1360.64 417.257Z" stroke="#00BFFF" stroke-opacity="0.4"/>
</g>
<g id="Polygon 14_8">
<path d="M1370.86 454.726L1373.67 421.896L1368.63 421.851L1370.86 454.726Z" fill="#D9D9D9" fill-opacity="0.3"/>
<path d="M1373.13 422.391L1369.17 422.356L1370.92 448.181L1373.13 422.391Z" stroke="#00BFFF" stroke-opacity="0.4"/>
</g>
<g id="Polygon 15_8">
<path d="M1364.4 452.828L1375.41 429.129L1366.93 426.818L1364.4 452.828Z" fill="#D9D9D9" fill-opacity="0.3"/>
<path d="M1374.71 429.456L1367.37 427.456L1365.18 449.964L1374.71 429.456Z" stroke="#00BFFF" stroke-opacity="0.4"/>
</g>
<g id="Polygon 3_8">
<path d="M1367.57 396.224L1363.76 422.077L1372.56 421.877L1367.57 396.224Z" fill="#D9D9D9" fill-opacity="0.3"/>
<path d="M1364.34 421.564L1371.95 421.39L1367.64 399.192L1364.34 421.564Z" stroke="#00BFFF" stroke-opacity="0.4"/>
</g>
<g id="Polygon 16_8">
<path d="M1364.92 452.409L1366.82 431.016L1359.87 431.533L1364.92 452.409Z" fill="#D9D9D9" fill-opacity="0.3"/>
<path d="M1366.27 431.558L1360.49 431.988L1364.69 449.339L1366.27 431.558Z" stroke="#00BFFF" stroke-opacity="0.4"/>
</g>
<g id="Polygon 7_8">
<path d="M1370.37 437.958L1374.49 412.152L1365.69 412.248L1370.37 437.958Z" fill="#D9D9D9" fill-opacity="0.3"/>
<path d="M1373.9 412.659L1366.29 412.741L1370.34 434.99L1373.9 412.659Z" stroke="#00BFFF" stroke-opacity="0.4"/>
</g>
<g id="Polygon 21_8">
<path d="M1370.01 435.61L1374.13 409.539L1365.31 409.635L1370.01 435.61Z" fill="#D9D9D9" fill-opacity="0.3"/>
<path d="M1373.54 410.045L1365.91 410.128L1369.97 432.616L1373.54 410.045Z" stroke="#00BFFF" stroke-opacity="0.4"/>
</g>
<g id="Polygon 17_8">
<path d="M1362.09 452.7L1366.49 426.94L1357.69 426.94L1362.09 452.7Z" fill="#D9D9D9" fill-opacity="0.3"/>
<path d="M1365.9 427.441L1358.29 427.441L1362.09 449.732L1365.9 427.441Z" stroke="#00BFFF" stroke-opacity="0.4"/>
</g>
<g id="Polygon 10_8">
<path d="M1364.73 402.736L1360.34 428.496H1369.13L1364.73 402.736Z" fill="#D9D9D9" fill-opacity="0.3"/>
<path d="M1360.93 427.996H1368.54L1364.73 405.705L1360.93 427.996Z" stroke="#00BFFF" stroke-opacity="0.4"/>
</g>
<g id="Polygon 18_8">
<path d="M1365.38 448.414L1369.78 422.654L1360.98 422.654L1365.38 448.414Z" fill="#D9D9D9" fill-opacity="0.3"/>
<path d="M1369.19 423.155L1361.57 423.155L1365.38 445.446L1369.19 423.155Z" stroke="#00BFFF" stroke-opacity="0.4"/>
</g>
<g id="Polygon 9_8">
<path d="M1361.68 401.805L1356.65 427.448L1365.44 427.666L1361.68 401.805Z" fill="#D9D9D9" fill-opacity="0.3"/>
<path d="M1357.25 426.963L1364.86 427.151L1361.61 404.773L1357.25 426.963Z" stroke="#00BFFF" stroke-opacity="0.4"/>
</g>
<g id="Polygon 19_8">
<path d="M1367.28 460.412L1365.89 432.271L1357.28 434.071L1367.28 460.412Z" fill="#D9D9D9" fill-opacity="0.3"/>
<path d="M1365.42 432.88L1357.96 434.441L1366.63 457.279L1365.42 432.88Z" stroke="#00BFFF" stroke-opacity="0.4"/>
</g>
<g id="Polygon 4_8">
<path d="M1368.31 399.758L1366.32 425.815L1375.08 424.998L1368.31 399.758Z" fill="#D9D9D9" fill-opacity="0.3"/>
<path d="M1366.86 425.262L1374.44 424.555L1368.58 402.713L1366.86 425.262Z" stroke="#00BFFF" stroke-opacity="0.4"/>
</g>
<g id="Polygon 20_8">
<path d="M1362.1 452.435L1365.26 426.494L1356.47 426.915L1362.1 452.435Z" fill="#D9D9D9" fill-opacity="0.3"/>
<path d="M1364.69 427.021L1357.08 427.386L1361.95 449.469L1364.69 427.021Z" stroke="#00BFFF" stroke-opacity="0.4"/>
</g>
<g id="Polygon 8_8">
<path d="M1364.79 399.625L1360.39 425.385H1369.19L1364.79 399.625Z" fill="#D9D9D9" fill-opacity="0.3"/>
<path d="M1360.99 424.884H1368.6L1364.79 402.593L1360.99 424.884Z" stroke="#00BFFF" stroke-opacity="0.4"/>
</g>
<g id="Polygon 12_8">
<path d="M1369.78 449.337L1376.03 423.961L1367.26 423.327L1369.78 449.337Z" fill="#D9D9D9" fill-opacity="0.3"/>
<path d="M1375.4 424.418L1367.81 423.869L1370 446.376L1375.4 424.418Z" stroke="#00BFFF" stroke-opacity="0.4"/>
</g>
</g>
</g>
</g>
<path id="&#227;&#131;&#138;&#227;&#131;&#147;&#227;&#130;&#178;&#227;&#131;&#188;&#227;&#130;&#183;&#227;&#131;&#167;&#227;&#131;&#179;&#231;&#148;&#168;&#233;&#129;&#147;&#232;&#183;&#175;" d="M973.433 551.259C1001.54 562.535 1040.21 566.397 1197.93 563.759C1208.97 512.592 1221.23 485.921 1260.93 444.259C1292.68 422.215 1309.51 408.331 1337.43 380.259L1506.43 209.759C1537.17 175.267 1536.75 151.912 1518.43 106.259M1337.43 380.259C1310.77 318.33 1293.21 284.972 1247.93 232.759C1223.86 205.212 1203.7 205.569 1210.6 241.259C1210.12 264.24 1209.25 274.082 1206.43 285.259C1194.52 297.665 1189.56 297.337 1183.43 285.259C1182.1 246.562 1179.79 230.022 1172.43 211.259C1161.94 192.221 1158.64 194.306 1155.43 211.259C1149.14 255.827 1134.59 257.334 1105.93 254.259C1095.02 255.311 1090.6 258.14 1085.43 266.759L915.933 459.259M868.933 213.759L771.933 225.735L706.933 233.759C722.284 252.642 736.38 269.683 749.524 285.259C816.448 364.575 858.655 405.932 915.933 459.259C967.846 494.794 976.492 514.99 973.433 551.259M771.933 225.735L751.433 57.7593C726.92 26.3788 713.109 18.97 688.433 12.2593C631.109 19.0998 605.189 29.6848 567.433 57.7593C487.913 124.091 443.738 166.885 365.933 256.759M365.933 256.759C305.388 321.218 272.248 359.429 215.933 434.759M365.933 256.759L564.933 412.759M215.933 434.759L36.4329 335.759M243.933 1046.26L47.4329 948.759L92.9329 804.259L215.933 434.759M215.933 434.759L452.433 567.759M92.9329 804.259L317.139 877.259M243.933 1046.26L232.933 1366.76L317.433 1452.76M243.933 1046.26L278.433 971.259M317.433 1452.76L184.933 1790.26C177.287 1805.29 171.925 1806.09 159.933 1790.26C142.186 1732.75 131.295 1706.14 110.433 1667.26C90.8103 1646.34 76.4292 1642.26 44.9329 1648.26L12.9329 1671.26M317.433 1452.76L476.933 1356.26M476.933 1356.26L547.433 1452.76L642.433 1409.76M476.933 1356.26C467.518 1336.53 475.861 1316.88 515.433 1266.26M830.933 1013.76L891.433 1036.26C945.812 1067.55 959.892 1095.76 973.933 1153.26C996.831 1188.78 1002.98 1209.61 991.933 1249.76C948.608 1337.59 924.978 1372.39 883.433 1421.26L765.433 1535.26L642.433 1409.76M642.433 1409.76L698.933 1340.93M883.433 1421.26L740.933 1289.76M830.933 1013.76C827.471 1003.26 838.824 936.504 853.433 843.259C810.257 815.791 781.127 800.757 724.933 774.259M830.933 1013.76H729.433M724.933 774.259C749.152 739.683 756.623 720.412 758.433 686.259M724.933 774.259C702.961 822.054 689.171 843.143 655.933 847.259L632.933 852.759M724.933 774.259C670.178 768.224 642.263 753.33 597.433 706.259M758.433 686.259L962.933 668.759C961.085 625.501 962.582 600.129 973.433 551.259M758.433 686.259C748.897 672.584 741.57 664.505 724.933 649.259M749.524 285.259L564.933 412.759M564.933 412.759L452.433 567.759M632.933 852.759L729.433 1013.76M632.933 852.759C612.707 842.577 602.506 829.413 586.933 788.759M729.433 1013.76L698.933 1094.76M698.933 1094.76L809.433 1157.76L740.933 1289.76M698.933 1094.76C676.517 1090.22 663.406 1098.71 639.433 1125.76C615.173 1164.63 596.19 1193.06 578.948 1214.26M740.933 1289.76L698.933 1340.93M515.433 1266.26L397.933 1128.76L433.433 1057.26M515.433 1266.26C538.501 1256.03 557.359 1240.81 578.948 1214.26M433.433 1057.26L278.433 971.259M433.433 1057.26L586.933 788.759M452.433 570.759L369.933 693.259L327.433 852.259L317.139 877.259L278.433 971.259M586.933 788.759C583.83 753.186 585.571 734.863 597.433 706.259M597.433 706.259C619.05 661.524 647.244 649.263 724.933 649.259M597.433 706.259L452.433 567.759M724.933 649.259C709.204 580.921 722.244 546.307 781.933 490.759M578.948 1214.26L698.933 1340.93" stroke="#FF0000"/>
<g id="Node">
<circle id="node_27" cx="826.933" cy="1017.76" r="27.5" transform="rotate(-90 826.933 1017.76)" stroke="#FF0000"/>
<circle id="node_29" cx="880.933" cy="1417.76" r="27.5" transform="rotate(-90 880.933 1417.76)" stroke="#FF0000"/>
<circle id="node_28" cx="741.933" cy="1294.76" r="27.5" transform="rotate(-90 741.933 1294.76)" stroke="#FF0000"/>
<circle id="node_31" cx="698.933" cy="1340.76" r="27.5" transform="rotate(-90 698.933 1340.76)" stroke="#FF0000"/>
<circle id="node_30" cx="579.933" cy="1220.76" r="27.5" transform="rotate(-90 579.933 1220.76)" stroke="#FF0000"/>
<circle id="node_26" cx="643.933" cy="1409.76" r="27.5" transform="rotate(-90 643.933 1409.76)" stroke="#FF0000"/>
<circle id="node_25" cx="703.933" cy="1097.76" r="27.5" transform="rotate(-90 703.933 1097.76)" stroke="#FF0000"/>
<circle id="node_24" cx="726.933" cy="1017.76" r="27.5" transform="rotate(-90 726.933 1017.76)" stroke="#FF0000"/>
<circle id="node_23" cx="515.933" cy="1266.76" r="27.5" transform="rotate(-90 515.933 1266.76)" stroke="#FF0000"/>
<circle id="node_22" cx="471.933" cy="1356.76" r="27.5" transform="rotate(-90 471.933 1356.76)" stroke="#FF0000"/>
<circle id="node_21" cx="313.933" cy="1450.76" r="27.5" transform="rotate(-90 313.933 1450.76)" stroke="#FF0000"/>
<circle id="node_20" cx="241.933" cy="1045.76" r="27.5" transform="rotate(-90 241.933 1045.76)" stroke="#FF0000"/>
<circle id="node_19" cx="277.933" cy="977.759" r="27.5" transform="rotate(-90 277.933 977.759)" stroke="#FF0000"/>
<circle id="node_18" cx="435.933" cy="1057.76" r="27.5" transform="rotate(-90 435.933 1057.76)" stroke="#FF0000"/>
<circle id="node_17" cx="311.933" cy="876.759" r="27.5" transform="rotate(-90 311.933 876.759)" stroke="#FF0000"/>
<circle id="node_16" cx="97.9329" cy="804.759" r="27.5" transform="rotate(-90 97.9329 804.759)" stroke="#FF0000"/>
<circle id="node_15" cx="217.933" cy="431.759" r="27.5" transform="rotate(-90 217.933 431.759)" stroke="#FF0000"/>
<circle id="node_14" cx="451.933" cy="562.759" r="27.5" transform="rotate(-90 451.933 562.759)" stroke="#FF0000"/>
<circle id="node_13" cx="563.933" cy="408.759" r="27.5" transform="rotate(-90 563.933 408.759)" stroke="#FF0000"/>
<circle id="node_12" cx="742.933" cy="293.759" r="27.5" transform="rotate(-90 742.933 293.759)" stroke="#FF0000"/>
<circle id="node_11" cx="919.933" cy="456.759" r="27.5" transform="rotate(-90 919.933 456.759)" stroke="#FF0000"/>
<circle id="node_10" cx="978.933" cy="550.759" r="27.5" transform="rotate(-90 978.933 550.759)" stroke="#FF0000"/>
<circle id="node_9" cx="763.933" cy="689.759" r="27.5" transform="rotate(-90 763.933 689.759)" stroke="#FF0000"/>
<circle id="node_8" cx="718.933" cy="640.759" r="27.5" transform="rotate(-90 718.933 640.759)" stroke="#FF0000"/>
<circle id="node_7" cx="598.933" cy="696.759" r="27.5" transform="rotate(-90 598.933 696.759)" stroke="#FF0000"/>
<circle id="node_6" cx="583.933" cy="805.759" r="27.5" transform="rotate(-90 583.933 805.759)" stroke="#FF0000"/>
<circle id="node_5" cx="640.933" cy="851.759" r="27.5" transform="rotate(-90 640.933 851.759)" stroke="#FF0000"/>
<circle id="node_4" cx="728.933" cy="772.759" r="27.5" transform="rotate(-90 728.933 772.759)" stroke="#FF0000"/>
<circle id="node_3" cx="1333.93" cy="375.759" r="27.5" transform="rotate(-90 1333.93 375.759)" stroke="#FF0000"/>
<circle id="node_2" cx="769.933" cy="218.759" r="27.5" transform="rotate(-90 769.933 218.759)" stroke="#FF0000"/>
<circle id="node_1" cx="373.933" cy="252.759" r="27.5" transform="rotate(-90 373.933 252.759)" stroke="#FF0000"/>
</g>
</g>
</svg>
