<svg xmlns="http://www.w3.org/2000/svg" viewBox="0 0 100 100" fill="none">
  <!-- 茎 -->
  <line x1="50" y1="28" x2="46" y2="8" stroke="white" stroke-width="1.8" stroke-linecap="round"/>
  <line x1="50" y1="28" x2="56" y2="10" stroke="white" stroke-width="1.8" stroke-linecap="round"/>
  <line x1="46" y1="8" x2="40" y2="3" stroke="white" stroke-width="1.2" stroke-linecap="round"/>
  <line x1="56" y1="10" x2="62" y2="5" stroke="white" stroke-width="1.2" stroke-linecap="round"/>
  <!-- 葉 -->
  <polygon points="40,3 22,8 18,20 28,26 38,18" stroke="white" stroke-width="1.2" fill="rgba(255,255,255,0.7)" stroke-linejoin="miter"/>
  <line x1="40" y1="3" x2="26" y2="18" stroke="white" stroke-width="0.5"/>
  <line x1="28" y1="10" x2="24" y2="20" stroke="white" stroke-width="0.4"/>
  <polygon points="62,5 78,8 80,18 72,24 64,16" stroke="white" stroke-width="1.2" fill="rgba(255,255,255,0.7)" stroke-linejoin="miter"/>
  <line x1="62" y1="5" x2="74" y2="16" stroke="white" stroke-width="0.5"/>
  <line x1="72" y1="10" x2="76" y2="18" stroke="white" stroke-width="0.4"/>
  <!-- 粒（Bパターン: 白塗り + 黒線 + 内部線） -->
  <g>
    <polygon points="42.0,32.0 47.7,35.0 47.7,41.0 42.0,44.0 36.3,41.0 36.3,35.0" stroke="rgba(0,0,0,0.8)" stroke-width="1.2" fill="rgba(255,255,255,0.85)" stroke-linejoin="miter"/>
    <line x1="42" y1="38" x2="42.0" y2="28.0" stroke="rgba(0,0,0,0.3)" stroke-width="0.4"/>
    <line x1="42" y1="38" x2="36.3" y2="41.0" stroke="rgba(0,0,0,0.3)" stroke-width="0.4"/>
    <line x1="42" y1="38" x2="47.7" y2="41.0" stroke="rgba(0,0,0,0.3)" stroke-width="0.4"/>
  </g>
  <g>
    <polygon points="59.3,36.5 64.3,39.5 64.3,45.0 59.3,48.0 54.3,45.0 54.3,39.5" stroke="rgba(0,0,0,0.8)" stroke-width="1.2" fill="rgba(255,255,255,0.85)" stroke-linejoin="miter"/>
    <line x1="59.3" y1="42.2" x2="59.3" y2="32.7" stroke="rgba(0,0,0,0.3)" stroke-width="0.4"/>
    <line x1="59.3" y1="42.2" x2="54.3" y2="45.0" stroke="rgba(0,0,0,0.3)" stroke-width="0.4"/>
    <line x1="59.3" y1="42.2" x2="64.3" y2="45.0" stroke="rgba(0,0,0,0.3)" stroke-width="0.4"/>
  </g>
  <g>
    <polygon points="34.0,47.0 39.7,50.0 39.7,56.0 34.0,59.0 28.3,56.0 28.3,50.0" stroke="rgba(0,0,0,0.8)" stroke-width="1.2" fill="rgba(255,255,255,0.85)" stroke-linejoin="miter"/>
    <line x1="34" y1="52.5" x2="34.0" y2="42.5" stroke="rgba(0,0,0,0.3)" stroke-width="0.4"/>
    <line x1="34" y1="52.5" x2="28.3" y2="56.0" stroke="rgba(0,0,0,0.3)" stroke-width="0.4"/>
    <line x1="34" y1="52.5" x2="39.7" y2="56.0" stroke="rgba(0,0,0,0.3)" stroke-width="0.4"/>
  </g>
  <g>
    <polygon points="50.0,45.0 56.0,48.0 56.0,54.5 50.0,57.5 44.0,54.5 44.0,48.0" stroke="rgba(0,0,0,0.8)" stroke-width="1.2" fill="rgba(255,255,255,0.85)" stroke-linejoin="miter"/>
    <line x1="50" y1="50.8" x2="50.0" y2="40.8" stroke="rgba(0,0,0,0.3)" stroke-width="0.4"/>
    <line x1="50" y1="50.8" x2="44.0" y2="54.5" stroke="rgba(0,0,0,0.3)" stroke-width="0.4"/>
    <line x1="50" y1="50.8" x2="56.0" y2="54.5" stroke="rgba(0,0,0,0.3)" stroke-width="0.4"/>
  </g>
  <g>
    <polygon points="66.0,47.0 71.7,50.0 71.7,56.0 66.0,59.0 60.3,56.0 60.3,50.0" stroke="rgba(0,0,0,0.8)" stroke-width="1.2" fill="rgba(255,255,255,0.85)" stroke-linejoin="miter"/>
    <line x1="66" y1="52.5" x2="66.0" y2="42.5" stroke="rgba(0,0,0,0.3)" stroke-width="0.4"/>
    <line x1="66" y1="52.5" x2="60.3" y2="56.0" stroke="rgba(0,0,0,0.3)" stroke-width="0.4"/>
    <line x1="66" y1="52.5" x2="71.7" y2="56.0" stroke="rgba(0,0,0,0.3)" stroke-width="0.4"/>
  </g>
  <g>
    <polygon points="36.0,61.0 41.7,64.0 41.7,70.0 36.0,73.0 30.3,70.0 30.3,64.0" stroke="rgba(0,0,0,0.8)" stroke-width="1.2" fill="rgba(255,255,255,0.85)" stroke-linejoin="miter"/>
    <line x1="36" y1="66.5" x2="36.0" y2="56.5" stroke="rgba(0,0,0,0.3)" stroke-width="0.4"/>
    <line x1="36" y1="66.5" x2="30.3" y2="70.0" stroke="rgba(0,0,0,0.3)" stroke-width="0.4"/>
    <line x1="36" y1="66.5" x2="41.7" y2="70.0" stroke="rgba(0,0,0,0.3)" stroke-width="0.4"/>
  </g>
  <g>
    <polygon points="52.0,60.0 57.7,63.0 57.7,69.0 52.0,72.0 46.3,69.0 46.3,63.0" stroke="rgba(0,0,0,0.8)" stroke-width="1.2" fill="rgba(255,255,255,0.85)" stroke-linejoin="miter"/>
    <line x1="52" y1="65.5" x2="52.0" y2="55.5" stroke="rgba(0,0,0,0.3)" stroke-width="0.4"/>
    <line x1="52" y1="65.5" x2="46.3" y2="69.0" stroke="rgba(0,0,0,0.3)" stroke-width="0.4"/>
    <line x1="52" y1="65.5" x2="57.7" y2="69.0" stroke="rgba(0,0,0,0.3)" stroke-width="0.4"/>
  </g>
  <g>
    <polygon points="66.0,62.0 71.2,64.7 71.2,70.2 66.0,72.9 60.8,70.2 60.8,64.7" stroke="rgba(0,0,0,0.8)" stroke-width="1.2" fill="rgba(255,255,255,0.85)" stroke-linejoin="miter"/>
    <line x1="66" y1="67.4" x2="66.0" y2="57.9" stroke="rgba(0,0,0,0.3)" stroke-width="0.4"/>
    <line x1="66" y1="67.4" x2="60.8" y2="70.2" stroke="rgba(0,0,0,0.3)" stroke-width="0.4"/>
    <line x1="66" y1="67.4" x2="71.2" y2="70.2" stroke="rgba(0,0,0,0.3)" stroke-width="0.4"/>
  </g>
  <g>
    <polygon points="42.0,73.0 47.2,75.7 47.2,81.2 42.0,83.9 36.8,81.2 36.8,75.7" stroke="rgba(0,0,0,0.8)" stroke-width="1.2" fill="rgba(255,255,255,0.85)" stroke-linejoin="miter"/>
    <line x1="42" y1="78.4" x2="42.0" y2="68.9" stroke="rgba(0,0,0,0.3)" stroke-width="0.4"/>
    <line x1="42" y1="78.4" x2="36.8" y2="81.2" stroke="rgba(0,0,0,0.3)" stroke-width="0.4"/>
    <line x1="42" y1="78.4" x2="47.2" y2="81.2" stroke="rgba(0,0,0,0.3)" stroke-width="0.4"/>
  </g>
  <g>
    <polygon points="56.0,74.0 61.2,76.7 61.2,82.2 56.0,84.9 50.8,82.2 50.8,76.7" stroke="rgba(0,0,0,0.8)" stroke-width="1.2" fill="rgba(255,255,255,0.85)" stroke-linejoin="miter"/>
    <line x1="56" y1="79.4" x2="56.0" y2="69.9" stroke="rgba(0,0,0,0.3)" stroke-width="0.4"/>
    <line x1="56" y1="79.4" x2="50.8" y2="82.2" stroke="rgba(0,0,0,0.3)" stroke-width="0.4"/>
    <line x1="56" y1="79.4" x2="61.2" y2="82.2" stroke="rgba(0,0,0,0.3)" stroke-width="0.4"/>
  </g>
  <g>
    <polygon points="48.0,85.0 52.8,87.4 52.8,92.2 48.0,94.6 43.2,92.2 43.2,87.4" stroke="rgba(0,0,0,0.8)" stroke-width="1.2" fill="rgba(255,255,255,0.85)" stroke-linejoin="miter"/>
    <line x1="48" y1="89.8" x2="48.0" y2="81.8" stroke="rgba(0,0,0,0.3)" stroke-width="0.4"/>
    <line x1="48" y1="89.8" x2="43.2" y2="92.2" stroke="rgba(0,0,0,0.3)" stroke-width="0.4"/>
    <line x1="48" y1="89.8" x2="52.8" y2="92.2" stroke="rgba(0,0,0,0.3)" stroke-width="0.4"/>
  </g>
</svg>
