<svg xmlns="http://www.w3.org/2000/svg" width="1200" height="630" viewBox="0 0 1200 630">
  <rect width="1200" height="630" fill="#000"/>
  <!-- グリッドドット背景 -->
  <defs>
    <pattern id="dots" x="0" y="0" width="16" height="16" patternUnits="userSpaceOnUse">
      <circle cx="8" cy="8" r="0.4" fill="rgba(255,255,255,0.12)"/>
    </pattern>
  </defs>
  <rect width="1200" height="630" fill="url(#dots)"/>

  <!-- ブドウ（左寄り、大きめ） -->
  <g transform="translate(220, 100) scale(4.5)">
    <!-- 茎 -->
    <line x1="50" y1="28" x2="46" y2="8" stroke="white" stroke-width="1.8" stroke-linecap="round"/>
    <line x1="50" y1="28" x2="56" y2="10" stroke="white" stroke-width="1.8" stroke-linecap="round"/>
    <line x1="46" y1="8" x2="40" y2="3" stroke="white" stroke-width="1.2" stroke-linecap="round"/>
    <line x1="56" y1="10" x2="62" y2="5" stroke="white" stroke-width="1.2" stroke-linecap="round"/>
    <!-- 葉 -->
    <polygon points="40,3 22,8 18,20 28,26 38,18" stroke="white" stroke-width="1.2" fill="rgba(255,255,255,0.7)" stroke-linejoin="miter"/>
    <line x1="40" y1="3" x2="26" y2="18" stroke="rgba(0,0,0,0.3)" stroke-width="0.5"/>
    <polygon points="62,5 78,8 80,18 72,24 64,16" stroke="white" stroke-width="1.2" fill="rgba(255,255,255,0.7)" stroke-linejoin="miter"/>
    <line x1="62" y1="5" x2="74" y2="16" stroke="rgba(0,0,0,0.3)" stroke-width="0.5"/>
    <!-- 粒（Bパターン: 白塗り+黒線） -->
    <polygon points="42,28 47.7,31 47.7,37 42,40 36.3,37 36.3,31" stroke="rgba(0,0,0,0.8)" stroke-width="1.2" fill="rgba(255,255,255,0.85)" stroke-linejoin="miter"/>
    <polygon points="58,28 63.7,31 63.7,37 58,40 52.3,37 52.3,31" stroke="rgba(0,0,0,0.8)" stroke-width="1.2" fill="rgba(255,255,255,0.85)" stroke-linejoin="miter"/>
    <polygon points="34,42 39.7,45 39.7,51 34,54 28.3,51 28.3,45" stroke="rgba(0,0,0,0.8)" stroke-width="1.2" fill="rgba(255,255,255,0.85)" stroke-linejoin="miter"/>
    <polygon points="50,40 56.0,43 56.0,49.5 50,52.5 44.0,49.5 44.0,43" stroke="rgba(0,0,0,0.8)" stroke-width="1.2" fill="rgba(255,255,255,0.85)" stroke-linejoin="miter"/>
    <polygon points="66,42 71.7,45 71.7,51 66,54 60.3,51 60.3,45" stroke="rgba(0,0,0,0.8)" stroke-width="1.2" fill="rgba(255,255,255,0.85)" stroke-linejoin="miter"/>
    <polygon points="36,56 41.7,59 41.7,65 36,68 30.3,65 30.3,59" stroke="rgba(0,0,0,0.8)" stroke-width="1.2" fill="rgba(255,255,255,0.85)" stroke-linejoin="miter"/>
    <polygon points="52,55 57.7,58 57.7,64 52,67 46.3,64 46.3,58" stroke="rgba(0,0,0,0.8)" stroke-width="1.2" fill="rgba(255,255,255,0.85)" stroke-linejoin="miter"/>
    <polygon points="66,57 71.2,59.7 71.2,65.2 66,67.9 60.8,65.2 60.8,59.7" stroke="rgba(0,0,0,0.8)" stroke-width="1.2" fill="rgba(255,255,255,0.85)" stroke-linejoin="miter"/>
    <polygon points="42,68 47.2,70.7 47.2,76.2 42,78.9 36.8,76.2 36.8,70.7" stroke="rgba(0,0,0,0.8)" stroke-width="1.2" fill="rgba(255,255,255,0.85)" stroke-linejoin="miter"/>
    <polygon points="56,69 61.2,71.7 61.2,77.2 56,79.9 50.8,77.2 50.8,71.7" stroke="rgba(0,0,0,0.8)" stroke-width="1.2" fill="rgba(255,255,255,0.85)" stroke-linejoin="miter"/>
    <polygon points="48,80 52.8,82.4 52.8,87.2 48,89.6 43.2,87.2 43.2,82.4" stroke="rgba(0,0,0,0.8)" stroke-width="1.2" fill="rgba(255,255,255,0.85)" stroke-linejoin="miter"/>
  </g>

  <!-- LoPo ロゴ -->
  <text x="750" y="340" text-anchor="middle" font-family="sans-serif" font-weight="900" font-size="200" fill="white" letter-spacing="-10">LoPo</text>

  <!-- URL -->
  <text x="750" y="560" text-anchor="middle" font-family="monospace" font-size="18" fill="rgba(255,255,255,0.2)" letter-spacing="4">lopoly.app</text>
</svg>
