<svg width="1415" height="1498" viewBox="0 0 1415 1498" fill="none" xmlns="http://www.w3.org/2000/svg">
<g id="Group 6">
<path id="&#233;&#129;&#147;&#232;&#183;&#175;(Stroke)" d="M707 100.5C711.418 100.5 715 104.082 715 108.5V182.5C715 186.918 718.582 190.5 723 190.5H900.5C904.918 190.5 908.5 194.082 908.5 198.5V244.5C908.5 248.918 912.082 252.5 916.5 252.5H1009C1013.42 252.5 1017 256.082 1017 260.5V339.5C1017 343.918 1013.42 347.5 1009 347.5H946.75C943.022 347.5 940 350.522 940 354.25C940 357.978 943.022 361 946.75 361H1103.02C1105.6 361 1108.01 362.238 1109.52 364.326L1233.94 537.165C1236.52 540.75 1235.71 545.75 1232.12 548.331L1228.88 550.668C1225.29 553.25 1220.29 552.436 1217.71 548.85L1099.27 384.326C1097.77 382.238 1095.35 381 1092.78 381H1083.5C1079.08 381 1075.5 384.582 1075.5 389V505.605C1075.5 508.357 1074.09 510.916 1071.76 512.38L969.489 576.623C965.674 579.019 964.589 584.092 967.091 587.839L1084.97 764.441C1086.46 766.665 1088.95 768 1091.63 768H1332.5C1336.92 768 1340.5 764.418 1340.5 760V697.5C1340.5 693.082 1344.08 689.5 1348.5 689.5H1352.5C1356.92 689.5 1360.5 693.082 1360.5 697.5V780C1360.5 784.418 1356.92 788 1352.5 788H1282C1277.58 788 1274 791.582 1274 796V992C1274 996.418 1277.58 1000 1282 1000H1388C1392.42 1000 1396 1003.58 1396 1008V1012C1396 1016.42 1392.42 1020 1388 1020H1272.02C1269.75 1020 1267.59 1020.96 1266.07 1022.65L1114.05 1191.55C1112.73 1193.02 1112 1194.93 1112 1196.91V1444C1112 1448.42 1108.42 1452 1104 1452H1065C1060.58 1452 1057 1448.42 1057 1444V1376.5C1057 1372.08 1053.42 1368.5 1049 1368.5H716.5C712.082 1368.5 708.5 1372.08 708.5 1376.5V1416C708.5 1420.42 704.918 1424 700.5 1424H696.5C692.082 1424 688.5 1420.42 688.5 1416V1376.5C688.5 1372.08 684.918 1368.5 680.5 1368.5H274C269.582 1368.5 266 1364.92 266 1360.5V1201.35C266 1199.66 266.537 1198.01 267.533 1196.64L419.967 987.349C420.963 985.981 421.5 984.332 421.5 982.64V871C421.5 866.582 417.918 863 413.5 863H329C324.582 863 321 859.418 321 855V801.75C321 797.332 317.418 793.75 313 793.75H142.5C138.082 793.75 134.5 790.168 134.5 785.75V781.75C134.5 777.332 138.082 773.75 142.5 773.75H313C317.418 773.75 321 770.168 321 765.75V712.5C321 708.082 324.582 704.5 329 704.5H413.5C417.918 704.5 421.5 700.918 421.5 696.5V555.676C421.5 553.897 420.907 552.168 419.815 550.764L399.933 525.202C397.173 521.654 392.031 521.076 388.552 523.923L379.237 531.545C375.744 534.403 370.58 533.808 367.829 530.23L259.658 389.557C258.583 388.159 258 386.444 258 384.68V155.5C258 151.082 261.582 147.5 266 147.5H563.5C567.918 147.5 571.5 151.082 571.5 155.5V182.5C571.5 186.918 575.082 190.5 579.5 190.5H687C691.418 190.5 695 186.918 695 182.5V108.5C695 104.082 698.582 100.5 703 100.5H707ZM1207 1002.26C1207 1004.21 1206.29 1006.09 1205 1007.55L1042.5 1191.52C1041.21 1192.98 1040.5 1194.86 1040.5 1196.81V1314C1040.5 1318.42 1036.92 1322 1032.5 1322H956.5C952.082 1322 948.5 1325.58 948.5 1330V1340.5C948.5 1344.92 952.082 1348.5 956.5 1348.5H1069C1073.42 1348.5 1077 1352.08 1077 1356.5V1424.5C1077 1428.64 1080.36 1432 1084.5 1432C1088.64 1432 1092 1428.64 1092 1424.5V1189.23C1092 1187.26 1092.73 1185.35 1094.05 1183.88L1251.95 1008.44C1253.27 1006.98 1254 1005.07 1254 1003.09V796C1254 791.582 1250.42 788 1246 788H1215C1210.58 788 1207 791.582 1207 796V1002.26ZM864.939 789.662C860.544 789.696 857 793.267 857 797.662V1035.64C857 1037.3 856.481 1038.93 855.516 1040.28L709.984 1244.61C709.019 1245.97 708.5 1247.59 708.5 1249.26V1340.5C708.5 1344.92 712.082 1348.5 716.5 1348.5H920.5C924.918 1348.5 928.5 1344.92 928.5 1340.5V1310C928.5 1305.58 932.082 1302 936.5 1302H1012.5C1016.92 1302 1020.5 1298.42 1020.5 1294V1189.24C1020.5 1187.29 1021.21 1185.41 1022.5 1183.95L1185 999.984C1186.29 998.522 1187 996.638 1187 994.688V796C1187 791.582 1183.42 788 1179 788H1082.08L864.939 789.662ZM352.863 1184.52C350.303 1187.94 345.507 1188.75 341.97 1186.35L320.118 1171.54C316.547 1169.12 311.702 1169.97 309.163 1173.45L287.533 1203.15C286.537 1204.52 286 1206.17 286 1207.86V1340.5C286 1344.92 289.582 1348.5 294 1348.5H680.5C684.918 1348.5 688.5 1344.92 688.5 1340.5V1242.86C688.5 1241.2 689.019 1239.57 689.984 1238.22L743.857 1162.58C746.447 1158.94 745.56 1153.89 741.886 1151.35L508.075 989.972C504.537 987.53 499.702 988.321 497.126 991.762L352.863 1184.52ZM348.939 793.613C344.544 793.647 341 797.218 341 801.613V835C341 839.418 344.582 843 349 843H433.5C437.918 843 441.5 846.582 441.5 851V989.151C441.5 990.844 440.963 992.493 439.967 993.861L330.369 1144.33C327.706 1147.99 328.602 1153.13 332.348 1155.67L337.392 1159.09C340.929 1161.48 345.725 1160.68 348.285 1157.26L482.478 977.956C484.001 975.921 483.528 973.028 481.436 971.585C480.224 970.748 479.5 969.37 479.5 967.897V841C479.5 836.582 483.082 833 487.5 833H618.5C622.918 833 626.5 829.418 626.5 825V799.549C626.5 795.107 622.881 791.515 618.439 791.549L348.939 793.613ZM654.439 791.274C650.044 791.308 646.5 794.88 646.5 799.274V845C646.5 849.418 642.918 853 638.5 853H507.5C503.082 853 499.5 856.582 499.5 861V955.552C499.5 958.181 500.792 960.643 502.956 962.136L753.683 1135.2C757.282 1137.68 762.208 1136.81 764.744 1133.25L835.516 1033.89C836.481 1032.53 837 1030.91 837 1029.24V797.938C837 793.495 833.381 789.904 828.939 789.938L654.439 791.274ZM404.685 498.735L439.815 543.903C440.907 545.307 441.5 547.035 441.5 548.814V716.5C441.5 720.918 437.918 724.5 433.5 724.5H349C344.582 724.5 341 728.082 341 732.5V765.611C341 770.054 344.619 773.645 349.061 773.611L618.561 771.547C622.956 771.513 626.5 767.942 626.5 763.547V732.5C626.5 728.082 622.918 724.5 618.5 724.5H497.5C493.082 724.5 489.5 720.918 489.5 716.5V568.791C489.5 567.117 488.975 565.485 487.999 564.126L387.207 423.702C384.626 420.105 385.456 415.096 389.059 412.525L447.935 370.512C454.271 365.99 451.072 356 443.288 356H328.726C322.419 356 318.592 362.958 321.97 368.284L404.685 498.735ZM509.5 696.5C509.5 700.918 513.082 704.5 517.5 704.5H638.5C642.918 704.5 646.5 708.082 646.5 712.5V763.272C646.5 767.715 650.119 771.306 654.561 771.272L829.061 769.936C833.456 769.902 837 766.33 837 761.936V596C837 591.582 833.418 588 829 588H517.5C513.082 588 509.5 591.582 509.5 596V696.5ZM857 761.66C857 766.102 860.619 769.694 865.061 769.66L1048.58 768.255C1054.94 768.206 1058.7 761.107 1055.17 755.814L945.527 591.559C944.043 589.335 941.546 588 938.873 588H865C860.582 588 857 591.582 857 596V761.66ZM715 332.582C715 334.013 715.384 335.417 716.111 336.65L850.387 564.067C851.826 566.505 854.446 568 857.276 568H943.316C944.821 568 946.296 567.575 947.571 566.774L1051.76 501.324C1054.09 499.86 1055.5 497.302 1055.5 494.55V389C1055.5 384.582 1051.92 381 1047.5 381H928C923.582 381 920 377.418 920 373V335.5C920 331.082 923.582 327.5 928 327.5H989C993.418 327.5 997 323.918 997 319.5V280.5C997 276.082 993.418 272.5 989 272.5H896.5C892.082 272.5 888.5 268.918 888.5 264.5V218.5C888.5 214.082 884.918 210.5 880.5 210.5H723C718.582 210.5 715 214.082 715 218.5V332.582ZM571.5 311C571.5 315.418 567.918 319 563.5 319H314C309.582 319 306 322.582 306 327V328C306 332.418 309.582 336 314 336H505.746C513.53 336 516.729 345.99 510.393 350.512L417.001 417.155C413.397 419.726 412.567 424.735 415.149 428.332L508.334 558.157C509.092 559.214 509.5 560.482 509.5 561.783C509.5 565.216 512.284 568 515.717 568H815.469C821.662 568 825.506 561.266 822.357 555.933L696.111 342.113C695.384 340.881 695 339.477 695 338.046V218.5C695 214.082 691.418 210.5 687 210.5H579.5C575.082 210.5 571.5 214.082 571.5 218.5V311ZM278 377.878C278 379.642 278.583 381.357 279.658 382.755L373.11 504.287C374.771 506.447 377.889 506.806 379.997 505.081C381.888 503.534 382.326 500.82 381.018 498.757L287.244 350.865C286.431 349.584 286 348.098 286 346.581V171.5C286 169.291 284.209 167.5 282 167.5C279.791 167.5 278 169.291 278 171.5V377.878ZM306 291C306 295.418 309.582 299 314 299H543.5C547.918 299 551.5 295.418 551.5 291V175.5C551.5 171.082 547.918 167.5 543.5 167.5H314C309.582 167.5 306 171.082 306 175.5V291Z" fill="white" fill-opacity="0.3" stroke="black" stroke-width="4"/>
<g id="&#227;&#131;&#143;&#227;&#130;&#166;&#227;&#130;&#185;">
<path id="plot_22" d="M43 183H236.438C239.752 183 242.438 185.687 242.438 189V349.957C242.438 353.271 239.752 355.957 236.438 355.957H43C39.6863 355.957 37 353.271 37 349.957L37 189C37 185.687 39.6863 183 43 183Z" fill="white" fill-opacity="0.3" stroke="black" stroke-width="4"/>
<path id="plot_12" d="M364.478 1037.97L246.586 1191.33C244.566 1193.96 240.799 1194.45 238.172 1192.43L110.562 1094.34C107.935 1092.32 107.442 1088.55 109.462 1085.92L227.354 932.562C229.373 929.934 233.14 929.442 235.767 931.461L363.377 1029.56C366.005 1031.58 366.497 1035.34 364.478 1037.97Z" fill="white" fill-opacity="0.3" stroke="black" stroke-width="4"/>
<path id="plot_30" d="M920 217.439L920 24.0005C920 20.6868 922.686 18.0005 926 18.0005L1086.96 18.0005C1090.27 18.0005 1092.96 20.6868 1092.96 24.0005L1092.96 217.439C1092.96 220.753 1090.27 223.439 1086.96 223.439L926 223.439C922.686 223.439 920 220.753 920 217.439Z" fill="white" fill-opacity="0.3" stroke="black" stroke-width="4"/>
<path id="plot_2" d="M1123 1195H1263.16C1266.47 1195 1269.16 1197.69 1269.16 1201V1320.81C1269.16 1324.12 1266.47 1326.81 1263.16 1326.81H1123C1119.69 1326.81 1117 1324.12 1117 1320.81V1201C1117 1197.69 1119.69 1195 1123 1195Z" fill="white" fill-opacity="0.3" stroke="black" stroke-width="4"/>
<path id="plot_18" d="M320.162 491.466L208.876 576.672C206.245 578.686 202.479 578.186 200.464 575.555L127.632 480.429C125.617 477.798 126.117 474.032 128.748 472.017L240.034 386.812C242.665 384.798 246.431 385.298 248.446 387.928L321.279 483.055C323.293 485.686 322.793 489.452 320.162 491.466Z" fill="white" fill-opacity="0.3" stroke="black" stroke-width="4"/>
<path id="plot_17" d="M262 691.159L262 551C262 547.686 264.686 545 268 545L387.807 545C391.12 545 393.807 547.686 393.807 551L393.807 691.159C393.807 694.473 391.12 697.159 387.807 697.159L268 697.159C264.686 697.159 262 694.473 262 691.159Z" fill="white" fill-opacity="0.3" stroke="black" stroke-width="4"/>
<path id="plot_26" d="M1412.81 512L1412.81 652.159C1412.81 655.473 1410.12 658.159 1406.81 658.159L1287 658.159C1283.69 658.159 1281 655.473 1281 652.159L1281 512C1281 508.686 1283.69 506 1287 506L1406.81 506C1410.12 506 1412.81 508.686 1412.81 512Z" fill="white" fill-opacity="0.3" stroke="black" stroke-width="4"/>
<path id="plot_21" d="M314 2L454.159 2C457.473 2 460.159 4.68629 460.159 8V127.807C460.159 131.12 457.473 133.807 454.159 133.807L314 133.807C310.686 133.807 308 131.12 308 127.807V8C308 4.6863 310.686 2 314 2Z" fill="white" fill-opacity="0.3" stroke="black" stroke-width="4"/>
<path id="plot_7" d="M1024 989.159L1024 849C1024 845.686 1026.69 843 1030 843L1149.81 843C1153.12 843 1155.81 845.686 1155.81 849L1155.81 989.159C1155.81 992.473 1153.12 995.159 1149.81 995.159L1030 995.159C1026.69 995.159 1024 992.473 1024 989.159Z" fill="white" fill-opacity="0.3" stroke="black" stroke-width="4"/>
<path id="plot_8" d="M432.281 1128.66L513.835 1014.67C515.763 1011.98 519.511 1011.35 522.206 1013.28L619.643 1082.99C622.338 1084.92 622.96 1088.67 621.031 1091.36L539.478 1205.35C537.55 1208.05 533.802 1208.67 531.107 1206.74L433.67 1137.03C430.975 1135.1 430.353 1131.35 432.281 1128.66Z" fill="white" fill-opacity="0.3" stroke="black" stroke-width="4"/>
<path id="plot_1" d="M938 1489.01L938 1397C938 1393.69 940.686 1391 944 1391L1039.25 1391C1042.56 1391 1045.25 1393.69 1045.25 1397L1045.25 1489.01C1045.25 1492.33 1042.56 1495.01 1039.25 1495.01L944 1495.01C940.686 1495.01 938 1492.33 938 1489.01Z" fill="white" fill-opacity="0.3" stroke="black" stroke-width="4"/>
<path id="plot_28" d="M764 322.013L764 230C764 226.686 766.686 224 770 224L865.251 224C868.565 224 871.251 226.686 871.251 230L871.251 322.013C871.251 325.326 868.565 328.013 865.251 328.013L770 328.013C766.686 328.013 764 325.326 764 322.013Z" fill="white" fill-opacity="0.3" stroke="black" stroke-width="4"/>
<path id="plot_29" d="M800 176.013L800 84C800 80.6863 802.686 78 806 78L901.251 78C904.565 78 907.251 80.6863 907.251 84L907.251 176.013C907.251 179.326 904.565 182.013 901.251 182.013L806 182.013C802.686 182.013 800 179.326 800 176.013Z" fill="white" fill-opacity="0.3" stroke="black" stroke-width="4"/>
<path id="plot_20" d="M317 276.013L317 184C317 180.686 319.686 178 323 178L418.251 178C421.565 178 424.251 180.686 424.251 184L424.251 276.013C424.251 279.326 421.565 282.013 418.251 282.013L323 282.013C319.686 282.013 317 279.326 317 276.013Z" fill="white" fill-opacity="0.3" stroke="black" stroke-width="4"/>
<path id="plot_10" d="M514 956.013L514 864C514 860.686 516.686 858 520 858L615.251 858C618.565 858 621.251 860.686 621.251 864L621.251 956.013C621.251 959.326 618.565 962.013 615.251 962.013L520 962.013C516.686 962.013 514 959.326 514 956.013Z" fill="white" fill-opacity="0.3" stroke="black" stroke-width="4"/>
<path id="plot_27" d="M1152.65 390.26L1227.19 336.311C1229.88 334.368 1233.63 334.969 1235.57 337.653L1291.42 414.814C1293.36 417.498 1292.76 421.25 1290.07 423.193L1215.54 477.141C1212.85 479.084 1209.1 478.483 1207.16 475.799L1151.31 398.638C1149.37 395.954 1149.97 392.202 1152.65 390.26Z" fill="white" fill-opacity="0.3" stroke="black" stroke-width="4"/>
<path id="plot_25" d="M925 496.013L925 404C925 400.686 927.686 398 931 398L1026.25 398C1029.56 398 1032.25 400.686 1032.25 404L1032.25 496.013C1032.25 499.326 1029.56 502.013 1026.25 502.013L931 502.013C927.686 502.013 925 499.326 925 496.013Z" fill="white" fill-opacity="0.3" stroke="black" stroke-width="4"/>
<path id="plot_15" d="M610.168 554.752L554.437 481.537C552.43 478.901 552.94 475.136 555.577 473.129L631.369 415.437C634.005 413.43 637.77 413.94 639.777 416.577L695.508 489.792C697.515 492.429 697.004 496.193 694.368 498.2L618.576 555.892C615.939 557.9 612.175 557.389 610.168 554.752Z" fill="white" fill-opacity="0.3" stroke="black" stroke-width="4"/>
<path id="plot_13" d="M317 878H409.013C412.326 878 415.013 880.686 415.013 884V979.251C415.013 982.565 412.326 985.251 409.013 985.251H317C313.686 985.251 311 982.565 311 979.251V884C311 880.686 313.686 878 317 878Z" fill="white" fill-opacity="0.3" stroke="black" stroke-width="4"/>
<path id="plot_14" d="M525 695.013L525 603C525 599.686 527.686 597 531 597L626.251 597C629.565 597 632.251 599.686 632.251 603L632.251 695.013C632.251 698.326 629.565 701.013 626.251 701.013L531 701.013C527.686 701.013 525 698.326 525 695.013Z" fill="white" fill-opacity="0.3" stroke="black" stroke-width="4"/>
<path id="plot_5" d="M1368.01 1147.25L1276 1147.25C1272.69 1147.25 1270 1144.56 1270 1141.25L1270 1046C1270 1042.69 1272.69 1040 1276 1040L1368.01 1040C1371.33 1040 1374.01 1042.69 1374.01 1046L1374.01 1141.25C1374.01 1144.56 1371.33 1147.25 1368.01 1147.25Z" fill="white" fill-opacity="0.3" stroke="black" stroke-width="4"/>
<path id="plot_6" d="M1282 984.013L1282 892C1282 888.686 1284.69 886 1288 886L1383.25 886C1386.56 886 1389.25 888.686 1389.25 892L1389.25 984.013C1389.25 987.326 1386.56 990.013 1383.25 990.013L1288 990.013C1284.69 990.013 1282 987.326 1282 984.013Z" fill="white" fill-opacity="0.3" stroke="black" stroke-width="4"/>
<path id="plot_16" d="M431.694 410.185L506.947 357.239C509.657 355.332 513.4 355.984 515.306 358.694L570.116 436.595C572.023 439.305 571.372 443.048 568.662 444.955L493.408 497.901C490.698 499.808 486.956 499.157 485.049 496.447L430.239 418.545C428.332 415.835 428.984 412.092 431.694 410.185Z" fill="white" fill-opacity="0.3" stroke="black" stroke-width="4"/>
<path id="plot_4" d="M980 1115.01L980 1023C980 1019.69 982.686 1017 986 1017L1081.25 1017C1084.56 1017 1087.25 1019.69 1087.25 1023L1087.25 1115.01C1087.25 1118.33 1084.56 1121.01 1081.25 1121.01L986 1121.01C982.686 1121.01 980 1118.33 980 1115.01Z" fill="white" fill-opacity="0.3" stroke="black" stroke-width="4"/>
<path id="plot_3" d="M1004.01 1241.25L912 1241.25C908.686 1241.25 906 1238.56 906 1235.25L906 1140C906 1136.69 908.686 1134 912 1134L1004.01 1134C1007.33 1134 1010.01 1136.69 1010.01 1140L1010.01 1235.25C1010.01 1238.56 1007.33 1241.25 1004.01 1241.25Z" fill="white" fill-opacity="0.3" stroke="black" stroke-width="4"/>
<path id="plot_11" d="M342 1328.01L342 1236C342 1232.69 344.686 1230 348 1230L443.251 1230C446.565 1230 449.251 1232.69 449.251 1236L449.251 1328.01C449.251 1331.33 446.565 1334.01 443.251 1334.01L348 1334.01C344.686 1334.01 342 1331.33 342 1328.01Z" fill="white" fill-opacity="0.3" stroke="black" stroke-width="4"/>
<path id="plot_24" d="M1076.58 535.118L1149.83 479.434C1152.47 477.428 1156.23 477.941 1158.24 480.579L1215.88 556.407C1217.89 559.045 1217.37 562.809 1214.74 564.815L1141.49 620.499C1138.85 622.505 1135.08 621.992 1133.08 619.354L1075.43 543.526C1073.43 540.888 1073.94 537.124 1076.58 535.118Z" fill="white" fill-opacity="0.3" stroke="black" stroke-width="4"/>
<path id="plot_9" d="M602.265 1002.67L655.579 927.679C657.499 924.978 661.245 924.345 663.945 926.265L741.578 981.455C744.279 983.375 744.912 987.121 742.992 989.822L689.679 1064.82C687.759 1067.52 684.013 1068.15 681.312 1066.23L603.679 1011.04C600.978 1009.12 600.345 1005.37 602.265 1002.67Z" fill="white" fill-opacity="0.3" stroke="black" stroke-width="4"/>
<path id="plot_23" d="M1062.27 707.443L1007.38 633.598C1005.4 630.938 1005.95 627.18 1008.61 625.203L1085.06 568.378C1087.72 566.401 1091.48 566.954 1093.45 569.614L1148.35 643.459C1150.32 646.118 1149.77 649.876 1147.11 651.853L1070.67 708.678C1068.01 710.655 1064.25 710.102 1062.27 707.443Z" fill="white" fill-opacity="0.3" stroke="black" stroke-width="4"/>
<path id="plot_19" d="M439 284.013L439 192C439 188.686 441.686 186 445 186L540.251 186C543.565 186 546.251 188.686 546.251 192L546.251 284.013C546.251 287.326 543.565 290.013 540.251 290.013L445 290.013C441.686 290.013 439 287.326 439 284.013Z" fill="white" fill-opacity="0.3" stroke="black" stroke-width="4"/>
<path id="apart_1" d="M8 619H98C101.314 619 104 621.686 104 625L104 841C104 844.314 101.314 847 98 847H8C4.68629 847 2 844.314 2 841L2 625L2.00781 624.691C2.16843 621.521 4.78979 619 8 619Z" fill="white" fill-opacity="0.3" stroke="black" stroke-width="4"/>
</g>
<g id="&#227;&#130;&#168;&#227;&#131;&#188;&#227;&#131;&#134;&#227;&#131;&#169;&#227;&#130;&#164;&#227;&#131;&#136;">
<g id="&#227;&#130;&#168;&#227;&#131;&#179;&#227;&#131;&#148;&#227;&#131;&#172;&#227;&#130;&#162;&#227;&#131;&#160;&#229;&#141;&#151;&#230;&#157;&#177;">
<g id="Group 5">
<path id="Polygon 22" d="M1208.47 1120.07L1196.56 1122.28L1193.62 1127.25L1201.86 1131.23H1215.08L1223.32 1127.25L1220.38 1122.28L1208.47 1120.07Z" fill="#F0FEFF" fill-opacity="0.4"/>
<path id="Polygon 23" d="M1208.5 1116.08L1196.38 1118.32L1193.39 1123.36L1201.77 1127.41H1215.23L1223.61 1123.36L1220.62 1118.32L1208.5 1116.08Z" fill="#F0FEFF" fill-opacity="0.4"/>
</g>
<g id="Group 2">
<g id="Polygon 1">
<path d="M1207.97 1059L1203.58 1083H1212.37L1207.97 1059Z" fill="#D9D9D9" fill-opacity="0.3"/>
<path d="M1204.18 1082.5H1211.77L1207.98 1061.77L1204.18 1082.5Z" stroke="#00BFFF" stroke-opacity="0.4"/>
</g>
<g id="Polygon 11">
<path d="M1205.27 1123L1209.67 1097.24L1200.88 1097.24L1205.27 1123Z" fill="#D9D9D9" fill-opacity="0.3"/>
<path d="M1209.08 1097.74L1201.47 1097.74L1205.27 1120.03L1209.08 1097.74Z" stroke="#00BFFF" stroke-opacity="0.4"/>
</g>
<g id="Polygon 2">
<path d="M1206.18 1065.74L1199.9 1091.11L1208.68 1091.75L1206.18 1065.74Z" fill="#D9D9D9" fill-opacity="0.3"/>
<path d="M1200.53 1090.65L1208.12 1091.21L1205.97 1068.7L1200.53 1090.65Z" stroke="#00BFFF" stroke-opacity="0.4"/>
</g>
<g id="Polygon 6">
<path d="M1207.1 1061.36L1199.29 1092.28L1207.21 1093.25L1207.1 1061.36Z" fill="#D9D9D9" fill-opacity="0.3"/>
<path d="M1199.92 1091.85L1206.71 1092.69L1206.62 1065.33L1199.92 1091.85Z" stroke="#00BFFF" stroke-opacity="0.4"/>
</g>
<g id="Polygon 13">
<path d="M1209.27 1123.47L1213.66 1097.71L1204.87 1097.71L1209.27 1123.47Z" fill="#D9D9D9" fill-opacity="0.3"/>
<path d="M1213.07 1098.21L1205.46 1098.21L1209.27 1120.5L1213.07 1098.21Z" stroke="#00BFFF" stroke-opacity="0.4"/>
</g>
<g id="Polygon 5">
<path d="M1207.6 1060.42L1202.1 1085.97L1210.88 1086.35L1207.6 1060.42Z" fill="#D9D9D9" fill-opacity="0.3"/>
<path d="M1202.71 1085.5L1210.31 1085.83L1207.47 1063.39L1202.71 1085.5Z" stroke="#00BFFF" stroke-opacity="0.4"/>
</g>
<g id="Polygon 14">
<path d="M1212.93 1122.97L1215.74 1090.14L1210.7 1090.09L1212.93 1122.97Z" fill="#D9D9D9" fill-opacity="0.3"/>
<path d="M1215.19 1090.63L1211.23 1090.6L1212.99 1116.42L1215.19 1090.63Z" stroke="#00BFFF" stroke-opacity="0.4"/>
</g>
<g id="Polygon 15">
<path d="M1206.47 1121.07L1217.48 1097.37L1208.99 1095.06L1206.47 1121.07Z" fill="#D9D9D9" fill-opacity="0.3"/>
<path d="M1216.78 1097.7L1209.43 1095.7L1207.25 1118.2L1216.78 1097.7Z" stroke="#00BFFF" stroke-opacity="0.4"/>
</g>
<g id="Polygon 3">
<path d="M1209.64 1064.46L1205.83 1090.32L1214.62 1090.12L1209.64 1064.46Z" fill="#D9D9D9" fill-opacity="0.3"/>
<path d="M1206.41 1089.8L1214.02 1089.63L1209.71 1067.43L1206.41 1089.8Z" stroke="#00BFFF" stroke-opacity="0.4"/>
</g>
<g id="Polygon 16">
<path d="M1206.98 1120.65L1208.89 1099.26L1201.94 1099.77L1206.98 1120.65Z" fill="#D9D9D9" fill-opacity="0.3"/>
<path d="M1208.34 1099.8L1202.56 1100.23L1206.76 1117.58L1208.34 1099.8Z" stroke="#00BFFF" stroke-opacity="0.4"/>
</g>
<g id="Polygon 7">
<path d="M1212.44 1106.2L1216.56 1080.39L1207.76 1080.49L1212.44 1106.2Z" fill="#D9D9D9" fill-opacity="0.3"/>
<path d="M1215.97 1080.9L1208.36 1080.98L1212.4 1103.23L1215.97 1080.9Z" stroke="#00BFFF" stroke-opacity="0.4"/>
</g>
<g id="Polygon 21">
<path d="M1212.07 1103.85L1216.2 1077.78L1207.38 1077.88L1212.07 1103.85Z" fill="#D9D9D9" fill-opacity="0.3"/>
<path d="M1215.61 1078.29L1207.98 1078.37L1212.04 1100.86L1215.61 1078.29Z" stroke="#00BFFF" stroke-opacity="0.4"/>
</g>
<g id="Polygon 17">
<path d="M1204.16 1120.94L1208.56 1095.18L1199.76 1095.18L1204.16 1120.94Z" fill="#D9D9D9" fill-opacity="0.3"/>
<path d="M1207.96 1095.68L1200.35 1095.68L1204.16 1117.97L1207.96 1095.68Z" stroke="#00BFFF" stroke-opacity="0.4"/>
</g>
<g id="Polygon 10">
<path d="M1206.8 1070.98L1202.4 1096.74H1211.2L1206.8 1070.98Z" fill="#D9D9D9" fill-opacity="0.3"/>
<path d="M1202.99 1096.24H1210.61L1206.8 1073.95L1202.99 1096.24Z" stroke="#00BFFF" stroke-opacity="0.4"/>
</g>
<g id="Polygon 18">
<path d="M1207.45 1116.66L1211.84 1090.9L1203.05 1090.9L1207.45 1116.66Z" fill="#D9D9D9" fill-opacity="0.3"/>
<path d="M1211.25 1091.4L1203.64 1091.4L1207.45 1113.69L1211.25 1091.4Z" stroke="#00BFFF" stroke-opacity="0.4"/>
</g>
<g id="Polygon 9">
<path d="M1203.75 1070.05L1198.72 1095.69L1207.51 1095.91L1203.75 1070.05Z" fill="#D9D9D9" fill-opacity="0.3"/>
<path d="M1199.32 1095.2L1206.93 1095.39L1203.68 1073.01L1199.32 1095.2Z" stroke="#00BFFF" stroke-opacity="0.4"/>
</g>
<g id="Polygon 19">
<path d="M1209.35 1128.65L1207.96 1100.51L1199.35 1102.31L1209.35 1128.65Z" fill="#D9D9D9" fill-opacity="0.3"/>
<path d="M1207.49 1101.12L1200.03 1102.68L1208.7 1125.52L1207.49 1101.12Z" stroke="#00BFFF" stroke-opacity="0.4"/>
</g>
<g id="Polygon 4">
<path d="M1210.37 1068L1208.39 1094.06L1217.14 1093.24L1210.37 1068Z" fill="#D9D9D9" fill-opacity="0.3"/>
<path d="M1208.93 1093.5L1216.51 1092.8L1210.65 1070.95L1208.93 1093.5Z" stroke="#00BFFF" stroke-opacity="0.4"/>
</g>
<g id="Polygon 20">
<path d="M1204.16 1120.68L1207.32 1094.73L1198.54 1095.16L1204.16 1120.68Z" fill="#D9D9D9" fill-opacity="0.3"/>
<path d="M1206.76 1095.26L1199.15 1095.63L1204.02 1117.71L1206.76 1095.26Z" stroke="#00BFFF" stroke-opacity="0.4"/>
</g>
<g id="Polygon 8">
<path d="M1206.86 1067.87L1202.46 1093.63H1211.26L1206.86 1067.87Z" fill="#D9D9D9" fill-opacity="0.3"/>
<path d="M1203.05 1093.13H1210.67L1206.86 1070.83L1203.05 1093.13Z" stroke="#00BFFF" stroke-opacity="0.4"/>
</g>
<g id="Polygon 12">
<path d="M1211.85 1117.58L1218.1 1092.2L1209.32 1091.57L1211.85 1117.58Z" fill="#D9D9D9" fill-opacity="0.3"/>
<path d="M1217.47 1092.66L1209.88 1092.11L1212.07 1114.62L1217.47 1092.66Z" stroke="#00BFFF" stroke-opacity="0.4"/>
</g>
</g>
</g>
<g id="&#227;&#130;&#164;&#227;&#131;&#179;&#227;&#130;&#176;&#227;&#131;&#171;&#227;&#130;&#181;&#227;&#130;&#164;&#227;&#131;&#137;">
<g id="Group 5_2">
<path id="Polygon 22_2" d="M139.471 709.071L127.559 711.281L124.617 716.248L132.86 720.232H146.081L154.324 716.248L151.382 711.281L139.471 709.071Z" fill="#F0FEFF" fill-opacity="0.4"/>
<path id="Polygon 23_2" d="M139.5 705.078L127.382 707.322L124.389 712.363L132.775 716.407H146.225L154.611 712.363L151.618 707.322L139.5 705.078Z" fill="#F0FEFF" fill-opacity="0.4"/>
</g>
<g id="Group 2_2">
<g id="Polygon 1_2">
<path d="M138.975 648L134.577 671.999H143.373L138.975 648Z" fill="#D9D9D9" fill-opacity="0.3"/>
<path d="M135.177 671.499H142.773L138.975 650.772L135.177 671.499Z" stroke="#00BFFF" stroke-opacity="0.4"/>
</g>
<g id="Polygon 11_2">
<path d="M136.274 711.996L140.672 686.236L131.876 686.236L136.274 711.996Z" fill="#D9D9D9" fill-opacity="0.3"/>
<path d="M140.08 686.736L132.468 686.736L136.274 709.028L140.08 686.736Z" stroke="#00BFFF" stroke-opacity="0.4"/>
</g>
<g id="Polygon 2_2">
<path d="M137.183 654.74L130.905 680.107L139.678 680.753L137.183 654.74Z" fill="#D9D9D9" fill-opacity="0.3"/>
<path d="M131.532 679.652L139.124 680.211L136.966 657.7L131.532 679.652Z" stroke="#00BFFF" stroke-opacity="0.4"/>
</g>
<g id="Polygon 6_2">
<path d="M138.104 650.362L130.293 681.281L138.212 682.252L138.104 650.362Z" fill="#D9D9D9" fill-opacity="0.3"/>
<path d="M130.917 680.854L137.71 681.687L137.618 654.329L130.917 680.854Z" stroke="#00BFFF" stroke-opacity="0.4"/>
</g>
<g id="Polygon 13_2">
<path d="M140.267 712.466L144.665 686.706L135.868 686.706L140.267 712.466Z" fill="#D9D9D9" fill-opacity="0.3"/>
<path d="M144.073 687.206L136.46 687.206L140.266 709.497L144.073 687.206Z" stroke="#00BFFF" stroke-opacity="0.4"/>
</g>
<g id="Polygon 5_2">
<path d="M138.598 649.425L133.096 674.972L141.884 675.35L138.598 649.425Z" fill="#D9D9D9" fill-opacity="0.3"/>
<path d="M133.709 674.498L141.314 674.825L138.471 652.391L133.709 674.498Z" stroke="#00BFFF" stroke-opacity="0.4"/>
</g>
<g id="Polygon 14_2">
<path d="M143.927 711.967L146.737 679.137L141.7 679.092L143.927 711.967Z" fill="#D9D9D9" fill-opacity="0.3"/>
<path d="M146.194 679.632L142.235 679.597L143.986 705.422L146.194 679.632Z" stroke="#00BFFF" stroke-opacity="0.4"/>
</g>
<g id="Polygon 15_2">
<path d="M137.468 710.069L148.48 686.37L139.993 684.058L137.468 710.069Z" fill="#D9D9D9" fill-opacity="0.3"/>
<path d="M147.777 686.697L140.433 684.697L138.248 707.204L147.777 686.697Z" stroke="#00BFFF" stroke-opacity="0.4"/>
</g>
<g id="Polygon 3_2">
<path d="M140.638 653.465L136.829 679.318L145.623 679.118L140.638 653.465Z" fill="#D9D9D9" fill-opacity="0.3"/>
<path d="M137.409 678.805L145.019 678.631L140.707 656.433L137.409 678.805Z" stroke="#00BFFF" stroke-opacity="0.4"/>
</g>
<g id="Polygon 16_2">
<path d="M137.983 709.649L139.891 688.257L132.936 688.774L137.983 709.649Z" fill="#D9D9D9" fill-opacity="0.3"/>
<path d="M139.34 688.799L133.561 689.229L137.755 706.58L139.34 688.799Z" stroke="#00BFFF" stroke-opacity="0.4"/>
</g>
<g id="Polygon 7_2">
<path d="M143.437 695.199L147.555 669.393L138.759 669.488L143.437 695.199Z" fill="#D9D9D9" fill-opacity="0.3"/>
<path d="M146.969 669.899L139.357 669.982L143.405 692.23L146.969 669.899Z" stroke="#00BFFF" stroke-opacity="0.4"/>
</g>
<g id="Polygon 21_2">
<path d="M143.073 692.85L147.198 666.78L138.381 666.876L143.073 692.85Z" fill="#D9D9D9" fill-opacity="0.3"/>
<path d="M146.612 667.286L138.978 667.369L143.04 689.856L146.612 667.286Z" stroke="#00BFFF" stroke-opacity="0.4"/>
</g>
<g id="Polygon 17_2">
<path d="M135.159 709.941L139.557 684.181L130.76 684.181L135.159 709.941Z" fill="#D9D9D9" fill-opacity="0.3"/>
<path d="M138.965 684.682L131.353 684.682L135.158 706.973L138.965 684.682Z" stroke="#00BFFF" stroke-opacity="0.4"/>
</g>
<g id="Polygon 10_2">
<path d="M137.801 659.977L133.402 685.737H142.199L137.801 659.977Z" fill="#D9D9D9" fill-opacity="0.3"/>
<path d="M133.995 685.237H141.607L137.801 662.946L133.995 685.237Z" stroke="#00BFFF" stroke-opacity="0.4"/>
</g>
<g id="Polygon 18_2">
<path d="M138.447 705.655L142.845 679.895L134.048 679.895L138.447 705.655Z" fill="#D9D9D9" fill-opacity="0.3"/>
<path d="M142.253 680.396L134.64 680.396L138.446 702.687L142.253 680.396Z" stroke="#00BFFF" stroke-opacity="0.4"/>
</g>
<g id="Polygon 9_2">
<path d="M134.749 659.046L129.715 684.689L138.509 684.907L134.749 659.046Z" fill="#D9D9D9" fill-opacity="0.3"/>
<path d="M130.32 684.204L137.93 684.392L134.676 662.014L130.32 684.204Z" stroke="#00BFFF" stroke-opacity="0.4"/>
</g>
<g id="Polygon 19_2">
<path d="M140.352 717.653L138.962 689.511L130.352 691.312L140.352 717.653Z" fill="#D9D9D9" fill-opacity="0.3"/>
<path d="M138.491 690.121L131.027 691.682L139.696 714.52L138.491 690.121Z" stroke="#00BFFF" stroke-opacity="0.4"/>
</g>
<g id="Polygon 4_2">
<path d="M141.373 656.998L139.386 683.055L148.144 682.239L141.373 656.998Z" fill="#D9D9D9" fill-opacity="0.3"/>
<path d="M139.929 682.502L147.508 681.796L141.649 659.954L139.929 682.502Z" stroke="#00BFFF" stroke-opacity="0.4"/>
</g>
<g id="Polygon 20_2">
<path d="M135.164 709.676L138.323 683.734L129.537 684.156L135.164 709.676Z" fill="#D9D9D9" fill-opacity="0.3"/>
<path d="M137.756 684.262L130.152 684.627L135.022 706.71L137.756 684.262Z" stroke="#00BFFF" stroke-opacity="0.4"/>
</g>
<g id="Polygon 8_2">
<path d="M137.859 656.866L133.461 682.626H142.258L137.859 656.866Z" fill="#D9D9D9" fill-opacity="0.3"/>
<path d="M134.053 682.125H141.666L137.86 659.834L134.053 682.125Z" stroke="#00BFFF" stroke-opacity="0.4"/>
</g>
<g id="Polygon 12_2">
<path d="M142.852 706.578L149.096 681.202L140.323 680.568L142.852 706.578Z" fill="#D9D9D9" fill-opacity="0.3"/>
<path d="M148.47 681.659L140.877 681.109L143.065 703.617L148.47 681.659Z" stroke="#00BFFF" stroke-opacity="0.4"/>
</g>
</g>
</g>
<g id="&#227;&#130;&#168;&#227;&#131;&#179;&#227;&#131;&#148;&#227;&#131;&#172;&#227;&#130;&#162;&#227;&#131;&#160;&#228;&#184;&#173;&#229;&#164;&#174;">
<g id="Group 5_3">
<path id="Polygon 22_3" d="M907.471 813.071L895.559 815.281L892.617 820.248L900.86 824.232H914.081L922.324 820.248L919.382 815.281L907.471 813.071Z" fill="#F0FEFF" fill-opacity="0.4"/>
<path id="Polygon 23_3" d="M907.5 809.078L895.382 811.322L892.389 816.363L900.775 820.407H914.225L922.611 816.363L919.618 811.322L907.5 809.078Z" fill="#F0FEFF" fill-opacity="0.4"/>
</g>
<g id="Group 2_3">
<g id="Polygon 1_3">
<path d="M906.975 752L902.577 775.999H911.373L906.975 752Z" fill="#D9D9D9" fill-opacity="0.3"/>
<path d="M903.177 775.499H910.773L906.975 754.772L903.177 775.499Z" stroke="#00BFFF" stroke-opacity="0.4"/>
</g>
<g id="Polygon 11_3">
<path d="M904.274 815.996L908.672 790.236L899.876 790.236L904.274 815.996Z" fill="#D9D9D9" fill-opacity="0.3"/>
<path d="M908.08 790.736L900.468 790.736L904.274 813.028L908.08 790.736Z" stroke="#00BFFF" stroke-opacity="0.4"/>
</g>
<g id="Polygon 2_3">
<path d="M905.183 758.74L898.905 784.107L907.678 784.753L905.183 758.74Z" fill="#D9D9D9" fill-opacity="0.3"/>
<path d="M899.532 783.652L907.124 784.211L904.966 761.7L899.532 783.652Z" stroke="#00BFFF" stroke-opacity="0.4"/>
</g>
<g id="Polygon 6_3">
<path d="M906.104 754.362L898.293 785.281L906.212 786.252L906.104 754.362Z" fill="#D9D9D9" fill-opacity="0.3"/>
<path d="M898.917 784.854L905.71 785.687L905.618 758.329L898.917 784.854Z" stroke="#00BFFF" stroke-opacity="0.4"/>
</g>
<g id="Polygon 13_3">
<path d="M908.267 816.466L912.665 790.706L903.868 790.706L908.267 816.466Z" fill="#D9D9D9" fill-opacity="0.3"/>
<path d="M912.073 791.206L904.46 791.206L908.266 813.497L912.073 791.206Z" stroke="#00BFFF" stroke-opacity="0.4"/>
</g>
<g id="Polygon 5_3">
<path d="M906.598 753.425L901.096 778.972L909.884 779.35L906.598 753.425Z" fill="#D9D9D9" fill-opacity="0.3"/>
<path d="M901.709 778.498L909.314 778.825L906.471 756.391L901.709 778.498Z" stroke="#00BFFF" stroke-opacity="0.4"/>
</g>
<g id="Polygon 14_3">
<path d="M911.927 815.967L914.737 783.137L909.7 783.092L911.927 815.967Z" fill="#D9D9D9" fill-opacity="0.3"/>
<path d="M914.194 783.632L910.235 783.597L911.986 809.422L914.194 783.632Z" stroke="#00BFFF" stroke-opacity="0.4"/>
</g>
<g id="Polygon 15_3">
<path d="M905.468 814.069L916.48 790.37L907.993 788.058L905.468 814.069Z" fill="#D9D9D9" fill-opacity="0.3"/>
<path d="M915.777 790.697L908.433 788.697L906.248 811.204L915.777 790.697Z" stroke="#00BFFF" stroke-opacity="0.4"/>
</g>
<g id="Polygon 3_3">
<path d="M908.638 757.465L904.829 783.318L913.623 783.118L908.638 757.465Z" fill="#D9D9D9" fill-opacity="0.3"/>
<path d="M905.409 782.805L913.019 782.631L908.706 760.433L905.409 782.805Z" stroke="#00BFFF" stroke-opacity="0.4"/>
</g>
<g id="Polygon 16_3">
<path d="M905.983 813.649L907.891 792.257L900.936 792.774L905.983 813.649Z" fill="#D9D9D9" fill-opacity="0.3"/>
<path d="M907.34 792.799L901.561 793.229L905.755 810.58L907.34 792.799Z" stroke="#00BFFF" stroke-opacity="0.4"/>
</g>
<g id="Polygon 7_3">
<path d="M911.437 799.199L915.555 773.393L906.759 773.488L911.437 799.199Z" fill="#D9D9D9" fill-opacity="0.3"/>
<path d="M914.969 773.899L907.357 773.982L911.405 796.23L914.969 773.899Z" stroke="#00BFFF" stroke-opacity="0.4"/>
</g>
<g id="Polygon 21_3">
<path d="M911.073 796.85L915.198 770.78L906.381 770.876L911.073 796.85Z" fill="#D9D9D9" fill-opacity="0.3"/>
<path d="M914.612 771.286L906.978 771.369L911.04 793.856L914.612 771.286Z" stroke="#00BFFF" stroke-opacity="0.4"/>
</g>
<g id="Polygon 17_3">
<path d="M903.159 813.941L907.557 788.181L898.76 788.181L903.159 813.941Z" fill="#D9D9D9" fill-opacity="0.3"/>
<path d="M906.965 788.682L899.352 788.682L903.158 810.973L906.965 788.682Z" stroke="#00BFFF" stroke-opacity="0.4"/>
</g>
<g id="Polygon 10_3">
<path d="M905.801 763.977L901.402 789.737H910.199L905.801 763.977Z" fill="#D9D9D9" fill-opacity="0.3"/>
<path d="M901.995 789.237H909.607L905.801 766.946L901.995 789.237Z" stroke="#00BFFF" stroke-opacity="0.4"/>
</g>
<g id="Polygon 18_3">
<path d="M906.447 809.655L910.845 783.895L902.048 783.895L906.447 809.655Z" fill="#D9D9D9" fill-opacity="0.3"/>
<path d="M910.253 784.396L902.64 784.396L906.446 806.687L910.253 784.396Z" stroke="#00BFFF" stroke-opacity="0.4"/>
</g>
<g id="Polygon 9_3">
<path d="M902.749 763.046L897.715 788.689L906.509 788.907L902.749 763.046Z" fill="#D9D9D9" fill-opacity="0.3"/>
<path d="M898.32 788.204L905.93 788.392L902.676 766.014L898.32 788.204Z" stroke="#00BFFF" stroke-opacity="0.4"/>
</g>
<g id="Polygon 19_3">
<path d="M908.352 821.653L906.962 793.511L898.351 795.312L908.352 821.653Z" fill="#D9D9D9" fill-opacity="0.3"/>
<path d="M906.491 794.121L899.027 795.682L907.696 818.52L906.491 794.121Z" stroke="#00BFFF" stroke-opacity="0.4"/>
</g>
<g id="Polygon 4_3">
<path d="M909.373 760.998L907.385 787.055L916.144 786.239L909.373 760.998Z" fill="#D9D9D9" fill-opacity="0.3"/>
<path d="M907.928 786.502L915.508 785.796L909.649 763.954L907.928 786.502Z" stroke="#00BFFF" stroke-opacity="0.4"/>
</g>
<g id="Polygon 20_3">
<path d="M903.164 813.676L906.323 787.734L897.537 788.156L903.164 813.676Z" fill="#D9D9D9" fill-opacity="0.3"/>
<path d="M905.756 788.262L898.152 788.627L903.022 810.71L905.756 788.262Z" stroke="#00BFFF" stroke-opacity="0.4"/>
</g>
<g id="Polygon 8_3">
<path d="M905.859 760.866L901.461 786.626H910.258L905.859 760.866Z" fill="#D9D9D9" fill-opacity="0.3"/>
<path d="M902.053 786.125H909.666L905.86 763.834L902.053 786.125Z" stroke="#00BFFF" stroke-opacity="0.4"/>
</g>
<g id="Polygon 12_3">
<path d="M910.852 810.578L917.096 785.202L908.323 784.568L910.852 810.578Z" fill="#D9D9D9" fill-opacity="0.3"/>
<path d="M916.47 785.659L908.877 785.109L911.065 807.617L916.47 785.659Z" stroke="#00BFFF" stroke-opacity="0.4"/>
</g>
</g>
</g>
<g id="&#230;&#150;&#167;&#230;&#167;&#141;&#233;&#128;&#154;&#227;&#130;&#138;">
<g id="Group 5_4">
<path id="Polygon 22_4" d="M465.471 788.071L453.559 790.281L450.617 795.248L458.86 799.232H472.081L480.324 795.248L477.383 790.281L465.471 788.071Z" fill="#F0FEFF" fill-opacity="0.4"/>
<path id="Polygon 23_4" d="M465.5 784.078L453.382 786.322L450.389 791.363L458.775 795.407H472.225L480.611 791.363L477.618 786.322L465.5 784.078Z" fill="#F0FEFF" fill-opacity="0.4"/>
</g>
<g id="Group 2_4">
<g id="Polygon 1_4">
<path d="M464.975 727L460.577 750.999H469.373L464.975 727Z" fill="#D9D9D9" fill-opacity="0.3"/>
<path d="M461.177 750.499H468.773L464.975 729.772L461.177 750.499Z" stroke="#00BFFF" stroke-opacity="0.4"/>
</g>
<g id="Polygon 11_4">
<path d="M462.274 790.996L466.672 765.236L457.876 765.236L462.274 790.996Z" fill="#D9D9D9" fill-opacity="0.3"/>
<path d="M466.08 765.736L458.468 765.736L462.274 788.028L466.08 765.736Z" stroke="#00BFFF" stroke-opacity="0.4"/>
</g>
<g id="Polygon 2_4">
<path d="M463.183 733.74L456.905 759.107L465.678 759.753L463.183 733.74Z" fill="#D9D9D9" fill-opacity="0.3"/>
<path d="M457.532 758.652L465.124 759.211L462.966 736.7L457.532 758.652Z" stroke="#00BFFF" stroke-opacity="0.4"/>
</g>
<g id="Polygon 6_4">
<path d="M464.104 729.362L456.293 760.281L464.212 761.252L464.104 729.362Z" fill="#D9D9D9" fill-opacity="0.3"/>
<path d="M456.917 759.854L463.71 760.687L463.618 733.329L456.917 759.854Z" stroke="#00BFFF" stroke-opacity="0.4"/>
</g>
<g id="Polygon 13_4">
<path d="M466.267 791.466L470.665 765.706L461.868 765.706L466.267 791.466Z" fill="#D9D9D9" fill-opacity="0.3"/>
<path d="M470.073 766.206L462.46 766.206L466.266 788.497L470.073 766.206Z" stroke="#00BFFF" stroke-opacity="0.4"/>
</g>
<g id="Polygon 5_4">
<path d="M464.598 728.425L459.096 753.972L467.884 754.35L464.598 728.425Z" fill="#D9D9D9" fill-opacity="0.3"/>
<path d="M459.709 753.498L467.314 753.825L464.471 731.391L459.709 753.498Z" stroke="#00BFFF" stroke-opacity="0.4"/>
</g>
<g id="Polygon 14_4">
<path d="M469.927 790.967L472.737 758.137L467.7 758.092L469.927 790.967Z" fill="#D9D9D9" fill-opacity="0.3"/>
<path d="M472.194 758.632L468.235 758.597L469.986 784.422L472.194 758.632Z" stroke="#00BFFF" stroke-opacity="0.4"/>
</g>
<g id="Polygon 15_4">
<path d="M463.468 789.069L474.48 765.37L465.993 763.058L463.468 789.069Z" fill="#D9D9D9" fill-opacity="0.3"/>
<path d="M473.777 765.697L466.433 763.697L464.248 786.204L473.777 765.697Z" stroke="#00BFFF" stroke-opacity="0.4"/>
</g>
<g id="Polygon 3_4">
<path d="M466.638 732.465L462.829 758.318L471.623 758.118L466.638 732.465Z" fill="#D9D9D9" fill-opacity="0.3"/>
<path d="M463.409 757.805L471.019 757.631L466.707 735.433L463.409 757.805Z" stroke="#00BFFF" stroke-opacity="0.4"/>
</g>
<g id="Polygon 16_4">
<path d="M463.983 788.649L465.891 767.257L458.936 767.774L463.983 788.649Z" fill="#D9D9D9" fill-opacity="0.3"/>
<path d="M465.34 767.799L459.561 768.229L463.755 785.58L465.34 767.799Z" stroke="#00BFFF" stroke-opacity="0.4"/>
</g>
<g id="Polygon 7_4">
<path d="M469.437 774.199L473.555 748.393L464.759 748.488L469.437 774.199Z" fill="#D9D9D9" fill-opacity="0.3"/>
<path d="M472.969 748.899L465.357 748.982L469.405 771.23L472.969 748.899Z" stroke="#00BFFF" stroke-opacity="0.4"/>
</g>
<g id="Polygon 21_4">
<path d="M469.073 771.85L473.198 745.78L464.381 745.876L469.073 771.85Z" fill="#D9D9D9" fill-opacity="0.3"/>
<path d="M472.612 746.286L464.978 746.369L469.04 768.856L472.612 746.286Z" stroke="#00BFFF" stroke-opacity="0.4"/>
</g>
<g id="Polygon 17_4">
<path d="M461.159 788.941L465.557 763.181L456.76 763.181L461.159 788.941Z" fill="#D9D9D9" fill-opacity="0.3"/>
<path d="M464.965 763.682L457.353 763.682L461.158 785.973L464.965 763.682Z" stroke="#00BFFF" stroke-opacity="0.4"/>
</g>
<g id="Polygon 10_4">
<path d="M463.801 738.977L459.403 764.737H468.199L463.801 738.977Z" fill="#D9D9D9" fill-opacity="0.3"/>
<path d="M459.995 764.237H467.607L463.801 741.946L459.995 764.237Z" stroke="#00BFFF" stroke-opacity="0.4"/>
</g>
<g id="Polygon 18_4">
<path d="M464.447 784.655L468.845 758.895L460.048 758.895L464.447 784.655Z" fill="#D9D9D9" fill-opacity="0.3"/>
<path d="M468.253 759.396L460.64 759.396L464.446 781.687L468.253 759.396Z" stroke="#00BFFF" stroke-opacity="0.4"/>
</g>
<g id="Polygon 9_4">
<path d="M460.749 738.046L455.715 763.689L464.509 763.907L460.749 738.046Z" fill="#D9D9D9" fill-opacity="0.3"/>
<path d="M456.32 763.204L463.93 763.392L460.676 741.014L456.32 763.204Z" stroke="#00BFFF" stroke-opacity="0.4"/>
</g>
<g id="Polygon 19_4">
<path d="M466.352 796.653L464.962 768.511L456.351 770.312L466.352 796.653Z" fill="#D9D9D9" fill-opacity="0.3"/>
<path d="M464.491 769.121L457.027 770.682L465.696 793.52L464.491 769.121Z" stroke="#00BFFF" stroke-opacity="0.4"/>
</g>
<g id="Polygon 4_4">
<path d="M467.373 735.998L465.386 762.055L474.144 761.239L467.373 735.998Z" fill="#D9D9D9" fill-opacity="0.3"/>
<path d="M465.929 761.502L473.508 760.796L467.649 738.954L465.929 761.502Z" stroke="#00BFFF" stroke-opacity="0.4"/>
</g>
<g id="Polygon 20_4">
<path d="M461.165 788.676L464.323 762.734L455.537 763.156L461.165 788.676Z" fill="#D9D9D9" fill-opacity="0.3"/>
<path d="M463.756 763.262L456.152 763.627L461.022 785.71L463.756 763.262Z" stroke="#00BFFF" stroke-opacity="0.4"/>
</g>
<g id="Polygon 8_4">
<path d="M463.859 735.866L459.461 761.626H468.258L463.859 735.866Z" fill="#D9D9D9" fill-opacity="0.3"/>
<path d="M460.053 761.125H467.666L463.86 738.834L460.053 761.125Z" stroke="#00BFFF" stroke-opacity="0.4"/>
</g>
<g id="Polygon 12_4">
<path d="M468.852 785.578L475.096 760.202L466.323 759.568L468.852 785.578Z" fill="#D9D9D9" fill-opacity="0.3"/>
<path d="M474.47 760.659L466.877 760.109L469.065 782.617L474.47 760.659Z" stroke="#00BFFF" stroke-opacity="0.4"/>
</g>
</g>
</g>
<g id="&#227;&#130;&#168;&#227;&#131;&#179;&#227;&#131;&#148;&#227;&#131;&#172;&#227;&#130;&#162;&#227;&#131;&#160;&#229;&#140;&#151;&#230;&#157;&#177;">
<g id="Group 5_5">
<path id="Polygon 22_5" d="M1084.47 374.071L1072.56 376.281L1069.62 381.248L1077.86 385.232H1091.08L1099.32 381.248L1096.38 376.281L1084.47 374.071Z" fill="#F0FEFF" fill-opacity="0.4"/>
<path id="Polygon 23_5" d="M1084.5 370.078L1072.38 372.322L1069.39 377.363L1077.77 381.407H1091.23L1099.61 377.363L1096.62 372.322L1084.5 370.078Z" fill="#F0FEFF" fill-opacity="0.4"/>
</g>
<g id="Group 2_5">
<g id="Polygon 1_5">
<path d="M1083.97 313L1079.58 336.999H1088.37L1083.97 313Z" fill="#D9D9D9" fill-opacity="0.3"/>
<path d="M1080.18 336.499H1087.77L1083.98 315.772L1080.18 336.499Z" stroke="#00BFFF" stroke-opacity="0.4"/>
</g>
<g id="Polygon 11_5">
<path d="M1081.27 376.996L1085.67 351.236L1076.88 351.236L1081.27 376.996Z" fill="#D9D9D9" fill-opacity="0.3"/>
<path d="M1085.08 351.736L1077.47 351.736L1081.27 374.027L1085.08 351.736Z" stroke="#00BFFF" stroke-opacity="0.4"/>
</g>
<g id="Polygon 2_5">
<path d="M1082.18 319.74L1075.9 345.107L1084.68 345.753L1082.18 319.74Z" fill="#D9D9D9" fill-opacity="0.3"/>
<path d="M1076.53 344.652L1084.12 345.211L1081.97 322.7L1076.53 344.652Z" stroke="#00BFFF" stroke-opacity="0.4"/>
</g>
<g id="Polygon 6_5">
<path d="M1083.1 315.362L1075.29 346.281L1083.21 347.252L1083.1 315.362Z" fill="#D9D9D9" fill-opacity="0.3"/>
<path d="M1075.92 345.854L1082.71 346.687L1082.62 319.329L1075.92 345.854Z" stroke="#00BFFF" stroke-opacity="0.4"/>
</g>
<g id="Polygon 13_5">
<path d="M1085.27 377.466L1089.66 351.706L1080.87 351.706L1085.27 377.466Z" fill="#D9D9D9" fill-opacity="0.3"/>
<path d="M1089.07 352.206L1081.46 352.206L1085.27 374.497L1089.07 352.206Z" stroke="#00BFFF" stroke-opacity="0.4"/>
</g>
<g id="Polygon 5_5">
<path d="M1083.6 314.425L1078.1 339.972L1086.88 340.35L1083.6 314.425Z" fill="#D9D9D9" fill-opacity="0.3"/>
<path d="M1078.71 339.498L1086.31 339.825L1083.47 317.391L1078.71 339.498Z" stroke="#00BFFF" stroke-opacity="0.4"/>
</g>
<g id="Polygon 14_5">
<path d="M1088.93 376.967L1091.74 344.137L1086.7 344.092L1088.93 376.967Z" fill="#D9D9D9" fill-opacity="0.3"/>
<path d="M1091.19 344.632L1087.23 344.597L1088.99 370.422L1091.19 344.632Z" stroke="#00BFFF" stroke-opacity="0.4"/>
</g>
<g id="Polygon 15_5">
<path d="M1082.47 375.069L1093.48 351.37L1084.99 349.058L1082.47 375.069Z" fill="#D9D9D9" fill-opacity="0.3"/>
<path d="M1092.78 351.697L1085.43 349.697L1083.25 372.204L1092.78 351.697Z" stroke="#00BFFF" stroke-opacity="0.4"/>
</g>
<g id="Polygon 3_5">
<path d="M1085.64 318.465L1081.83 344.318L1090.62 344.118L1085.64 318.465Z" fill="#D9D9D9" fill-opacity="0.3"/>
<path d="M1082.41 343.805L1090.02 343.631L1085.71 321.433L1082.41 343.805Z" stroke="#00BFFF" stroke-opacity="0.4"/>
</g>
<g id="Polygon 16_5">
<path d="M1082.98 374.649L1084.89 353.257L1077.94 353.774L1082.98 374.649Z" fill="#D9D9D9" fill-opacity="0.3"/>
<path d="M1084.34 353.799L1078.56 354.229L1082.76 371.58L1084.34 353.799Z" stroke="#00BFFF" stroke-opacity="0.4"/>
</g>
<g id="Polygon 7_5">
<path d="M1088.44 360.199L1092.56 334.393L1083.76 334.488L1088.44 360.199Z" fill="#D9D9D9" fill-opacity="0.3"/>
<path d="M1091.97 334.899L1084.36 334.982L1088.4 357.23L1091.97 334.899Z" stroke="#00BFFF" stroke-opacity="0.4"/>
</g>
<g id="Polygon 21_5">
<path d="M1088.07 357.85L1092.2 331.78L1083.38 331.876L1088.07 357.85Z" fill="#D9D9D9" fill-opacity="0.3"/>
<path d="M1091.61 332.286L1083.98 332.369L1088.04 354.856L1091.61 332.286Z" stroke="#00BFFF" stroke-opacity="0.4"/>
</g>
<g id="Polygon 17_5">
<path d="M1080.16 374.941L1084.56 349.181L1075.76 349.181L1080.16 374.941Z" fill="#D9D9D9" fill-opacity="0.3"/>
<path d="M1083.96 349.682L1076.35 349.682L1080.16 371.973L1083.96 349.682Z" stroke="#00BFFF" stroke-opacity="0.4"/>
</g>
<g id="Polygon 10_5">
<path d="M1082.8 324.977L1078.4 350.737H1087.2L1082.8 324.977Z" fill="#D9D9D9" fill-opacity="0.3"/>
<path d="M1078.99 350.237H1086.61L1082.8 327.946L1078.99 350.237Z" stroke="#00BFFF" stroke-opacity="0.4"/>
</g>
<g id="Polygon 18_5">
<path d="M1083.45 370.655L1087.84 344.895L1079.05 344.895L1083.45 370.655Z" fill="#D9D9D9" fill-opacity="0.3"/>
<path d="M1087.25 345.396L1079.64 345.396L1083.45 367.687L1087.25 345.396Z" stroke="#00BFFF" stroke-opacity="0.4"/>
</g>
<g id="Polygon 9_5">
<path d="M1079.75 324.046L1074.72 349.689L1083.51 349.907L1079.75 324.046Z" fill="#D9D9D9" fill-opacity="0.3"/>
<path d="M1075.32 349.204L1082.93 349.392L1079.68 327.014L1075.32 349.204Z" stroke="#00BFFF" stroke-opacity="0.4"/>
</g>
<g id="Polygon 19_5">
<path d="M1085.35 382.653L1083.96 354.511L1075.35 356.312L1085.35 382.653Z" fill="#D9D9D9" fill-opacity="0.3"/>
<path d="M1083.49 355.121L1076.03 356.682L1084.7 379.52L1083.49 355.121Z" stroke="#00BFFF" stroke-opacity="0.4"/>
</g>
<g id="Polygon 4_5">
<path d="M1086.37 321.998L1084.39 348.055L1093.14 347.239L1086.37 321.998Z" fill="#D9D9D9" fill-opacity="0.3"/>
<path d="M1084.93 347.502L1092.51 346.796L1086.65 324.954L1084.93 347.502Z" stroke="#00BFFF" stroke-opacity="0.4"/>
</g>
<g id="Polygon 20_5">
<path d="M1080.16 374.676L1083.32 348.734L1074.54 349.156L1080.16 374.676Z" fill="#D9D9D9" fill-opacity="0.3"/>
<path d="M1082.76 349.262L1075.15 349.627L1080.02 371.71L1082.76 349.262Z" stroke="#00BFFF" stroke-opacity="0.4"/>
</g>
<g id="Polygon 8_5">
<path d="M1082.86 321.866L1078.46 347.625H1087.26L1082.86 321.866Z" fill="#D9D9D9" fill-opacity="0.3"/>
<path d="M1079.05 347.125H1086.67L1082.86 324.834L1079.05 347.125Z" stroke="#00BFFF" stroke-opacity="0.4"/>
</g>
<g id="Polygon 12_5">
<path d="M1087.85 371.578L1094.1 346.202L1085.32 345.568L1087.85 371.578Z" fill="#D9D9D9" fill-opacity="0.3"/>
<path d="M1093.47 346.659L1085.88 346.109L1088.07 368.617L1093.47 346.659Z" stroke="#00BFFF" stroke-opacity="0.4"/>
</g>
</g>
</g>
<g id="&#227;&#130;&#168;&#227;&#131;&#179;&#227;&#131;&#148;&#227;&#131;&#172;&#227;&#130;&#162;&#227;&#131;&#160;&#230;&#157;&#177;">
<g id="Group 5_6">
<path id="Polygon 22_6" d="M1390.47 740.071L1378.56 742.281L1375.62 747.248L1383.86 751.232H1397.08L1405.32 747.248L1402.38 742.281L1390.47 740.071Z" fill="#F0FEFF" fill-opacity="0.4"/>
<path id="Polygon 23_6" d="M1390.5 736.078L1378.38 738.322L1375.39 743.363L1383.77 747.407H1397.23L1405.61 743.363L1402.62 738.322L1390.5 736.078Z" fill="#F0FEFF" fill-opacity="0.4"/>
</g>
<g id="Group 2_6">
<g id="Polygon 1_6">
<path d="M1389.98 679L1385.58 702.999H1394.37L1389.98 679Z" fill="#D9D9D9" fill-opacity="0.3"/>
<path d="M1386.18 702.499H1393.77L1389.98 681.772L1386.18 702.499Z" stroke="#00BFFF" stroke-opacity="0.4"/>
</g>
<g id="Polygon 11_6">
<path d="M1387.27 742.996L1391.67 717.236L1382.88 717.236L1387.27 742.996Z" fill="#D9D9D9" fill-opacity="0.3"/>
<path d="M1391.08 717.736L1383.47 717.736L1387.27 740.028L1391.08 717.736Z" stroke="#00BFFF" stroke-opacity="0.4"/>
</g>
<g id="Polygon 2_6">
<path d="M1388.18 685.74L1381.91 711.107L1390.68 711.753L1388.18 685.74Z" fill="#D9D9D9" fill-opacity="0.3"/>
<path d="M1382.53 710.652L1390.12 711.211L1387.97 688.7L1382.53 710.652Z" stroke="#00BFFF" stroke-opacity="0.4"/>
</g>
<g id="Polygon 6_6">
<path d="M1389.1 681.362L1381.29 712.281L1389.21 713.252L1389.1 681.362Z" fill="#D9D9D9" fill-opacity="0.3"/>
<path d="M1381.92 711.854L1388.71 712.687L1388.62 685.329L1381.92 711.854Z" stroke="#00BFFF" stroke-opacity="0.4"/>
</g>
<g id="Polygon 13_6">
<path d="M1391.27 743.466L1395.66 717.706L1386.87 717.706L1391.27 743.466Z" fill="#D9D9D9" fill-opacity="0.3"/>
<path d="M1395.07 718.206L1387.46 718.206L1391.27 740.497L1395.07 718.206Z" stroke="#00BFFF" stroke-opacity="0.4"/>
</g>
<g id="Polygon 5_6">
<path d="M1389.6 680.425L1384.1 705.972L1392.88 706.35L1389.6 680.425Z" fill="#D9D9D9" fill-opacity="0.3"/>
<path d="M1384.71 705.498L1392.31 705.825L1389.47 683.391L1384.71 705.498Z" stroke="#00BFFF" stroke-opacity="0.4"/>
</g>
<g id="Polygon 14_6">
<path d="M1394.93 742.967L1397.74 710.137L1392.7 710.092L1394.93 742.967Z" fill="#D9D9D9" fill-opacity="0.3"/>
<path d="M1397.19 710.632L1393.24 710.597L1394.99 736.422L1397.19 710.632Z" stroke="#00BFFF" stroke-opacity="0.4"/>
</g>
<g id="Polygon 15_6">
<path d="M1388.47 741.069L1399.48 717.37L1390.99 715.058L1388.47 741.069Z" fill="#D9D9D9" fill-opacity="0.3"/>
<path d="M1398.78 717.697L1391.43 715.697L1389.25 738.204L1398.78 717.697Z" stroke="#00BFFF" stroke-opacity="0.4"/>
</g>
<g id="Polygon 3_6">
<path d="M1391.64 684.465L1387.83 710.318L1396.62 710.118L1391.64 684.465Z" fill="#D9D9D9" fill-opacity="0.3"/>
<path d="M1388.41 709.805L1396.02 709.631L1391.71 687.433L1388.41 709.805Z" stroke="#00BFFF" stroke-opacity="0.4"/>
</g>
<g id="Polygon 16_6">
<path d="M1388.98 740.649L1390.89 719.257L1383.94 719.774L1388.98 740.649Z" fill="#D9D9D9" fill-opacity="0.3"/>
<path d="M1390.34 719.799L1384.56 720.229L1388.76 737.58L1390.34 719.799Z" stroke="#00BFFF" stroke-opacity="0.4"/>
</g>
<g id="Polygon 7_6">
<path d="M1394.44 726.199L1398.56 700.393L1389.76 700.488L1394.44 726.199Z" fill="#D9D9D9" fill-opacity="0.3"/>
<path d="M1397.97 700.899L1390.36 700.982L1394.4 723.23L1397.97 700.899Z" stroke="#00BFFF" stroke-opacity="0.4"/>
</g>
<g id="Polygon 21_6">
<path d="M1394.07 723.85L1398.2 697.78L1389.38 697.876L1394.07 723.85Z" fill="#D9D9D9" fill-opacity="0.3"/>
<path d="M1397.61 698.286L1389.98 698.369L1394.04 720.856L1397.61 698.286Z" stroke="#00BFFF" stroke-opacity="0.4"/>
</g>
<g id="Polygon 17_6">
<path d="M1386.16 740.941L1390.56 715.181L1381.76 715.181L1386.16 740.941Z" fill="#D9D9D9" fill-opacity="0.3"/>
<path d="M1389.96 715.682L1382.35 715.682L1386.16 737.973L1389.96 715.682Z" stroke="#00BFFF" stroke-opacity="0.4"/>
</g>
<g id="Polygon 10_6">
<path d="M1388.8 690.977L1384.4 716.737H1393.2L1388.8 690.977Z" fill="#D9D9D9" fill-opacity="0.3"/>
<path d="M1384.99 716.237H1392.61L1388.8 693.946L1384.99 716.237Z" stroke="#00BFFF" stroke-opacity="0.4"/>
</g>
<g id="Polygon 18_6">
<path d="M1389.45 736.655L1393.84 710.895L1385.05 710.895L1389.45 736.655Z" fill="#D9D9D9" fill-opacity="0.3"/>
<path d="M1393.25 711.396L1385.64 711.396L1389.45 733.687L1393.25 711.396Z" stroke="#00BFFF" stroke-opacity="0.4"/>
</g>
<g id="Polygon 9_6">
<path d="M1385.75 690.046L1380.72 715.689L1389.51 715.907L1385.75 690.046Z" fill="#D9D9D9" fill-opacity="0.3"/>
<path d="M1381.32 715.204L1388.93 715.392L1385.68 693.014L1381.32 715.204Z" stroke="#00BFFF" stroke-opacity="0.4"/>
</g>
<g id="Polygon 19_6">
<path d="M1391.35 748.653L1389.96 720.511L1381.35 722.312L1391.35 748.653Z" fill="#D9D9D9" fill-opacity="0.3"/>
<path d="M1389.49 721.121L1382.03 722.682L1390.7 745.52L1389.49 721.121Z" stroke="#00BFFF" stroke-opacity="0.4"/>
</g>
<g id="Polygon 4_6">
<path d="M1392.37 687.998L1390.39 714.055L1399.14 713.239L1392.37 687.998Z" fill="#D9D9D9" fill-opacity="0.3"/>
<path d="M1390.93 713.502L1398.51 712.796L1392.65 690.954L1390.93 713.502Z" stroke="#00BFFF" stroke-opacity="0.4"/>
</g>
<g id="Polygon 20_6">
<path d="M1386.16 740.676L1389.32 714.734L1380.54 715.156L1386.16 740.676Z" fill="#D9D9D9" fill-opacity="0.3"/>
<path d="M1388.76 715.262L1381.15 715.627L1386.02 737.71L1388.76 715.262Z" stroke="#00BFFF" stroke-opacity="0.4"/>
</g>
<g id="Polygon 8_6">
<path d="M1388.86 687.866L1384.46 713.626H1393.26L1388.86 687.866Z" fill="#D9D9D9" fill-opacity="0.3"/>
<path d="M1385.05 713.125H1392.67L1388.86 690.834L1385.05 713.125Z" stroke="#00BFFF" stroke-opacity="0.4"/>
</g>
<g id="Polygon 12_6">
<path d="M1393.85 737.578L1400.1 712.202L1391.32 711.568L1393.85 737.578Z" fill="#D9D9D9" fill-opacity="0.3"/>
<path d="M1399.47 712.659L1391.88 712.109L1394.07 734.617L1399.47 712.659Z" stroke="#00BFFF" stroke-opacity="0.4"/>
</g>
</g>
</g>
<g id="&#227;&#130;&#168;&#227;&#131;&#179;&#227;&#131;&#148;&#227;&#131;&#172;&#227;&#130;&#162;&#227;&#131;&#160;&#229;&#141;&#151;&#232;&#165;&#191;">
<g id="Group 5_7">
<path id="Polygon 22_7" d="M386.471 1068.07L374.559 1070.28L371.617 1075.25L379.86 1079.23H393.081L401.324 1075.25L398.383 1070.28L386.471 1068.07Z" fill="#F0FEFF" fill-opacity="0.4"/>
<path id="Polygon 23_7" d="M386.5 1064.08L374.382 1066.32L371.389 1071.36L379.775 1075.41H393.225L401.611 1071.36L398.618 1066.32L386.5 1064.08Z" fill="#F0FEFF" fill-opacity="0.4"/>
</g>
<g id="Group 2_7">
<g id="Polygon 1_7">
<path d="M385.975 1007L381.577 1031H390.373L385.975 1007Z" fill="#D9D9D9" fill-opacity="0.3"/>
<path d="M382.177 1030.5H389.773L385.975 1009.77L382.177 1030.5Z" stroke="#00BFFF" stroke-opacity="0.4"/>
</g>
<g id="Polygon 11_7">
<path d="M383.274 1071L387.672 1045.24L378.876 1045.24L383.274 1071Z" fill="#D9D9D9" fill-opacity="0.3"/>
<path d="M387.08 1045.74L379.468 1045.74L383.274 1068.03L387.08 1045.74Z" stroke="#00BFFF" stroke-opacity="0.4"/>
</g>
<g id="Polygon 2_7">
<path d="M384.183 1013.74L377.905 1039.11L386.678 1039.75L384.183 1013.74Z" fill="#D9D9D9" fill-opacity="0.3"/>
<path d="M378.532 1038.65L386.124 1039.21L383.966 1016.7L378.532 1038.65Z" stroke="#00BFFF" stroke-opacity="0.4"/>
</g>
<g id="Polygon 6_7">
<path d="M385.104 1009.36L377.293 1040.28L385.212 1041.25L385.104 1009.36Z" fill="#D9D9D9" fill-opacity="0.3"/>
<path d="M377.917 1039.85L384.71 1040.69L384.618 1013.33L377.917 1039.85Z" stroke="#00BFFF" stroke-opacity="0.4"/>
</g>
<g id="Polygon 13_7">
<path d="M387.267 1071.47L391.665 1045.71L382.868 1045.71L387.267 1071.47Z" fill="#D9D9D9" fill-opacity="0.3"/>
<path d="M391.073 1046.21L383.46 1046.21L387.266 1068.5L391.073 1046.21Z" stroke="#00BFFF" stroke-opacity="0.4"/>
</g>
<g id="Polygon 5_7">
<path d="M385.598 1008.42L380.096 1033.97L388.884 1034.35L385.598 1008.42Z" fill="#D9D9D9" fill-opacity="0.3"/>
<path d="M380.709 1033.5L388.314 1033.83L385.471 1011.39L380.709 1033.5Z" stroke="#00BFFF" stroke-opacity="0.4"/>
</g>
<g id="Polygon 14_7">
<path d="M390.927 1070.97L393.737 1038.14L388.7 1038.09L390.927 1070.97Z" fill="#D9D9D9" fill-opacity="0.3"/>
<path d="M393.194 1038.63L389.235 1038.6L390.986 1064.42L393.194 1038.63Z" stroke="#00BFFF" stroke-opacity="0.4"/>
</g>
<g id="Polygon 15_7">
<path d="M384.468 1069.07L395.48 1045.37L386.993 1043.06L384.468 1069.07Z" fill="#D9D9D9" fill-opacity="0.3"/>
<path d="M394.777 1045.7L387.433 1043.7L385.248 1066.2L394.777 1045.7Z" stroke="#00BFFF" stroke-opacity="0.4"/>
</g>
<g id="Polygon 3_7">
<path d="M387.638 1012.46L383.829 1038.32L392.623 1038.12L387.638 1012.46Z" fill="#D9D9D9" fill-opacity="0.3"/>
<path d="M384.409 1037.8L392.019 1037.63L387.707 1015.43L384.409 1037.8Z" stroke="#00BFFF" stroke-opacity="0.4"/>
</g>
<g id="Polygon 16_7">
<path d="M384.983 1068.65L386.891 1047.26L379.936 1047.77L384.983 1068.65Z" fill="#D9D9D9" fill-opacity="0.3"/>
<path d="M386.34 1047.8L380.561 1048.23L384.755 1065.58L386.34 1047.8Z" stroke="#00BFFF" stroke-opacity="0.4"/>
</g>
<g id="Polygon 7_7">
<path d="M390.437 1054.2L394.555 1028.39L385.759 1028.49L390.437 1054.2Z" fill="#D9D9D9" fill-opacity="0.3"/>
<path d="M393.969 1028.9L386.357 1028.98L390.405 1051.23L393.969 1028.9Z" stroke="#00BFFF" stroke-opacity="0.4"/>
</g>
<g id="Polygon 21_7">
<path d="M390.073 1051.85L394.198 1025.78L385.381 1025.88L390.073 1051.85Z" fill="#D9D9D9" fill-opacity="0.3"/>
<path d="M393.612 1026.29L385.978 1026.37L390.04 1048.86L393.612 1026.29Z" stroke="#00BFFF" stroke-opacity="0.4"/>
</g>
<g id="Polygon 17_7">
<path d="M382.159 1068.94L386.557 1043.18L377.76 1043.18L382.159 1068.94Z" fill="#D9D9D9" fill-opacity="0.3"/>
<path d="M385.965 1043.68L378.353 1043.68L382.158 1065.97L385.965 1043.68Z" stroke="#00BFFF" stroke-opacity="0.4"/>
</g>
<g id="Polygon 10_7">
<path d="M384.801 1018.98L380.403 1044.74H389.199L384.801 1018.98Z" fill="#D9D9D9" fill-opacity="0.3"/>
<path d="M380.995 1044.24H388.607L384.801 1021.95L380.995 1044.24Z" stroke="#00BFFF" stroke-opacity="0.4"/>
</g>
<g id="Polygon 18_7">
<path d="M385.447 1064.66L389.845 1038.9L381.048 1038.9L385.447 1064.66Z" fill="#D9D9D9" fill-opacity="0.3"/>
<path d="M389.253 1039.4L381.64 1039.4L385.446 1061.69L389.253 1039.4Z" stroke="#00BFFF" stroke-opacity="0.4"/>
</g>
<g id="Polygon 9_7">
<path d="M381.749 1018.05L376.715 1043.69L385.509 1043.91L381.749 1018.05Z" fill="#D9D9D9" fill-opacity="0.3"/>
<path d="M377.32 1043.2L384.93 1043.39L381.676 1021.01L377.32 1043.2Z" stroke="#00BFFF" stroke-opacity="0.4"/>
</g>
<g id="Polygon 19_7">
<path d="M387.352 1076.65L385.962 1048.51L377.351 1050.31L387.352 1076.65Z" fill="#D9D9D9" fill-opacity="0.3"/>
<path d="M385.491 1049.12L378.027 1050.68L386.696 1073.52L385.491 1049.12Z" stroke="#00BFFF" stroke-opacity="0.4"/>
</g>
<g id="Polygon 4_7">
<path d="M388.373 1016L386.386 1042.06L395.144 1041.24L388.373 1016Z" fill="#D9D9D9" fill-opacity="0.3"/>
<path d="M386.929 1041.5L394.508 1040.8L388.649 1018.95L386.929 1041.5Z" stroke="#00BFFF" stroke-opacity="0.4"/>
</g>
<g id="Polygon 20_7">
<path d="M382.165 1068.68L385.323 1042.73L376.537 1043.16L382.165 1068.68Z" fill="#D9D9D9" fill-opacity="0.3"/>
<path d="M384.756 1043.26L377.152 1043.63L382.022 1065.71L384.756 1043.26Z" stroke="#00BFFF" stroke-opacity="0.4"/>
</g>
<g id="Polygon 8_7">
<path d="M384.859 1015.87L380.461 1041.63H389.258L384.859 1015.87Z" fill="#D9D9D9" fill-opacity="0.3"/>
<path d="M381.053 1041.13H388.666L384.86 1018.83L381.053 1041.13Z" stroke="#00BFFF" stroke-opacity="0.4"/>
</g>
<g id="Polygon 12_7">
<path d="M389.852 1065.58L396.096 1040.2L387.323 1039.57L389.852 1065.58Z" fill="#D9D9D9" fill-opacity="0.3"/>
<path d="M395.47 1040.66L387.877 1040.11L390.065 1062.62L395.47 1040.66Z" stroke="#00BFFF" stroke-opacity="0.4"/>
</g>
</g>
</g>
<g id="&#227;&#131;&#143;&#227;&#130;&#164;&#227;&#131;&#162;&#227;&#131;&#188;&#227;&#131;&#179;&#229;&#186;&#131;&#229;&#160;&#180;">
<g id="Group 5_8">
<path id="Polygon 22_8" d="M838.471 1425.07L826.559 1427.28L823.617 1432.25L831.86 1436.23H845.081L853.324 1432.25L850.382 1427.28L838.471 1425.07Z" fill="#F0FEFF" fill-opacity="0.4"/>
<path id="Polygon 23_8" d="M838.5 1421.08L826.382 1423.32L823.389 1428.36L831.775 1432.41H845.225L853.611 1428.36L850.618 1423.32L838.5 1421.08Z" fill="#F0FEFF" fill-opacity="0.4"/>
</g>
<g id="Group 2_8">
<g id="Polygon 1_8">
<path d="M837.975 1364L833.577 1388H842.373L837.975 1364Z" fill="#D9D9D9" fill-opacity="0.3"/>
<path d="M834.177 1387.5H841.773L837.975 1366.77L834.177 1387.5Z" stroke="#00BFFF" stroke-opacity="0.4"/>
</g>
<g id="Polygon 11_8">
<path d="M835.274 1428L839.672 1402.24L830.876 1402.24L835.274 1428Z" fill="#D9D9D9" fill-opacity="0.3"/>
<path d="M839.08 1402.74L831.468 1402.74L835.274 1425.03L839.08 1402.74Z" stroke="#00BFFF" stroke-opacity="0.4"/>
</g>
<g id="Polygon 2_8">
<path d="M836.183 1370.74L829.905 1396.11L838.678 1396.75L836.183 1370.74Z" fill="#D9D9D9" fill-opacity="0.3"/>
<path d="M830.532 1395.65L838.124 1396.21L835.966 1373.7L830.532 1395.65Z" stroke="#00BFFF" stroke-opacity="0.4"/>
</g>
<g id="Polygon 6_8">
<path d="M837.104 1366.36L829.293 1397.28L837.212 1398.25L837.104 1366.36Z" fill="#D9D9D9" fill-opacity="0.3"/>
<path d="M829.917 1396.85L836.71 1397.69L836.618 1370.33L829.917 1396.85Z" stroke="#00BFFF" stroke-opacity="0.4"/>
</g>
<g id="Polygon 13_8">
<path d="M839.267 1428.47L843.665 1402.71L834.868 1402.71L839.267 1428.47Z" fill="#D9D9D9" fill-opacity="0.3"/>
<path d="M843.073 1403.21L835.46 1403.21L839.266 1425.5L843.073 1403.21Z" stroke="#00BFFF" stroke-opacity="0.4"/>
</g>
<g id="Polygon 5_8">
<path d="M837.598 1365.42L832.096 1390.97L840.884 1391.35L837.598 1365.42Z" fill="#D9D9D9" fill-opacity="0.3"/>
<path d="M832.709 1390.5L840.314 1390.83L837.471 1368.39L832.709 1390.5Z" stroke="#00BFFF" stroke-opacity="0.4"/>
</g>
<g id="Polygon 14_8">
<path d="M842.927 1427.97L845.737 1395.14L840.7 1395.09L842.927 1427.97Z" fill="#D9D9D9" fill-opacity="0.3"/>
<path d="M845.194 1395.63L841.235 1395.6L842.986 1421.42L845.194 1395.63Z" stroke="#00BFFF" stroke-opacity="0.4"/>
</g>
<g id="Polygon 15_8">
<path d="M836.468 1426.07L847.48 1402.37L838.993 1400.06L836.468 1426.07Z" fill="#D9D9D9" fill-opacity="0.3"/>
<path d="M846.777 1402.7L839.433 1400.7L837.248 1423.2L846.777 1402.7Z" stroke="#00BFFF" stroke-opacity="0.4"/>
</g>
<g id="Polygon 3_8">
<path d="M839.638 1369.46L835.829 1395.32L844.623 1395.12L839.638 1369.46Z" fill="#D9D9D9" fill-opacity="0.3"/>
<path d="M836.409 1394.8L844.019 1394.63L839.706 1372.43L836.409 1394.8Z" stroke="#00BFFF" stroke-opacity="0.4"/>
</g>
<g id="Polygon 16_8">
<path d="M836.983 1425.65L838.891 1404.26L831.936 1404.77L836.983 1425.65Z" fill="#D9D9D9" fill-opacity="0.3"/>
<path d="M838.34 1404.8L832.561 1405.23L836.755 1422.58L838.34 1404.8Z" stroke="#00BFFF" stroke-opacity="0.4"/>
</g>
<g id="Polygon 7_8">
<path d="M842.437 1411.2L846.555 1385.39L837.759 1385.49L842.437 1411.2Z" fill="#D9D9D9" fill-opacity="0.3"/>
<path d="M845.969 1385.9L838.357 1385.98L842.405 1408.23L845.969 1385.9Z" stroke="#00BFFF" stroke-opacity="0.4"/>
</g>
<g id="Polygon 21_8">
<path d="M842.073 1408.85L846.198 1382.78L837.381 1382.88L842.073 1408.85Z" fill="#D9D9D9" fill-opacity="0.3"/>
<path d="M845.612 1383.29L837.978 1383.37L842.04 1405.86L845.612 1383.29Z" stroke="#00BFFF" stroke-opacity="0.4"/>
</g>
<g id="Polygon 17_8">
<path d="M834.159 1425.94L838.557 1400.18L829.76 1400.18L834.159 1425.94Z" fill="#D9D9D9" fill-opacity="0.3"/>
<path d="M837.965 1400.68L830.352 1400.68L834.158 1422.97L837.965 1400.68Z" stroke="#00BFFF" stroke-opacity="0.4"/>
</g>
<g id="Polygon 10_8">
<path d="M836.801 1375.98L832.402 1401.74H841.199L836.801 1375.98Z" fill="#D9D9D9" fill-opacity="0.3"/>
<path d="M832.995 1401.24H840.607L836.801 1378.95L832.995 1401.24Z" stroke="#00BFFF" stroke-opacity="0.4"/>
</g>
<g id="Polygon 18_8">
<path d="M837.447 1421.66L841.845 1395.9L833.048 1395.9L837.447 1421.66Z" fill="#D9D9D9" fill-opacity="0.3"/>
<path d="M841.253 1396.4L833.64 1396.4L837.446 1418.69L841.253 1396.4Z" stroke="#00BFFF" stroke-opacity="0.4"/>
</g>
<g id="Polygon 9_8">
<path d="M833.749 1375.05L828.715 1400.69L837.509 1400.91L833.749 1375.05Z" fill="#D9D9D9" fill-opacity="0.3"/>
<path d="M829.32 1400.2L836.93 1400.39L833.676 1378.01L829.32 1400.2Z" stroke="#00BFFF" stroke-opacity="0.4"/>
</g>
<g id="Polygon 19_8">
<path d="M839.352 1433.65L837.962 1405.51L829.351 1407.31L839.352 1433.65Z" fill="#D9D9D9" fill-opacity="0.3"/>
<path d="M837.491 1406.12L830.027 1407.68L838.696 1430.52L837.491 1406.12Z" stroke="#00BFFF" stroke-opacity="0.4"/>
</g>
<g id="Polygon 4_8">
<path d="M840.373 1373L838.385 1399.06L847.144 1398.24L840.373 1373Z" fill="#D9D9D9" fill-opacity="0.3"/>
<path d="M838.928 1398.5L846.508 1397.8L840.649 1375.95L838.928 1398.5Z" stroke="#00BFFF" stroke-opacity="0.4"/>
</g>
<g id="Polygon 20_8">
<path d="M834.164 1425.68L837.323 1399.73L828.537 1400.16L834.164 1425.68Z" fill="#D9D9D9" fill-opacity="0.3"/>
<path d="M836.756 1400.26L829.152 1400.63L834.022 1422.71L836.756 1400.26Z" stroke="#00BFFF" stroke-opacity="0.4"/>
</g>
<g id="Polygon 8_8">
<path d="M836.859 1372.87L832.461 1398.63H841.258L836.859 1372.87Z" fill="#D9D9D9" fill-opacity="0.3"/>
<path d="M833.053 1398.13H840.666L836.86 1375.83L833.053 1398.13Z" stroke="#00BFFF" stroke-opacity="0.4"/>
</g>
<g id="Polygon 12_8">
<path d="M841.852 1422.58L848.096 1397.2L839.323 1396.57L841.852 1422.58Z" fill="#D9D9D9" fill-opacity="0.3"/>
<path d="M847.47 1397.66L839.877 1397.11L842.065 1419.62L847.47 1397.66Z" stroke="#00BFFF" stroke-opacity="0.4"/>
</g>
</g>
</g>
<g id="&#227;&#130;&#168;&#227;&#131;&#179;&#227;&#131;&#148;&#227;&#131;&#172;&#227;&#130;&#162;&#227;&#131;&#160;&#229;&#140;&#151;&#232;&#165;&#191;">
<g id="Group 5_9">
<path id="Polygon 22_9" d="M314.471 376.071L302.559 378.281L299.617 383.248L307.86 387.232H321.081L329.324 383.248L326.383 378.281L314.471 376.071Z" fill="#F0FEFF" fill-opacity="0.4"/>
<path id="Polygon 23_9" d="M314.5 372.078L302.382 374.322L299.389 379.363L307.775 383.407H321.225L329.611 379.363L326.618 374.322L314.5 372.078Z" fill="#F0FEFF" fill-opacity="0.4"/>
</g>
<g id="Group 2_9">
<g id="Polygon 1_9">
<path d="M313.975 315L309.577 338.999H318.373L313.975 315Z" fill="#D9D9D9" fill-opacity="0.3"/>
<path d="M310.177 338.499H317.773L313.975 317.772L310.177 338.499Z" stroke="#00BFFF" stroke-opacity="0.4"/>
</g>
<g id="Polygon 11_9">
<path d="M311.274 378.996L315.672 353.236L306.876 353.236L311.274 378.996Z" fill="#D9D9D9" fill-opacity="0.3"/>
<path d="M315.08 353.736L307.468 353.736L311.274 376.027L315.08 353.736Z" stroke="#00BFFF" stroke-opacity="0.4"/>
</g>
<g id="Polygon 2_9">
<path d="M312.183 321.74L305.905 347.107L314.678 347.753L312.183 321.74Z" fill="#D9D9D9" fill-opacity="0.3"/>
<path d="M306.532 346.652L314.124 347.211L311.966 324.7L306.532 346.652Z" stroke="#00BFFF" stroke-opacity="0.4"/>
</g>
<g id="Polygon 6_9">
<path d="M313.104 317.362L305.293 348.281L313.212 349.252L313.104 317.362Z" fill="#D9D9D9" fill-opacity="0.3"/>
<path d="M305.917 347.854L312.71 348.687L312.618 321.329L305.917 347.854Z" stroke="#00BFFF" stroke-opacity="0.4"/>
</g>
<g id="Polygon 13_9">
<path d="M315.267 379.466L319.665 353.706L310.868 353.706L315.267 379.466Z" fill="#D9D9D9" fill-opacity="0.3"/>
<path d="M319.073 354.206L311.46 354.206L315.266 376.497L319.073 354.206Z" stroke="#00BFFF" stroke-opacity="0.4"/>
</g>
<g id="Polygon 5_9">
<path d="M313.598 316.425L308.096 341.972L316.884 342.35L313.598 316.425Z" fill="#D9D9D9" fill-opacity="0.3"/>
<path d="M308.709 341.498L316.314 341.825L313.471 319.391L308.709 341.498Z" stroke="#00BFFF" stroke-opacity="0.4"/>
</g>
<g id="Polygon 14_9">
<path d="M318.927 378.967L321.737 346.137L316.7 346.092L318.927 378.967Z" fill="#D9D9D9" fill-opacity="0.3"/>
<path d="M321.194 346.632L317.235 346.597L318.986 372.422L321.194 346.632Z" stroke="#00BFFF" stroke-opacity="0.4"/>
</g>
<g id="Polygon 15_9">
<path d="M312.468 377.069L323.48 353.37L314.993 351.058L312.468 377.069Z" fill="#D9D9D9" fill-opacity="0.3"/>
<path d="M322.777 353.697L315.433 351.697L313.248 374.204L322.777 353.697Z" stroke="#00BFFF" stroke-opacity="0.4"/>
</g>
<g id="Polygon 3_9">
<path d="M315.638 320.465L311.829 346.318L320.623 346.118L315.638 320.465Z" fill="#D9D9D9" fill-opacity="0.3"/>
<path d="M312.409 345.805L320.019 345.631L315.707 323.433L312.409 345.805Z" stroke="#00BFFF" stroke-opacity="0.4"/>
</g>
<g id="Polygon 16_9">
<path d="M312.983 376.649L314.891 355.257L307.936 355.774L312.983 376.649Z" fill="#D9D9D9" fill-opacity="0.3"/>
<path d="M314.34 355.799L308.561 356.229L312.755 373.58L314.34 355.799Z" stroke="#00BFFF" stroke-opacity="0.4"/>
</g>
<g id="Polygon 7_9">
<path d="M318.437 362.199L322.555 336.393L313.759 336.488L318.437 362.199Z" fill="#D9D9D9" fill-opacity="0.3"/>
<path d="M321.969 336.899L314.357 336.982L318.405 359.23L321.969 336.899Z" stroke="#00BFFF" stroke-opacity="0.4"/>
</g>
<g id="Polygon 21_9">
<path d="M318.073 359.85L322.198 333.78L313.381 333.876L318.073 359.85Z" fill="#D9D9D9" fill-opacity="0.3"/>
<path d="M321.612 334.286L313.978 334.369L318.04 356.856L321.612 334.286Z" stroke="#00BFFF" stroke-opacity="0.4"/>
</g>
<g id="Polygon 17_9">
<path d="M310.159 376.941L314.557 351.181L305.76 351.181L310.159 376.941Z" fill="#D9D9D9" fill-opacity="0.3"/>
<path d="M313.965 351.682L306.353 351.682L310.158 373.973L313.965 351.682Z" stroke="#00BFFF" stroke-opacity="0.4"/>
</g>
<g id="Polygon 10_9">
<path d="M312.801 326.977L308.403 352.737H317.199L312.801 326.977Z" fill="#D9D9D9" fill-opacity="0.3"/>
<path d="M308.995 352.237H316.607L312.801 329.946L308.995 352.237Z" stroke="#00BFFF" stroke-opacity="0.4"/>
</g>
<g id="Polygon 18_9">
<path d="M313.447 372.655L317.845 346.895L309.048 346.895L313.447 372.655Z" fill="#D9D9D9" fill-opacity="0.3"/>
<path d="M317.253 347.396L309.64 347.396L313.446 369.687L317.253 347.396Z" stroke="#00BFFF" stroke-opacity="0.4"/>
</g>
<g id="Polygon 9_9">
<path d="M309.749 326.046L304.715 351.689L313.509 351.907L309.749 326.046Z" fill="#D9D9D9" fill-opacity="0.3"/>
<path d="M305.32 351.204L312.93 351.392L309.676 329.014L305.32 351.204Z" stroke="#00BFFF" stroke-opacity="0.4"/>
</g>
<g id="Polygon 19_9">
<path d="M315.352 384.653L313.962 356.511L305.351 358.312L315.352 384.653Z" fill="#D9D9D9" fill-opacity="0.3"/>
<path d="M313.491 357.121L306.027 358.682L314.696 381.52L313.491 357.121Z" stroke="#00BFFF" stroke-opacity="0.4"/>
</g>
<g id="Polygon 4_9">
<path d="M316.373 323.998L314.386 350.055L323.144 349.239L316.373 323.998Z" fill="#D9D9D9" fill-opacity="0.3"/>
<path d="M314.929 349.502L322.508 348.796L316.649 326.954L314.929 349.502Z" stroke="#00BFFF" stroke-opacity="0.4"/>
</g>
<g id="Polygon 20_9">
<path d="M310.165 376.676L313.323 350.734L304.537 351.156L310.165 376.676Z" fill="#D9D9D9" fill-opacity="0.3"/>
<path d="M312.756 351.262L305.152 351.627L310.022 373.71L312.756 351.262Z" stroke="#00BFFF" stroke-opacity="0.4"/>
</g>
<g id="Polygon 8_9">
<path d="M312.859 323.866L308.461 349.625H317.258L312.859 323.866Z" fill="#D9D9D9" fill-opacity="0.3"/>
<path d="M309.053 349.125H316.666L312.86 326.834L309.053 349.125Z" stroke="#00BFFF" stroke-opacity="0.4"/>
</g>
<g id="Polygon 12_9">
<path d="M317.852 373.578L324.096 348.202L315.323 347.568L317.852 373.578Z" fill="#D9D9D9" fill-opacity="0.3"/>
<path d="M323.47 348.659L315.877 348.109L318.065 370.617L323.47 348.659Z" stroke="#00BFFF" stroke-opacity="0.4"/>
</g>
</g>
</g>
</g>
<path id="&#227;&#131;&#138;&#227;&#131;&#147;&#227;&#130;&#178;&#227;&#131;&#188;&#227;&#130;&#183;&#227;&#131;&#167;&#227;&#131;&#179;&#231;&#148;&#168;&#233;&#129;&#147;&#232;&#183;&#175;" d="M698 1356.5H277.5L276 1202L311.125 1154M698 1356.5V1411.5M698 1356.5H938.5M698 1356.5L701.5 1242.5L761.5 1154M938.5 1356.5H1067.5V1440H1104V1187L1267 1009M938.5 1356.5V1309H1031V1190.5L1197.5 1001V777M1267 1009H1389M1267 1009V777M1267 777H1350V697M1267 777H1197.5M1076.5 777L949 576M1076.5 777H847.5M1076.5 777H1197.5M949 576L1064 505V372M949 576H845.5M1064 372H1101L1224 540.5M1064 372H930.5V336H1005.5V265H899.5V201.5H704M704 201.5V112.5M704 201.5H562.5M704 201.5V336L845.5 576M562.5 201.5V158H297.5M562.5 201.5V306.5H297.5M398 506L373 521L268 381.5V158H297.5M398 506L431.5 550V712.5H332V782.5M297.5 306.5V345.5L398 506M332 782.5H146M332 782.5V851.5H431.5V989.5L311.125 1154M332 782.5L636 779.257M311.125 1154L347.5 1175.5L499 974M499 974L761.5 1154M499 974L490.5 963V840.5H636V779.257M761.5 1154L847.5 1031.5V777M847.5 777L636 779.257M847.5 777L845.5 576M636 779.257V716L499 712.5V576M297.5 345.5H443C495.081 342.088 500.829 347.878 463 374L398 419L499 562V576M297.5 158V306.5M845.5 576H499" stroke="#FF0000"/>
<g id="Node">
<circle id="node_22" cx="313" cy="1154" r="27.5" transform="rotate(-90 313 1154)" stroke="#FF0000"/>
<circle id="node_21" cx="702" cy="1356" r="27.5" transform="rotate(-90 702 1356)" stroke="#FF0000"/>
<circle id="node_20" cx="939" cy="1355" r="27.5" transform="rotate(-90 939 1355)" stroke="#FF0000"/>
<circle id="node_19" cx="1268" cy="1006" r="27.5" transform="rotate(-90 1268 1006)" stroke="#FF0000"/>
<circle id="node_18" cx="1268" cy="780" r="27.5" transform="rotate(-90 1268 780)" stroke="#FF0000"/>
<circle id="node_17" cx="1200" cy="778" r="27.5" transform="rotate(-90 1200 778)" stroke="#FF0000"/>
<circle id="node_16" cx="1073" cy="776" r="27.5" transform="rotate(-90 1073 776)" stroke="#FF0000"/>
<circle id="node_15" cx="847" cy="778" r="27.5" transform="rotate(-90 847 778)" stroke="#FF0000"/>
<circle id="node_14" cx="758" cy="1144" r="27.5" transform="rotate(-90 758 1144)" stroke="#FF0000"/>
<circle id="node_13" cx="499" cy="978" r="27.5" transform="rotate(-90 499 978)" stroke="#FF0000"/>
<circle id="node_12" cx="394" cy="504" r="27.5" transform="rotate(-90 394 504)" stroke="#FF0000"/>
<circle id="node_11" cx="297" cy="353" r="27.5" transform="rotate(-90 297 353)" stroke="#FF0000"/>
<circle id="node_10" cx="297" cy="307" r="27.5" transform="rotate(-90 297 307)" stroke="#FF0000"/>
<circle id="node_9" cx="282" cy="164" r="27.5" transform="rotate(-90 282 164)" stroke="#FF0000"/>
<circle id="node_8" cx="568" cy="197" r="27.5" transform="rotate(-90 568 197)" stroke="#FF0000"/>
<circle id="node_7" cx="702" cy="197" r="27.5" transform="rotate(-90 702 197)" stroke="#FF0000"/>
<circle id="node_6" cx="1064" cy="370" r="27.5" transform="rotate(-90 1064 370)" stroke="#FF0000"/>
<circle id="node_5" cx="950" cy="582" r="27.5" transform="rotate(-90 950 582)" stroke="#FF0000"/>
<circle id="node_4" cx="845" cy="578" r="27.5" transform="rotate(-90 845 578)" stroke="#FF0000"/>
<circle id="node_3" cx="503" cy="578" r="27.5" transform="rotate(-90 503 578)" stroke="#FF0000"/>
<circle id="node_2" cx="634" cy="784" r="27.5" transform="rotate(-90 634 784)" stroke="#FF0000"/>
<circle id="node_1" cx="333" cy="784" r="27.5" transform="rotate(-90 333 784)" stroke="#FF0000"/>
</g>
</g>
</svg>
