<svg width="1498" height="1446" viewBox="0 0 1498 1446" fill="none" xmlns="http://www.w3.org/2000/svg">
<g id="Group 6">
<path id="&#233;&#129;&#147;&#232;&#183;&#175;(Stroke)" d="M1396.51 725C1396.51 729.418 1392.93 733 1388.51 733H1314.51C1310.09 733 1306.51 736.582 1306.51 741V918.5C1306.51 922.918 1302.93 926.5 1298.51 926.5H1252.51C1248.09 926.5 1244.51 930.082 1244.51 934.5V1027C1244.51 1031.42 1240.93 1035 1236.51 1035H1157.51C1153.09 1035 1149.51 1031.42 1149.51 1027V964.75C1149.51 961.022 1146.49 958 1142.76 958C1139.03 958 1136.01 961.022 1136.01 964.75V1121.02C1136.01 1123.6 1134.77 1126.01 1132.69 1127.52L959.848 1251.94C956.262 1254.52 951.263 1253.71 948.681 1250.12L946.344 1246.88C943.763 1243.29 944.577 1238.29 948.163 1235.71L1112.69 1117.27C1114.77 1115.77 1116.01 1113.35 1116.01 1110.78V1101.5C1116.01 1097.08 1112.43 1093.5 1108.01 1093.5H991.407C988.656 1093.5 986.097 1092.09 984.633 1089.76L920.39 987.489C917.993 983.674 912.921 982.589 909.174 985.091L732.571 1102.97C730.348 1104.46 729.013 1106.95 729.013 1109.63V1350.5C729.013 1354.92 732.594 1358.5 737.013 1358.5H799.513C803.931 1358.5 807.513 1362.08 807.513 1366.5V1370.5C807.513 1374.92 803.931 1378.5 799.513 1378.5H717.013C712.594 1378.5 709.013 1374.92 709.013 1370.5V1300C709.013 1295.58 705.431 1292 701.013 1292H505.013C500.594 1292 497.013 1295.58 497.013 1300V1406C497.013 1410.42 493.431 1414 489.013 1414H485.013C480.594 1414 477.013 1410.42 477.013 1406V1290.02C477.013 1287.75 476.05 1285.59 474.364 1284.07L305.459 1132.05C303.99 1130.73 302.083 1130 300.107 1130H53.0127C48.5944 1130 45.0127 1126.42 45.0127 1122V1083C45.0127 1078.58 48.5944 1075 53.0127 1075H120.513C124.931 1075 128.513 1071.42 128.513 1067V734.5C128.513 730.082 124.931 726.5 120.513 726.5H81.0127C76.5944 726.5 73.0127 722.918 73.0127 718.5V714.5C73.0127 710.082 76.5944 706.5 81.0127 706.5H120.513C124.931 706.5 128.513 702.918 128.513 698.5V292C128.513 287.582 132.094 284 136.513 284H295.664C297.357 284 299.006 284.537 300.374 285.533L509.663 437.967C511.031 438.963 512.68 439.5 514.373 439.5H626.013C630.431 439.5 634.013 435.918 634.013 431.5V347C634.013 342.582 637.594 339 642.013 339H695.263C699.681 339 703.263 335.418 703.263 331V160.5C703.263 156.082 706.844 152.5 711.263 152.5H715.263C719.681 152.5 723.263 156.082 723.263 160.5V331C723.263 335.418 726.844 339 731.263 339H784.513C788.931 339 792.513 342.582 792.513 347V431.5C792.513 435.918 796.094 439.5 800.513 439.5H941.337C943.116 439.5 944.844 438.907 946.249 437.815L971.81 417.933C975.359 415.173 975.937 410.031 973.09 406.552L965.468 397.237C962.61 393.744 963.205 388.58 966.783 385.829L1107.46 277.658C1108.85 276.583 1110.57 276 1112.33 276H1341.51C1345.93 276 1349.51 279.582 1349.51 284V581.5C1349.51 585.918 1345.93 589.5 1341.51 589.5H1314.51C1310.09 589.5 1306.51 593.082 1306.51 597.5V705C1306.51 709.418 1310.09 713 1314.51 713H1388.51C1392.93 713 1396.51 716.582 1396.51 721V725ZM494.756 1225C492.805 1225 490.922 1224.29 489.46 1223L305.497 1060.5C304.035 1059.21 302.152 1058.5 300.201 1058.5H183.013C178.594 1058.5 175.013 1054.92 175.013 1050.5V974.5C175.013 970.082 171.431 966.5 167.013 966.5H156.513C152.094 966.5 148.513 970.082 148.513 974.5V1087C148.513 1091.42 144.931 1095 140.513 1095H72.5127C68.3706 1095 65.0127 1098.36 65.0127 1102.5C65.0127 1106.64 68.3706 1110 72.5127 1110H307.78C309.756 1110 311.662 1110.73 313.131 1112.05L488.568 1269.95C490.037 1271.27 491.943 1272 493.919 1272H701.013C705.431 1272 709.013 1268.42 709.013 1264V1233C709.013 1228.58 705.431 1225 701.013 1225H494.756ZM707.351 882.939C707.317 878.544 703.745 875 699.351 875H461.373C459.709 875 458.087 874.481 456.732 873.516L252.399 727.984C251.044 727.019 249.421 726.5 247.758 726.5H156.513C152.094 726.5 148.513 730.082 148.513 734.5V938.5C148.513 942.918 152.094 946.5 156.513 946.5H187.013C191.431 946.5 195.013 950.082 195.013 954.5V1030.5C195.013 1034.92 198.594 1038.5 203.013 1038.5H307.77C309.72 1038.5 311.604 1039.21 313.066 1040.5L497.029 1203C498.491 1204.29 500.374 1205 502.325 1205H701.013C705.431 1205 709.013 1201.42 709.013 1197V1100.08L707.351 882.939ZM312.493 370.863C309.073 368.303 308.267 363.507 310.664 359.97L325.473 338.118C327.893 334.547 327.047 329.702 323.561 327.163L293.863 305.533C292.495 304.537 290.846 304 289.153 304H156.513C152.094 304 148.513 307.582 148.513 312V698.5C148.513 702.918 152.094 706.5 156.513 706.5H254.152C255.816 706.5 257.438 707.019 258.793 707.984L334.435 761.857C338.071 764.447 343.124 763.56 345.66 759.886L507.041 526.075C509.483 522.537 508.692 517.702 505.25 515.126L312.493 370.863ZM703.4 366.939C703.366 362.544 699.794 359 695.4 359H662.013C657.594 359 654.013 362.582 654.013 367V451.5C654.013 455.918 650.431 459.5 646.013 459.5H507.861C506.169 459.5 504.52 458.963 503.151 457.967L352.678 348.369C349.021 345.706 343.884 346.602 341.345 350.348L337.927 355.392C335.53 358.929 336.335 363.725 339.756 366.285L519.057 500.478C521.092 502.001 523.985 501.528 525.428 499.436C526.264 498.224 527.643 497.5 529.115 497.5H656.013C660.431 497.5 664.013 501.082 664.013 505.5V636.5C664.013 640.918 667.594 644.5 672.013 644.5H697.464C701.906 644.5 705.498 640.881 705.464 636.439L703.4 366.939ZM705.739 672.439C705.705 668.044 702.133 664.5 697.739 664.5H652.013C647.594 664.5 644.013 660.918 644.013 656.5V525.5C644.013 521.082 640.431 517.5 636.013 517.5H541.461C538.831 517.5 536.37 518.792 534.877 520.956L361.818 771.683C359.334 775.282 360.199 780.208 363.761 782.744L463.127 853.516C464.482 854.481 466.104 855 467.768 855H699.075C703.517 855 707.109 851.381 707.075 846.939L705.739 672.439ZM998.277 422.685L953.11 457.815C951.706 458.907 949.978 459.5 948.198 459.5H780.513C776.094 459.5 772.513 455.918 772.513 451.5V367C772.513 362.582 768.931 359 764.513 359H731.401C726.959 359 723.368 362.619 723.402 367.061L725.466 636.561C725.499 640.956 729.071 644.5 733.465 644.5H764.513C768.931 644.5 772.513 640.918 772.513 636.5V515.5C772.513 511.082 776.094 507.5 780.513 507.5H928.222C929.896 507.5 931.527 506.975 932.887 505.999L1073.31 405.207C1076.91 402.626 1081.92 403.456 1084.49 407.059L1126.5 465.935C1131.02 472.271 1141.01 469.072 1141.01 461.288V346.726C1141.01 340.419 1134.06 336.592 1128.73 339.97L998.277 422.685ZM800.513 527.5C796.094 527.5 792.513 531.082 792.513 535.5V656.5C792.513 660.918 788.931 664.5 784.513 664.5H733.74C729.298 664.5 725.706 668.119 725.74 672.561L727.077 847.061C727.111 851.456 730.682 855 735.077 855H901.013C905.431 855 909.013 851.418 909.013 847V535.5C909.013 531.082 905.431 527.5 901.013 527.5H800.513ZM735.352 875C730.91 875 727.319 878.619 727.353 883.061L728.758 1066.58C728.806 1072.94 735.906 1076.7 741.199 1073.17L905.454 963.527C907.678 962.043 909.013 959.546 909.013 956.873V883C909.013 878.582 905.431 875 901.013 875H735.352ZM1164.43 733C1163 733 1161.6 733.384 1160.36 734.111L932.945 868.387C930.508 869.826 929.013 872.446 929.013 875.276V961.316C929.013 962.821 929.438 964.296 930.239 965.571L995.689 1069.76C997.153 1072.09 999.711 1073.5 1002.46 1073.5H1108.01C1112.43 1073.5 1116.01 1069.92 1116.01 1065.5V946C1116.01 941.582 1119.59 938 1124.01 938H1161.51C1165.93 938 1169.51 941.582 1169.51 946V1007C1169.51 1011.42 1173.09 1015 1177.51 1015H1216.51C1220.93 1015 1224.51 1011.42 1224.51 1007V914.5C1224.51 910.082 1228.09 906.5 1232.51 906.5H1278.51C1282.93 906.5 1286.51 902.918 1286.51 898.5V741C1286.51 736.582 1282.93 733 1278.51 733H1164.43ZM1186.01 589.5C1181.59 589.5 1178.01 585.918 1178.01 581.5V332C1178.01 327.582 1174.43 324 1170.01 324H1169.01C1164.59 324 1161.01 327.582 1161.01 332V523.746C1161.01 531.53 1151.02 534.729 1146.5 528.393L1079.86 435.001C1077.29 431.397 1072.28 430.567 1068.68 433.149L938.856 526.334C937.799 527.092 936.531 527.5 935.23 527.5C931.796 527.5 929.013 530.284 929.013 533.717V833.469C929.013 839.662 935.747 843.506 941.08 840.357L1154.9 714.111C1156.13 713.384 1157.54 713 1158.97 713H1278.51C1282.93 713 1286.51 709.418 1286.51 705V597.5C1286.51 593.082 1282.93 589.5 1278.51 589.5H1186.01ZM1119.13 296C1117.37 296 1115.66 296.583 1114.26 297.658L992.725 391.11C990.566 392.771 990.206 395.889 991.932 397.997C993.478 399.888 996.193 400.326 998.256 399.018L1146.15 305.244C1147.43 304.431 1148.91 304 1150.43 304H1325.51C1327.72 304 1329.51 302.209 1329.51 300C1329.51 297.791 1327.72 296 1325.51 296H1119.13ZM1206.01 324C1201.59 324 1198.01 327.582 1198.01 332V561.5C1198.01 565.918 1201.59 569.5 1206.01 569.5H1321.51C1325.93 569.5 1329.51 565.918 1329.51 561.5V332C1329.51 327.582 1325.93 324 1321.51 324H1206.01Z" fill="white" fill-opacity="0.3" stroke="black" stroke-width="4"/>
<g id="&#227;&#131;&#143;&#227;&#130;&#166;&#227;&#130;&#185;">
<path id="plot_22" d="M1314.01 61V254.438C1314.01 257.752 1311.33 260.438 1308.01 260.438H1147.06C1143.74 260.438 1141.06 257.752 1141.06 254.438V61C1141.06 57.6863 1143.74 55 1147.06 55L1308.01 55C1311.33 55 1314.01 57.6863 1314.01 61Z" fill="white" fill-opacity="0.3" stroke="black" stroke-width="4"/>
<path id="plot_12" d="M459.042 382.478L305.68 264.586C303.052 262.566 302.56 258.799 304.579 256.172L402.675 128.562C404.695 125.935 408.462 125.442 411.089 127.462L564.451 245.354C567.078 247.373 567.571 251.14 565.551 253.767L467.456 381.377C465.436 384.005 461.669 384.497 459.042 382.478Z" fill="white" fill-opacity="0.3" stroke="black" stroke-width="4"/>
<path id="plot_30" d="M1279.57 938L1473.01 938C1476.33 938 1479.01 940.686 1479.01 944L1479.01 1104.96C1479.01 1108.27 1476.33 1110.96 1473.01 1110.96L1279.57 1110.96C1276.26 1110.96 1273.57 1108.27 1273.57 1104.96L1273.57 944C1273.57 940.686 1276.26 938 1279.57 938Z" fill="white" fill-opacity="0.3" stroke="black" stroke-width="4"/>
<path id="plot_2" d="M302.013 1141V1281.16C302.013 1284.47 299.326 1287.16 296.013 1287.16H176.206C172.892 1287.16 170.206 1284.47 170.206 1281.16V1141C170.206 1137.69 172.892 1135 176.206 1135H296.013C299.326 1135 302.013 1137.69 302.013 1141Z" fill="white" fill-opacity="0.3" stroke="black" stroke-width="4"/>
<path id="plot_18" d="M1005.55 338.162L920.341 226.876C918.327 224.245 918.826 220.479 921.457 218.464L1016.58 145.632C1019.21 143.617 1022.98 144.117 1025 146.748L1110.2 258.034C1112.22 260.666 1111.72 264.431 1109.08 266.446L1013.96 339.279C1011.33 341.293 1007.56 340.793 1005.55 338.162Z" fill="white" fill-opacity="0.3" stroke="black" stroke-width="4"/>
<path id="plot_17" d="M805.853 280L946.013 280C949.326 280 952.013 282.686 952.013 286L952.013 405.807C952.013 409.12 949.326 411.807 946.013 411.807L805.853 411.807C802.54 411.807 799.854 409.12 799.853 405.807L799.853 286C799.853 282.686 802.54 280 805.853 280Z" fill="white" fill-opacity="0.3" stroke="black" stroke-width="4"/>
<path id="plot_26" d="M985.013 1430.81L844.854 1430.81C841.54 1430.81 838.854 1428.12 838.854 1424.81L838.854 1305C838.854 1301.69 841.54 1299 844.854 1299L985.013 1299C988.326 1299 991.013 1301.69 991.013 1305L991.013 1424.81C991.013 1428.12 988.326 1430.81 985.013 1430.81Z" fill="white" fill-opacity="0.3" stroke="black" stroke-width="4"/>
<path id="plot_21" d="M1495.01 332V472.159C1495.01 475.473 1492.33 478.159 1489.01 478.159H1369.21C1365.89 478.159 1363.21 475.473 1363.21 472.159V332C1363.21 328.686 1365.89 326 1369.21 326H1489.01C1492.33 326 1495.01 328.686 1495.01 332Z" fill="white" fill-opacity="0.3" stroke="black" stroke-width="4"/>
<path id="plot_7" d="M507.853 1042L648.013 1042C651.326 1042 654.013 1044.69 654.013 1048L654.013 1167.81C654.013 1171.12 651.326 1173.81 648.013 1173.81L507.853 1173.81C504.54 1173.81 501.854 1171.12 501.853 1167.81L501.853 1048C501.853 1044.69 504.54 1042 507.853 1042Z" fill="white" fill-opacity="0.3" stroke="black" stroke-width="4"/>
<path id="plot_8" d="M368.353 450.281L482.343 531.835C485.038 533.763 485.659 537.511 483.731 540.206L414.02 637.643C412.092 640.338 408.344 640.96 405.649 639.031L291.66 557.478C288.965 555.55 288.343 551.802 290.271 549.107L359.982 451.67C361.91 448.975 365.658 448.353 368.353 450.281Z" fill="white" fill-opacity="0.3" stroke="black" stroke-width="4"/>
<path id="plot_1" d="M8 956L100.013 956C103.326 956 106.013 958.686 106.013 962L106.013 1057.25C106.013 1060.56 103.326 1063.25 100.013 1063.25L8 1063.25C4.6863 1063.25 2 1060.56 2 1057.25L2 962C2 958.686 4.68629 956 8 956Z" fill="white" fill-opacity="0.3" stroke="black" stroke-width="4"/>
<path id="plot_28" d="M1175 782L1267.01 782C1270.33 782 1273.01 784.686 1273.01 788L1273.01 883.251C1273.01 886.565 1270.33 889.251 1267.01 889.251L1175 889.251C1171.69 889.251 1169 886.565 1169 883.251L1169 788C1169 784.686 1171.69 782 1175 782Z" fill="white" fill-opacity="0.3" stroke="black" stroke-width="4"/>
<path id="plot_29" d="M1321 818L1413.01 818C1416.33 818 1419.01 820.686 1419.01 824L1419.01 919.251C1419.01 922.565 1416.33 925.251 1413.01 925.251L1321 925.251C1317.69 925.251 1315 922.565 1315 919.251L1315 824C1315 820.686 1317.69 818 1321 818Z" fill="white" fill-opacity="0.3" stroke="black" stroke-width="4"/>
<path id="plot_20" d="M1221 335L1313.01 335C1316.33 335 1319.01 337.686 1319.01 341L1319.01 436.251C1319.01 439.565 1316.33 442.251 1313.01 442.251L1221 442.251C1217.69 442.251 1215 439.565 1215 436.251L1215 341C1215 337.686 1217.69 335 1221 335Z" fill="white" fill-opacity="0.3" stroke="black" stroke-width="4"/>
<path id="plot_10" d="M541 532L633.013 532C636.326 532 639.013 534.686 639.013 538L639.013 633.251C639.013 636.565 636.326 639.251 633.013 639.251L541 639.251C537.686 639.251 535 636.565 535 633.251L535 538C535 534.686 537.686 532 541 532Z" fill="white" fill-opacity="0.3" stroke="black" stroke-width="4"/>
<path id="plot_27" d="M1106.75 1170.65L1160.7 1245.19C1162.64 1247.88 1162.04 1251.63 1159.36 1253.57L1082.2 1309.42C1079.51 1311.36 1075.76 1310.76 1073.82 1308.07L1019.87 1233.54C1017.93 1230.85 1018.53 1227.1 1021.21 1225.16L1098.37 1169.31C1101.06 1167.37 1104.81 1167.97 1106.75 1170.65Z" fill="white" fill-opacity="0.3" stroke="black" stroke-width="4"/>
<path id="plot_25" d="M1001 943L1093.01 943C1096.33 943 1099.01 945.686 1099.01 949L1099.01 1044.25C1099.01 1047.56 1096.33 1050.25 1093.01 1050.25L1001 1050.25C997.686 1050.25 995 1047.56 995 1044.25L995 949C995 945.686 997.686 943 1001 943Z" fill="white" fill-opacity="0.3" stroke="black" stroke-width="4"/>
<path id="plot_15" d="M942.26 628.168L1015.48 572.437C1018.11 570.43 1021.88 570.94 1023.88 573.577L1081.58 649.369C1083.58 652.005 1083.07 655.77 1080.44 657.777L1007.22 713.508C1004.58 715.515 1000.82 715.004 998.812 712.368L941.12 636.576C939.113 633.939 939.624 630.175 942.26 628.168Z" fill="white" fill-opacity="0.3" stroke="black" stroke-width="4"/>
<path id="plot_13" d="M619.013 335V427.013C619.013 430.326 616.326 433.013 613.013 433.013H517.762C514.448 433.013 511.762 430.326 511.762 427.013V335C511.762 331.686 514.448 329 517.762 329H613.013C616.326 329 619.013 331.686 619.013 335Z" fill="white" fill-opacity="0.3" stroke="black" stroke-width="4"/>
<path id="plot_14" d="M802 543L894.013 543C897.326 543 900.013 545.686 900.013 549L900.013 644.251C900.013 647.565 897.326 650.251 894.013 650.251L802 650.251C798.686 650.251 796 647.565 796 644.251L796 549C796 545.686 798.686 543 802 543Z" fill="white" fill-opacity="0.3" stroke="black" stroke-width="4"/>
<path id="plot_5" d="M349.762 1386.01L349.762 1294C349.762 1290.69 352.448 1288 355.762 1288L451.013 1288C454.326 1288 457.013 1290.69 457.013 1294L457.013 1386.01C457.013 1389.33 454.326 1392.01 451.013 1392.01L355.762 1392.01C352.448 1392.01 349.762 1389.33 349.762 1386.01Z" fill="white" fill-opacity="0.3" stroke="black" stroke-width="4"/>
<path id="plot_6" d="M513 1300L605.013 1300C608.326 1300 611.013 1302.69 611.013 1306L611.013 1401.25C611.013 1404.56 608.326 1407.25 605.013 1407.25L513 1407.25C509.686 1407.25 507 1404.56 507 1401.25L507 1306C507 1302.69 509.686 1300 513 1300Z" fill="white" fill-opacity="0.3" stroke="black" stroke-width="4"/>
<path id="plot_16" d="M1086.83 449.694L1139.77 524.947C1141.68 527.657 1141.03 531.4 1138.32 533.306L1060.42 588.116C1057.71 590.023 1053.96 589.372 1052.06 586.662L999.112 511.408C997.205 508.698 997.856 504.956 1000.57 503.049L1078.47 448.239C1081.18 446.332 1084.92 446.984 1086.83 449.694Z" fill="white" fill-opacity="0.3" stroke="black" stroke-width="4"/>
<path id="plot_4" d="M382 998L474.013 998C477.326 998 480.013 1000.69 480.013 1004L480.013 1099.25C480.013 1102.56 477.326 1105.25 474.013 1105.25L382 1105.25C378.686 1105.25 376 1102.56 376 1099.25L376 1004C376 1000.69 378.686 998 382 998Z" fill="white" fill-opacity="0.3" stroke="black" stroke-width="4"/>
<path id="plot_3" d="M255.762 1022.01L255.762 930C255.762 926.686 258.448 924 261.762 924L357.013 924C360.326 924 363.013 926.686 363.013 930L363.013 1022.01C363.013 1025.33 360.326 1028.01 357.013 1028.01L261.762 1028.01C258.448 1028.01 255.762 1025.33 255.762 1022.01Z" fill="white" fill-opacity="0.3" stroke="black" stroke-width="4"/>
<path id="plot_11" d="M169 360L261.013 360C264.326 360 267.013 362.686 267.013 366L267.013 461.251C267.013 464.565 264.326 467.251 261.013 467.251L169 467.251C165.686 467.251 163 464.565 163 461.251L163 366C163 362.686 165.686 360 169 360Z" fill="white" fill-opacity="0.3" stroke="black" stroke-width="4"/>
<path id="plot_24" d="M961.894 1094.58L1017.58 1167.83C1019.58 1170.47 1019.07 1174.23 1016.43 1176.24L940.606 1233.88C937.968 1235.89 934.204 1235.37 932.198 1232.74L876.513 1159.49C874.508 1156.85 875.021 1153.08 877.659 1151.08L953.487 1093.43C956.125 1091.43 959.889 1091.94 961.894 1094.58Z" fill="white" fill-opacity="0.3" stroke="black" stroke-width="4"/>
<path id="plot_9" d="M494.34 620.265L569.334 673.579C572.034 675.499 572.667 679.245 570.747 681.945L515.558 759.578C513.638 762.279 509.892 762.912 507.191 760.992L432.198 707.679C429.497 705.759 428.864 702.013 430.784 699.312L485.973 621.679C487.893 618.978 491.639 618.345 494.34 620.265Z" fill="white" fill-opacity="0.3" stroke="black" stroke-width="4"/>
<path id="plot_23" d="M789.57 1080.27L863.415 1025.38C866.074 1023.4 869.833 1023.95 871.81 1026.61L928.635 1103.06C930.612 1105.72 930.058 1109.48 927.399 1111.45L853.554 1166.35C850.895 1168.32 847.136 1167.77 845.159 1165.11L788.334 1088.67C786.357 1086.01 786.911 1082.25 789.57 1080.27Z" fill="white" fill-opacity="0.3" stroke="black" stroke-width="4"/>
<path id="plot_19" d="M1213 457L1305.01 457C1308.33 457 1311.01 459.686 1311.01 463L1311.01 558.251C1311.01 561.565 1308.33 564.251 1305.01 564.251L1213 564.251C1209.69 564.251 1207 561.565 1207 558.251L1207 463C1207 459.686 1209.69 457 1213 457Z" fill="white" fill-opacity="0.3" stroke="black" stroke-width="4"/>
<path id="apart_2" d="M693.013 230H603.013C599.699 230 597.013 227.314 597.013 224V8.00001C597.013 4.68631 599.699 2.00001 603.013 2.00001H693.013C696.326 2.00001 699.013 4.68631 699.013 8.00001V224L699.005 224.309C698.844 227.479 696.223 230 693.013 230Z" fill="white" fill-opacity="0.3" stroke="black" stroke-width="4"/>
</g>
<g id="&#227;&#130;&#168;&#227;&#131;&#188;&#227;&#131;&#134;&#227;&#131;&#169;&#227;&#130;&#164;&#227;&#131;&#136;">
<g id="[&#230;&#139;&#161;&#229;&#188;&#181;&#232;&#161;&#151;]&#227;&#130;&#168;&#227;&#131;&#179;&#227;&#131;&#148;&#227;&#131;&#172;&#227;&#130;&#162;&#227;&#131;&#160;&#229;&#141;&#151;&#232;&#165;&#191;">
<g id="Group 5">
<path id="Polygon 22" d="M402.483 1251.07L390.572 1253.28L387.63 1258.25L395.873 1262.23H409.094L417.337 1258.25L414.395 1253.28L402.483 1251.07Z" fill="#F0FEFF" fill-opacity="0.4"/>
<path id="Polygon 23" d="M402.513 1247.08L390.394 1249.32L387.401 1254.36L395.787 1258.41H409.238L417.624 1254.36L414.631 1249.32L402.513 1247.08Z" fill="#F0FEFF" fill-opacity="0.4"/>
</g>
<g id="Group 2">
<g id="Polygon 1">
<path d="M401.988 1190L397.589 1214H406.386L401.988 1190Z" fill="#D9D9D9" fill-opacity="0.3"/>
<path d="M398.189 1213.5H405.786L401.988 1192.77L398.189 1213.5Z" stroke="#00BFFF" stroke-opacity="0.4"/>
</g>
<g id="Polygon 11">
<path d="M399.287 1254L403.685 1228.24L394.889 1228.24L399.287 1254Z" fill="#D9D9D9" fill-opacity="0.3"/>
<path d="M403.093 1228.74L395.481 1228.74L399.286 1251.03L403.093 1228.74Z" stroke="#00BFFF" stroke-opacity="0.4"/>
</g>
<g id="Polygon 2">
<path d="M400.196 1196.74L393.918 1222.11L402.69 1222.75L400.196 1196.74Z" fill="#D9D9D9" fill-opacity="0.3"/>
<path d="M394.545 1221.65L402.137 1222.21L399.978 1199.7L394.545 1221.65Z" stroke="#00BFFF" stroke-opacity="0.4"/>
</g>
<g id="Polygon 6">
<path d="M401.117 1192.36L393.306 1223.28L401.225 1224.25L401.117 1192.36Z" fill="#D9D9D9" fill-opacity="0.3"/>
<path d="M393.93 1222.85L400.723 1223.69L400.63 1196.33L393.93 1222.85Z" stroke="#00BFFF" stroke-opacity="0.4"/>
</g>
<g id="Polygon 13">
<path d="M403.279 1254.47L407.677 1228.71L398.881 1228.71L403.279 1254.47Z" fill="#D9D9D9" fill-opacity="0.3"/>
<path d="M407.085 1229.21L399.473 1229.21L403.279 1251.5L407.085 1229.21Z" stroke="#00BFFF" stroke-opacity="0.4"/>
</g>
<g id="Polygon 5">
<path d="M401.611 1191.42L396.109 1216.97L404.897 1217.35L401.611 1191.42Z" fill="#D9D9D9" fill-opacity="0.3"/>
<path d="M396.722 1216.5L404.327 1216.83L401.484 1194.39L396.722 1216.5Z" stroke="#00BFFF" stroke-opacity="0.4"/>
</g>
<g id="Polygon 14">
<path d="M406.94 1253.97L409.75 1221.14L404.713 1221.09L406.94 1253.97Z" fill="#D9D9D9" fill-opacity="0.3"/>
<path d="M409.206 1221.63L405.248 1221.6L406.998 1247.42L409.206 1221.63Z" stroke="#00BFFF" stroke-opacity="0.4"/>
</g>
<g id="Polygon 15">
<path d="M400.481 1252.07L411.493 1228.37L403.005 1226.06L400.481 1252.07Z" fill="#D9D9D9" fill-opacity="0.3"/>
<path d="M410.79 1228.7L403.445 1226.7L401.261 1249.2L410.79 1228.7Z" stroke="#00BFFF" stroke-opacity="0.4"/>
</g>
<g id="Polygon 3">
<path d="M403.651 1195.46L399.841 1221.32L408.635 1221.12L403.651 1195.46Z" fill="#D9D9D9" fill-opacity="0.3"/>
<path d="M400.422 1220.8L408.032 1220.63L403.719 1198.43L400.422 1220.8Z" stroke="#00BFFF" stroke-opacity="0.4"/>
</g>
<g id="Polygon 16">
<path d="M400.996 1251.65L402.903 1230.26L395.949 1230.77L400.996 1251.65Z" fill="#D9D9D9" fill-opacity="0.3"/>
<path d="M402.353 1230.8L396.574 1231.23L400.768 1248.58L402.353 1230.8Z" stroke="#00BFFF" stroke-opacity="0.4"/>
</g>
<g id="Polygon 7">
<path d="M406.45 1237.2L410.568 1211.39L401.772 1211.49L406.45 1237.2Z" fill="#D9D9D9" fill-opacity="0.3"/>
<path d="M409.981 1211.9L402.37 1211.98L406.417 1234.23L409.981 1211.9Z" stroke="#00BFFF" stroke-opacity="0.4"/>
</g>
<g id="Polygon 21">
<path d="M406.085 1234.85L410.211 1208.78L401.394 1208.88L406.085 1234.85Z" fill="#D9D9D9" fill-opacity="0.3"/>
<path d="M409.625 1209.29L401.99 1209.37L406.053 1231.86L409.625 1209.29Z" stroke="#00BFFF" stroke-opacity="0.4"/>
</g>
<g id="Polygon 17">
<path d="M398.171 1251.94L402.57 1226.18L393.773 1226.18L398.171 1251.94Z" fill="#D9D9D9" fill-opacity="0.3"/>
<path d="M401.978 1226.68L394.365 1226.68L398.171 1248.97L401.978 1226.68Z" stroke="#00BFFF" stroke-opacity="0.4"/>
</g>
<g id="Polygon 10">
<path d="M400.813 1201.98L396.415 1227.74H405.212L400.813 1201.98Z" fill="#D9D9D9" fill-opacity="0.3"/>
<path d="M397.007 1227.24H404.62L400.814 1204.95L397.007 1227.24Z" stroke="#00BFFF" stroke-opacity="0.4"/>
</g>
<g id="Polygon 18">
<path d="M401.459 1247.66L405.857 1221.9L397.061 1221.9L401.459 1247.66Z" fill="#D9D9D9" fill-opacity="0.3"/>
<path d="M405.265 1222.4L397.653 1222.4L401.459 1244.69L405.265 1222.4Z" stroke="#00BFFF" stroke-opacity="0.4"/>
</g>
<g id="Polygon 9">
<path d="M397.762 1201.05L392.728 1226.69L401.522 1226.91L397.762 1201.05Z" fill="#D9D9D9" fill-opacity="0.3"/>
<path d="M393.332 1226.2L400.942 1226.39L397.689 1204.01L393.332 1226.2Z" stroke="#00BFFF" stroke-opacity="0.4"/>
</g>
<g id="Polygon 19">
<path d="M403.365 1259.65L401.974 1231.51L393.364 1233.31L403.365 1259.65Z" fill="#D9D9D9" fill-opacity="0.3"/>
<path d="M401.504 1232.12L394.039 1233.68L402.709 1256.52L401.504 1232.12Z" stroke="#00BFFF" stroke-opacity="0.4"/>
</g>
<g id="Polygon 4">
<path d="M404.385 1199L402.398 1225.06L411.157 1224.24L404.385 1199Z" fill="#D9D9D9" fill-opacity="0.3"/>
<path d="M402.941 1224.5L410.521 1223.8L404.662 1201.95L402.941 1224.5Z" stroke="#00BFFF" stroke-opacity="0.4"/>
</g>
<g id="Polygon 20">
<path d="M398.177 1251.68L401.336 1225.73L392.549 1226.16L398.177 1251.68Z" fill="#D9D9D9" fill-opacity="0.3"/>
<path d="M400.768 1226.26L393.165 1226.63L398.034 1248.71L400.768 1226.26Z" stroke="#00BFFF" stroke-opacity="0.4"/>
</g>
<g id="Polygon 8">
<path d="M400.872 1198.87L396.474 1224.63H405.27L400.872 1198.87Z" fill="#D9D9D9" fill-opacity="0.3"/>
<path d="M397.066 1224.13H404.678L400.873 1201.83L397.066 1224.13Z" stroke="#00BFFF" stroke-opacity="0.4"/>
</g>
<g id="Polygon 12">
<path d="M405.864 1248.58L412.109 1223.2L403.336 1222.57L405.864 1248.58Z" fill="#D9D9D9" fill-opacity="0.3"/>
<path d="M411.483 1223.66L403.89 1223.11L406.078 1245.62L411.483 1223.66Z" stroke="#00BFFF" stroke-opacity="0.4"/>
</g>
</g>
</g>
<g id="[&#230;&#139;&#161;&#229;&#188;&#181;&#232;&#161;&#151;]&#227;&#130;&#164;&#227;&#131;&#179;&#227;&#130;&#176;&#227;&#131;&#171;&#227;&#130;&#181;&#227;&#130;&#164;&#227;&#131;&#137;">
<g id="Group 5_2">
<path id="Polygon 22_2" d="M812.483 183.071L800.572 185.281L797.63 190.248L805.873 194.232H819.094L827.337 190.248L824.395 185.281L812.483 183.071Z" fill="#F0FEFF" fill-opacity="0.4"/>
<path id="Polygon 23_2" d="M812.513 179.078L800.394 181.322L797.401 186.363L805.788 190.407H819.238L827.624 186.363L824.631 181.322L812.513 179.078Z" fill="#F0FEFF" fill-opacity="0.4"/>
</g>
<g id="Group 2_2">
<g id="Polygon 1_2">
<path d="M811.988 122L807.59 145.999H816.386L811.988 122Z" fill="#D9D9D9" fill-opacity="0.3"/>
<path d="M808.189 145.499H815.786L811.988 124.772L808.189 145.499Z" stroke="#00BFFF" stroke-opacity="0.4"/>
</g>
<g id="Polygon 11_2">
<path d="M809.287 185.996L813.685 160.236L804.889 160.236L809.287 185.996Z" fill="#D9D9D9" fill-opacity="0.3"/>
<path d="M813.093 160.737L805.481 160.737L809.286 183.028L813.093 160.737Z" stroke="#00BFFF" stroke-opacity="0.4"/>
</g>
<g id="Polygon 2_2">
<path d="M810.196 128.74L803.918 154.107L812.69 154.753L810.196 128.74Z" fill="#D9D9D9" fill-opacity="0.3"/>
<path d="M804.545 153.652L812.137 154.211L809.979 131.7L804.545 153.652Z" stroke="#00BFFF" stroke-opacity="0.4"/>
</g>
<g id="Polygon 6_2">
<path d="M811.117 124.362L803.306 155.281L811.225 156.252L811.117 124.362Z" fill="#D9D9D9" fill-opacity="0.3"/>
<path d="M803.93 154.854L810.723 155.687L810.631 128.329L803.93 154.854Z" stroke="#00BFFF" stroke-opacity="0.4"/>
</g>
<g id="Polygon 13_2">
<path d="M813.279 186.466L817.678 160.706L808.881 160.706L813.279 186.466Z" fill="#D9D9D9" fill-opacity="0.3"/>
<path d="M817.086 161.206L809.473 161.206L813.279 183.497L817.086 161.206Z" stroke="#00BFFF" stroke-opacity="0.4"/>
</g>
<g id="Polygon 5_2">
<path d="M811.611 123.425L806.109 148.972L814.897 149.35L811.611 123.425Z" fill="#D9D9D9" fill-opacity="0.3"/>
<path d="M806.722 148.498L814.327 148.825L811.484 126.391L806.722 148.498Z" stroke="#00BFFF" stroke-opacity="0.4"/>
</g>
<g id="Polygon 14_2">
<path d="M816.94 185.967L819.75 153.137L814.713 153.092L816.94 185.967Z" fill="#D9D9D9" fill-opacity="0.3"/>
<path d="M819.207 153.632L815.248 153.597L816.998 179.422L819.207 153.632Z" stroke="#00BFFF" stroke-opacity="0.4"/>
</g>
<g id="Polygon 15_2">
<path d="M810.481 184.069L821.493 160.37L813.006 158.058L810.481 184.069Z" fill="#D9D9D9" fill-opacity="0.3"/>
<path d="M820.79 160.697L813.445 158.697L811.261 181.204L820.79 160.697Z" stroke="#00BFFF" stroke-opacity="0.4"/>
</g>
<g id="Polygon 3_2">
<path d="M813.651 127.465L809.841 153.318L818.635 153.118L813.651 127.465Z" fill="#D9D9D9" fill-opacity="0.3"/>
<path d="M810.422 152.805L818.032 152.631L813.719 130.433L810.422 152.805Z" stroke="#00BFFF" stroke-opacity="0.4"/>
</g>
<g id="Polygon 16_2">
<path d="M810.996 183.65L812.903 162.257L805.949 162.774L810.996 183.65Z" fill="#D9D9D9" fill-opacity="0.3"/>
<path d="M812.353 162.799L806.574 163.229L810.768 180.58L812.353 162.799Z" stroke="#00BFFF" stroke-opacity="0.4"/>
</g>
<g id="Polygon 7_2">
<path d="M816.45 169.199L820.568 143.393L811.772 143.488L816.45 169.199Z" fill="#D9D9D9" fill-opacity="0.3"/>
<path d="M819.982 143.899L812.37 143.982L816.417 166.23L819.982 143.899Z" stroke="#00BFFF" stroke-opacity="0.4"/>
</g>
<g id="Polygon 21_2">
<path d="M816.085 166.85L820.211 140.78L811.394 140.876L816.085 166.85Z" fill="#D9D9D9" fill-opacity="0.3"/>
<path d="M819.625 141.286L811.991 141.369L816.053 163.856L819.625 141.286Z" stroke="#00BFFF" stroke-opacity="0.4"/>
</g>
<g id="Polygon 17_2">
<path d="M808.171 183.941L812.57 158.181L803.773 158.181L808.171 183.941Z" fill="#D9D9D9" fill-opacity="0.3"/>
<path d="M811.978 158.682L804.365 158.682L808.171 180.973L811.978 158.682Z" stroke="#00BFFF" stroke-opacity="0.4"/>
</g>
<g id="Polygon 10_2">
<path d="M810.814 133.977L806.415 159.737H815.212L810.814 133.977Z" fill="#D9D9D9" fill-opacity="0.3"/>
<path d="M807.007 159.237H814.62L810.814 136.946L807.007 159.237Z" stroke="#00BFFF" stroke-opacity="0.4"/>
</g>
<g id="Polygon 18_2">
<path d="M811.459 179.655L815.858 153.895L807.061 153.895L811.459 179.655Z" fill="#D9D9D9" fill-opacity="0.3"/>
<path d="M815.266 154.396L807.653 154.396L811.459 176.687L815.266 154.396Z" stroke="#00BFFF" stroke-opacity="0.4"/>
</g>
<g id="Polygon 9_2">
<path d="M807.762 133.046L802.728 158.689L811.522 158.907L807.762 133.046Z" fill="#D9D9D9" fill-opacity="0.3"/>
<path d="M803.333 158.204L810.942 158.392L807.689 136.014L803.333 158.204Z" stroke="#00BFFF" stroke-opacity="0.4"/>
</g>
<g id="Polygon 19_2">
<path d="M813.365 191.653L811.975 163.511L803.364 165.312L813.365 191.653Z" fill="#D9D9D9" fill-opacity="0.3"/>
<path d="M811.504 164.121L804.04 165.682L812.709 188.52L811.504 164.121Z" stroke="#00BFFF" stroke-opacity="0.4"/>
</g>
<g id="Polygon 4_2">
<path d="M814.386 130.998L812.398 157.055L821.157 156.239L814.386 130.998Z" fill="#D9D9D9" fill-opacity="0.3"/>
<path d="M812.941 156.502L820.521 155.796L814.662 133.954L812.941 156.502Z" stroke="#00BFFF" stroke-opacity="0.4"/>
</g>
<g id="Polygon 20_2">
<path d="M808.177 183.676L811.336 157.734L802.55 158.156L808.177 183.676Z" fill="#D9D9D9" fill-opacity="0.3"/>
<path d="M810.769 158.262L803.165 158.627L808.035 180.71L810.769 158.262Z" stroke="#00BFFF" stroke-opacity="0.4"/>
</g>
<g id="Polygon 8_2">
<path d="M810.872 130.866L806.474 156.625H815.27L810.872 130.866Z" fill="#D9D9D9" fill-opacity="0.3"/>
<path d="M807.066 156.125H814.678L810.873 133.834L807.066 156.125Z" stroke="#00BFFF" stroke-opacity="0.4"/>
</g>
<g id="Polygon 12_2">
<path d="M815.864 180.578L822.109 155.202L813.336 154.568L815.864 180.578Z" fill="#D9D9D9" fill-opacity="0.3"/>
<path d="M821.483 155.659L813.89 155.109L816.078 177.617L821.483 155.659Z" stroke="#00BFFF" stroke-opacity="0.4"/>
</g>
</g>
</g>
<g id="[&#230;&#139;&#161;&#229;&#188;&#181;&#232;&#161;&#151;]&#227;&#130;&#168;&#227;&#131;&#179;&#227;&#131;&#148;&#227;&#131;&#172;&#227;&#130;&#162;&#227;&#131;&#160;&#228;&#184;&#173;&#229;&#164;&#174;">
<g id="Group 5_3">
<path id="Polygon 22_3" d="M709.483 950.071L697.571 952.281L694.629 957.248L702.873 961.232H716.094L724.337 957.248L721.395 952.281L709.483 950.071Z" fill="#F0FEFF" fill-opacity="0.4"/>
<path id="Polygon 23_3" d="M709.513 946.078L697.394 948.322L694.401 953.363L702.787 957.407H716.238L724.624 953.363L721.631 948.322L709.513 946.078Z" fill="#F0FEFF" fill-opacity="0.4"/>
</g>
<g id="Group 2_3">
<g id="Polygon 1_3">
<path d="M708.988 889L704.589 912.999H713.386L708.988 889Z" fill="#D9D9D9" fill-opacity="0.3"/>
<path d="M705.189 912.499H712.786L708.988 891.772L705.189 912.499Z" stroke="#00BFFF" stroke-opacity="0.4"/>
</g>
<g id="Polygon 11_3">
<path d="M706.287 952.996L710.685 927.236L701.889 927.236L706.287 952.996Z" fill="#D9D9D9" fill-opacity="0.3"/>
<path d="M710.093 927.736L702.481 927.736L706.286 950.027L710.093 927.736Z" stroke="#00BFFF" stroke-opacity="0.4"/>
</g>
<g id="Polygon 2_3">
<path d="M707.196 895.74L700.918 921.107L709.69 921.753L707.196 895.74Z" fill="#D9D9D9" fill-opacity="0.3"/>
<path d="M701.545 920.652L709.136 921.211L706.978 898.7L701.545 920.652Z" stroke="#00BFFF" stroke-opacity="0.4"/>
</g>
<g id="Polygon 6_3">
<path d="M708.117 891.362L700.306 922.281L708.225 923.252L708.117 891.362Z" fill="#D9D9D9" fill-opacity="0.3"/>
<path d="M700.93 921.854L707.723 922.687L707.63 895.329L700.93 921.854Z" stroke="#00BFFF" stroke-opacity="0.4"/>
</g>
<g id="Polygon 13_3">
<path d="M710.279 953.466L714.677 927.706L705.881 927.706L710.279 953.466Z" fill="#D9D9D9" fill-opacity="0.3"/>
<path d="M714.085 928.206L706.473 928.206L710.279 950.497L714.085 928.206Z" stroke="#00BFFF" stroke-opacity="0.4"/>
</g>
<g id="Polygon 5_3">
<path d="M708.611 890.425L703.108 915.972L711.897 916.35L708.611 890.425Z" fill="#D9D9D9" fill-opacity="0.3"/>
<path d="M703.721 915.498L711.327 915.825L708.484 893.391L703.721 915.498Z" stroke="#00BFFF" stroke-opacity="0.4"/>
</g>
<g id="Polygon 14_3">
<path d="M713.94 952.967L716.75 920.137L711.713 920.092L713.94 952.967Z" fill="#D9D9D9" fill-opacity="0.3"/>
<path d="M716.206 920.632L712.248 920.597L713.998 946.422L716.206 920.632Z" stroke="#00BFFF" stroke-opacity="0.4"/>
</g>
<g id="Polygon 15_3">
<path d="M707.481 951.069L718.493 927.37L710.005 925.058L707.481 951.069Z" fill="#D9D9D9" fill-opacity="0.3"/>
<path d="M717.79 927.697L710.445 925.697L708.26 948.204L717.79 927.697Z" stroke="#00BFFF" stroke-opacity="0.4"/>
</g>
<g id="Polygon 3_3">
<path d="M710.651 894.465L706.841 920.318L715.635 920.118L710.651 894.465Z" fill="#D9D9D9" fill-opacity="0.3"/>
<path d="M707.422 919.805L715.032 919.631L710.719 897.433L707.422 919.805Z" stroke="#00BFFF" stroke-opacity="0.4"/>
</g>
<g id="Polygon 16_3">
<path d="M707.996 950.649L709.903 929.257L702.949 929.774L707.996 950.649Z" fill="#D9D9D9" fill-opacity="0.3"/>
<path d="M709.352 929.799L703.573 930.229L707.768 947.58L709.352 929.799Z" stroke="#00BFFF" stroke-opacity="0.4"/>
</g>
<g id="Polygon 7_3">
<path d="M713.45 936.199L717.568 910.393L708.772 910.488L713.45 936.199Z" fill="#D9D9D9" fill-opacity="0.3"/>
<path d="M716.981 910.899L709.369 910.982L713.417 933.23L716.981 910.899Z" stroke="#00BFFF" stroke-opacity="0.4"/>
</g>
<g id="Polygon 21_3">
<path d="M713.085 933.85L717.211 907.78L708.394 907.876L713.085 933.85Z" fill="#D9D9D9" fill-opacity="0.3"/>
<path d="M716.625 908.286L708.99 908.369L713.052 930.856L716.625 908.286Z" stroke="#00BFFF" stroke-opacity="0.4"/>
</g>
<g id="Polygon 17_3">
<path d="M705.171 950.941L709.569 925.181L700.773 925.181L705.171 950.941Z" fill="#D9D9D9" fill-opacity="0.3"/>
<path d="M708.977 925.682L701.365 925.682L705.171 947.973L708.977 925.682Z" stroke="#00BFFF" stroke-opacity="0.4"/>
</g>
<g id="Polygon 10_3">
<path d="M707.813 900.977L703.415 926.737H712.212L707.813 900.977Z" fill="#D9D9D9" fill-opacity="0.3"/>
<path d="M704.007 926.237H711.619L707.814 903.946L704.007 926.237Z" stroke="#00BFFF" stroke-opacity="0.4"/>
</g>
<g id="Polygon 18_3">
<path d="M708.459 946.655L712.857 920.895L704.061 920.895L708.459 946.655Z" fill="#D9D9D9" fill-opacity="0.3"/>
<path d="M712.265 921.396L704.653 921.396L708.459 943.687L712.265 921.396Z" stroke="#00BFFF" stroke-opacity="0.4"/>
</g>
<g id="Polygon 9_3">
<path d="M704.762 900.046L699.728 925.689L708.522 925.907L704.762 900.046Z" fill="#D9D9D9" fill-opacity="0.3"/>
<path d="M700.332 925.204L707.942 925.392L704.689 903.014L700.332 925.204Z" stroke="#00BFFF" stroke-opacity="0.4"/>
</g>
<g id="Polygon 19_3">
<path d="M710.364 958.653L708.974 930.511L700.364 932.312L710.364 958.653Z" fill="#D9D9D9" fill-opacity="0.3"/>
<path d="M708.504 931.121L701.039 932.682L709.709 955.52L708.504 931.121Z" stroke="#00BFFF" stroke-opacity="0.4"/>
</g>
<g id="Polygon 4_3">
<path d="M711.385 897.998L709.398 924.055L718.156 923.239L711.385 897.998Z" fill="#D9D9D9" fill-opacity="0.3"/>
<path d="M709.941 923.502L717.521 922.796L711.661 900.954L709.941 923.502Z" stroke="#00BFFF" stroke-opacity="0.4"/>
</g>
<g id="Polygon 20_3">
<path d="M705.177 950.676L708.336 924.734L699.549 925.156L705.177 950.676Z" fill="#D9D9D9" fill-opacity="0.3"/>
<path d="M707.768 925.262L700.165 925.627L705.034 947.71L707.768 925.262Z" stroke="#00BFFF" stroke-opacity="0.4"/>
</g>
<g id="Polygon 8_3">
<path d="M707.872 897.866L703.474 923.625H712.27L707.872 897.866Z" fill="#D9D9D9" fill-opacity="0.3"/>
<path d="M704.066 923.125H711.678L707.872 900.834L704.066 923.125Z" stroke="#00BFFF" stroke-opacity="0.4"/>
</g>
<g id="Polygon 12_3">
<path d="M712.864 947.578L719.109 922.202L710.336 921.568L712.864 947.578Z" fill="#D9D9D9" fill-opacity="0.3"/>
<path d="M718.482 922.659L710.89 922.11L713.078 944.617L718.482 922.659Z" stroke="#00BFFF" stroke-opacity="0.4"/>
</g>
</g>
</g>
<g id="[&#230;&#139;&#161;&#229;&#188;&#181;&#232;&#161;&#151;]&#230;&#150;&#167;&#230;&#167;&#141;&#233;&#128;&#154;&#227;&#130;&#138;">
<g id="Group 5_4">
<path id="Polygon 22_4" d="M734.483 508.071L722.571 510.281L719.629 515.248L727.873 519.232H741.094L749.337 515.248L746.395 510.281L734.483 508.071Z" fill="#F0FEFF" fill-opacity="0.4"/>
<path id="Polygon 23_4" d="M734.513 504.078L722.394 506.322L719.401 511.363L727.787 515.407H741.238L749.624 511.363L746.631 506.322L734.513 504.078Z" fill="#F0FEFF" fill-opacity="0.4"/>
</g>
<g id="Group 2_4">
<g id="Polygon 1_4">
<path d="M733.988 447L729.589 470.999H738.386L733.988 447Z" fill="#D9D9D9" fill-opacity="0.3"/>
<path d="M730.189 470.499H737.786L733.988 449.772L730.189 470.499Z" stroke="#00BFFF" stroke-opacity="0.4"/>
</g>
<g id="Polygon 11_4">
<path d="M731.287 510.996L735.685 485.236L726.889 485.236L731.287 510.996Z" fill="#D9D9D9" fill-opacity="0.3"/>
<path d="M735.093 485.736L727.481 485.736L731.286 508.027L735.093 485.736Z" stroke="#00BFFF" stroke-opacity="0.4"/>
</g>
<g id="Polygon 2_4">
<path d="M732.196 453.74L725.918 479.107L734.69 479.753L732.196 453.74Z" fill="#D9D9D9" fill-opacity="0.3"/>
<path d="M726.545 478.652L734.136 479.211L731.978 456.7L726.545 478.652Z" stroke="#00BFFF" stroke-opacity="0.4"/>
</g>
<g id="Polygon 6_4">
<path d="M733.117 449.362L725.306 480.281L733.225 481.252L733.117 449.362Z" fill="#D9D9D9" fill-opacity="0.3"/>
<path d="M725.93 479.854L732.723 480.687L732.63 453.329L725.93 479.854Z" stroke="#00BFFF" stroke-opacity="0.4"/>
</g>
<g id="Polygon 13_4">
<path d="M735.279 511.466L739.677 485.706L730.881 485.706L735.279 511.466Z" fill="#D9D9D9" fill-opacity="0.3"/>
<path d="M739.085 486.206L731.473 486.206L735.279 508.497L739.085 486.206Z" stroke="#00BFFF" stroke-opacity="0.4"/>
</g>
<g id="Polygon 5_4">
<path d="M733.611 448.425L728.108 473.972L736.897 474.35L733.611 448.425Z" fill="#D9D9D9" fill-opacity="0.3"/>
<path d="M728.721 473.498L736.327 473.825L733.484 451.391L728.721 473.498Z" stroke="#00BFFF" stroke-opacity="0.4"/>
</g>
<g id="Polygon 14_4">
<path d="M738.94 510.967L741.75 478.137L736.713 478.092L738.94 510.967Z" fill="#D9D9D9" fill-opacity="0.3"/>
<path d="M741.206 478.632L737.248 478.597L738.998 504.422L741.206 478.632Z" stroke="#00BFFF" stroke-opacity="0.4"/>
</g>
<g id="Polygon 15_4">
<path d="M732.481 509.069L743.493 485.37L735.005 483.058L732.481 509.069Z" fill="#D9D9D9" fill-opacity="0.3"/>
<path d="M742.79 485.697L735.445 483.697L733.26 506.204L742.79 485.697Z" stroke="#00BFFF" stroke-opacity="0.4"/>
</g>
<g id="Polygon 3_4">
<path d="M735.651 452.465L731.841 478.318L740.635 478.118L735.651 452.465Z" fill="#D9D9D9" fill-opacity="0.3"/>
<path d="M732.422 477.805L740.032 477.631L735.719 455.433L732.422 477.805Z" stroke="#00BFFF" stroke-opacity="0.4"/>
</g>
<g id="Polygon 16_4">
<path d="M732.996 508.649L734.903 487.257L727.949 487.774L732.996 508.649Z" fill="#D9D9D9" fill-opacity="0.3"/>
<path d="M734.352 487.799L728.573 488.229L732.768 505.58L734.352 487.799Z" stroke="#00BFFF" stroke-opacity="0.4"/>
</g>
<g id="Polygon 7_4">
<path d="M738.45 494.199L742.568 468.393L733.772 468.488L738.45 494.199Z" fill="#D9D9D9" fill-opacity="0.3"/>
<path d="M741.981 468.899L734.369 468.982L738.417 491.23L741.981 468.899Z" stroke="#00BFFF" stroke-opacity="0.4"/>
</g>
<g id="Polygon 21_4">
<path d="M738.085 491.85L742.211 465.78L733.394 465.876L738.085 491.85Z" fill="#D9D9D9" fill-opacity="0.3"/>
<path d="M741.625 466.286L733.99 466.369L738.052 488.856L741.625 466.286Z" stroke="#00BFFF" stroke-opacity="0.4"/>
</g>
<g id="Polygon 17_4">
<path d="M730.171 508.941L734.569 483.181L725.773 483.181L730.171 508.941Z" fill="#D9D9D9" fill-opacity="0.3"/>
<path d="M733.977 483.682L726.365 483.682L730.171 505.973L733.977 483.682Z" stroke="#00BFFF" stroke-opacity="0.4"/>
</g>
<g id="Polygon 10_4">
<path d="M732.813 458.977L728.415 484.737H737.212L732.813 458.977Z" fill="#D9D9D9" fill-opacity="0.3"/>
<path d="M729.007 484.237H736.619L732.814 461.946L729.007 484.237Z" stroke="#00BFFF" stroke-opacity="0.4"/>
</g>
<g id="Polygon 18_4">
<path d="M733.459 504.655L737.857 478.895L729.061 478.895L733.459 504.655Z" fill="#D9D9D9" fill-opacity="0.3"/>
<path d="M737.265 479.396L729.653 479.396L733.459 501.687L737.265 479.396Z" stroke="#00BFFF" stroke-opacity="0.4"/>
</g>
<g id="Polygon 9_4">
<path d="M729.762 458.046L724.728 483.689L733.522 483.907L729.762 458.046Z" fill="#D9D9D9" fill-opacity="0.3"/>
<path d="M725.332 483.204L732.942 483.392L729.689 461.014L725.332 483.204Z" stroke="#00BFFF" stroke-opacity="0.4"/>
</g>
<g id="Polygon 19_4">
<path d="M735.364 516.653L733.974 488.511L725.364 490.312L735.364 516.653Z" fill="#D9D9D9" fill-opacity="0.3"/>
<path d="M733.504 489.121L726.039 490.682L734.709 513.52L733.504 489.121Z" stroke="#00BFFF" stroke-opacity="0.4"/>
</g>
<g id="Polygon 4_4">
<path d="M736.385 455.998L734.398 482.055L743.156 481.239L736.385 455.998Z" fill="#D9D9D9" fill-opacity="0.3"/>
<path d="M734.941 481.502L742.521 480.796L736.661 458.954L734.941 481.502Z" stroke="#00BFFF" stroke-opacity="0.4"/>
</g>
<g id="Polygon 20_4">
<path d="M730.177 508.676L733.336 482.734L724.549 483.156L730.177 508.676Z" fill="#D9D9D9" fill-opacity="0.3"/>
<path d="M732.768 483.262L725.165 483.627L730.034 505.71L732.768 483.262Z" stroke="#00BFFF" stroke-opacity="0.4"/>
</g>
<g id="Polygon 8_4">
<path d="M732.872 455.866L728.474 481.625H737.27L732.872 455.866Z" fill="#D9D9D9" fill-opacity="0.3"/>
<path d="M729.066 481.125H736.678L732.872 458.834L729.066 481.125Z" stroke="#00BFFF" stroke-opacity="0.4"/>
</g>
<g id="Polygon 12_4">
<path d="M737.864 505.578L744.109 480.202L735.336 479.568L737.864 505.578Z" fill="#D9D9D9" fill-opacity="0.3"/>
<path d="M743.482 480.659L735.89 480.11L738.078 502.617L743.482 480.659Z" stroke="#00BFFF" stroke-opacity="0.4"/>
</g>
</g>
</g>
<g id="[&#230;&#139;&#161;&#229;&#188;&#181;&#232;&#161;&#151;]&#227;&#130;&#168;&#227;&#131;&#179;&#227;&#131;&#148;&#227;&#131;&#172;&#227;&#130;&#162;&#227;&#131;&#160;&#229;&#141;&#151;&#230;&#157;&#177;">
<g id="Group 5_5">
<path id="Polygon 22_5" d="M1146.48 1127.07L1134.57 1129.28L1131.63 1134.25L1139.87 1138.23H1153.09L1161.34 1134.25L1158.4 1129.28L1146.48 1127.07Z" fill="#F0FEFF" fill-opacity="0.4"/>
<path id="Polygon 23_5" d="M1146.51 1123.08L1134.39 1125.32L1131.4 1130.36L1139.79 1134.41H1153.24L1161.62 1130.36L1158.63 1125.32L1146.51 1123.08Z" fill="#F0FEFF" fill-opacity="0.4"/>
</g>
<g id="Group 2_5">
<g id="Polygon 1_5">
<path d="M1145.99 1066L1141.59 1090H1150.39L1145.99 1066Z" fill="#D9D9D9" fill-opacity="0.3"/>
<path d="M1142.19 1089.5H1149.79L1145.99 1068.77L1142.19 1089.5Z" stroke="#00BFFF" stroke-opacity="0.4"/>
</g>
<g id="Polygon 11_5">
<path d="M1143.29 1130L1147.69 1104.24L1138.89 1104.24L1143.29 1130Z" fill="#D9D9D9" fill-opacity="0.3"/>
<path d="M1147.09 1104.74L1139.48 1104.74L1143.29 1127.03L1147.09 1104.74Z" stroke="#00BFFF" stroke-opacity="0.4"/>
</g>
<g id="Polygon 2_5">
<path d="M1144.2 1072.74L1137.92 1098.11L1146.69 1098.75L1144.2 1072.74Z" fill="#D9D9D9" fill-opacity="0.3"/>
<path d="M1138.54 1097.65L1146.14 1098.21L1143.98 1075.7L1138.54 1097.65Z" stroke="#00BFFF" stroke-opacity="0.4"/>
</g>
<g id="Polygon 6_5">
<path d="M1145.12 1068.36L1137.31 1099.28L1145.23 1100.25L1145.12 1068.36Z" fill="#D9D9D9" fill-opacity="0.3"/>
<path d="M1137.93 1098.85L1144.72 1099.69L1144.63 1072.33L1137.93 1098.85Z" stroke="#00BFFF" stroke-opacity="0.4"/>
</g>
<g id="Polygon 13_5">
<path d="M1147.28 1130.47L1151.68 1104.71L1142.88 1104.71L1147.28 1130.47Z" fill="#D9D9D9" fill-opacity="0.3"/>
<path d="M1151.09 1105.21L1143.47 1105.21L1147.28 1127.5L1151.09 1105.21Z" stroke="#00BFFF" stroke-opacity="0.4"/>
</g>
<g id="Polygon 5_5">
<path d="M1145.61 1067.42L1140.11 1092.97L1148.9 1093.35L1145.61 1067.42Z" fill="#D9D9D9" fill-opacity="0.3"/>
<path d="M1140.72 1092.5L1148.33 1092.83L1145.48 1070.39L1140.72 1092.5Z" stroke="#00BFFF" stroke-opacity="0.4"/>
</g>
<g id="Polygon 14_5">
<path d="M1150.94 1129.97L1153.75 1097.14L1148.71 1097.09L1150.94 1129.97Z" fill="#D9D9D9" fill-opacity="0.3"/>
<path d="M1153.21 1097.63L1149.25 1097.6L1151 1123.42L1153.21 1097.63Z" stroke="#00BFFF" stroke-opacity="0.4"/>
</g>
<g id="Polygon 15_5">
<path d="M1144.48 1128.07L1155.49 1104.37L1147.01 1102.06L1144.48 1128.07Z" fill="#D9D9D9" fill-opacity="0.3"/>
<path d="M1154.79 1104.7L1147.45 1102.7L1145.26 1125.2L1154.79 1104.7Z" stroke="#00BFFF" stroke-opacity="0.4"/>
</g>
<g id="Polygon 3_5">
<path d="M1147.65 1071.46L1143.84 1097.32L1152.64 1097.12L1147.65 1071.46Z" fill="#D9D9D9" fill-opacity="0.3"/>
<path d="M1144.42 1096.8L1152.03 1096.63L1147.72 1074.43L1144.42 1096.8Z" stroke="#00BFFF" stroke-opacity="0.4"/>
</g>
<g id="Polygon 16_5">
<path d="M1145 1127.65L1146.9 1106.26L1139.95 1106.77L1145 1127.65Z" fill="#D9D9D9" fill-opacity="0.3"/>
<path d="M1146.35 1106.8L1140.57 1107.23L1144.77 1124.58L1146.35 1106.8Z" stroke="#00BFFF" stroke-opacity="0.4"/>
</g>
<g id="Polygon 7_5">
<path d="M1150.45 1113.2L1154.57 1087.39L1145.77 1087.49L1150.45 1113.2Z" fill="#D9D9D9" fill-opacity="0.3"/>
<path d="M1153.98 1087.9L1146.37 1087.98L1150.42 1110.23L1153.98 1087.9Z" stroke="#00BFFF" stroke-opacity="0.4"/>
</g>
<g id="Polygon 21_5">
<path d="M1150.09 1110.85L1154.21 1084.78L1145.39 1084.88L1150.09 1110.85Z" fill="#D9D9D9" fill-opacity="0.3"/>
<path d="M1153.62 1085.29L1145.99 1085.37L1150.05 1107.86L1153.62 1085.29Z" stroke="#00BFFF" stroke-opacity="0.4"/>
</g>
<g id="Polygon 17_5">
<path d="M1142.17 1127.94L1146.57 1102.18L1137.77 1102.18L1142.17 1127.94Z" fill="#D9D9D9" fill-opacity="0.3"/>
<path d="M1145.98 1102.68L1138.37 1102.68L1142.17 1124.97L1145.98 1102.68Z" stroke="#00BFFF" stroke-opacity="0.4"/>
</g>
<g id="Polygon 10_5">
<path d="M1144.81 1077.98L1140.42 1103.74H1149.21L1144.81 1077.98Z" fill="#D9D9D9" fill-opacity="0.3"/>
<path d="M1141.01 1103.24H1148.62L1144.81 1080.95L1141.01 1103.24Z" stroke="#00BFFF" stroke-opacity="0.4"/>
</g>
<g id="Polygon 18_5">
<path d="M1145.46 1123.66L1149.86 1097.9L1141.06 1097.9L1145.46 1123.66Z" fill="#D9D9D9" fill-opacity="0.3"/>
<path d="M1149.27 1098.4L1141.65 1098.4L1145.46 1120.69L1149.27 1098.4Z" stroke="#00BFFF" stroke-opacity="0.4"/>
</g>
<g id="Polygon 9_5">
<path d="M1141.76 1077.05L1136.73 1102.69L1145.52 1102.91L1141.76 1077.05Z" fill="#D9D9D9" fill-opacity="0.3"/>
<path d="M1137.33 1102.2L1144.94 1102.39L1141.69 1080.01L1137.33 1102.2Z" stroke="#00BFFF" stroke-opacity="0.4"/>
</g>
<g id="Polygon 19_5">
<path d="M1147.36 1135.65L1145.97 1107.51L1137.36 1109.31L1147.36 1135.65Z" fill="#D9D9D9" fill-opacity="0.3"/>
<path d="M1145.5 1108.12L1138.04 1109.68L1146.71 1132.52L1145.5 1108.12Z" stroke="#00BFFF" stroke-opacity="0.4"/>
</g>
<g id="Polygon 4_5">
<path d="M1148.39 1075L1146.4 1101.06L1155.16 1100.24L1148.39 1075Z" fill="#D9D9D9" fill-opacity="0.3"/>
<path d="M1146.94 1100.5L1154.52 1099.8L1148.66 1077.95L1146.94 1100.5Z" stroke="#00BFFF" stroke-opacity="0.4"/>
</g>
<g id="Polygon 20_5">
<path d="M1142.18 1127.68L1145.34 1101.73L1136.55 1102.16L1142.18 1127.68Z" fill="#D9D9D9" fill-opacity="0.3"/>
<path d="M1144.77 1102.26L1137.16 1102.63L1142.03 1124.71L1144.77 1102.26Z" stroke="#00BFFF" stroke-opacity="0.4"/>
</g>
<g id="Polygon 8_5">
<path d="M1144.87 1074.87L1140.47 1100.63H1149.27L1144.87 1074.87Z" fill="#D9D9D9" fill-opacity="0.3"/>
<path d="M1141.07 1100.13H1148.68L1144.87 1077.83L1141.07 1100.13Z" stroke="#00BFFF" stroke-opacity="0.4"/>
</g>
<g id="Polygon 12_5">
<path d="M1149.86 1124.58L1156.11 1099.2L1147.34 1098.57L1149.86 1124.58Z" fill="#D9D9D9" fill-opacity="0.3"/>
<path d="M1155.48 1099.66L1147.89 1099.11L1150.08 1121.62L1155.48 1099.66Z" stroke="#00BFFF" stroke-opacity="0.4"/>
</g>
</g>
</g>
<g id="[&#230;&#139;&#161;&#229;&#188;&#181;&#232;&#161;&#151;]&#227;&#130;&#168;&#227;&#131;&#179;&#227;&#131;&#148;&#227;&#131;&#172;&#227;&#130;&#162;&#227;&#131;&#160;&#229;&#141;&#151;">
<g id="Group 5_6">
<path id="Polygon 22_6" d="M781.483 1434.07L769.572 1436.28L766.63 1441.25L774.873 1445.23H788.094L796.337 1441.25L793.395 1436.28L781.483 1434.07Z" fill="#F0FEFF" fill-opacity="0.4"/>
<path id="Polygon 23_6" d="M781.513 1430.08L769.394 1432.32L766.401 1437.36L774.788 1441.41H788.238L796.624 1437.36L793.631 1432.32L781.513 1430.08Z" fill="#F0FEFF" fill-opacity="0.4"/>
</g>
<g id="Group 2_6">
<g id="Polygon 1_6">
<path d="M780.988 1373L776.59 1397H785.386L780.988 1373Z" fill="#D9D9D9" fill-opacity="0.3"/>
<path d="M777.189 1396.5H784.786L780.988 1375.77L777.189 1396.5Z" stroke="#00BFFF" stroke-opacity="0.4"/>
</g>
<g id="Polygon 11_6">
<path d="M778.287 1437L782.685 1411.24L773.889 1411.24L778.287 1437Z" fill="#D9D9D9" fill-opacity="0.3"/>
<path d="M782.093 1411.74L774.481 1411.74L778.286 1434.03L782.093 1411.74Z" stroke="#00BFFF" stroke-opacity="0.4"/>
</g>
<g id="Polygon 2_6">
<path d="M779.196 1379.74L772.918 1405.11L781.69 1405.75L779.196 1379.74Z" fill="#D9D9D9" fill-opacity="0.3"/>
<path d="M773.545 1404.65L781.137 1405.21L778.979 1382.7L773.545 1404.65Z" stroke="#00BFFF" stroke-opacity="0.4"/>
</g>
<g id="Polygon 6_6">
<path d="M780.117 1375.36L772.306 1406.28L780.225 1407.25L780.117 1375.36Z" fill="#D9D9D9" fill-opacity="0.3"/>
<path d="M772.93 1405.85L779.723 1406.69L779.631 1379.33L772.93 1405.85Z" stroke="#00BFFF" stroke-opacity="0.4"/>
</g>
<g id="Polygon 13_6">
<path d="M782.279 1437.47L786.678 1411.71L777.881 1411.71L782.279 1437.47Z" fill="#D9D9D9" fill-opacity="0.3"/>
<path d="M786.086 1412.21L778.473 1412.21L782.279 1434.5L786.086 1412.21Z" stroke="#00BFFF" stroke-opacity="0.4"/>
</g>
<g id="Polygon 5_6">
<path d="M780.611 1374.42L775.109 1399.97L783.897 1400.35L780.611 1374.42Z" fill="#D9D9D9" fill-opacity="0.3"/>
<path d="M775.722 1399.5L783.327 1399.83L780.484 1377.39L775.722 1399.5Z" stroke="#00BFFF" stroke-opacity="0.4"/>
</g>
<g id="Polygon 14_6">
<path d="M785.94 1436.97L788.75 1404.14L783.713 1404.09L785.94 1436.97Z" fill="#D9D9D9" fill-opacity="0.3"/>
<path d="M788.207 1404.63L784.248 1404.6L785.998 1430.42L788.207 1404.63Z" stroke="#00BFFF" stroke-opacity="0.4"/>
</g>
<g id="Polygon 15_6">
<path d="M779.481 1435.07L790.493 1411.37L782.006 1409.06L779.481 1435.07Z" fill="#D9D9D9" fill-opacity="0.3"/>
<path d="M789.79 1411.7L782.445 1409.7L780.261 1432.2L789.79 1411.7Z" stroke="#00BFFF" stroke-opacity="0.4"/>
</g>
<g id="Polygon 3_6">
<path d="M782.651 1378.46L778.841 1404.32L787.635 1404.12L782.651 1378.46Z" fill="#D9D9D9" fill-opacity="0.3"/>
<path d="M779.422 1403.8L787.032 1403.63L782.719 1381.43L779.422 1403.8Z" stroke="#00BFFF" stroke-opacity="0.4"/>
</g>
<g id="Polygon 16_6">
<path d="M779.996 1434.65L781.903 1413.26L774.949 1413.77L779.996 1434.65Z" fill="#D9D9D9" fill-opacity="0.3"/>
<path d="M781.353 1413.8L775.574 1414.23L779.768 1431.58L781.353 1413.8Z" stroke="#00BFFF" stroke-opacity="0.4"/>
</g>
<g id="Polygon 7_6">
<path d="M785.45 1420.2L789.568 1394.39L780.772 1394.49L785.45 1420.2Z" fill="#D9D9D9" fill-opacity="0.3"/>
<path d="M788.982 1394.9L781.37 1394.98L785.417 1417.23L788.982 1394.9Z" stroke="#00BFFF" stroke-opacity="0.4"/>
</g>
<g id="Polygon 21_6">
<path d="M785.085 1417.85L789.211 1391.78L780.394 1391.88L785.085 1417.85Z" fill="#D9D9D9" fill-opacity="0.3"/>
<path d="M788.625 1392.29L780.991 1392.37L785.053 1414.86L788.625 1392.29Z" stroke="#00BFFF" stroke-opacity="0.4"/>
</g>
<g id="Polygon 17_6">
<path d="M777.171 1434.94L781.57 1409.18L772.773 1409.18L777.171 1434.94Z" fill="#D9D9D9" fill-opacity="0.3"/>
<path d="M780.978 1409.68L773.365 1409.68L777.171 1431.97L780.978 1409.68Z" stroke="#00BFFF" stroke-opacity="0.4"/>
</g>
<g id="Polygon 10_6">
<path d="M779.814 1384.98L775.415 1410.74H784.212L779.814 1384.98Z" fill="#D9D9D9" fill-opacity="0.3"/>
<path d="M776.007 1410.24H783.62L779.814 1387.95L776.007 1410.24Z" stroke="#00BFFF" stroke-opacity="0.4"/>
</g>
<g id="Polygon 18_6">
<path d="M780.459 1430.66L784.858 1404.9L776.061 1404.9L780.459 1430.66Z" fill="#D9D9D9" fill-opacity="0.3"/>
<path d="M784.266 1405.4L776.653 1405.4L780.459 1427.69L784.266 1405.4Z" stroke="#00BFFF" stroke-opacity="0.4"/>
</g>
<g id="Polygon 9_6">
<path d="M776.762 1384.05L771.728 1409.69L780.522 1409.91L776.762 1384.05Z" fill="#D9D9D9" fill-opacity="0.3"/>
<path d="M772.333 1409.2L779.942 1409.39L776.689 1387.01L772.333 1409.2Z" stroke="#00BFFF" stroke-opacity="0.4"/>
</g>
<g id="Polygon 19_6">
<path d="M782.365 1442.65L780.975 1414.51L772.364 1416.31L782.365 1442.65Z" fill="#D9D9D9" fill-opacity="0.3"/>
<path d="M780.504 1415.12L773.04 1416.68L781.709 1439.52L780.504 1415.12Z" stroke="#00BFFF" stroke-opacity="0.4"/>
</g>
<g id="Polygon 4_6">
<path d="M783.386 1382L781.398 1408.06L790.157 1407.24L783.386 1382Z" fill="#D9D9D9" fill-opacity="0.3"/>
<path d="M781.941 1407.5L789.521 1406.8L783.662 1384.95L781.941 1407.5Z" stroke="#00BFFF" stroke-opacity="0.4"/>
</g>
<g id="Polygon 20_6">
<path d="M777.177 1434.68L780.336 1408.73L771.55 1409.16L777.177 1434.68Z" fill="#D9D9D9" fill-opacity="0.3"/>
<path d="M779.769 1409.26L772.165 1409.63L777.035 1431.71L779.769 1409.26Z" stroke="#00BFFF" stroke-opacity="0.4"/>
</g>
<g id="Polygon 8_6">
<path d="M779.872 1381.87L775.474 1407.63H784.27L779.872 1381.87Z" fill="#D9D9D9" fill-opacity="0.3"/>
<path d="M776.066 1407.13H783.678L779.873 1384.83L776.066 1407.13Z" stroke="#00BFFF" stroke-opacity="0.4"/>
</g>
<g id="Polygon 12_6">
<path d="M784.864 1431.58L791.109 1406.2L782.336 1405.57L784.864 1431.58Z" fill="#D9D9D9" fill-opacity="0.3"/>
<path d="M790.483 1406.66L782.89 1406.11L785.078 1428.62L790.483 1406.66Z" stroke="#00BFFF" stroke-opacity="0.4"/>
</g>
</g>
</g>
<g id="[&#230;&#139;&#161;&#229;&#188;&#181;&#232;&#161;&#151;]&#227;&#130;&#168;&#227;&#131;&#179;&#227;&#131;&#148;&#227;&#131;&#172;&#227;&#130;&#162;&#227;&#131;&#160;&#229;&#140;&#151;&#232;&#165;&#191;">
<g id="Group 5_7">
<path id="Polygon 22_7" d="M454.483 429.07L442.572 431.281L439.63 436.248L447.873 440.231H461.094L469.337 436.248L466.395 431.281L454.483 429.07Z" fill="#F0FEFF" fill-opacity="0.4"/>
<path id="Polygon 23_7" d="M454.513 425.078L442.394 427.322L439.401 432.363L447.787 436.406H461.238L469.624 432.363L466.631 427.322L454.513 425.078Z" fill="#F0FEFF" fill-opacity="0.4"/>
</g>
<g id="Group 2_7">
<g id="Polygon 1_7">
<path d="M453.988 368L449.589 391.999H458.386L453.988 368Z" fill="#D9D9D9" fill-opacity="0.3"/>
<path d="M450.189 391.499H457.786L453.988 370.772L450.189 391.499Z" stroke="#00BFFF" stroke-opacity="0.4"/>
</g>
<g id="Polygon 11_7">
<path d="M451.287 431.996L455.685 406.236L446.889 406.236L451.287 431.996Z" fill="#D9D9D9" fill-opacity="0.3"/>
<path d="M455.093 406.736L447.481 406.736L451.286 429.027L455.093 406.736Z" stroke="#00BFFF" stroke-opacity="0.4"/>
</g>
<g id="Polygon 2_7">
<path d="M452.196 374.74L445.918 400.107L454.69 400.753L452.196 374.74Z" fill="#D9D9D9" fill-opacity="0.3"/>
<path d="M446.545 399.652L454.137 400.211L451.978 377.7L446.545 399.652Z" stroke="#00BFFF" stroke-opacity="0.4"/>
</g>
<g id="Polygon 6_7">
<path d="M453.117 370.362L445.306 401.281L453.225 402.252L453.117 370.362Z" fill="#D9D9D9" fill-opacity="0.3"/>
<path d="M445.93 400.854L452.723 401.687L452.63 374.329L445.93 400.854Z" stroke="#00BFFF" stroke-opacity="0.4"/>
</g>
<g id="Polygon 13_7">
<path d="M455.279 432.466L459.677 406.706L450.881 406.706L455.279 432.466Z" fill="#D9D9D9" fill-opacity="0.3"/>
<path d="M459.085 407.206L451.473 407.206L455.279 429.497L459.085 407.206Z" stroke="#00BFFF" stroke-opacity="0.4"/>
</g>
<g id="Polygon 5_7">
<path d="M453.611 369.425L448.109 394.972L456.897 395.35L453.611 369.425Z" fill="#D9D9D9" fill-opacity="0.3"/>
<path d="M448.722 394.498L456.327 394.825L453.484 372.391L448.722 394.498Z" stroke="#00BFFF" stroke-opacity="0.4"/>
</g>
<g id="Polygon 14_7">
<path d="M458.94 431.967L461.75 399.137L456.713 399.092L458.94 431.967Z" fill="#D9D9D9" fill-opacity="0.3"/>
<path d="M461.206 399.632L457.248 399.597L458.998 425.422L461.206 399.632Z" stroke="#00BFFF" stroke-opacity="0.4"/>
</g>
<g id="Polygon 15_7">
<path d="M452.481 430.069L463.493 406.37L455.005 404.058L452.481 430.069Z" fill="#D9D9D9" fill-opacity="0.3"/>
<path d="M462.79 406.697L455.445 404.697L453.261 427.204L462.79 406.697Z" stroke="#00BFFF" stroke-opacity="0.4"/>
</g>
<g id="Polygon 3_7">
<path d="M455.651 373.465L451.841 399.318L460.635 399.118L455.651 373.465Z" fill="#D9D9D9" fill-opacity="0.3"/>
<path d="M452.422 398.805L460.032 398.631L455.719 376.433L452.422 398.805Z" stroke="#00BFFF" stroke-opacity="0.4"/>
</g>
<g id="Polygon 16_7">
<path d="M452.996 429.649L454.903 408.257L447.949 408.774L452.996 429.649Z" fill="#D9D9D9" fill-opacity="0.3"/>
<path d="M454.353 408.799L448.574 409.229L452.768 426.58L454.353 408.799Z" stroke="#00BFFF" stroke-opacity="0.4"/>
</g>
<g id="Polygon 7_7">
<path d="M458.45 415.199L462.568 389.393L453.772 389.488L458.45 415.199Z" fill="#D9D9D9" fill-opacity="0.3"/>
<path d="M461.981 389.899L454.37 389.982L458.417 412.23L461.981 389.899Z" stroke="#00BFFF" stroke-opacity="0.4"/>
</g>
<g id="Polygon 21_7">
<path d="M458.085 412.85L462.211 386.78L453.394 386.876L458.085 412.85Z" fill="#D9D9D9" fill-opacity="0.3"/>
<path d="M461.625 387.286L453.99 387.369L458.053 409.856L461.625 387.286Z" stroke="#00BFFF" stroke-opacity="0.4"/>
</g>
<g id="Polygon 17_7">
<path d="M450.171 429.941L454.57 404.181L445.773 404.181L450.171 429.941Z" fill="#D9D9D9" fill-opacity="0.3"/>
<path d="M453.978 404.682L446.365 404.682L450.171 426.973L453.978 404.682Z" stroke="#00BFFF" stroke-opacity="0.4"/>
</g>
<g id="Polygon 10_7">
<path d="M452.813 379.977L448.415 405.737H457.212L452.813 379.977Z" fill="#D9D9D9" fill-opacity="0.3"/>
<path d="M449.007 405.237H456.62L452.814 382.946L449.007 405.237Z" stroke="#00BFFF" stroke-opacity="0.4"/>
</g>
<g id="Polygon 18_7">
<path d="M453.459 425.655L457.857 399.895L449.061 399.895L453.459 425.655Z" fill="#D9D9D9" fill-opacity="0.3"/>
<path d="M457.265 400.396L449.653 400.396L453.459 422.687L457.265 400.396Z" stroke="#00BFFF" stroke-opacity="0.4"/>
</g>
<g id="Polygon 9_7">
<path d="M449.762 379.046L444.728 404.689L453.522 404.907L449.762 379.046Z" fill="#D9D9D9" fill-opacity="0.3"/>
<path d="M445.332 404.204L452.942 404.392L449.689 382.014L445.332 404.204Z" stroke="#00BFFF" stroke-opacity="0.4"/>
</g>
<g id="Polygon 19_7">
<path d="M455.365 437.653L453.974 409.511L445.364 411.312L455.365 437.653Z" fill="#D9D9D9" fill-opacity="0.3"/>
<path d="M453.504 410.121L446.039 411.682L454.709 434.52L453.504 410.121Z" stroke="#00BFFF" stroke-opacity="0.4"/>
</g>
<g id="Polygon 4_7">
<path d="M456.385 376.998L454.398 403.055L463.157 402.239L456.385 376.998Z" fill="#D9D9D9" fill-opacity="0.3"/>
<path d="M454.941 402.502L462.521 401.796L456.662 379.954L454.941 402.502Z" stroke="#00BFFF" stroke-opacity="0.4"/>
</g>
<g id="Polygon 20_7">
<path d="M450.177 429.675L453.336 403.734L444.549 404.156L450.177 429.675Z" fill="#D9D9D9" fill-opacity="0.3"/>
<path d="M452.768 404.262L445.165 404.627L450.034 426.71L452.768 404.262Z" stroke="#00BFFF" stroke-opacity="0.4"/>
</g>
<g id="Polygon 8_7">
<path d="M452.872 376.866L448.474 402.625H457.27L452.872 376.866Z" fill="#D9D9D9" fill-opacity="0.3"/>
<path d="M449.066 402.125H456.678L452.873 379.834L449.066 402.125Z" stroke="#00BFFF" stroke-opacity="0.4"/>
</g>
<g id="Polygon 12_7">
<path d="M457.864 426.578L464.109 401.202L455.336 400.568L457.864 426.578Z" fill="#D9D9D9" fill-opacity="0.3"/>
<path d="M463.483 401.659L455.89 401.109L458.078 423.617L463.483 401.659Z" stroke="#00BFFF" stroke-opacity="0.4"/>
</g>
</g>
</g>
<g id="[&#230;&#139;&#161;&#229;&#188;&#181;&#232;&#161;&#151;]&#227;&#131;&#143;&#227;&#130;&#164;&#227;&#131;&#162;&#227;&#131;&#188;&#227;&#131;&#179;&#229;&#186;&#131;&#229;&#160;&#180;">
<g id="Group 5_8">
<path id="Polygon 22_8" d="M97.4833 881.07L85.5715 883.281L82.6295 888.248L90.8727 892.231H104.094L112.337 888.248L109.395 883.281L97.4833 881.07Z" fill="#F0FEFF" fill-opacity="0.4"/>
<path id="Polygon 23_8" d="M97.5127 877.078L85.3943 879.322L82.4013 884.363L90.7875 888.406H104.238L112.624 884.363L109.631 879.322L97.5127 877.078Z" fill="#F0FEFF" fill-opacity="0.4"/>
</g>
<g id="Group 2_8">
<g id="Polygon 1_8">
<path d="M96.9877 820L92.5895 843.998H101.386L96.9877 820Z" fill="#D9D9D9" fill-opacity="0.3"/>
<path d="M93.1893 843.499H100.786L96.9882 822.772L93.1893 843.499Z" stroke="#00BFFF" stroke-opacity="0.4"/>
</g>
<g id="Polygon 11_8">
<path d="M94.2869 883.996L98.685 858.236L89.8887 858.236L94.2869 883.996Z" fill="#D9D9D9" fill-opacity="0.3"/>
<path d="M98.093 858.736L90.4807 858.736L94.2864 881.027L98.093 858.736Z" stroke="#00BFFF" stroke-opacity="0.4"/>
</g>
<g id="Polygon 2_8">
<path d="M95.196 826.739L88.9176 852.107L97.6902 852.753L95.196 826.739Z" fill="#D9D9D9" fill-opacity="0.3"/>
<path d="M89.5447 851.651L97.1365 852.211L94.9784 829.7L89.5447 851.651Z" stroke="#00BFFF" stroke-opacity="0.4"/>
</g>
<g id="Polygon 6_8">
<path d="M96.1172 822.362L88.3062 853.281L96.2251 854.252L96.1172 822.362Z" fill="#D9D9D9" fill-opacity="0.3"/>
<path d="M88.9299 852.853L95.7227 853.687L95.6304 826.329L88.9299 852.853Z" stroke="#00BFFF" stroke-opacity="0.4"/>
</g>
<g id="Polygon 13_8">
<path d="M98.2793 884.466L102.677 858.706L93.8811 858.706L98.2793 884.466Z" fill="#D9D9D9" fill-opacity="0.3"/>
<path d="M102.085 859.206L94.4731 859.206L98.2788 881.497L102.085 859.206Z" stroke="#00BFFF" stroke-opacity="0.4"/>
</g>
<g id="Polygon 5_8">
<path d="M96.611 821.425L91.1086 846.972L99.8968 847.35L96.611 821.425Z" fill="#D9D9D9" fill-opacity="0.3"/>
<path d="M91.7216 846.497L99.3268 846.825L96.4838 824.391L91.7216 846.497Z" stroke="#00BFFF" stroke-opacity="0.4"/>
</g>
<g id="Polygon 14_8">
<path d="M101.94 883.967L104.75 851.137L99.713 851.092L101.94 883.967Z" fill="#D9D9D9" fill-opacity="0.3"/>
<path d="M104.206 851.632L100.248 851.597L101.998 877.422L104.206 851.632Z" stroke="#00BFFF" stroke-opacity="0.4"/>
</g>
<g id="Polygon 15_8">
<path d="M95.4811 882.069L106.493 858.369L98.0054 856.058L95.4811 882.069Z" fill="#D9D9D9" fill-opacity="0.3"/>
<path d="M105.79 858.697L98.4453 856.696L96.2606 879.204L105.79 858.697Z" stroke="#00BFFF" stroke-opacity="0.4"/>
</g>
<g id="Polygon 3_8">
<path d="M98.6511 825.465L94.8413 851.318L103.635 851.118L98.6511 825.465Z" fill="#D9D9D9" fill-opacity="0.3"/>
<path d="M95.4218 850.805L103.032 850.631L98.7193 828.433L95.4218 850.805Z" stroke="#00BFFF" stroke-opacity="0.4"/>
</g>
<g id="Polygon 16_8">
<path d="M95.9961 881.649L97.9032 860.257L90.9487 860.774L95.9961 881.649Z" fill="#D9D9D9" fill-opacity="0.3"/>
<path d="M97.3526 860.799L91.5736 861.229L95.7681 878.58L97.3526 860.799Z" stroke="#00BFFF" stroke-opacity="0.4"/>
</g>
<g id="Polygon 7_8">
<path d="M101.45 867.199L105.568 841.393L96.772 841.488L101.45 867.199Z" fill="#D9D9D9" fill-opacity="0.3"/>
<path d="M104.981 841.899L97.3695 841.982L101.417 864.23L104.981 841.899Z" stroke="#00BFFF" stroke-opacity="0.4"/>
</g>
<g id="Polygon 21_8">
<path d="M101.085 864.85L105.211 838.78L96.3936 838.876L101.085 864.85Z" fill="#D9D9D9" fill-opacity="0.3"/>
<path d="M104.625 839.286L96.9904 839.369L101.052 861.856L104.625 839.286Z" stroke="#00BFFF" stroke-opacity="0.4"/>
</g>
<g id="Polygon 17_8">
<path d="M93.1714 881.941L97.5696 856.181L88.7732 856.181L93.1714 881.941Z" fill="#D9D9D9" fill-opacity="0.3"/>
<path d="M96.9775 856.681L89.3652 856.681L93.1709 878.972L96.9775 856.681Z" stroke="#00BFFF" stroke-opacity="0.4"/>
</g>
<g id="Polygon 10_8">
<path d="M95.8134 831.977L91.4152 857.737H100.212L95.8134 831.977Z" fill="#D9D9D9" fill-opacity="0.3"/>
<path d="M92.0072 857.237H99.6195L95.8138 834.946L92.0072 857.237Z" stroke="#00BFFF" stroke-opacity="0.4"/>
</g>
<g id="Polygon 18_8">
<path d="M96.4592 877.655L100.857 851.895L92.061 851.895L96.4592 877.655Z" fill="#D9D9D9" fill-opacity="0.3"/>
<path d="M100.265 852.395L92.6531 852.395L96.4587 874.686L100.265 852.395Z" stroke="#00BFFF" stroke-opacity="0.4"/>
</g>
<g id="Polygon 9_8">
<path d="M92.7619 831.046L87.7282 856.689L96.5219 856.907L92.7619 831.046Z" fill="#D9D9D9" fill-opacity="0.3"/>
<path d="M88.3324 856.204L95.9424 856.392L92.689 834.014L88.3324 856.204Z" stroke="#00BFFF" stroke-opacity="0.4"/>
</g>
<g id="Polygon 19_8">
<path d="M98.3647 889.653L96.9745 861.511L88.3642 863.311L98.3647 889.653Z" fill="#D9D9D9" fill-opacity="0.3"/>
<path d="M96.5041 862.121L89.0395 863.682L97.7091 886.52L96.5041 862.121Z" stroke="#00BFFF" stroke-opacity="0.4"/>
</g>
<g id="Polygon 4_8">
<path d="M99.3855 828.998L97.3982 855.055L106.157 854.239L99.3855 828.998Z" fill="#D9D9D9" fill-opacity="0.3"/>
<path d="M97.9413 854.502L105.521 853.796L99.6616 831.954L97.9413 854.502Z" stroke="#00BFFF" stroke-opacity="0.4"/>
</g>
<g id="Polygon 20_8">
<path d="M93.1771 881.675L96.3357 855.734L87.5494 856.156L93.1771 881.675Z" fill="#D9D9D9" fill-opacity="0.3"/>
<path d="M95.7683 856.262L88.1648 856.627L93.0344 878.71L95.7683 856.262Z" stroke="#00BFFF" stroke-opacity="0.4"/>
</g>
<g id="Polygon 8_8">
<path d="M95.8721 828.865L91.4739 854.625H100.27L95.8721 828.865Z" fill="#D9D9D9" fill-opacity="0.3"/>
<path d="M92.0659 854.125H99.6782L95.8726 831.834L92.0659 854.125Z" stroke="#00BFFF" stroke-opacity="0.4"/>
</g>
<g id="Polygon 12_8">
<path d="M100.864 878.578L107.109 853.202L98.3357 852.568L100.864 878.578Z" fill="#D9D9D9" fill-opacity="0.3"/>
<path d="M106.483 853.658L98.8901 853.109L101.078 875.617L106.483 853.658Z" stroke="#00BFFF" stroke-opacity="0.4"/>
</g>
</g>
</g>
<g id="[&#230;&#139;&#161;&#229;&#188;&#181;&#232;&#161;&#151;]&#227;&#130;&#168;&#227;&#131;&#179;&#227;&#131;&#148;&#227;&#131;&#172;&#227;&#130;&#162;&#227;&#131;&#160;&#229;&#140;&#151;&#230;&#157;&#177;">
<g id="Group 5_9">
<path id="Polygon 22_9" d="M1146.48 357.071L1134.57 359.281L1131.63 364.248L1139.87 368.232H1153.09L1161.34 364.248L1158.4 359.281L1146.48 357.071Z" fill="#F0FEFF" fill-opacity="0.4"/>
<path id="Polygon 23_9" d="M1146.51 353.078L1134.39 355.322L1131.4 360.363L1139.79 364.407H1153.24L1161.62 360.363L1158.63 355.322L1146.51 353.078Z" fill="#F0FEFF" fill-opacity="0.4"/>
</g>
<g id="Group 2_9">
<g id="Polygon 1_9">
<path d="M1145.99 296L1141.59 319.999H1150.39L1145.99 296Z" fill="#D9D9D9" fill-opacity="0.3"/>
<path d="M1142.19 319.499H1149.79L1145.99 298.772L1142.19 319.499Z" stroke="#00BFFF" stroke-opacity="0.4"/>
</g>
<g id="Polygon 11_9">
<path d="M1143.29 359.996L1147.69 334.236L1138.89 334.236L1143.29 359.996Z" fill="#D9D9D9" fill-opacity="0.3"/>
<path d="M1147.09 334.736L1139.48 334.736L1143.29 357.027L1147.09 334.736Z" stroke="#00BFFF" stroke-opacity="0.4"/>
</g>
<g id="Polygon 2_9">
<path d="M1144.2 302.74L1137.92 328.107L1146.69 328.753L1144.2 302.74Z" fill="#D9D9D9" fill-opacity="0.3"/>
<path d="M1138.54 327.652L1146.14 328.211L1143.98 305.7L1138.54 327.652Z" stroke="#00BFFF" stroke-opacity="0.4"/>
</g>
<g id="Polygon 6_9">
<path d="M1145.12 298.362L1137.31 329.281L1145.23 330.252L1145.12 298.362Z" fill="#D9D9D9" fill-opacity="0.3"/>
<path d="M1137.93 328.854L1144.72 329.687L1144.63 302.329L1137.93 328.854Z" stroke="#00BFFF" stroke-opacity="0.4"/>
</g>
<g id="Polygon 13_9">
<path d="M1147.28 360.466L1151.68 334.706L1142.88 334.706L1147.28 360.466Z" fill="#D9D9D9" fill-opacity="0.3"/>
<path d="M1151.09 335.206L1143.47 335.206L1147.28 357.497L1151.09 335.206Z" stroke="#00BFFF" stroke-opacity="0.4"/>
</g>
<g id="Polygon 5_9">
<path d="M1145.61 297.425L1140.11 322.972L1148.9 323.35L1145.61 297.425Z" fill="#D9D9D9" fill-opacity="0.3"/>
<path d="M1140.72 322.498L1148.33 322.825L1145.48 300.391L1140.72 322.498Z" stroke="#00BFFF" stroke-opacity="0.4"/>
</g>
<g id="Polygon 14_9">
<path d="M1150.94 359.967L1153.75 327.137L1148.71 327.092L1150.94 359.967Z" fill="#D9D9D9" fill-opacity="0.3"/>
<path d="M1153.21 327.632L1149.25 327.597L1151 353.422L1153.21 327.632Z" stroke="#00BFFF" stroke-opacity="0.4"/>
</g>
<g id="Polygon 15_9">
<path d="M1144.48 358.069L1155.49 334.37L1147.01 332.058L1144.48 358.069Z" fill="#D9D9D9" fill-opacity="0.3"/>
<path d="M1154.79 334.697L1147.45 332.697L1145.26 355.204L1154.79 334.697Z" stroke="#00BFFF" stroke-opacity="0.4"/>
</g>
<g id="Polygon 3_9">
<path d="M1147.65 301.465L1143.84 327.318L1152.64 327.118L1147.65 301.465Z" fill="#D9D9D9" fill-opacity="0.3"/>
<path d="M1144.42 326.805L1152.03 326.631L1147.72 304.433L1144.42 326.805Z" stroke="#00BFFF" stroke-opacity="0.4"/>
</g>
<g id="Polygon 16_9">
<path d="M1145 357.649L1146.9 336.257L1139.95 336.774L1145 357.649Z" fill="#D9D9D9" fill-opacity="0.3"/>
<path d="M1146.35 336.799L1140.57 337.229L1144.77 354.58L1146.35 336.799Z" stroke="#00BFFF" stroke-opacity="0.4"/>
</g>
<g id="Polygon 7_9">
<path d="M1150.45 343.199L1154.57 317.393L1145.77 317.488L1150.45 343.199Z" fill="#D9D9D9" fill-opacity="0.3"/>
<path d="M1153.98 317.899L1146.37 317.982L1150.42 340.23L1153.98 317.899Z" stroke="#00BFFF" stroke-opacity="0.4"/>
</g>
<g id="Polygon 21_9">
<path d="M1150.09 340.85L1154.21 314.78L1145.39 314.876L1150.09 340.85Z" fill="#D9D9D9" fill-opacity="0.3"/>
<path d="M1153.62 315.286L1145.99 315.369L1150.05 337.856L1153.62 315.286Z" stroke="#00BFFF" stroke-opacity="0.4"/>
</g>
<g id="Polygon 17_9">
<path d="M1142.17 357.941L1146.57 332.181L1137.77 332.181L1142.17 357.941Z" fill="#D9D9D9" fill-opacity="0.3"/>
<path d="M1145.98 332.682L1138.37 332.682L1142.17 354.973L1145.98 332.682Z" stroke="#00BFFF" stroke-opacity="0.4"/>
</g>
<g id="Polygon 10_9">
<path d="M1144.81 307.977L1140.42 333.737H1149.21L1144.81 307.977Z" fill="#D9D9D9" fill-opacity="0.3"/>
<path d="M1141.01 333.237H1148.62L1144.81 310.946L1141.01 333.237Z" stroke="#00BFFF" stroke-opacity="0.4"/>
</g>
<g id="Polygon 18_9">
<path d="M1145.46 353.655L1149.86 327.895L1141.06 327.895L1145.46 353.655Z" fill="#D9D9D9" fill-opacity="0.3"/>
<path d="M1149.27 328.396L1141.65 328.396L1145.46 350.687L1149.27 328.396Z" stroke="#00BFFF" stroke-opacity="0.4"/>
</g>
<g id="Polygon 9_9">
<path d="M1141.76 307.046L1136.73 332.689L1145.52 332.907L1141.76 307.046Z" fill="#D9D9D9" fill-opacity="0.3"/>
<path d="M1137.33 332.204L1144.94 332.392L1141.69 310.014L1137.33 332.204Z" stroke="#00BFFF" stroke-opacity="0.4"/>
</g>
<g id="Polygon 19_9">
<path d="M1147.36 365.653L1145.97 337.511L1137.36 339.312L1147.36 365.653Z" fill="#D9D9D9" fill-opacity="0.3"/>
<path d="M1145.5 338.121L1138.04 339.682L1146.71 362.52L1145.5 338.121Z" stroke="#00BFFF" stroke-opacity="0.4"/>
</g>
<g id="Polygon 4_9">
<path d="M1148.39 304.998L1146.4 331.055L1155.16 330.239L1148.39 304.998Z" fill="#D9D9D9" fill-opacity="0.3"/>
<path d="M1146.94 330.502L1154.52 329.796L1148.66 307.954L1146.94 330.502Z" stroke="#00BFFF" stroke-opacity="0.4"/>
</g>
<g id="Polygon 20_9">
<path d="M1142.18 357.676L1145.34 331.734L1136.55 332.156L1142.18 357.676Z" fill="#D9D9D9" fill-opacity="0.3"/>
<path d="M1144.77 332.262L1137.16 332.627L1142.03 354.71L1144.77 332.262Z" stroke="#00BFFF" stroke-opacity="0.4"/>
</g>
<g id="Polygon 8_9">
<path d="M1144.87 304.866L1140.47 330.625H1149.27L1144.87 304.866Z" fill="#D9D9D9" fill-opacity="0.3"/>
<path d="M1141.07 330.125H1148.68L1144.87 307.834L1141.07 330.125Z" stroke="#00BFFF" stroke-opacity="0.4"/>
</g>
<g id="Polygon 12_9">
<path d="M1149.86 354.578L1156.11 329.202L1147.34 328.568L1149.86 354.578Z" fill="#D9D9D9" fill-opacity="0.3"/>
<path d="M1155.48 329.659L1147.89 329.109L1150.08 351.617L1155.48 329.659Z" stroke="#00BFFF" stroke-opacity="0.4"/>
</g>
</g>
</g>
</g>
<path id="&#227;&#131;&#138;&#227;&#131;&#147;&#227;&#130;&#178;&#227;&#131;&#188;&#227;&#130;&#183;&#227;&#131;&#167;&#227;&#131;&#179;&#231;&#148;&#168;&#233;&#129;&#147;&#232;&#183;&#175;" d="M140.513 716V295.5L295.013 294L343.013 329.125M140.513 716H85.5127M140.513 716V956.5M140.513 716L254.513 719.5L343.013 779.5M140.513 956.5V1085.5H57.0127V1122H310.013L488.013 1285M140.513 956.5H188.013V1049H306.513L496.013 1215.5H720.013M488.013 1285V1407M488.013 1285H720.013M720.013 1285V1368H800.013M720.013 1285V1215.5M720.013 1094.5L921.013 967M720.013 1094.5V865.5M720.013 1094.5V1215.5M921.013 967L992.013 1082H1125.01M921.013 967V863.5M1125.01 1082V1119L956.513 1242M1125.01 1082V948.5H1161.01V1023.5H1232.01V917.5H1295.51V722M1295.51 722H1384.51M1295.51 722V580.5M1295.51 722H1161.01L921.013 863.5M1295.51 580.5H1339.01V315.5M1295.51 580.5H1190.51V315.5M991.013 416L976.013 391L1115.51 286H1339.01V315.5M991.013 416L947.013 449.5H784.513V350H714.513M1190.51 315.5H1151.51L991.013 416M714.513 350V164M714.513 350H645.513V449.5H507.513L343.013 329.125M714.513 350L717.756 654M343.013 329.125L321.513 365.5L523.013 517M523.013 517L343.013 779.5M523.013 517L534.013 508.5H656.513V654H717.756M343.013 779.5L465.513 865.5H720.013M720.013 865.5L717.756 654M720.013 865.5L921.013 863.5M717.756 654H781.013L784.513 517H921.013M1151.51 315.5V461C1154.92 513.081 1149.13 518.829 1123.01 481L1078.01 416L935.013 517H921.013M1339.01 315.5H1190.51M921.013 863.5V517" stroke="#FF0000"/>
<g id="Node">
<circle id="node_22" cx="343.013" cy="331" r="27.5" stroke="#FF0000"/>
<circle id="node_21" cx="141.013" cy="720" r="27.5" stroke="#FF0000"/>
<circle id="node_20" cx="142.013" cy="957" r="27.5" stroke="#FF0000"/>
<circle id="node_19" cx="491.013" cy="1286" r="27.5" stroke="#FF0000"/>
<circle id="node_18" cx="717.013" cy="1286" r="27.5" stroke="#FF0000"/>
<circle id="node_17" cx="719.013" cy="1218" r="27.5" stroke="#FF0000"/>
<circle id="node_16" cx="721.013" cy="1091" r="27.5" stroke="#FF0000"/>
<circle id="node_15" cx="719.013" cy="865" r="27.5" stroke="#FF0000"/>
<circle id="node_14" cx="353.013" cy="776" r="27.5" stroke="#FF0000"/>
<circle id="node_13" cx="519.013" cy="517" r="27.5" stroke="#FF0000"/>
<circle id="node_12" cx="993.013" cy="412" r="27.5" stroke="#FF0000"/>
<circle id="node_11" cx="1144.01" cy="315" r="27.5" stroke="#FF0000"/>
<circle id="node_10" cx="1190.01" cy="315" r="27.5" stroke="#FF0000"/>
<circle id="node_9" cx="1333.01" cy="300" r="27.5" stroke="#FF0000"/>
<circle id="node_8" cx="1300.01" cy="586" r="27.5" stroke="#FF0000"/>
<circle id="node_7" cx="1300.01" cy="720" r="27.5" stroke="#FF0000"/>
<circle id="node_6" cx="1127.01" cy="1082" r="27.5" stroke="#FF0000"/>
<circle id="node_5" cx="915.013" cy="968" r="27.5" stroke="#FF0000"/>
<circle id="node_4" cx="919.013" cy="863" r="27.5" stroke="#FF0000"/>
<circle id="node_3" cx="919.013" cy="521" r="27.5" stroke="#FF0000"/>
<circle id="node_2" cx="713.013" cy="652" r="27.5" stroke="#FF0000"/>
<circle id="node_1" cx="713.013" cy="351" r="27.5" stroke="#FF0000"/>
</g>
</g>
</svg>
