<svg width="1630" height="1453" viewBox="0 0 1630 1453" fill="none" xmlns="http://www.w3.org/2000/svg">
<g id="Group 13">
<g id="&#233;&#129;&#147;&#232;&#183;&#175;(Stroke)">
<mask id="path-1-inside-1_49_277" fill="white">
<path d="M499.489 301.246C501.221 303.254 503.835 304.273 506.468 303.968L723.646 278.788L740.725 276.808C745.476 276.257 749.646 279.971 749.646 284.755V412.563C749.646 415.778 751.571 418.681 754.534 419.932L976.415 513.646C978.817 514.661 981.562 514.441 983.772 513.058L1116.15 430.207C1119.22 428.282 1123.21 428.668 1125.85 431.146L1213.4 513.042C1215.24 514.764 1217.78 515.517 1220.26 515.076L1316.85 497.896C1320.3 497.281 1323.76 498.991 1325.36 502.113L1384.02 616.159C1385.39 618.824 1388.13 620.5 1391.13 620.5H1421.15C1425.56 620.5 1429.15 624.082 1429.15 628.5V766.5C1429.15 770.918 1425.56 774.5 1421.15 774.5H1347.9C1343.48 774.5 1339.9 778.082 1339.9 782.5V1049C1339.9 1053.42 1343.48 1057 1347.9 1057H1417.65C1422.06 1057 1425.65 1053.42 1425.65 1049V911.5C1425.65 907.082 1429.23 903.5 1433.65 903.5H1437.65C1442.06 903.5 1445.65 907.082 1445.65 911.5V1069C1445.65 1073.42 1442.06 1077 1437.65 1077H1236.06C1232.85 1077 1229.95 1078.92 1228.69 1081.87L1184.64 1185.59C1183.02 1189.4 1178.76 1191.35 1174.82 1190.08L1105.53 1167.76C1103.55 1167.12 1101.4 1167.28 1099.53 1168.2L780.188 1325.89C774.871 1328.52 768.646 1324.65 768.646 1318.72V1254C768.646 1249.58 765.064 1246 760.646 1246H757.646C753.228 1246 749.646 1249.58 749.646 1254V1330.5C749.646 1334.92 746.064 1338.5 741.646 1338.5H710.261C707.596 1338.5 705.098 1339.85 703.598 1342.05C658.483 1408.3 616.24 1444.14 565.36 1451.41C513.186 1458.87 454.991 1435.69 380.206 1393.19L379.194 1392.62C376.692 1391.2 375.146 1388.54 375.146 1385.66V1184.86C375.146 1183.44 374.772 1182.05 374.061 1180.83L302.666 1058.12C301.013 1055.28 297.79 1053.74 294.541 1054.24L206.863 1067.66C202.789 1068.28 198.909 1065.71 197.897 1061.71L138.628 827.53C137.897 824.641 135.62 822.397 132.72 821.709L31.8618 797.76C27.5196 796.729 24.8607 792.345 25.9535 788.018L63.5174 639.285C63.6955 638.58 63.9689 637.903 64.33 637.271L116.35 546.35C117.876 543.683 117.739 540.377 115.999 537.845L88.6556 498.074C86.8369 495.429 86.7757 491.953 88.5 489.245L221.759 279.983C224.09 276.322 228.916 275.188 232.634 277.427L271.002 300.531C273.66 302.132 277.005 302.051 279.582 300.323L412.55 211.207C415.909 208.955 420.421 209.565 423.062 212.628L499.489 301.246ZM606.737 448.9C605.278 449.057 603.891 449.613 602.726 450.506L364.777 633.03C362.803 634.544 361.646 636.89 361.646 639.378V744.015C361.646 748.841 365.888 752.569 370.675 751.948L488.869 736.619C491.129 736.326 493.156 735.083 494.443 733.203L533.686 675.847C535.814 672.737 535.483 668.563 532.892 665.828L476.388 606.186C473.35 602.978 473.487 597.915 476.694 594.876L479.598 592.125C482.806 589.086 487.869 589.223 490.908 592.431L558.516 663.795C561.108 666.53 561.439 670.704 559.311 673.814L505.894 751.885C504.607 753.766 502.58 755.008 500.32 755.301L360.659 773.414C358.468 773.698 356.491 774.876 355.199 776.669L318.453 827.639C316.998 829.659 316.565 832.24 317.283 834.624L371.211 1013.74C372.339 1017.49 370.59 1021.5 367.077 1023.23L326.892 1042.96C322.727 1045.01 321.17 1050.16 323.503 1054.17L394.061 1175.44C394.772 1176.66 395.146 1178.05 395.146 1179.46V1373.98C395.146 1376.87 396.723 1379.55 399.25 1380.96C469.333 1419.95 519.613 1437.75 562.53 1431.61C606.568 1425.31 645.908 1393.22 692.302 1322.99L692.895 1322.09C694.376 1319.85 696.884 1318.5 699.57 1318.5H721.646C726.064 1318.5 729.646 1314.92 729.646 1310.5V1234C729.646 1229.58 733.228 1226 737.646 1226H780.646C785.064 1226 788.646 1229.58 788.646 1234V1286.54C788.646 1292.47 794.871 1296.34 800.188 1293.71L1097.95 1146.67C1099.81 1145.75 1101.96 1145.59 1103.94 1146.23L1163.56 1165.44C1167.5 1166.71 1171.75 1164.76 1173.37 1160.95L1208.95 1077.2C1210.48 1073.59 1209.17 1069.39 1205.85 1067.3L1142.01 1027.14C1138.93 1025.2 1137.55 1021.42 1138.65 1017.95L1160.19 949.973C1160.6 948.663 1160.67 947.269 1160.39 945.925L1146.84 880.868C1146.07 877.159 1142.8 874.5 1139.01 874.5H1081.15C1076.73 874.5 1073.15 870.918 1073.15 866.5V763.5C1073.15 759.082 1069.56 755.5 1065.15 755.5H965.646C961.228 755.5 957.646 759.082 957.646 763.5V969.34C957.646 974.874 952.162 978.736 946.951 976.872L895.561 958.489C892.198 957.286 888.445 958.458 886.364 961.361L786.176 1101.16C784.674 1103.26 782.253 1104.5 779.674 1104.5H737.646C733.228 1104.5 729.646 1100.92 729.646 1096.5V911.5C729.646 907.082 733.228 903.5 737.646 903.5H741.646C746.064 903.5 749.646 907.082 749.646 911.5V1076.5C749.646 1080.92 753.228 1084.5 757.646 1084.5H769.401C771.981 1084.5 774.402 1083.26 775.904 1081.16L867.502 953.347C870.081 949.749 869.247 944.74 865.641 942.171L674.692 806.152C671.329 803.757 666.696 804.314 663.997 807.438L644.943 829.486C642.055 832.829 637.003 833.197 633.66 830.308L630.632 827.692C627.29 824.803 626.922 819.751 629.81 816.408L649.627 793.477C652.181 790.522 652.227 786.155 649.738 783.146L576.802 694.998C574.208 691.862 574.381 687.277 577.206 684.347L671.708 586.289C672.402 585.569 673.223 584.986 674.131 584.57L724.984 561.227C727.825 559.923 729.646 557.083 729.646 553.957V444.546C729.646 439.788 725.518 436.082 720.788 436.593L606.737 448.9ZM1189.64 772.165C1186.49 772.749 1184 775.153 1183.3 778.275L1164.26 862.889C1164.01 864.004 1164 865.159 1164.23 866.277L1181.04 946.973C1181.32 948.318 1181.25 949.712 1180.84 951.022L1162.38 1009.26C1161.28 1012.73 1162.66 1016.51 1165.75 1018.45L1225.08 1055.77C1226.35 1056.57 1227.83 1057 1229.34 1057H1311.9C1316.31 1057 1319.9 1053.42 1319.9 1049V781.026C1319.9 776.872 1316.72 773.409 1312.58 773.055L1226.22 765.67C1225.5 765.609 1224.78 765.645 1224.08 765.775L1189.64 772.165ZM175.238 853.637C170.419 854.177 167.185 858.848 168.375 863.55L212.828 1039.2C213.839 1043.19 217.72 1045.76 221.794 1045.14L300.902 1033.03C301.707 1032.91 302.488 1032.66 303.218 1032.31L343.036 1012.75C346.549 1011.03 348.298 1007.01 347.17 1003.27L299.897 846.254C298.784 842.554 295.185 840.179 291.345 840.61L175.238 853.637ZM749.646 566.783C749.646 569.909 747.825 572.749 744.983 574.053L685.909 601.168C685.001 601.585 684.179 602.168 683.486 602.887L604.003 685.361C601.179 688.292 601.005 692.877 603.6 696.013L673.349 780.309C673.793 780.846 674.304 781.322 674.871 781.725L889.914 934.907C890.513 935.333 891.168 935.675 891.861 935.923L926.952 948.476C932.162 950.34 937.646 946.477 937.646 940.943V748.467C937.646 747.593 937.503 746.725 937.222 745.898L898.852 632.755C898.035 630.348 898.411 627.696 899.865 625.611L960.235 539.01C963.144 534.837 961.47 529.045 956.784 527.066L760.759 444.272C755.485 442.044 749.646 445.916 749.646 451.641V566.783ZM280.158 324.015C277.58 325.742 274.235 325.823 271.577 324.222L239.025 304.621C235.307 302.383 230.482 303.517 228.151 307.178L112.479 488.822C110.755 491.53 110.816 495.006 112.635 497.651L139.598 536.871C141.339 539.403 141.476 542.708 139.95 545.376L83.0498 644.826C82.6886 645.457 82.4152 646.135 82.2371 646.84L50.3119 773.245C49.2191 777.572 51.878 781.957 56.2202 782.988L149.136 805.051C152.035 805.739 154.312 807.982 155.043 810.871L159.46 828.325C160.441 832.201 164.134 834.758 168.108 834.312L296.103 819.951C298.347 819.699 300.38 818.511 301.7 816.679L340.135 763.367C341.118 762.005 341.646 760.368 341.646 758.688V629.513C341.646 627.026 342.803 624.68 344.777 623.166L595.005 431.224C596.169 430.331 597.556 429.775 599.015 429.618L722.504 416.291C726.567 415.853 729.646 412.423 729.646 408.337V307.207C729.646 302.423 725.476 298.709 720.725 299.26L498.245 325.056C495.611 325.361 492.997 324.342 491.265 322.334L419.484 239.101C416.843 236.039 412.331 235.429 408.972 237.681L280.158 324.015ZM1222.24 535.039C1220.15 535.41 1218.29 536.597 1217.08 538.338L1187.16 581.229C1183.26 586.827 1187.71 594.429 1194.5 593.768L1213.72 591.897C1217.36 591.543 1220.78 593.7 1222.02 597.137L1246.21 664C1247.26 666.881 1249.85 668.914 1252.9 669.234L1262.13 670.206C1265.55 670.566 1268.36 673.078 1269.1 676.441L1284.19 744.914C1284.94 748.333 1287.83 750.865 1291.32 751.164L1330.33 754.5H1401.15C1405.56 754.5 1409.15 750.918 1409.15 746.5V648.5C1409.15 644.082 1405.56 640.5 1401.15 640.5H1378.93C1375.93 640.5 1373.18 638.824 1371.81 636.159L1314.33 524.39C1312.72 521.268 1309.27 519.557 1305.82 520.172L1222.24 535.039ZM1093.15 846.5C1093.15 850.918 1096.73 854.5 1101.15 854.5H1139.25C1142.99 854.5 1146.23 851.906 1147.05 848.256L1166.68 761.018C1167.38 757.896 1169.88 755.492 1173.02 754.909L1223.09 745.618C1223.79 745.487 1224.51 745.452 1225.23 745.513L1253.75 747.952C1259.12 748.411 1263.4 743.528 1262.24 738.26L1252.67 694.822C1251.93 691.459 1249.12 688.947 1245.7 688.587L1238.35 687.814C1235.31 687.494 1232.71 685.461 1231.67 682.58L1208.5 618.547C1207.26 615.11 1203.84 612.953 1200.2 613.307L1153.3 617.873C1146.51 618.534 1142.06 610.932 1145.96 605.334L1196.02 533.568C1198.3 530.306 1197.83 525.867 1194.93 523.149L1123.42 456.26C1120.78 453.782 1116.79 453.397 1113.72 455.321L989.566 533.027C988.652 533.599 987.864 534.349 987.247 535.233L922.051 628.756C920.597 630.841 920.221 633.493 921.037 635.9L952.973 730.069C954.074 733.316 957.121 735.5 960.549 735.5H1055.66C1061.43 735.5 1065.3 729.588 1063 724.303L1060.18 717.83C1058.41 713.779 1060.26 709.065 1064.31 707.299L1067.98 705.701C1072.03 703.935 1076.74 705.787 1078.51 709.838L1092.48 741.886C1092.92 742.895 1093.15 743.983 1093.15 745.083V846.5Z"/>
</mask>
<path d="M499.489 301.246C501.221 303.254 503.835 304.273 506.468 303.968L723.646 278.788L740.725 276.808C745.476 276.257 749.646 279.971 749.646 284.755V412.563C749.646 415.778 751.571 418.681 754.534 419.932L976.415 513.646C978.817 514.661 981.562 514.441 983.772 513.058L1116.15 430.207C1119.22 428.282 1123.21 428.668 1125.85 431.146L1213.4 513.042C1215.24 514.764 1217.78 515.517 1220.26 515.076L1316.85 497.896C1320.3 497.281 1323.76 498.991 1325.36 502.113L1384.02 616.159C1385.39 618.824 1388.13 620.5 1391.13 620.5H1421.15C1425.56 620.5 1429.15 624.082 1429.15 628.5V766.5C1429.15 770.918 1425.56 774.5 1421.15 774.5H1347.9C1343.48 774.5 1339.9 778.082 1339.9 782.5V1049C1339.9 1053.42 1343.48 1057 1347.9 1057H1417.65C1422.06 1057 1425.65 1053.42 1425.65 1049V911.5C1425.65 907.082 1429.23 903.5 1433.65 903.5H1437.65C1442.06 903.5 1445.65 907.082 1445.65 911.5V1069C1445.65 1073.42 1442.06 1077 1437.65 1077H1236.06C1232.85 1077 1229.95 1078.92 1228.69 1081.87L1184.64 1185.59C1183.02 1189.4 1178.76 1191.35 1174.82 1190.08L1105.53 1167.76C1103.55 1167.12 1101.4 1167.28 1099.53 1168.2L780.188 1325.89C774.871 1328.52 768.646 1324.65 768.646 1318.72V1254C768.646 1249.58 765.064 1246 760.646 1246H757.646C753.228 1246 749.646 1249.58 749.646 1254V1330.5C749.646 1334.92 746.064 1338.5 741.646 1338.5H710.261C707.596 1338.5 705.098 1339.85 703.598 1342.05C658.483 1408.3 616.24 1444.14 565.36 1451.41C513.186 1458.87 454.991 1435.69 380.206 1393.19L379.194 1392.62C376.692 1391.2 375.146 1388.54 375.146 1385.66V1184.86C375.146 1183.44 374.772 1182.05 374.061 1180.83L302.666 1058.12C301.013 1055.28 297.79 1053.74 294.541 1054.24L206.863 1067.66C202.789 1068.28 198.909 1065.71 197.897 1061.71L138.628 827.53C137.897 824.641 135.62 822.397 132.72 821.709L31.8618 797.76C27.5196 796.729 24.8607 792.345 25.9535 788.018L63.5174 639.285C63.6955 638.58 63.9689 637.903 64.33 637.271L116.35 546.35C117.876 543.683 117.739 540.377 115.999 537.845L88.6556 498.074C86.8369 495.429 86.7757 491.953 88.5 489.245L221.759 279.983C224.09 276.322 228.916 275.188 232.634 277.427L271.002 300.531C273.66 302.132 277.005 302.051 279.582 300.323L412.55 211.207C415.909 208.955 420.421 209.565 423.062 212.628L499.489 301.246ZM606.737 448.9C605.278 449.057 603.891 449.613 602.726 450.506L364.777 633.03C362.803 634.544 361.646 636.89 361.646 639.378V744.015C361.646 748.841 365.888 752.569 370.675 751.948L488.869 736.619C491.129 736.326 493.156 735.083 494.443 733.203L533.686 675.847C535.814 672.737 535.483 668.563 532.892 665.828L476.388 606.186C473.35 602.978 473.487 597.915 476.694 594.876L479.598 592.125C482.806 589.086 487.869 589.223 490.908 592.431L558.516 663.795C561.108 666.53 561.439 670.704 559.311 673.814L505.894 751.885C504.607 753.766 502.58 755.008 500.32 755.301L360.659 773.414C358.468 773.698 356.491 774.876 355.199 776.669L318.453 827.639C316.998 829.659 316.565 832.24 317.283 834.624L371.211 1013.74C372.339 1017.49 370.59 1021.5 367.077 1023.23L326.892 1042.96C322.727 1045.01 321.17 1050.16 323.503 1054.17L394.061 1175.44C394.772 1176.66 395.146 1178.05 395.146 1179.46V1373.98C395.146 1376.87 396.723 1379.55 399.25 1380.96C469.333 1419.95 519.613 1437.75 562.53 1431.61C606.568 1425.31 645.908 1393.22 692.302 1322.99L692.895 1322.09C694.376 1319.85 696.884 1318.5 699.57 1318.5H721.646C726.064 1318.5 729.646 1314.92 729.646 1310.5V1234C729.646 1229.58 733.228 1226 737.646 1226H780.646C785.064 1226 788.646 1229.58 788.646 1234V1286.54C788.646 1292.47 794.871 1296.34 800.188 1293.71L1097.95 1146.67C1099.81 1145.75 1101.96 1145.59 1103.94 1146.23L1163.56 1165.44C1167.5 1166.71 1171.75 1164.76 1173.37 1160.95L1208.95 1077.2C1210.48 1073.59 1209.17 1069.39 1205.85 1067.3L1142.01 1027.14C1138.93 1025.2 1137.55 1021.42 1138.65 1017.95L1160.19 949.973C1160.6 948.663 1160.67 947.269 1160.39 945.925L1146.84 880.868C1146.07 877.159 1142.8 874.5 1139.01 874.5H1081.15C1076.73 874.5 1073.15 870.918 1073.15 866.5V763.5C1073.15 759.082 1069.56 755.5 1065.15 755.5H965.646C961.228 755.5 957.646 759.082 957.646 763.5V969.34C957.646 974.874 952.162 978.736 946.951 976.872L895.561 958.489C892.198 957.286 888.445 958.458 886.364 961.361L786.176 1101.16C784.674 1103.26 782.253 1104.5 779.674 1104.5H737.646C733.228 1104.5 729.646 1100.92 729.646 1096.5V911.5C729.646 907.082 733.228 903.5 737.646 903.5H741.646C746.064 903.5 749.646 907.082 749.646 911.5V1076.5C749.646 1080.92 753.228 1084.5 757.646 1084.5H769.401C771.981 1084.5 774.402 1083.26 775.904 1081.16L867.502 953.347C870.081 949.749 869.247 944.74 865.641 942.171L674.692 806.152C671.329 803.757 666.696 804.314 663.997 807.438L644.943 829.486C642.055 832.829 637.003 833.197 633.66 830.308L630.632 827.692C627.29 824.803 626.922 819.751 629.81 816.408L649.627 793.477C652.181 790.522 652.227 786.155 649.738 783.146L576.802 694.998C574.208 691.862 574.381 687.277 577.206 684.347L671.708 586.289C672.402 585.569 673.223 584.986 674.131 584.57L724.984 561.227C727.825 559.923 729.646 557.083 729.646 553.957V444.546C729.646 439.788 725.518 436.082 720.788 436.593L606.737 448.9ZM1189.64 772.165C1186.49 772.749 1184 775.153 1183.3 778.275L1164.26 862.889C1164.01 864.004 1164 865.159 1164.23 866.277L1181.04 946.973C1181.32 948.318 1181.25 949.712 1180.84 951.022L1162.38 1009.26C1161.28 1012.73 1162.66 1016.51 1165.75 1018.45L1225.08 1055.77C1226.35 1056.57 1227.83 1057 1229.34 1057H1311.9C1316.31 1057 1319.9 1053.42 1319.9 1049V781.026C1319.9 776.872 1316.72 773.409 1312.58 773.055L1226.22 765.67C1225.5 765.609 1224.78 765.645 1224.08 765.775L1189.64 772.165ZM175.238 853.637C170.419 854.177 167.185 858.848 168.375 863.55L212.828 1039.2C213.839 1043.19 217.72 1045.76 221.794 1045.14L300.902 1033.03C301.707 1032.91 302.488 1032.66 303.218 1032.31L343.036 1012.75C346.549 1011.03 348.298 1007.01 347.17 1003.27L299.897 846.254C298.784 842.554 295.185 840.179 291.345 840.61L175.238 853.637ZM749.646 566.783C749.646 569.909 747.825 572.749 744.983 574.053L685.909 601.168C685.001 601.585 684.179 602.168 683.486 602.887L604.003 685.361C601.179 688.292 601.005 692.877 603.6 696.013L673.349 780.309C673.793 780.846 674.304 781.322 674.871 781.725L889.914 934.907C890.513 935.333 891.168 935.675 891.861 935.923L926.952 948.476C932.162 950.34 937.646 946.477 937.646 940.943V748.467C937.646 747.593 937.503 746.725 937.222 745.898L898.852 632.755C898.035 630.348 898.411 627.696 899.865 625.611L960.235 539.01C963.144 534.837 961.47 529.045 956.784 527.066L760.759 444.272C755.485 442.044 749.646 445.916 749.646 451.641V566.783ZM280.158 324.015C277.58 325.742 274.235 325.823 271.577 324.222L239.025 304.621C235.307 302.383 230.482 303.517 228.151 307.178L112.479 488.822C110.755 491.53 110.816 495.006 112.635 497.651L139.598 536.871C141.339 539.403 141.476 542.708 139.95 545.376L83.0498 644.826C82.6886 645.457 82.4152 646.135 82.2371 646.84L50.3119 773.245C49.2191 777.572 51.878 781.957 56.2202 782.988L149.136 805.051C152.035 805.739 154.312 807.982 155.043 810.871L159.46 828.325C160.441 832.201 164.134 834.758 168.108 834.312L296.103 819.951C298.347 819.699 300.38 818.511 301.7 816.679L340.135 763.367C341.118 762.005 341.646 760.368 341.646 758.688V629.513C341.646 627.026 342.803 624.68 344.777 623.166L595.005 431.224C596.169 430.331 597.556 429.775 599.015 429.618L722.504 416.291C726.567 415.853 729.646 412.423 729.646 408.337V307.207C729.646 302.423 725.476 298.709 720.725 299.26L498.245 325.056C495.611 325.361 492.997 324.342 491.265 322.334L419.484 239.101C416.843 236.039 412.331 235.429 408.972 237.681L280.158 324.015ZM1222.24 535.039C1220.15 535.41 1218.29 536.597 1217.08 538.338L1187.16 581.229C1183.26 586.827 1187.71 594.429 1194.5 593.768L1213.72 591.897C1217.36 591.543 1220.78 593.7 1222.02 597.137L1246.21 664C1247.26 666.881 1249.85 668.914 1252.9 669.234L1262.13 670.206C1265.55 670.566 1268.36 673.078 1269.1 676.441L1284.19 744.914C1284.94 748.333 1287.83 750.865 1291.32 751.164L1330.33 754.5H1401.15C1405.56 754.5 1409.15 750.918 1409.15 746.5V648.5C1409.15 644.082 1405.56 640.5 1401.15 640.5H1378.93C1375.93 640.5 1373.18 638.824 1371.81 636.159L1314.33 524.39C1312.72 521.268 1309.27 519.557 1305.82 520.172L1222.24 535.039ZM1093.15 846.5C1093.15 850.918 1096.73 854.5 1101.15 854.5H1139.25C1142.99 854.5 1146.23 851.906 1147.05 848.256L1166.68 761.018C1167.38 757.896 1169.88 755.492 1173.02 754.909L1223.09 745.618C1223.79 745.487 1224.51 745.452 1225.23 745.513L1253.75 747.952C1259.12 748.411 1263.4 743.528 1262.24 738.26L1252.67 694.822C1251.93 691.459 1249.12 688.947 1245.7 688.587L1238.35 687.814C1235.31 687.494 1232.71 685.461 1231.67 682.58L1208.5 618.547C1207.26 615.11 1203.84 612.953 1200.2 613.307L1153.3 617.873C1146.51 618.534 1142.06 610.932 1145.96 605.334L1196.02 533.568C1198.3 530.306 1197.83 525.867 1194.93 523.149L1123.42 456.26C1120.78 453.782 1116.79 453.397 1113.72 455.321L989.566 533.027C988.652 533.599 987.864 534.349 987.247 535.233L922.051 628.756C920.597 630.841 920.221 633.493 921.037 635.9L952.973 730.069C954.074 733.316 957.121 735.5 960.549 735.5H1055.66C1061.43 735.5 1065.3 729.588 1063 724.303L1060.18 717.83C1058.41 713.779 1060.26 709.065 1064.31 707.299L1067.98 705.701C1072.03 703.935 1076.74 705.787 1078.51 709.838L1092.48 741.886C1092.92 742.895 1093.15 743.983 1093.15 745.083V846.5Z" fill="white" fill-opacity="0.3" stroke="black" stroke-width="8" mask="url(#path-1-inside-1_49_277)"/>
</g>
<g id="&#227;&#131;&#143;&#227;&#130;&#166;&#227;&#130;&#185;">
<rect id="plot_13" x="378.586" y="1005.53" width="205.439" height="172.957" rx="6" transform="rotate(-105.651 378.586 1005.53)" fill="white" fill-opacity="0.3" stroke="black" stroke-width="4"/>
<rect id="plot_30" x="1454.15" y="1200.44" width="205.439" height="172.957" rx="6" transform="rotate(-90 1454.15 1200.44)" fill="white" fill-opacity="0.3" stroke="black" stroke-width="4"/>
<rect id="plot_5" x="114.94" y="483.023" width="205.439" height="172.957" rx="6" transform="rotate(-54.0123 114.94 483.023)" fill="white" fill-opacity="0.3" stroke="black" stroke-width="4"/>
<rect id="plot_12" x="214.509" y="1030.45" width="152.159" height="131.806" rx="6" transform="rotate(-105.592 214.509 1030.45)" fill="white" fill-opacity="0.3" stroke="black" stroke-width="4"/>
<rect id="plot_6" x="584.41" y="667.347" width="152.159" height="131.806" rx="6" transform="rotate(-133.071 584.41 667.347)" fill="white" fill-opacity="0.3" stroke="black" stroke-width="4"/>
<rect id="plot_11" x="41.5093" y="1005.45" width="152.159" height="131.806" rx="6" transform="rotate(-105.592 41.5093 1005.45)" fill="white" fill-opacity="0.3" stroke="black" stroke-width="4"/>
<rect id="plot_8" x="167.654" y="782.669" width="152.159" height="131.806" rx="6" transform="rotate(-72.5553 167.654 782.669)" fill="white" fill-opacity="0.3" stroke="black" stroke-width="4"/>
<rect id="plot_19" x="817.889" y="1093.35" width="152.159" height="131.806" rx="6" transform="rotate(-59.1356 817.889 1093.35)" fill="white" fill-opacity="0.3" stroke="black" stroke-width="4"/>
<rect id="plot_25" x="1185.53" y="926.212" width="152.159" height="131.806" rx="6" transform="rotate(-90.887 1185.53 926.212)" fill="white" fill-opacity="0.3" stroke="black" stroke-width="4"/>
<rect id="plot_4" x="386.173" y="436.028" width="152.159" height="131.806" rx="6" transform="rotate(-122.727 386.173 436.028)" fill="white" fill-opacity="0.3" stroke="black" stroke-width="4"/>
<rect id="plot_10" x="59.5533" y="766.618" width="104.013" height="107.251" rx="6" transform="rotate(-76.6721 59.5533 766.618)" fill="white" fill-opacity="0.3" stroke="black" stroke-width="4"/>
<rect id="plot_9" x="91.7927" y="641.414" width="104.013" height="107.251" rx="6" transform="rotate(-65.6599 91.7927 641.414)" fill="white" fill-opacity="0.3" stroke="black" stroke-width="4"/>
<rect id="plot_1" x="548.821" y="438.573" width="104.013" height="107.251" rx="6" transform="rotate(-103.49 548.821 438.573)" fill="white" fill-opacity="0.3" stroke="black" stroke-width="4"/>
<rect id="plot_2" x="409.091" y="421.911" width="104.013" height="107.251" rx="6" transform="rotate(-32.6718 409.091 421.911)" fill="white" fill-opacity="0.3" stroke="black" stroke-width="4"/>
<rect id="plot_3" x="313.955" y="517.427" width="104.013" height="107.251" rx="6" transform="rotate(-51.6926 313.955 517.427)" fill="white" fill-opacity="0.3" stroke="black" stroke-width="4"/>
<rect id="plot_7" x="360.921" y="683.142" width="104.013" height="107.251" rx="6" transform="rotate(-56.1348 360.921 683.142)" fill="white" fill-opacity="0.3" stroke="black" stroke-width="4"/>
<rect id="plot_15" x="606.967" y="692.673" width="104.013" height="107.251" rx="6" transform="rotate(-49.2971 606.967 692.673)" fill="white" fill-opacity="0.3" stroke="black" stroke-width="4"/>
<rect id="plot_16" x="939.884" y="642.47" width="104.013" height="107.251" rx="6" transform="rotate(-30.4626 939.884 642.47)" fill="white" fill-opacity="0.3" stroke="black" stroke-width="4"/>
<rect id="plot_17" x="960.3" y="881.217" width="104.013" height="107.251" rx="6" transform="rotate(-91.7055 960.3 881.217)" fill="white" fill-opacity="0.3" stroke="black" stroke-width="4"/>
<rect id="plot_18" x="978.907" y="966.523" width="104.013" height="107.251" rx="6" transform="rotate(-57.5398 978.907 966.523)" fill="white" fill-opacity="0.3" stroke="black" stroke-width="4"/>
<rect id="plot_20" x="681.118" y="1216.05" width="104.013" height="107.251" rx="6" transform="rotate(-90 681.118 1216.05)" fill="white" fill-opacity="0.3" stroke="black" stroke-width="4"/>
<rect id="plot_14" x="559.573" y="954.486" width="104.013" height="107.251" rx="6" transform="rotate(-91.3118 559.573 954.486)" fill="white" fill-opacity="0.3" stroke="black" stroke-width="4"/>
<rect id="plot_28" x="1063.88" y="1100.8" width="104.013" height="107.251" rx="6" transform="rotate(-59.9898 1063.88 1100.8)" fill="white" fill-opacity="0.3" stroke="black" stroke-width="4"/>
<rect id="plot_27" x="1224.18" y="1187.03" width="104.013" height="107.251" rx="6" transform="rotate(-88.9133 1224.18 1187.03)" fill="white" fill-opacity="0.3" stroke="black" stroke-width="4"/>
<rect id="plot_29" x="1454.15" y="980.013" width="104.013" height="107.251" rx="6" transform="rotate(-90 1454.15 980.013)" fill="white" fill-opacity="0.3" stroke="black" stroke-width="4"/>
<rect id="plot_26" x="1172.55" y="1031.62" width="104.013" height="107.251" rx="6" transform="rotate(-76.6721 1172.55 1031.62)" fill="white" fill-opacity="0.3" stroke="black" stroke-width="4"/>
<rect id="plot_24" x="1291.17" y="750.03" width="104.013" height="107.251" rx="6" transform="rotate(-89.2322 1291.17 750.03)" fill="white" fill-opacity="0.3" stroke="black" stroke-width="4"/>
<rect id="plot_23" x="1211.65" y="557.463" width="104.013" height="107.251" rx="6" transform="rotate(-17.3157 1211.65 557.463)" fill="white" fill-opacity="0.3" stroke="black" stroke-width="4"/>
<rect id="plot_21" x="1043.97" y="534.369" width="104.013" height="107.251" rx="6" transform="rotate(-46.5746 1043.97 534.369)" fill="white" fill-opacity="0.3" stroke="black" stroke-width="4"/>
<rect id="plot_22" x="1111.74" y="662.974" width="104.013" height="107.251" rx="6" transform="rotate(-21.6519 1111.74 662.974)" fill="white" fill-opacity="0.3" stroke="black" stroke-width="4"/>
<path id="apart_1" d="M413.146 1044H503.146C506.46 1044 509.146 1046.69 509.146 1050V1266C509.146 1269.31 506.46 1272 503.146 1272H413.146C409.832 1272 407.146 1269.31 407.146 1266V1050L407.154 1049.69C407.315 1046.52 409.936 1044 413.146 1044Z" fill="white" fill-opacity="0.3" stroke="black" stroke-width="4"/>
</g>
<g id="&#227;&#130;&#168;&#227;&#131;&#188;&#227;&#131;&#134;&#227;&#131;&#169;&#227;&#130;&#164;&#227;&#131;&#136;">
<g id="&#227;&#131;&#150;&#227;&#131;&#170;&#227;&#131;&#159;&#227;&#131;&#179;&#227;&#130;&#176;&#227;&#131;&#143;&#227;&#131;&#188;&#227;&#131;&#136;&#229;&#186;&#131;&#229;&#160;&#180;">
<g id="Group 5">
<path id="Polygon 22" d="M700.617 901.071L688.705 903.281L685.763 908.248L694.006 912.232H707.227L715.471 908.248L712.529 903.281L700.617 901.071Z" fill="#F0FEFF" fill-opacity="0.4"/>
<path id="Polygon 23" d="M700.646 897.078L688.528 899.322L685.535 904.363L693.921 908.407H707.371L715.758 904.363L712.765 899.322L700.646 897.078Z" fill="#F0FEFF" fill-opacity="0.4"/>
</g>
<g id="Group 2">
<g id="Polygon 1">
<path d="M700.121 840L695.723 863.999H704.519L700.121 840Z" fill="#D9D9D9" fill-opacity="0.3"/>
<path d="M696.323 863.499H703.919L700.122 842.772L696.323 863.499Z" stroke="#00BFFF" stroke-opacity="0.4"/>
</g>
<g id="Polygon 11">
<path d="M697.42 903.996L701.818 878.236L693.022 878.236L697.42 903.996Z" fill="#D9D9D9" fill-opacity="0.3"/>
<path d="M701.226 878.736L693.614 878.736L697.42 901.027L701.226 878.736Z" stroke="#00BFFF" stroke-opacity="0.4"/>
</g>
<g id="Polygon 2">
<path d="M698.329 846.74L692.051 872.107L700.824 872.753L698.329 846.74Z" fill="#D9D9D9" fill-opacity="0.3"/>
<path d="M692.678 871.652L700.27 872.211L698.112 849.7L692.678 871.652Z" stroke="#00BFFF" stroke-opacity="0.4"/>
</g>
<g id="Polygon 6">
<path d="M699.251 842.362L691.44 873.281L699.358 874.252L699.251 842.362Z" fill="#D9D9D9" fill-opacity="0.3"/>
<path d="M692.063 872.854L698.856 873.687L698.764 846.329L692.063 872.854Z" stroke="#00BFFF" stroke-opacity="0.4"/>
</g>
<g id="Polygon 13">
<path d="M701.413 904.466L705.811 878.706L697.015 878.706L701.413 904.466Z" fill="#D9D9D9" fill-opacity="0.3"/>
<path d="M705.219 879.206L697.607 879.206L701.412 901.497L705.219 879.206Z" stroke="#00BFFF" stroke-opacity="0.4"/>
</g>
<g id="Polygon 5">
<path d="M699.744 841.425L694.242 866.972L703.03 867.35L699.744 841.425Z" fill="#D9D9D9" fill-opacity="0.3"/>
<path d="M694.855 866.498L702.46 866.825L699.617 844.391L694.855 866.498Z" stroke="#00BFFF" stroke-opacity="0.4"/>
</g>
<g id="Polygon 14">
<path d="M705.074 903.967L707.883 871.137L702.846 871.092L705.074 903.967Z" fill="#D9D9D9" fill-opacity="0.3"/>
<path d="M707.34 871.632L703.381 871.597L705.132 897.422L707.34 871.632Z" stroke="#00BFFF" stroke-opacity="0.4"/>
</g>
<g id="Polygon 15">
<path d="M698.614 902.069L709.626 878.37L701.139 876.058L698.614 902.069Z" fill="#D9D9D9" fill-opacity="0.3"/>
<path d="M708.924 878.697L701.579 876.697L699.394 899.204L708.924 878.697Z" stroke="#00BFFF" stroke-opacity="0.4"/>
</g>
<g id="Polygon 3">
<path d="M701.784 845.465L697.975 871.318L706.769 871.118L701.784 845.465Z" fill="#D9D9D9" fill-opacity="0.3"/>
<path d="M698.555 870.805L706.165 870.631L701.853 848.433L698.555 870.805Z" stroke="#00BFFF" stroke-opacity="0.4"/>
</g>
<g id="Polygon 16">
<path d="M699.129 901.649L701.037 880.257L694.082 880.774L699.129 901.649Z" fill="#D9D9D9" fill-opacity="0.3"/>
<path d="M700.486 880.799L694.707 881.229L698.902 898.58L700.486 880.799Z" stroke="#00BFFF" stroke-opacity="0.4"/>
</g>
<g id="Polygon 7">
<path d="M704.583 887.199L708.701 861.393L699.906 861.488L704.583 887.199Z" fill="#D9D9D9" fill-opacity="0.3"/>
<path d="M708.115 861.899L700.503 861.982L704.551 884.23L708.115 861.899Z" stroke="#00BFFF" stroke-opacity="0.4"/>
</g>
<g id="Polygon 21">
<path d="M704.219 884.85L708.345 858.78L699.527 858.876L704.219 884.85Z" fill="#D9D9D9" fill-opacity="0.3"/>
<path d="M707.758 859.286L700.124 859.369L704.186 881.856L707.758 859.286Z" stroke="#00BFFF" stroke-opacity="0.4"/>
</g>
<g id="Polygon 17">
<path d="M696.305 901.941L700.703 876.181L691.907 876.181L696.305 901.941Z" fill="#D9D9D9" fill-opacity="0.3"/>
<path d="M700.111 876.682L692.499 876.682L696.304 898.973L700.111 876.682Z" stroke="#00BFFF" stroke-opacity="0.4"/>
</g>
<g id="Polygon 10">
<path d="M698.947 851.977L694.549 877.737H703.345L698.947 851.977Z" fill="#D9D9D9" fill-opacity="0.3"/>
<path d="M695.141 877.237H702.753L698.947 854.946L695.141 877.237Z" stroke="#00BFFF" stroke-opacity="0.4"/>
</g>
<g id="Polygon 18">
<path d="M699.593 897.655L703.991 871.895L695.195 871.895L699.593 897.655Z" fill="#D9D9D9" fill-opacity="0.3"/>
<path d="M703.399 872.396L695.787 872.396L699.592 894.687L703.399 872.396Z" stroke="#00BFFF" stroke-opacity="0.4"/>
</g>
<g id="Polygon 9">
<path d="M695.895 851.046L690.862 876.689L699.655 876.907L695.895 851.046Z" fill="#D9D9D9" fill-opacity="0.3"/>
<path d="M691.466 876.204L699.076 876.392L695.822 854.014L691.466 876.204Z" stroke="#00BFFF" stroke-opacity="0.4"/>
</g>
<g id="Polygon 19">
<path d="M701.498 909.653L700.108 881.511L691.498 883.312L701.498 909.653Z" fill="#D9D9D9" fill-opacity="0.3"/>
<path d="M699.637 882.121L692.173 883.682L700.842 906.52L699.637 882.121Z" stroke="#00BFFF" stroke-opacity="0.4"/>
</g>
<g id="Polygon 4">
<path d="M702.519 848.998L700.532 875.055L709.29 874.239L702.519 848.998Z" fill="#D9D9D9" fill-opacity="0.3"/>
<path d="M701.075 874.502L708.654 873.796L702.795 851.954L701.075 874.502Z" stroke="#00BFFF" stroke-opacity="0.4"/>
</g>
<g id="Polygon 20">
<path d="M696.311 901.676L699.469 875.734L690.683 876.156L696.311 901.676Z" fill="#D9D9D9" fill-opacity="0.3"/>
<path d="M698.902 876.262L691.298 876.627L696.168 898.71L698.902 876.262Z" stroke="#00BFFF" stroke-opacity="0.4"/>
</g>
<g id="Polygon 8">
<path d="M699.006 848.866L694.607 874.626H703.404L699.006 848.866Z" fill="#D9D9D9" fill-opacity="0.3"/>
<path d="M695.199 874.125H702.812L699.006 851.834L695.199 874.125Z" stroke="#00BFFF" stroke-opacity="0.4"/>
</g>
<g id="Polygon 12">
<path d="M703.998 898.578L710.243 873.202L701.469 872.568L703.998 898.578Z" fill="#D9D9D9" fill-opacity="0.3"/>
<path d="M709.616 873.659L702.024 873.11L704.211 895.617L709.616 873.659Z" stroke="#00BFFF" stroke-opacity="0.4"/>
</g>
</g>
</g>
<g id="&#227;&#130;&#180;&#227;&#131;&#150;&#227;&#131;&#172;&#227;&#131;&#131;&#227;&#131;&#136;&#227;&#131;&#147;&#227;&#131;&#165;&#227;&#131;&#188;&#227;&#131;&#136;&#230;&#157;&#177;">
<g id="Group 5_2">
<path id="Polygon 22_2" d="M1417.62 731.071L1405.71 733.281L1402.76 738.248L1411.01 742.232H1424.23L1432.47 738.248L1429.53 733.281L1417.62 731.071Z" fill="#F0FEFF" fill-opacity="0.4"/>
<path id="Polygon 23_2" d="M1417.65 727.078L1405.53 729.322L1402.53 734.363L1410.92 738.407H1424.37L1432.76 734.363L1429.76 729.322L1417.65 727.078Z" fill="#F0FEFF" fill-opacity="0.4"/>
</g>
<g id="Group 2_2">
<g id="Polygon 1_2">
<path d="M1417.12 670L1412.72 693.999H1421.52L1417.12 670Z" fill="#D9D9D9" fill-opacity="0.3"/>
<path d="M1413.32 693.499H1420.92L1417.12 672.772L1413.32 693.499Z" stroke="#00BFFF" stroke-opacity="0.4"/>
</g>
<g id="Polygon 11_2">
<path d="M1414.42 733.996L1418.82 708.236L1410.02 708.236L1414.42 733.996Z" fill="#D9D9D9" fill-opacity="0.3"/>
<path d="M1418.23 708.736L1410.61 708.736L1414.42 731.028L1418.23 708.736Z" stroke="#00BFFF" stroke-opacity="0.4"/>
</g>
<g id="Polygon 2_2">
<path d="M1415.33 676.74L1409.05 702.107L1417.82 702.753L1415.33 676.74Z" fill="#D9D9D9" fill-opacity="0.3"/>
<path d="M1409.68 701.652L1417.27 702.211L1415.11 679.7L1409.68 701.652Z" stroke="#00BFFF" stroke-opacity="0.4"/>
</g>
<g id="Polygon 6_2">
<path d="M1416.25 672.362L1408.44 703.281L1416.36 704.252L1416.25 672.362Z" fill="#D9D9D9" fill-opacity="0.3"/>
<path d="M1409.06 702.854L1415.86 703.687L1415.76 676.329L1409.06 702.854Z" stroke="#00BFFF" stroke-opacity="0.4"/>
</g>
<g id="Polygon 13_2">
<path d="M1418.41 734.466L1422.81 708.706L1414.01 708.706L1418.41 734.466Z" fill="#D9D9D9" fill-opacity="0.3"/>
<path d="M1422.22 709.206L1414.61 709.206L1418.41 731.497L1422.22 709.206Z" stroke="#00BFFF" stroke-opacity="0.4"/>
</g>
<g id="Polygon 5_2">
<path d="M1416.74 671.425L1411.24 696.972L1420.03 697.35L1416.74 671.425Z" fill="#D9D9D9" fill-opacity="0.3"/>
<path d="M1411.86 696.498L1419.46 696.825L1416.62 674.391L1411.86 696.498Z" stroke="#00BFFF" stroke-opacity="0.4"/>
</g>
<g id="Polygon 14_2">
<path d="M1422.07 733.967L1424.88 701.137L1419.85 701.092L1422.07 733.967Z" fill="#D9D9D9" fill-opacity="0.3"/>
<path d="M1424.34 701.632L1420.38 701.597L1422.13 727.422L1424.34 701.632Z" stroke="#00BFFF" stroke-opacity="0.4"/>
</g>
<g id="Polygon 15_2">
<path d="M1415.61 732.069L1426.63 708.37L1418.14 706.058L1415.61 732.069Z" fill="#D9D9D9" fill-opacity="0.3"/>
<path d="M1425.92 708.697L1418.58 706.697L1416.39 729.204L1425.92 708.697Z" stroke="#00BFFF" stroke-opacity="0.4"/>
</g>
<g id="Polygon 3_2">
<path d="M1418.78 675.465L1414.97 701.318L1423.77 701.118L1418.78 675.465Z" fill="#D9D9D9" fill-opacity="0.3"/>
<path d="M1415.56 700.805L1423.17 700.631L1418.85 678.433L1415.56 700.805Z" stroke="#00BFFF" stroke-opacity="0.4"/>
</g>
<g id="Polygon 16_2">
<path d="M1416.13 731.649L1418.04 710.257L1411.08 710.774L1416.13 731.649Z" fill="#D9D9D9" fill-opacity="0.3"/>
<path d="M1417.49 710.799L1411.71 711.229L1415.9 728.58L1417.49 710.799Z" stroke="#00BFFF" stroke-opacity="0.4"/>
</g>
<g id="Polygon 7_2">
<path d="M1421.58 717.199L1425.7 691.393L1416.91 691.488L1421.58 717.199Z" fill="#D9D9D9" fill-opacity="0.3"/>
<path d="M1425.12 691.899L1417.5 691.982L1421.55 714.23L1425.12 691.899Z" stroke="#00BFFF" stroke-opacity="0.4"/>
</g>
<g id="Polygon 21_2">
<path d="M1421.22 714.85L1425.34 688.78L1416.53 688.876L1421.22 714.85Z" fill="#D9D9D9" fill-opacity="0.3"/>
<path d="M1424.76 689.286L1417.12 689.369L1421.19 711.856L1424.76 689.286Z" stroke="#00BFFF" stroke-opacity="0.4"/>
</g>
<g id="Polygon 17_2">
<path d="M1413.3 731.941L1417.7 706.181L1408.91 706.181L1413.3 731.941Z" fill="#D9D9D9" fill-opacity="0.3"/>
<path d="M1417.11 706.682L1409.5 706.682L1413.3 728.973L1417.11 706.682Z" stroke="#00BFFF" stroke-opacity="0.4"/>
</g>
<g id="Polygon 10_2">
<path d="M1415.95 681.977L1411.55 707.737H1420.35L1415.95 681.977Z" fill="#D9D9D9" fill-opacity="0.3"/>
<path d="M1412.14 707.237H1419.75L1415.95 684.946L1412.14 707.237Z" stroke="#00BFFF" stroke-opacity="0.4"/>
</g>
<g id="Polygon 18_2">
<path d="M1416.59 727.655L1420.99 701.895L1412.19 701.895L1416.59 727.655Z" fill="#D9D9D9" fill-opacity="0.3"/>
<path d="M1420.4 702.396L1412.79 702.396L1416.59 724.687L1420.4 702.396Z" stroke="#00BFFF" stroke-opacity="0.4"/>
</g>
<g id="Polygon 9_2">
<path d="M1412.9 681.046L1407.86 706.689L1416.66 706.907L1412.9 681.046Z" fill="#D9D9D9" fill-opacity="0.3"/>
<path d="M1408.47 706.204L1416.08 706.392L1412.82 684.014L1408.47 706.204Z" stroke="#00BFFF" stroke-opacity="0.4"/>
</g>
<g id="Polygon 19_2">
<path d="M1418.5 739.653L1417.11 711.511L1408.5 713.312L1418.5 739.653Z" fill="#D9D9D9" fill-opacity="0.3"/>
<path d="M1416.64 712.121L1409.17 713.682L1417.84 736.52L1416.64 712.121Z" stroke="#00BFFF" stroke-opacity="0.4"/>
</g>
<g id="Polygon 4_2">
<path d="M1419.52 678.998L1417.53 705.055L1426.29 704.239L1419.52 678.998Z" fill="#D9D9D9" fill-opacity="0.3"/>
<path d="M1418.07 704.502L1425.65 703.796L1419.8 681.954L1418.07 704.502Z" stroke="#00BFFF" stroke-opacity="0.4"/>
</g>
<g id="Polygon 20_2">
<path d="M1413.31 731.676L1416.47 705.734L1407.68 706.156L1413.31 731.676Z" fill="#D9D9D9" fill-opacity="0.3"/>
<path d="M1415.9 706.262L1408.3 706.627L1413.17 728.71L1415.9 706.262Z" stroke="#00BFFF" stroke-opacity="0.4"/>
</g>
<g id="Polygon 8_2">
<path d="M1416.01 678.866L1411.61 704.626H1420.4L1416.01 678.866Z" fill="#D9D9D9" fill-opacity="0.3"/>
<path d="M1412.2 704.125H1419.81L1416.01 681.834L1412.2 704.125Z" stroke="#00BFFF" stroke-opacity="0.4"/>
</g>
<g id="Polygon 12_2">
<path d="M1421 728.578L1427.24 703.202L1418.47 702.568L1421 728.578Z" fill="#D9D9D9" fill-opacity="0.3"/>
<path d="M1426.62 703.659L1419.02 703.109L1421.21 725.617L1426.62 703.659Z" stroke="#00BFFF" stroke-opacity="0.4"/>
</g>
</g>
</g>
<g id="&#227;&#130;&#180;&#227;&#131;&#150;&#227;&#131;&#172;&#227;&#131;&#131;&#227;&#131;&#136;&#227;&#131;&#147;&#227;&#131;&#165;&#227;&#131;&#188;&#227;&#131;&#136;&#229;&#141;&#151;&#230;&#157;&#177;">
<g id="Group 5_3">
<path id="Polygon 22_3" d="M1304.62 1058.07L1292.71 1060.28L1289.76 1065.25L1298.01 1069.23H1311.23L1319.47 1065.25L1316.53 1060.28L1304.62 1058.07Z" fill="#F0FEFF" fill-opacity="0.4"/>
<path id="Polygon 23_3" d="M1304.65 1054.08L1292.53 1056.32L1289.53 1061.36L1297.92 1065.41H1311.37L1319.76 1061.36L1316.76 1056.32L1304.65 1054.08Z" fill="#F0FEFF" fill-opacity="0.4"/>
</g>
<g id="Group 2_3">
<g id="Polygon 1_3">
<path d="M1304.12 997L1299.72 1021H1308.52L1304.12 997Z" fill="#D9D9D9" fill-opacity="0.3"/>
<path d="M1300.32 1020.5H1307.92L1304.12 999.772L1300.32 1020.5Z" stroke="#00BFFF" stroke-opacity="0.4"/>
</g>
<g id="Polygon 11_3">
<path d="M1301.42 1061L1305.82 1035.24L1297.02 1035.24L1301.42 1061Z" fill="#D9D9D9" fill-opacity="0.3"/>
<path d="M1305.23 1035.74L1297.61 1035.74L1301.42 1058.03L1305.23 1035.74Z" stroke="#00BFFF" stroke-opacity="0.4"/>
</g>
<g id="Polygon 2_3">
<path d="M1302.33 1003.74L1296.05 1029.11L1304.82 1029.75L1302.33 1003.74Z" fill="#D9D9D9" fill-opacity="0.3"/>
<path d="M1296.68 1028.65L1304.27 1029.21L1302.11 1006.7L1296.68 1028.65Z" stroke="#00BFFF" stroke-opacity="0.4"/>
</g>
<g id="Polygon 6_3">
<path d="M1303.25 999.362L1295.44 1030.28L1303.36 1031.25L1303.25 999.362Z" fill="#D9D9D9" fill-opacity="0.3"/>
<path d="M1296.06 1029.85L1302.86 1030.69L1302.76 1003.33L1296.06 1029.85Z" stroke="#00BFFF" stroke-opacity="0.4"/>
</g>
<g id="Polygon 13_3">
<path d="M1305.41 1061.47L1309.81 1035.71L1301.01 1035.71L1305.41 1061.47Z" fill="#D9D9D9" fill-opacity="0.3"/>
<path d="M1309.22 1036.21L1301.61 1036.21L1305.41 1058.5L1309.22 1036.21Z" stroke="#00BFFF" stroke-opacity="0.4"/>
</g>
<g id="Polygon 5_3">
<path d="M1303.74 998.425L1298.24 1023.97L1307.03 1024.35L1303.74 998.425Z" fill="#D9D9D9" fill-opacity="0.3"/>
<path d="M1298.86 1023.5L1306.46 1023.83L1303.62 1001.39L1298.86 1023.5Z" stroke="#00BFFF" stroke-opacity="0.4"/>
</g>
<g id="Polygon 14_3">
<path d="M1309.07 1060.97L1311.88 1028.14L1306.85 1028.09L1309.07 1060.97Z" fill="#D9D9D9" fill-opacity="0.3"/>
<path d="M1311.34 1028.63L1307.38 1028.6L1309.13 1054.42L1311.34 1028.63Z" stroke="#00BFFF" stroke-opacity="0.4"/>
</g>
<g id="Polygon 15_3">
<path d="M1302.61 1059.07L1313.63 1035.37L1305.14 1033.06L1302.61 1059.07Z" fill="#D9D9D9" fill-opacity="0.3"/>
<path d="M1312.92 1035.7L1305.58 1033.7L1303.39 1056.2L1312.92 1035.7Z" stroke="#00BFFF" stroke-opacity="0.4"/>
</g>
<g id="Polygon 3_3">
<path d="M1305.78 1002.46L1301.97 1028.32L1310.77 1028.12L1305.78 1002.46Z" fill="#D9D9D9" fill-opacity="0.3"/>
<path d="M1302.56 1027.8L1310.17 1027.63L1305.85 1005.43L1302.56 1027.8Z" stroke="#00BFFF" stroke-opacity="0.4"/>
</g>
<g id="Polygon 16_3">
<path d="M1303.13 1058.65L1305.04 1037.26L1298.08 1037.77L1303.13 1058.65Z" fill="#D9D9D9" fill-opacity="0.3"/>
<path d="M1304.49 1037.8L1298.71 1038.23L1302.9 1055.58L1304.49 1037.8Z" stroke="#00BFFF" stroke-opacity="0.4"/>
</g>
<g id="Polygon 7_3">
<path d="M1308.58 1044.2L1312.7 1018.39L1303.91 1018.49L1308.58 1044.2Z" fill="#D9D9D9" fill-opacity="0.3"/>
<path d="M1312.12 1018.9L1304.5 1018.98L1308.55 1041.23L1312.12 1018.9Z" stroke="#00BFFF" stroke-opacity="0.4"/>
</g>
<g id="Polygon 21_3">
<path d="M1308.22 1041.85L1312.34 1015.78L1303.53 1015.88L1308.22 1041.85Z" fill="#D9D9D9" fill-opacity="0.3"/>
<path d="M1311.76 1016.29L1304.12 1016.37L1308.19 1038.86L1311.76 1016.29Z" stroke="#00BFFF" stroke-opacity="0.4"/>
</g>
<g id="Polygon 17_3">
<path d="M1300.3 1058.94L1304.7 1033.18L1295.91 1033.18L1300.3 1058.94Z" fill="#D9D9D9" fill-opacity="0.3"/>
<path d="M1304.11 1033.68L1296.5 1033.68L1300.3 1055.97L1304.11 1033.68Z" stroke="#00BFFF" stroke-opacity="0.4"/>
</g>
<g id="Polygon 10_3">
<path d="M1302.95 1008.98L1298.55 1034.74H1307.35L1302.95 1008.98Z" fill="#D9D9D9" fill-opacity="0.3"/>
<path d="M1299.14 1034.24H1306.75L1302.95 1011.95L1299.14 1034.24Z" stroke="#00BFFF" stroke-opacity="0.4"/>
</g>
<g id="Polygon 18_3">
<path d="M1303.59 1054.66L1307.99 1028.9L1299.19 1028.9L1303.59 1054.66Z" fill="#D9D9D9" fill-opacity="0.3"/>
<path d="M1307.4 1029.4L1299.79 1029.4L1303.59 1051.69L1307.4 1029.4Z" stroke="#00BFFF" stroke-opacity="0.4"/>
</g>
<g id="Polygon 9_3">
<path d="M1299.9 1008.05L1294.86 1033.69L1303.66 1033.91L1299.9 1008.05Z" fill="#D9D9D9" fill-opacity="0.3"/>
<path d="M1295.47 1033.2L1303.08 1033.39L1299.82 1011.01L1295.47 1033.2Z" stroke="#00BFFF" stroke-opacity="0.4"/>
</g>
<g id="Polygon 19_3">
<path d="M1305.5 1066.65L1304.11 1038.51L1295.5 1040.31L1305.5 1066.65Z" fill="#D9D9D9" fill-opacity="0.3"/>
<path d="M1303.64 1039.12L1296.17 1040.68L1304.84 1063.52L1303.64 1039.12Z" stroke="#00BFFF" stroke-opacity="0.4"/>
</g>
<g id="Polygon 4_3">
<path d="M1306.52 1006L1304.53 1032.06L1313.29 1031.24L1306.52 1006Z" fill="#D9D9D9" fill-opacity="0.3"/>
<path d="M1305.07 1031.5L1312.65 1030.8L1306.8 1008.95L1305.07 1031.5Z" stroke="#00BFFF" stroke-opacity="0.4"/>
</g>
<g id="Polygon 20_3">
<path d="M1300.31 1058.68L1303.47 1032.73L1294.68 1033.16L1300.31 1058.68Z" fill="#D9D9D9" fill-opacity="0.3"/>
<path d="M1302.9 1033.26L1295.3 1033.63L1300.17 1055.71L1302.9 1033.26Z" stroke="#00BFFF" stroke-opacity="0.4"/>
</g>
<g id="Polygon 8_3">
<path d="M1303.01 1005.87L1298.61 1031.63H1307.4L1303.01 1005.87Z" fill="#D9D9D9" fill-opacity="0.3"/>
<path d="M1299.2 1031.13H1306.81L1303.01 1008.83L1299.2 1031.13Z" stroke="#00BFFF" stroke-opacity="0.4"/>
</g>
<g id="Polygon 12_3">
<path d="M1308 1055.58L1314.24 1030.2L1305.47 1029.57L1308 1055.58Z" fill="#D9D9D9" fill-opacity="0.3"/>
<path d="M1313.62 1030.66L1306.02 1030.11L1308.21 1052.62L1313.62 1030.66Z" stroke="#00BFFF" stroke-opacity="0.4"/>
</g>
</g>
</g>
<g id="&#227;&#130;&#180;&#227;&#131;&#150;&#227;&#131;&#172;&#227;&#131;&#131;&#227;&#131;&#136;&#227;&#131;&#147;&#227;&#131;&#165;&#227;&#131;&#188;&#227;&#131;&#136;&#229;&#140;&#151;&#230;&#157;&#177;">
<g id="Group 5_4">
<path id="Polygon 22_4" d="M1221.62 513.071L1209.7 515.281L1206.76 520.248L1215.01 524.232H1228.23L1236.47 520.248L1233.53 515.281L1221.62 513.071Z" fill="#F0FEFF" fill-opacity="0.4"/>
<path id="Polygon 23_4" d="M1221.65 509.078L1209.53 511.322L1206.53 516.363L1214.92 520.407H1228.37L1236.76 516.363L1233.76 511.322L1221.65 509.078Z" fill="#F0FEFF" fill-opacity="0.4"/>
</g>
<g id="Group 2_4">
<g id="Polygon 1_4">
<path d="M1221.12 452L1216.72 475.999H1225.52L1221.12 452Z" fill="#D9D9D9" fill-opacity="0.3"/>
<path d="M1217.32 475.499H1224.92L1221.12 454.772L1217.32 475.499Z" stroke="#00BFFF" stroke-opacity="0.4"/>
</g>
<g id="Polygon 11_4">
<path d="M1218.42 515.996L1222.82 490.236L1214.02 490.236L1218.42 515.996Z" fill="#D9D9D9" fill-opacity="0.3"/>
<path d="M1222.23 490.736L1214.61 490.736L1218.42 513.027L1222.23 490.736Z" stroke="#00BFFF" stroke-opacity="0.4"/>
</g>
<g id="Polygon 2_4">
<path d="M1219.33 458.74L1213.05 484.107L1221.82 484.753L1219.33 458.74Z" fill="#D9D9D9" fill-opacity="0.3"/>
<path d="M1213.68 483.652L1221.27 484.211L1219.11 461.7L1213.68 483.652Z" stroke="#00BFFF" stroke-opacity="0.4"/>
</g>
<g id="Polygon 6_4">
<path d="M1220.25 454.362L1212.44 485.281L1220.36 486.252L1220.25 454.362Z" fill="#D9D9D9" fill-opacity="0.3"/>
<path d="M1213.06 484.854L1219.86 485.687L1219.76 458.329L1213.06 484.854Z" stroke="#00BFFF" stroke-opacity="0.4"/>
</g>
<g id="Polygon 13_4">
<path d="M1222.41 516.466L1226.81 490.706L1218.01 490.706L1222.41 516.466Z" fill="#D9D9D9" fill-opacity="0.3"/>
<path d="M1226.22 491.206L1218.61 491.206L1222.41 513.497L1226.22 491.206Z" stroke="#00BFFF" stroke-opacity="0.4"/>
</g>
<g id="Polygon 5_4">
<path d="M1220.74 453.425L1215.24 478.972L1224.03 479.35L1220.74 453.425Z" fill="#D9D9D9" fill-opacity="0.3"/>
<path d="M1215.85 478.498L1223.46 478.825L1220.62 456.391L1215.85 478.498Z" stroke="#00BFFF" stroke-opacity="0.4"/>
</g>
<g id="Polygon 14_4">
<path d="M1226.07 515.967L1228.88 483.137L1223.85 483.092L1226.07 515.967Z" fill="#D9D9D9" fill-opacity="0.3"/>
<path d="M1228.34 483.632L1224.38 483.597L1226.13 509.422L1228.34 483.632Z" stroke="#00BFFF" stroke-opacity="0.4"/>
</g>
<g id="Polygon 15_4">
<path d="M1219.61 514.069L1230.63 490.37L1222.14 488.058L1219.61 514.069Z" fill="#D9D9D9" fill-opacity="0.3"/>
<path d="M1229.92 490.697L1222.58 488.697L1220.39 511.204L1229.92 490.697Z" stroke="#00BFFF" stroke-opacity="0.4"/>
</g>
<g id="Polygon 3_4">
<path d="M1222.78 457.465L1218.97 483.318L1227.77 483.118L1222.78 457.465Z" fill="#D9D9D9" fill-opacity="0.3"/>
<path d="M1219.56 482.805L1227.17 482.631L1222.85 460.433L1219.56 482.805Z" stroke="#00BFFF" stroke-opacity="0.4"/>
</g>
<g id="Polygon 16_4">
<path d="M1220.13 513.649L1222.04 492.257L1215.08 492.774L1220.13 513.649Z" fill="#D9D9D9" fill-opacity="0.3"/>
<path d="M1221.49 492.799L1215.71 493.229L1219.9 510.58L1221.49 492.799Z" stroke="#00BFFF" stroke-opacity="0.4"/>
</g>
<g id="Polygon 7_4">
<path d="M1225.58 499.199L1229.7 473.393L1220.91 473.488L1225.58 499.199Z" fill="#D9D9D9" fill-opacity="0.3"/>
<path d="M1229.11 473.899L1221.5 473.982L1225.55 496.23L1229.11 473.899Z" stroke="#00BFFF" stroke-opacity="0.4"/>
</g>
<g id="Polygon 21_4">
<path d="M1225.22 496.85L1229.34 470.78L1220.53 470.876L1225.22 496.85Z" fill="#D9D9D9" fill-opacity="0.3"/>
<path d="M1228.76 471.286L1221.12 471.369L1225.19 493.856L1228.76 471.286Z" stroke="#00BFFF" stroke-opacity="0.4"/>
</g>
<g id="Polygon 17_4">
<path d="M1217.3 513.941L1221.7 488.181L1212.91 488.181L1217.3 513.941Z" fill="#D9D9D9" fill-opacity="0.3"/>
<path d="M1221.11 488.682L1213.5 488.682L1217.3 510.973L1221.11 488.682Z" stroke="#00BFFF" stroke-opacity="0.4"/>
</g>
<g id="Polygon 10_4">
<path d="M1219.95 463.977L1215.55 489.737H1224.35L1219.95 463.977Z" fill="#D9D9D9" fill-opacity="0.3"/>
<path d="M1216.14 489.237H1223.75L1219.95 466.946L1216.14 489.237Z" stroke="#00BFFF" stroke-opacity="0.4"/>
</g>
<g id="Polygon 18_4">
<path d="M1220.59 509.655L1224.99 483.895L1216.19 483.895L1220.59 509.655Z" fill="#D9D9D9" fill-opacity="0.3"/>
<path d="M1224.4 484.396L1216.79 484.396L1220.59 506.687L1224.4 484.396Z" stroke="#00BFFF" stroke-opacity="0.4"/>
</g>
<g id="Polygon 9_4">
<path d="M1216.9 463.046L1211.86 488.689L1220.66 488.907L1216.9 463.046Z" fill="#D9D9D9" fill-opacity="0.3"/>
<path d="M1212.47 488.204L1220.08 488.392L1216.82 466.014L1212.47 488.204Z" stroke="#00BFFF" stroke-opacity="0.4"/>
</g>
<g id="Polygon 19_4">
<path d="M1222.5 521.653L1221.11 493.511L1212.5 495.312L1222.5 521.653Z" fill="#D9D9D9" fill-opacity="0.3"/>
<path d="M1220.64 494.121L1213.17 495.682L1221.84 518.52L1220.64 494.121Z" stroke="#00BFFF" stroke-opacity="0.4"/>
</g>
<g id="Polygon 4_4">
<path d="M1223.52 460.998L1221.53 487.055L1230.29 486.239L1223.52 460.998Z" fill="#D9D9D9" fill-opacity="0.3"/>
<path d="M1222.07 486.502L1229.65 485.796L1223.79 463.954L1222.07 486.502Z" stroke="#00BFFF" stroke-opacity="0.4"/>
</g>
<g id="Polygon 20_4">
<path d="M1217.31 513.676L1220.47 487.734L1211.68 488.156L1217.31 513.676Z" fill="#D9D9D9" fill-opacity="0.3"/>
<path d="M1219.9 488.262L1212.3 488.627L1217.17 510.71L1219.9 488.262Z" stroke="#00BFFF" stroke-opacity="0.4"/>
</g>
<g id="Polygon 8_4">
<path d="M1220.01 460.866L1215.61 486.625H1224.4L1220.01 460.866Z" fill="#D9D9D9" fill-opacity="0.3"/>
<path d="M1216.2 486.125H1223.81L1220.01 463.834L1216.2 486.125Z" stroke="#00BFFF" stroke-opacity="0.4"/>
</g>
<g id="Polygon 12_4">
<path d="M1225 510.578L1231.24 485.202L1222.47 484.568L1225 510.578Z" fill="#D9D9D9" fill-opacity="0.3"/>
<path d="M1230.62 485.659L1223.02 485.11L1225.21 507.617L1230.62 485.659Z" stroke="#00BFFF" stroke-opacity="0.4"/>
</g>
</g>
</g>
<g id="&#230;&#143;&#143;&#231;&#148;&#187;&#228;&#184;&#141;&#232;&#166;&#129;&#227;&#130;&#168;&#227;&#131;&#188;&#227;&#131;&#134;&#227;&#131;&#169;&#227;&#130;&#164;&#227;&#131;&#136;">
<g id="Group 5_5">
<path id="Polygon 22_5" d="M799.617 61.0706L787.705 63.2811L784.763 68.2482L793.006 72.2316H806.227L814.471 68.2482L811.529 63.2811L799.617 61.0706Z" fill="#F0FEFF" fill-opacity="0.4"/>
<path id="Polygon 23_5" d="M799.646 57.0781L787.528 59.3219L784.535 64.3635L792.921 68.4065H806.371L814.758 64.3635L811.765 59.3219L799.646 57.0781Z" fill="#F0FEFF" fill-opacity="0.4"/>
</g>
<g id="Group 2_5">
<g id="Polygon 1_5">
<path d="M799.121 0L794.723 23.9986H803.519L799.121 0Z" fill="#D9D9D9" fill-opacity="0.3"/>
<path d="M795.323 23.499H802.919L799.121 2.77246L795.323 23.499Z" stroke="#00BFFF" stroke-opacity="0.4"/>
</g>
<g id="Polygon 11_5">
<path d="M796.42 63.9963L800.818 38.2363L792.022 38.2363L796.42 63.9963Z" fill="#D9D9D9" fill-opacity="0.3"/>
<path d="M800.226 38.7365L792.614 38.7365L796.42 61.0275L800.226 38.7365Z" stroke="#00BFFF" stroke-opacity="0.4"/>
</g>
<g id="Polygon 2_5">
<path d="M797.329 6.73958L791.051 32.1069L799.824 32.753L797.329 6.73958Z" fill="#D9D9D9" fill-opacity="0.3"/>
<path d="M791.678 31.6515L799.27 32.2107L797.112 9.70035L791.678 31.6515Z" stroke="#00BFFF" stroke-opacity="0.4"/>
</g>
<g id="Polygon 6_5">
<path d="M798.251 2.36206L790.439 33.2806L798.358 34.2518L798.251 2.36206Z" fill="#D9D9D9" fill-opacity="0.3"/>
<path d="M791.063 32.8535L797.856 33.6867L797.764 6.32938L791.063 32.8535Z" stroke="#00BFFF" stroke-opacity="0.4"/>
</g>
<g id="Polygon 13_5">
<path d="M800.413 64.4659L804.811 38.706L796.015 38.706L800.413 64.4659Z" fill="#D9D9D9" fill-opacity="0.3"/>
<path d="M804.219 39.2062L796.607 39.2062L800.412 61.4972L804.219 39.2062Z" stroke="#00BFFF" stroke-opacity="0.4"/>
</g>
<g id="Polygon 5_5">
<path d="M798.744 1.42498L793.242 26.9718L802.03 27.3503L798.744 1.42498Z" fill="#D9D9D9" fill-opacity="0.3"/>
<path d="M793.855 26.4976L801.46 26.8251L798.617 4.391L793.855 26.4976Z" stroke="#00BFFF" stroke-opacity="0.4"/>
</g>
<g id="Polygon 14_5">
<path d="M804.074 63.9667L806.883 31.1371L801.846 31.0924L804.074 63.9667Z" fill="#D9D9D9" fill-opacity="0.3"/>
<path d="M806.34 31.632L802.381 31.5969L804.132 57.422L806.34 31.632Z" stroke="#00BFFF" stroke-opacity="0.4"/>
</g>
<g id="Polygon 15_5">
<path d="M797.614 62.0689L808.626 38.3695L800.139 36.0584L797.614 62.0689Z" fill="#D9D9D9" fill-opacity="0.3"/>
<path d="M807.924 38.6966L800.579 36.6966L798.394 59.2044L807.924 38.6966Z" stroke="#00BFFF" stroke-opacity="0.4"/>
</g>
<g id="Polygon 3_5">
<path d="M800.784 5.46472L796.975 31.3182L805.769 31.1177L800.784 5.46472Z" fill="#D9D9D9" fill-opacity="0.3"/>
<path d="M797.555 30.8047L805.165 30.6311L800.853 8.43268L797.555 30.8047Z" stroke="#00BFFF" stroke-opacity="0.4"/>
</g>
<g id="Polygon 16_5">
<path d="M798.129 61.6495L800.037 40.2571L793.082 40.7737L798.129 61.6495Z" fill="#D9D9D9" fill-opacity="0.3"/>
<path d="M799.486 40.7993L793.707 41.2287L797.902 58.5798L799.486 40.7993Z" stroke="#00BFFF" stroke-opacity="0.4"/>
</g>
<g id="Polygon 7_5">
<path d="M803.583 47.1991L807.701 21.3928L798.905 21.4884L803.583 47.1991Z" fill="#D9D9D9" fill-opacity="0.3"/>
<path d="M807.115 21.8994L799.503 21.9822L803.551 44.2305L807.115 21.8994Z" stroke="#00BFFF" stroke-opacity="0.4"/>
</g>
<g id="Polygon 21_5">
<path d="M803.219 44.8504L807.345 18.7801L798.527 18.8759L803.219 44.8504Z" fill="#D9D9D9" fill-opacity="0.3"/>
<path d="M806.758 19.286L799.124 19.369L803.186 41.8565L806.758 19.286Z" stroke="#00BFFF" stroke-opacity="0.4"/>
</g>
<g id="Polygon 17_5">
<path d="M795.305 61.9413L799.703 36.1813L790.907 36.1813L795.305 61.9413Z" fill="#D9D9D9" fill-opacity="0.3"/>
<path d="M799.111 36.6815L791.499 36.6815L795.304 58.9725L799.111 36.6815Z" stroke="#00BFFF" stroke-opacity="0.4"/>
</g>
<g id="Polygon 10_5">
<path d="M797.947 11.9773L793.549 37.7373H802.345L797.947 11.9773Z" fill="#D9D9D9" fill-opacity="0.3"/>
<path d="M794.141 37.2371H801.753L797.947 14.946L794.141 37.2371Z" stroke="#00BFFF" stroke-opacity="0.4"/>
</g>
<g id="Polygon 18_5">
<path d="M798.593 57.6553L802.991 31.8954L794.194 31.8954L798.593 57.6553Z" fill="#D9D9D9" fill-opacity="0.3"/>
<path d="M802.399 32.3956L794.786 32.3956L798.592 54.6866L802.399 32.3956Z" stroke="#00BFFF" stroke-opacity="0.4"/>
</g>
<g id="Polygon 9_5">
<path d="M794.895 11.046L789.862 36.6893L798.655 36.9068L794.895 11.046Z" fill="#D9D9D9" fill-opacity="0.3"/>
<path d="M790.466 36.2039L798.076 36.3922L794.822 14.0139L790.466 36.2039Z" stroke="#00BFFF" stroke-opacity="0.4"/>
</g>
<g id="Polygon 19_5">
<path d="M800.498 69.6531L799.108 41.5115L790.498 43.3116L800.498 69.6531Z" fill="#D9D9D9" fill-opacity="0.3"/>
<path d="M798.637 42.1211L791.173 43.6817L799.842 66.5198L798.637 42.1211Z" stroke="#00BFFF" stroke-opacity="0.4"/>
</g>
<g id="Polygon 4_5">
<path d="M801.519 8.99843L799.532 35.0555L808.29 34.2387L801.519 8.99843Z" fill="#D9D9D9" fill-opacity="0.3"/>
<path d="M800.075 34.5025L807.654 33.7956L801.795 11.9543L800.075 34.5025Z" stroke="#00BFFF" stroke-opacity="0.4"/>
</g>
<g id="Polygon 20_5">
<path d="M795.311 61.6755L798.469 35.7344L789.683 36.156L795.311 61.6755Z" fill="#D9D9D9" fill-opacity="0.3"/>
<path d="M797.902 36.2624L790.298 36.6272L795.168 58.7102L797.902 36.2624Z" stroke="#00BFFF" stroke-opacity="0.4"/>
</g>
<g id="Polygon 8_5">
<path d="M798.006 8.86554L793.607 34.6255H802.404L798.006 8.86554Z" fill="#D9D9D9" fill-opacity="0.3"/>
<path d="M794.199 34.1253H801.812L798.006 11.8343L794.199 34.1253Z" stroke="#00BFFF" stroke-opacity="0.4"/>
</g>
<g id="Polygon 12_5">
<path d="M802.998 58.578L809.243 33.2024L800.469 32.5679L802.998 58.578Z" fill="#D9D9D9" fill-opacity="0.3"/>
<path d="M808.616 33.6586L801.024 33.1095L803.211 55.6169L808.616 33.6586Z" stroke="#00BFFF" stroke-opacity="0.4"/>
</g>
</g>
</g>
<g id="&#227;&#130;&#180;&#227;&#131;&#150;&#227;&#131;&#172;&#227;&#131;&#131;&#227;&#131;&#136;&#227;&#131;&#147;&#227;&#131;&#165;&#227;&#131;&#188;&#227;&#131;&#136;&#232;&#165;&#191;">
<g id="Group 5_6">
<path id="Polygon 22_6" d="M288.617 636.071L276.705 638.281L273.763 643.248L282.007 647.232H295.228L303.471 643.248L300.529 638.281L288.617 636.071Z" fill="#F0FEFF" fill-opacity="0.4"/>
<path id="Polygon 23_6" d="M288.646 632.078L276.528 634.322L273.535 639.363L281.921 643.407H295.372L303.758 639.363L300.765 634.322L288.646 632.078Z" fill="#F0FEFF" fill-opacity="0.4"/>
</g>
<g id="Group 2_6">
<g id="Polygon 1_6">
<path d="M288.121 575L283.723 598.999H292.52L288.121 575Z" fill="#D9D9D9" fill-opacity="0.3"/>
<path d="M284.323 598.499H291.92L288.122 577.772L284.323 598.499Z" stroke="#00BFFF" stroke-opacity="0.4"/>
</g>
<g id="Polygon 11_6">
<path d="M285.421 638.996L289.819 613.236L281.022 613.236L285.421 638.996Z" fill="#D9D9D9" fill-opacity="0.3"/>
<path d="M289.227 613.736L281.614 613.736L285.42 636.028L289.227 613.736Z" stroke="#00BFFF" stroke-opacity="0.4"/>
</g>
<g id="Polygon 2_6">
<path d="M286.33 581.74L280.051 607.107L288.824 607.753L286.33 581.74Z" fill="#D9D9D9" fill-opacity="0.3"/>
<path d="M280.679 606.652L288.27 607.211L286.112 584.7L280.679 606.652Z" stroke="#00BFFF" stroke-opacity="0.4"/>
</g>
<g id="Polygon 6_6">
<path d="M287.251 577.362L279.44 608.281L287.359 609.252L287.251 577.362Z" fill="#D9D9D9" fill-opacity="0.3"/>
<path d="M280.064 607.854L286.856 608.687L286.764 581.329L280.064 607.854Z" stroke="#00BFFF" stroke-opacity="0.4"/>
</g>
<g id="Polygon 13_6">
<path d="M289.413 639.466L293.811 613.706L285.015 613.706L289.413 639.466Z" fill="#D9D9D9" fill-opacity="0.3"/>
<path d="M293.219 614.206L285.607 614.206L289.413 636.497L293.219 614.206Z" stroke="#00BFFF" stroke-opacity="0.4"/>
</g>
<g id="Polygon 5_6">
<path d="M287.745 576.425L282.242 601.972L291.031 602.35L287.745 576.425Z" fill="#D9D9D9" fill-opacity="0.3"/>
<path d="M282.855 601.498L290.461 601.825L287.618 579.391L282.855 601.498Z" stroke="#00BFFF" stroke-opacity="0.4"/>
</g>
<g id="Polygon 14_6">
<path d="M293.074 638.967L295.884 606.137L290.847 606.092L293.074 638.967Z" fill="#D9D9D9" fill-opacity="0.3"/>
<path d="M295.34 606.632L291.381 606.597L293.132 632.422L295.34 606.632Z" stroke="#00BFFF" stroke-opacity="0.4"/>
</g>
<g id="Polygon 15_6">
<path d="M286.615 637.069L297.626 613.37L289.139 611.058L286.615 637.069Z" fill="#D9D9D9" fill-opacity="0.3"/>
<path d="M296.924 613.697L289.579 611.697L287.394 634.204L296.924 613.697Z" stroke="#00BFFF" stroke-opacity="0.4"/>
</g>
<g id="Polygon 3_6">
<path d="M289.785 580.465L285.975 606.318L294.769 606.118L289.785 580.465Z" fill="#D9D9D9" fill-opacity="0.3"/>
<path d="M286.555 605.805L294.166 605.631L289.853 583.433L286.555 605.805Z" stroke="#00BFFF" stroke-opacity="0.4"/>
</g>
<g id="Polygon 16_6">
<path d="M287.13 636.649L289.037 615.257L282.082 615.774L287.13 636.649Z" fill="#D9D9D9" fill-opacity="0.3"/>
<path d="M288.486 615.799L282.707 616.229L286.902 633.58L288.486 615.799Z" stroke="#00BFFF" stroke-opacity="0.4"/>
</g>
<g id="Polygon 7_6">
<path d="M292.584 622.199L296.702 596.393L287.906 596.488L292.584 622.199Z" fill="#D9D9D9" fill-opacity="0.3"/>
<path d="M296.115 596.899L288.503 596.982L292.551 619.23L296.115 596.899Z" stroke="#00BFFF" stroke-opacity="0.4"/>
</g>
<g id="Polygon 21_6">
<path d="M292.219 619.85L296.345 593.78L287.527 593.876L292.219 619.85Z" fill="#D9D9D9" fill-opacity="0.3"/>
<path d="M295.758 594.286L288.124 594.369L292.186 616.856L295.758 594.286Z" stroke="#00BFFF" stroke-opacity="0.4"/>
</g>
<g id="Polygon 17_6">
<path d="M284.305 636.941L288.703 611.181L279.907 611.181L284.305 636.941Z" fill="#D9D9D9" fill-opacity="0.3"/>
<path d="M288.111 611.682L280.499 611.682L284.305 633.973L288.111 611.682Z" stroke="#00BFFF" stroke-opacity="0.4"/>
</g>
<g id="Polygon 10_6">
<path d="M286.947 586.977L282.549 612.737H291.345L286.947 586.977Z" fill="#D9D9D9" fill-opacity="0.3"/>
<path d="M283.141 612.237H290.753L286.948 589.946L283.141 612.237Z" stroke="#00BFFF" stroke-opacity="0.4"/>
</g>
<g id="Polygon 18_6">
<path d="M287.593 632.655L291.991 606.895L283.195 606.895L287.593 632.655Z" fill="#D9D9D9" fill-opacity="0.3"/>
<path d="M291.399 607.396L283.787 607.396L287.593 629.687L291.399 607.396Z" stroke="#00BFFF" stroke-opacity="0.4"/>
</g>
<g id="Polygon 9_6">
<path d="M283.896 586.046L278.862 611.689L287.656 611.907L283.896 586.046Z" fill="#D9D9D9" fill-opacity="0.3"/>
<path d="M279.466 611.204L287.076 611.392L283.823 589.014L279.466 611.204Z" stroke="#00BFFF" stroke-opacity="0.4"/>
</g>
<g id="Polygon 19_6">
<path d="M289.498 644.653L288.108 616.511L279.498 618.312L289.498 644.653Z" fill="#D9D9D9" fill-opacity="0.3"/>
<path d="M287.638 617.121L280.173 618.682L288.843 641.52L287.638 617.121Z" stroke="#00BFFF" stroke-opacity="0.4"/>
</g>
<g id="Polygon 4_6">
<path d="M290.519 583.998L288.532 610.055L297.29 609.239L290.519 583.998Z" fill="#D9D9D9" fill-opacity="0.3"/>
<path d="M289.075 609.502L296.654 608.796L290.795 586.954L289.075 609.502Z" stroke="#00BFFF" stroke-opacity="0.4"/>
</g>
<g id="Polygon 20_6">
<path d="M284.311 636.676L287.47 610.734L278.683 611.156L284.311 636.676Z" fill="#D9D9D9" fill-opacity="0.3"/>
<path d="M286.902 611.262L279.299 611.627L284.168 633.71L286.902 611.262Z" stroke="#00BFFF" stroke-opacity="0.4"/>
</g>
<g id="Polygon 8_6">
<path d="M287.006 583.866L282.608 609.625H291.404L287.006 583.866Z" fill="#D9D9D9" fill-opacity="0.3"/>
<path d="M283.2 609.125H290.812L287.006 586.834L283.2 609.125Z" stroke="#00BFFF" stroke-opacity="0.4"/>
</g>
<g id="Polygon 12_6">
<path d="M291.998 633.578L298.243 608.202L289.469 607.568L291.998 633.578Z" fill="#D9D9D9" fill-opacity="0.3"/>
<path d="M297.616 608.659L290.024 608.11L292.212 630.617L297.616 608.659Z" stroke="#00BFFF" stroke-opacity="0.4"/>
</g>
</g>
</g>
<g id="&#227;&#131;&#138;&#227;&#131;&#138;&#227;&#131;&#162;&#229;&#164;&#167;&#233;&#162;&#168;&#232;&#187;&#138;">
<g id="Group 5_7">
<path id="Polygon 22_7" d="M336.617 1179.07L324.705 1181.28L321.763 1186.25L330.006 1190.23H343.228L351.471 1186.25L348.529 1181.28L336.617 1179.07Z" fill="#F0FEFF" fill-opacity="0.4"/>
<path id="Polygon 23_7" d="M336.646 1175.08L324.528 1177.32L321.535 1182.36L329.921 1186.41H343.372L351.758 1182.36L348.765 1177.32L336.646 1175.08Z" fill="#F0FEFF" fill-opacity="0.4"/>
</g>
<g id="Group 2_7">
<g id="Polygon 1_7">
<path d="M336.121 1118L331.723 1142H340.519L336.121 1118Z" fill="#D9D9D9" fill-opacity="0.3"/>
<path d="M332.323 1141.5H339.92L336.122 1120.77L332.323 1141.5Z" stroke="#00BFFF" stroke-opacity="0.4"/>
</g>
<g id="Polygon 11_7">
<path d="M333.421 1182L337.819 1156.24L329.022 1156.24L333.421 1182Z" fill="#D9D9D9" fill-opacity="0.3"/>
<path d="M337.227 1156.74L329.614 1156.74L333.42 1179.03L337.227 1156.74Z" stroke="#00BFFF" stroke-opacity="0.4"/>
</g>
<g id="Polygon 2_7">
<path d="M334.33 1124.74L328.051 1150.11L336.824 1150.75L334.33 1124.74Z" fill="#D9D9D9" fill-opacity="0.3"/>
<path d="M328.678 1149.65L336.27 1150.21L334.112 1127.7L328.678 1149.65Z" stroke="#00BFFF" stroke-opacity="0.4"/>
</g>
<g id="Polygon 6_7">
<path d="M335.251 1120.36L327.44 1151.28L335.359 1152.25L335.251 1120.36Z" fill="#D9D9D9" fill-opacity="0.3"/>
<path d="M328.064 1150.85L334.856 1151.69L334.764 1124.33L328.064 1150.85Z" stroke="#00BFFF" stroke-opacity="0.4"/>
</g>
<g id="Polygon 13_7">
<path d="M337.413 1182.47L341.811 1156.71L333.015 1156.71L337.413 1182.47Z" fill="#D9D9D9" fill-opacity="0.3"/>
<path d="M341.219 1157.21L333.607 1157.21L337.412 1179.5L341.219 1157.21Z" stroke="#00BFFF" stroke-opacity="0.4"/>
</g>
<g id="Polygon 5_7">
<path d="M335.745 1119.42L330.242 1144.97L339.03 1145.35L335.745 1119.42Z" fill="#D9D9D9" fill-opacity="0.3"/>
<path d="M330.855 1144.5L338.46 1144.83L335.617 1122.39L330.855 1144.5Z" stroke="#00BFFF" stroke-opacity="0.4"/>
</g>
<g id="Polygon 14_7">
<path d="M341.074 1181.97L343.884 1149.14L338.847 1149.09L341.074 1181.97Z" fill="#D9D9D9" fill-opacity="0.3"/>
<path d="M343.34 1149.63L339.381 1149.6L341.132 1175.42L343.34 1149.63Z" stroke="#00BFFF" stroke-opacity="0.4"/>
</g>
<g id="Polygon 15_7">
<path d="M334.615 1180.07L345.626 1156.37L337.139 1154.06L334.615 1180.07Z" fill="#D9D9D9" fill-opacity="0.3"/>
<path d="M344.924 1156.7L337.579 1154.7L335.394 1177.2L344.924 1156.7Z" stroke="#00BFFF" stroke-opacity="0.4"/>
</g>
<g id="Polygon 3_7">
<path d="M337.785 1123.46L333.975 1149.32L342.769 1149.12L337.785 1123.46Z" fill="#D9D9D9" fill-opacity="0.3"/>
<path d="M334.555 1148.8L342.166 1148.63L337.853 1126.43L334.555 1148.8Z" stroke="#00BFFF" stroke-opacity="0.4"/>
</g>
<g id="Polygon 16_7">
<path d="M335.13 1179.65L337.037 1158.26L330.082 1158.77L335.13 1179.65Z" fill="#D9D9D9" fill-opacity="0.3"/>
<path d="M336.486 1158.8L330.707 1159.23L334.902 1176.58L336.486 1158.8Z" stroke="#00BFFF" stroke-opacity="0.4"/>
</g>
<g id="Polygon 7_7">
<path d="M340.584 1165.2L344.702 1139.39L335.906 1139.49L340.584 1165.2Z" fill="#D9D9D9" fill-opacity="0.3"/>
<path d="M344.115 1139.9L336.503 1139.98L340.551 1162.23L344.115 1139.9Z" stroke="#00BFFF" stroke-opacity="0.4"/>
</g>
<g id="Polygon 21_7">
<path d="M340.219 1162.85L344.345 1136.78L335.527 1136.88L340.219 1162.85Z" fill="#D9D9D9" fill-opacity="0.3"/>
<path d="M343.758 1137.29L336.124 1137.37L340.186 1159.86L343.758 1137.29Z" stroke="#00BFFF" stroke-opacity="0.4"/>
</g>
<g id="Polygon 17_7">
<path d="M332.305 1179.94L336.703 1154.18L327.907 1154.18L332.305 1179.94Z" fill="#D9D9D9" fill-opacity="0.3"/>
<path d="M336.111 1154.68L328.499 1154.68L332.305 1176.97L336.111 1154.68Z" stroke="#00BFFF" stroke-opacity="0.4"/>
</g>
<g id="Polygon 10_7">
<path d="M334.947 1129.98L330.549 1155.74H339.345L334.947 1129.98Z" fill="#D9D9D9" fill-opacity="0.3"/>
<path d="M331.141 1155.24H338.753L334.948 1132.95L331.141 1155.24Z" stroke="#00BFFF" stroke-opacity="0.4"/>
</g>
<g id="Polygon 18_7">
<path d="M335.593 1175.66L339.991 1149.9L331.195 1149.9L335.593 1175.66Z" fill="#D9D9D9" fill-opacity="0.3"/>
<path d="M339.399 1150.4L331.787 1150.4L335.592 1172.69L339.399 1150.4Z" stroke="#00BFFF" stroke-opacity="0.4"/>
</g>
<g id="Polygon 9_7">
<path d="M331.896 1129.05L326.862 1154.69L335.656 1154.91L331.896 1129.05Z" fill="#D9D9D9" fill-opacity="0.3"/>
<path d="M327.466 1154.2L335.076 1154.39L331.823 1132.01L327.466 1154.2Z" stroke="#00BFFF" stroke-opacity="0.4"/>
</g>
<g id="Polygon 19_7">
<path d="M337.498 1187.65L336.108 1159.51L327.498 1161.31L337.498 1187.65Z" fill="#D9D9D9" fill-opacity="0.3"/>
<path d="M335.638 1160.12L328.173 1161.68L336.843 1184.52L335.638 1160.12Z" stroke="#00BFFF" stroke-opacity="0.4"/>
</g>
<g id="Polygon 4_7">
<path d="M338.519 1127L336.532 1153.06L345.29 1152.24L338.519 1127Z" fill="#D9D9D9" fill-opacity="0.3"/>
<path d="M337.075 1152.5L344.654 1151.8L338.795 1129.95L337.075 1152.5Z" stroke="#00BFFF" stroke-opacity="0.4"/>
</g>
<g id="Polygon 20_7">
<path d="M332.311 1179.68L335.469 1153.73L326.683 1154.16L332.311 1179.68Z" fill="#D9D9D9" fill-opacity="0.3"/>
<path d="M334.902 1154.26L327.299 1154.63L332.168 1176.71L334.902 1154.26Z" stroke="#00BFFF" stroke-opacity="0.4"/>
</g>
<g id="Polygon 8_7">
<path d="M335.006 1126.87L330.608 1152.63H339.404L335.006 1126.87Z" fill="#D9D9D9" fill-opacity="0.3"/>
<path d="M331.2 1152.13H338.812L335.006 1129.83L331.2 1152.13Z" stroke="#00BFFF" stroke-opacity="0.4"/>
</g>
<g id="Polygon 12_7">
<path d="M339.998 1176.58L346.243 1151.2L337.469 1150.57L339.998 1176.58Z" fill="#D9D9D9" fill-opacity="0.3"/>
<path d="M345.616 1151.66L338.024 1151.11L340.212 1173.62L345.616 1151.66Z" stroke="#00BFFF" stroke-opacity="0.4"/>
</g>
</g>
</g>
<g id="&#227;&#130;&#180;&#227;&#131;&#150;&#227;&#131;&#172;&#227;&#131;&#131;&#227;&#131;&#136;&#229;&#184;&#130;&#229;&#160;&#180;">
<g id="Group 5_8">
<path id="Polygon 22_8" d="M694.617 324.071L682.705 326.281L679.763 331.248L688.006 335.232H701.227L709.471 331.248L706.529 326.281L694.617 324.071Z" fill="#F0FEFF" fill-opacity="0.4"/>
<path id="Polygon 23_8" d="M694.646 320.078L682.528 322.322L679.535 327.363L687.921 331.407H701.371L709.758 327.363L706.765 322.322L694.646 320.078Z" fill="#F0FEFF" fill-opacity="0.4"/>
</g>
<g id="Group 2_8">
<g id="Polygon 1_8">
<path d="M694.121 263L689.723 286.999H698.519L694.121 263Z" fill="#D9D9D9" fill-opacity="0.3"/>
<path d="M690.323 286.499H697.919L694.122 265.772L690.323 286.499Z" stroke="#00BFFF" stroke-opacity="0.4"/>
</g>
<g id="Polygon 11_8">
<path d="M691.42 326.996L695.818 301.236L687.022 301.236L691.42 326.996Z" fill="#D9D9D9" fill-opacity="0.3"/>
<path d="M695.226 301.736L687.614 301.736L691.42 324.027L695.226 301.736Z" stroke="#00BFFF" stroke-opacity="0.4"/>
</g>
<g id="Polygon 2_8">
<path d="M692.329 269.74L686.051 295.107L694.824 295.753L692.329 269.74Z" fill="#D9D9D9" fill-opacity="0.3"/>
<path d="M686.678 294.652L694.27 295.211L692.112 272.7L686.678 294.652Z" stroke="#00BFFF" stroke-opacity="0.4"/>
</g>
<g id="Polygon 6_8">
<path d="M693.251 265.362L685.44 296.281L693.358 297.252L693.251 265.362Z" fill="#D9D9D9" fill-opacity="0.3"/>
<path d="M686.063 295.854L692.856 296.687L692.764 269.329L686.063 295.854Z" stroke="#00BFFF" stroke-opacity="0.4"/>
</g>
<g id="Polygon 13_8">
<path d="M695.413 327.466L699.811 301.706L691.015 301.706L695.413 327.466Z" fill="#D9D9D9" fill-opacity="0.3"/>
<path d="M699.219 302.206L691.607 302.206L695.412 324.497L699.219 302.206Z" stroke="#00BFFF" stroke-opacity="0.4"/>
</g>
<g id="Polygon 5_8">
<path d="M693.744 264.425L688.242 289.972L697.03 290.35L693.744 264.425Z" fill="#D9D9D9" fill-opacity="0.3"/>
<path d="M688.855 289.498L696.46 289.825L693.617 267.391L688.855 289.498Z" stroke="#00BFFF" stroke-opacity="0.4"/>
</g>
<g id="Polygon 14_8">
<path d="M699.074 326.967L701.883 294.137L696.846 294.092L699.074 326.967Z" fill="#D9D9D9" fill-opacity="0.3"/>
<path d="M701.34 294.632L697.381 294.597L699.132 320.422L701.34 294.632Z" stroke="#00BFFF" stroke-opacity="0.4"/>
</g>
<g id="Polygon 15_8">
<path d="M692.614 325.069L703.626 301.37L695.139 299.058L692.614 325.069Z" fill="#D9D9D9" fill-opacity="0.3"/>
<path d="M702.924 301.697L695.579 299.697L693.394 322.204L702.924 301.697Z" stroke="#00BFFF" stroke-opacity="0.4"/>
</g>
<g id="Polygon 3_8">
<path d="M695.784 268.465L691.975 294.318L700.769 294.118L695.784 268.465Z" fill="#D9D9D9" fill-opacity="0.3"/>
<path d="M692.555 293.805L700.165 293.631L695.853 271.433L692.555 293.805Z" stroke="#00BFFF" stroke-opacity="0.4"/>
</g>
<g id="Polygon 16_8">
<path d="M693.129 324.649L695.037 303.257L688.082 303.774L693.129 324.649Z" fill="#D9D9D9" fill-opacity="0.3"/>
<path d="M694.486 303.799L688.707 304.229L692.902 321.58L694.486 303.799Z" stroke="#00BFFF" stroke-opacity="0.4"/>
</g>
<g id="Polygon 7_8">
<path d="M698.583 310.199L702.701 284.393L693.906 284.488L698.583 310.199Z" fill="#D9D9D9" fill-opacity="0.3"/>
<path d="M702.115 284.899L694.503 284.982L698.551 307.23L702.115 284.899Z" stroke="#00BFFF" stroke-opacity="0.4"/>
</g>
<g id="Polygon 21_8">
<path d="M698.219 307.85L702.345 281.78L693.527 281.876L698.219 307.85Z" fill="#D9D9D9" fill-opacity="0.3"/>
<path d="M701.758 282.286L694.124 282.369L698.186 304.856L701.758 282.286Z" stroke="#00BFFF" stroke-opacity="0.4"/>
</g>
<g id="Polygon 17_8">
<path d="M690.305 324.941L694.703 299.181L685.907 299.181L690.305 324.941Z" fill="#D9D9D9" fill-opacity="0.3"/>
<path d="M694.111 299.682L686.499 299.682L690.304 321.973L694.111 299.682Z" stroke="#00BFFF" stroke-opacity="0.4"/>
</g>
<g id="Polygon 10_8">
<path d="M692.947 274.977L688.549 300.737H697.345L692.947 274.977Z" fill="#D9D9D9" fill-opacity="0.3"/>
<path d="M689.141 300.237H696.753L692.947 277.946L689.141 300.237Z" stroke="#00BFFF" stroke-opacity="0.4"/>
</g>
<g id="Polygon 18_8">
<path d="M693.593 320.655L697.991 294.895L689.195 294.895L693.593 320.655Z" fill="#D9D9D9" fill-opacity="0.3"/>
<path d="M697.399 295.396L689.787 295.396L693.592 317.687L697.399 295.396Z" stroke="#00BFFF" stroke-opacity="0.4"/>
</g>
<g id="Polygon 9_8">
<path d="M689.895 274.046L684.862 299.689L693.655 299.907L689.895 274.046Z" fill="#D9D9D9" fill-opacity="0.3"/>
<path d="M685.466 299.204L693.076 299.392L689.822 277.014L685.466 299.204Z" stroke="#00BFFF" stroke-opacity="0.4"/>
</g>
<g id="Polygon 19_8">
<path d="M695.498 332.653L694.108 304.511L685.498 306.312L695.498 332.653Z" fill="#D9D9D9" fill-opacity="0.3"/>
<path d="M693.637 305.121L686.173 306.682L694.842 329.52L693.637 305.121Z" stroke="#00BFFF" stroke-opacity="0.4"/>
</g>
<g id="Polygon 4_8">
<path d="M696.519 271.998L694.532 298.055L703.29 297.239L696.519 271.998Z" fill="#D9D9D9" fill-opacity="0.3"/>
<path d="M695.075 297.502L702.654 296.796L696.795 274.954L695.075 297.502Z" stroke="#00BFFF" stroke-opacity="0.4"/>
</g>
<g id="Polygon 20_8">
<path d="M690.311 324.676L693.469 298.734L684.683 299.156L690.311 324.676Z" fill="#D9D9D9" fill-opacity="0.3"/>
<path d="M692.902 299.262L685.298 299.627L690.168 321.71L692.902 299.262Z" stroke="#00BFFF" stroke-opacity="0.4"/>
</g>
<g id="Polygon 8_8">
<path d="M693.006 271.866L688.607 297.625H697.404L693.006 271.866Z" fill="#D9D9D9" fill-opacity="0.3"/>
<path d="M689.199 297.125H696.812L693.006 274.834L689.199 297.125Z" stroke="#00BFFF" stroke-opacity="0.4"/>
</g>
<g id="Polygon 12_8">
<path d="M697.998 321.578L704.243 296.202L695.469 295.568L697.998 321.578Z" fill="#D9D9D9" fill-opacity="0.3"/>
<path d="M703.616 296.659L696.024 296.109L698.211 318.617L703.616 296.659Z" stroke="#00BFFF" stroke-opacity="0.4"/>
</g>
</g>
</g>
</g>
<path id="&#227;&#131;&#138;&#227;&#131;&#147;&#227;&#130;&#178;&#227;&#131;&#188;&#227;&#130;&#183;&#227;&#131;&#167;&#227;&#131;&#179;&#231;&#148;&#168;&#233;&#129;&#147;&#232;&#183;&#175;" d="M308.146 1045L208.146 1054.5L154.752 847M308.146 1045L385.646 1180.5V1383C539.392 1478.18 607.462 1463.2 700.646 1330L739.646 1327.5V1237.5H779.146V1311L1101.65 1157.5L1176.15 1178.5L1224.65 1065.5M308.146 1045L360.646 1014L305.146 829.5M1224.65 1065.5H1329.15M1224.65 1065.5L1149.15 1018.5L1171.15 951L1153.15 862.5M1436.65 912.5L1433.65 1065.5H1329.15M1329.15 1065.5V766.5M1329.15 766.5L1418.65 762.5V632L1380.65 628.5L1317.65 509L1211.65 526.5M1329.15 766.5L1278.15 760.75M1211.65 526.5L1120.65 441.5L976.646 526.5M1211.65 526.5L1162.15 603.5H1211.65L1240.15 676L1259.15 680.5L1278.15 760.75M976.646 526.5L739.646 428M976.646 526.5L973.146 539L909.146 629.5L947.646 746.5M739.646 428L738.646 288L500.146 314.5L416.646 222L276.646 314.5L229.646 290L98.6461 492.5L129.646 540.5L73.6461 641.5L37.6461 788L146.646 815.5L154.752 847M739.646 428L599.646 440.5L351.646 632V762.5M739.646 428V565L679.146 594L587.146 689.5L665.646 788.5M351.646 762.5L498.646 745.5L549.146 670L486.146 600.5M351.646 762.5L305.146 829.5M305.146 829.5L154.752 847M665.646 788.5L639.146 820.5M665.646 788.5L883.146 944M883.146 944L779.146 1094H741.146V915.5M883.146 944L947.646 964.5V746.5M947.646 746.5H1082.15M1153.15 862.5H1082.15V746.5L1070.65 716M1153.15 862.5L1176.15 766.5L1227.15 755L1278.15 760.75" stroke="#FF0000"/>
<g id="Node">
<circle id="node_16" cx="737.146" cy="427" r="27.5" stroke="#FF0000"/>
<circle id="node_15" cx="976.146" cy="527" r="27.5" stroke="#FF0000"/>
<circle id="node_14" cx="1080.15" cy="740" r="27.5" stroke="#FF0000"/>
<circle id="node_13" cx="1152.15" cy="863" r="27.5" stroke="#FF0000"/>
<circle id="node_12" cx="1217.15" cy="1062" r="27.5" stroke="#FF0000"/>
<circle id="node_11" cx="1330.15" cy="1062" r="27.5" stroke="#FF0000"/>
<circle id="node_10" cx="1328.15" cy="766" r="27.5" stroke="#FF0000"/>
<circle id="node_9" cx="948.146" cy="744" r="27.5" stroke="#FF0000"/>
<circle id="node_8" cx="885.146" cy="942" r="27.5" stroke="#FF0000"/>
<circle id="node_7" cx="1275.15" cy="756" r="27.5" stroke="#FF0000"/>
<circle id="node_6" cx="1212.15" cy="525" r="27.5" stroke="#FF0000"/>
<circle id="node_5" cx="661.146" cy="788" r="27.5" stroke="#FF0000"/>
<circle id="node_4" cx="355.146" cy="756" r="27.5" stroke="#FF0000"/>
<circle id="node_3" cx="311.146" cy="830" r="27.5" stroke="#FF0000"/>
<circle id="node_2" cx="152.146" cy="844" r="27.5" stroke="#FF0000"/>
<circle id="node_1" cx="309.146" cy="1043" r="27.5" stroke="#FF0000"/>
</g>
</g>
</svg>
