<svg width="1433" height="1630" viewBox="0 0 1433 1630" fill="none" xmlns="http://www.w3.org/2000/svg">
<g id="Group 13">
<g id="&#233;&#129;&#147;&#232;&#183;&#175;(Stroke)">
<mask id="path-1-inside-1_49_783" fill="white">
<path d="M1151.55 499.489C1149.54 501.221 1148.52 503.835 1148.82 506.468L1174 723.646L1175.98 740.725C1176.54 745.476 1172.82 749.646 1168.04 749.646H1040.23C1037.01 749.646 1034.11 751.571 1032.86 754.534L939.146 976.415C938.132 978.817 938.351 981.562 939.734 983.772L1022.59 1116.15C1024.51 1119.22 1024.12 1123.21 1021.65 1125.85L939.751 1213.4C938.029 1215.24 937.275 1217.78 937.716 1220.26L954.897 1316.85C955.512 1320.3 953.801 1323.76 950.679 1325.36L836.634 1384.02C833.968 1385.39 832.292 1388.13 832.292 1391.13V1421.15C832.292 1425.56 828.711 1429.15 824.292 1429.15H686.292C681.874 1429.15 678.292 1425.56 678.292 1421.15V1347.9C678.292 1343.48 674.711 1339.9 670.292 1339.9H403.792C399.374 1339.9 395.792 1343.48 395.792 1347.9V1417.65C395.792 1422.06 399.374 1425.65 403.792 1425.65H541.292C545.711 1425.65 549.292 1429.23 549.292 1433.65V1437.65C549.292 1442.06 545.711 1445.65 541.292 1445.65H383.792C379.374 1445.65 375.792 1442.06 375.792 1437.65V1236.06C375.792 1232.85 373.874 1229.95 370.92 1228.69L267.201 1184.64C263.391 1183.02 261.444 1178.76 262.714 1174.82L285.036 1105.53C285.674 1103.55 285.516 1101.4 284.595 1099.53L126.901 780.188C124.276 774.871 128.145 768.646 134.074 768.646H198.792C203.211 768.646 206.792 765.064 206.792 760.646V757.646C206.792 753.228 203.211 749.646 198.792 749.646H122.292C117.874 749.646 114.292 746.064 114.292 741.646V710.261C114.292 707.596 112.947 705.098 110.744 703.598C44.4941 658.483 8.65723 616.24 1.3833 565.36C-6.07568 513.186 17.0996 454.991 59.5981 380.206L60.1731 379.194C61.5948 376.692 64.2509 375.146 67.1287 375.146H267.937C269.351 375.146 270.739 374.772 271.96 374.061L394.668 302.666C397.51 301.013 399.05 297.79 398.553 294.541L385.133 206.863C384.51 202.789 387.083 198.909 391.078 197.897L625.263 138.628C628.152 137.897 630.395 135.62 631.084 132.72L655.032 31.8618C656.063 27.5196 660.448 24.8607 664.775 25.9535L813.507 63.5174C814.212 63.6955 814.89 63.9689 815.521 64.33L906.442 116.35C909.109 117.876 912.415 117.739 914.947 115.999L954.718 88.6556C957.364 86.8369 960.84 86.7757 963.548 88.5L1172.81 221.759C1176.47 224.09 1177.6 228.916 1175.37 232.634L1152.26 271.002C1150.66 273.66 1150.74 277.005 1152.47 279.582L1241.59 412.55C1243.84 415.909 1243.23 420.421 1240.16 423.062L1151.55 499.489ZM1003.89 606.737C1003.74 605.278 1003.18 603.891 1002.29 602.726L819.762 364.777C818.248 362.803 815.902 361.646 813.415 361.646H708.778C703.951 361.646 700.224 365.888 700.844 370.675L716.174 488.869C716.467 491.129 717.709 493.156 719.59 494.443L776.945 533.686C780.055 535.814 784.229 535.483 786.965 532.892L846.607 476.388C849.814 473.35 854.878 473.487 857.917 476.694L860.668 479.598C863.706 482.806 863.569 487.869 860.362 490.908L788.998 558.516C786.262 561.108 782.089 561.439 778.978 559.311L700.907 505.894C699.027 504.607 697.784 502.58 697.491 500.32L679.379 360.659C679.094 358.468 677.916 356.491 676.123 355.199L625.153 318.453C623.134 316.998 620.552 316.565 618.168 317.283L439.051 371.211C435.303 372.339 431.289 370.59 429.564 367.077L409.83 326.892C407.785 322.727 402.637 321.17 398.626 323.503L277.355 394.061C276.133 394.772 274.745 395.146 273.332 395.146H78.8118C75.9202 395.146 73.2418 396.723 71.8359 399.25C32.8468 469.333 15.0466 519.613 21.1821 562.53C27.4781 606.568 59.5717 645.908 129.804 692.302L130.702 692.895C132.944 694.376 134.292 696.884 134.292 699.57V721.646C134.292 726.064 137.874 729.646 142.292 729.646H218.792C223.211 729.646 226.792 733.228 226.792 737.646V780.646C226.792 785.064 223.211 788.646 218.792 788.646H166.256C160.326 788.646 156.457 794.871 159.083 800.188L306.118 1097.95C307.039 1099.81 307.198 1101.96 306.56 1103.94L287.355 1163.56C286.086 1167.5 288.032 1171.75 291.842 1173.37L375.593 1208.95C379.207 1210.48 383.401 1209.17 385.492 1205.85L425.652 1142.01C427.591 1138.93 431.368 1137.55 434.84 1138.65L502.82 1160.19C504.129 1160.6 505.523 1160.67 506.868 1160.39L571.924 1146.84C575.634 1146.07 578.292 1142.8 578.292 1139.01V1081.15C578.292 1076.73 581.874 1073.15 586.292 1073.15H689.292C693.711 1073.15 697.292 1069.56 697.292 1065.15V965.646C697.292 961.228 693.711 957.646 689.292 957.646H483.453C477.919 957.646 474.056 952.162 475.92 946.951L494.304 895.561C495.507 892.198 494.335 888.445 491.431 886.364L351.632 786.176C349.536 784.674 348.292 782.253 348.292 779.674V737.646C348.292 733.228 351.874 729.646 356.292 729.646H541.292C545.711 729.646 549.292 733.228 549.292 737.646V741.646C549.292 746.064 545.711 749.646 541.292 749.646H376.292C371.874 749.646 368.292 753.228 368.292 757.646V769.401C368.292 771.981 369.536 774.402 371.632 775.904L499.445 867.502C503.044 870.081 508.052 869.247 510.621 865.641L646.64 674.692C649.035 671.329 648.479 666.696 645.355 663.997L623.307 644.943C619.964 642.055 619.596 637.003 622.485 633.66L625.101 630.632C627.99 627.29 633.041 626.922 636.384 629.81L659.315 649.627C662.27 652.181 666.637 652.227 669.646 649.738L757.794 576.802C760.931 574.208 765.515 574.381 768.446 577.206L866.504 671.708C867.223 672.402 867.806 673.223 868.223 674.131L891.565 724.984C892.87 727.825 895.71 729.646 898.836 729.646H1008.25C1013 729.646 1016.71 725.518 1016.2 720.788L1003.89 606.737ZM680.627 1189.64C680.043 1186.49 677.64 1184 674.517 1183.3L589.903 1164.26C588.789 1164.01 587.634 1164 586.516 1164.23L505.819 1181.04C504.474 1181.32 503.08 1181.25 501.771 1180.84L443.535 1162.38C440.063 1161.28 436.286 1162.66 434.347 1165.75L397.021 1225.08C396.218 1226.35 395.792 1227.83 395.792 1229.34V1311.9C395.792 1316.31 399.374 1319.9 403.792 1319.9H671.767C675.921 1319.9 679.384 1316.72 679.738 1312.58L687.122 1226.22C687.183 1225.5 687.148 1224.78 687.017 1224.08L680.627 1189.64ZM599.156 175.238C598.615 170.419 593.945 167.185 589.243 168.375L413.597 212.828C409.602 213.839 407.028 217.72 407.652 221.794L419.76 300.902C419.883 301.707 420.128 302.488 420.487 303.218L440.04 343.036C441.765 346.549 445.779 348.298 449.527 347.17L606.539 299.897C610.238 298.784 612.613 295.185 612.182 291.345L599.156 175.238ZM886.01 749.646C882.883 749.646 880.043 747.825 878.739 744.983L851.624 685.909C851.208 685.001 850.624 684.179 849.905 683.486L767.431 604.003C764.5 601.179 759.916 601.005 756.78 603.6L672.483 673.349C671.947 673.793 671.471 674.304 671.067 674.871L517.886 889.914C517.459 890.513 517.117 891.168 516.869 891.861L504.316 926.952C502.452 932.162 506.315 937.646 511.849 937.646H704.325C705.199 937.646 706.067 937.503 706.895 937.222L820.038 898.852C822.445 898.035 825.097 898.411 827.182 899.865L913.782 960.235C917.955 963.144 923.748 961.47 925.727 956.784L1008.52 760.759C1010.75 755.485 1006.88 749.646 1001.15 749.646H886.01ZM1128.78 280.158C1127.05 277.58 1126.97 274.235 1128.57 271.577L1148.17 239.025C1150.41 235.307 1149.28 230.482 1145.61 228.151L963.971 112.479C961.263 110.755 957.787 110.816 955.141 112.635L915.922 139.598C913.39 141.339 910.084 141.476 907.417 139.95L807.966 83.0498C807.335 82.6886 806.658 82.4152 805.953 82.2371L679.547 50.3119C675.22 49.2191 670.836 51.878 669.804 56.2202L647.742 149.136C647.053 152.035 644.81 154.312 641.921 155.043L624.468 159.46C620.592 160.441 618.035 164.134 618.481 168.108L632.841 296.103C633.093 298.347 634.281 300.38 636.113 301.7L689.426 340.135C690.788 341.118 692.425 341.646 694.104 341.646H823.279C825.767 341.646 828.113 342.803 829.627 344.777L1021.57 595.005C1022.46 596.169 1023.02 597.556 1023.17 599.015L1036.5 722.504C1036.94 726.567 1040.37 729.646 1044.46 729.646H1145.59C1150.37 729.646 1154.08 725.476 1153.53 720.725L1127.74 498.245C1127.43 495.611 1128.45 492.997 1130.46 491.265L1213.69 419.484C1216.75 416.843 1217.36 412.331 1215.11 408.972L1128.78 280.158ZM917.754 1222.24C917.382 1220.15 916.195 1218.29 914.454 1217.08L871.564 1187.16C865.966 1183.26 858.363 1187.71 859.025 1194.5L860.896 1213.72C861.25 1217.36 859.093 1220.78 855.655 1222.02L788.792 1246.21C785.911 1247.26 783.879 1249.85 783.558 1252.9L782.587 1262.13C782.226 1265.55 779.715 1268.36 776.352 1269.1L707.879 1284.19C704.459 1284.94 701.927 1287.83 701.629 1291.32L698.292 1330.33V1401.15C698.292 1405.56 701.874 1409.15 706.292 1409.15H804.292C808.711 1409.15 812.292 1405.56 812.292 1401.15V1378.93C812.292 1375.93 813.968 1373.18 816.634 1371.81L928.403 1314.33C931.525 1312.72 933.235 1309.27 932.62 1305.82L917.754 1222.24ZM606.292 1093.15C601.874 1093.15 598.292 1096.73 598.292 1101.15V1139.25C598.292 1142.99 600.886 1146.23 604.536 1147.05L691.774 1166.68C694.897 1167.38 697.3 1169.88 697.884 1173.02L707.174 1223.09C707.305 1223.79 707.341 1224.51 707.279 1225.23L704.841 1253.75C704.381 1259.12 709.265 1263.4 714.533 1262.24L757.971 1252.67C761.334 1251.93 763.845 1249.12 764.206 1245.7L764.978 1238.35C765.299 1235.31 767.331 1232.71 770.212 1231.67L834.245 1208.5C837.682 1207.26 839.84 1203.84 839.485 1200.2L834.92 1153.3C834.258 1146.51 841.861 1142.06 847.459 1145.96L919.224 1196.02C922.487 1198.3 926.926 1197.83 929.643 1194.93L996.532 1123.42C999.01 1120.78 999.396 1116.79 997.471 1113.72L919.765 989.566C919.194 988.652 918.443 987.864 917.559 987.247L824.036 922.051C821.951 920.597 819.299 920.221 816.892 921.037L722.723 952.973C719.477 954.074 717.292 957.121 717.292 960.549V1055.66C717.292 1061.43 723.205 1065.3 728.489 1063L734.963 1060.18C739.013 1058.41 743.728 1060.26 745.493 1064.31L747.092 1067.98C748.857 1072.03 747.005 1076.74 742.955 1078.51L710.906 1092.48C709.898 1092.92 708.81 1093.15 707.71 1093.15H606.292Z"/>
</mask>
<path d="M1151.55 499.489C1149.54 501.221 1148.52 503.835 1148.82 506.468L1174 723.646L1175.98 740.725C1176.54 745.476 1172.82 749.646 1168.04 749.646H1040.23C1037.01 749.646 1034.11 751.571 1032.86 754.534L939.146 976.415C938.132 978.817 938.351 981.562 939.734 983.772L1022.59 1116.15C1024.51 1119.22 1024.12 1123.21 1021.65 1125.85L939.751 1213.4C938.029 1215.24 937.275 1217.78 937.716 1220.26L954.897 1316.85C955.512 1320.3 953.801 1323.76 950.679 1325.36L836.634 1384.02C833.968 1385.39 832.292 1388.13 832.292 1391.13V1421.15C832.292 1425.56 828.711 1429.15 824.292 1429.15H686.292C681.874 1429.15 678.292 1425.56 678.292 1421.15V1347.9C678.292 1343.48 674.711 1339.9 670.292 1339.9H403.792C399.374 1339.9 395.792 1343.48 395.792 1347.9V1417.65C395.792 1422.06 399.374 1425.65 403.792 1425.65H541.292C545.711 1425.65 549.292 1429.23 549.292 1433.65V1437.65C549.292 1442.06 545.711 1445.65 541.292 1445.65H383.792C379.374 1445.65 375.792 1442.06 375.792 1437.65V1236.06C375.792 1232.85 373.874 1229.95 370.92 1228.69L267.201 1184.64C263.391 1183.02 261.444 1178.76 262.714 1174.82L285.036 1105.53C285.674 1103.55 285.516 1101.4 284.595 1099.53L126.901 780.188C124.276 774.871 128.145 768.646 134.074 768.646H198.792C203.211 768.646 206.792 765.064 206.792 760.646V757.646C206.792 753.228 203.211 749.646 198.792 749.646H122.292C117.874 749.646 114.292 746.064 114.292 741.646V710.261C114.292 707.596 112.947 705.098 110.744 703.598C44.4941 658.483 8.65723 616.24 1.3833 565.36C-6.07568 513.186 17.0996 454.991 59.5981 380.206L60.1731 379.194C61.5948 376.692 64.2509 375.146 67.1287 375.146H267.937C269.351 375.146 270.739 374.772 271.96 374.061L394.668 302.666C397.51 301.013 399.05 297.79 398.553 294.541L385.133 206.863C384.51 202.789 387.083 198.909 391.078 197.897L625.263 138.628C628.152 137.897 630.395 135.62 631.084 132.72L655.032 31.8618C656.063 27.5196 660.448 24.8607 664.775 25.9535L813.507 63.5174C814.212 63.6955 814.89 63.9689 815.521 64.33L906.442 116.35C909.109 117.876 912.415 117.739 914.947 115.999L954.718 88.6556C957.364 86.8369 960.84 86.7757 963.548 88.5L1172.81 221.759C1176.47 224.09 1177.6 228.916 1175.37 232.634L1152.26 271.002C1150.66 273.66 1150.74 277.005 1152.47 279.582L1241.59 412.55C1243.84 415.909 1243.23 420.421 1240.16 423.062L1151.55 499.489ZM1003.89 606.737C1003.74 605.278 1003.18 603.891 1002.29 602.726L819.762 364.777C818.248 362.803 815.902 361.646 813.415 361.646H708.778C703.951 361.646 700.224 365.888 700.844 370.675L716.174 488.869C716.467 491.129 717.709 493.156 719.59 494.443L776.945 533.686C780.055 535.814 784.229 535.483 786.965 532.892L846.607 476.388C849.814 473.35 854.878 473.487 857.917 476.694L860.668 479.598C863.706 482.806 863.569 487.869 860.362 490.908L788.998 558.516C786.262 561.108 782.089 561.439 778.978 559.311L700.907 505.894C699.027 504.607 697.784 502.58 697.491 500.32L679.379 360.659C679.094 358.468 677.916 356.491 676.123 355.199L625.153 318.453C623.134 316.998 620.552 316.565 618.168 317.283L439.051 371.211C435.303 372.339 431.289 370.59 429.564 367.077L409.83 326.892C407.785 322.727 402.637 321.17 398.626 323.503L277.355 394.061C276.133 394.772 274.745 395.146 273.332 395.146H78.8118C75.9202 395.146 73.2418 396.723 71.8359 399.25C32.8468 469.333 15.0466 519.613 21.1821 562.53C27.4781 606.568 59.5717 645.908 129.804 692.302L130.702 692.895C132.944 694.376 134.292 696.884 134.292 699.57V721.646C134.292 726.064 137.874 729.646 142.292 729.646H218.792C223.211 729.646 226.792 733.228 226.792 737.646V780.646C226.792 785.064 223.211 788.646 218.792 788.646H166.256C160.326 788.646 156.457 794.871 159.083 800.188L306.118 1097.95C307.039 1099.81 307.198 1101.96 306.56 1103.94L287.355 1163.56C286.086 1167.5 288.032 1171.75 291.842 1173.37L375.593 1208.95C379.207 1210.48 383.401 1209.17 385.492 1205.85L425.652 1142.01C427.591 1138.93 431.368 1137.55 434.84 1138.65L502.82 1160.19C504.129 1160.6 505.523 1160.67 506.868 1160.39L571.924 1146.84C575.634 1146.07 578.292 1142.8 578.292 1139.01V1081.15C578.292 1076.73 581.874 1073.15 586.292 1073.15H689.292C693.711 1073.15 697.292 1069.56 697.292 1065.15V965.646C697.292 961.228 693.711 957.646 689.292 957.646H483.453C477.919 957.646 474.056 952.162 475.92 946.951L494.304 895.561C495.507 892.198 494.335 888.445 491.431 886.364L351.632 786.176C349.536 784.674 348.292 782.253 348.292 779.674V737.646C348.292 733.228 351.874 729.646 356.292 729.646H541.292C545.711 729.646 549.292 733.228 549.292 737.646V741.646C549.292 746.064 545.711 749.646 541.292 749.646H376.292C371.874 749.646 368.292 753.228 368.292 757.646V769.401C368.292 771.981 369.536 774.402 371.632 775.904L499.445 867.502C503.044 870.081 508.052 869.247 510.621 865.641L646.64 674.692C649.035 671.329 648.479 666.696 645.355 663.997L623.307 644.943C619.964 642.055 619.596 637.003 622.485 633.66L625.101 630.632C627.99 627.29 633.041 626.922 636.384 629.81L659.315 649.627C662.27 652.181 666.637 652.227 669.646 649.738L757.794 576.802C760.931 574.208 765.515 574.381 768.446 577.206L866.504 671.708C867.223 672.402 867.806 673.223 868.223 674.131L891.565 724.984C892.87 727.825 895.71 729.646 898.836 729.646H1008.25C1013 729.646 1016.71 725.518 1016.2 720.788L1003.89 606.737ZM680.627 1189.64C680.043 1186.49 677.64 1184 674.517 1183.3L589.903 1164.26C588.789 1164.01 587.634 1164 586.516 1164.23L505.819 1181.04C504.474 1181.32 503.08 1181.25 501.771 1180.84L443.535 1162.38C440.063 1161.28 436.286 1162.66 434.347 1165.75L397.021 1225.08C396.218 1226.35 395.792 1227.83 395.792 1229.34V1311.9C395.792 1316.31 399.374 1319.9 403.792 1319.9H671.767C675.921 1319.9 679.384 1316.72 679.738 1312.58L687.122 1226.22C687.183 1225.5 687.148 1224.78 687.017 1224.08L680.627 1189.64ZM599.156 175.238C598.615 170.419 593.945 167.185 589.243 168.375L413.597 212.828C409.602 213.839 407.028 217.72 407.652 221.794L419.76 300.902C419.883 301.707 420.128 302.488 420.487 303.218L440.04 343.036C441.765 346.549 445.779 348.298 449.527 347.17L606.539 299.897C610.238 298.784 612.613 295.185 612.182 291.345L599.156 175.238ZM886.01 749.646C882.883 749.646 880.043 747.825 878.739 744.983L851.624 685.909C851.208 685.001 850.624 684.179 849.905 683.486L767.431 604.003C764.5 601.179 759.916 601.005 756.78 603.6L672.483 673.349C671.947 673.793 671.471 674.304 671.067 674.871L517.886 889.914C517.459 890.513 517.117 891.168 516.869 891.861L504.316 926.952C502.452 932.162 506.315 937.646 511.849 937.646H704.325C705.199 937.646 706.067 937.503 706.895 937.222L820.038 898.852C822.445 898.035 825.097 898.411 827.182 899.865L913.782 960.235C917.955 963.144 923.748 961.47 925.727 956.784L1008.52 760.759C1010.75 755.485 1006.88 749.646 1001.15 749.646H886.01ZM1128.78 280.158C1127.05 277.58 1126.97 274.235 1128.57 271.577L1148.17 239.025C1150.41 235.307 1149.28 230.482 1145.61 228.151L963.971 112.479C961.263 110.755 957.787 110.816 955.141 112.635L915.922 139.598C913.39 141.339 910.084 141.476 907.417 139.95L807.966 83.0498C807.335 82.6886 806.658 82.4152 805.953 82.2371L679.547 50.3119C675.22 49.2191 670.836 51.878 669.804 56.2202L647.742 149.136C647.053 152.035 644.81 154.312 641.921 155.043L624.468 159.46C620.592 160.441 618.035 164.134 618.481 168.108L632.841 296.103C633.093 298.347 634.281 300.38 636.113 301.7L689.426 340.135C690.788 341.118 692.425 341.646 694.104 341.646H823.279C825.767 341.646 828.113 342.803 829.627 344.777L1021.57 595.005C1022.46 596.169 1023.02 597.556 1023.17 599.015L1036.5 722.504C1036.94 726.567 1040.37 729.646 1044.46 729.646H1145.59C1150.37 729.646 1154.08 725.476 1153.53 720.725L1127.74 498.245C1127.43 495.611 1128.45 492.997 1130.46 491.265L1213.69 419.484C1216.75 416.843 1217.36 412.331 1215.11 408.972L1128.78 280.158ZM917.754 1222.24C917.382 1220.15 916.195 1218.29 914.454 1217.08L871.564 1187.16C865.966 1183.26 858.363 1187.71 859.025 1194.5L860.896 1213.72C861.25 1217.36 859.093 1220.78 855.655 1222.02L788.792 1246.21C785.911 1247.26 783.879 1249.85 783.558 1252.9L782.587 1262.13C782.226 1265.55 779.715 1268.36 776.352 1269.1L707.879 1284.19C704.459 1284.94 701.927 1287.83 701.629 1291.32L698.292 1330.33V1401.15C698.292 1405.56 701.874 1409.15 706.292 1409.15H804.292C808.711 1409.15 812.292 1405.56 812.292 1401.15V1378.93C812.292 1375.93 813.968 1373.18 816.634 1371.81L928.403 1314.33C931.525 1312.72 933.235 1309.27 932.62 1305.82L917.754 1222.24ZM606.292 1093.15C601.874 1093.15 598.292 1096.73 598.292 1101.15V1139.25C598.292 1142.99 600.886 1146.23 604.536 1147.05L691.774 1166.68C694.897 1167.38 697.3 1169.88 697.884 1173.02L707.174 1223.09C707.305 1223.79 707.341 1224.51 707.279 1225.23L704.841 1253.75C704.381 1259.12 709.265 1263.4 714.533 1262.24L757.971 1252.67C761.334 1251.93 763.845 1249.12 764.206 1245.7L764.978 1238.35C765.299 1235.31 767.331 1232.71 770.212 1231.67L834.245 1208.5C837.682 1207.26 839.84 1203.84 839.485 1200.2L834.92 1153.3C834.258 1146.51 841.861 1142.06 847.459 1145.96L919.224 1196.02C922.487 1198.3 926.926 1197.83 929.643 1194.93L996.532 1123.42C999.01 1120.78 999.396 1116.79 997.471 1113.72L919.765 989.566C919.194 988.652 918.443 987.864 917.559 987.247L824.036 922.051C821.951 920.597 819.299 920.221 816.892 921.037L722.723 952.973C719.477 954.074 717.292 957.121 717.292 960.549V1055.66C717.292 1061.43 723.205 1065.3 728.489 1063L734.963 1060.18C739.013 1058.41 743.728 1060.26 745.493 1064.31L747.092 1067.98C748.857 1072.03 747.005 1076.74 742.955 1078.51L710.906 1092.48C709.898 1092.92 708.81 1093.15 707.71 1093.15H606.292Z" fill="white" fill-opacity="0.3" stroke="black" stroke-width="8" mask="url(#path-1-inside-1_49_783)"/>
</g>
<g id="&#227;&#131;&#143;&#227;&#130;&#166;&#227;&#130;&#185;">
<rect id="plot_13" x="447.266" y="378.586" width="205.439" height="172.957" rx="6" transform="rotate(-15.6514 447.266 378.586)" fill="white" fill-opacity="0.3" stroke="black" stroke-width="4"/>
<rect id="plot_30" x="252.354" y="1454.15" width="205.439" height="172.957" rx="6" fill="white" fill-opacity="0.3" stroke="black" stroke-width="4"/>
<rect id="plot_5" x="969.77" y="114.94" width="205.439" height="172.957" rx="6" transform="rotate(35.9877 969.77 114.94)" fill="white" fill-opacity="0.3" stroke="black" stroke-width="4"/>
<rect id="plot_12" x="422.34" y="214.509" width="152.159" height="131.806" rx="6" transform="rotate(-15.5924 422.34 214.509)" fill="white" fill-opacity="0.3" stroke="black" stroke-width="4"/>
<rect id="plot_6" x="785.445" y="584.41" width="152.159" height="131.806" rx="6" transform="rotate(-43.0711 785.445 584.41)" fill="white" fill-opacity="0.3" stroke="black" stroke-width="4"/>
<rect id="plot_11" x="447.34" y="41.5093" width="152.159" height="131.806" rx="6" transform="rotate(-15.5924 447.34 41.5093)" fill="white" fill-opacity="0.3" stroke="black" stroke-width="4"/>
<rect id="plot_8" x="670.124" y="167.654" width="152.159" height="131.806" rx="6" transform="rotate(17.4447 670.124 167.654)" fill="white" fill-opacity="0.3" stroke="black" stroke-width="4"/>
<rect id="plot_19" x="359.439" y="817.889" width="152.159" height="131.806" rx="6" transform="rotate(30.8644 359.439 817.889)" fill="white" fill-opacity="0.3" stroke="black" stroke-width="4"/>
<rect id="plot_25" x="526.58" y="1185.53" width="152.159" height="131.806" rx="6" transform="rotate(-0.88696 526.58 1185.53)" fill="white" fill-opacity="0.3" stroke="black" stroke-width="4"/>
<rect id="plot_4" x="1016.76" y="386.173" width="152.159" height="131.806" rx="6" transform="rotate(-32.7273 1016.76 386.173)" fill="white" fill-opacity="0.3" stroke="black" stroke-width="4"/>
<rect id="plot_10" x="686.174" y="59.5533" width="104.013" height="107.251" rx="6" transform="rotate(13.3279 686.174 59.5533)" fill="white" fill-opacity="0.3" stroke="black" stroke-width="4"/>
<rect id="plot_9" x="811.378" y="91.7927" width="104.013" height="107.251" rx="6" transform="rotate(24.3401 811.378 91.7927)" fill="white" fill-opacity="0.3" stroke="black" stroke-width="4"/>
<rect id="plot_1" x="1014.22" y="548.821" width="104.013" height="107.251" rx="6" transform="rotate(-13.4897 1014.22 548.821)" fill="white" fill-opacity="0.3" stroke="black" stroke-width="4"/>
<rect id="plot_2" x="1030.88" y="409.091" width="104.013" height="107.251" rx="6" transform="rotate(57.3282 1030.88 409.091)" fill="white" fill-opacity="0.3" stroke="black" stroke-width="4"/>
<rect id="plot_3" x="935.365" y="313.955" width="104.013" height="107.251" rx="6" transform="rotate(38.3074 935.365 313.955)" fill="white" fill-opacity="0.3" stroke="black" stroke-width="4"/>
<rect id="plot_7" x="769.65" y="360.921" width="104.013" height="107.251" rx="6" transform="rotate(33.8652 769.65 360.921)" fill="white" fill-opacity="0.3" stroke="black" stroke-width="4"/>
<rect id="plot_15" x="760.12" y="606.967" width="104.013" height="107.251" rx="6" transform="rotate(40.7029 760.12 606.967)" fill="white" fill-opacity="0.3" stroke="black" stroke-width="4"/>
<rect id="plot_16" x="810.323" y="939.884" width="104.013" height="107.251" rx="6" transform="rotate(59.5374 810.323 939.884)" fill="white" fill-opacity="0.3" stroke="black" stroke-width="4"/>
<rect id="plot_17" x="571.575" y="960.3" width="104.013" height="107.251" rx="6" transform="rotate(-1.70553 571.575 960.3)" fill="white" fill-opacity="0.3" stroke="black" stroke-width="4"/>
<rect id="plot_18" x="486.269" y="978.907" width="104.013" height="107.251" rx="6" transform="rotate(32.4602 486.269 978.907)" fill="white" fill-opacity="0.3" stroke="black" stroke-width="4"/>
<rect id="plot_20" x="236.746" y="681.118" width="104.013" height="107.251" rx="6" fill="white" fill-opacity="0.3" stroke="black" stroke-width="4"/>
<rect id="plot_14" x="498.306" y="559.573" width="104.013" height="107.251" rx="6" transform="rotate(-1.31184 498.306 559.573)" fill="white" fill-opacity="0.3" stroke="black" stroke-width="4"/>
<rect id="plot_28" x="351.992" y="1063.88" width="104.013" height="107.251" rx="6" transform="rotate(30.0102 351.992 1063.88)" fill="white" fill-opacity="0.3" stroke="black" stroke-width="4"/>
<rect id="plot_27" x="265.761" y="1224.18" width="104.013" height="107.251" rx="6" transform="rotate(1.08669 265.761 1224.18)" fill="white" fill-opacity="0.3" stroke="black" stroke-width="4"/>
<rect id="plot_29" x="472.78" y="1454.15" width="104.013" height="107.251" rx="6" fill="white" fill-opacity="0.3" stroke="black" stroke-width="4"/>
<rect id="plot_26" x="421.174" y="1172.55" width="104.013" height="107.251" rx="6" transform="rotate(13.3279 421.174 1172.55)" fill="white" fill-opacity="0.3" stroke="black" stroke-width="4"/>
<rect id="plot_24" x="702.763" y="1291.17" width="104.013" height="107.251" rx="6" transform="rotate(0.767767 702.763 1291.17)" fill="white" fill-opacity="0.3" stroke="black" stroke-width="4"/>
<rect id="plot_23" x="895.33" y="1211.65" width="104.013" height="107.251" rx="6" transform="rotate(72.6843 895.33 1211.65)" fill="white" fill-opacity="0.3" stroke="black" stroke-width="4"/>
<rect id="plot_21" x="918.424" y="1043.97" width="104.013" height="107.251" rx="6" transform="rotate(43.4254 918.424 1043.97)" fill="white" fill-opacity="0.3" stroke="black" stroke-width="4"/>
<rect id="plot_22" x="789.818" y="1111.74" width="104.013" height="107.251" rx="6" transform="rotate(68.3481 789.818 1111.74)" fill="white" fill-opacity="0.3" stroke="black" stroke-width="4"/>
<path id="apart_2" d="M312.792 625.146L222.792 625.146C219.479 625.146 216.792 622.46 216.792 619.146L216.793 403.146C216.793 399.832 219.479 397.146 222.793 397.146L312.793 397.146C316.106 397.146 318.793 399.832 318.793 403.146L318.792 619.146L318.785 619.455C318.624 622.625 316.003 625.146 312.792 625.146Z" fill="white" fill-opacity="0.3" stroke="black" stroke-width="4"/>
</g>
<g id="&#227;&#130;&#168;&#227;&#131;&#188;&#227;&#131;&#134;&#227;&#131;&#169;&#227;&#130;&#164;&#227;&#131;&#136;">
<g id="[&#230;&#139;&#161;&#229;&#188;&#181;&#232;&#161;&#151;]&#227;&#131;&#150;&#227;&#131;&#170;&#227;&#131;&#159;&#227;&#131;&#179;&#227;&#130;&#176;&#227;&#131;&#143;&#227;&#131;&#188;&#227;&#131;&#136;&#229;&#186;&#131;&#229;&#160;&#180;">
<g id="Group 5">
<path id="Polygon 22" d="M577.263 725.217L565.351 727.427L562.409 732.394L570.653 736.378H583.874L592.117 732.394L589.175 727.427L577.263 725.217Z" fill="#F0FEFF" fill-opacity="0.4"/>
<path id="Polygon 23" d="M577.292 721.224L565.174 723.468L562.181 728.51L570.567 732.553H584.018L592.404 728.51L589.411 723.468L577.292 721.224Z" fill="#F0FEFF" fill-opacity="0.4"/>
</g>
<g id="Group 2">
<g id="Polygon 1">
<path d="M576.767 664.146L572.369 688.145H581.166L576.767 664.146Z" fill="#D9D9D9" fill-opacity="0.3"/>
<path d="M572.969 687.645H580.566L576.768 666.919L572.969 687.645Z" stroke="#00BFFF" stroke-opacity="0.4"/>
</g>
<g id="Polygon 11">
<path d="M574.067 728.142L578.465 702.382L569.668 702.382L574.067 728.142Z" fill="#D9D9D9" fill-opacity="0.3"/>
<path d="M577.873 702.883L570.26 702.883L574.066 725.174L577.873 702.883Z" stroke="#00BFFF" stroke-opacity="0.4"/>
</g>
<g id="Polygon 2">
<path d="M574.976 670.886L568.697 696.253L577.47 696.899L574.976 670.886Z" fill="#D9D9D9" fill-opacity="0.3"/>
<path d="M569.325 695.798L576.916 696.357L574.758 673.846L569.325 695.798Z" stroke="#00BFFF" stroke-opacity="0.4"/>
</g>
<g id="Polygon 6">
<path d="M575.897 666.508L568.086 697.427L576.005 698.398L575.897 666.508Z" fill="#D9D9D9" fill-opacity="0.3"/>
<path d="M568.71 697L575.502 697.833L575.41 670.476L568.71 697Z" stroke="#00BFFF" stroke-opacity="0.4"/>
</g>
<g id="Polygon 13">
<path d="M578.059 728.612L582.457 702.852L573.661 702.852L578.059 728.612Z" fill="#D9D9D9" fill-opacity="0.3"/>
<path d="M581.865 703.352L574.253 703.352L578.059 725.643L581.865 703.352Z" stroke="#00BFFF" stroke-opacity="0.4"/>
</g>
<g id="Polygon 5">
<path d="M576.391 665.571L570.888 691.118L579.677 691.496L576.391 665.571Z" fill="#D9D9D9" fill-opacity="0.3"/>
<path d="M571.501 690.644L579.107 690.971L576.264 668.537L571.501 690.644Z" stroke="#00BFFF" stroke-opacity="0.4"/>
</g>
<g id="Polygon 14">
<path d="M581.72 728.113L584.53 695.283L579.493 695.238L581.72 728.113Z" fill="#D9D9D9" fill-opacity="0.3"/>
<path d="M583.986 695.778L580.027 695.743L581.778 721.568L583.986 695.778Z" stroke="#00BFFF" stroke-opacity="0.4"/>
</g>
<g id="Polygon 15">
<path d="M575.261 726.215L586.273 702.516L577.785 700.205L575.261 726.215Z" fill="#D9D9D9" fill-opacity="0.3"/>
<path d="M585.57 702.843L578.225 700.843L576.04 723.351L585.57 702.843Z" stroke="#00BFFF" stroke-opacity="0.4"/>
</g>
<g id="Polygon 3">
<path d="M578.431 669.611L574.621 695.464L583.415 695.264L578.431 669.611Z" fill="#D9D9D9" fill-opacity="0.3"/>
<path d="M575.202 694.951L582.812 694.777L578.499 672.579L575.202 694.951Z" stroke="#00BFFF" stroke-opacity="0.4"/>
</g>
<g id="Polygon 16">
<path d="M575.776 725.796L577.683 704.403L570.728 704.92L575.776 725.796Z" fill="#D9D9D9" fill-opacity="0.3"/>
<path d="M577.132 704.945L571.353 705.375L575.548 722.726L577.132 704.945Z" stroke="#00BFFF" stroke-opacity="0.4"/>
</g>
<g id="Polygon 7">
<path d="M581.23 711.345L585.348 685.539L576.552 685.635L581.23 711.345Z" fill="#D9D9D9" fill-opacity="0.3"/>
<path d="M584.761 686.046L577.149 686.128L581.197 708.377L584.761 686.046Z" stroke="#00BFFF" stroke-opacity="0.4"/>
</g>
<g id="Polygon 21">
<path d="M580.865 708.997L584.991 682.926L576.173 683.022L580.865 708.997Z" fill="#D9D9D9" fill-opacity="0.3"/>
<path d="M584.405 683.432L576.77 683.515L580.832 706.003L584.405 683.432Z" stroke="#00BFFF" stroke-opacity="0.4"/>
</g>
<g id="Polygon 17">
<path d="M572.951 726.087L577.349 700.327L568.553 700.327L572.951 726.087Z" fill="#D9D9D9" fill-opacity="0.3"/>
<path d="M576.757 700.828L569.145 700.828L572.951 723.119L576.757 700.828Z" stroke="#00BFFF" stroke-opacity="0.4"/>
</g>
<g id="Polygon 10">
<path d="M575.593 676.123L571.195 701.883H579.991L575.593 676.123Z" fill="#D9D9D9" fill-opacity="0.3"/>
<path d="M571.787 701.383H579.399L575.594 679.092L571.787 701.383Z" stroke="#00BFFF" stroke-opacity="0.4"/>
</g>
<g id="Polygon 18">
<path d="M576.239 721.801L580.637 696.041L571.841 696.041L576.239 721.801Z" fill="#D9D9D9" fill-opacity="0.3"/>
<path d="M580.045 696.542L572.433 696.542L576.239 718.833L580.045 696.542Z" stroke="#00BFFF" stroke-opacity="0.4"/>
</g>
<g id="Polygon 9">
<path d="M572.542 675.192L567.508 700.835L576.302 701.053L572.542 675.192Z" fill="#D9D9D9" fill-opacity="0.3"/>
<path d="M568.112 700.35L575.722 700.538L572.469 678.16L568.112 700.35Z" stroke="#00BFFF" stroke-opacity="0.4"/>
</g>
<g id="Polygon 19">
<path d="M578.144 733.799L576.754 705.658L568.144 707.458L578.144 733.799Z" fill="#D9D9D9" fill-opacity="0.3"/>
<path d="M576.284 706.267L568.819 707.828L577.489 730.666L576.284 706.267Z" stroke="#00BFFF" stroke-opacity="0.4"/>
</g>
<g id="Polygon 4">
<path d="M579.165 673.145L577.178 699.202L585.936 698.385L579.165 673.145Z" fill="#D9D9D9" fill-opacity="0.3"/>
<path d="M577.721 698.649L585.3 697.942L579.441 676.1L577.721 698.649Z" stroke="#00BFFF" stroke-opacity="0.4"/>
</g>
<g id="Polygon 20">
<path d="M572.957 725.822L576.116 699.88L567.329 700.302L572.957 725.822Z" fill="#D9D9D9" fill-opacity="0.3"/>
<path d="M575.548 700.408L567.945 700.773L572.814 722.856L575.548 700.408Z" stroke="#00BFFF" stroke-opacity="0.4"/>
</g>
<g id="Polygon 8">
<path d="M575.652 673.012L571.254 698.772H580.05L575.652 673.012Z" fill="#D9D9D9" fill-opacity="0.3"/>
<path d="M571.846 698.271H579.458L575.652 675.98L571.846 698.271Z" stroke="#00BFFF" stroke-opacity="0.4"/>
</g>
<g id="Polygon 12">
<path d="M580.644 722.724L586.889 697.349L578.115 696.714L580.644 722.724Z" fill="#D9D9D9" fill-opacity="0.3"/>
<path d="M586.262 697.805L578.67 697.256L580.858 719.763L586.262 697.805Z" stroke="#00BFFF" stroke-opacity="0.4"/>
</g>
</g>
</g>
<g id="[&#230;&#139;&#161;&#229;&#188;&#181;&#232;&#161;&#151;]&#227;&#130;&#180;&#227;&#131;&#150;&#227;&#131;&#172;&#227;&#131;&#131;&#227;&#131;&#136;&#227;&#131;&#147;&#227;&#131;&#165;&#227;&#131;&#188;&#227;&#131;&#136;&#229;&#141;&#151;">
<g id="Group 5_2">
<path id="Polygon 22_2" d="M746.263 1443.22L734.352 1445.43L731.41 1450.39L739.653 1454.38H752.874L761.117 1450.39L758.175 1445.43L746.263 1443.22Z" fill="#F0FEFF" fill-opacity="0.4"/>
<path id="Polygon 23_2" d="M746.293 1439.22L734.174 1441.47L731.181 1446.51L739.568 1450.55H753.018L761.404 1446.51L758.411 1441.47L746.293 1439.22Z" fill="#F0FEFF" fill-opacity="0.4"/>
</g>
<g id="Group 2_2">
<g id="Polygon 1_2">
<path d="M745.768 1382.15L741.369 1406.14H750.166L745.768 1382.15Z" fill="#D9D9D9" fill-opacity="0.3"/>
<path d="M741.969 1405.65H749.566L745.768 1384.92L741.969 1405.65Z" stroke="#00BFFF" stroke-opacity="0.4"/>
</g>
<g id="Polygon 11_2">
<path d="M743.067 1446.14L747.465 1420.38L738.669 1420.38L743.067 1446.14Z" fill="#D9D9D9" fill-opacity="0.3"/>
<path d="M746.873 1420.88L739.261 1420.88L743.066 1443.17L746.873 1420.88Z" stroke="#00BFFF" stroke-opacity="0.4"/>
</g>
<g id="Polygon 2_2">
<path d="M743.976 1388.89L737.698 1414.25L746.47 1414.9L743.976 1388.89Z" fill="#D9D9D9" fill-opacity="0.3"/>
<path d="M738.325 1413.8L745.917 1414.36L743.758 1391.85L738.325 1413.8Z" stroke="#00BFFF" stroke-opacity="0.4"/>
</g>
<g id="Polygon 6_2">
<path d="M744.897 1384.51L737.086 1415.43L745.005 1416.4L744.897 1384.51Z" fill="#D9D9D9" fill-opacity="0.3"/>
<path d="M737.71 1415L744.503 1415.83L744.41 1388.48L737.71 1415Z" stroke="#00BFFF" stroke-opacity="0.4"/>
</g>
<g id="Polygon 13_2">
<path d="M747.059 1446.61L751.458 1420.85L742.661 1420.85L747.059 1446.61Z" fill="#D9D9D9" fill-opacity="0.3"/>
<path d="M750.865 1421.35L743.253 1421.35L747.059 1443.64L750.865 1421.35Z" stroke="#00BFFF" stroke-opacity="0.4"/>
</g>
<g id="Polygon 5_2">
<path d="M745.391 1383.57L739.889 1409.12L748.677 1409.5L745.391 1383.57Z" fill="#D9D9D9" fill-opacity="0.3"/>
<path d="M740.502 1408.64L748.107 1408.97L745.264 1386.54L740.502 1408.64Z" stroke="#00BFFF" stroke-opacity="0.4"/>
</g>
<g id="Polygon 14_2">
<path d="M750.72 1446.11L753.53 1413.28L748.493 1413.24L750.72 1446.11Z" fill="#D9D9D9" fill-opacity="0.3"/>
<path d="M752.986 1413.78L749.028 1413.74L750.778 1439.57L752.986 1413.78Z" stroke="#00BFFF" stroke-opacity="0.4"/>
</g>
<g id="Polygon 15_2">
<path d="M744.261 1444.22L755.273 1420.52L746.785 1418.2L744.261 1444.22Z" fill="#D9D9D9" fill-opacity="0.3"/>
<path d="M754.57 1420.84L747.225 1418.84L745.041 1441.35L754.57 1420.84Z" stroke="#00BFFF" stroke-opacity="0.4"/>
</g>
<g id="Polygon 3_2">
<path d="M747.431 1387.61L743.621 1413.46L752.415 1413.26L747.431 1387.61Z" fill="#D9D9D9" fill-opacity="0.3"/>
<path d="M744.202 1412.95L751.812 1412.78L747.499 1390.58L744.202 1412.95Z" stroke="#00BFFF" stroke-opacity="0.4"/>
</g>
<g id="Polygon 16_2">
<path d="M744.776 1443.8L746.683 1422.4L739.729 1422.92L744.776 1443.8Z" fill="#D9D9D9" fill-opacity="0.3"/>
<path d="M746.133 1422.95L740.354 1423.37L744.548 1440.73L746.133 1422.95Z" stroke="#00BFFF" stroke-opacity="0.4"/>
</g>
<g id="Polygon 7_2">
<path d="M750.23 1429.35L754.348 1403.54L745.552 1403.63L750.23 1429.35Z" fill="#D9D9D9" fill-opacity="0.3"/>
<path d="M753.761 1404.05L746.15 1404.13L750.197 1426.38L753.761 1404.05Z" stroke="#00BFFF" stroke-opacity="0.4"/>
</g>
<g id="Polygon 21_2">
<path d="M749.865 1427L753.991 1400.93L745.174 1401.02L749.865 1427Z" fill="#D9D9D9" fill-opacity="0.3"/>
<path d="M753.405 1401.43L745.77 1401.52L749.833 1424L753.405 1401.43Z" stroke="#00BFFF" stroke-opacity="0.4"/>
</g>
<g id="Polygon 17_2">
<path d="M741.951 1444.09L746.35 1418.33L737.553 1418.33L741.951 1444.09Z" fill="#D9D9D9" fill-opacity="0.3"/>
<path d="M745.758 1418.83L738.145 1418.83L741.951 1441.12L745.758 1418.83Z" stroke="#00BFFF" stroke-opacity="0.4"/>
</g>
<g id="Polygon 10_2">
<path d="M744.593 1394.12L740.195 1419.88H748.992L744.593 1394.12Z" fill="#D9D9D9" fill-opacity="0.3"/>
<path d="M740.787 1419.38H748.4L744.594 1397.09L740.787 1419.38Z" stroke="#00BFFF" stroke-opacity="0.4"/>
</g>
<g id="Polygon 18_2">
<path d="M745.239 1439.8L749.637 1414.04L740.841 1414.04L745.239 1439.8Z" fill="#D9D9D9" fill-opacity="0.3"/>
<path d="M749.045 1414.54L741.433 1414.54L745.239 1436.83L749.045 1414.54Z" stroke="#00BFFF" stroke-opacity="0.4"/>
</g>
<g id="Polygon 9_2">
<path d="M741.542 1393.19L736.508 1418.84L745.302 1419.05L741.542 1393.19Z" fill="#D9D9D9" fill-opacity="0.3"/>
<path d="M737.112 1418.35L744.722 1418.54L741.469 1396.16L737.112 1418.35Z" stroke="#00BFFF" stroke-opacity="0.4"/>
</g>
<g id="Polygon 19_2">
<path d="M747.145 1451.8L745.754 1423.66L737.144 1425.46L747.145 1451.8Z" fill="#D9D9D9" fill-opacity="0.3"/>
<path d="M745.284 1424.27L737.819 1425.83L746.489 1448.67L745.284 1424.27Z" stroke="#00BFFF" stroke-opacity="0.4"/>
</g>
<g id="Polygon 4_2">
<path d="M748.165 1391.14L746.178 1417.2L754.937 1416.38L748.165 1391.14Z" fill="#D9D9D9" fill-opacity="0.3"/>
<path d="M746.721 1416.65L754.301 1415.94L748.442 1394.1L746.721 1416.65Z" stroke="#00BFFF" stroke-opacity="0.4"/>
</g>
<g id="Polygon 20_2">
<path d="M741.957 1443.82L745.116 1417.88L736.329 1418.3L741.957 1443.82Z" fill="#D9D9D9" fill-opacity="0.3"/>
<path d="M744.548 1418.41L736.945 1418.77L741.814 1440.86L744.548 1418.41Z" stroke="#00BFFF" stroke-opacity="0.4"/>
</g>
<g id="Polygon 8_2">
<path d="M744.652 1391.01L740.254 1416.77H749.05L744.652 1391.01Z" fill="#D9D9D9" fill-opacity="0.3"/>
<path d="M740.846 1416.27H748.458L744.653 1393.98L740.846 1416.27Z" stroke="#00BFFF" stroke-opacity="0.4"/>
</g>
<g id="Polygon 12_2">
<path d="M749.644 1440.72L755.889 1415.35L747.116 1414.71L749.644 1440.72Z" fill="#D9D9D9" fill-opacity="0.3"/>
<path d="M755.263 1415.8L747.67 1415.26L749.858 1437.76L755.263 1415.8Z" stroke="#00BFFF" stroke-opacity="0.4"/>
</g>
</g>
</g>
<g id="[&#230;&#139;&#161;&#229;&#188;&#181;&#232;&#161;&#151;]&#227;&#130;&#180;&#227;&#131;&#150;&#227;&#131;&#172;&#227;&#131;&#131;&#227;&#131;&#136;&#227;&#131;&#147;&#227;&#131;&#165;&#227;&#131;&#188;&#227;&#131;&#136;&#229;&#141;&#151;&#232;&#165;&#191;">
<g id="Group 5_3">
<path id="Polygon 22_3" d="M419.263 1330.22L407.352 1332.43L404.41 1337.39L412.653 1341.38H425.874L434.117 1337.39L431.175 1332.43L419.263 1330.22Z" fill="#F0FEFF" fill-opacity="0.4"/>
<path id="Polygon 23_3" d="M419.293 1326.22L407.174 1328.47L404.181 1333.51L412.568 1337.55H426.018L434.404 1333.51L431.411 1328.47L419.293 1326.22Z" fill="#F0FEFF" fill-opacity="0.4"/>
</g>
<g id="Group 2_3">
<g id="Polygon 1_3">
<path d="M418.768 1269.15L414.369 1293.14H423.166L418.768 1269.15Z" fill="#D9D9D9" fill-opacity="0.3"/>
<path d="M414.969 1292.65H422.566L418.768 1271.92L414.969 1292.65Z" stroke="#00BFFF" stroke-opacity="0.4"/>
</g>
<g id="Polygon 11_3">
<path d="M416.067 1333.14L420.465 1307.38L411.669 1307.38L416.067 1333.14Z" fill="#D9D9D9" fill-opacity="0.3"/>
<path d="M419.873 1307.88L412.261 1307.88L416.066 1330.17L419.873 1307.88Z" stroke="#00BFFF" stroke-opacity="0.4"/>
</g>
<g id="Polygon 2_3">
<path d="M416.976 1275.89L410.698 1301.25L419.47 1301.9L416.976 1275.89Z" fill="#D9D9D9" fill-opacity="0.3"/>
<path d="M411.325 1300.8L418.917 1301.36L416.758 1278.85L411.325 1300.8Z" stroke="#00BFFF" stroke-opacity="0.4"/>
</g>
<g id="Polygon 6_3">
<path d="M417.897 1271.51L410.086 1302.43L418.005 1303.4L417.897 1271.51Z" fill="#D9D9D9" fill-opacity="0.3"/>
<path d="M410.71 1302L417.503 1302.83L417.41 1275.48L410.71 1302Z" stroke="#00BFFF" stroke-opacity="0.4"/>
</g>
<g id="Polygon 13_3">
<path d="M420.059 1333.61L424.458 1307.85L415.661 1307.85L420.059 1333.61Z" fill="#D9D9D9" fill-opacity="0.3"/>
<path d="M423.865 1308.35L416.253 1308.35L420.059 1330.64L423.865 1308.35Z" stroke="#00BFFF" stroke-opacity="0.4"/>
</g>
<g id="Polygon 5_3">
<path d="M418.391 1270.57L412.889 1296.12L421.677 1296.5L418.391 1270.57Z" fill="#D9D9D9" fill-opacity="0.3"/>
<path d="M413.502 1295.64L421.107 1295.97L418.264 1273.54L413.502 1295.64Z" stroke="#00BFFF" stroke-opacity="0.4"/>
</g>
<g id="Polygon 14_3">
<path d="M423.72 1333.11L426.53 1300.28L421.493 1300.24L423.72 1333.11Z" fill="#D9D9D9" fill-opacity="0.3"/>
<path d="M425.986 1300.78L422.028 1300.74L423.778 1326.57L425.986 1300.78Z" stroke="#00BFFF" stroke-opacity="0.4"/>
</g>
<g id="Polygon 15_3">
<path d="M417.261 1331.22L428.273 1307.52L419.785 1305.2L417.261 1331.22Z" fill="#D9D9D9" fill-opacity="0.3"/>
<path d="M427.57 1307.84L420.225 1305.84L418.041 1328.35L427.57 1307.84Z" stroke="#00BFFF" stroke-opacity="0.4"/>
</g>
<g id="Polygon 3_3">
<path d="M420.431 1274.61L416.621 1300.46L425.415 1300.26L420.431 1274.61Z" fill="#D9D9D9" fill-opacity="0.3"/>
<path d="M417.202 1299.95L424.812 1299.78L420.499 1277.58L417.202 1299.95Z" stroke="#00BFFF" stroke-opacity="0.4"/>
</g>
<g id="Polygon 16_3">
<path d="M417.776 1330.8L419.683 1309.4L412.729 1309.92L417.776 1330.8Z" fill="#D9D9D9" fill-opacity="0.3"/>
<path d="M419.133 1309.95L413.354 1310.37L417.548 1327.73L419.133 1309.95Z" stroke="#00BFFF" stroke-opacity="0.4"/>
</g>
<g id="Polygon 7_3">
<path d="M423.23 1316.35L427.348 1290.54L418.552 1290.63L423.23 1316.35Z" fill="#D9D9D9" fill-opacity="0.3"/>
<path d="M426.761 1291.05L419.15 1291.13L423.197 1313.38L426.761 1291.05Z" stroke="#00BFFF" stroke-opacity="0.4"/>
</g>
<g id="Polygon 21_3">
<path d="M422.865 1314L426.991 1287.93L418.174 1288.02L422.865 1314Z" fill="#D9D9D9" fill-opacity="0.3"/>
<path d="M426.405 1288.43L418.77 1288.52L422.833 1311L426.405 1288.43Z" stroke="#00BFFF" stroke-opacity="0.4"/>
</g>
<g id="Polygon 17_3">
<path d="M414.951 1331.09L419.35 1305.33L410.553 1305.33L414.951 1331.09Z" fill="#D9D9D9" fill-opacity="0.3"/>
<path d="M418.758 1305.83L411.145 1305.83L414.951 1328.12L418.758 1305.83Z" stroke="#00BFFF" stroke-opacity="0.4"/>
</g>
<g id="Polygon 10_3">
<path d="M417.593 1281.12L413.195 1306.88H421.992L417.593 1281.12Z" fill="#D9D9D9" fill-opacity="0.3"/>
<path d="M413.787 1306.38H421.4L417.594 1284.09L413.787 1306.38Z" stroke="#00BFFF" stroke-opacity="0.4"/>
</g>
<g id="Polygon 18_3">
<path d="M418.239 1326.8L422.638 1301.04L413.841 1301.04L418.239 1326.8Z" fill="#D9D9D9" fill-opacity="0.3"/>
<path d="M422.045 1301.54L414.433 1301.54L418.239 1323.83L422.045 1301.54Z" stroke="#00BFFF" stroke-opacity="0.4"/>
</g>
<g id="Polygon 9_3">
<path d="M414.542 1280.19L409.508 1305.84L418.302 1306.05L414.542 1280.19Z" fill="#D9D9D9" fill-opacity="0.3"/>
<path d="M410.112 1305.35L417.722 1305.54L414.469 1283.16L410.112 1305.35Z" stroke="#00BFFF" stroke-opacity="0.4"/>
</g>
<g id="Polygon 19_3">
<path d="M420.145 1338.8L418.754 1310.66L410.144 1312.46L420.145 1338.8Z" fill="#D9D9D9" fill-opacity="0.3"/>
<path d="M418.284 1311.27L410.819 1312.83L419.489 1335.67L418.284 1311.27Z" stroke="#00BFFF" stroke-opacity="0.4"/>
</g>
<g id="Polygon 4_3">
<path d="M421.166 1278.14L419.178 1304.2L427.937 1303.38L421.166 1278.14Z" fill="#D9D9D9" fill-opacity="0.3"/>
<path d="M419.721 1303.65L427.301 1302.94L421.442 1281.1L419.721 1303.65Z" stroke="#00BFFF" stroke-opacity="0.4"/>
</g>
<g id="Polygon 20_3">
<path d="M414.957 1330.82L418.116 1304.88L409.33 1305.3L414.957 1330.82Z" fill="#D9D9D9" fill-opacity="0.3"/>
<path d="M417.548 1305.41L409.945 1305.77L414.814 1327.86L417.548 1305.41Z" stroke="#00BFFF" stroke-opacity="0.4"/>
</g>
<g id="Polygon 8_3">
<path d="M417.652 1278.01L413.254 1303.77H422.05L417.652 1278.01Z" fill="#D9D9D9" fill-opacity="0.3"/>
<path d="M413.846 1303.27H421.458L417.653 1280.98L413.846 1303.27Z" stroke="#00BFFF" stroke-opacity="0.4"/>
</g>
<g id="Polygon 12_3">
<path d="M422.644 1327.72L428.889 1302.35L420.116 1301.71L422.644 1327.72Z" fill="#D9D9D9" fill-opacity="0.3"/>
<path d="M428.263 1302.8L420.67 1302.26L422.858 1324.76L428.263 1302.8Z" stroke="#00BFFF" stroke-opacity="0.4"/>
</g>
</g>
</g>
<g id="[&#230;&#139;&#161;&#229;&#188;&#181;&#232;&#161;&#151;]&#227;&#130;&#180;&#227;&#131;&#150;&#227;&#131;&#172;&#227;&#131;&#131;&#227;&#131;&#136;&#227;&#131;&#147;&#227;&#131;&#165;&#227;&#131;&#188;&#227;&#131;&#136;&#229;&#141;&#151;&#230;&#157;&#177;">
<g id="Group 5_4">
<path id="Polygon 22_4" d="M964.263 1247.22L952.351 1249.43L949.409 1254.39L957.653 1258.38H970.874L979.117 1254.39L976.175 1249.43L964.263 1247.22Z" fill="#F0FEFF" fill-opacity="0.4"/>
<path id="Polygon 23_4" d="M964.292 1243.22L952.174 1245.47L949.181 1250.51L957.567 1254.55H971.018L979.404 1250.51L976.411 1245.47L964.292 1243.22Z" fill="#F0FEFF" fill-opacity="0.4"/>
</g>
<g id="Group 2_4">
<g id="Polygon 1_4">
<path d="M963.767 1186.15L959.369 1210.14H968.166L963.767 1186.15Z" fill="#D9D9D9" fill-opacity="0.3"/>
<path d="M959.969 1209.65H967.566L963.768 1188.92L959.969 1209.65Z" stroke="#00BFFF" stroke-opacity="0.4"/>
</g>
<g id="Polygon 11_4">
<path d="M961.067 1250.14L965.465 1224.38L956.668 1224.38L961.067 1250.14Z" fill="#D9D9D9" fill-opacity="0.3"/>
<path d="M964.873 1224.88L957.26 1224.88L961.066 1247.17L964.873 1224.88Z" stroke="#00BFFF" stroke-opacity="0.4"/>
</g>
<g id="Polygon 2_4">
<path d="M961.976 1192.89L955.697 1218.25L964.47 1218.9L961.976 1192.89Z" fill="#D9D9D9" fill-opacity="0.3"/>
<path d="M956.325 1217.8L963.916 1218.36L961.758 1195.85L956.325 1217.8Z" stroke="#00BFFF" stroke-opacity="0.4"/>
</g>
<g id="Polygon 6_4">
<path d="M962.897 1188.51L955.086 1219.43L963.005 1220.4L962.897 1188.51Z" fill="#D9D9D9" fill-opacity="0.3"/>
<path d="M955.71 1219L962.502 1219.83L962.41 1192.48L955.71 1219Z" stroke="#00BFFF" stroke-opacity="0.4"/>
</g>
<g id="Polygon 13_4">
<path d="M965.059 1250.61L969.457 1224.85L960.661 1224.85L965.059 1250.61Z" fill="#D9D9D9" fill-opacity="0.3"/>
<path d="M968.865 1225.35L961.253 1225.35L965.059 1247.64L968.865 1225.35Z" stroke="#00BFFF" stroke-opacity="0.4"/>
</g>
<g id="Polygon 5_4">
<path d="M963.391 1187.57L957.888 1213.12L966.677 1213.5L963.391 1187.57Z" fill="#D9D9D9" fill-opacity="0.3"/>
<path d="M958.501 1212.64L966.107 1212.97L963.264 1190.54L958.501 1212.64Z" stroke="#00BFFF" stroke-opacity="0.4"/>
</g>
<g id="Polygon 14_4">
<path d="M968.72 1250.11L971.53 1217.28L966.493 1217.24L968.72 1250.11Z" fill="#D9D9D9" fill-opacity="0.3"/>
<path d="M970.986 1217.78L967.027 1217.74L968.778 1243.57L970.986 1217.78Z" stroke="#00BFFF" stroke-opacity="0.4"/>
</g>
<g id="Polygon 15_4">
<path d="M962.261 1248.22L973.273 1224.52L964.785 1222.2L962.261 1248.22Z" fill="#D9D9D9" fill-opacity="0.3"/>
<path d="M972.57 1224.84L965.225 1222.84L963.04 1245.35L972.57 1224.84Z" stroke="#00BFFF" stroke-opacity="0.4"/>
</g>
<g id="Polygon 3_4">
<path d="M965.431 1191.61L961.621 1217.46L970.415 1217.26L965.431 1191.61Z" fill="#D9D9D9" fill-opacity="0.3"/>
<path d="M962.201 1216.95L969.812 1216.78L965.499 1194.58L962.201 1216.95Z" stroke="#00BFFF" stroke-opacity="0.4"/>
</g>
<g id="Polygon 16_4">
<path d="M962.776 1247.8L964.683 1226.4L957.728 1226.92L962.776 1247.8Z" fill="#D9D9D9" fill-opacity="0.3"/>
<path d="M964.132 1226.95L958.353 1227.37L962.548 1244.73L964.132 1226.95Z" stroke="#00BFFF" stroke-opacity="0.4"/>
</g>
<g id="Polygon 7_4">
<path d="M968.23 1233.35L972.348 1207.54L963.552 1207.63L968.23 1233.35Z" fill="#D9D9D9" fill-opacity="0.3"/>
<path d="M971.761 1208.05L964.149 1208.13L968.197 1230.38L971.761 1208.05Z" stroke="#00BFFF" stroke-opacity="0.4"/>
</g>
<g id="Polygon 21_4">
<path d="M967.865 1231L971.991 1204.93L963.173 1205.02L967.865 1231Z" fill="#D9D9D9" fill-opacity="0.3"/>
<path d="M971.405 1205.43L963.77 1205.52L967.832 1228L971.405 1205.43Z" stroke="#00BFFF" stroke-opacity="0.4"/>
</g>
<g id="Polygon 17_4">
<path d="M959.951 1248.09L964.349 1222.33L955.553 1222.33L959.951 1248.09Z" fill="#D9D9D9" fill-opacity="0.3"/>
<path d="M963.757 1222.83L956.145 1222.83L959.951 1245.12L963.757 1222.83Z" stroke="#00BFFF" stroke-opacity="0.4"/>
</g>
<g id="Polygon 10_4">
<path d="M962.593 1198.12L958.195 1223.88H966.991L962.593 1198.12Z" fill="#D9D9D9" fill-opacity="0.3"/>
<path d="M958.787 1223.38H966.399L962.594 1201.09L958.787 1223.38Z" stroke="#00BFFF" stroke-opacity="0.4"/>
</g>
<g id="Polygon 18_4">
<path d="M963.239 1243.8L967.637 1218.04L958.841 1218.04L963.239 1243.8Z" fill="#D9D9D9" fill-opacity="0.3"/>
<path d="M967.045 1218.54L959.433 1218.54L963.239 1240.83L967.045 1218.54Z" stroke="#00BFFF" stroke-opacity="0.4"/>
</g>
<g id="Polygon 9_4">
<path d="M959.542 1197.19L954.508 1222.84L963.302 1223.05L959.542 1197.19Z" fill="#D9D9D9" fill-opacity="0.3"/>
<path d="M955.112 1222.35L962.722 1222.54L959.469 1200.16L955.112 1222.35Z" stroke="#00BFFF" stroke-opacity="0.4"/>
</g>
<g id="Polygon 19_4">
<path d="M965.144 1255.8L963.754 1227.66L955.144 1229.46L965.144 1255.8Z" fill="#D9D9D9" fill-opacity="0.3"/>
<path d="M963.284 1228.27L955.819 1229.83L964.489 1252.67L963.284 1228.27Z" stroke="#00BFFF" stroke-opacity="0.4"/>
</g>
<g id="Polygon 4_4">
<path d="M966.165 1195.14L964.178 1221.2L972.936 1220.38L966.165 1195.14Z" fill="#D9D9D9" fill-opacity="0.3"/>
<path d="M964.721 1220.65L972.3 1219.94L966.441 1198.1L964.721 1220.65Z" stroke="#00BFFF" stroke-opacity="0.4"/>
</g>
<g id="Polygon 20_4">
<path d="M959.957 1247.82L963.115 1221.88L954.329 1222.3L959.957 1247.82Z" fill="#D9D9D9" fill-opacity="0.3"/>
<path d="M962.548 1222.41L954.945 1222.77L959.814 1244.86L962.548 1222.41Z" stroke="#00BFFF" stroke-opacity="0.4"/>
</g>
<g id="Polygon 8_4">
<path d="M962.652 1195.01L958.254 1220.77H967.05L962.652 1195.01Z" fill="#D9D9D9" fill-opacity="0.3"/>
<path d="M958.846 1220.27H966.458L962.652 1197.98L958.846 1220.27Z" stroke="#00BFFF" stroke-opacity="0.4"/>
</g>
<g id="Polygon 12_4">
<path d="M967.644 1244.72L973.889 1219.35L965.115 1218.71L967.644 1244.72Z" fill="#D9D9D9" fill-opacity="0.3"/>
<path d="M973.262 1219.8L965.67 1219.26L967.858 1241.76L973.262 1219.8Z" stroke="#00BFFF" stroke-opacity="0.4"/>
</g>
</g>
</g>
<g id="[&#230;&#139;&#161;&#229;&#188;&#181;&#232;&#161;&#151;]&#230;&#143;&#143;&#231;&#148;&#187;&#228;&#184;&#141;&#232;&#166;&#129;&#227;&#130;&#168;&#227;&#131;&#188;&#227;&#131;&#134;&#227;&#131;&#169;&#227;&#130;&#164;&#227;&#131;&#136;">
<g id="Group 5_5">
<path id="Polygon 22_5" d="M1417.26 824.217L1405.35 826.427L1402.41 831.394L1410.65 835.378H1423.87L1432.12 831.394L1429.17 826.427L1417.26 824.217Z" fill="#F0FEFF" fill-opacity="0.4"/>
<path id="Polygon 23_5" d="M1417.29 820.224L1405.17 822.468L1402.18 827.51L1410.57 831.553H1424.02L1432.4 827.51L1429.41 822.468L1417.29 820.224Z" fill="#F0FEFF" fill-opacity="0.4"/>
</g>
<g id="Group 2_5">
<g id="Polygon 1_5">
<path d="M1416.77 763.146L1412.37 787.145H1421.17L1416.77 763.146Z" fill="#D9D9D9" fill-opacity="0.3"/>
<path d="M1412.97 786.645H1420.57L1416.77 765.919L1412.97 786.645Z" stroke="#00BFFF" stroke-opacity="0.4"/>
</g>
<g id="Polygon 11_5">
<path d="M1414.07 827.142L1418.46 801.382L1409.67 801.382L1414.07 827.142Z" fill="#D9D9D9" fill-opacity="0.3"/>
<path d="M1417.87 801.883L1410.26 801.883L1414.07 824.174L1417.87 801.883Z" stroke="#00BFFF" stroke-opacity="0.4"/>
</g>
<g id="Polygon 2_5">
<path d="M1414.98 769.886L1408.7 795.253L1417.47 795.899L1414.98 769.886Z" fill="#D9D9D9" fill-opacity="0.3"/>
<path d="M1409.32 794.798L1416.92 795.357L1414.76 772.846L1409.32 794.798Z" stroke="#00BFFF" stroke-opacity="0.4"/>
</g>
<g id="Polygon 6_5">
<path d="M1415.9 765.508L1408.09 796.427L1416 797.398L1415.9 765.508Z" fill="#D9D9D9" fill-opacity="0.3"/>
<path d="M1408.71 796L1415.5 796.833L1415.41 769.476L1408.71 796Z" stroke="#00BFFF" stroke-opacity="0.4"/>
</g>
<g id="Polygon 13_5">
<path d="M1418.06 827.612L1422.46 801.852L1413.66 801.852L1418.06 827.612Z" fill="#D9D9D9" fill-opacity="0.3"/>
<path d="M1421.87 802.352L1414.25 802.352L1418.06 824.643L1421.87 802.352Z" stroke="#00BFFF" stroke-opacity="0.4"/>
</g>
<g id="Polygon 5_5">
<path d="M1416.39 764.571L1410.89 790.118L1419.68 790.496L1416.39 764.571Z" fill="#D9D9D9" fill-opacity="0.3"/>
<path d="M1411.5 789.644L1419.11 789.971L1416.26 767.537L1411.5 789.644Z" stroke="#00BFFF" stroke-opacity="0.4"/>
</g>
<g id="Polygon 14_5">
<path d="M1421.72 827.113L1424.53 794.283L1419.49 794.238L1421.72 827.113Z" fill="#D9D9D9" fill-opacity="0.3"/>
<path d="M1423.99 794.778L1420.03 794.743L1421.78 820.568L1423.99 794.778Z" stroke="#00BFFF" stroke-opacity="0.4"/>
</g>
<g id="Polygon 15_5">
<path d="M1415.26 825.215L1426.27 801.516L1417.79 799.205L1415.26 825.215Z" fill="#D9D9D9" fill-opacity="0.3"/>
<path d="M1425.57 801.843L1418.22 799.843L1416.04 822.351L1425.57 801.843Z" stroke="#00BFFF" stroke-opacity="0.4"/>
</g>
<g id="Polygon 3_5">
<path d="M1418.43 768.611L1414.62 794.464L1423.42 794.264L1418.43 768.611Z" fill="#D9D9D9" fill-opacity="0.3"/>
<path d="M1415.2 793.951L1422.81 793.777L1418.5 771.579L1415.2 793.951Z" stroke="#00BFFF" stroke-opacity="0.4"/>
</g>
<g id="Polygon 16_5">
<path d="M1415.78 824.796L1417.68 803.403L1410.73 803.92L1415.78 824.796Z" fill="#D9D9D9" fill-opacity="0.3"/>
<path d="M1417.13 803.945L1411.35 804.375L1415.55 821.726L1417.13 803.945Z" stroke="#00BFFF" stroke-opacity="0.4"/>
</g>
<g id="Polygon 7_5">
<path d="M1421.23 810.345L1425.35 784.539L1416.55 784.635L1421.23 810.345Z" fill="#D9D9D9" fill-opacity="0.3"/>
<path d="M1424.76 785.046L1417.15 785.128L1421.2 807.377L1424.76 785.046Z" stroke="#00BFFF" stroke-opacity="0.4"/>
</g>
<g id="Polygon 21_5">
<path d="M1420.87 807.997L1424.99 781.926L1416.17 782.022L1420.87 807.997Z" fill="#D9D9D9" fill-opacity="0.3"/>
<path d="M1424.4 782.432L1416.77 782.515L1420.83 805.003L1424.4 782.432Z" stroke="#00BFFF" stroke-opacity="0.4"/>
</g>
<g id="Polygon 17_5">
<path d="M1412.95 825.087L1417.35 799.327L1408.55 799.327L1412.95 825.087Z" fill="#D9D9D9" fill-opacity="0.3"/>
<path d="M1416.76 799.828L1409.14 799.828L1412.95 822.119L1416.76 799.828Z" stroke="#00BFFF" stroke-opacity="0.4"/>
</g>
<g id="Polygon 10_5">
<path d="M1415.59 775.123L1411.19 800.883H1419.99L1415.59 775.123Z" fill="#D9D9D9" fill-opacity="0.3"/>
<path d="M1411.79 800.383H1419.4L1415.59 778.092L1411.79 800.383Z" stroke="#00BFFF" stroke-opacity="0.4"/>
</g>
<g id="Polygon 18_5">
<path d="M1416.24 820.801L1420.64 795.041L1411.84 795.041L1416.24 820.801Z" fill="#D9D9D9" fill-opacity="0.3"/>
<path d="M1420.05 795.542L1412.43 795.542L1416.24 817.833L1420.05 795.542Z" stroke="#00BFFF" stroke-opacity="0.4"/>
</g>
<g id="Polygon 9_5">
<path d="M1412.54 774.192L1407.51 799.835L1416.3 800.053L1412.54 774.192Z" fill="#D9D9D9" fill-opacity="0.3"/>
<path d="M1408.11 799.35L1415.72 799.538L1412.47 777.16L1408.11 799.35Z" stroke="#00BFFF" stroke-opacity="0.4"/>
</g>
<g id="Polygon 19_5">
<path d="M1418.14 832.799L1416.75 804.658L1408.14 806.458L1418.14 832.799Z" fill="#D9D9D9" fill-opacity="0.3"/>
<path d="M1416.28 805.267L1408.82 806.828L1417.49 829.666L1416.28 805.267Z" stroke="#00BFFF" stroke-opacity="0.4"/>
</g>
<g id="Polygon 4_5">
<path d="M1419.17 772.145L1417.18 798.202L1425.94 797.385L1419.17 772.145Z" fill="#D9D9D9" fill-opacity="0.3"/>
<path d="M1417.72 797.649L1425.3 796.942L1419.44 775.1L1417.72 797.649Z" stroke="#00BFFF" stroke-opacity="0.4"/>
</g>
<g id="Polygon 20_5">
<path d="M1412.96 824.822L1416.12 798.88L1407.33 799.302L1412.96 824.822Z" fill="#D9D9D9" fill-opacity="0.3"/>
<path d="M1415.55 799.408L1407.94 799.773L1412.81 821.856L1415.55 799.408Z" stroke="#00BFFF" stroke-opacity="0.4"/>
</g>
<g id="Polygon 8_5">
<path d="M1415.65 772.012L1411.25 797.772H1420.05L1415.65 772.012Z" fill="#D9D9D9" fill-opacity="0.3"/>
<path d="M1411.85 797.271H1419.46L1415.65 774.98L1411.85 797.271Z" stroke="#00BFFF" stroke-opacity="0.4"/>
</g>
<g id="Polygon 12_5">
<path d="M1420.64 821.724L1426.89 796.349L1418.12 795.714L1420.64 821.724Z" fill="#D9D9D9" fill-opacity="0.3"/>
<path d="M1426.26 796.805L1418.67 796.256L1420.86 818.763L1426.26 796.805Z" stroke="#00BFFF" stroke-opacity="0.4"/>
</g>
</g>
</g>
<g id="[&#230;&#139;&#161;&#229;&#188;&#181;&#232;&#161;&#151;]&#227;&#130;&#180;&#227;&#131;&#150;&#227;&#131;&#172;&#227;&#131;&#131;&#227;&#131;&#136;&#227;&#131;&#147;&#227;&#131;&#165;&#227;&#131;&#188;&#227;&#131;&#136;&#229;&#140;&#151;">
<g id="Group 5_6">
<path id="Polygon 22_6" d="M841.263 314.217L829.352 316.427L826.41 321.394L834.653 325.378H847.874L856.117 321.394L853.175 316.427L841.263 314.217Z" fill="#F0FEFF" fill-opacity="0.4"/>
<path id="Polygon 23_6" d="M841.293 310.224L829.174 312.468L826.181 317.51L834.568 321.553H848.018L856.404 317.51L853.411 312.468L841.293 310.224Z" fill="#F0FEFF" fill-opacity="0.4"/>
</g>
<g id="Group 2_6">
<g id="Polygon 1_6">
<path d="M840.768 253.146L836.37 277.145H845.166L840.768 253.146Z" fill="#D9D9D9" fill-opacity="0.3"/>
<path d="M836.969 276.645H844.566L840.768 255.919L836.969 276.645Z" stroke="#00BFFF" stroke-opacity="0.4"/>
</g>
<g id="Polygon 11_6">
<path d="M838.067 317.142L842.465 291.382L833.669 291.382L838.067 317.142Z" fill="#D9D9D9" fill-opacity="0.3"/>
<path d="M841.873 291.883L834.261 291.883L838.066 314.174L841.873 291.883Z" stroke="#00BFFF" stroke-opacity="0.4"/>
</g>
<g id="Polygon 2_6">
<path d="M838.976 259.886L832.698 285.253L841.47 285.899L838.976 259.886Z" fill="#D9D9D9" fill-opacity="0.3"/>
<path d="M833.325 284.798L840.917 285.357L838.759 262.846L833.325 284.798Z" stroke="#00BFFF" stroke-opacity="0.4"/>
</g>
<g id="Polygon 6_6">
<path d="M839.897 255.508L832.086 286.427L840.005 287.398L839.897 255.508Z" fill="#D9D9D9" fill-opacity="0.3"/>
<path d="M832.71 286L839.503 286.833L839.411 259.475L832.71 286Z" stroke="#00BFFF" stroke-opacity="0.4"/>
</g>
<g id="Polygon 13_6">
<path d="M842.059 317.612L846.458 291.852L837.661 291.852L842.059 317.612Z" fill="#D9D9D9" fill-opacity="0.3"/>
<path d="M845.866 292.352L838.253 292.352L842.059 314.643L845.866 292.352Z" stroke="#00BFFF" stroke-opacity="0.4"/>
</g>
<g id="Polygon 5_6">
<path d="M840.391 254.571L834.889 280.118L843.677 280.496L840.391 254.571Z" fill="#D9D9D9" fill-opacity="0.3"/>
<path d="M835.502 279.644L843.107 279.971L840.264 257.537L835.502 279.644Z" stroke="#00BFFF" stroke-opacity="0.4"/>
</g>
<g id="Polygon 14_6">
<path d="M845.72 317.113L848.53 284.283L843.493 284.238L845.72 317.113Z" fill="#D9D9D9" fill-opacity="0.3"/>
<path d="M847.987 284.778L844.028 284.743L845.778 310.568L847.987 284.778Z" stroke="#00BFFF" stroke-opacity="0.4"/>
</g>
<g id="Polygon 15_6">
<path d="M839.261 315.215L850.273 291.516L841.786 289.205L839.261 315.215Z" fill="#D9D9D9" fill-opacity="0.3"/>
<path d="M849.57 291.843L842.225 289.843L840.041 312.351L849.57 291.843Z" stroke="#00BFFF" stroke-opacity="0.4"/>
</g>
<g id="Polygon 3_6">
<path d="M842.431 258.611L838.621 284.464L847.415 284.264L842.431 258.611Z" fill="#D9D9D9" fill-opacity="0.3"/>
<path d="M839.202 283.951L846.812 283.777L842.499 261.579L839.202 283.951Z" stroke="#00BFFF" stroke-opacity="0.4"/>
</g>
<g id="Polygon 16_6">
<path d="M839.776 314.796L841.683 293.403L834.729 293.92L839.776 314.796Z" fill="#D9D9D9" fill-opacity="0.3"/>
<path d="M841.133 293.945L835.354 294.375L839.548 311.726L841.133 293.945Z" stroke="#00BFFF" stroke-opacity="0.4"/>
</g>
<g id="Polygon 7_6">
<path d="M845.23 300.345L849.348 274.539L840.552 274.635L845.23 300.345Z" fill="#D9D9D9" fill-opacity="0.3"/>
<path d="M848.762 275.046L841.15 275.128L845.197 297.377L848.762 275.046Z" stroke="#00BFFF" stroke-opacity="0.4"/>
</g>
<g id="Polygon 21_6">
<path d="M844.865 297.997L848.991 271.926L840.174 272.022L844.865 297.997Z" fill="#D9D9D9" fill-opacity="0.3"/>
<path d="M848.405 272.432L840.771 272.515L844.833 295.003L848.405 272.432Z" stroke="#00BFFF" stroke-opacity="0.4"/>
</g>
<g id="Polygon 17_6">
<path d="M836.951 315.087L841.35 289.327L832.553 289.327L836.951 315.087Z" fill="#D9D9D9" fill-opacity="0.3"/>
<path d="M840.758 289.828L833.145 289.828L836.951 312.119L840.758 289.828Z" stroke="#00BFFF" stroke-opacity="0.4"/>
</g>
<g id="Polygon 10_6">
<path d="M839.594 265.123L835.195 290.883H843.992L839.594 265.123Z" fill="#D9D9D9" fill-opacity="0.3"/>
<path d="M835.787 290.383H843.4L839.594 268.092L835.787 290.383Z" stroke="#00BFFF" stroke-opacity="0.4"/>
</g>
<g id="Polygon 18_6">
<path d="M840.239 310.801L844.638 285.041L835.841 285.041L840.239 310.801Z" fill="#D9D9D9" fill-opacity="0.3"/>
<path d="M844.046 285.542L836.433 285.542L840.239 307.833L844.046 285.542Z" stroke="#00BFFF" stroke-opacity="0.4"/>
</g>
<g id="Polygon 9_6">
<path d="M836.542 264.192L831.508 289.835L840.302 290.053L836.542 264.192Z" fill="#D9D9D9" fill-opacity="0.3"/>
<path d="M832.113 289.35L839.722 289.538L836.469 267.16L832.113 289.35Z" stroke="#00BFFF" stroke-opacity="0.4"/>
</g>
<g id="Polygon 19_6">
<path d="M842.145 322.799L840.755 294.658L832.144 296.458L842.145 322.799Z" fill="#D9D9D9" fill-opacity="0.3"/>
<path d="M840.284 295.267L832.82 296.828L841.489 319.666L840.284 295.267Z" stroke="#00BFFF" stroke-opacity="0.4"/>
</g>
<g id="Polygon 4_6">
<path d="M843.166 262.145L841.178 288.202L849.937 287.385L843.166 262.145Z" fill="#D9D9D9" fill-opacity="0.3"/>
<path d="M841.721 287.649L849.301 286.942L843.442 265.1L841.721 287.649Z" stroke="#00BFFF" stroke-opacity="0.4"/>
</g>
<g id="Polygon 20_6">
<path d="M836.957 314.822L840.116 288.88L831.33 289.302L836.957 314.822Z" fill="#D9D9D9" fill-opacity="0.3"/>
<path d="M839.548 289.408L831.945 289.773L836.815 311.856L839.548 289.408Z" stroke="#00BFFF" stroke-opacity="0.4"/>
</g>
<g id="Polygon 8_6">
<path d="M839.652 262.012L835.254 287.772H844.05L839.652 262.012Z" fill="#D9D9D9" fill-opacity="0.3"/>
<path d="M835.846 287.271H843.458L839.653 264.98L835.846 287.271Z" stroke="#00BFFF" stroke-opacity="0.4"/>
</g>
<g id="Polygon 12_6">
<path d="M844.644 311.724L850.889 286.349L842.116 285.714L844.644 311.724Z" fill="#D9D9D9" fill-opacity="0.3"/>
<path d="M850.263 286.805L842.67 286.256L844.858 308.763L850.263 286.805Z" stroke="#00BFFF" stroke-opacity="0.4"/>
</g>
</g>
</g>
<g id="[&#230;&#139;&#161;&#229;&#188;&#181;&#232;&#161;&#151;]&#227;&#131;&#138;&#227;&#131;&#138;&#227;&#131;&#162;&#229;&#164;&#167;&#233;&#162;&#168;&#232;&#187;&#138;">
<g id="Group 5_7">
<path id="Polygon 22_7" d="M298.263 362.217L286.352 364.427L283.41 369.394L291.653 373.378H304.874L313.117 369.394L310.175 364.427L298.263 362.217Z" fill="#F0FEFF" fill-opacity="0.4"/>
<path id="Polygon 23_7" d="M298.293 358.224L286.174 360.468L283.181 365.51L291.568 369.553H305.018L313.404 365.51L310.411 360.468L298.293 358.224Z" fill="#F0FEFF" fill-opacity="0.4"/>
</g>
<g id="Group 2_7">
<g id="Polygon 1_7">
<path d="M297.768 301.146L293.369 325.145H302.166L297.768 301.146Z" fill="#D9D9D9" fill-opacity="0.3"/>
<path d="M293.969 324.645H301.566L297.768 303.919L293.969 324.645Z" stroke="#00BFFF" stroke-opacity="0.4"/>
</g>
<g id="Polygon 11_7">
<path d="M295.067 365.142L299.465 339.382L290.669 339.382L295.067 365.142Z" fill="#D9D9D9" fill-opacity="0.3"/>
<path d="M298.873 339.883L291.261 339.883L295.066 362.174L298.873 339.883Z" stroke="#00BFFF" stroke-opacity="0.4"/>
</g>
<g id="Polygon 2_7">
<path d="M295.976 307.886L289.698 333.253L298.47 333.899L295.976 307.886Z" fill="#D9D9D9" fill-opacity="0.3"/>
<path d="M290.325 332.798L297.917 333.357L295.758 310.846L290.325 332.798Z" stroke="#00BFFF" stroke-opacity="0.4"/>
</g>
<g id="Polygon 6_7">
<path d="M296.897 303.508L289.086 334.427L297.005 335.398L296.897 303.508Z" fill="#D9D9D9" fill-opacity="0.3"/>
<path d="M289.71 334L296.503 334.833L296.41 307.475L289.71 334Z" stroke="#00BFFF" stroke-opacity="0.4"/>
</g>
<g id="Polygon 13_7">
<path d="M299.059 365.612L303.458 339.852L294.661 339.852L299.059 365.612Z" fill="#D9D9D9" fill-opacity="0.3"/>
<path d="M302.865 340.352L295.253 340.352L299.059 362.643L302.865 340.352Z" stroke="#00BFFF" stroke-opacity="0.4"/>
</g>
<g id="Polygon 5_7">
<path d="M297.391 302.571L291.889 328.118L300.677 328.496L297.391 302.571Z" fill="#D9D9D9" fill-opacity="0.3"/>
<path d="M292.502 327.644L300.107 327.971L297.264 305.537L292.502 327.644Z" stroke="#00BFFF" stroke-opacity="0.4"/>
</g>
<g id="Polygon 14_7">
<path d="M302.72 365.113L305.53 332.283L300.493 332.238L302.72 365.113Z" fill="#D9D9D9" fill-opacity="0.3"/>
<path d="M304.986 332.778L301.028 332.743L302.778 358.568L304.986 332.778Z" stroke="#00BFFF" stroke-opacity="0.4"/>
</g>
<g id="Polygon 15_7">
<path d="M296.261 363.215L307.273 339.516L298.785 337.205L296.261 363.215Z" fill="#D9D9D9" fill-opacity="0.3"/>
<path d="M306.57 339.843L299.225 337.843L297.041 360.351L306.57 339.843Z" stroke="#00BFFF" stroke-opacity="0.4"/>
</g>
<g id="Polygon 3_7">
<path d="M299.431 306.611L295.621 332.464L304.415 332.264L299.431 306.611Z" fill="#D9D9D9" fill-opacity="0.3"/>
<path d="M296.202 331.951L303.812 331.777L299.499 309.579L296.202 331.951Z" stroke="#00BFFF" stroke-opacity="0.4"/>
</g>
<g id="Polygon 16_7">
<path d="M296.776 362.796L298.683 341.403L291.729 341.92L296.776 362.796Z" fill="#D9D9D9" fill-opacity="0.3"/>
<path d="M298.133 341.945L292.354 342.375L296.548 359.726L298.133 341.945Z" stroke="#00BFFF" stroke-opacity="0.4"/>
</g>
<g id="Polygon 7_7">
<path d="M302.23 348.345L306.348 322.539L297.552 322.635L302.23 348.345Z" fill="#D9D9D9" fill-opacity="0.3"/>
<path d="M305.761 323.046L298.15 323.128L302.197 345.377L305.761 323.046Z" stroke="#00BFFF" stroke-opacity="0.4"/>
</g>
<g id="Polygon 21_7">
<path d="M301.865 345.997L305.991 319.926L297.174 320.022L301.865 345.997Z" fill="#D9D9D9" fill-opacity="0.3"/>
<path d="M305.405 320.432L297.77 320.515L301.833 343.003L305.405 320.432Z" stroke="#00BFFF" stroke-opacity="0.4"/>
</g>
<g id="Polygon 17_7">
<path d="M293.951 363.087L298.35 337.327L289.553 337.327L293.951 363.087Z" fill="#D9D9D9" fill-opacity="0.3"/>
<path d="M297.758 337.828L290.145 337.828L293.951 360.119L297.758 337.828Z" stroke="#00BFFF" stroke-opacity="0.4"/>
</g>
<g id="Polygon 10_7">
<path d="M296.593 313.123L292.195 338.883H300.992L296.593 313.123Z" fill="#D9D9D9" fill-opacity="0.3"/>
<path d="M292.787 338.383H300.4L296.594 316.092L292.787 338.383Z" stroke="#00BFFF" stroke-opacity="0.4"/>
</g>
<g id="Polygon 18_7">
<path d="M297.239 358.801L301.638 333.041L292.841 333.041L297.239 358.801Z" fill="#D9D9D9" fill-opacity="0.3"/>
<path d="M301.045 333.542L293.433 333.542L297.239 355.833L301.045 333.542Z" stroke="#00BFFF" stroke-opacity="0.4"/>
</g>
<g id="Polygon 9_7">
<path d="M293.542 312.192L288.508 337.835L297.302 338.053L293.542 312.192Z" fill="#D9D9D9" fill-opacity="0.3"/>
<path d="M289.112 337.35L296.722 337.538L293.469 315.16L289.112 337.35Z" stroke="#00BFFF" stroke-opacity="0.4"/>
</g>
<g id="Polygon 19_7">
<path d="M299.145 370.799L297.754 342.658L289.144 344.458L299.145 370.799Z" fill="#D9D9D9" fill-opacity="0.3"/>
<path d="M297.284 343.267L289.819 344.828L298.489 367.666L297.284 343.267Z" stroke="#00BFFF" stroke-opacity="0.4"/>
</g>
<g id="Polygon 4_7">
<path d="M300.166 310.145L298.178 336.202L306.937 335.385L300.166 310.145Z" fill="#D9D9D9" fill-opacity="0.3"/>
<path d="M298.721 335.649L306.301 334.942L300.442 313.1L298.721 335.649Z" stroke="#00BFFF" stroke-opacity="0.4"/>
</g>
<g id="Polygon 20_7">
<path d="M293.957 362.822L297.116 336.88L288.33 337.302L293.957 362.822Z" fill="#D9D9D9" fill-opacity="0.3"/>
<path d="M296.548 337.408L288.945 337.773L293.814 359.856L296.548 337.408Z" stroke="#00BFFF" stroke-opacity="0.4"/>
</g>
<g id="Polygon 8_7">
<path d="M296.652 310.012L292.254 335.772H301.05L296.652 310.012Z" fill="#D9D9D9" fill-opacity="0.3"/>
<path d="M292.846 335.271H300.458L296.653 312.98L292.846 335.271Z" stroke="#00BFFF" stroke-opacity="0.4"/>
</g>
<g id="Polygon 12_7">
<path d="M301.644 359.724L307.889 334.349L299.116 333.714L301.644 359.724Z" fill="#D9D9D9" fill-opacity="0.3"/>
<path d="M307.263 334.805L299.67 334.256L301.858 356.763L307.263 334.805Z" stroke="#00BFFF" stroke-opacity="0.4"/>
</g>
</g>
</g>
<g id="[&#230;&#139;&#161;&#229;&#188;&#181;&#232;&#161;&#151;]&#227;&#130;&#180;&#227;&#131;&#150;&#227;&#131;&#172;&#227;&#131;&#131;&#227;&#131;&#136;&#229;&#184;&#130;&#229;&#160;&#180;">
<g id="Group 5_8">
<path id="Polygon 22_8" d="M1154.26 719.217L1142.35 721.427L1139.41 726.394L1147.65 730.378H1160.87L1169.12 726.394L1166.17 721.427L1154.26 719.217Z" fill="#F0FEFF" fill-opacity="0.4"/>
<path id="Polygon 23_8" d="M1154.29 715.224L1142.17 717.468L1139.18 722.51L1147.57 726.553H1161.02L1169.4 722.51L1166.41 717.468L1154.29 715.224Z" fill="#F0FEFF" fill-opacity="0.4"/>
</g>
<g id="Group 2_8">
<g id="Polygon 1_8">
<path d="M1153.77 658.146L1149.37 682.145H1158.17L1153.77 658.146Z" fill="#D9D9D9" fill-opacity="0.3"/>
<path d="M1149.97 681.645H1157.57L1153.77 660.919L1149.97 681.645Z" stroke="#00BFFF" stroke-opacity="0.4"/>
</g>
<g id="Polygon 11_8">
<path d="M1151.07 722.142L1155.46 696.382L1146.67 696.382L1151.07 722.142Z" fill="#D9D9D9" fill-opacity="0.3"/>
<path d="M1154.87 696.883L1147.26 696.883L1151.07 719.174L1154.87 696.883Z" stroke="#00BFFF" stroke-opacity="0.4"/>
</g>
<g id="Polygon 2_8">
<path d="M1151.98 664.886L1145.7 690.253L1154.47 690.899L1151.98 664.886Z" fill="#D9D9D9" fill-opacity="0.3"/>
<path d="M1146.32 689.798L1153.92 690.357L1151.76 667.846L1146.32 689.798Z" stroke="#00BFFF" stroke-opacity="0.4"/>
</g>
<g id="Polygon 6_8">
<path d="M1152.9 660.508L1145.09 691.427L1153 692.398L1152.9 660.508Z" fill="#D9D9D9" fill-opacity="0.3"/>
<path d="M1145.71 691L1152.5 691.833L1152.41 664.476L1145.71 691Z" stroke="#00BFFF" stroke-opacity="0.4"/>
</g>
<g id="Polygon 13_8">
<path d="M1155.06 722.612L1159.46 696.852L1150.66 696.852L1155.06 722.612Z" fill="#D9D9D9" fill-opacity="0.3"/>
<path d="M1158.87 697.352L1151.25 697.352L1155.06 719.643L1158.87 697.352Z" stroke="#00BFFF" stroke-opacity="0.4"/>
</g>
<g id="Polygon 5_8">
<path d="M1153.39 659.571L1147.89 685.118L1156.68 685.496L1153.39 659.571Z" fill="#D9D9D9" fill-opacity="0.3"/>
<path d="M1148.5 684.644L1156.11 684.971L1153.26 662.537L1148.5 684.644Z" stroke="#00BFFF" stroke-opacity="0.4"/>
</g>
<g id="Polygon 14_8">
<path d="M1158.72 722.113L1161.53 689.283L1156.49 689.238L1158.72 722.113Z" fill="#D9D9D9" fill-opacity="0.3"/>
<path d="M1160.99 689.778L1157.03 689.743L1158.78 715.568L1160.99 689.778Z" stroke="#00BFFF" stroke-opacity="0.4"/>
</g>
<g id="Polygon 15_8">
<path d="M1152.26 720.215L1163.27 696.516L1154.79 694.205L1152.26 720.215Z" fill="#D9D9D9" fill-opacity="0.3"/>
<path d="M1162.57 696.843L1155.23 694.843L1153.04 717.351L1162.57 696.843Z" stroke="#00BFFF" stroke-opacity="0.4"/>
</g>
<g id="Polygon 3_8">
<path d="M1155.43 663.611L1151.62 689.464L1160.42 689.264L1155.43 663.611Z" fill="#D9D9D9" fill-opacity="0.3"/>
<path d="M1152.2 688.951L1159.81 688.777L1155.5 666.579L1152.2 688.951Z" stroke="#00BFFF" stroke-opacity="0.4"/>
</g>
<g id="Polygon 16_8">
<path d="M1152.78 719.796L1154.68 698.403L1147.73 698.92L1152.78 719.796Z" fill="#D9D9D9" fill-opacity="0.3"/>
<path d="M1154.13 698.945L1148.35 699.375L1152.55 716.726L1154.13 698.945Z" stroke="#00BFFF" stroke-opacity="0.4"/>
</g>
<g id="Polygon 7_8">
<path d="M1158.23 705.345L1162.35 679.539L1153.55 679.635L1158.23 705.345Z" fill="#D9D9D9" fill-opacity="0.3"/>
<path d="M1161.76 680.046L1154.15 680.128L1158.2 702.377L1161.76 680.046Z" stroke="#00BFFF" stroke-opacity="0.4"/>
</g>
<g id="Polygon 21_8">
<path d="M1157.87 702.997L1161.99 676.926L1153.17 677.022L1157.87 702.997Z" fill="#D9D9D9" fill-opacity="0.3"/>
<path d="M1161.4 677.432L1153.77 677.515L1157.83 700.003L1161.4 677.432Z" stroke="#00BFFF" stroke-opacity="0.4"/>
</g>
<g id="Polygon 17_8">
<path d="M1149.95 720.087L1154.35 694.327L1145.55 694.327L1149.95 720.087Z" fill="#D9D9D9" fill-opacity="0.3"/>
<path d="M1153.76 694.828L1146.14 694.828L1149.95 717.119L1153.76 694.828Z" stroke="#00BFFF" stroke-opacity="0.4"/>
</g>
<g id="Polygon 10_8">
<path d="M1152.59 670.123L1148.19 695.883H1156.99L1152.59 670.123Z" fill="#D9D9D9" fill-opacity="0.3"/>
<path d="M1148.79 695.383H1156.4L1152.59 673.092L1148.79 695.383Z" stroke="#00BFFF" stroke-opacity="0.4"/>
</g>
<g id="Polygon 18_8">
<path d="M1153.24 715.801L1157.64 690.041L1148.84 690.041L1153.24 715.801Z" fill="#D9D9D9" fill-opacity="0.3"/>
<path d="M1157.05 690.542L1149.43 690.542L1153.24 712.833L1157.05 690.542Z" stroke="#00BFFF" stroke-opacity="0.4"/>
</g>
<g id="Polygon 9_8">
<path d="M1149.54 669.192L1144.51 694.835L1153.3 695.053L1149.54 669.192Z" fill="#D9D9D9" fill-opacity="0.3"/>
<path d="M1145.11 694.35L1152.72 694.538L1149.47 672.16L1145.11 694.35Z" stroke="#00BFFF" stroke-opacity="0.4"/>
</g>
<g id="Polygon 19_8">
<path d="M1155.14 727.799L1153.75 699.658L1145.14 701.458L1155.14 727.799Z" fill="#D9D9D9" fill-opacity="0.3"/>
<path d="M1153.28 700.267L1145.82 701.828L1154.49 724.666L1153.28 700.267Z" stroke="#00BFFF" stroke-opacity="0.4"/>
</g>
<g id="Polygon 4_8">
<path d="M1156.17 667.145L1154.18 693.202L1162.94 692.385L1156.17 667.145Z" fill="#D9D9D9" fill-opacity="0.3"/>
<path d="M1154.72 692.649L1162.3 691.942L1156.44 670.1L1154.72 692.649Z" stroke="#00BFFF" stroke-opacity="0.4"/>
</g>
<g id="Polygon 20_8">
<path d="M1149.96 719.822L1153.12 693.88L1144.33 694.302L1149.96 719.822Z" fill="#D9D9D9" fill-opacity="0.3"/>
<path d="M1152.55 694.408L1144.94 694.773L1149.81 716.856L1152.55 694.408Z" stroke="#00BFFF" stroke-opacity="0.4"/>
</g>
<g id="Polygon 8_8">
<path d="M1152.65 667.012L1148.25 692.772H1157.05L1152.65 667.012Z" fill="#D9D9D9" fill-opacity="0.3"/>
<path d="M1148.85 692.271H1156.46L1152.65 669.98L1148.85 692.271Z" stroke="#00BFFF" stroke-opacity="0.4"/>
</g>
<g id="Polygon 12_8">
<path d="M1157.64 716.724L1163.89 691.349L1155.12 690.714L1157.64 716.724Z" fill="#D9D9D9" fill-opacity="0.3"/>
<path d="M1163.26 691.805L1155.67 691.256L1157.86 713.763L1163.26 691.805Z" stroke="#00BFFF" stroke-opacity="0.4"/>
</g>
</g>
</g>
</g>
<path id="&#227;&#131;&#138;&#227;&#131;&#147;&#227;&#130;&#178;&#227;&#131;&#188;&#227;&#130;&#183;&#227;&#131;&#167;&#227;&#131;&#179;&#231;&#148;&#168;&#233;&#129;&#147;&#232;&#183;&#175;" d="M407.792 308.146L398.292 208.146L605.792 154.752M407.792 308.146L272.292 385.646H69.7925C-25.391 539.392 -10.4089 607.462 122.792 700.646L125.292 739.646H215.292V779.146H141.792L295.292 1101.65L274.292 1176.15L387.292 1224.65M407.792 308.146L438.792 360.646L623.292 305.146M387.292 1224.65V1329.15M387.292 1224.65L434.292 1149.15L501.792 1171.15L590.292 1153.15M540.292 1436.65L387.292 1433.65V1329.15M387.292 1329.15H686.292M686.292 1329.15L690.292 1418.65H820.792L824.292 1380.65L943.792 1317.65L926.292 1211.65M686.292 1329.15L692.042 1278.15M926.292 1211.65L1011.29 1120.65L926.292 976.646M926.292 1211.65L849.292 1162.15V1211.65L776.792 1240.15L772.292 1259.15L692.042 1278.15M926.292 976.646L1024.79 739.646M926.292 976.646L913.792 973.146L823.292 909.146L706.292 947.646M1024.79 739.646L1164.79 738.646L1138.29 500.146L1230.79 416.646L1138.29 276.646L1162.79 229.646L960.292 98.6461L912.292 129.646L811.292 73.6461L664.792 37.6461L637.292 146.646L605.792 154.752M1024.79 739.646L1012.29 599.646L820.792 351.646H690.292M1024.79 739.646H887.792L858.792 679.146L763.292 587.146L664.292 665.646M690.292 351.646L707.292 498.646L782.792 549.146L852.292 486.146M690.292 351.646L623.292 305.146M623.292 305.146L605.792 154.752M664.292 665.646L632.292 639.146M664.292 665.646L508.792 883.146M508.792 883.146L358.792 779.146V741.146H537.292M508.792 883.146L488.292 947.646H706.292M706.292 947.646V1082.15M590.292 1153.15V1082.15H706.292L736.792 1070.65M590.292 1153.15L686.292 1176.15L697.792 1227.15L692.042 1278.15" stroke="#FF0000"/>
<g id="Node">
<circle id="node_16" cx="1025.79" cy="737.146" r="27.5" transform="rotate(90 1025.79 737.146)" stroke="#FF0000"/>
<circle id="node_15" cx="925.792" cy="976.146" r="27.5" transform="rotate(90 925.792 976.146)" stroke="#FF0000"/>
<circle id="node_14" cx="712.792" cy="1080.15" r="27.5" transform="rotate(90 712.792 1080.15)" stroke="#FF0000"/>
<circle id="node_13" cx="589.792" cy="1152.15" r="27.5" transform="rotate(90 589.792 1152.15)" stroke="#FF0000"/>
<circle id="node_12" cx="390.792" cy="1217.15" r="27.5" transform="rotate(90 390.792 1217.15)" stroke="#FF0000"/>
<circle id="node_11" cx="390.792" cy="1330.15" r="27.5" transform="rotate(90 390.792 1330.15)" stroke="#FF0000"/>
<circle id="node_10" cx="686.792" cy="1328.15" r="27.5" transform="rotate(90 686.792 1328.15)" stroke="#FF0000"/>
<circle id="node_9" cx="708.792" cy="948.146" r="27.5" transform="rotate(90 708.792 948.146)" stroke="#FF0000"/>
<circle id="node_8" cx="510.792" cy="885.146" r="27.5" transform="rotate(90 510.792 885.146)" stroke="#FF0000"/>
<circle id="node_7" cx="696.792" cy="1275.15" r="27.5" transform="rotate(90 696.792 1275.15)" stroke="#FF0000"/>
<circle id="node_6" cx="927.792" cy="1212.15" r="27.5" transform="rotate(90 927.792 1212.15)" stroke="#FF0000"/>
<circle id="node_5" cx="664.792" cy="661.146" r="27.5" transform="rotate(90 664.792 661.146)" stroke="#FF0000"/>
<circle id="node_4" cx="696.792" cy="355.146" r="27.5" transform="rotate(90 696.792 355.146)" stroke="#FF0000"/>
<circle id="node_3" cx="622.792" cy="311.146" r="27.5" transform="rotate(90 622.792 311.146)" stroke="#FF0000"/>
<circle id="node_2" cx="608.792" cy="152.146" r="27.5" transform="rotate(90 608.792 152.146)" stroke="#FF0000"/>
<circle id="node_1" cx="409.792" cy="309.146" r="27.5" transform="rotate(90 409.792 309.146)" stroke="#FF0000"/>
</g>
</g>
</svg>
