<svg width="1798" height="1674" viewBox="0 0 1798 1674" fill="none" xmlns="http://www.w3.org/2000/svg">
<g id="Group 12">
<path id="&#233;&#129;&#147;&#232;&#183;&#175;(Stroke)" d="M346.781 140.438C379.463 80.5213 426.173 50.3716 473.531 51.4163C519.982 52.441 563.364 83.4097 591.071 137.886C591.498 138.726 592.068 139.494 592.752 140.141C602.066 148.94 610.331 157.407 617.631 165.865C634.103 184.949 645.587 203.893 653.318 226.424C660.821 248.291 664.638 273.113 666.422 304.003C666.458 304.64 666.572 305.283 666.76 305.892C674.122 329.813 681.014 339.771 686.102 343.292C688.248 344.777 690.095 345.13 692.124 344.906C694.486 344.646 697.559 343.526 701.586 341.099C710.064 335.989 718.693 327.836 730.052 318.588C733.522 315.763 737.21 312.877 741.103 310.142C745.575 307.001 746.276 300.385 742.577 296.363C720.837 272.723 710.374 241.925 712.587 212.873C715.491 174.742 740.261 140.185 787.864 129.47L788.105 129.416C788.739 129.273 789.388 129.209 790.037 129.223L790.284 129.229C830.044 130.117 862.096 135.546 893.272 154.691C921.739 172.171 948.63 200.574 980.279 245.204C982.396 248.19 986.262 249.399 989.675 248.077C1002 243.302 1014.67 238.01 1028 232.087L1028.07 232.056L1028.14 232.026C1049.36 222.986 1066.66 218.834 1080.72 219.334C1086.76 219.549 1092.2 220.628 1097.04 222.506C1101.12 224.089 1106 223.118 1108.41 219.463L1128.81 188.419C1131.24 184.727 1136.2 183.701 1139.89 186.127L1143.23 188.324C1146.92 190.751 1147.95 195.711 1145.52 199.403L1120.66 237.243C1119.03 239.717 1118.95 242.868 1120.13 245.583C1123.98 254.436 1125.7 264.559 1126.44 274.548C1127.06 282.965 1127.02 291.906 1126.71 300.824C1126.55 305.396 1130.18 309.226 1134.76 309.226H1638.06C1642.48 309.226 1646.06 312.808 1646.06 317.226V321.226C1646.06 325.644 1642.48 329.226 1638.06 329.226H1132.82C1128.57 329.226 1125.05 332.55 1124.86 336.797C1124.5 345.363 1124.39 353.215 1124.92 360.091C1125.83 371.944 1128.45 377.262 1131.07 379.233C1148.71 392.495 1163.67 404.169 1172.78 415.629C1177.46 421.511 1181.07 427.898 1182.53 434.99C1184.04 442.273 1183.12 449.516 1179.98 456.679C1174.04 470.245 1159.99 483.795 1138.99 499.263C1123.45 510.717 1103.24 523.811 1077.87 539.25C1072.36 542.6 1072.78 550.857 1078.38 554.039C1095.94 564.007 1112.5 577.555 1127.57 595.785C1128.61 597.043 1130.12 597.802 1131.74 598.024C1135.68 598.563 1140.77 599.855 1146.6 601.605C1158.42 605.149 1175.1 611.142 1195.68 618.981C1231.74 632.72 1280.58 652.444 1337.77 675.41L1363.43 685.703L1364.03 686.051C1425.17 721.104 1462.66 743.868 1523.76 780.039C1527.56 782.29 1528.83 787.201 1526.58 791.005L1524.54 794.447C1522.29 798.25 1517.38 799.505 1513.58 797.254C1452.52 761.103 1415.32 738.52 1354.68 703.743C1286.81 676.543 1229.43 653.241 1188.56 637.671C1168.02 629.849 1151.92 624.081 1140.85 620.761C1137.05 619.619 1134.04 618.829 1131.77 618.339C1130.1 617.979 1128.35 618.278 1126.9 619.175C1109.59 629.857 1104.04 650.423 1099.17 679.383C1094.54 706.912 1090.69 741.158 1071.56 768.767C1070.87 769.756 1070.4 770.879 1070.18 772.064C1066.85 790.743 1063.67 804.797 1059.9 815.936C1055.44 829.089 1050.14 838.238 1042.92 846.318C1041.89 847.469 1041.16 848.87 1040.9 850.392C1039.47 858.878 1039.46 863.674 1040.21 866.679C1040.72 868.687 1041.64 870.339 1044.8 872.294C1045.4 872.667 1046.07 872.924 1046.75 873.097L1155.2 900.474C1159.55 901.571 1163.94 898.886 1164.95 894.52L1166.51 887.768C1167.51 883.463 1171.81 880.781 1176.11 881.776L1180.01 882.677C1184.31 883.672 1187 887.969 1186 892.273L1184.28 899.729C1183.3 903.973 1185.89 908.222 1190.11 909.288L1248.65 924.066C1249.02 924.16 1249.39 924.281 1249.74 924.428L1249.88 924.484C1262.23 929.585 1269.74 938.272 1272.64 949.722C1275.33 960.331 1273.79 972.349 1270.86 984.288C1267.89 996.393 1263.1 1009.84 1258.09 1023.69C1253.06 1037.59 1247.74 1052.11 1243.28 1067.14C1241.16 1077.81 1237.05 1086.59 1230.37 1093.31C1223.61 1100.11 1215.04 1103.97 1205.59 1106.13C1188.69 1110 1166.29 1108.93 1140.49 1107.53C1138.7 1107.44 1136.91 1107.92 1135.53 1109.06C1128.84 1114.6 1123.88 1122.88 1119.31 1134.22C1116.55 1141.08 1114.07 1148.66 1111.38 1157.02C1108.73 1165.28 1105.89 1174.25 1102.5 1183.39C1089.56 1218.29 1068.35 1256.3 1015.27 1281.64C1012.43 1282.99 1010.56 1285.84 1010.56 1289V1396.68C1012.59 1415.47 1006.31 1431.03 995.624 1442.41C985.033 1453.69 970.427 1460.59 955.927 1463.25C941.505 1465.89 926.037 1464.54 913.72 1457.83C902.915 1451.94 894.963 1442.08 892.709 1428.69C891.975 1424.33 895.642 1420.73 900.06 1420.73H904.06C908.479 1420.73 911.852 1424.41 913.222 1428.61C914.962 1433.94 918.553 1437.68 923.291 1440.26C930.614 1444.26 941.178 1445.62 952.319 1443.58C963.381 1441.55 973.869 1436.36 981.044 1428.72C988.007 1421.3 992.144 1411.32 990.629 1398.39L990.56 1397.81V1281.19C990.56 1277.5 988.043 1274.32 984.426 1273.63C982.633 1273.29 980.616 1272.92 978.331 1272.49C972.42 1271.38 965.294 1269.97 957.285 1267.82C927.74 1259.91 887.432 1242.31 845.965 1194.06C842.974 1190.58 837.696 1190.19 834.15 1193.1C825.564 1200.15 816.415 1206.1 805.36 1211.33C789.61 1218.78 770.338 1224.62 743.917 1230.44C741.854 1230.89 740.045 1232.14 738.894 1233.91L594.589 1455.91C592.729 1458.78 592.889 1462.5 594.988 1465.19L744.025 1656.27C746.742 1659.75 746.121 1664.78 742.637 1667.5L739.484 1669.96C736 1672.67 730.973 1672.05 728.255 1668.57L466.072 1332.44C464.441 1330.34 461.871 1329.21 459.222 1329.35C430.88 1330.87 411.435 1328 396.22 1320.36C381.796 1313.11 372.202 1302.02 362.8 1289.59C360.135 1286.06 360.899 1281.04 364.452 1278.41L367.668 1276.04C371.221 1273.41 376.22 1274.17 378.893 1277.69C387.873 1289.51 394.969 1297.35 405.198 1302.48C413.749 1306.78 425.209 1309.49 442.903 1309.72C448.317 1309.79 451.977 1304.37 450.294 1299.23C440.835 1270.3 433.953 1237.67 429.598 1202.97C418.777 1116.75 423.423 1016.67 443.926 926.919C445.07 921.91 441.332 917.093 436.197 916.922C418.962 916.346 403.955 914.831 389.778 911.383C369.425 906.432 351.294 897.636 330.722 882.845L329.843 882.213C327.649 880.636 326.4 878.058 326.521 875.358L326.57 874.276C330.516 786.731 319.225 738.055 312.429 694.453C305.903 652.577 303.717 615.917 323.165 557.733C324.178 554.704 323.327 551.358 321.044 549.123C304.628 533.05 295.044 516.354 291.731 495.854C288.508 475.907 291.4 453.212 297.886 425.413C298.741 421.751 296.979 417.966 293.601 416.312L241.348 390.725C237.38 388.782 235.738 383.991 237.681 380.022L239.44 376.43C241.383 372.461 246.175 370.82 250.143 372.763L294.799 394.629C299.468 396.915 305.045 394.206 306.128 389.121C315.659 344.349 322.738 307.63 328.881 269.406C329.269 266.995 328.528 264.54 326.876 262.741L292.107 224.883C289.118 221.629 289.333 216.568 292.587 213.579L295.533 210.873C298.788 207.885 303.848 208.1 306.837 211.354L321.967 227.828C326.526 232.792 334.79 230.238 335.713 223.562C337.681 209.322 339.609 194.44 341.558 178.511C342.897 167.574 344.245 156.143 345.625 144.089L345.67 143.698C345.787 142.676 346.101 141.686 346.593 140.783L346.781 140.438ZM618.796 902.783C604.979 898.817 584.156 897.571 552.409 900.643L472.215 915.025C469.124 915.58 466.64 917.885 465.893 920.936C445.038 1006.06 439.118 1102.09 447.802 1186.11C448.191 1189.88 451.202 1192.83 454.977 1193.13C466.259 1194.03 474.66 1194.19 481.22 1193.31C485.659 1192.71 488.987 1191.69 491.657 1190.15C495.484 1187.94 500.398 1186.91 503.952 1189.54L507.169 1191.91C510.723 1194.54 511.537 1199.64 508.278 1202.62C501.697 1208.64 493.607 1211.83 483.877 1213.13C477.312 1214.01 469.779 1214.06 461.188 1213.6C456.041 1213.33 451.834 1217.77 452.664 1222.86C458.103 1256.2 466.046 1286.65 476.388 1312.64C476.664 1313.33 477.039 1313.98 477.498 1314.57L571.568 1435.17C574.947 1439.5 581.589 1439.22 584.583 1434.61L726.629 1216.08C727.788 1214.3 729.609 1213.05 731.69 1212.61L732.502 1212.44C762.24 1206.19 781.772 1200.36 796.805 1193.25C810.466 1186.79 820.75 1179.09 831.727 1168.39C832.548 1167.59 833.18 1166.62 833.585 1165.54L861.848 1090.79C863.712 1085.86 860.377 1080.51 855.137 1079.94C829.74 1077.15 808.646 1073.46 789.101 1067.59C764.484 1060.18 742.716 1049.43 718.01 1033.2C717.288 1032.72 716.492 1032.36 715.658 1032.14C703.615 1028.84 691.33 1024.31 681.721 1020.24C676.529 1018.03 671.967 1015.9 668.551 1014.08C666.869 1013.19 665.275 1012.27 663.969 1011.39C663.331 1010.96 662.551 1010.39 661.806 1009.71C661.414 1009.36 659.578 1007.74 658.632 1005.06L658.485 1004.64L658.376 1004.22C653.784 986.376 652.31 969.285 650.685 955.05C649 940.28 647.183 929.148 642.73 920.608C638.681 912.843 632.089 906.6 618.796 902.783ZM1033.91 946.4C1033.25 948.669 1031.63 950.532 1029.47 951.49L1028.61 951.867C996.346 966.18 965.063 976.42 939.107 994.005C914.147 1010.92 895.242 1034.09 889.455 1073.67L889.423 1073.89C889.34 1074.46 889.195 1075.02 888.99 1075.56L854.496 1166.79C853.503 1169.41 853.964 1172.39 855.736 1174.57C896.29 1224.46 935.201 1241.2 962.461 1248.5C969.733 1250.45 976.271 1251.75 982.026 1252.83C987.533 1253.87 992.987 1254.81 997.165 1255.97C999.309 1256.57 1001.64 1257.35 1003.77 1258.5C1003.85 1258.54 1003.93 1258.58 1004 1258.63C1007.22 1260.41 1011.19 1261.39 1014.42 1259.65C1055.68 1237.42 1072.63 1206.41 1083.75 1176.44C1086.95 1167.8 1089.65 1159.29 1092.34 1150.9C1095.01 1142.61 1097.69 1134.37 1100.76 1126.74C1106.88 1111.57 1115.14 1097.27 1130.02 1088.59L1130.54 1088.29C1131.89 1087.5 1133.44 1087.12 1135 1087.21L1135.6 1087.24C1165.3 1088.84 1186.37 1090.01 1201.13 1086.64C1208.14 1085.03 1212.87 1082.55 1216.19 1079.21C1219.48 1075.9 1222.2 1070.92 1223.74 1062.86L1223.83 1062.37L1223.97 1061.89C1228.67 1046.02 1234.27 1030.76 1239.28 1016.89C1244.36 1002.85 1248.77 990.412 1251.44 979.521C1254.15 968.464 1254.71 960.373 1253.25 954.632C1252.09 950.032 1249.5 946.309 1243.47 943.505C1243.07 943.319 1242.65 943.178 1242.22 943.07L1056.48 896.179C1052.3 895.123 1048.03 897.571 1046.83 901.712L1033.91 946.4ZM735.012 706.607C732.66 705.013 729.602 704.994 727.014 706.167C721.898 708.487 715.216 710.313 708.008 711.865C693.468 714.994 674.165 717.531 654.909 720.099C635.393 722.701 615.782 725.352 599.82 728.715C591.84 730.397 585.084 732.194 579.875 734.135C574.353 736.193 571.843 737.959 571.034 738.869L570.56 739.403C570.497 739.475 570.427 739.541 570.352 739.6C570.198 739.722 570.066 739.869 569.973 740.042C569.802 740.36 569.524 740.937 569.183 741.882C568.402 744.051 567.627 747.216 566.921 751.507C565.512 760.065 564.591 771.742 563.933 785.988C562.833 809.838 562.527 838.961 561.666 870.951C561.539 875.689 565.528 879.502 570.262 879.275C593.017 878.183 610.633 879.631 624.315 883.56C642.374 888.745 653.651 898.294 660.465 911.36C666.874 923.651 668.914 938.39 670.556 952.782C672.101 966.321 673.337 980.218 676.655 994.741C676.819 995.459 677.282 996.075 677.932 996.42C680.676 997.877 684.675 999.764 689.533 1001.83C699.25 1005.95 711.798 1010.51 723.556 1013.54L723.884 1013.63C724.753 1013.85 725.579 1014.22 726.326 1014.72L726.607 1014.91C751.123 1031.25 771.736 1041.48 794.86 1048.43C814.488 1054.33 836.22 1057.97 864.154 1060.77C868.214 1061.18 871.891 1058.42 872.891 1054.47C882.099 1018.07 902.571 994.601 927.889 977.448C953.428 960.145 984.863 948.827 1012.79 936.93C1014.99 935.994 1016.64 934.116 1017.3 931.822L1028.93 891.628C1029.82 888.546 1028.7 885.302 1026.6 882.869C1023.96 879.796 1021.96 876.103 1020.82 871.558C1018.72 863.199 1019.89 853.109 1022.25 841.267L1022.37 840.667C1022.69 839.101 1023.46 837.664 1024.6 836.542L1025.03 836.112C1028.81 832.376 1031.97 828.518 1034.75 823.678C1036.83 820.07 1035.24 815.554 1031.47 813.78C1022.38 809.503 1011.85 805.667 999.625 802.245C996.619 801.403 993.448 802.493 991.254 804.715C981.331 814.765 968.502 819.953 953.01 822.364C935.108 825.148 912.535 824.395 885.136 823.022C881.619 822.846 878.449 825.022 878.047 828.52C877.964 829.241 877.889 830.027 877.823 830.882C877.417 836.151 877.451 842.693 877.614 850.452C877.725 855.761 877.896 861.615 877.991 867.719C878.059 872.137 874.479 875.722 870.06 875.725L866.06 875.728C861.642 875.731 858.059 872.152 857.989 867.734C857.896 861.924 857.732 856.306 857.618 850.871C857.456 843.145 857.392 835.707 857.882 829.347C858.346 823.319 859.388 816.651 862.493 811.477C864.18 808.665 866.661 805.98 870.208 804.289C873.571 802.686 877.11 802.352 880.455 802.758C911.086 804.333 933.268 805.194 949.935 802.601C950.624 802.494 951.3 802.381 951.965 802.263C959.103 800.993 958.15 793.232 950.984 792.129C933.328 789.412 913.494 787.145 891.215 785.253L890.976 785.233C890.338 785.179 889.71 785.049 889.104 784.845L888.877 784.769C861.572 775.599 836.26 765.012 811.011 752.115C786.151 739.415 761.432 724.515 735.012 706.607ZM426.45 440.069C422.059 439.469 418.013 442.55 417.49 446.951C414.105 475.394 412.047 508.87 411.057 549.967L411.052 550.209C411.036 550.854 410.942 551.496 410.772 552.119L410.709 552.353C408.471 560.572 405.254 567.875 400.033 573.029C394.341 578.646 387.259 580.757 379.697 580.244C372.667 579.768 365.215 577.048 357.592 573.35C355.328 572.252 352.978 571.031 350.539 569.698C346.054 567.247 340.373 569.348 338.894 574.239C324.211 622.802 326.428 654.395 332.191 691.373C338.645 732.787 349.733 781.43 346.937 865.245C346.845 867.99 348.146 870.635 350.442 872.142C365.944 882.323 379.655 888.338 394.505 891.949C411.776 896.15 431.078 897.232 457.463 897.225C457.933 897.225 458.408 897.183 458.871 897.1L534.947 883.456C538.668 882.788 541.415 879.608 541.523 875.829C542.481 842.286 542.804 809.996 543.955 785.065C544.619 770.667 545.579 758.025 547.186 748.26C547.988 743.389 549.003 738.891 550.367 735.105C551.547 731.829 553.395 727.89 556.619 725.004C560.807 720.608 566.923 717.618 572.891 715.394C579.431 712.957 587.275 710.919 595.696 709.145C612.536 705.596 632.939 702.852 652.265 700.275C671.851 697.663 690.22 695.235 703.799 692.312C705.225 692.005 705.572 690.131 704.394 689.27C699.097 685.397 694.129 680.889 689.501 676.119C678.624 664.911 668.717 651.314 659.994 638.559C651.019 625.437 643.634 613.745 636.962 604.811C633.668 600.4 630.96 597.241 628.777 595.263C628.677 595.172 628.58 595.086 628.486 595.004C627.436 594.084 626.055 593.723 624.66 593.659C608.681 592.936 591.748 586.348 580.662 576.805C574.77 571.734 569.566 564.983 568.082 556.83C566.887 550.271 568.293 543.899 571.973 538.201C572.937 536.708 573.56 535.002 573.56 533.225V501.599L573.563 501.471C573.965 485.698 571.249 477.337 565.407 471.312C558.992 464.695 547.267 459.191 525.135 453.555L426.45 440.069ZM877.509 551.989C872.713 552.042 869.046 556.277 869.627 561.037C875.365 608.038 876.09 643.094 870.148 671.528C865.067 695.842 855.2 714.939 840.299 732.345C836.74 736.503 837.893 743.016 842.878 745.276C859.173 752.663 875.76 759.192 893.207 765.12C893.815 765.326 894.45 765.458 895.089 765.513C934.153 768.896 966.387 773.491 992.891 779.844C1008.94 783.691 1023.03 788.215 1035.35 793.584C1040.04 795.629 1045.57 793.123 1046.67 788.122C1048.15 781.349 1049.64 773.563 1051.21 764.518L1051.29 764.041C1051.51 762.782 1052.02 761.594 1052.8 760.575L1053.09 760.189C1070.76 736.859 1074.27 706.866 1079.45 676.069C1083.27 653.327 1088.16 628.88 1104.26 611.974C1107.38 608.699 1107.94 603.522 1104.84 600.224C1084.9 578.967 1062.61 566.156 1038.99 558.54C1027.19 554.735 1014.98 552.206 1002.46 550.6L877.509 551.989ZM626.72 214.532C623.482 208.045 614.389 209.903 613.009 217.02C609.286 236.215 605.281 250.439 600.459 260.444C596.407 268.849 591.192 275.562 583.881 279.256C577.077 282.694 569.937 282.779 563.133 281.38C562.599 281.27 562.053 281.204 561.509 281.195C535.006 280.785 515.068 280.581 499.86 281.794C486.793 282.837 478.535 284.863 473.117 287.775C472.039 288.355 471.178 289.265 470.546 290.312C447.189 329.028 432.18 362.582 422.952 411.049C422.106 415.494 425.195 419.711 429.678 420.324L528.969 433.894L529.511 434.031C552.247 439.78 569.068 446.357 579.765 457.39C591.054 469.033 593.998 483.905 593.56 501.827V540.555C593.56 542.676 592.717 544.711 591.217 546.212L590.632 546.797C587.576 549.853 587.513 551.905 587.758 553.247C588.117 555.22 589.726 558.219 593.709 561.647C601.699 568.524 615.36 573.726 627.56 573.726C633.863 573.726 638.926 577.47 642.205 580.441C645.836 583.731 649.461 588.122 652.987 592.844C659.955 602.175 668.164 615.078 676.502 627.268C685.09 639.825 694.215 652.259 703.854 662.192C713.304 671.929 722.427 678.392 731.121 680.798L731.961 681.019L732.322 681.108C733.271 681.343 734.169 681.75 734.971 682.308L735.277 682.521C761.279 700.637 785.212 715.642 808.844 728.386C811.872 730.019 815.619 729.503 818.028 727.047C835.236 709.509 845.545 691.487 850.571 667.436C856.02 641.361 855.381 607.665 849.22 559.026C848.722 555.095 845.395 552.143 841.435 552.002C834.873 551.769 828.391 551.337 822.021 550.638C817.629 550.157 814.615 546.074 815.266 541.704L815.855 537.748C816.505 533.378 820.575 530.376 824.969 530.841C835.125 531.917 845.821 532.284 857 532.216C879.779 532.078 903.485 530.175 928.625 529.018C946.917 528.176 965.675 527.754 984.366 528.858C989.046 529.135 993.06 525.458 993.06 520.769V463.226C993.06 458.808 996.642 455.226 1001.06 455.226H1005.06C1009.48 455.226 1013.06 458.808 1013.06 463.226V525.104C1013.06 529.033 1015.92 532.365 1019.78 533.097C1025.69 534.219 1031.58 535.571 1037.42 537.195C1039.57 537.791 1041.87 537.513 1043.79 536.378C1080.57 514.558 1107.82 497.387 1127.13 483.161C1147.99 467.793 1158.04 456.929 1161.66 448.656C1163.31 444.9 1163.53 441.867 1162.95 439.038C1162.33 436.019 1160.61 432.458 1157.13 428.074C1149.91 419.003 1137.21 408.874 1119.05 395.219C1108.81 387.521 1105.92 373.852 1104.98 361.629C1103.99 348.767 1104.95 333.411 1105.8 318.65C1106.67 303.613 1107.45 288.943 1106.49 276.024C1105.52 262.889 1102.84 253.321 1098.2 247.392C1094.68 242.893 1089.38 239.654 1080.01 239.322C1070.16 238.972 1056.02 241.896 1036.03 250.402C1017.64 258.567 1000.4 265.609 983.484 271.774C921.349 294.418 864.324 304.993 772.599 316.485C772.213 316.533 771.826 316.608 771.453 316.717C762.089 319.459 752.696 325.943 742.678 334.098C733.022 341.96 721.994 352.151 711.91 358.229C706.656 361.396 700.721 364.08 694.315 364.786C687.577 365.529 680.896 364.011 674.721 359.739C663.311 351.842 654.636 335.198 646.979 309.591L646.911 309.362C646.731 308.758 646.622 308.135 646.588 307.506L646.575 307.267C644.894 276.252 641.234 252.832 634.4 232.914C632.204 226.513 629.663 220.428 626.72 214.532ZM473.09 71.4114C436.152 70.5966 396.183 93.547 366.053 146.927C365.536 147.842 365.207 148.865 365.086 149.909C364.038 159.015 363.005 167.773 361.98 176.239C361.816 177.593 361.998 178.951 362.496 180.22C379.291 223.081 383.577 291.548 379.944 359.964C376.505 424.727 365.852 491.371 350.626 539.4C349.497 542.961 350.904 546.854 354.127 548.742C358.617 551.372 362.661 553.58 366.321 555.356C373.169 558.678 377.862 560.074 381.05 560.29C383.705 560.47 384.914 559.85 385.984 558.794C387.357 557.439 389.108 554.659 390.795 549.214C390.999 548.555 391.103 547.862 391.121 547.172C392.364 497.889 395.166 458.972 400.091 426.239C409.606 362.982 427.004 323.206 455.526 276.513L455.724 276.189C456.246 275.335 456.923 274.587 457.721 273.982L458.023 273.753C468.048 266.163 481.747 263.176 498.269 261.858C514.997 260.523 536.599 260.802 563.717 261.227L563.947 261.231C564.553 261.24 565.156 261.319 565.745 261.465L565.969 261.521C570.677 262.689 573.188 262.251 574.861 261.406C576.69 260.481 579.371 258.131 582.442 251.759C588.359 239.484 593.493 217.168 598.991 179.24C599.329 176.904 598.616 174.535 597.018 172.799C591.012 166.272 584.285 159.581 576.737 152.536L576.469 152.286C575.758 151.623 575.174 150.835 574.745 149.962L574.583 149.631C549.21 97.9294 510.81 72.2435 473.09 71.4114ZM359.106 264.021C358.606 258.063 350.922 258.014 350 263.921C342.48 312.075 333.699 356.723 320.832 415.852L320.792 416.036L320.745 416.218C311.919 450.511 308.443 473.901 311.475 492.663C313.139 502.958 316.836 512.225 323.357 521.381C326.894 526.348 334.25 524.656 335.873 518.778C348.151 474.342 356.93 416.204 359.972 358.904C361.742 325.579 361.54 293.057 359.106 264.021ZM792.117 149.282C791.428 149.264 790.726 149.336 790.057 149.502C752.81 158.734 734.746 185.287 732.529 214.393C730.368 242.758 743.29 274.03 770.07 294.467C771.67 295.688 773.718 296.185 775.715 295.932C852.393 286.202 903.426 277.069 954.195 260.693C959.28 259.052 961.252 252.941 958.102 248.625C929.746 209.77 906.328 186.177 882.806 171.734C856.472 155.563 829.071 150.288 792.117 149.282Z" fill="white" fill-opacity="0.3" stroke="black" stroke-width="4"/>
<g id="&#227;&#131;&#143;&#227;&#130;&#166;&#227;&#130;&#185;">
<path id="plot_28" d="M2.81839 394.74L100.274 227.644C101.943 224.782 105.617 223.815 108.48 225.484L247.517 306.576C250.379 308.245 251.347 311.919 249.677 314.781L152.222 481.877C150.552 484.739 146.878 485.706 144.016 484.037L4.97845 402.946C2.11602 401.276 1.14892 397.602 2.81839 394.74Z" fill="white" fill-opacity="0.3" stroke="black" stroke-width="4"/>
<path id="plot_3" d="M1224.65 263.513L1099.75 115.799C1097.61 113.269 1097.93 109.483 1100.46 107.343L1223.37 3.41899C1225.9 1.27945 1229.69 1.59631 1231.83 4.12672L1356.72 151.84C1358.86 154.371 1358.55 158.156 1356.02 160.296L1233.11 264.22C1230.57 266.36 1226.79 266.043 1224.65 263.513Z" fill="white" fill-opacity="0.3" stroke="black" stroke-width="4"/>
<path id="plot_6" d="M1318.38 933.542L1143.15 851.599C1140.15 850.195 1138.86 846.624 1140.26 843.622L1208.45 697.82C1209.85 694.819 1213.42 693.523 1216.42 694.927L1391.65 776.87C1394.65 778.274 1395.94 781.845 1394.54 784.847L1326.36 930.649C1324.95 933.651 1321.38 934.946 1318.38 933.542Z" fill="white" fill-opacity="0.3" stroke="black" stroke-width="4"/>
<path id="plot_21" d="M376.124 726.952H516.283C519.597 726.952 522.283 729.638 522.283 732.952V852.758C522.283 856.072 519.597 858.758 516.283 858.758H376.124C372.81 858.758 370.124 856.072 370.124 852.758V732.952C370.124 729.638 372.81 726.952 376.124 726.952Z" fill="white" fill-opacity="0.3" stroke="black" stroke-width="4"/>
<path id="plot_5" d="M912.06 745.885L912.06 605.726C912.06 602.412 914.747 599.726 918.06 599.726L1037.87 599.726C1041.18 599.726 1043.87 602.412 1043.87 605.726L1043.87 745.885C1043.87 749.199 1041.18 751.885 1037.87 751.885L918.06 751.885C914.747 751.885 912.06 749.199 912.06 745.885Z" fill="white" fill-opacity="0.3" stroke="black" stroke-width="4"/>
<path id="plot_11" d="M830.083 1276.73L970.242 1276.75C973.555 1276.75 976.241 1279.44 976.241 1282.75L976.221 1402.56C976.22 1405.87 973.533 1408.56 970.22 1408.56L830.061 1408.53C826.747 1408.53 824.061 1405.85 824.062 1402.53L824.082 1282.73C824.082 1279.41 826.769 1276.73 830.083 1276.73Z" fill="white" fill-opacity="0.3" stroke="black" stroke-width="4"/>
<path id="plot_1" d="M1215.06 550.885L1215.06 410.726C1215.06 407.412 1217.75 404.726 1221.06 404.726L1340.87 404.726C1344.18 404.726 1346.87 407.412 1346.87 410.726L1346.87 550.885C1346.87 554.199 1344.18 556.885 1340.87 556.885L1221.06 556.885C1217.75 556.885 1215.06 554.199 1215.06 550.885Z" fill="white" fill-opacity="0.3" stroke="black" stroke-width="4"/>
<path id="plot_30" d="M417.06 109.726L557.219 109.726C560.533 109.726 563.219 112.412 563.219 115.726V235.533C563.219 238.846 560.533 241.533 557.219 241.533L417.06 241.533C413.747 241.533 411.06 238.846 411.06 235.533V115.726C411.06 112.412 413.747 109.726 417.06 109.726Z" fill="white" fill-opacity="0.3" stroke="black" stroke-width="4"/>
<path id="plot_27" d="M127.347 682.791L168.983 548.959C169.968 545.795 173.331 544.028 176.495 545.012L290.893 580.603C294.057 581.587 295.824 584.95 294.84 588.114L253.203 721.946C252.219 725.11 248.856 726.877 245.691 725.893L131.293 690.302C128.129 689.318 126.362 685.955 127.347 682.791Z" fill="white" fill-opacity="0.3" stroke="black" stroke-width="4"/>
<path id="plot_16" d="M303.293 1299.34L210.841 1194C208.655 1191.51 208.902 1187.72 211.392 1185.53L301.438 1106.51C303.929 1104.32 307.72 1104.57 309.906 1107.06L402.358 1212.4C404.544 1214.89 404.297 1218.68 401.807 1220.87L311.761 1299.9C309.27 1302.08 305.479 1301.83 303.293 1299.34Z" fill="white" fill-opacity="0.3" stroke="black" stroke-width="4"/>
<path id="plot_2" d="M950.06 430.739L950.06 338.726C950.06 335.412 952.747 332.726 956.06 332.726L1051.31 332.726C1054.62 332.726 1057.31 335.412 1057.31 338.726L1057.31 430.739C1057.31 434.052 1054.62 436.739 1051.31 436.739L956.06 436.739C952.747 436.739 950.06 434.052 950.06 430.739Z" fill="white" fill-opacity="0.3" stroke="black" stroke-width="4"/>
<path id="plot_4" d="M791.06 513.739L791.06 421.726C791.06 418.412 793.747 415.726 797.06 415.726L892.311 415.726C895.625 415.726 898.311 418.412 898.311 421.726L898.311 513.739C898.311 517.052 895.625 519.739 892.311 519.739L797.06 519.739C793.747 519.739 791.06 517.052 791.06 513.739Z" fill="white" fill-opacity="0.3" stroke="black" stroke-width="4"/>
<path id="plot_25" d="M618.06 535.739L618.06 443.726C618.06 440.412 620.747 437.726 624.06 437.726L719.311 437.726C722.625 437.726 725.311 440.412 725.311 443.726L725.311 535.739C725.311 539.052 722.625 541.739 719.311 541.739L624.06 541.739C620.747 541.739 618.06 539.052 618.06 535.739Z" fill="white" fill-opacity="0.3" stroke="black" stroke-width="4"/>
<path id="plot_24" d="M433.06 580.739L433.06 488.726C433.06 485.412 435.747 482.726 439.06 482.726L534.311 482.726C537.625 482.726 540.311 485.412 540.311 488.726L540.311 580.739C540.311 584.052 537.625 586.739 534.311 586.739L439.06 586.739C435.747 586.739 433.06 584.052 433.06 580.739Z" fill="white" fill-opacity="0.3" stroke="black" stroke-width="4"/>
<path id="plot_22" d="M483.06 694.739L483.06 602.726C483.06 599.412 485.747 596.726 489.06 596.726L584.311 596.726C587.625 596.726 590.311 599.412 590.311 602.726L590.311 694.739C590.311 698.052 587.625 700.739 584.311 700.739L489.06 700.739C485.747 700.739 483.06 698.052 483.06 694.739Z" fill="white" fill-opacity="0.3" stroke="black" stroke-width="4"/>
<path id="plot_20" d="M599.06 848.739L599.06 756.726C599.06 753.412 601.747 750.726 605.06 750.726L700.311 750.726C703.625 750.726 706.311 753.412 706.311 756.726L706.311 848.739C706.311 852.052 703.625 854.739 700.311 854.739L605.06 854.739C601.747 854.739 599.06 852.052 599.06 848.739Z" fill="white" fill-opacity="0.3" stroke="black" stroke-width="4"/>
<path id="plot_13" d="M744.06 900.739L744.06 808.726C744.06 805.412 746.747 802.726 750.06 802.726L845.311 802.726C848.625 802.726 851.311 805.412 851.311 808.726L851.311 900.739C851.311 904.052 848.625 906.739 845.311 906.739L750.06 906.739C746.747 906.739 744.06 904.052 744.06 900.739Z" fill="white" fill-opacity="0.3" stroke="black" stroke-width="4"/>
<path id="plot_12" d="M894.06 931.739L894.06 839.726C894.06 836.412 896.747 833.726 900.06 833.726L995.311 833.726C998.625 833.726 1001.31 836.412 1001.31 839.726L1001.31 931.739C1001.31 935.052 998.625 937.739 995.311 937.739L900.06 937.739C896.747 937.739 894.06 935.052 894.06 931.739Z" fill="white" fill-opacity="0.3" stroke="black" stroke-width="4"/>
<path id="plot_7" d="M1107.99 1050.27L1118.87 958.906C1119.26 955.616 1122.24 953.266 1125.53 953.657L1220.12 964.914C1223.41 965.305 1225.76 968.29 1225.36 971.581L1214.49 1062.95C1214.1 1066.24 1211.11 1068.59 1207.82 1068.2L1113.24 1056.94C1109.95 1056.55 1107.6 1053.56 1107.99 1050.27Z" fill="white" fill-opacity="0.3" stroke="black" stroke-width="4"/>
<path id="plot_9" d="M1143.06 1230.74L1143.06 1138.73C1143.06 1135.41 1145.75 1132.73 1149.06 1132.73L1244.31 1132.73C1247.62 1132.73 1250.31 1135.41 1250.31 1138.73L1250.31 1230.74C1250.31 1234.05 1247.62 1236.74 1244.31 1236.74L1149.06 1236.74C1145.75 1236.74 1143.06 1234.05 1143.06 1230.74Z" fill="white" fill-opacity="0.3" stroke="black" stroke-width="4"/>
<path id="plot_10" d="M997.955 1250.16L918.002 1204.62C915.122 1202.98 914.118 1199.31 915.758 1196.43L962.9 1113.67C964.54 1110.79 968.203 1109.78 971.083 1111.42L1051.04 1156.96C1053.92 1158.6 1054.92 1162.27 1053.28 1165.15L1006.14 1247.91C1004.5 1250.79 1000.83 1251.8 997.955 1250.16Z" fill="white" fill-opacity="0.3" stroke="black" stroke-width="4"/>
<path id="plot_8" d="M1028.72 1128.38L965.978 1061.07C963.719 1058.65 963.852 1054.85 966.276 1052.59L1035.95 987.644C1038.37 985.384 1042.17 985.518 1044.43 987.942L1107.17 1055.25C1109.43 1057.67 1109.3 1061.47 1106.87 1063.73L1037.2 1128.68C1034.77 1130.93 1030.98 1130.8 1028.72 1128.38Z" fill="white" fill-opacity="0.3" stroke="black" stroke-width="4"/>
<path id="plot_14" d="M758.06 1026.74L758.06 934.726C758.06 931.412 760.747 928.726 764.06 928.726L859.311 928.726C862.625 928.726 865.311 931.412 865.311 934.726L865.311 1026.74C865.311 1030.05 862.625 1032.74 859.311 1032.74L764.06 1032.74C760.747 1032.74 758.06 1030.05 758.06 1026.74Z" fill="white" fill-opacity="0.3" stroke="black" stroke-width="4"/>
<path id="plot_15" d="M680.06 1176.74L680.06 1084.73C680.06 1081.41 682.747 1078.73 686.06 1078.73L781.311 1078.73C784.625 1078.73 787.311 1081.41 787.311 1084.73L787.311 1176.74C787.311 1180.05 784.625 1182.74 781.311 1182.74L686.06 1182.74C682.747 1182.74 680.06 1180.05 680.06 1176.74Z" fill="white" fill-opacity="0.3" stroke="black" stroke-width="4"/>
<path id="plot_17" d="M559.726 1201.61L488.518 1143.34C485.954 1141.24 485.576 1137.46 487.675 1134.9L547.998 1061.18C550.097 1058.62 553.877 1058.24 556.442 1060.34L627.65 1118.61C630.214 1120.71 630.592 1124.49 628.493 1127.06L568.169 1200.77C566.071 1203.34 562.291 1203.71 559.726 1201.61Z" fill="white" fill-opacity="0.3" stroke="black" stroke-width="4"/>
<path id="plot_18" d="M507.06 1022.74L507.06 930.726C507.06 927.412 509.747 924.726 513.06 924.726L608.311 924.726C611.625 924.726 614.311 927.412 614.311 930.726L614.311 1022.74C614.311 1026.05 611.625 1028.74 608.311 1028.74L513.06 1028.74C509.747 1028.74 507.06 1026.05 507.06 1022.74Z" fill="white" fill-opacity="0.3" stroke="black" stroke-width="4"/>
<path id="plot_19" d="M272.22 1000.43L310.659 916.83C312.043 913.819 315.606 912.501 318.617 913.885L405.158 953.677C408.168 955.062 409.487 958.625 408.103 961.635L369.663 1045.23C368.279 1048.24 364.716 1049.56 361.705 1048.18L275.164 1008.39C272.154 1007 270.835 1003.44 272.22 1000.43Z" fill="white" fill-opacity="0.3" stroke="black" stroke-width="4"/>
<path id="plot_23" d="M355.06 697.739L355.06 605.726C355.06 602.412 357.747 599.726 361.06 599.726L456.311 599.726C459.625 599.726 462.311 602.412 462.311 605.726L462.311 697.739C462.311 701.052 459.625 703.739 456.311 703.739L361.06 703.739C357.747 703.739 355.06 701.052 355.06 697.739Z" fill="white" fill-opacity="0.3" stroke="black" stroke-width="4"/>
<path id="plot_26" d="M507.06 405.739L507.06 313.726C507.06 310.412 509.747 307.726 513.06 307.726L608.311 307.726C611.625 307.726 614.311 310.412 614.311 313.726L614.311 405.739C614.311 409.052 611.625 411.739 608.311 411.739L513.06 411.739C509.747 411.739 507.06 409.052 507.06 405.739Z" fill="white" fill-opacity="0.3" stroke="black" stroke-width="4"/>
<path id="plot_29" d="M236.385 235.927L175.831 166.648C173.65 164.153 173.905 160.362 176.4 158.182L248.117 95.4966C250.612 93.3159 254.402 93.5706 256.583 96.0656L317.137 165.344C319.318 167.839 319.063 171.63 316.568 173.811L244.851 236.496C242.356 238.676 238.566 238.422 236.385 235.927Z" fill="white" fill-opacity="0.3" stroke="black" stroke-width="4"/>
<path id="apart_1" d="M1699.06 203.726H1789.06C1792.37 203.726 1795.06 206.412 1795.06 209.726V425.726C1795.06 429.04 1792.37 431.726 1789.06 431.726H1699.06C1695.75 431.726 1693.06 429.04 1693.06 425.726V209.726L1693.07 209.417C1693.23 206.247 1695.85 203.726 1699.06 203.726Z" fill="white" fill-opacity="0.3" stroke="black" stroke-width="4"/>
</g>
<g id="&#227;&#130;&#168;&#227;&#131;&#188;&#227;&#131;&#134;&#227;&#131;&#169;&#227;&#130;&#164;&#227;&#131;&#136;">
<g id="&#231;&#180;&#171;&#230;&#176;&#180;&#230;&#161;&#159;&#230;&#169;&#139;">
<g id="Group 5">
<path id="Polygon 22" d="M718.531 1561.8L706.619 1564.01L703.677 1568.97L711.92 1572.96H725.142L733.385 1568.97L730.443 1564.01L718.531 1561.8Z" fill="#F0FEFF" fill-opacity="0.4"/>
<path id="Polygon 23" d="M718.56 1557.8L706.442 1560.05L703.449 1565.09L711.835 1569.13H725.285L733.672 1565.09L730.679 1560.05L718.56 1557.8Z" fill="#F0FEFF" fill-opacity="0.4"/>
</g>
<g id="Group 2">
<g id="Polygon 1">
<path d="M718.035 1500.73L713.637 1524.72H722.433L718.035 1500.73Z" fill="#D9D9D9" fill-opacity="0.3"/>
<path d="M714.237 1524.22H721.834L718.036 1503.5L714.237 1524.22Z" stroke="#00BFFF" stroke-opacity="0.4"/>
</g>
<g id="Polygon 11">
<path d="M715.334 1564.72L719.733 1538.96L710.936 1538.96L715.334 1564.72Z" fill="#D9D9D9" fill-opacity="0.3"/>
<path d="M719.141 1539.46L711.528 1539.46L715.334 1561.75L719.141 1539.46Z" stroke="#00BFFF" stroke-opacity="0.4"/>
</g>
<g id="Polygon 2">
<path d="M716.244 1507.47L709.965 1532.83L718.738 1533.48L716.244 1507.47Z" fill="#D9D9D9" fill-opacity="0.3"/>
<path d="M710.592 1532.38L718.184 1532.94L716.026 1510.43L710.592 1532.38Z" stroke="#00BFFF" stroke-opacity="0.4"/>
</g>
<g id="Polygon 6">
<path d="M717.165 1503.09L709.354 1534.01L717.273 1534.98L717.165 1503.09Z" fill="#D9D9D9" fill-opacity="0.3"/>
<path d="M709.977 1533.58L716.77 1534.41L716.678 1507.06L709.977 1533.58Z" stroke="#00BFFF" stroke-opacity="0.4"/>
</g>
<g id="Polygon 13">
<path d="M719.327 1565.19L723.725 1539.43L714.929 1539.43L719.327 1565.19Z" fill="#D9D9D9" fill-opacity="0.3"/>
<path d="M723.133 1539.93L715.521 1539.93L719.326 1562.22L723.133 1539.93Z" stroke="#00BFFF" stroke-opacity="0.4"/>
</g>
<g id="Polygon 5">
<path d="M717.659 1502.15L712.156 1527.7L720.944 1528.08L717.659 1502.15Z" fill="#D9D9D9" fill-opacity="0.3"/>
<path d="M712.769 1527.22L720.374 1527.55L717.531 1505.12L712.769 1527.22Z" stroke="#00BFFF" stroke-opacity="0.4"/>
</g>
<g id="Polygon 14">
<path d="M722.988 1564.69L725.798 1531.86L720.761 1531.82L722.988 1564.69Z" fill="#D9D9D9" fill-opacity="0.3"/>
<path d="M725.254 1532.36L721.295 1532.32L723.046 1558.15L725.254 1532.36Z" stroke="#00BFFF" stroke-opacity="0.4"/>
</g>
<g id="Polygon 15">
<path d="M716.529 1562.79L727.54 1539.1L719.053 1536.78L716.529 1562.79Z" fill="#D9D9D9" fill-opacity="0.3"/>
<path d="M726.838 1539.42L719.493 1537.42L717.308 1559.93L726.838 1539.42Z" stroke="#00BFFF" stroke-opacity="0.4"/>
</g>
<g id="Polygon 3">
<path d="M719.699 1506.19L715.889 1532.04L724.683 1531.84L719.699 1506.19Z" fill="#D9D9D9" fill-opacity="0.3"/>
<path d="M716.469 1531.53L724.08 1531.36L719.767 1509.16L716.469 1531.53Z" stroke="#00BFFF" stroke-opacity="0.4"/>
</g>
<g id="Polygon 16">
<path d="M717.044 1562.38L718.951 1540.98L711.996 1541.5L717.044 1562.38Z" fill="#D9D9D9" fill-opacity="0.3"/>
<path d="M718.4 1541.53L712.621 1541.95L716.816 1559.31L718.4 1541.53Z" stroke="#00BFFF" stroke-opacity="0.4"/>
</g>
<g id="Polygon 7">
<path d="M722.498 1547.93L726.616 1522.12L717.82 1522.21L722.498 1547.93Z" fill="#D9D9D9" fill-opacity="0.3"/>
<path d="M726.029 1522.63L718.417 1522.71L722.465 1544.96L726.029 1522.63Z" stroke="#00BFFF" stroke-opacity="0.4"/>
</g>
<g id="Polygon 21">
<path d="M722.133 1545.58L726.259 1519.51L717.441 1519.6L722.133 1545.58Z" fill="#D9D9D9" fill-opacity="0.3"/>
<path d="M725.672 1520.01L718.038 1520.09L722.1 1542.58L725.672 1520.01Z" stroke="#00BFFF" stroke-opacity="0.4"/>
</g>
<g id="Polygon 17">
<path d="M714.219 1562.67L718.617 1536.91L709.821 1536.91L714.219 1562.67Z" fill="#D9D9D9" fill-opacity="0.3"/>
<path d="M718.025 1537.41L710.413 1537.41L714.218 1559.7L718.025 1537.41Z" stroke="#00BFFF" stroke-opacity="0.4"/>
</g>
<g id="Polygon 10">
<path d="M716.861 1512.7L712.463 1538.46H721.259L716.861 1512.7Z" fill="#D9D9D9" fill-opacity="0.3"/>
<path d="M713.055 1537.96H720.667L716.861 1515.67L713.055 1537.96Z" stroke="#00BFFF" stroke-opacity="0.4"/>
</g>
<g id="Polygon 18">
<path d="M717.507 1558.38L721.905 1532.62L713.109 1532.62L717.507 1558.38Z" fill="#D9D9D9" fill-opacity="0.3"/>
<path d="M721.313 1533.12L713.701 1533.12L717.506 1555.41L721.313 1533.12Z" stroke="#00BFFF" stroke-opacity="0.4"/>
</g>
<g id="Polygon 9">
<path d="M713.81 1511.77L708.776 1537.42L717.569 1537.63L713.81 1511.77Z" fill="#D9D9D9" fill-opacity="0.3"/>
<path d="M709.38 1536.93L716.99 1537.12L713.737 1514.74L709.38 1536.93Z" stroke="#00BFFF" stroke-opacity="0.4"/>
</g>
<g id="Polygon 19">
<path d="M719.412 1570.38L718.022 1542.24L709.412 1544.04L719.412 1570.38Z" fill="#D9D9D9" fill-opacity="0.3"/>
<path d="M717.552 1542.85L710.087 1544.41L718.757 1567.25L717.552 1542.85Z" stroke="#00BFFF" stroke-opacity="0.4"/>
</g>
<g id="Polygon 4">
<path d="M720.433 1509.72L718.446 1535.78L727.204 1534.96L720.433 1509.72Z" fill="#D9D9D9" fill-opacity="0.3"/>
<path d="M718.989 1535.23L726.568 1534.52L720.709 1512.68L718.989 1535.23Z" stroke="#00BFFF" stroke-opacity="0.4"/>
</g>
<g id="Polygon 20">
<path d="M714.225 1562.4L717.383 1536.46L708.597 1536.88L714.225 1562.4Z" fill="#D9D9D9" fill-opacity="0.3"/>
<path d="M716.816 1536.99L709.212 1537.35L714.082 1559.44L716.816 1536.99Z" stroke="#00BFFF" stroke-opacity="0.4"/>
</g>
<g id="Polygon 8">
<path d="M716.92 1509.59L712.521 1535.35H721.318L716.92 1509.59Z" fill="#D9D9D9" fill-opacity="0.3"/>
<path d="M713.114 1534.85H720.726L716.92 1512.56L713.114 1534.85Z" stroke="#00BFFF" stroke-opacity="0.4"/>
</g>
<g id="Polygon 12">
<path d="M721.912 1559.3L728.157 1533.93L719.383 1533.29L721.912 1559.3Z" fill="#D9D9D9" fill-opacity="0.3"/>
<path d="M727.53 1534.38L719.938 1533.84L722.126 1556.34L727.53 1534.38Z" stroke="#00BFFF" stroke-opacity="0.4"/>
</g>
</g>
</g>
<g id="&#227;&#131;&#169;&#227;&#131;&#153;&#227;&#131;&#179;&#227;&#131;&#128;&#227;&#131;&#188;&#227;&#131;&#153;&#227;&#131;&#131;&#227;&#131;&#137;&#230;&#157;&#177;">
<g id="Group 5_2">
<path id="Polygon 22_2" d="M1061.53 726.796L1049.62 729.007L1046.68 733.974L1054.92 737.957H1068.14L1076.38 733.974L1073.44 729.007L1061.53 726.796Z" fill="#F0FEFF" fill-opacity="0.4"/>
<path id="Polygon 23_2" d="M1061.56 722.804L1049.44 725.048L1046.45 730.089L1054.84 734.132H1068.29L1076.67 730.089L1073.68 725.048L1061.56 722.804Z" fill="#F0FEFF" fill-opacity="0.4"/>
</g>
<g id="Group 2_2">
<g id="Polygon 1_2">
<path d="M1061.04 665.726L1056.64 689.725H1065.43L1061.04 665.726Z" fill="#D9D9D9" fill-opacity="0.3"/>
<path d="M1057.24 689.225H1064.83L1061.04 668.498L1057.24 689.225Z" stroke="#00BFFF" stroke-opacity="0.4"/>
</g>
<g id="Polygon 11_2">
<path d="M1058.33 729.722L1062.73 703.962L1053.94 703.962L1058.33 729.722Z" fill="#D9D9D9" fill-opacity="0.3"/>
<path d="M1062.14 704.462L1054.53 704.462L1058.33 726.753L1062.14 704.462Z" stroke="#00BFFF" stroke-opacity="0.4"/>
</g>
<g id="Polygon 2_2">
<path d="M1059.24 672.466L1052.97 697.833L1061.74 698.479L1059.24 672.466Z" fill="#D9D9D9" fill-opacity="0.3"/>
<path d="M1053.59 697.377L1061.18 697.937L1059.03 675.426L1053.59 697.377Z" stroke="#00BFFF" stroke-opacity="0.4"/>
</g>
<g id="Polygon 6_2">
<path d="M1060.16 668.088L1052.35 699.007L1060.27 699.978L1060.16 668.088Z" fill="#D9D9D9" fill-opacity="0.3"/>
<path d="M1052.98 698.58L1059.77 699.413L1059.68 672.055L1052.98 698.58Z" stroke="#00BFFF" stroke-opacity="0.4"/>
</g>
<g id="Polygon 13_2">
<path d="M1062.33 730.192L1066.73 704.432L1057.93 704.432L1062.33 730.192Z" fill="#D9D9D9" fill-opacity="0.3"/>
<path d="M1066.13 704.932L1058.52 704.932L1062.33 727.223L1066.13 704.932Z" stroke="#00BFFF" stroke-opacity="0.4"/>
</g>
<g id="Polygon 5_2">
<path d="M1060.66 667.151L1055.16 692.698L1063.94 693.076L1060.66 667.151Z" fill="#D9D9D9" fill-opacity="0.3"/>
<path d="M1055.77 692.224L1063.37 692.551L1060.53 670.117L1055.77 692.224Z" stroke="#00BFFF" stroke-opacity="0.4"/>
</g>
<g id="Polygon 14_2">
<path d="M1065.99 729.693L1068.8 696.863L1063.76 696.818L1065.99 729.693Z" fill="#D9D9D9" fill-opacity="0.3"/>
<path d="M1068.25 697.358L1064.3 697.323L1066.05 723.148L1068.25 697.358Z" stroke="#00BFFF" stroke-opacity="0.4"/>
</g>
<g id="Polygon 15_2">
<path d="M1059.53 727.795L1070.54 704.096L1062.05 701.784L1059.53 727.795Z" fill="#D9D9D9" fill-opacity="0.3"/>
<path d="M1069.84 704.423L1062.49 702.423L1060.31 724.93L1069.84 704.423Z" stroke="#00BFFF" stroke-opacity="0.4"/>
</g>
<g id="Polygon 3_2">
<path d="M1062.7 671.191L1058.89 697.044L1067.68 696.844L1062.7 671.191Z" fill="#D9D9D9" fill-opacity="0.3"/>
<path d="M1059.47 696.531L1067.08 696.357L1062.77 674.159L1059.47 696.531Z" stroke="#00BFFF" stroke-opacity="0.4"/>
</g>
<g id="Polygon 16_2">
<path d="M1060.04 727.375L1061.95 705.983L1055 706.5L1060.04 727.375Z" fill="#D9D9D9" fill-opacity="0.3"/>
<path d="M1061.4 706.525L1055.62 706.955L1059.82 724.306L1061.4 706.525Z" stroke="#00BFFF" stroke-opacity="0.4"/>
</g>
<g id="Polygon 7_2">
<path d="M1065.5 712.925L1069.62 687.119L1060.82 687.214L1065.5 712.925Z" fill="#D9D9D9" fill-opacity="0.3"/>
<path d="M1069.03 687.625L1061.42 687.708L1065.46 709.956L1069.03 687.625Z" stroke="#00BFFF" stroke-opacity="0.4"/>
</g>
<g id="Polygon 21_2">
<path d="M1065.13 710.576L1069.26 684.506L1060.44 684.602L1065.13 710.576Z" fill="#D9D9D9" fill-opacity="0.3"/>
<path d="M1068.67 685.012L1061.04 685.095L1065.1 707.582L1068.67 685.012Z" stroke="#00BFFF" stroke-opacity="0.4"/>
</g>
<g id="Polygon 17_2">
<path d="M1057.22 727.667L1061.62 701.907L1052.82 701.907L1057.22 727.667Z" fill="#D9D9D9" fill-opacity="0.3"/>
<path d="M1061.03 702.407L1053.41 702.407L1057.22 724.699L1061.03 702.407Z" stroke="#00BFFF" stroke-opacity="0.4"/>
</g>
<g id="Polygon 10_2">
<path d="M1059.86 677.703L1055.46 703.463H1064.26L1059.86 677.703Z" fill="#D9D9D9" fill-opacity="0.3"/>
<path d="M1056.05 702.963H1063.67L1059.86 680.672L1056.05 702.963Z" stroke="#00BFFF" stroke-opacity="0.4"/>
</g>
<g id="Polygon 18_2">
<path d="M1060.51 723.381L1064.91 697.621L1056.11 697.621L1060.51 723.381Z" fill="#D9D9D9" fill-opacity="0.3"/>
<path d="M1064.31 698.122L1056.7 698.122L1060.51 720.413L1064.31 698.122Z" stroke="#00BFFF" stroke-opacity="0.4"/>
</g>
<g id="Polygon 9_2">
<path d="M1056.81 676.772L1051.78 702.415L1060.57 702.633L1056.81 676.772Z" fill="#D9D9D9" fill-opacity="0.3"/>
<path d="M1052.38 701.93L1059.99 702.118L1056.74 679.74L1052.38 701.93Z" stroke="#00BFFF" stroke-opacity="0.4"/>
</g>
<g id="Polygon 19_2">
<path d="M1062.41 735.379L1061.02 707.237L1052.41 709.037L1062.41 735.379Z" fill="#D9D9D9" fill-opacity="0.3"/>
<path d="M1060.55 707.847L1053.09 709.408L1061.76 732.246L1060.55 707.847Z" stroke="#00BFFF" stroke-opacity="0.4"/>
</g>
<g id="Polygon 4_2">
<path d="M1063.43 674.724L1061.45 700.781L1070.2 699.965L1063.43 674.724Z" fill="#D9D9D9" fill-opacity="0.3"/>
<path d="M1061.99 700.228L1069.57 699.522L1063.71 677.68L1061.99 700.228Z" stroke="#00BFFF" stroke-opacity="0.4"/>
</g>
<g id="Polygon 20_2">
<path d="M1057.22 727.401L1060.38 701.46L1051.6 701.882L1057.22 727.401Z" fill="#D9D9D9" fill-opacity="0.3"/>
<path d="M1059.82 701.988L1052.21 702.353L1057.08 724.436L1059.82 701.988Z" stroke="#00BFFF" stroke-opacity="0.4"/>
</g>
<g id="Polygon 8_2">
<path d="M1059.92 674.591L1055.52 700.351H1064.32L1059.92 674.591Z" fill="#D9D9D9" fill-opacity="0.3"/>
<path d="M1056.11 699.851H1063.73L1059.92 677.56L1056.11 699.851Z" stroke="#00BFFF" stroke-opacity="0.4"/>
</g>
<g id="Polygon 12_2">
<path d="M1064.91 724.304L1071.16 698.928L1062.38 698.294L1064.91 724.304Z" fill="#D9D9D9" fill-opacity="0.3"/>
<path d="M1070.53 699.385L1062.94 698.835L1065.13 721.343L1070.53 699.385Z" stroke="#00BFFF" stroke-opacity="0.4"/>
</g>
</g>
</g>
<g id="&#227;&#131;&#169;&#227;&#131;&#153;&#227;&#131;&#179;&#227;&#131;&#128;&#227;&#131;&#188;&#227;&#131;&#153;&#227;&#131;&#131;&#227;&#131;&#137;&#229;&#141;&#151;&#230;&#157;&#177;">
<g id="Group 5_3">
<path id="Polygon 22_3" d="M1125.53 1189.8L1113.62 1192.01L1110.68 1196.97L1118.92 1200.96H1132.14L1140.38 1196.97L1137.44 1192.01L1125.53 1189.8Z" fill="#F0FEFF" fill-opacity="0.4"/>
<path id="Polygon 23_3" d="M1125.56 1185.8L1113.44 1188.05L1110.45 1193.09L1118.84 1197.13H1132.29L1140.67 1193.09L1137.68 1188.05L1125.56 1185.8Z" fill="#F0FEFF" fill-opacity="0.4"/>
</g>
<g id="Group 2_3">
<g id="Polygon 1_3">
<path d="M1125.04 1128.73L1120.64 1152.72H1129.43L1125.04 1128.73Z" fill="#D9D9D9" fill-opacity="0.3"/>
<path d="M1121.24 1152.22H1128.83L1125.04 1131.5L1121.24 1152.22Z" stroke="#00BFFF" stroke-opacity="0.4"/>
</g>
<g id="Polygon 11_3">
<path d="M1122.33 1192.72L1126.73 1166.96L1117.94 1166.96L1122.33 1192.72Z" fill="#D9D9D9" fill-opacity="0.3"/>
<path d="M1126.14 1167.46L1118.53 1167.46L1122.33 1189.75L1126.14 1167.46Z" stroke="#00BFFF" stroke-opacity="0.4"/>
</g>
<g id="Polygon 2_3">
<path d="M1123.24 1135.47L1116.97 1160.83L1125.74 1161.48L1123.24 1135.47Z" fill="#D9D9D9" fill-opacity="0.3"/>
<path d="M1117.59 1160.38L1125.18 1160.94L1123.03 1138.43L1117.59 1160.38Z" stroke="#00BFFF" stroke-opacity="0.4"/>
</g>
<g id="Polygon 6_3">
<path d="M1124.16 1131.09L1116.35 1162.01L1124.27 1162.98L1124.16 1131.09Z" fill="#D9D9D9" fill-opacity="0.3"/>
<path d="M1116.98 1161.58L1123.77 1162.41L1123.68 1135.06L1116.98 1161.58Z" stroke="#00BFFF" stroke-opacity="0.4"/>
</g>
<g id="Polygon 13_3">
<path d="M1126.33 1193.19L1130.73 1167.43L1121.93 1167.43L1126.33 1193.19Z" fill="#D9D9D9" fill-opacity="0.3"/>
<path d="M1130.13 1167.93L1122.52 1167.93L1126.33 1190.22L1130.13 1167.93Z" stroke="#00BFFF" stroke-opacity="0.4"/>
</g>
<g id="Polygon 5_3">
<path d="M1124.66 1130.15L1119.16 1155.7L1127.94 1156.08L1124.66 1130.15Z" fill="#D9D9D9" fill-opacity="0.3"/>
<path d="M1119.77 1155.22L1127.37 1155.55L1124.53 1133.12L1119.77 1155.22Z" stroke="#00BFFF" stroke-opacity="0.4"/>
</g>
<g id="Polygon 14_3">
<path d="M1129.99 1192.69L1132.8 1159.86L1127.76 1159.82L1129.99 1192.69Z" fill="#D9D9D9" fill-opacity="0.3"/>
<path d="M1132.25 1160.36L1128.3 1160.32L1130.05 1186.15L1132.25 1160.36Z" stroke="#00BFFF" stroke-opacity="0.4"/>
</g>
<g id="Polygon 15_3">
<path d="M1123.53 1190.79L1134.54 1167.1L1126.05 1164.78L1123.53 1190.79Z" fill="#D9D9D9" fill-opacity="0.3"/>
<path d="M1133.84 1167.42L1126.49 1165.42L1124.31 1187.93L1133.84 1167.42Z" stroke="#00BFFF" stroke-opacity="0.4"/>
</g>
<g id="Polygon 3_3">
<path d="M1126.7 1134.19L1122.89 1160.04L1131.68 1159.84L1126.7 1134.19Z" fill="#D9D9D9" fill-opacity="0.3"/>
<path d="M1123.47 1159.53L1131.08 1159.36L1126.77 1137.16L1123.47 1159.53Z" stroke="#00BFFF" stroke-opacity="0.4"/>
</g>
<g id="Polygon 16_3">
<path d="M1124.04 1190.38L1125.95 1168.98L1119 1169.5L1124.04 1190.38Z" fill="#D9D9D9" fill-opacity="0.3"/>
<path d="M1125.4 1169.53L1119.62 1169.95L1123.82 1187.31L1125.4 1169.53Z" stroke="#00BFFF" stroke-opacity="0.4"/>
</g>
<g id="Polygon 7_3">
<path d="M1129.5 1175.93L1133.62 1150.12L1124.82 1150.21L1129.5 1175.93Z" fill="#D9D9D9" fill-opacity="0.3"/>
<path d="M1133.03 1150.63L1125.42 1150.71L1129.46 1172.96L1133.03 1150.63Z" stroke="#00BFFF" stroke-opacity="0.4"/>
</g>
<g id="Polygon 21_3">
<path d="M1129.13 1173.58L1133.26 1147.51L1124.44 1147.6L1129.13 1173.58Z" fill="#D9D9D9" fill-opacity="0.3"/>
<path d="M1132.67 1148.01L1125.04 1148.09L1129.1 1170.58L1132.67 1148.01Z" stroke="#00BFFF" stroke-opacity="0.4"/>
</g>
<g id="Polygon 17_3">
<path d="M1121.22 1190.67L1125.62 1164.91L1116.82 1164.91L1121.22 1190.67Z" fill="#D9D9D9" fill-opacity="0.3"/>
<path d="M1125.03 1165.41L1117.41 1165.41L1121.22 1187.7L1125.03 1165.41Z" stroke="#00BFFF" stroke-opacity="0.4"/>
</g>
<g id="Polygon 10_3">
<path d="M1123.86 1140.7L1119.46 1166.46H1128.26L1123.86 1140.7Z" fill="#D9D9D9" fill-opacity="0.3"/>
<path d="M1120.05 1165.96H1127.67L1123.86 1143.67L1120.05 1165.96Z" stroke="#00BFFF" stroke-opacity="0.4"/>
</g>
<g id="Polygon 18_3">
<path d="M1124.51 1186.38L1128.91 1160.62L1120.11 1160.62L1124.51 1186.38Z" fill="#D9D9D9" fill-opacity="0.3"/>
<path d="M1128.31 1161.12L1120.7 1161.12L1124.51 1183.41L1128.31 1161.12Z" stroke="#00BFFF" stroke-opacity="0.4"/>
</g>
<g id="Polygon 9_3">
<path d="M1120.81 1139.77L1115.78 1165.42L1124.57 1165.63L1120.81 1139.77Z" fill="#D9D9D9" fill-opacity="0.3"/>
<path d="M1116.38 1164.93L1123.99 1165.12L1120.74 1142.74L1116.38 1164.93Z" stroke="#00BFFF" stroke-opacity="0.4"/>
</g>
<g id="Polygon 19_3">
<path d="M1126.41 1198.38L1125.02 1170.24L1116.41 1172.04L1126.41 1198.38Z" fill="#D9D9D9" fill-opacity="0.3"/>
<path d="M1124.55 1170.85L1117.09 1172.41L1125.76 1195.25L1124.55 1170.85Z" stroke="#00BFFF" stroke-opacity="0.4"/>
</g>
<g id="Polygon 4_3">
<path d="M1127.43 1137.72L1125.45 1163.78L1134.2 1162.96L1127.43 1137.72Z" fill="#D9D9D9" fill-opacity="0.3"/>
<path d="M1125.99 1163.23L1133.57 1162.52L1127.71 1140.68L1125.99 1163.23Z" stroke="#00BFFF" stroke-opacity="0.4"/>
</g>
<g id="Polygon 20_3">
<path d="M1121.22 1190.4L1124.38 1164.46L1115.6 1164.88L1121.22 1190.4Z" fill="#D9D9D9" fill-opacity="0.3"/>
<path d="M1123.82 1164.99L1116.21 1165.35L1121.08 1187.44L1123.82 1164.99Z" stroke="#00BFFF" stroke-opacity="0.4"/>
</g>
<g id="Polygon 8_3">
<path d="M1123.92 1137.59L1119.52 1163.35H1128.32L1123.92 1137.59Z" fill="#D9D9D9" fill-opacity="0.3"/>
<path d="M1120.11 1162.85H1127.73L1123.92 1140.56L1120.11 1162.85Z" stroke="#00BFFF" stroke-opacity="0.4"/>
</g>
<g id="Polygon 12_3">
<path d="M1128.91 1187.3L1135.16 1161.93L1126.38 1161.29L1128.91 1187.3Z" fill="#D9D9D9" fill-opacity="0.3"/>
<path d="M1134.53 1162.38L1126.94 1161.84L1129.13 1184.34L1134.53 1162.38Z" stroke="#00BFFF" stroke-opacity="0.4"/>
</g>
</g>
</g>
<g id="&#227;&#131;&#170;&#227;&#131;&#170;&#227;&#131;&#188;&#227;&#131;&#146;&#227;&#131;&#171;&#227;&#130;&#186;">
<g id="Group 5_4">
<path id="Polygon 22_4" d="M1661.53 301.797L1649.62 304.007L1646.68 308.974L1654.92 312.958H1668.14L1676.38 308.974L1673.44 304.007L1661.53 301.797Z" fill="#F0FEFF" fill-opacity="0.4"/>
<path id="Polygon 23_4" d="M1661.56 297.804L1649.44 300.048L1646.45 305.089L1654.84 309.132H1668.29L1676.67 305.089L1673.68 300.048L1661.56 297.804Z" fill="#F0FEFF" fill-opacity="0.4"/>
</g>
<g id="Group 2_4">
<g id="Polygon 1_4">
<path d="M1661.04 240.726L1656.64 264.725H1665.43L1661.04 240.726Z" fill="#D9D9D9" fill-opacity="0.3"/>
<path d="M1657.24 264.225H1664.83L1661.04 243.498L1657.24 264.225Z" stroke="#00BFFF" stroke-opacity="0.4"/>
</g>
<g id="Polygon 11_4">
<path d="M1658.33 304.722L1662.73 278.962L1653.94 278.962L1658.33 304.722Z" fill="#D9D9D9" fill-opacity="0.3"/>
<path d="M1662.14 279.462L1654.53 279.462L1658.33 301.753L1662.14 279.462Z" stroke="#00BFFF" stroke-opacity="0.4"/>
</g>
<g id="Polygon 2_4">
<path d="M1659.24 247.466L1652.97 272.833L1661.74 273.479L1659.24 247.466Z" fill="#D9D9D9" fill-opacity="0.3"/>
<path d="M1653.59 272.377L1661.18 272.937L1659.03 250.426L1653.59 272.377Z" stroke="#00BFFF" stroke-opacity="0.4"/>
</g>
<g id="Polygon 6_4">
<path d="M1660.16 243.088L1652.35 274.007L1660.27 274.978L1660.16 243.088Z" fill="#D9D9D9" fill-opacity="0.3"/>
<path d="M1652.98 273.579L1659.77 274.413L1659.68 247.055L1652.98 273.579Z" stroke="#00BFFF" stroke-opacity="0.4"/>
</g>
<g id="Polygon 13_4">
<path d="M1662.33 305.192L1666.73 279.432L1657.93 279.432L1662.33 305.192Z" fill="#D9D9D9" fill-opacity="0.3"/>
<path d="M1666.13 279.932L1658.52 279.932L1662.33 302.223L1666.13 279.932Z" stroke="#00BFFF" stroke-opacity="0.4"/>
</g>
<g id="Polygon 5_4">
<path d="M1660.66 242.151L1655.16 267.698L1663.94 268.076L1660.66 242.151Z" fill="#D9D9D9" fill-opacity="0.3"/>
<path d="M1655.77 267.224L1663.37 267.551L1660.53 245.117L1655.77 267.224Z" stroke="#00BFFF" stroke-opacity="0.4"/>
</g>
<g id="Polygon 14_4">
<path d="M1665.99 304.693L1668.8 271.863L1663.76 271.818L1665.99 304.693Z" fill="#D9D9D9" fill-opacity="0.3"/>
<path d="M1668.25 272.358L1664.3 272.323L1666.05 298.148L1668.25 272.358Z" stroke="#00BFFF" stroke-opacity="0.4"/>
</g>
<g id="Polygon 15_4">
<path d="M1659.53 302.795L1670.54 279.095L1662.05 276.784L1659.53 302.795Z" fill="#D9D9D9" fill-opacity="0.3"/>
<path d="M1669.84 279.423L1662.49 277.423L1660.31 299.93L1669.84 279.423Z" stroke="#00BFFF" stroke-opacity="0.4"/>
</g>
<g id="Polygon 3_4">
<path d="M1662.7 246.191L1658.89 272.044L1667.68 271.844L1662.7 246.191Z" fill="#D9D9D9" fill-opacity="0.3"/>
<path d="M1659.47 271.531L1667.08 271.357L1662.77 249.159L1659.47 271.531Z" stroke="#00BFFF" stroke-opacity="0.4"/>
</g>
<g id="Polygon 16_4">
<path d="M1660.04 302.375L1661.95 280.983L1655 281.5L1660.04 302.375Z" fill="#D9D9D9" fill-opacity="0.3"/>
<path d="M1661.4 281.525L1655.62 281.955L1659.82 299.306L1661.4 281.525Z" stroke="#00BFFF" stroke-opacity="0.4"/>
</g>
<g id="Polygon 7_4">
<path d="M1665.5 287.925L1669.62 262.119L1660.82 262.214L1665.5 287.925Z" fill="#D9D9D9" fill-opacity="0.3"/>
<path d="M1669.03 262.625L1661.42 262.708L1665.46 284.956L1669.03 262.625Z" stroke="#00BFFF" stroke-opacity="0.4"/>
</g>
<g id="Polygon 21_4">
<path d="M1665.13 285.576L1669.26 259.506L1660.44 259.602L1665.13 285.576Z" fill="#D9D9D9" fill-opacity="0.3"/>
<path d="M1668.67 260.012L1661.04 260.095L1665.1 282.582L1668.67 260.012Z" stroke="#00BFFF" stroke-opacity="0.4"/>
</g>
<g id="Polygon 17_4">
<path d="M1657.22 302.667L1661.62 276.907L1652.82 276.907L1657.22 302.667Z" fill="#D9D9D9" fill-opacity="0.3"/>
<path d="M1661.03 277.407L1653.41 277.407L1657.22 299.698L1661.03 277.407Z" stroke="#00BFFF" stroke-opacity="0.4"/>
</g>
<g id="Polygon 10_4">
<path d="M1659.86 252.703L1655.46 278.463H1664.26L1659.86 252.703Z" fill="#D9D9D9" fill-opacity="0.3"/>
<path d="M1656.05 277.963H1663.67L1659.86 255.672L1656.05 277.963Z" stroke="#00BFFF" stroke-opacity="0.4"/>
</g>
<g id="Polygon 18_4">
<path d="M1660.51 298.381L1664.91 272.621L1656.11 272.621L1660.51 298.381Z" fill="#D9D9D9" fill-opacity="0.3"/>
<path d="M1664.31 273.122L1656.7 273.122L1660.51 295.413L1664.31 273.122Z" stroke="#00BFFF" stroke-opacity="0.4"/>
</g>
<g id="Polygon 9_4">
<path d="M1656.81 251.772L1651.78 277.415L1660.57 277.633L1656.81 251.772Z" fill="#D9D9D9" fill-opacity="0.3"/>
<path d="M1652.38 276.93L1659.99 277.118L1656.74 254.74L1652.38 276.93Z" stroke="#00BFFF" stroke-opacity="0.4"/>
</g>
<g id="Polygon 19_4">
<path d="M1662.41 310.379L1661.02 282.237L1652.41 284.038L1662.41 310.379Z" fill="#D9D9D9" fill-opacity="0.3"/>
<path d="M1660.55 282.847L1653.09 284.408L1661.76 307.246L1660.55 282.847Z" stroke="#00BFFF" stroke-opacity="0.4"/>
</g>
<g id="Polygon 4_4">
<path d="M1663.43 249.724L1661.45 275.781L1670.2 274.965L1663.43 249.724Z" fill="#D9D9D9" fill-opacity="0.3"/>
<path d="M1661.99 275.228L1669.57 274.522L1663.71 252.68L1661.99 275.228Z" stroke="#00BFFF" stroke-opacity="0.4"/>
</g>
<g id="Polygon 20_4">
<path d="M1657.22 302.402L1660.38 276.46L1651.6 276.882L1657.22 302.402Z" fill="#D9D9D9" fill-opacity="0.3"/>
<path d="M1659.82 276.988L1652.21 277.353L1657.08 299.436L1659.82 276.988Z" stroke="#00BFFF" stroke-opacity="0.4"/>
</g>
<g id="Polygon 8_4">
<path d="M1659.92 249.591L1655.52 275.351H1664.32L1659.92 249.591Z" fill="#D9D9D9" fill-opacity="0.3"/>
<path d="M1656.11 274.851H1663.73L1659.92 252.56L1656.11 274.851Z" stroke="#00BFFF" stroke-opacity="0.4"/>
</g>
<g id="Polygon 12_4">
<path d="M1664.91 299.304L1671.16 273.928L1662.38 273.294L1664.91 299.304Z" fill="#D9D9D9" fill-opacity="0.3"/>
<path d="M1670.53 274.385L1662.94 273.835L1665.13 296.343L1670.53 274.385Z" stroke="#00BFFF" stroke-opacity="0.4"/>
</g>
</g>
</g>
<g id="&#232;&#139;&#165;&#232;&#141;&#137;&#229;&#149;&#134;&#229;&#186;&#151;&#232;&#161;&#151;">
<g id="Group 5_5">
<path id="Polygon 22_5" d="M619.531 622.796L607.619 625.007L604.677 629.974L612.92 633.957H626.142L634.385 629.974L631.443 625.007L619.531 622.796Z" fill="#F0FEFF" fill-opacity="0.4"/>
<path id="Polygon 23_5" d="M619.56 618.804L607.442 621.048L604.449 626.089L612.835 630.132H626.285L634.672 626.089L631.679 621.048L619.56 618.804Z" fill="#F0FEFF" fill-opacity="0.4"/>
</g>
<g id="Group 2_5">
<g id="Polygon 1_5">
<path d="M619.035 561.726L614.637 585.725H623.433L619.035 561.726Z" fill="#D9D9D9" fill-opacity="0.3"/>
<path d="M615.237 585.225H622.834L619.036 564.498L615.237 585.225Z" stroke="#00BFFF" stroke-opacity="0.4"/>
</g>
<g id="Polygon 11_5">
<path d="M616.334 625.722L620.733 599.962L611.936 599.962L616.334 625.722Z" fill="#D9D9D9" fill-opacity="0.3"/>
<path d="M620.141 600.462L612.528 600.462L616.334 622.753L620.141 600.462Z" stroke="#00BFFF" stroke-opacity="0.4"/>
</g>
<g id="Polygon 2_5">
<path d="M617.244 568.466L610.965 593.833L619.738 594.479L617.244 568.466Z" fill="#D9D9D9" fill-opacity="0.3"/>
<path d="M611.592 593.377L619.184 593.937L617.026 571.426L611.592 593.377Z" stroke="#00BFFF" stroke-opacity="0.4"/>
</g>
<g id="Polygon 6_5">
<path d="M618.165 564.088L610.354 595.007L618.273 595.978L618.165 564.088Z" fill="#D9D9D9" fill-opacity="0.3"/>
<path d="M610.977 594.58L617.77 595.413L617.678 568.055L610.977 594.58Z" stroke="#00BFFF" stroke-opacity="0.4"/>
</g>
<g id="Polygon 13_5">
<path d="M620.327 626.192L624.725 600.432L615.929 600.432L620.327 626.192Z" fill="#D9D9D9" fill-opacity="0.3"/>
<path d="M624.133 600.932L616.521 600.932L620.326 623.223L624.133 600.932Z" stroke="#00BFFF" stroke-opacity="0.4"/>
</g>
<g id="Polygon 5_5">
<path d="M618.659 563.151L613.156 588.698L621.944 589.076L618.659 563.151Z" fill="#D9D9D9" fill-opacity="0.3"/>
<path d="M613.769 588.224L621.374 588.551L618.531 566.117L613.769 588.224Z" stroke="#00BFFF" stroke-opacity="0.4"/>
</g>
<g id="Polygon 14_5">
<path d="M623.988 625.693L626.798 592.863L621.761 592.818L623.988 625.693Z" fill="#D9D9D9" fill-opacity="0.3"/>
<path d="M626.254 593.358L622.295 593.323L624.046 619.148L626.254 593.358Z" stroke="#00BFFF" stroke-opacity="0.4"/>
</g>
<g id="Polygon 15_5">
<path d="M617.529 623.795L628.54 600.096L620.053 597.784L617.529 623.795Z" fill="#D9D9D9" fill-opacity="0.3"/>
<path d="M627.838 600.423L620.493 598.423L618.308 620.93L627.838 600.423Z" stroke="#00BFFF" stroke-opacity="0.4"/>
</g>
<g id="Polygon 3_5">
<path d="M620.699 567.191L616.889 593.044L625.683 592.844L620.699 567.191Z" fill="#D9D9D9" fill-opacity="0.3"/>
<path d="M617.469 592.531L625.08 592.357L620.767 570.159L617.469 592.531Z" stroke="#00BFFF" stroke-opacity="0.4"/>
</g>
<g id="Polygon 16_5">
<path d="M618.044 623.375L619.951 601.983L612.996 602.5L618.044 623.375Z" fill="#D9D9D9" fill-opacity="0.3"/>
<path d="M619.4 602.525L613.621 602.955L617.816 620.306L619.4 602.525Z" stroke="#00BFFF" stroke-opacity="0.4"/>
</g>
<g id="Polygon 7_5">
<path d="M623.498 608.925L627.616 583.119L618.82 583.214L623.498 608.925Z" fill="#D9D9D9" fill-opacity="0.3"/>
<path d="M627.029 583.625L619.417 583.708L623.465 605.956L627.029 583.625Z" stroke="#00BFFF" stroke-opacity="0.4"/>
</g>
<g id="Polygon 21_5">
<path d="M623.133 606.576L627.259 580.506L618.441 580.602L623.133 606.576Z" fill="#D9D9D9" fill-opacity="0.3"/>
<path d="M626.672 581.012L619.038 581.095L623.1 603.582L626.672 581.012Z" stroke="#00BFFF" stroke-opacity="0.4"/>
</g>
<g id="Polygon 17_5">
<path d="M615.219 623.667L619.617 597.907L610.821 597.907L615.219 623.667Z" fill="#D9D9D9" fill-opacity="0.3"/>
<path d="M619.025 598.408L611.413 598.408L615.219 620.699L619.025 598.408Z" stroke="#00BFFF" stroke-opacity="0.4"/>
</g>
<g id="Polygon 10_5">
<path d="M617.861 573.703L613.463 599.463H622.259L617.861 573.703Z" fill="#D9D9D9" fill-opacity="0.3"/>
<path d="M614.055 598.963H621.667L617.862 576.672L614.055 598.963Z" stroke="#00BFFF" stroke-opacity="0.4"/>
</g>
<g id="Polygon 18_5">
<path d="M618.507 619.381L622.905 593.621L614.109 593.621L618.507 619.381Z" fill="#D9D9D9" fill-opacity="0.3"/>
<path d="M622.313 594.122L614.701 594.122L618.506 616.413L622.313 594.122Z" stroke="#00BFFF" stroke-opacity="0.4"/>
</g>
<g id="Polygon 9_5">
<path d="M614.81 572.772L609.776 598.415L618.569 598.633L614.81 572.772Z" fill="#D9D9D9" fill-opacity="0.3"/>
<path d="M610.38 597.93L617.99 598.118L614.737 575.74L610.38 597.93Z" stroke="#00BFFF" stroke-opacity="0.4"/>
</g>
<g id="Polygon 19_5">
<path d="M620.412 631.379L619.022 603.237L610.412 605.037L620.412 631.379Z" fill="#D9D9D9" fill-opacity="0.3"/>
<path d="M618.552 603.847L611.087 605.408L619.757 628.246L618.552 603.847Z" stroke="#00BFFF" stroke-opacity="0.4"/>
</g>
<g id="Polygon 4_5">
<path d="M621.433 570.724L619.446 596.781L628.204 595.965L621.433 570.724Z" fill="#D9D9D9" fill-opacity="0.3"/>
<path d="M619.989 596.228L627.568 595.522L621.709 573.68L619.989 596.228Z" stroke="#00BFFF" stroke-opacity="0.4"/>
</g>
<g id="Polygon 20_5">
<path d="M615.225 623.401L618.383 597.46L609.597 597.882L615.225 623.401Z" fill="#D9D9D9" fill-opacity="0.3"/>
<path d="M617.816 597.988L610.212 598.353L615.082 620.436L617.816 597.988Z" stroke="#00BFFF" stroke-opacity="0.4"/>
</g>
<g id="Polygon 8_5">
<path d="M617.92 570.591L613.521 596.351H622.318L617.92 570.591Z" fill="#D9D9D9" fill-opacity="0.3"/>
<path d="M614.114 595.851H621.726L617.92 573.56L614.114 595.851Z" stroke="#00BFFF" stroke-opacity="0.4"/>
</g>
<g id="Polygon 12_5">
<path d="M622.912 620.304L629.157 594.928L620.383 594.294L622.912 620.304Z" fill="#D9D9D9" fill-opacity="0.3"/>
<path d="M628.53 595.385L620.938 594.835L623.126 617.343L628.53 595.385Z" stroke="#00BFFF" stroke-opacity="0.4"/>
</g>
</g>
</g>
<g id="&#227;&#131;&#169;&#227;&#131;&#153;&#227;&#131;&#179;&#227;&#131;&#128;&#227;&#131;&#188;&#227;&#131;&#153;&#227;&#131;&#131;&#227;&#131;&#137;&#229;&#140;&#151;&#232;&#165;&#191;">
<g id="Group 5_6">
<path id="Polygon 22_6" d="M309.531 565.796L297.619 568.007L294.677 572.974L302.921 576.957H316.142L324.385 572.974L321.443 568.007L309.531 565.796Z" fill="#F0FEFF" fill-opacity="0.4"/>
<path id="Polygon 23_6" d="M309.56 561.804L297.442 564.048L294.449 569.089L302.835 573.132H316.286L324.672 569.089L321.679 564.048L309.56 561.804Z" fill="#F0FEFF" fill-opacity="0.4"/>
</g>
<g id="Group 2_6">
<g id="Polygon 1_6">
<path d="M309.035 504.726L304.637 528.725H313.434L309.035 504.726Z" fill="#D9D9D9" fill-opacity="0.3"/>
<path d="M305.237 528.225H312.834L309.036 507.498L305.237 528.225Z" stroke="#00BFFF" stroke-opacity="0.4"/>
</g>
<g id="Polygon 11_6">
<path d="M306.335 568.722L310.733 542.962L301.936 542.962L306.335 568.722Z" fill="#D9D9D9" fill-opacity="0.3"/>
<path d="M310.141 543.462L302.528 543.462L306.334 565.753L310.141 543.462Z" stroke="#00BFFF" stroke-opacity="0.4"/>
</g>
<g id="Polygon 2_6">
<path d="M307.244 511.466L300.965 536.833L309.738 537.479L307.244 511.466Z" fill="#D9D9D9" fill-opacity="0.3"/>
<path d="M301.593 536.377L309.184 536.937L307.026 514.426L301.593 536.377Z" stroke="#00BFFF" stroke-opacity="0.4"/>
</g>
<g id="Polygon 6_6">
<path d="M308.165 507.088L300.354 538.007L308.273 538.978L308.165 507.088Z" fill="#D9D9D9" fill-opacity="0.3"/>
<path d="M300.978 537.58L307.77 538.413L307.678 511.055L300.978 537.58Z" stroke="#00BFFF" stroke-opacity="0.4"/>
</g>
<g id="Polygon 13_6">
<path d="M310.327 569.192L314.725 543.432L305.929 543.432L310.327 569.192Z" fill="#D9D9D9" fill-opacity="0.3"/>
<path d="M314.133 543.932L306.521 543.932L310.327 566.223L314.133 543.932Z" stroke="#00BFFF" stroke-opacity="0.4"/>
</g>
<g id="Polygon 5_6">
<path d="M308.659 506.151L303.156 531.698L311.945 532.076L308.659 506.151Z" fill="#D9D9D9" fill-opacity="0.3"/>
<path d="M303.769 531.224L311.375 531.551L308.532 509.117L303.769 531.224Z" stroke="#00BFFF" stroke-opacity="0.4"/>
</g>
<g id="Polygon 14_6">
<path d="M313.988 568.693L316.798 535.863L311.761 535.818L313.988 568.693Z" fill="#D9D9D9" fill-opacity="0.3"/>
<path d="M316.254 536.358L312.295 536.323L314.046 562.148L316.254 536.358Z" stroke="#00BFFF" stroke-opacity="0.4"/>
</g>
<g id="Polygon 15_6">
<path d="M307.529 566.795L318.54 543.096L310.053 540.784L307.529 566.795Z" fill="#D9D9D9" fill-opacity="0.3"/>
<path d="M317.838 543.423L310.493 541.423L308.308 563.93L317.838 543.423Z" stroke="#00BFFF" stroke-opacity="0.4"/>
</g>
<g id="Polygon 3_6">
<path d="M310.699 510.191L306.889 536.044L315.683 535.844L310.699 510.191Z" fill="#D9D9D9" fill-opacity="0.3"/>
<path d="M307.469 535.531L315.08 535.357L310.767 513.159L307.469 535.531Z" stroke="#00BFFF" stroke-opacity="0.4"/>
</g>
<g id="Polygon 16_6">
<path d="M308.044 566.375L309.951 544.983L302.996 545.5L308.044 566.375Z" fill="#D9D9D9" fill-opacity="0.3"/>
<path d="M309.4 545.525L303.621 545.955L307.816 563.306L309.4 545.525Z" stroke="#00BFFF" stroke-opacity="0.4"/>
</g>
<g id="Polygon 7_6">
<path d="M313.498 551.925L317.616 526.119L308.82 526.214L313.498 551.925Z" fill="#D9D9D9" fill-opacity="0.3"/>
<path d="M317.029 526.625L309.417 526.708L313.465 548.956L317.029 526.625Z" stroke="#00BFFF" stroke-opacity="0.4"/>
</g>
<g id="Polygon 21_6">
<path d="M313.133 549.576L317.259 523.506L308.441 523.602L313.133 549.576Z" fill="#D9D9D9" fill-opacity="0.3"/>
<path d="M316.673 524.012L309.038 524.095L313.1 546.582L316.673 524.012Z" stroke="#00BFFF" stroke-opacity="0.4"/>
</g>
<g id="Polygon 17_6">
<path d="M305.219 566.667L309.617 540.907L300.821 540.907L305.219 566.667Z" fill="#D9D9D9" fill-opacity="0.3"/>
<path d="M309.025 541.408L301.413 541.408L305.219 563.699L309.025 541.408Z" stroke="#00BFFF" stroke-opacity="0.4"/>
</g>
<g id="Polygon 10_6">
<path d="M307.861 516.703L303.463 542.463H312.259L307.861 516.703Z" fill="#D9D9D9" fill-opacity="0.3"/>
<path d="M304.055 541.963H311.667L307.862 519.672L304.055 541.963Z" stroke="#00BFFF" stroke-opacity="0.4"/>
</g>
<g id="Polygon 18_6">
<path d="M308.507 562.381L312.905 536.621L304.109 536.621L308.507 562.381Z" fill="#D9D9D9" fill-opacity="0.3"/>
<path d="M312.313 537.122L304.701 537.122L308.507 559.413L312.313 537.122Z" stroke="#00BFFF" stroke-opacity="0.4"/>
</g>
<g id="Polygon 9_6">
<path d="M304.81 515.772L299.776 541.415L308.57 541.633L304.81 515.772Z" fill="#D9D9D9" fill-opacity="0.3"/>
<path d="M300.38 540.93L307.99 541.118L304.737 518.74L300.38 540.93Z" stroke="#00BFFF" stroke-opacity="0.4"/>
</g>
<g id="Polygon 19_6">
<path d="M310.412 574.379L309.022 546.237L300.412 548.037L310.412 574.379Z" fill="#D9D9D9" fill-opacity="0.3"/>
<path d="M308.552 546.847L301.087 548.408L309.757 571.246L308.552 546.847Z" stroke="#00BFFF" stroke-opacity="0.4"/>
</g>
<g id="Polygon 4_6">
<path d="M311.433 513.724L309.446 539.781L318.204 538.965L311.433 513.724Z" fill="#D9D9D9" fill-opacity="0.3"/>
<path d="M309.989 539.228L317.568 538.522L311.709 516.68L309.989 539.228Z" stroke="#00BFFF" stroke-opacity="0.4"/>
</g>
<g id="Polygon 20_6">
<path d="M305.225 566.401L308.384 540.46L299.597 540.882L305.225 566.401Z" fill="#D9D9D9" fill-opacity="0.3"/>
<path d="M307.816 540.988L300.213 541.353L305.082 563.436L307.816 540.988Z" stroke="#00BFFF" stroke-opacity="0.4"/>
</g>
<g id="Polygon 8_6">
<path d="M307.92 513.591L303.522 539.351H312.318L307.92 513.591Z" fill="#D9D9D9" fill-opacity="0.3"/>
<path d="M304.114 538.851H311.726L307.92 516.56L304.114 538.851Z" stroke="#00BFFF" stroke-opacity="0.4"/>
</g>
<g id="Polygon 12_6">
<path d="M312.912 563.304L319.157 537.928L310.383 537.294L312.912 563.304Z" fill="#D9D9D9" fill-opacity="0.3"/>
<path d="M318.53 538.385L310.938 537.835L313.126 560.343L318.53 538.385Z" stroke="#00BFFF" stroke-opacity="0.4"/>
</g>
</g>
</g>
<g id="&#227;&#131;&#169;&#227;&#131;&#153;&#227;&#131;&#179;&#227;&#131;&#128;&#227;&#131;&#188;&#227;&#131;&#153;&#227;&#131;&#131;&#227;&#131;&#137;&#229;&#141;&#151;&#232;&#165;&#191;">
<g id="Group 5_7">
<path id="Polygon 22_7" d="M415.531 1234.8L403.619 1237.01L400.677 1241.97L408.92 1245.96H422.142L430.385 1241.97L427.443 1237.01L415.531 1234.8Z" fill="#F0FEFF" fill-opacity="0.4"/>
<path id="Polygon 23_7" d="M415.56 1230.8L403.442 1233.05L400.449 1238.09L408.835 1242.13H422.286L430.672 1238.09L427.679 1233.05L415.56 1230.8Z" fill="#F0FEFF" fill-opacity="0.4"/>
</g>
<g id="Group 2_7">
<g id="Polygon 1_7">
<path d="M415.035 1173.73L410.637 1197.72H419.433L415.035 1173.73Z" fill="#D9D9D9" fill-opacity="0.3"/>
<path d="M411.237 1197.22H418.834L415.036 1176.5L411.237 1197.22Z" stroke="#00BFFF" stroke-opacity="0.4"/>
</g>
<g id="Polygon 11_7">
<path d="M412.335 1237.72L416.733 1211.96L407.936 1211.96L412.335 1237.72Z" fill="#D9D9D9" fill-opacity="0.3"/>
<path d="M416.141 1212.46L408.528 1212.46L412.334 1234.75L416.141 1212.46Z" stroke="#00BFFF" stroke-opacity="0.4"/>
</g>
<g id="Polygon 2_7">
<path d="M413.244 1180.47L406.965 1205.83L415.738 1206.48L413.244 1180.47Z" fill="#D9D9D9" fill-opacity="0.3"/>
<path d="M407.592 1205.38L415.184 1205.94L413.026 1183.43L407.592 1205.38Z" stroke="#00BFFF" stroke-opacity="0.4"/>
</g>
<g id="Polygon 6_7">
<path d="M414.165 1176.09L406.354 1207.01L414.273 1207.98L414.165 1176.09Z" fill="#D9D9D9" fill-opacity="0.3"/>
<path d="M406.978 1206.58L413.77 1207.41L413.678 1180.06L406.978 1206.58Z" stroke="#00BFFF" stroke-opacity="0.4"/>
</g>
<g id="Polygon 13_7">
<path d="M416.327 1238.19L420.725 1212.43L411.929 1212.43L416.327 1238.19Z" fill="#D9D9D9" fill-opacity="0.3"/>
<path d="M420.133 1212.93L412.521 1212.93L416.326 1235.22L420.133 1212.93Z" stroke="#00BFFF" stroke-opacity="0.4"/>
</g>
<g id="Polygon 5_7">
<path d="M414.659 1175.15L409.156 1200.7L417.944 1201.08L414.659 1175.15Z" fill="#D9D9D9" fill-opacity="0.3"/>
<path d="M409.769 1200.22L417.374 1200.55L414.531 1178.12L409.769 1200.22Z" stroke="#00BFFF" stroke-opacity="0.4"/>
</g>
<g id="Polygon 14_7">
<path d="M419.988 1237.69L422.798 1204.86L417.761 1204.82L419.988 1237.69Z" fill="#D9D9D9" fill-opacity="0.3"/>
<path d="M422.254 1205.36L418.295 1205.32L420.046 1231.15L422.254 1205.36Z" stroke="#00BFFF" stroke-opacity="0.4"/>
</g>
<g id="Polygon 15_7">
<path d="M413.529 1235.79L424.54 1212.1L416.053 1209.78L413.529 1235.79Z" fill="#D9D9D9" fill-opacity="0.3"/>
<path d="M423.838 1212.42L416.493 1210.42L414.308 1232.93L423.838 1212.42Z" stroke="#00BFFF" stroke-opacity="0.4"/>
</g>
<g id="Polygon 3_7">
<path d="M416.699 1179.19L412.889 1205.04L421.683 1204.84L416.699 1179.19Z" fill="#D9D9D9" fill-opacity="0.3"/>
<path d="M413.469 1204.53L421.08 1204.36L416.767 1182.16L413.469 1204.53Z" stroke="#00BFFF" stroke-opacity="0.4"/>
</g>
<g id="Polygon 16_7">
<path d="M414.044 1235.38L415.951 1213.98L408.996 1214.5L414.044 1235.38Z" fill="#D9D9D9" fill-opacity="0.3"/>
<path d="M415.4 1214.53L409.621 1214.95L413.816 1232.31L415.4 1214.53Z" stroke="#00BFFF" stroke-opacity="0.4"/>
</g>
<g id="Polygon 7_7">
<path d="M419.498 1220.93L423.616 1195.12L414.82 1195.21L419.498 1220.93Z" fill="#D9D9D9" fill-opacity="0.3"/>
<path d="M423.029 1195.63L415.417 1195.71L419.465 1217.96L423.029 1195.63Z" stroke="#00BFFF" stroke-opacity="0.4"/>
</g>
<g id="Polygon 21_7">
<path d="M419.133 1218.58L423.259 1192.51L414.441 1192.6L419.133 1218.58Z" fill="#D9D9D9" fill-opacity="0.3"/>
<path d="M422.672 1193.01L415.038 1193.09L419.1 1215.58L422.672 1193.01Z" stroke="#00BFFF" stroke-opacity="0.4"/>
</g>
<g id="Polygon 17_7">
<path d="M411.219 1235.67L415.617 1209.91L406.821 1209.91L411.219 1235.67Z" fill="#D9D9D9" fill-opacity="0.3"/>
<path d="M415.025 1210.41L407.413 1210.41L411.219 1232.7L415.025 1210.41Z" stroke="#00BFFF" stroke-opacity="0.4"/>
</g>
<g id="Polygon 10_7">
<path d="M413.861 1185.7L409.463 1211.46H418.259L413.861 1185.7Z" fill="#D9D9D9" fill-opacity="0.3"/>
<path d="M410.055 1210.96H417.667L413.862 1188.67L410.055 1210.96Z" stroke="#00BFFF" stroke-opacity="0.4"/>
</g>
<g id="Polygon 18_7">
<path d="M414.507 1231.38L418.905 1205.62L410.109 1205.62L414.507 1231.38Z" fill="#D9D9D9" fill-opacity="0.3"/>
<path d="M418.313 1206.12L410.701 1206.12L414.506 1228.41L418.313 1206.12Z" stroke="#00BFFF" stroke-opacity="0.4"/>
</g>
<g id="Polygon 9_7">
<path d="M410.81 1184.77L405.776 1210.42L414.57 1210.63L410.81 1184.77Z" fill="#D9D9D9" fill-opacity="0.3"/>
<path d="M406.38 1209.93L413.99 1210.12L410.737 1187.74L406.38 1209.93Z" stroke="#00BFFF" stroke-opacity="0.4"/>
</g>
<g id="Polygon 19_7">
<path d="M416.412 1243.38L415.022 1215.24L406.412 1217.04L416.412 1243.38Z" fill="#D9D9D9" fill-opacity="0.3"/>
<path d="M414.552 1215.85L407.087 1217.41L415.757 1240.25L414.552 1215.85Z" stroke="#00BFFF" stroke-opacity="0.4"/>
</g>
<g id="Polygon 4_7">
<path d="M417.433 1182.72L415.446 1208.78L424.204 1207.96L417.433 1182.72Z" fill="#D9D9D9" fill-opacity="0.3"/>
<path d="M415.989 1208.23L423.568 1207.52L417.709 1185.68L415.989 1208.23Z" stroke="#00BFFF" stroke-opacity="0.4"/>
</g>
<g id="Polygon 20_7">
<path d="M411.225 1235.4L414.383 1209.46L405.597 1209.88L411.225 1235.4Z" fill="#D9D9D9" fill-opacity="0.3"/>
<path d="M413.816 1209.99L406.213 1210.35L411.082 1232.44L413.816 1209.99Z" stroke="#00BFFF" stroke-opacity="0.4"/>
</g>
<g id="Polygon 8_7">
<path d="M413.92 1182.59L409.522 1208.35H418.318L413.92 1182.59Z" fill="#D9D9D9" fill-opacity="0.3"/>
<path d="M410.114 1207.85H417.726L413.92 1185.56L410.114 1207.85Z" stroke="#00BFFF" stroke-opacity="0.4"/>
</g>
<g id="Polygon 12_7">
<path d="M418.912 1232.3L425.157 1206.93L416.383 1206.29L418.912 1232.3Z" fill="#D9D9D9" fill-opacity="0.3"/>
<path d="M424.53 1207.38L416.938 1206.84L419.126 1229.34L424.53 1207.38Z" stroke="#00BFFF" stroke-opacity="0.4"/>
</g>
</g>
</g>
<g id="&#230;&#168;&#185;&#229;&#134;&#160;&#229;&#149;&#134;&#229;&#186;&#151;&#232;&#161;&#151;">
<g id="Group 5_8">
<path id="Polygon 22_8" d="M829.531 342.796L817.619 345.007L814.677 349.974L822.92 353.957H836.142L844.385 349.974L841.443 345.007L829.531 342.796Z" fill="#F0FEFF" fill-opacity="0.4"/>
<path id="Polygon 23_8" d="M829.56 338.804L817.442 341.048L814.449 346.089L822.835 350.132H836.285L844.672 346.089L841.679 341.048L829.56 338.804Z" fill="#F0FEFF" fill-opacity="0.4"/>
</g>
<g id="Group 2_8">
<g id="Polygon 1_8">
<path d="M829.035 281.726L824.637 305.725H833.433L829.035 281.726Z" fill="#D9D9D9" fill-opacity="0.3"/>
<path d="M825.237 305.225H832.834L829.036 284.498L825.237 305.225Z" stroke="#00BFFF" stroke-opacity="0.4"/>
</g>
<g id="Polygon 11_8">
<path d="M826.334 345.722L830.733 319.962L821.936 319.962L826.334 345.722Z" fill="#D9D9D9" fill-opacity="0.3"/>
<path d="M830.141 320.462L822.528 320.462L826.334 342.753L830.141 320.462Z" stroke="#00BFFF" stroke-opacity="0.4"/>
</g>
<g id="Polygon 2_8">
<path d="M827.244 288.466L820.965 313.833L829.738 314.479L827.244 288.466Z" fill="#D9D9D9" fill-opacity="0.3"/>
<path d="M821.592 313.377L829.184 313.937L827.026 291.426L821.592 313.377Z" stroke="#00BFFF" stroke-opacity="0.4"/>
</g>
<g id="Polygon 6_8">
<path d="M828.165 284.088L820.354 315.007L828.273 315.978L828.165 284.088Z" fill="#D9D9D9" fill-opacity="0.3"/>
<path d="M820.977 314.579L827.77 315.413L827.678 288.055L820.977 314.579Z" stroke="#00BFFF" stroke-opacity="0.4"/>
</g>
<g id="Polygon 13_8">
<path d="M830.327 346.192L834.725 320.432L825.929 320.432L830.327 346.192Z" fill="#D9D9D9" fill-opacity="0.3"/>
<path d="M834.133 320.932L826.521 320.932L830.326 343.223L834.133 320.932Z" stroke="#00BFFF" stroke-opacity="0.4"/>
</g>
<g id="Polygon 5_8">
<path d="M828.659 283.151L823.156 308.698L831.944 309.076L828.659 283.151Z" fill="#D9D9D9" fill-opacity="0.3"/>
<path d="M823.769 308.224L831.374 308.551L828.531 286.117L823.769 308.224Z" stroke="#00BFFF" stroke-opacity="0.4"/>
</g>
<g id="Polygon 14_8">
<path d="M833.988 345.693L836.798 312.863L831.761 312.818L833.988 345.693Z" fill="#D9D9D9" fill-opacity="0.3"/>
<path d="M836.254 313.358L832.295 313.323L834.046 339.148L836.254 313.358Z" stroke="#00BFFF" stroke-opacity="0.4"/>
</g>
<g id="Polygon 15_8">
<path d="M827.529 343.795L838.54 320.096L830.053 317.784L827.529 343.795Z" fill="#D9D9D9" fill-opacity="0.3"/>
<path d="M837.838 320.423L830.493 318.423L828.308 340.93L837.838 320.423Z" stroke="#00BFFF" stroke-opacity="0.4"/>
</g>
<g id="Polygon 3_8">
<path d="M830.699 287.191L826.889 313.044L835.683 312.844L830.699 287.191Z" fill="#D9D9D9" fill-opacity="0.3"/>
<path d="M827.469 312.531L835.08 312.357L830.767 290.159L827.469 312.531Z" stroke="#00BFFF" stroke-opacity="0.4"/>
</g>
<g id="Polygon 16_8">
<path d="M828.044 343.375L829.951 321.983L822.996 322.5L828.044 343.375Z" fill="#D9D9D9" fill-opacity="0.3"/>
<path d="M829.4 322.525L823.621 322.955L827.816 340.306L829.4 322.525Z" stroke="#00BFFF" stroke-opacity="0.4"/>
</g>
<g id="Polygon 7_8">
<path d="M833.498 328.925L837.616 303.119L828.82 303.214L833.498 328.925Z" fill="#D9D9D9" fill-opacity="0.3"/>
<path d="M837.029 303.625L829.417 303.708L833.465 325.956L837.029 303.625Z" stroke="#00BFFF" stroke-opacity="0.4"/>
</g>
<g id="Polygon 21_8">
<path d="M833.133 326.576L837.259 300.506L828.441 300.602L833.133 326.576Z" fill="#D9D9D9" fill-opacity="0.3"/>
<path d="M836.672 301.012L829.038 301.095L833.1 323.582L836.672 301.012Z" stroke="#00BFFF" stroke-opacity="0.4"/>
</g>
<g id="Polygon 17_8">
<path d="M825.219 343.667L829.617 317.907L820.821 317.907L825.219 343.667Z" fill="#D9D9D9" fill-opacity="0.3"/>
<path d="M829.025 318.408L821.413 318.408L825.218 340.699L829.025 318.408Z" stroke="#00BFFF" stroke-opacity="0.4"/>
</g>
<g id="Polygon 10_8">
<path d="M827.861 293.703L823.463 319.463H832.259L827.861 293.703Z" fill="#D9D9D9" fill-opacity="0.3"/>
<path d="M824.055 318.963H831.667L827.861 296.672L824.055 318.963Z" stroke="#00BFFF" stroke-opacity="0.4"/>
</g>
<g id="Polygon 18_8">
<path d="M828.507 339.381L832.905 313.621L824.109 313.621L828.507 339.381Z" fill="#D9D9D9" fill-opacity="0.3"/>
<path d="M832.313 314.122L824.701 314.122L828.506 336.413L832.313 314.122Z" stroke="#00BFFF" stroke-opacity="0.4"/>
</g>
<g id="Polygon 9_8">
<path d="M824.81 292.772L819.776 318.415L828.569 318.633L824.81 292.772Z" fill="#D9D9D9" fill-opacity="0.3"/>
<path d="M820.38 317.93L827.99 318.118L824.737 295.74L820.38 317.93Z" stroke="#00BFFF" stroke-opacity="0.4"/>
</g>
<g id="Polygon 19_8">
<path d="M830.412 351.379L829.022 323.237L820.412 325.037L830.412 351.379Z" fill="#D9D9D9" fill-opacity="0.3"/>
<path d="M828.552 323.847L821.087 325.408L829.757 348.246L828.552 323.847Z" stroke="#00BFFF" stroke-opacity="0.4"/>
</g>
<g id="Polygon 4_8">
<path d="M831.433 290.724L829.446 316.781L838.204 315.965L831.433 290.724Z" fill="#D9D9D9" fill-opacity="0.3"/>
<path d="M829.989 316.228L837.568 315.522L831.709 293.68L829.989 316.228Z" stroke="#00BFFF" stroke-opacity="0.4"/>
</g>
<g id="Polygon 20_8">
<path d="M825.225 343.401L828.383 317.46L819.597 317.882L825.225 343.401Z" fill="#D9D9D9" fill-opacity="0.3"/>
<path d="M827.816 317.988L820.212 318.353L825.082 340.436L827.816 317.988Z" stroke="#00BFFF" stroke-opacity="0.4"/>
</g>
<g id="Polygon 8_8">
<path d="M827.92 290.591L823.521 316.351H832.318L827.92 290.591Z" fill="#D9D9D9" fill-opacity="0.3"/>
<path d="M824.114 315.851H831.726L827.92 293.56L824.114 315.851Z" stroke="#00BFFF" stroke-opacity="0.4"/>
</g>
<g id="Polygon 12_8">
<path d="M832.912 340.304L839.157 314.928L830.383 314.294L832.912 340.304Z" fill="#D9D9D9" fill-opacity="0.3"/>
<path d="M838.53 315.385L830.938 314.835L833.126 337.343L838.53 315.385Z" stroke="#00BFFF" stroke-opacity="0.4"/>
</g>
</g>
</g>
</g>
<path id="&#227;&#131;&#138;&#227;&#131;&#147;&#227;&#130;&#178;&#227;&#131;&#188;&#227;&#130;&#183;&#227;&#131;&#167;&#227;&#131;&#179;&#231;&#148;&#168;&#233;&#129;&#147;&#232;&#183;&#175;" d="M735.56 1661.73L577.56 1456.23M1043.06 882.226L1022.56 943.726C919.894 981.706 889.884 1010.8 877.06 1074.23L843.06 1177.23C810.861 1199.98 786.983 1209.65 735.56 1222.23L577.56 1456.23M577.56 1456.23L466.56 1318.73M846.06 1180.23C881.084 1226.16 913.714 1246.76 1001.56 1271.73M1001.56 1271.73C1001.56 1293.23 1001.56 1368.23 1001.56 1412.23C1001.56 1456.23 916.524 1475.34 902.56 1428.73M1001.56 1271.73C1112.56 1236.73 1099.55 1097.75 1134.06 1098.73C1168.57 1099.7 1218.01 1100.45 1224.56 1087.73L1265.56 964.226C1264.69 948.727 1260.62 942.789 1250.06 934.726L1169.56 911.726M1169.56 911.726L1176.06 892.726M1169.56 911.726L1043.06 882.226M1043.06 882.226C1029.44 873.112 1028.7 863.712 1032.56 843.726C1045.5 827.877 1051.17 819.525 1052.06 807.726M1052.06 807.726L1064.06 760.726C1080.29 736.58 1085.49 723.655 1087.56 701.726C1094.01 644.513 1101.74 624.301 1121.56 605.726M1052.06 807.726C1016.05 793.326 1000.49 790.039 979.56 791.226M1121.56 605.726C1207.74 633.516 1261.32 654.081 1361.06 694.726L1517.56 787.726M1121.56 605.726C1105.35 581.912 1089.1 569.322 1052.06 547.726M1108.56 238.726C1118.56 265.004 1119.81 282.848 1117.06 318.226L1114.06 359.226C1113.74 369.505 1115.48 375.791 1128.56 389.726L1159.56 413.726C1177.22 435.587 1177.23 446.714 1165.56 465.226C1150.04 480.766 1116.8 503.684 1052.06 547.726M1052.06 547.726C1033.22 543.945 1022.35 542.483 1002.56 540.726M1117.06 318.226H1635.56M1108.56 238.726L1137.06 194.726M767.06 308.226C864.843 294.082 910.317 284.094 977.56 263.226C1024.08 243.188 1045.41 234.99 1068.06 230.226C1082.07 226.945 1090.73 228.058 1108.56 238.726M311.06 409.726L340.06 258.726L347.646 197.226L354.06 145.226C391.563 97.6431 409.46 64.6391 468.56 60.726C536.705 51.4821 574.448 136.357 585.56 145.226L615.06 180.226C646.142 225.764 655.438 253.693 656.06 308.226L672.56 344.226C672.476 348.703 694.972 364.898 704.06 350.726C713.149 336.553 768.614 300.268 763.06 308.226C757.507 316.184 662.282 172.266 792.56 137.726C884.44 150.188 926.856 174.108 977.56 263.226M337.06 547.726L372.56 567.226C388.033 572.613 395.84 573.462 400.06 550.726L409.06 426.226C421.928 370.72 431.487 340.599 457.56 290.726C467.039 277.546 472.997 273.761 484.56 272.226H569.06C586.588 270.565 590.019 265.27 593.06 253.726L615.06 180.226M340.06 258.726L301.56 220.226M311.06 409.726L247.56 383.726M311.06 409.726L300.56 467.726C304.663 513.663 313.304 530.236 337.06 547.726M337.06 547.726C317.792 606.567 316.045 637.402 322.06 690.226C337.084 781.163 339.104 817.022 340.06 874.726C369.491 898.342 395.261 905.741 455.06 910.226M337.06 547.726C368.249 436.092 375.711 372.852 368.56 258.726C361.946 229.414 357.071 216.958 347.646 197.226M466.56 1318.73C452.995 1286.03 447.554 1260.45 440.56 1205.73C431.845 1111.84 427.753 1058.01 455.06 910.226M455.06 910.226L554.06 890.226M440.56 1205.73C468.076 1205.77 483.979 1206.17 499.56 1196.73M466.56 1318.73C406.336 1321.27 389.642 1311.07 372.56 1284.23M877.06 1074.23C797.595 1063.73 763.794 1053.09 723.56 1025.23L669.56 1003.73L655.56 920.726C640.042 898.778 628.637 894.405 607.06 890.226H554.06M554.06 890.226L557.56 749.226C558.997 733.509 562.531 728.919 572.06 725.726L712.06 701.226L726.56 693.726M726.56 693.726C694.224 670.603 674.918 646.283 639.06 589.226C601.247 581.457 588.041 573.701 576.56 554.726C576.127 547.151 577.597 543.517 583.56 538.226V477.226C566.918 458.857 554.638 452.83 530.56 445.226L409.06 426.226M726.56 693.726C761.571 713.605 782.173 724.773 820.56 744.726M820.56 744.726C842.266 758.557 858.273 764.62 889.56 774.226C939.402 779.456 958.878 783.2 979.56 791.226M820.56 744.726C867.992 689.875 871.428 644.95 861.06 554.726V543.726M979.56 791.226C982.344 802.426 978.51 807.65 952.56 813.226H889.56C875.081 811.255 870.484 814.716 867.56 827.726V864.726M861.06 543.726L827.56 540.726M861.06 543.726C928.981 539.399 961.582 538.338 1002.56 540.726M1002.56 540.726V465.226" stroke="#FF0000"/>
<g id="Node">
<circle id="node_26" cx="1003.06" cy="532.726" r="27.5" transform="rotate(90 1003.06 532.726)" stroke="#FF0000"/>
<circle id="node_25" cx="1056.06" cy="552.726" r="27.5" transform="rotate(90 1056.06 552.726)" stroke="#FF0000"/>
<circle id="node_24" cx="1121.06" cy="607.726" r="27.5" transform="rotate(90 1121.06 607.726)" stroke="#FF0000"/>
<circle id="node_23" cx="1052.06" cy="814.726" r="27.5" transform="rotate(90 1052.06 814.726)" stroke="#FF0000"/>
<circle id="node_22" cx="1046.06" cy="882.726" r="27.5" transform="rotate(90 1046.06 882.726)" stroke="#FF0000"/>
<circle id="node_21" cx="1000.06" cy="1270.73" r="27.5" transform="rotate(90 1000.06 1270.73)" stroke="#FF0000"/>
<circle id="node_20" cx="872.06" cy="1071.73" r="27.5" transform="rotate(90 872.06 1071.73)" stroke="#FF0000"/>
<circle id="node_19" cx="842.06" cy="1177.73" r="27.5" transform="rotate(90 842.06 1177.73)" stroke="#FF0000"/>
<circle id="node_18" cx="442.06" cy="1205.73" r="27.5" transform="rotate(90 442.06 1205.73)" stroke="#FF0000"/>
<circle id="node_17" cx="464.06" cy="1306.73" r="27.5" transform="rotate(90 464.06 1306.73)" stroke="#FF0000"/>
<circle id="node_16" cx="576.06" cy="1452.73" r="27.5" transform="rotate(90 576.06 1452.73)" stroke="#FF0000"/>
<circle id="node_15" cx="976.06" cy="792.726" r="27.5" transform="rotate(90 976.06 792.726)" stroke="#FF0000"/>
<circle id="node_14" cx="822.06" cy="744.726" r="27.5" transform="rotate(90 822.06 744.726)" stroke="#FF0000"/>
<circle id="node_13" cx="714.06" cy="697.726" r="27.5" transform="rotate(90 714.06 697.726)" stroke="#FF0000"/>
<circle id="node_12" cx="766.06" cy="307.726" r="27.5" transform="rotate(90 766.06 307.726)" stroke="#FF0000"/>
<circle id="node_11" cx="616.06" cy="191.726" r="27.5" transform="rotate(90 616.06 191.726)" stroke="#FF0000"/>
<circle id="node_10" cx="353.06" cy="244.726" r="27.5" transform="rotate(90 353.06 244.726)" stroke="#FF0000"/>
<circle id="node_9" cx="310.06" cy="402.726" r="27.5" transform="rotate(90 310.06 402.726)" stroke="#FF0000"/>
<circle id="node_8" cx="332.06" cy="542.726" r="27.5" transform="rotate(90 332.06 542.726)" stroke="#FF0000"/>
<circle id="node_7" cx="552.06" cy="888.726" r="27.5" transform="rotate(90 552.06 888.726)" stroke="#FF0000"/>
<circle id="node_6" cx="459.06" cy="910.726" r="27.5" transform="rotate(90 459.06 910.726)" stroke="#FF0000"/>
<circle id="node_5" cx="411.06" cy="430.726" r="27.5" transform="rotate(90 411.06 430.726)" stroke="#FF0000"/>
<circle id="node_4" cx="969.06" cy="262.726" r="27.5" transform="rotate(90 969.06 262.726)" stroke="#FF0000"/>
<circle id="node_3" cx="1107.06" cy="240.726" r="27.5" transform="rotate(90 1107.06 240.726)" stroke="#FF0000"/>
<circle id="node_2" cx="1115.06" cy="311.726" r="27.5" transform="rotate(90 1115.06 311.726)" stroke="#FF0000"/>
<circle id="node_1" cx="860.06" cy="544.726" r="27.5" transform="rotate(90 860.06 544.726)" stroke="#FF0000"/>
</g>
</g>
</svg>
