<svg width="1815" height="1544" viewBox="0 0 1815 1544" fill="none" xmlns="http://www.w3.org/2000/svg">
<g id="Group 13">
<path id="&#233;&#129;&#147;&#232;&#183;&#175;(Stroke)" d="M97.3194 26.7595C95.243 22.8596 96.7202 17.9949 100.689 16.0531C129.226 2.09079 153.155 -1.77174 176.757 5.83771C201.351 13.7672 223.735 33.6842 249.916 61.5389L389.289 200.912C404.78 215.773 416.612 230.488 427.294 244.221C438.111 258.128 447.485 270.657 458.577 282.139C480.124 304.443 508.44 323.042 565.108 333.697L566.739 334.004C570.52 334.715 573.26 338.018 573.26 341.866V423.104C572.977 458.854 573.885 490.457 571.939 515.675C570.889 529.268 568.976 541.897 565.21 552.997C563.475 558.107 566.458 563.939 571.784 564.812C595.549 568.705 625.139 572.849 669.185 568.083L671.257 567.859C675.78 567.369 679.8 570.745 680.1 575.284L692.76 766.461C693.081 771.309 697.634 774.707 702.491 774.606C709.137 774.467 716.034 775.614 723.358 778.015C734.533 781.679 746.825 788.299 761.042 797.605C764.997 800.194 770.346 798.932 772.625 794.792L834.177 682.973C835.802 680.02 839.104 678.403 842.433 678.928L1000.3 703.854C1004.06 704.448 1007.73 702.308 1009.03 698.73C1013.85 685.552 1018.38 672.597 1022.87 661.341C1029.13 645.619 1036.12 630.93 1045.89 617.812C1065.36 591.669 1094.59 573.456 1146.35 562.529C1147.48 562.29 1148.57 561.81 1149.5 561.129C1162.8 551.455 1176.33 543.604 1191.59 539.472C1208.28 534.953 1226.29 535.085 1247.45 540.933C1288.37 552.237 1342.28 585.296 1424.5 649.576L1428.44 652.66L1428.95 653.064L1545.32 771.973C1548.43 775.15 1548.35 780.254 1545.14 783.335L1423.3 900.491C1420.76 902.931 1420.12 906.743 1421.71 909.882L1463.44 992.009C1465.22 995.502 1464.2 999.766 1461.04 1002.08L1373.69 1066.17C1370.31 1068.65 1369.42 1073.33 1371.65 1076.88L1459.1 1215.75C1460 1217.18 1461.33 1218.28 1462.9 1218.91L1807.73 1356.74C1810.77 1357.96 1812.76 1360.9 1812.76 1364.17V1365.53C1812.76 1376.19 1805.19 1383.52 1797.99 1388.34C1790.47 1393.38 1780.39 1397.7 1769.71 1401.7C1747.41 1410.05 1721.83 1417.4 1698.92 1427.87C1675.83 1438.42 1660.08 1450.28 1655.33 1464.82C1651.16 1477.57 1654.36 1496.55 1678.85 1525.29C1681.72 1528.65 1681.5 1533.7 1678.24 1536.68L1675.28 1539.37C1672.02 1542.35 1666.94 1542.13 1664.07 1538.77C1637.52 1507.76 1628.87 1481.41 1636.32 1458.61C1643.94 1435.27 1667.19 1420.38 1690.6 1409.68C1714.19 1398.9 1742.61 1390.5 1762.69 1382.97C1773.19 1379.04 1781.4 1375.39 1786.86 1371.73C1787.58 1371.24 1787.44 1370.17 1786.63 1369.85L1460.76 1239.59C1457.86 1238.43 1454.55 1239.07 1452.28 1241.22L1371.04 1318.35C1369.48 1319.83 1367.41 1320.62 1365.27 1320.55L1057.96 1310.4C1054.84 1310.3 1051.94 1312.02 1050.54 1314.82L955.932 1504.04C954.16 1507.58 950.059 1509.3 946.292 1508.07L444.604 1344.15C440.958 1342.96 436.98 1344.52 435.122 1347.88L342.884 1514.37C340.743 1518.24 335.874 1519.64 332.009 1517.49L328.511 1515.56C324.646 1513.42 323.249 1508.55 325.39 1504.68L417.569 1338.29C419.439 1334.91 418.629 1330.68 415.652 1328.23C350.698 1274.7 295.235 1227.08 248.068 1184.61C171.545 1115.71 116.725 1060.23 78.5969 1014.87C40.5528 969.619 18.6678 933.913 8.67602 904.551C-1.46254 874.757 0.581753 851.223 10.5286 831.376C20.1573 812.163 36.7142 797.493 52.9436 784.272L53.3955 783.904C54.575 782.944 56.0038 782.339 57.5145 782.162L206.145 764.708C210.556 764.19 213.701 760.178 213.15 755.771L202.829 673.204C202.281 668.82 205.391 664.821 209.775 664.273L213.745 663.777C218.129 663.229 222.127 666.339 222.675 670.723L239.412 804.62C240.212 811.021 247.876 813.897 252.717 809.634C261.626 801.789 270.089 794.462 278.246 787.46C331.858 741.442 372.096 709.562 439.635 635.78C442.64 632.497 442.381 627.377 439.048 624.428C397.102 587.301 354.037 550.865 318.72 519.766C299.295 502.661 282.281 487.225 269.483 474.479C263.088 468.11 257.617 462.288 253.382 457.176C249.314 452.266 245.763 447.286 243.953 442.685L243.769 442.216C243.286 440.987 243.115 439.659 243.27 438.348L243.329 437.847C245.416 420.25 242.176 411.639 238.631 407.264C235.065 402.864 229.461 400.592 221.844 399.6C218.097 399.113 214.219 398.98 210.292 398.93C206.638 398.885 202.376 398.919 198.948 398.667C197.168 398.536 195.191 398.305 193.274 397.828C191.428 397.368 188.951 396.518 186.703 394.719C184.183 392.701 182.352 389.795 181.831 386.25C181.363 383.059 182.077 380.167 182.915 377.966L183.127 377.408C183.683 375.949 184.653 374.684 185.918 373.77L186.402 373.421C209.768 356.529 237.204 354.425 257.008 353.371C267.545 352.81 275.018 352.568 280.324 351.343C280.788 351.235 281.199 351.128 281.563 351.022C282.797 350.662 283.395 349.284 282.395 348.476C280.918 347.284 277.651 345.711 270.925 344.496C257.495 342.07 235.525 341.887 201.593 343.019L197.307 343.163C190.516 343.389 186.552 335.581 190.743 330.232L193.389 326.856C219.138 294.001 242.278 269.989 270.881 250.101C293.637 234.279 319.542 221.285 352.433 208.424C357.86 206.302 359.388 199.296 355.268 195.176L235.578 75.4861L235.472 75.3719C209.144 47.3477 189.833 31.0673 170.62 24.8729C153.838 19.4621 135.596 21.3448 110.095 33.7174C106.12 35.646 101.276 34.1908 99.1995 30.2908L97.3194 26.7595ZM819.839 1437.3C818.471 1441.5 820.764 1446.01 824.961 1447.38L936.114 1483.7C939.882 1484.93 943.982 1483.22 945.755 1479.67L1029.29 1312.6C1031.35 1308.49 1029.52 1303.49 1025.3 1301.68L891.924 1244.27C887.601 1242.41 882.613 1244.66 881.155 1249.14L819.839 1437.3ZM452.887 1315.81C450.453 1320.2 452.625 1325.73 457.401 1327.29L790.741 1436.2C794.944 1437.57 799.463 1435.28 800.832 1431.08L863.162 1239.8C864.443 1235.87 862.517 1231.61 858.719 1229.98L849.452 1225.99L688.325 1182.09C687.514 1181.87 686.743 1181.52 686.04 1181.06L576.993 1109.53C573.102 1106.97 567.862 1108.27 565.607 1112.34L452.887 1315.81ZM273.135 1170.12C270.501 1173.44 270.902 1178.23 274.063 1181.05C316.894 1219.25 366.334 1261.57 423.229 1308.55C427.085 1311.73 432.889 1310.63 435.313 1306.26L549.886 1099.45C551.827 1095.94 550.878 1091.54 547.665 1089.15L421.78 995.461C418.315 992.882 413.427 993.52 410.74 996.903L273.135 1170.12ZM1134.85 1155.93C1132.34 1158.16 1128.7 1158.59 1125.74 1156.99L1070.35 1127.1C1066.55 1125.05 1061.81 1126.39 1059.64 1130.12L987.615 1253.92C985.202 1258.07 986.959 1263.4 991.368 1265.3L1047.59 1289.5C1048.51 1289.89 1049.49 1290.11 1050.49 1290.14L1357.56 1300.28C1359.7 1300.35 1361.78 1299.56 1363.33 1298.09L1436.17 1228.93C1438.94 1226.31 1439.47 1222.1 1437.43 1218.87L1352.05 1083.28C1350.4 1080.66 1347.38 1079.27 1344.29 1079.43C1331.37 1080.07 1319.7 1076.96 1307.93 1070.49C1296.68 1064.32 1285.27 1055.03 1272.45 1043.43C1269.4 1040.67 1264.76 1040.62 1261.68 1043.35L1134.85 1155.93ZM588.994 1081.96C585.403 1085.54 586.015 1091.52 590.259 1094.31L694.357 1162.6C695.06 1163.06 695.831 1163.41 696.642 1163.63L856.068 1207.06L856.714 1207.34L958.06 1250.96C961.777 1252.56 966.103 1251.13 968.138 1247.63L1041.87 1120.89C1044.13 1117.01 1042.76 1112.04 1038.83 1109.87L783.754 968.592C782.231 967.749 780.477 967.433 778.749 967.645C758.456 970.141 736.434 968.418 715.981 961.703C713.009 960.728 709.717 961.424 707.503 963.635L588.994 1081.96ZM65.673 801.34C64.1474 801.519 62.7032 802.133 61.5227 803.115C47.1133 815.111 35.2906 826.604 28.4084 840.337C21.2093 854.702 18.929 872.595 27.6106 898.107C36.4391 924.051 56.5194 957.531 93.9065 1002C128.846 1043.57 178.501 1094.27 247.236 1156.87C250.653 1159.99 255.992 1159.55 258.867 1155.93L397.524 981.386C399.738 978.6 399.844 974.687 397.787 971.784L288.052 816.985C285.322 813.134 279.866 812.47 276.304 815.57C265.122 825.299 253.292 835.767 240.491 847.42L237.64 850.016C232.844 854.382 225.12 851.528 224.316 845.093L217.615 791.493C217.07 787.132 213.109 784.028 208.744 784.54L65.673 801.34ZM851.53 927.021C850.405 927.725 849.482 928.704 848.786 929.834C843.088 939.084 834.783 946.659 824.919 952.583C819.106 956.074 818.588 965.022 824.519 968.307L1064.56 1101.25L1122.93 1132.74C1125.88 1134.34 1129.52 1133.92 1132.04 1131.69L1249.34 1027.56C1252.27 1024.96 1252.9 1020.6 1250.67 1017.37C1224.34 979.354 1182.89 953.125 1146.9 929.512C1127.55 916.82 1109.16 904.467 1097.3 891.405C1091.26 884.756 1086.37 877.366 1084.07 869.038C1083.15 865.7 1082.67 862.319 1082.66 858.904C1082.64 855.144 1080.68 851.503 1077.18 850.118L1018.04 826.676C1015.67 825.739 1013 825.982 1010.85 827.332L851.53 927.021ZM542.722 580.663C528.909 579.221 519.067 580.294 508.677 586.851C497.606 593.839 484.969 607.642 467.661 634.449L467.573 634.586C467.345 634.939 467.088 635.274 466.807 635.588L466.698 635.709C396.337 714.02 354.492 748.698 303.755 791.962C300.606 794.647 300.027 799.294 302.42 802.67L420.267 968.914C420.753 969.599 421.343 970.203 422.017 970.705L559.764 1073.22C562.947 1075.59 567.385 1075.27 570.193 1072.47L684.599 958.241C688.307 954.539 687.503 948.336 683.248 945.279C668.831 934.92 656.71 920.89 648.916 902.8C641.415 885.388 638.128 864.704 640.227 840.652C640.73 834.885 635.415 830.128 629.749 831.314C606.159 836.253 585.122 835.991 564.266 828.801C537.572 819.598 512.573 799.494 483.295 768.145C480.28 764.916 480.516 759.848 483.782 756.872L486.738 754.178C490.003 751.202 495.062 751.445 498.079 754.673C526.628 785.206 548.818 802.319 570.784 809.892C592.674 817.439 615.764 815.969 647.294 805.941C648.561 805.538 649.707 804.812 650.63 803.856C657.18 797.067 663.526 791.201 669.964 786.547C672.328 784.839 673.751 782.077 673.558 779.167L661.499 597.057C661.204 592.6 657.299 589.258 652.841 589.527C598.934 592.775 565.658 583.057 542.722 580.663ZM1295.53 811.461C1293.06 814.117 1289.12 814.779 1285.92 813.075L1168.7 750.675C1164.84 748.622 1160.05 750.042 1157.94 753.865L1104.29 850.855C1102.36 855.691 1102.27 859.811 1103.35 863.716C1104.53 867.981 1107.3 872.669 1112.1 877.958C1121.92 888.771 1137.97 899.731 1157.87 912.789C1195.92 937.752 1246.15 969.055 1274.59 1017.72C1274.99 1018.4 1275.49 1019.03 1276.07 1019.57C1293.31 1035.66 1305.92 1046.58 1317.56 1052.96C1327.8 1058.59 1337.12 1060.61 1348.31 1058.95C1349.52 1058.77 1350.65 1058.27 1351.63 1057.55L1435.52 996.003C1438.68 993.686 1439.69 989.422 1437.92 985.929L1397.17 905.734C1395.58 902.596 1396.22 898.784 1398.76 896.344L1516.74 782.902C1519.94 779.821 1520.02 774.718 1516.91 771.54L1428.31 681.003C1425.11 677.74 1419.84 677.807 1416.73 681.151L1295.53 811.461ZM790.178 836.768C785.31 834.366 779.579 837.561 778.714 842.921C775.053 865.629 769.18 883.5 760.213 899.072C752.894 911.782 743.701 922.623 732.584 933.148C728.055 937.435 729.616 945.023 735.73 946.254C751.048 949.337 766.954 949.491 781.6 947.026C805.967 942.924 824.557 932.068 832.451 918.168C832.75 917.642 832.971 917.074 833.125 916.488C836.953 901.901 837.164 890.58 835.238 881.59C833.251 872.32 828.856 864.872 822.651 858.421C814.289 849.728 803.019 843.102 790.178 836.768ZM717.127 797.02C705.625 793.249 697.269 794.016 688.804 798.335C681.893 801.861 674.497 807.973 665.422 817.328C664.415 818.367 663.715 819.674 663.411 821.089C656.707 852.363 659.394 876.572 667.284 894.887C673.858 910.145 684.294 921.899 697.008 930.499C699.781 932.374 703.448 932.082 706.018 929.938C722.648 916.074 734.382 903.851 742.881 889.092C751.814 873.579 757.574 854.543 760.765 826.598C761.094 823.721 759.797 820.894 757.409 819.256C740.402 807.585 727.619 800.46 717.127 797.02ZM789.855 804.965C787.615 809.036 789.306 814.14 793.504 816.133C809.215 823.594 825.289 832.314 837.065 844.556C845.494 853.32 851.925 864.015 854.793 877.397C855.301 879.768 855.693 882.201 855.965 884.7C856.677 891.228 864.027 895.608 869.594 892.124L999.504 810.836C1001.84 809.373 1003.26 806.811 1003.26 804.054V731.406C1003.26 727.469 1000.4 724.118 996.508 723.504L853.183 700.874C849.854 700.348 846.552 701.965 844.927 704.918L789.855 804.965ZM1242.13 560.211C1223.89 555.172 1209.57 555.326 1196.81 558.777C1183.87 562.281 1171.78 569.384 1158.26 579.525L1157.9 579.798C1156.94 580.515 1155.83 581.009 1154.66 581.243L1154.22 581.332C1103.08 591.538 1078.02 608.151 1061.93 629.758C1053.67 640.844 1047.45 653.689 1041.45 668.744C1035.56 683.521 1030.6 698.442 1023.78 716.485C1023.44 717.393 1023.26 718.358 1023.26 719.329V801.797C1023.26 805.077 1025.26 808.025 1028.31 809.234L1084.22 831.394C1087.96 832.877 1092.22 831.35 1094.17 827.829L1149.96 726.963C1152.08 723.141 1156.87 721.721 1160.72 723.773L1281.74 788.195C1284.94 789.899 1288.89 789.237 1291.36 786.581L1401.56 668.094C1404.76 664.655 1404.32 659.207 1400.6 656.34C1325.05 598.123 1277.04 569.858 1242.13 560.211ZM383.287 223.186C381.136 220.947 377.855 220.22 374.94 221.29C335.303 235.831 306.618 249.613 282.298 266.522C265.046 278.518 249.782 292.231 234.278 309.226C229.65 314.298 233.416 322.305 240.282 322.371C254.342 322.506 265.677 323.225 274.48 324.815C282.413 326.248 289.607 328.593 294.959 332.915C300.892 337.705 303.65 344.165 303.759 351.374L303.761 351.513C303.767 351.895 303.745 352.275 303.697 352.653L303.679 352.793C303.004 358.071 300.486 362.428 296.567 365.572C292.982 368.447 288.698 369.934 284.825 370.829C277.327 372.561 267.378 372.847 258.072 373.343C247.092 373.927 235.485 374.835 224.239 377.739C223.131 378.025 223.29 379.62 224.425 379.767C234.183 381.037 245.892 384.458 254.17 394.674C261.691 403.955 264.967 417.086 263.719 434.618C263.6 436.3 263.952 437.999 264.915 439.384C265.875 440.765 267.143 442.436 268.783 444.416C272.447 448.838 277.422 454.159 283.596 460.308C295.936 472.599 312.565 487.699 331.937 504.757C366.129 534.865 409.098 571.261 450.504 607.859C454.116 611.052 459.703 610.353 462.526 606.446C475.188 588.927 486.492 577.202 498.002 569.938C510.432 562.094 522.436 559.855 535.022 560.125C537.757 560.184 540.432 559.002 541.802 556.633C547.41 546.941 550.526 533.201 551.998 514.136C553.873 489.845 552.969 459.925 553.26 423.025V358.219C553.26 354.436 550.596 351.178 546.91 350.33C495.771 338.573 466.838 319.477 444.193 296.036C432.16 283.581 421.971 269.954 411.507 256.501C402.955 245.507 394.034 234.372 383.287 223.186Z" fill="white" fill-opacity="0.3" stroke="black" stroke-width="4"/>
<g id="&#227;&#131;&#143;&#227;&#130;&#166;&#227;&#130;&#185;">
<path id="plot_30" d="M149.265 44.6725L283.525 183.93C285.825 186.316 285.755 190.114 283.37 192.414L167.496 304.13C165.11 306.43 161.312 306.36 159.012 303.975L24.7519 164.717C22.452 162.331 22.5214 158.533 24.907 156.233L140.781 44.5175C143.167 42.2176 146.965 42.287 149.265 44.6725Z" fill="white" fill-opacity="0.3" stroke="black" stroke-width="4"/>
<path id="plot_7" d="M1259.2 1522.48L1065.76 1522.48C1062.45 1522.48 1059.76 1519.8 1059.76 1516.48L1059.76 1355.53C1059.76 1352.21 1062.45 1349.53 1065.76 1349.53L1259.2 1349.53C1262.51 1349.53 1265.2 1352.21 1265.2 1355.53L1265.2 1516.48C1265.2 1519.8 1262.51 1522.48 1259.2 1522.48Z" fill="white" fill-opacity="0.3" stroke="black" stroke-width="4"/>
<path id="plot_16" d="M1556.56 759.223L1416.92 625.36C1414.53 623.067 1414.45 619.269 1416.74 616.877L1528.12 500.685C1530.42 498.293 1534.22 498.212 1536.61 500.506L1676.25 634.368C1678.64 636.661 1678.72 640.459 1676.43 642.851L1565.04 759.043C1562.75 761.435 1558.95 761.516 1556.56 759.223Z" fill="white" fill-opacity="0.3" stroke="black" stroke-width="4"/>
<path id="plot_1" d="M669.767 1340.13L706.144 1204.77C707.004 1201.57 710.296 1199.67 713.496 1200.53L829.197 1231.63C832.397 1232.49 834.294 1235.78 833.434 1238.98L797.057 1374.34C796.197 1377.54 792.905 1379.43 789.705 1378.57L674.004 1347.48C670.804 1346.62 668.907 1343.33 669.767 1340.13Z" fill="white" fill-opacity="0.3" stroke="black" stroke-width="4"/>
<path id="plot_24" d="M313.14 533.505L414.308 630.508C416.7 632.802 416.78 636.6 414.487 638.992L331.57 725.469C329.276 727.861 325.478 727.941 323.086 725.648L221.918 628.645C219.526 626.352 219.446 622.553 221.739 620.162L304.656 533.684C306.95 531.292 310.748 531.212 313.14 533.505Z" fill="white" fill-opacity="0.3" stroke="black" stroke-width="4"/>
<path id="plot_8" d="M1347.76 1374.27L1445.35 1273.66C1447.65 1271.28 1451.45 1271.22 1453.83 1273.53L1539.83 1356.94C1542.21 1359.25 1542.27 1363.05 1539.96 1365.43L1442.38 1466.04C1440.07 1468.42 1436.27 1468.47 1433.9 1466.17L1347.89 1382.76C1345.52 1380.45 1345.46 1376.65 1347.76 1374.27Z" fill="white" fill-opacity="0.3" stroke="black" stroke-width="4"/>
<path id="plot_13" d="M1221.27 581.556L1338.87 657.816C1341.65 659.619 1342.44 663.334 1340.64 666.115L1275.46 766.635C1273.65 769.415 1269.94 770.208 1267.16 768.405L1149.56 692.145C1146.78 690.342 1145.99 686.626 1147.79 683.846L1212.98 583.326C1214.78 580.545 1218.49 579.753 1221.27 581.556Z" fill="white" fill-opacity="0.3" stroke="black" stroke-width="4"/>
<path id="plot_28" d="M492.759 143.525L632.919 143.525C636.232 143.525 638.919 146.211 638.919 149.525V269.332C638.918 272.645 636.232 275.332 632.919 275.332H492.759C489.446 275.332 486.759 272.645 486.759 269.332V149.525C486.759 146.211 489.446 143.525 492.759 143.525Z" fill="white" fill-opacity="0.3" stroke="black" stroke-width="4"/>
<path id="plot_19" d="M176.721 993.285L273.289 891.701C275.572 889.3 279.369 889.204 281.771 891.487L368.604 974.032C371.005 976.315 371.102 980.113 368.819 982.514L272.251 1084.1C269.968 1086.5 266.17 1086.6 263.768 1084.31L176.935 1001.77C174.534 999.484 174.438 995.687 176.721 993.285Z" fill="white" fill-opacity="0.3" stroke="black" stroke-width="4"/>
<path id="plot_15" d="M1441.89 905.247L1542.37 807.536C1544.75 805.226 1548.55 805.279 1550.86 807.655L1634.38 893.548C1636.69 895.924 1636.64 899.723 1634.26 902.033L1533.78 999.744C1531.4 1002.05 1527.6 1002 1525.29 999.625L1441.77 913.731C1439.46 911.356 1439.51 907.557 1441.89 905.247Z" fill="white" fill-opacity="0.3" stroke="black" stroke-width="4"/>
<path id="plot_12" d="M1123.34 867.318L1167.34 786.508C1168.93 783.597 1172.57 782.523 1175.48 784.107L1259.13 829.656C1262.05 831.241 1263.12 834.885 1261.54 837.795L1217.53 918.605C1215.95 921.516 1212.31 922.59 1209.4 921.006L1125.74 875.456C1122.83 873.872 1121.76 870.228 1123.34 867.318Z" fill="white" fill-opacity="0.3" stroke="black" stroke-width="4"/>
<path id="plot_27" d="M580.759 552.538L580.759 460.525C580.759 457.211 583.446 454.525 586.759 454.525L682.01 454.525C685.324 454.525 688.01 457.211 688.01 460.525L688.01 552.538C688.01 555.852 685.324 558.538 682.01 558.538L586.759 558.538C583.446 558.538 580.759 555.852 580.759 552.538Z" fill="white" fill-opacity="0.3" stroke="black" stroke-width="4"/>
<path id="plot_26" d="M451.16 562.521L385.847 497.71C383.495 495.376 383.48 491.577 385.814 489.225L452.906 421.613C455.24 419.26 459.039 419.246 461.391 421.58L526.705 486.391C529.057 488.725 529.072 492.524 526.737 494.876L459.645 562.488C457.311 564.841 453.512 564.855 451.16 562.521Z" fill="white" fill-opacity="0.3" stroke="black" stroke-width="4"/>
<path id="plot_23" d="M129.946 522.695L196.8 459.475C199.208 457.198 203.006 457.304 205.282 459.712L270.728 528.919C273.005 531.327 272.899 535.124 270.491 537.401L203.637 600.622C201.229 602.898 197.431 602.792 195.155 600.385L129.709 531.177C127.432 528.77 127.538 524.972 129.946 522.695Z" fill="white" fill-opacity="0.3" stroke="black" stroke-width="4"/>
<path id="plot_22" d="M81.1032 758.311L73.4203 666.619C73.1437 663.317 75.5963 660.416 78.8984 660.139L173.817 652.186C177.119 651.909 180.02 654.362 180.297 657.664L187.98 749.356C188.256 752.658 185.804 755.559 182.502 755.836L87.5833 763.789C84.2811 764.066 81.3799 761.613 81.1032 758.311Z" fill="white" fill-opacity="0.3" stroke="black" stroke-width="4"/>
<path id="plot_20" d="M335.287 804.846L407.669 748.038C410.276 745.992 414.048 746.446 416.094 749.053L474.901 823.983C476.947 826.59 476.492 830.361 473.886 832.407L401.503 889.215C398.897 891.261 395.125 890.806 393.079 888.2L334.272 813.27C332.226 810.663 332.681 806.892 335.287 804.846Z" fill="white" fill-opacity="0.3" stroke="black" stroke-width="4"/>
<path id="plot_25" d="M463.339 692.615L521.12 621.007C523.201 618.428 526.978 618.024 529.557 620.105L603.686 679.919C606.265 682 606.668 685.778 604.587 688.357L546.807 759.965C544.726 762.544 540.948 762.947 538.37 760.867L464.241 701.052C461.662 698.972 461.259 695.194 463.339 692.615Z" fill="white" fill-opacity="0.3" stroke="black" stroke-width="4"/>
<path id="plot_10" d="M1454.93 1163.28L1399.2 1090.06C1397.19 1087.43 1397.7 1083.66 1400.34 1081.65L1476.13 1023.96C1478.76 1021.96 1482.53 1022.47 1484.54 1025.1L1540.27 1098.32C1542.27 1100.95 1541.76 1104.72 1539.13 1106.73L1463.34 1164.42C1460.7 1166.42 1456.93 1165.91 1454.93 1163.28Z" fill="white" fill-opacity="0.3" stroke="black" stroke-width="4"/>
<path id="plot_14" d="M1350.73 771.178L1414.34 704.689C1416.63 702.294 1420.43 702.21 1422.82 704.5L1491.65 770.343C1494.05 772.634 1494.13 776.432 1491.84 778.827L1428.23 845.316C1425.94 847.71 1422.15 847.794 1419.75 845.504L1350.92 779.661C1348.53 777.37 1348.44 773.572 1350.73 771.178Z" fill="white" fill-opacity="0.3" stroke="black" stroke-width="4"/>
<path id="plot_9" d="M1328.72 1277.1L1275.98 1201.7C1274.08 1198.98 1274.75 1195.24 1277.46 1193.34L1355.51 1138.75C1358.23 1136.85 1361.97 1137.51 1363.87 1140.23L1416.61 1215.63C1418.51 1218.34 1417.85 1222.08 1415.13 1223.98L1337.08 1278.58C1334.36 1280.48 1330.62 1279.81 1328.72 1277.1Z" fill="white" fill-opacity="0.3" stroke="black" stroke-width="4"/>
<path id="plot_5" d="M1119.65 1122.96L1039.7 1077.42C1036.82 1075.78 1035.82 1072.11 1037.46 1069.23L1084.6 986.467C1086.24 983.587 1089.9 982.582 1092.78 984.222L1172.73 1029.76C1175.61 1031.4 1176.62 1035.07 1174.98 1037.94L1127.84 1120.71C1126.2 1123.59 1122.53 1124.6 1119.65 1122.96Z" fill="white" fill-opacity="0.3" stroke="black" stroke-width="4"/>
<path id="plot_11" d="M1323.1 1048.25L1270.01 973.092C1268.1 970.385 1268.74 966.641 1271.45 964.729L1349.25 909.774C1351.95 907.863 1355.7 908.507 1357.61 911.213L1410.7 986.367C1412.61 989.074 1411.96 992.818 1409.26 994.73L1331.46 1049.68C1328.75 1051.6 1325.01 1050.95 1323.1 1048.25Z" fill="white" fill-opacity="0.3" stroke="black" stroke-width="4"/>
<path id="plot_6" d="M1071.76 1276.54L1071.76 1184.53C1071.76 1181.21 1074.45 1178.53 1077.76 1178.53L1173.01 1178.53C1176.32 1178.53 1179.01 1181.21 1179.01 1184.53L1179.01 1276.54C1179.01 1279.85 1176.32 1282.54 1173.01 1282.54L1077.76 1282.54C1074.45 1282.54 1071.76 1279.85 1071.76 1276.54Z" fill="white" fill-opacity="0.3" stroke="black" stroke-width="4"/>
<path id="plot_4" d="M886.229 1151.15L928.736 1069.54C930.267 1066.61 933.89 1065.46 936.829 1066.99L1021.31 1111C1024.25 1112.53 1025.39 1116.15 1023.86 1119.09L981.349 1200.7C979.818 1203.64 976.195 1204.78 973.256 1203.25L888.778 1159.24C885.839 1157.71 884.698 1154.09 886.229 1151.15Z" fill="white" fill-opacity="0.3" stroke="black" stroke-width="4"/>
<path id="plot_2" d="M815.001 1187.21L726.995 1160.35C723.825 1159.39 722.04 1156.03 723.007 1152.86L750.809 1061.76C751.776 1058.59 755.129 1056.81 758.299 1057.77L846.305 1084.63C849.474 1085.6 851.259 1088.95 850.292 1092.12L822.491 1183.22C821.524 1186.39 818.17 1188.18 815.001 1187.21Z" fill="white" fill-opacity="0.3" stroke="black" stroke-width="4"/>
<path id="plot_3" d="M864.858 1367.6L902.519 1283.64C903.875 1280.62 907.426 1279.27 910.449 1280.62L997.356 1319.61C1000.38 1320.97 1001.73 1324.52 1000.37 1327.54L962.714 1411.49C961.358 1414.52 957.808 1415.87 954.784 1414.51L867.877 1375.53C864.854 1374.17 863.502 1370.62 864.858 1367.6Z" fill="white" fill-opacity="0.3" stroke="black" stroke-width="4"/>
<path id="plot_17" d="M342.074 1105.68L396.075 1031.18C398.02 1028.49 401.771 1027.89 404.454 1029.84L481.576 1085.74C484.259 1087.69 484.857 1091.44 482.913 1094.12L428.911 1168.62C426.966 1171.3 423.215 1171.9 420.532 1169.96L343.41 1114.06C340.727 1112.11 340.129 1108.36 342.074 1105.68Z" fill="white" fill-opacity="0.3" stroke="black" stroke-width="4"/>
<path id="plot_21" d="M91.5549 910.767L82.534 819.198C82.2092 815.9 84.6191 812.963 87.9169 812.638L182.709 803.3C186.007 802.975 188.943 805.385 189.268 808.683L198.289 900.252C198.614 903.55 196.204 906.487 192.906 906.811L98.1143 916.15C94.8165 916.475 91.8798 914.065 91.5549 910.767Z" fill="white" fill-opacity="0.3" stroke="black" stroke-width="4"/>
<path id="plot_18" d="M507.799 1014.71L433.404 960.566C430.725 958.616 430.134 954.863 432.084 952.184L488.135 875.17C490.085 872.491 493.838 871.9 496.517 873.85L570.912 927.995C573.591 929.945 574.182 933.698 572.232 936.377L516.181 1013.39C514.231 1016.07 510.479 1016.66 507.799 1014.71Z" fill="white" fill-opacity="0.3" stroke="black" stroke-width="4"/>
<path id="plot_29" d="M342.826 392.934L296.514 313.426C294.846 310.563 295.815 306.889 298.679 305.221L380.985 257.28C383.849 255.612 387.522 256.581 389.19 259.445L435.501 338.953C437.169 341.816 436.2 345.49 433.337 347.157L351.03 395.099C348.167 396.767 344.494 395.798 342.826 392.934Z" fill="white" fill-opacity="0.3" stroke="black" stroke-width="4"/>
<path id="apart_1" d="M831.759 438.525H921.759C925.073 438.525 927.759 441.211 927.759 444.525V660.525C927.759 663.839 925.073 666.525 921.759 666.525H831.759C828.446 666.525 825.759 663.839 825.759 660.525V444.525L825.767 444.217C825.928 441.046 828.549 438.525 831.759 438.525Z" fill="white" fill-opacity="0.3" stroke="black" stroke-width="4"/>
</g>
<g id="&#227;&#130;&#168;&#227;&#131;&#188;&#227;&#131;&#134;&#227;&#131;&#169;&#227;&#130;&#164;&#227;&#131;&#136;">
<g id="&#232;&#140;&#156;&#233;&#155;&#178;&#230;&#161;&#159;&#230;&#169;&#139;">
<g id="Group 5">
<path id="Polygon 22" d="M446.23 1378.6L434.318 1380.81L431.376 1385.77L439.619 1389.76H452.841L461.084 1385.77L458.142 1380.81L446.23 1378.6Z" fill="#F0FEFF" fill-opacity="0.4"/>
<path id="Polygon 23" d="M446.259 1374.6L434.141 1376.85L431.148 1381.89L439.534 1385.93H452.984L461.371 1381.89L458.378 1376.85L446.259 1374.6Z" fill="#F0FEFF" fill-opacity="0.4"/>
</g>
<g id="Group 2">
<g id="Polygon 1">
<path d="M445.734 1317.53L441.336 1341.52H450.132L445.734 1317.53Z" fill="#D9D9D9" fill-opacity="0.3"/>
<path d="M441.936 1341.02H449.533L445.735 1320.3L441.936 1341.02Z" stroke="#00BFFF" stroke-opacity="0.4"/>
</g>
<g id="Polygon 11">
<path d="M443.033 1381.52L447.432 1355.76L438.635 1355.76L443.033 1381.52Z" fill="#D9D9D9" fill-opacity="0.3"/>
<path d="M446.84 1356.26L439.227 1356.26L443.033 1378.55L446.84 1356.26Z" stroke="#00BFFF" stroke-opacity="0.4"/>
</g>
<g id="Polygon 2">
<path d="M443.943 1324.26L437.664 1349.63L446.437 1350.28L443.943 1324.26Z" fill="#D9D9D9" fill-opacity="0.3"/>
<path d="M438.291 1349.18L445.883 1349.74L443.725 1327.23L438.291 1349.18Z" stroke="#00BFFF" stroke-opacity="0.4"/>
</g>
<g id="Polygon 6">
<path d="M444.864 1319.89L437.053 1350.81L444.972 1351.78L444.864 1319.89Z" fill="#D9D9D9" fill-opacity="0.3"/>
<path d="M437.676 1350.38L444.469 1351.21L444.377 1323.85L437.676 1350.38Z" stroke="#00BFFF" stroke-opacity="0.4"/>
</g>
<g id="Polygon 13">
<path d="M447.026 1381.99L451.424 1356.23L442.628 1356.23L447.026 1381.99Z" fill="#D9D9D9" fill-opacity="0.3"/>
<path d="M450.832 1356.73L443.22 1356.73L447.025 1379.02L450.832 1356.73Z" stroke="#00BFFF" stroke-opacity="0.4"/>
</g>
<g id="Polygon 5">
<path d="M445.358 1318.95L439.855 1344.5L448.643 1344.88L445.358 1318.95Z" fill="#D9D9D9" fill-opacity="0.3"/>
<path d="M440.468 1344.02L448.073 1344.35L445.23 1321.92L440.468 1344.02Z" stroke="#00BFFF" stroke-opacity="0.4"/>
</g>
<g id="Polygon 14">
<path d="M450.687 1381.49L453.497 1348.66L448.46 1348.62L450.687 1381.49Z" fill="#D9D9D9" fill-opacity="0.3"/>
<path d="M452.953 1349.16L448.994 1349.12L450.745 1374.95L452.953 1349.16Z" stroke="#00BFFF" stroke-opacity="0.4"/>
</g>
<g id="Polygon 15">
<path d="M444.228 1379.59L455.239 1355.89L446.752 1353.58L444.228 1379.59Z" fill="#D9D9D9" fill-opacity="0.3"/>
<path d="M454.537 1356.22L447.192 1354.22L445.007 1376.73L454.537 1356.22Z" stroke="#00BFFF" stroke-opacity="0.4"/>
</g>
<g id="Polygon 3">
<path d="M447.398 1322.99L443.588 1348.84L452.382 1348.64L447.398 1322.99Z" fill="#D9D9D9" fill-opacity="0.3"/>
<path d="M444.168 1348.33L451.779 1348.16L447.466 1325.96L444.168 1348.33Z" stroke="#00BFFF" stroke-opacity="0.4"/>
</g>
<g id="Polygon 16">
<path d="M444.743 1379.17L446.65 1357.78L439.695 1358.3L444.743 1379.17Z" fill="#D9D9D9" fill-opacity="0.3"/>
<path d="M446.099 1358.32L440.32 1358.75L444.515 1376.1L446.099 1358.32Z" stroke="#00BFFF" stroke-opacity="0.4"/>
</g>
<g id="Polygon 7">
<path d="M450.197 1364.72L454.315 1338.92L445.519 1339.01L450.197 1364.72Z" fill="#D9D9D9" fill-opacity="0.3"/>
<path d="M453.728 1339.42L446.116 1339.51L450.164 1361.76L453.728 1339.42Z" stroke="#00BFFF" stroke-opacity="0.4"/>
</g>
<g id="Polygon 21">
<path d="M449.832 1362.38L453.958 1336.31L445.14 1336.4L449.832 1362.38Z" fill="#D9D9D9" fill-opacity="0.3"/>
<path d="M453.371 1336.81L445.737 1336.89L449.799 1359.38L453.371 1336.81Z" stroke="#00BFFF" stroke-opacity="0.4"/>
</g>
<g id="Polygon 17">
<path d="M441.918 1379.47L446.316 1353.71L437.52 1353.71L441.918 1379.47Z" fill="#D9D9D9" fill-opacity="0.3"/>
<path d="M445.724 1354.21L438.112 1354.21L441.917 1376.5L445.724 1354.21Z" stroke="#00BFFF" stroke-opacity="0.4"/>
</g>
<g id="Polygon 10">
<path d="M444.56 1329.5L440.162 1355.26H448.958L444.56 1329.5Z" fill="#D9D9D9" fill-opacity="0.3"/>
<path d="M440.754 1354.76H448.366L444.56 1332.47L440.754 1354.76Z" stroke="#00BFFF" stroke-opacity="0.4"/>
</g>
<g id="Polygon 18">
<path d="M445.206 1375.18L449.604 1349.42L440.808 1349.42L445.206 1375.18Z" fill="#D9D9D9" fill-opacity="0.3"/>
<path d="M449.012 1349.92L441.4 1349.92L445.205 1372.21L449.012 1349.92Z" stroke="#00BFFF" stroke-opacity="0.4"/>
</g>
<g id="Polygon 9">
<path d="M441.509 1328.57L436.475 1354.21L445.268 1354.43L441.509 1328.57Z" fill="#D9D9D9" fill-opacity="0.3"/>
<path d="M437.079 1353.73L444.689 1353.92L441.436 1331.54L437.079 1353.73Z" stroke="#00BFFF" stroke-opacity="0.4"/>
</g>
<g id="Polygon 19">
<path d="M447.111 1387.18L445.721 1359.04L437.111 1360.84L447.111 1387.18Z" fill="#D9D9D9" fill-opacity="0.3"/>
<path d="M445.251 1359.65L437.786 1361.21L446.456 1384.04L445.251 1359.65Z" stroke="#00BFFF" stroke-opacity="0.4"/>
</g>
<g id="Polygon 4">
<path d="M448.132 1326.52L446.145 1352.58L454.903 1351.76L448.132 1326.52Z" fill="#D9D9D9" fill-opacity="0.3"/>
<path d="M446.688 1352.03L454.267 1351.32L448.408 1329.48L446.688 1352.03Z" stroke="#00BFFF" stroke-opacity="0.4"/>
</g>
<g id="Polygon 20">
<path d="M441.924 1379.2L445.082 1353.26L436.296 1353.68L441.924 1379.2Z" fill="#D9D9D9" fill-opacity="0.3"/>
<path d="M444.515 1353.79L436.911 1354.15L441.781 1376.24L444.515 1353.79Z" stroke="#00BFFF" stroke-opacity="0.4"/>
</g>
<g id="Polygon 8">
<path d="M444.619 1326.39L440.22 1352.15H449.017L444.619 1326.39Z" fill="#D9D9D9" fill-opacity="0.3"/>
<path d="M440.812 1351.65H448.425L444.619 1329.36L440.812 1351.65Z" stroke="#00BFFF" stroke-opacity="0.4"/>
</g>
<g id="Polygon 12">
<path d="M449.611 1376.1L455.856 1350.73L447.082 1350.09L449.611 1376.1Z" fill="#D9D9D9" fill-opacity="0.3"/>
<path d="M455.229 1351.18L447.637 1350.63L449.825 1373.14L455.229 1351.18Z" stroke="#00BFFF" stroke-opacity="0.4"/>
</g>
</g>
</g>
<g id="&#227;&#130;&#183;&#227;&#131;&#173;&#227;&#130;&#172;&#227;&#131;&#141;&#229;&#141;&#151;">
<g id="Group 5_2">
<path id="Polygon 22_2" d="M892.23 1231.6L880.318 1233.81L877.376 1238.77L885.619 1242.76H898.84L907.084 1238.77L904.142 1233.81L892.23 1231.6Z" fill="#F0FEFF" fill-opacity="0.4"/>
<path id="Polygon 23_2" d="M892.259 1227.6L880.141 1229.85L877.148 1234.89L885.534 1238.93H898.984L907.371 1234.89L904.378 1229.85L892.259 1227.6Z" fill="#F0FEFF" fill-opacity="0.4"/>
</g>
<g id="Group 2_2">
<g id="Polygon 1_2">
<path d="M891.734 1170.53L887.336 1194.52H896.132L891.734 1170.53Z" fill="#D9D9D9" fill-opacity="0.3"/>
<path d="M887.936 1194.02H895.533L891.735 1173.3L887.936 1194.02Z" stroke="#00BFFF" stroke-opacity="0.4"/>
</g>
<g id="Polygon 11_2">
<path d="M889.033 1234.52L893.432 1208.76L884.635 1208.76L889.033 1234.52Z" fill="#D9D9D9" fill-opacity="0.3"/>
<path d="M892.84 1209.26L885.227 1209.26L889.033 1231.55L892.84 1209.26Z" stroke="#00BFFF" stroke-opacity="0.4"/>
</g>
<g id="Polygon 2_2">
<path d="M889.943 1177.26L883.664 1202.63L892.437 1203.28L889.943 1177.26Z" fill="#D9D9D9" fill-opacity="0.3"/>
<path d="M884.291 1202.18L891.883 1202.74L889.725 1180.23L884.291 1202.18Z" stroke="#00BFFF" stroke-opacity="0.4"/>
</g>
<g id="Polygon 6_2">
<path d="M890.864 1172.89L883.053 1203.81L890.972 1204.78L890.864 1172.89Z" fill="#D9D9D9" fill-opacity="0.3"/>
<path d="M883.676 1203.38L890.469 1204.21L890.377 1176.85L883.676 1203.38Z" stroke="#00BFFF" stroke-opacity="0.4"/>
</g>
<g id="Polygon 13_2">
<path d="M893.026 1234.99L897.424 1209.23L888.628 1209.23L893.026 1234.99Z" fill="#D9D9D9" fill-opacity="0.3"/>
<path d="M896.832 1209.73L889.22 1209.73L893.025 1232.02L896.832 1209.73Z" stroke="#00BFFF" stroke-opacity="0.4"/>
</g>
<g id="Polygon 5_2">
<path d="M891.358 1171.95L885.855 1197.5L894.643 1197.88L891.358 1171.95Z" fill="#D9D9D9" fill-opacity="0.3"/>
<path d="M886.468 1197.02L894.073 1197.35L891.23 1174.92L886.468 1197.02Z" stroke="#00BFFF" stroke-opacity="0.4"/>
</g>
<g id="Polygon 14_2">
<path d="M896.687 1234.49L899.497 1201.66L894.46 1201.62L896.687 1234.49Z" fill="#D9D9D9" fill-opacity="0.3"/>
<path d="M898.953 1202.16L894.994 1202.12L896.745 1227.95L898.953 1202.16Z" stroke="#00BFFF" stroke-opacity="0.4"/>
</g>
<g id="Polygon 15_2">
<path d="M890.228 1232.59L901.239 1208.89L892.752 1206.58L890.228 1232.59Z" fill="#D9D9D9" fill-opacity="0.3"/>
<path d="M900.537 1209.22L893.192 1207.22L891.007 1229.73L900.537 1209.22Z" stroke="#00BFFF" stroke-opacity="0.4"/>
</g>
<g id="Polygon 3_2">
<path d="M893.398 1175.99L889.588 1201.84L898.382 1201.64L893.398 1175.99Z" fill="#D9D9D9" fill-opacity="0.3"/>
<path d="M890.168 1201.33L897.779 1201.16L893.466 1178.96L890.168 1201.33Z" stroke="#00BFFF" stroke-opacity="0.4"/>
</g>
<g id="Polygon 16_2">
<path d="M890.743 1232.17L892.65 1210.78L885.695 1211.3L890.743 1232.17Z" fill="#D9D9D9" fill-opacity="0.3"/>
<path d="M892.099 1211.32L886.32 1211.75L890.515 1229.1L892.099 1211.32Z" stroke="#00BFFF" stroke-opacity="0.4"/>
</g>
<g id="Polygon 7_2">
<path d="M896.197 1217.72L900.315 1191.92L891.519 1192.01L896.197 1217.72Z" fill="#D9D9D9" fill-opacity="0.3"/>
<path d="M899.728 1192.42L892.116 1192.51L896.164 1214.76L899.728 1192.42Z" stroke="#00BFFF" stroke-opacity="0.4"/>
</g>
<g id="Polygon 21_2">
<path d="M895.832 1215.38L899.958 1189.31L891.14 1189.4L895.832 1215.38Z" fill="#D9D9D9" fill-opacity="0.3"/>
<path d="M899.371 1189.81L891.737 1189.89L895.799 1212.38L899.371 1189.81Z" stroke="#00BFFF" stroke-opacity="0.4"/>
</g>
<g id="Polygon 17_2">
<path d="M887.918 1232.47L892.316 1206.71L883.52 1206.71L887.918 1232.47Z" fill="#D9D9D9" fill-opacity="0.3"/>
<path d="M891.724 1207.21L884.112 1207.21L887.917 1229.5L891.724 1207.21Z" stroke="#00BFFF" stroke-opacity="0.4"/>
</g>
<g id="Polygon 10_2">
<path d="M890.56 1182.5L886.162 1208.26H894.958L890.56 1182.5Z" fill="#D9D9D9" fill-opacity="0.3"/>
<path d="M886.754 1207.76H894.366L890.56 1185.47L886.754 1207.76Z" stroke="#00BFFF" stroke-opacity="0.4"/>
</g>
<g id="Polygon 18_2">
<path d="M891.206 1228.18L895.604 1202.42L886.808 1202.42L891.206 1228.18Z" fill="#D9D9D9" fill-opacity="0.3"/>
<path d="M895.012 1202.92L887.4 1202.92L891.205 1225.21L895.012 1202.92Z" stroke="#00BFFF" stroke-opacity="0.4"/>
</g>
<g id="Polygon 9_2">
<path d="M887.508 1181.57L882.475 1207.21L891.268 1207.43L887.508 1181.57Z" fill="#D9D9D9" fill-opacity="0.3"/>
<path d="M883.079 1206.73L890.689 1206.92L887.436 1184.54L883.079 1206.73Z" stroke="#00BFFF" stroke-opacity="0.4"/>
</g>
<g id="Polygon 19_2">
<path d="M893.111 1240.18L891.721 1212.04L883.111 1213.84L893.111 1240.18Z" fill="#D9D9D9" fill-opacity="0.3"/>
<path d="M891.251 1212.65L883.786 1214.21L892.456 1237.04L891.251 1212.65Z" stroke="#00BFFF" stroke-opacity="0.4"/>
</g>
<g id="Polygon 4_2">
<path d="M894.132 1179.52L892.145 1205.58L900.903 1204.76L894.132 1179.52Z" fill="#D9D9D9" fill-opacity="0.3"/>
<path d="M892.688 1205.03L900.267 1204.32L894.408 1182.48L892.688 1205.03Z" stroke="#00BFFF" stroke-opacity="0.4"/>
</g>
<g id="Polygon 20_2">
<path d="M887.924 1232.2L891.082 1206.26L882.296 1206.68L887.924 1232.2Z" fill="#D9D9D9" fill-opacity="0.3"/>
<path d="M890.515 1206.79L882.911 1207.15L887.781 1229.24L890.515 1206.79Z" stroke="#00BFFF" stroke-opacity="0.4"/>
</g>
<g id="Polygon 8_2">
<path d="M890.619 1179.39L886.22 1205.15H895.017L890.619 1179.39Z" fill="#D9D9D9" fill-opacity="0.3"/>
<path d="M886.812 1204.65H894.425L890.619 1182.36L886.812 1204.65Z" stroke="#00BFFF" stroke-opacity="0.4"/>
</g>
<g id="Polygon 12_2">
<path d="M895.611 1229.1L901.856 1203.73L893.082 1203.09L895.611 1229.1Z" fill="#D9D9D9" fill-opacity="0.3"/>
<path d="M901.229 1204.18L893.637 1203.63L895.825 1226.14L901.229 1204.18Z" stroke="#00BFFF" stroke-opacity="0.4"/>
</g>
</g>
</g>
<g id="&#227;&#130;&#183;&#227;&#131;&#173;&#227;&#130;&#172;&#227;&#131;&#141;&#229;&#141;&#151;&#230;&#157;&#177;">
<g id="Group 5_3">
<path id="Polygon 22_3" d="M1228.23 1288.6L1216.32 1290.81L1213.38 1295.77L1221.62 1299.76H1234.84L1243.08 1295.77L1240.14 1290.81L1228.23 1288.6Z" fill="#F0FEFF" fill-opacity="0.4"/>
<path id="Polygon 23_3" d="M1228.26 1284.6L1216.14 1286.85L1213.15 1291.89L1221.53 1295.93H1234.98L1243.37 1291.89L1240.38 1286.85L1228.26 1284.6Z" fill="#F0FEFF" fill-opacity="0.4"/>
</g>
<g id="Group 2_3">
<g id="Polygon 1_3">
<path d="M1227.73 1227.53L1223.34 1251.52H1232.13L1227.73 1227.53Z" fill="#D9D9D9" fill-opacity="0.3"/>
<path d="M1223.94 1251.02H1231.53L1227.73 1230.3L1223.94 1251.02Z" stroke="#00BFFF" stroke-opacity="0.4"/>
</g>
<g id="Polygon 11_3">
<path d="M1225.03 1291.52L1229.43 1265.76L1220.64 1265.76L1225.03 1291.52Z" fill="#D9D9D9" fill-opacity="0.3"/>
<path d="M1228.84 1266.26L1221.23 1266.26L1225.03 1288.55L1228.84 1266.26Z" stroke="#00BFFF" stroke-opacity="0.4"/>
</g>
<g id="Polygon 2_3">
<path d="M1225.94 1234.26L1219.66 1259.63L1228.44 1260.28L1225.94 1234.26Z" fill="#D9D9D9" fill-opacity="0.3"/>
<path d="M1220.29 1259.18L1227.88 1259.74L1225.72 1237.23L1220.29 1259.18Z" stroke="#00BFFF" stroke-opacity="0.4"/>
</g>
<g id="Polygon 6_3">
<path d="M1226.86 1229.89L1219.05 1260.81L1226.97 1261.78L1226.86 1229.89Z" fill="#D9D9D9" fill-opacity="0.3"/>
<path d="M1219.68 1260.38L1226.47 1261.21L1226.38 1233.85L1219.68 1260.38Z" stroke="#00BFFF" stroke-opacity="0.4"/>
</g>
<g id="Polygon 13_3">
<path d="M1229.03 1291.99L1233.42 1266.23L1224.63 1266.23L1229.03 1291.99Z" fill="#D9D9D9" fill-opacity="0.3"/>
<path d="M1232.83 1266.73L1225.22 1266.73L1229.03 1289.02L1232.83 1266.73Z" stroke="#00BFFF" stroke-opacity="0.4"/>
</g>
<g id="Polygon 5_3">
<path d="M1227.36 1228.95L1221.86 1254.5L1230.64 1254.88L1227.36 1228.95Z" fill="#D9D9D9" fill-opacity="0.3"/>
<path d="M1222.47 1254.02L1230.07 1254.35L1227.23 1231.92L1222.47 1254.02Z" stroke="#00BFFF" stroke-opacity="0.4"/>
</g>
<g id="Polygon 14_3">
<path d="M1232.69 1291.49L1235.5 1258.66L1230.46 1258.62L1232.69 1291.49Z" fill="#D9D9D9" fill-opacity="0.3"/>
<path d="M1234.95 1259.16L1230.99 1259.12L1232.74 1284.95L1234.95 1259.16Z" stroke="#00BFFF" stroke-opacity="0.4"/>
</g>
<g id="Polygon 15_3">
<path d="M1226.23 1289.59L1237.24 1265.89L1228.75 1263.58L1226.23 1289.59Z" fill="#D9D9D9" fill-opacity="0.3"/>
<path d="M1236.54 1266.22L1229.19 1264.22L1227.01 1286.73L1236.54 1266.22Z" stroke="#00BFFF" stroke-opacity="0.4"/>
</g>
<g id="Polygon 3_3">
<path d="M1229.4 1232.99L1225.59 1258.84L1234.38 1258.64L1229.4 1232.99Z" fill="#D9D9D9" fill-opacity="0.3"/>
<path d="M1226.17 1258.33L1233.78 1258.16L1229.47 1235.96L1226.17 1258.33Z" stroke="#00BFFF" stroke-opacity="0.4"/>
</g>
<g id="Polygon 16_3">
<path d="M1226.74 1289.17L1228.65 1267.78L1221.7 1268.3L1226.74 1289.17Z" fill="#D9D9D9" fill-opacity="0.3"/>
<path d="M1228.1 1268.32L1222.32 1268.75L1226.51 1286.1L1228.1 1268.32Z" stroke="#00BFFF" stroke-opacity="0.4"/>
</g>
<g id="Polygon 7_3">
<path d="M1232.2 1274.72L1236.31 1248.92L1227.52 1249.01L1232.2 1274.72Z" fill="#D9D9D9" fill-opacity="0.3"/>
<path d="M1235.73 1249.42L1228.12 1249.51L1232.16 1271.76L1235.73 1249.42Z" stroke="#00BFFF" stroke-opacity="0.4"/>
</g>
<g id="Polygon 21_3">
<path d="M1231.83 1272.38L1235.96 1246.31L1227.14 1246.4L1231.83 1272.38Z" fill="#D9D9D9" fill-opacity="0.3"/>
<path d="M1235.37 1246.81L1227.74 1246.89L1231.8 1269.38L1235.37 1246.81Z" stroke="#00BFFF" stroke-opacity="0.4"/>
</g>
<g id="Polygon 17_3">
<path d="M1223.92 1289.47L1228.32 1263.71L1219.52 1263.71L1223.92 1289.47Z" fill="#D9D9D9" fill-opacity="0.3"/>
<path d="M1227.72 1264.21L1220.11 1264.21L1223.92 1286.5L1227.72 1264.21Z" stroke="#00BFFF" stroke-opacity="0.4"/>
</g>
<g id="Polygon 10_3">
<path d="M1226.56 1239.5L1222.16 1265.26H1230.96L1226.56 1239.5Z" fill="#D9D9D9" fill-opacity="0.3"/>
<path d="M1222.75 1264.76H1230.37L1226.56 1242.47L1222.75 1264.76Z" stroke="#00BFFF" stroke-opacity="0.4"/>
</g>
<g id="Polygon 18_3">
<path d="M1227.21 1285.18L1231.6 1259.42L1222.81 1259.42L1227.21 1285.18Z" fill="#D9D9D9" fill-opacity="0.3"/>
<path d="M1231.01 1259.92L1223.4 1259.92L1227.21 1282.21L1231.01 1259.92Z" stroke="#00BFFF" stroke-opacity="0.4"/>
</g>
<g id="Polygon 9_3">
<path d="M1223.51 1238.57L1218.47 1264.21L1227.27 1264.43L1223.51 1238.57Z" fill="#D9D9D9" fill-opacity="0.3"/>
<path d="M1219.08 1263.73L1226.69 1263.92L1223.44 1241.54L1219.08 1263.73Z" stroke="#00BFFF" stroke-opacity="0.4"/>
</g>
<g id="Polygon 19_3">
<path d="M1229.11 1297.18L1227.72 1269.04L1219.11 1270.84L1229.11 1297.18Z" fill="#D9D9D9" fill-opacity="0.3"/>
<path d="M1227.25 1269.65L1219.79 1271.21L1228.46 1294.04L1227.25 1269.65Z" stroke="#00BFFF" stroke-opacity="0.4"/>
</g>
<g id="Polygon 4_3">
<path d="M1230.13 1236.52L1228.14 1262.58L1236.9 1261.76L1230.13 1236.52Z" fill="#D9D9D9" fill-opacity="0.3"/>
<path d="M1228.69 1262.03L1236.27 1261.32L1230.41 1239.48L1228.69 1262.03Z" stroke="#00BFFF" stroke-opacity="0.4"/>
</g>
<g id="Polygon 20_3">
<path d="M1223.92 1289.2L1227.08 1263.26L1218.3 1263.68L1223.92 1289.2Z" fill="#D9D9D9" fill-opacity="0.3"/>
<path d="M1226.51 1263.79L1218.91 1264.15L1223.78 1286.24L1226.51 1263.79Z" stroke="#00BFFF" stroke-opacity="0.4"/>
</g>
<g id="Polygon 8_3">
<path d="M1226.62 1236.39L1222.22 1262.15H1231.02L1226.62 1236.39Z" fill="#D9D9D9" fill-opacity="0.3"/>
<path d="M1222.81 1261.65H1230.42L1226.62 1239.36L1222.81 1261.65Z" stroke="#00BFFF" stroke-opacity="0.4"/>
</g>
<g id="Polygon 12_3">
<path d="M1231.61 1286.1L1237.86 1260.73L1229.08 1260.09L1231.61 1286.1Z" fill="#D9D9D9" fill-opacity="0.3"/>
<path d="M1237.23 1261.18L1229.64 1260.63L1231.82 1283.14L1237.23 1261.18Z" stroke="#00BFFF" stroke-opacity="0.4"/>
</g>
</g>
</g>
<g id="&#227;&#130;&#183;&#227;&#131;&#173;&#227;&#130;&#172;&#227;&#131;&#141;&#229;&#140;&#151;&#230;&#157;&#177;">
<g id="Group 5_4">
<path id="Polygon 22_4" d="M1392.23 892.596L1380.32 894.806L1377.38 899.773L1385.62 903.757H1398.84L1407.08 899.773L1404.14 894.806L1392.23 892.596Z" fill="#F0FEFF" fill-opacity="0.4"/>
<path id="Polygon 23_4" d="M1392.26 888.603L1380.14 890.847L1377.15 895.889L1385.53 899.932H1398.98L1407.37 895.889L1404.38 890.847L1392.26 888.603Z" fill="#F0FEFF" fill-opacity="0.4"/>
</g>
<g id="Group 2_4">
<g id="Polygon 1_4">
<path d="M1391.73 831.525L1387.34 855.524H1396.13L1391.73 831.525Z" fill="#D9D9D9" fill-opacity="0.3"/>
<path d="M1387.94 855.024H1395.53L1391.73 834.298L1387.94 855.024Z" stroke="#00BFFF" stroke-opacity="0.4"/>
</g>
<g id="Polygon 11_4">
<path d="M1389.03 895.521L1393.43 869.761L1384.64 869.761L1389.03 895.521Z" fill="#D9D9D9" fill-opacity="0.3"/>
<path d="M1392.84 870.262L1385.23 870.262L1389.03 892.553L1392.84 870.262Z" stroke="#00BFFF" stroke-opacity="0.4"/>
</g>
<g id="Polygon 2_4">
<path d="M1389.94 838.265L1383.66 863.632L1392.44 864.278L1389.94 838.265Z" fill="#D9D9D9" fill-opacity="0.3"/>
<path d="M1384.29 863.177L1391.88 863.736L1389.72 841.225L1384.29 863.177Z" stroke="#00BFFF" stroke-opacity="0.4"/>
</g>
<g id="Polygon 6_4">
<path d="M1390.86 833.887L1383.05 864.806L1390.97 865.777L1390.86 833.887Z" fill="#D9D9D9" fill-opacity="0.3"/>
<path d="M1383.68 864.379L1390.47 865.212L1390.38 837.855L1383.68 864.379Z" stroke="#00BFFF" stroke-opacity="0.4"/>
</g>
<g id="Polygon 13_4">
<path d="M1393.03 895.991L1397.42 870.231L1388.63 870.231L1393.03 895.991Z" fill="#D9D9D9" fill-opacity="0.3"/>
<path d="M1396.83 870.731L1389.22 870.731L1393.03 893.022L1396.83 870.731Z" stroke="#00BFFF" stroke-opacity="0.4"/>
</g>
<g id="Polygon 5_4">
<path d="M1391.36 832.95L1385.86 858.497L1394.64 858.875L1391.36 832.95Z" fill="#D9D9D9" fill-opacity="0.3"/>
<path d="M1386.47 858.023L1394.07 858.35L1391.23 835.916L1386.47 858.023Z" stroke="#00BFFF" stroke-opacity="0.4"/>
</g>
<g id="Polygon 14_4">
<path d="M1396.69 895.492L1399.5 862.662L1394.46 862.618L1396.69 895.492Z" fill="#D9D9D9" fill-opacity="0.3"/>
<path d="M1398.95 863.157L1394.99 863.122L1396.74 888.947L1398.95 863.157Z" stroke="#00BFFF" stroke-opacity="0.4"/>
</g>
<g id="Polygon 15_4">
<path d="M1390.23 893.594L1401.24 869.895L1392.75 867.584L1390.23 893.594Z" fill="#D9D9D9" fill-opacity="0.3"/>
<path d="M1400.54 870.222L1393.19 868.222L1391.01 890.73L1400.54 870.222Z" stroke="#00BFFF" stroke-opacity="0.4"/>
</g>
<g id="Polygon 3_4">
<path d="M1393.4 836.99L1389.59 862.843L1398.38 862.643L1393.4 836.99Z" fill="#D9D9D9" fill-opacity="0.3"/>
<path d="M1390.17 862.33L1397.78 862.156L1393.47 839.958L1390.17 862.33Z" stroke="#00BFFF" stroke-opacity="0.4"/>
</g>
<g id="Polygon 16_4">
<path d="M1390.74 893.175L1392.65 871.782L1385.7 872.299L1390.74 893.175Z" fill="#D9D9D9" fill-opacity="0.3"/>
<path d="M1392.1 872.324L1386.32 872.754L1390.51 890.105L1392.1 872.324Z" stroke="#00BFFF" stroke-opacity="0.4"/>
</g>
<g id="Polygon 7_4">
<path d="M1396.2 878.724L1400.31 852.918L1391.52 853.014L1396.2 878.724Z" fill="#D9D9D9" fill-opacity="0.3"/>
<path d="M1399.73 853.425L1392.12 853.507L1396.16 875.756L1399.73 853.425Z" stroke="#00BFFF" stroke-opacity="0.4"/>
</g>
<g id="Polygon 21_4">
<path d="M1395.83 876.376L1399.96 850.305L1391.14 850.401L1395.83 876.376Z" fill="#D9D9D9" fill-opacity="0.3"/>
<path d="M1399.37 850.811L1391.74 850.894L1395.8 873.382L1399.37 850.811Z" stroke="#00BFFF" stroke-opacity="0.4"/>
</g>
<g id="Polygon 17_4">
<path d="M1387.92 893.466L1392.32 867.706L1383.52 867.706L1387.92 893.466Z" fill="#D9D9D9" fill-opacity="0.3"/>
<path d="M1391.72 868.207L1384.11 868.207L1387.92 890.498L1391.72 868.207Z" stroke="#00BFFF" stroke-opacity="0.4"/>
</g>
<g id="Polygon 10_4">
<path d="M1390.56 843.502L1386.16 869.262H1394.96L1390.56 843.502Z" fill="#D9D9D9" fill-opacity="0.3"/>
<path d="M1386.75 868.762H1394.37L1390.56 846.471L1386.75 868.762Z" stroke="#00BFFF" stroke-opacity="0.4"/>
</g>
<g id="Polygon 18_4">
<path d="M1391.21 889.18L1395.6 863.421L1386.81 863.421L1391.21 889.18Z" fill="#D9D9D9" fill-opacity="0.3"/>
<path d="M1395.01 863.921L1387.4 863.921L1391.21 886.212L1395.01 863.921Z" stroke="#00BFFF" stroke-opacity="0.4"/>
</g>
<g id="Polygon 9_4">
<path d="M1387.51 842.571L1382.47 868.215L1391.27 868.432L1387.51 842.571Z" fill="#D9D9D9" fill-opacity="0.3"/>
<path d="M1383.08 867.729L1390.69 867.917L1387.44 845.539L1383.08 867.729Z" stroke="#00BFFF" stroke-opacity="0.4"/>
</g>
<g id="Polygon 19_4">
<path d="M1393.11 901.178L1391.72 873.037L1383.11 874.837L1393.11 901.178Z" fill="#D9D9D9" fill-opacity="0.3"/>
<path d="M1391.25 873.646L1383.79 875.207L1392.46 898.045L1391.25 873.646Z" stroke="#00BFFF" stroke-opacity="0.4"/>
</g>
<g id="Polygon 4_4">
<path d="M1394.13 840.524L1392.14 866.581L1400.9 865.764L1394.13 840.524Z" fill="#D9D9D9" fill-opacity="0.3"/>
<path d="M1392.69 866.028L1400.27 865.321L1394.41 843.479L1392.69 866.028Z" stroke="#00BFFF" stroke-opacity="0.4"/>
</g>
<g id="Polygon 20_4">
<path d="M1387.92 893.201L1391.08 867.26L1382.3 867.681L1387.92 893.201Z" fill="#D9D9D9" fill-opacity="0.3"/>
<path d="M1390.51 867.788L1382.91 868.152L1387.78 890.235L1390.51 867.788Z" stroke="#00BFFF" stroke-opacity="0.4"/>
</g>
<g id="Polygon 8_4">
<path d="M1390.62 840.391L1386.22 866.151H1395.02L1390.62 840.391Z" fill="#D9D9D9" fill-opacity="0.3"/>
<path d="M1386.81 865.65H1394.42L1390.62 843.359L1386.81 865.65Z" stroke="#00BFFF" stroke-opacity="0.4"/>
</g>
<g id="Polygon 12_4">
<path d="M1395.61 890.103L1401.86 864.728L1393.08 864.093L1395.61 890.103Z" fill="#D9D9D9" fill-opacity="0.3"/>
<path d="M1401.23 865.184L1393.64 864.635L1395.82 887.142L1401.23 865.184Z" stroke="#00BFFF" stroke-opacity="0.4"/>
</g>
</g>
</g>
<g id="&#231;&#180;&#133;&#230;&#162;&#133;&#229;&#190;&#161;&#230;&#174;&#191;">
<g id="Group 5_5">
<path id="Polygon 22_5" d="M802.23 699.596L790.318 701.806L787.376 706.773L795.619 710.757H808.84L817.084 706.773L814.142 701.806L802.23 699.596Z" fill="#F0FEFF" fill-opacity="0.4"/>
<path id="Polygon 23_5" d="M802.259 695.603L790.141 697.847L787.148 702.889L795.534 706.932H808.984L817.371 702.889L814.378 697.847L802.259 695.603Z" fill="#F0FEFF" fill-opacity="0.4"/>
</g>
<g id="Group 2_5">
<g id="Polygon 1_5">
<path d="M801.734 638.525L797.336 662.524H806.132L801.734 638.525Z" fill="#D9D9D9" fill-opacity="0.3"/>
<path d="M797.936 662.024H805.533L801.735 641.298L797.936 662.024Z" stroke="#00BFFF" stroke-opacity="0.4"/>
</g>
<g id="Polygon 11_5">
<path d="M799.033 702.521L803.432 676.761L794.635 676.761L799.033 702.521Z" fill="#D9D9D9" fill-opacity="0.3"/>
<path d="M802.84 677.262L795.227 677.262L799.033 699.553L802.84 677.262Z" stroke="#00BFFF" stroke-opacity="0.4"/>
</g>
<g id="Polygon 2_5">
<path d="M799.943 645.265L793.664 670.632L802.437 671.278L799.943 645.265Z" fill="#D9D9D9" fill-opacity="0.3"/>
<path d="M794.291 670.177L801.883 670.736L799.725 648.225L794.291 670.177Z" stroke="#00BFFF" stroke-opacity="0.4"/>
</g>
<g id="Polygon 6_5">
<path d="M800.864 640.887L793.053 671.806L800.972 672.777L800.864 640.887Z" fill="#D9D9D9" fill-opacity="0.3"/>
<path d="M793.676 671.379L800.469 672.212L800.377 644.855L793.676 671.379Z" stroke="#00BFFF" stroke-opacity="0.4"/>
</g>
<g id="Polygon 13_5">
<path d="M803.026 702.991L807.424 677.231L798.628 677.231L803.026 702.991Z" fill="#D9D9D9" fill-opacity="0.3"/>
<path d="M806.832 677.731L799.22 677.731L803.025 700.022L806.832 677.731Z" stroke="#00BFFF" stroke-opacity="0.4"/>
</g>
<g id="Polygon 5_5">
<path d="M801.358 639.95L795.855 665.497L804.643 665.875L801.358 639.95Z" fill="#D9D9D9" fill-opacity="0.3"/>
<path d="M796.468 665.023L804.073 665.35L801.23 642.916L796.468 665.023Z" stroke="#00BFFF" stroke-opacity="0.4"/>
</g>
<g id="Polygon 14_5">
<path d="M806.687 702.492L809.497 669.662L804.46 669.618L806.687 702.492Z" fill="#D9D9D9" fill-opacity="0.3"/>
<path d="M808.953 670.157L804.994 670.122L806.745 695.947L808.953 670.157Z" stroke="#00BFFF" stroke-opacity="0.4"/>
</g>
<g id="Polygon 15_5">
<path d="M800.228 700.594L811.239 676.895L802.752 674.584L800.228 700.594Z" fill="#D9D9D9" fill-opacity="0.3"/>
<path d="M810.537 677.222L803.192 675.222L801.007 697.73L810.537 677.222Z" stroke="#00BFFF" stroke-opacity="0.4"/>
</g>
<g id="Polygon 3_5">
<path d="M803.398 643.99L799.588 669.843L808.382 669.643L803.398 643.99Z" fill="#D9D9D9" fill-opacity="0.3"/>
<path d="M800.168 669.33L807.779 669.156L803.466 646.958L800.168 669.33Z" stroke="#00BFFF" stroke-opacity="0.4"/>
</g>
<g id="Polygon 16_5">
<path d="M800.743 700.175L802.65 678.782L795.695 679.299L800.743 700.175Z" fill="#D9D9D9" fill-opacity="0.3"/>
<path d="M802.099 679.324L796.32 679.754L800.515 697.105L802.099 679.324Z" stroke="#00BFFF" stroke-opacity="0.4"/>
</g>
<g id="Polygon 7_5">
<path d="M806.197 685.724L810.315 659.918L801.519 660.014L806.197 685.724Z" fill="#D9D9D9" fill-opacity="0.3"/>
<path d="M809.728 660.425L802.116 660.507L806.164 682.756L809.728 660.425Z" stroke="#00BFFF" stroke-opacity="0.4"/>
</g>
<g id="Polygon 21_5">
<path d="M805.832 683.376L809.958 657.305L801.14 657.401L805.832 683.376Z" fill="#D9D9D9" fill-opacity="0.3"/>
<path d="M809.371 657.811L801.737 657.894L805.799 680.382L809.371 657.811Z" stroke="#00BFFF" stroke-opacity="0.4"/>
</g>
<g id="Polygon 17_5">
<path d="M797.918 700.466L802.316 674.707L793.52 674.707L797.918 700.466Z" fill="#D9D9D9" fill-opacity="0.3"/>
<path d="M801.724 675.207L794.112 675.207L797.917 697.498L801.724 675.207Z" stroke="#00BFFF" stroke-opacity="0.4"/>
</g>
<g id="Polygon 10_5">
<path d="M800.56 650.502L796.162 676.262H804.958L800.56 650.502Z" fill="#D9D9D9" fill-opacity="0.3"/>
<path d="M796.754 675.762H804.366L800.56 653.471L796.754 675.762Z" stroke="#00BFFF" stroke-opacity="0.4"/>
</g>
<g id="Polygon 18_5">
<path d="M801.206 696.18L805.604 670.421L796.808 670.421L801.206 696.18Z" fill="#D9D9D9" fill-opacity="0.3"/>
<path d="M805.012 670.921L797.4 670.921L801.205 693.212L805.012 670.921Z" stroke="#00BFFF" stroke-opacity="0.4"/>
</g>
<g id="Polygon 9_5">
<path d="M797.508 649.571L792.475 675.215L801.268 675.432L797.508 649.571Z" fill="#D9D9D9" fill-opacity="0.3"/>
<path d="M793.079 674.729L800.689 674.917L797.436 652.539L793.079 674.729Z" stroke="#00BFFF" stroke-opacity="0.4"/>
</g>
<g id="Polygon 19_5">
<path d="M803.111 708.178L801.721 680.037L793.111 681.837L803.111 708.178Z" fill="#D9D9D9" fill-opacity="0.3"/>
<path d="M801.251 680.646L793.786 682.207L802.456 705.045L801.251 680.646Z" stroke="#00BFFF" stroke-opacity="0.4"/>
</g>
<g id="Polygon 4_5">
<path d="M804.132 647.524L802.145 673.581L810.903 672.764L804.132 647.524Z" fill="#D9D9D9" fill-opacity="0.3"/>
<path d="M802.688 673.028L810.267 672.321L804.408 650.479L802.688 673.028Z" stroke="#00BFFF" stroke-opacity="0.4"/>
</g>
<g id="Polygon 20_5">
<path d="M797.924 700.201L801.082 674.26L792.296 674.681L797.924 700.201Z" fill="#D9D9D9" fill-opacity="0.3"/>
<path d="M800.515 674.788L792.911 675.152L797.781 697.235L800.515 674.788Z" stroke="#00BFFF" stroke-opacity="0.4"/>
</g>
<g id="Polygon 8_5">
<path d="M800.619 647.391L796.22 673.151H805.017L800.619 647.391Z" fill="#D9D9D9" fill-opacity="0.3"/>
<path d="M796.812 672.65H804.425L800.619 650.359L796.812 672.65Z" stroke="#00BFFF" stroke-opacity="0.4"/>
</g>
<g id="Polygon 12_5">
<path d="M805.611 697.103L811.856 671.728L803.082 671.093L805.611 697.103Z" fill="#D9D9D9" fill-opacity="0.3"/>
<path d="M811.229 672.184L803.637 671.635L805.825 694.142L811.229 672.184Z" stroke="#00BFFF" stroke-opacity="0.4"/>
</g>
</g>
</g>
<g id="&#227;&#130;&#183;&#227;&#131;&#173;&#227;&#130;&#172;&#227;&#131;&#141;&#232;&#165;&#191;">
<g id="Group 5_6">
<path id="Polygon 22_6" d="M460.23 601.596L448.318 603.806L445.376 608.773L453.619 612.757H466.841L475.084 608.773L472.142 603.806L460.23 601.596Z" fill="#F0FEFF" fill-opacity="0.4"/>
<path id="Polygon 23_6" d="M460.259 597.603L448.141 599.847L445.148 604.889L453.534 608.932H466.984L475.371 604.889L472.378 599.847L460.259 597.603Z" fill="#F0FEFF" fill-opacity="0.4"/>
</g>
<g id="Group 2_6">
<g id="Polygon 1_6">
<path d="M459.734 540.525L455.336 564.524H464.132L459.734 540.525Z" fill="#D9D9D9" fill-opacity="0.3"/>
<path d="M455.936 564.024H463.533L459.735 543.298L455.936 564.024Z" stroke="#00BFFF" stroke-opacity="0.4"/>
</g>
<g id="Polygon 11_6">
<path d="M457.033 604.521L461.432 578.761L452.635 578.761L457.033 604.521Z" fill="#D9D9D9" fill-opacity="0.3"/>
<path d="M460.84 579.262L453.227 579.262L457.033 601.553L460.84 579.262Z" stroke="#00BFFF" stroke-opacity="0.4"/>
</g>
<g id="Polygon 2_6">
<path d="M457.943 547.265L451.664 572.632L460.437 573.278L457.943 547.265Z" fill="#D9D9D9" fill-opacity="0.3"/>
<path d="M452.291 572.177L459.883 572.736L457.725 550.225L452.291 572.177Z" stroke="#00BFFF" stroke-opacity="0.4"/>
</g>
<g id="Polygon 6_6">
<path d="M458.864 542.887L451.053 573.806L458.972 574.777L458.864 542.887Z" fill="#D9D9D9" fill-opacity="0.3"/>
<path d="M451.676 573.379L458.469 574.212L458.377 546.855L451.676 573.379Z" stroke="#00BFFF" stroke-opacity="0.4"/>
</g>
<g id="Polygon 13_6">
<path d="M461.026 604.991L465.424 579.231L456.628 579.231L461.026 604.991Z" fill="#D9D9D9" fill-opacity="0.3"/>
<path d="M464.832 579.731L457.22 579.731L461.025 602.022L464.832 579.731Z" stroke="#00BFFF" stroke-opacity="0.4"/>
</g>
<g id="Polygon 5_6">
<path d="M459.358 541.95L453.855 567.497L462.643 567.875L459.358 541.95Z" fill="#D9D9D9" fill-opacity="0.3"/>
<path d="M454.468 567.023L462.073 567.35L459.23 544.916L454.468 567.023Z" stroke="#00BFFF" stroke-opacity="0.4"/>
</g>
<g id="Polygon 14_6">
<path d="M464.687 604.492L467.497 571.662L462.46 571.618L464.687 604.492Z" fill="#D9D9D9" fill-opacity="0.3"/>
<path d="M466.953 572.157L462.994 572.122L464.745 597.947L466.953 572.157Z" stroke="#00BFFF" stroke-opacity="0.4"/>
</g>
<g id="Polygon 15_6">
<path d="M458.228 602.594L469.239 578.895L460.752 576.584L458.228 602.594Z" fill="#D9D9D9" fill-opacity="0.3"/>
<path d="M468.537 579.222L461.192 577.222L459.007 599.73L468.537 579.222Z" stroke="#00BFFF" stroke-opacity="0.4"/>
</g>
<g id="Polygon 3_6">
<path d="M461.398 545.99L457.588 571.843L466.382 571.643L461.398 545.99Z" fill="#D9D9D9" fill-opacity="0.3"/>
<path d="M458.168 571.33L465.779 571.156L461.466 548.958L458.168 571.33Z" stroke="#00BFFF" stroke-opacity="0.4"/>
</g>
<g id="Polygon 16_6">
<path d="M458.743 602.175L460.65 580.782L453.695 581.299L458.743 602.175Z" fill="#D9D9D9" fill-opacity="0.3"/>
<path d="M460.099 581.324L454.32 581.754L458.515 599.105L460.099 581.324Z" stroke="#00BFFF" stroke-opacity="0.4"/>
</g>
<g id="Polygon 7_6">
<path d="M464.197 587.724L468.315 561.918L459.519 562.014L464.197 587.724Z" fill="#D9D9D9" fill-opacity="0.3"/>
<path d="M467.728 562.425L460.116 562.507L464.164 584.756L467.728 562.425Z" stroke="#00BFFF" stroke-opacity="0.4"/>
</g>
<g id="Polygon 21_6">
<path d="M463.832 585.376L467.958 559.305L459.14 559.401L463.832 585.376Z" fill="#D9D9D9" fill-opacity="0.3"/>
<path d="M467.371 559.811L459.737 559.894L463.799 582.382L467.371 559.811Z" stroke="#00BFFF" stroke-opacity="0.4"/>
</g>
<g id="Polygon 17_6">
<path d="M455.918 602.466L460.316 576.707L451.52 576.707L455.918 602.466Z" fill="#D9D9D9" fill-opacity="0.3"/>
<path d="M459.724 577.207L452.112 577.207L455.917 599.498L459.724 577.207Z" stroke="#00BFFF" stroke-opacity="0.4"/>
</g>
<g id="Polygon 10_6">
<path d="M458.56 552.502L454.162 578.262H462.958L458.56 552.502Z" fill="#D9D9D9" fill-opacity="0.3"/>
<path d="M454.754 577.762H462.366L458.56 555.471L454.754 577.762Z" stroke="#00BFFF" stroke-opacity="0.4"/>
</g>
<g id="Polygon 18_6">
<path d="M459.206 598.18L463.604 572.421L454.808 572.421L459.206 598.18Z" fill="#D9D9D9" fill-opacity="0.3"/>
<path d="M463.012 572.921L455.4 572.921L459.205 595.212L463.012 572.921Z" stroke="#00BFFF" stroke-opacity="0.4"/>
</g>
<g id="Polygon 9_6">
<path d="M455.509 551.571L450.475 577.215L459.268 577.432L455.509 551.571Z" fill="#D9D9D9" fill-opacity="0.3"/>
<path d="M451.079 576.729L458.689 576.917L455.436 554.539L451.079 576.729Z" stroke="#00BFFF" stroke-opacity="0.4"/>
</g>
<g id="Polygon 19_6">
<path d="M461.111 610.178L459.721 582.037L451.111 583.837L461.111 610.178Z" fill="#D9D9D9" fill-opacity="0.3"/>
<path d="M459.251 582.646L451.786 584.207L460.456 607.045L459.251 582.646Z" stroke="#00BFFF" stroke-opacity="0.4"/>
</g>
<g id="Polygon 4_6">
<path d="M462.132 549.524L460.145 575.581L468.903 574.764L462.132 549.524Z" fill="#D9D9D9" fill-opacity="0.3"/>
<path d="M460.688 575.028L468.267 574.321L462.408 552.479L460.688 575.028Z" stroke="#00BFFF" stroke-opacity="0.4"/>
</g>
<g id="Polygon 20_6">
<path d="M455.924 602.201L459.082 576.26L450.296 576.681L455.924 602.201Z" fill="#D9D9D9" fill-opacity="0.3"/>
<path d="M458.515 576.788L450.911 577.152L455.781 599.235L458.515 576.788Z" stroke="#00BFFF" stroke-opacity="0.4"/>
</g>
<g id="Polygon 8_6">
<path d="M458.619 549.391L454.22 575.151H463.017L458.619 549.391Z" fill="#D9D9D9" fill-opacity="0.3"/>
<path d="M454.812 574.65H462.425L458.619 552.359L454.812 574.65Z" stroke="#00BFFF" stroke-opacity="0.4"/>
</g>
<g id="Polygon 12_6">
<path d="M463.611 599.103L469.856 573.728L461.082 573.093L463.611 599.103Z" fill="#D9D9D9" fill-opacity="0.3"/>
<path d="M469.229 574.184L461.637 573.635L463.825 596.142L469.229 574.184Z" stroke="#00BFFF" stroke-opacity="0.4"/>
</g>
</g>
</g>
<g id="&#227;&#130;&#183;&#227;&#131;&#173;&#227;&#130;&#172;&#227;&#131;&#141;&#229;&#141;&#151;&#232;&#165;&#191;">
<g id="Group 5_7">
<path id="Polygon 22_7" d="M257.23 772.596L245.318 774.806L242.376 779.773L250.619 783.757H263.841L272.084 779.773L269.142 774.806L257.23 772.596Z" fill="#F0FEFF" fill-opacity="0.4"/>
<path id="Polygon 23_7" d="M257.259 768.603L245.141 770.847L242.148 775.889L250.534 779.932H263.984L272.371 775.889L269.378 770.847L257.259 768.603Z" fill="#F0FEFF" fill-opacity="0.4"/>
</g>
<g id="Group 2_7">
<g id="Polygon 1_7">
<path d="M256.734 711.525L252.336 735.524H261.132L256.734 711.525Z" fill="#D9D9D9" fill-opacity="0.3"/>
<path d="M252.936 735.024H260.533L256.735 714.298L252.936 735.024Z" stroke="#00BFFF" stroke-opacity="0.4"/>
</g>
<g id="Polygon 11_7">
<path d="M254.033 775.521L258.432 749.761L249.635 749.761L254.033 775.521Z" fill="#D9D9D9" fill-opacity="0.3"/>
<path d="M257.84 750.262L250.227 750.262L254.033 772.553L257.84 750.262Z" stroke="#00BFFF" stroke-opacity="0.4"/>
</g>
<g id="Polygon 2_7">
<path d="M254.943 718.265L248.664 743.632L257.437 744.278L254.943 718.265Z" fill="#D9D9D9" fill-opacity="0.3"/>
<path d="M249.291 743.177L256.883 743.736L254.725 721.225L249.291 743.177Z" stroke="#00BFFF" stroke-opacity="0.4"/>
</g>
<g id="Polygon 6_7">
<path d="M255.864 713.887L248.053 744.806L255.972 745.777L255.864 713.887Z" fill="#D9D9D9" fill-opacity="0.3"/>
<path d="M248.676 744.379L255.469 745.212L255.377 717.855L248.676 744.379Z" stroke="#00BFFF" stroke-opacity="0.4"/>
</g>
<g id="Polygon 13_7">
<path d="M258.026 775.991L262.424 750.231L253.628 750.231L258.026 775.991Z" fill="#D9D9D9" fill-opacity="0.3"/>
<path d="M261.832 750.731L254.22 750.731L258.025 773.022L261.832 750.731Z" stroke="#00BFFF" stroke-opacity="0.4"/>
</g>
<g id="Polygon 5_7">
<path d="M256.358 712.95L250.855 738.497L259.643 738.875L256.358 712.95Z" fill="#D9D9D9" fill-opacity="0.3"/>
<path d="M251.468 738.023L259.073 738.35L256.23 715.916L251.468 738.023Z" stroke="#00BFFF" stroke-opacity="0.4"/>
</g>
<g id="Polygon 14_7">
<path d="M261.687 775.492L264.497 742.662L259.46 742.618L261.687 775.492Z" fill="#D9D9D9" fill-opacity="0.3"/>
<path d="M263.953 743.157L259.994 743.122L261.745 768.947L263.953 743.157Z" stroke="#00BFFF" stroke-opacity="0.4"/>
</g>
<g id="Polygon 15_7">
<path d="M255.228 773.594L266.239 749.895L257.752 747.584L255.228 773.594Z" fill="#D9D9D9" fill-opacity="0.3"/>
<path d="M265.537 750.222L258.192 748.222L256.007 770.73L265.537 750.222Z" stroke="#00BFFF" stroke-opacity="0.4"/>
</g>
<g id="Polygon 3_7">
<path d="M258.398 716.99L254.588 742.843L263.382 742.643L258.398 716.99Z" fill="#D9D9D9" fill-opacity="0.3"/>
<path d="M255.168 742.33L262.779 742.156L258.466 719.958L255.168 742.33Z" stroke="#00BFFF" stroke-opacity="0.4"/>
</g>
<g id="Polygon 16_7">
<path d="M255.743 773.175L257.65 751.782L250.695 752.299L255.743 773.175Z" fill="#D9D9D9" fill-opacity="0.3"/>
<path d="M257.099 752.324L251.32 752.754L255.515 770.105L257.099 752.324Z" stroke="#00BFFF" stroke-opacity="0.4"/>
</g>
<g id="Polygon 7_7">
<path d="M261.197 758.724L265.315 732.918L256.519 733.014L261.197 758.724Z" fill="#D9D9D9" fill-opacity="0.3"/>
<path d="M264.728 733.425L257.116 733.507L261.164 755.756L264.728 733.425Z" stroke="#00BFFF" stroke-opacity="0.4"/>
</g>
<g id="Polygon 21_7">
<path d="M260.832 756.376L264.958 730.305L256.14 730.401L260.832 756.376Z" fill="#D9D9D9" fill-opacity="0.3"/>
<path d="M264.371 730.811L256.737 730.894L260.799 753.382L264.371 730.811Z" stroke="#00BFFF" stroke-opacity="0.4"/>
</g>
<g id="Polygon 17_7">
<path d="M252.918 773.466L257.316 747.706L248.52 747.706L252.918 773.466Z" fill="#D9D9D9" fill-opacity="0.3"/>
<path d="M256.724 748.207L249.112 748.207L252.917 770.498L256.724 748.207Z" stroke="#00BFFF" stroke-opacity="0.4"/>
</g>
<g id="Polygon 10_7">
<path d="M255.56 723.502L251.162 749.262H259.958L255.56 723.502Z" fill="#D9D9D9" fill-opacity="0.3"/>
<path d="M251.754 748.762H259.366L255.56 726.471L251.754 748.762Z" stroke="#00BFFF" stroke-opacity="0.4"/>
</g>
<g id="Polygon 18_7">
<path d="M256.206 769.18L260.604 743.421L251.808 743.421L256.206 769.18Z" fill="#D9D9D9" fill-opacity="0.3"/>
<path d="M260.012 743.921L252.4 743.921L256.205 766.212L260.012 743.921Z" stroke="#00BFFF" stroke-opacity="0.4"/>
</g>
<g id="Polygon 9_7">
<path d="M252.509 722.571L247.475 748.215L256.268 748.432L252.509 722.571Z" fill="#D9D9D9" fill-opacity="0.3"/>
<path d="M248.079 747.729L255.689 747.917L252.436 725.539L248.079 747.729Z" stroke="#00BFFF" stroke-opacity="0.4"/>
</g>
<g id="Polygon 19_7">
<path d="M258.111 781.178L256.721 753.037L248.111 754.837L258.111 781.178Z" fill="#D9D9D9" fill-opacity="0.3"/>
<path d="M256.251 753.646L248.786 755.207L257.456 778.045L256.251 753.646Z" stroke="#00BFFF" stroke-opacity="0.4"/>
</g>
<g id="Polygon 4_7">
<path d="M259.132 720.524L257.145 746.581L265.903 745.764L259.132 720.524Z" fill="#D9D9D9" fill-opacity="0.3"/>
<path d="M257.688 746.028L265.267 745.321L259.408 723.479L257.688 746.028Z" stroke="#00BFFF" stroke-opacity="0.4"/>
</g>
<g id="Polygon 20_7">
<path d="M252.924 773.201L256.082 747.26L247.296 747.681L252.924 773.201Z" fill="#D9D9D9" fill-opacity="0.3"/>
<path d="M255.515 747.788L247.911 748.152L252.781 770.235L255.515 747.788Z" stroke="#00BFFF" stroke-opacity="0.4"/>
</g>
<g id="Polygon 8_7">
<path d="M255.619 720.391L251.22 746.151H260.017L255.619 720.391Z" fill="#D9D9D9" fill-opacity="0.3"/>
<path d="M251.812 745.65H259.425L255.619 723.359L251.812 745.65Z" stroke="#00BFFF" stroke-opacity="0.4"/>
</g>
<g id="Polygon 12_7">
<path d="M260.611 770.103L266.856 744.728L258.082 744.093L260.611 770.103Z" fill="#D9D9D9" fill-opacity="0.3"/>
<path d="M266.229 745.184L258.637 744.635L260.825 767.142L266.229 745.184Z" stroke="#00BFFF" stroke-opacity="0.4"/>
</g>
</g>
</g>
<g id="&#227;&#130;&#183;&#227;&#131;&#173;&#227;&#130;&#172;&#227;&#131;&#141;&#229;&#140;&#151;&#232;&#165;&#191;">
<g id="Group 5_8">
<path id="Polygon 22_8" d="M427.23 202.596L415.318 204.806L412.376 209.773L420.619 213.757H433.841L442.084 209.773L439.142 204.806L427.23 202.596Z" fill="#F0FEFF" fill-opacity="0.4"/>
<path id="Polygon 23_8" d="M427.259 198.603L415.141 200.847L412.148 205.889L420.534 209.932H433.984L442.371 205.889L439.378 200.847L427.259 198.603Z" fill="#F0FEFF" fill-opacity="0.4"/>
</g>
<g id="Group 2_8">
<g id="Polygon 1_8">
<path d="M426.734 141.525L422.336 165.524H431.132L426.734 141.525Z" fill="#D9D9D9" fill-opacity="0.3"/>
<path d="M422.936 165.024H430.533L426.735 144.298L422.936 165.024Z" stroke="#00BFFF" stroke-opacity="0.4"/>
</g>
<g id="Polygon 11_8">
<path d="M424.033 205.521L428.432 179.761L419.635 179.761L424.033 205.521Z" fill="#D9D9D9" fill-opacity="0.3"/>
<path d="M427.84 180.262L420.227 180.262L424.033 202.553L427.84 180.262Z" stroke="#00BFFF" stroke-opacity="0.4"/>
</g>
<g id="Polygon 2_8">
<path d="M424.943 148.265L418.664 173.632L427.437 174.278L424.943 148.265Z" fill="#D9D9D9" fill-opacity="0.3"/>
<path d="M419.291 173.177L426.883 173.736L424.725 151.225L419.291 173.177Z" stroke="#00BFFF" stroke-opacity="0.4"/>
</g>
<g id="Polygon 6_8">
<path d="M425.864 143.887L418.053 174.806L425.972 175.777L425.864 143.887Z" fill="#D9D9D9" fill-opacity="0.3"/>
<path d="M418.676 174.379L425.469 175.212L425.377 147.855L418.676 174.379Z" stroke="#00BFFF" stroke-opacity="0.4"/>
</g>
<g id="Polygon 13_8">
<path d="M428.026 205.991L432.424 180.231L423.628 180.231L428.026 205.991Z" fill="#D9D9D9" fill-opacity="0.3"/>
<path d="M431.832 180.731L424.22 180.731L428.025 203.022L431.832 180.731Z" stroke="#00BFFF" stroke-opacity="0.4"/>
</g>
<g id="Polygon 5_8">
<path d="M426.358 142.95L420.855 168.497L429.643 168.875L426.358 142.95Z" fill="#D9D9D9" fill-opacity="0.3"/>
<path d="M421.468 168.023L429.073 168.35L426.23 145.916L421.468 168.023Z" stroke="#00BFFF" stroke-opacity="0.4"/>
</g>
<g id="Polygon 14_8">
<path d="M431.687 205.492L434.497 172.662L429.46 172.618L431.687 205.492Z" fill="#D9D9D9" fill-opacity="0.3"/>
<path d="M433.953 173.157L429.994 173.122L431.745 198.947L433.953 173.157Z" stroke="#00BFFF" stroke-opacity="0.4"/>
</g>
<g id="Polygon 15_8">
<path d="M425.228 203.594L436.239 179.895L427.752 177.584L425.228 203.594Z" fill="#D9D9D9" fill-opacity="0.3"/>
<path d="M435.537 180.222L428.192 178.222L426.007 200.73L435.537 180.222Z" stroke="#00BFFF" stroke-opacity="0.4"/>
</g>
<g id="Polygon 3_8">
<path d="M428.398 146.99L424.588 172.843L433.382 172.643L428.398 146.99Z" fill="#D9D9D9" fill-opacity="0.3"/>
<path d="M425.168 172.33L432.779 172.156L428.466 149.958L425.168 172.33Z" stroke="#00BFFF" stroke-opacity="0.4"/>
</g>
<g id="Polygon 16_8">
<path d="M425.743 203.175L427.65 181.782L420.695 182.299L425.743 203.175Z" fill="#D9D9D9" fill-opacity="0.3"/>
<path d="M427.099 182.324L421.32 182.754L425.515 200.105L427.099 182.324Z" stroke="#00BFFF" stroke-opacity="0.4"/>
</g>
<g id="Polygon 7_8">
<path d="M431.197 188.724L435.315 162.918L426.519 163.014L431.197 188.724Z" fill="#D9D9D9" fill-opacity="0.3"/>
<path d="M434.728 163.425L427.116 163.507L431.164 185.756L434.728 163.425Z" stroke="#00BFFF" stroke-opacity="0.4"/>
</g>
<g id="Polygon 21_8">
<path d="M430.832 186.376L434.958 160.305L426.14 160.401L430.832 186.376Z" fill="#D9D9D9" fill-opacity="0.3"/>
<path d="M434.371 160.811L426.737 160.894L430.799 183.382L434.371 160.811Z" stroke="#00BFFF" stroke-opacity="0.4"/>
</g>
<g id="Polygon 17_8">
<path d="M422.918 203.466L427.316 177.706L418.52 177.706L422.918 203.466Z" fill="#D9D9D9" fill-opacity="0.3"/>
<path d="M426.724 178.207L419.112 178.207L422.917 200.498L426.724 178.207Z" stroke="#00BFFF" stroke-opacity="0.4"/>
</g>
<g id="Polygon 10_8">
<path d="M425.56 153.502L421.162 179.262H429.958L425.56 153.502Z" fill="#D9D9D9" fill-opacity="0.3"/>
<path d="M421.754 178.762H429.366L425.56 156.471L421.754 178.762Z" stroke="#00BFFF" stroke-opacity="0.4"/>
</g>
<g id="Polygon 18_8">
<path d="M426.206 199.18L430.604 173.421L421.808 173.421L426.206 199.18Z" fill="#D9D9D9" fill-opacity="0.3"/>
<path d="M430.012 173.921L422.4 173.921L426.205 196.212L430.012 173.921Z" stroke="#00BFFF" stroke-opacity="0.4"/>
</g>
<g id="Polygon 9_8">
<path d="M422.509 152.571L417.475 178.214L426.268 178.432L422.509 152.571Z" fill="#D9D9D9" fill-opacity="0.3"/>
<path d="M418.079 177.729L425.689 177.917L422.436 155.539L418.079 177.729Z" stroke="#00BFFF" stroke-opacity="0.4"/>
</g>
<g id="Polygon 19_8">
<path d="M428.111 211.178L426.721 183.037L418.111 184.837L428.111 211.178Z" fill="#D9D9D9" fill-opacity="0.3"/>
<path d="M426.251 183.646L418.786 185.207L427.456 208.045L426.251 183.646Z" stroke="#00BFFF" stroke-opacity="0.4"/>
</g>
<g id="Polygon 4_8">
<path d="M429.132 150.524L427.145 176.581L435.903 175.764L429.132 150.524Z" fill="#D9D9D9" fill-opacity="0.3"/>
<path d="M427.688 176.028L435.267 175.321L429.408 153.479L427.688 176.028Z" stroke="#00BFFF" stroke-opacity="0.4"/>
</g>
<g id="Polygon 20_8">
<path d="M422.924 203.201L426.082 177.26L417.296 177.681L422.924 203.201Z" fill="#D9D9D9" fill-opacity="0.3"/>
<path d="M425.515 177.788L417.911 178.152L422.781 200.235L425.515 177.788Z" stroke="#00BFFF" stroke-opacity="0.4"/>
</g>
<g id="Polygon 8_8">
<path d="M425.619 150.391L421.22 176.151H430.017L425.619 150.391Z" fill="#D9D9D9" fill-opacity="0.3"/>
<path d="M421.812 175.65H429.425L425.619 153.359L421.812 175.65Z" stroke="#00BFFF" stroke-opacity="0.4"/>
</g>
<g id="Polygon 12_8">
<path d="M430.611 200.103L436.856 174.728L428.082 174.093L430.611 200.103Z" fill="#D9D9D9" fill-opacity="0.3"/>
<path d="M436.229 175.184L428.637 174.635L430.825 197.142L436.229 175.184Z" stroke="#00BFFF" stroke-opacity="0.4"/>
</g>
</g>
</g>
</g>
<path id="&#227;&#131;&#138;&#227;&#131;&#147;&#227;&#130;&#178;&#227;&#131;&#188;&#227;&#130;&#183;&#227;&#131;&#167;&#227;&#131;&#179;&#231;&#148;&#168;&#233;&#129;&#147;&#232;&#183;&#175;" d="M551.259 570.025C562.535 541.916 566.397 503.245 563.759 345.525C512.592 334.491 485.921 322.227 444.259 282.525C422.215 250.775 408.331 233.944 380.259 206.025L209.759 37.0252C175.267 6.28963 151.912 6.71172 106.259 25.0252M380.259 206.025C318.33 232.686 284.972 250.244 232.759 295.525C205.212 319.593 205.569 339.756 241.259 332.863C264.24 333.341 274.082 334.211 285.259 337.025C297.665 348.941 297.337 353.899 285.259 360.025C246.562 361.356 230.022 363.663 211.259 371.025C192.221 381.517 194.306 384.817 211.259 388.025C255.827 394.315 257.334 408.866 254.259 437.525C255.311 448.435 258.14 452.86 266.759 458.025L459.259 627.525M213.759 674.525L225.735 771.525L233.759 836.525C252.642 821.174 269.683 807.078 285.259 793.934C364.575 727.01 405.932 684.803 459.259 627.525C494.794 575.612 514.99 566.966 551.259 570.025M225.735 771.525L57.7593 792.025C26.3788 816.538 18.97 830.349 12.2593 855.025C19.0998 912.349 29.6848 938.269 57.7593 976.025C124.091 1055.54 166.885 1099.72 256.759 1177.53M256.759 1177.53C321.218 1238.07 359.429 1271.21 434.759 1327.53M256.759 1177.53L412.759 978.525M434.759 1327.53L335.759 1507.03M1046.26 1299.53L948.759 1496.03L804.259 1450.53L434.759 1327.53M434.759 1327.53L567.759 1091.03M804.259 1450.53L877.259 1226.32M1046.26 1299.53L1366.76 1310.53L1452.76 1226.03M1046.26 1299.53L971.259 1265.03M1452.76 1226.03L1790.26 1358.53C1805.29 1366.17 1806.09 1371.53 1790.26 1383.53C1732.75 1401.27 1706.14 1412.16 1667.26 1433.03C1646.34 1452.65 1642.26 1467.03 1648.26 1498.53L1671.26 1530.53M1452.76 1226.03L1356.26 1066.53M1013.76 712.525L1036.26 652.025C1067.55 597.646 1095.76 583.566 1153.26 569.525C1188.78 546.627 1209.61 540.479 1249.76 551.525C1337.59 594.85 1372.39 618.48 1421.26 660.025L1535.26 778.025L1409.76 901.025L1452.76 996.025L1356.26 1066.53M1356.26 1066.53C1336.53 1075.94 1316.88 1067.6 1266.26 1028.03M1421.26 660.025L1289.76 802.525L1157.76 734.025L1094.76 844.525M1013.76 712.525C1003.26 715.987 936.504 704.634 843.259 690.025C815.791 733.201 800.757 762.331 774.259 818.525M1013.76 712.525V814.025M774.259 818.525C739.683 794.306 720.412 786.835 686.259 785.025M774.259 818.525C822.054 840.497 843.143 854.287 847.259 887.525L852.759 910.525M774.259 818.525C768.224 873.28 753.33 901.195 706.259 946.025M686.259 785.025L668.759 580.525C625.501 582.373 600.129 580.876 551.259 570.025M686.259 785.025C672.584 794.561 664.505 801.888 649.259 818.525M285.259 793.934L412.759 978.525M412.759 978.525L567.759 1091.03M852.759 910.525L1013.76 814.025M852.759 910.525C842.577 930.751 829.413 940.952 788.759 956.525M1013.76 814.025L1094.76 844.525M1094.76 844.525C1090.22 866.941 1098.71 880.052 1125.76 904.025C1213.3 958.662 1247.87 986.535 1266.26 1028.03M1266.26 1028.03L1128.76 1145.53L1057.26 1110.03M1057.26 1110.03L971.259 1265.03M1057.26 1110.03L788.759 956.525M570.759 1091.03L693.259 1173.53L852.259 1216.03L877.259 1226.32L971.259 1265.03M788.759 956.525C753.186 959.628 734.863 957.887 706.259 946.025M706.259 946.025C661.524 924.408 649.263 896.214 649.259 818.525M706.259 946.025L567.759 1091.03M649.259 818.525C580.921 834.254 546.307 821.214 490.759 761.525" stroke="#FF0000"/>
<g id="Node">
<circle id="node_27" cx="1017.76" cy="716.525" r="27.5" transform="rotate(180 1017.76 716.525)" stroke="#FF0000"/>
<circle id="node_26" cx="1417.76" cy="662.525" r="27.5" transform="rotate(180 1417.76 662.525)" stroke="#FF0000"/>
<circle id="node_25" cx="1097.76" cy="839.525" r="27.5" transform="rotate(180 1097.76 839.525)" stroke="#FF0000"/>
<circle id="node_24" cx="1017.76" cy="816.525" r="27.5" transform="rotate(180 1017.76 816.525)" stroke="#FF0000"/>
<circle id="node_23" cx="1266.76" cy="1027.53" r="27.5" transform="rotate(180 1266.76 1027.53)" stroke="#FF0000"/>
<circle id="node_22" cx="1356.76" cy="1071.53" r="27.5" transform="rotate(180 1356.76 1071.53)" stroke="#FF0000"/>
<circle id="node_21" cx="1450.76" cy="1229.53" r="27.5" transform="rotate(180 1450.76 1229.53)" stroke="#FF0000"/>
<circle id="node_20" cx="1045.76" cy="1301.53" r="27.5" transform="rotate(180 1045.76 1301.53)" stroke="#FF0000"/>
<circle id="node_19" cx="977.759" cy="1265.53" r="27.5" transform="rotate(180 977.759 1265.53)" stroke="#FF0000"/>
<circle id="node_18" cx="1057.76" cy="1107.53" r="27.5" transform="rotate(180 1057.76 1107.53)" stroke="#FF0000"/>
<circle id="node_17" cx="876.759" cy="1231.53" r="27.5" transform="rotate(180 876.759 1231.53)" stroke="#FF0000"/>
<circle id="node_16" cx="804.759" cy="1445.53" r="27.5" transform="rotate(180 804.759 1445.53)" stroke="#FF0000"/>
<circle id="node_15" cx="431.759" cy="1325.53" r="27.5" transform="rotate(180 431.759 1325.53)" stroke="#FF0000"/>
<circle id="node_14" cx="562.759" cy="1091.53" r="27.5" transform="rotate(180 562.759 1091.53)" stroke="#FF0000"/>
<circle id="node_13" cx="408.759" cy="979.525" r="27.5" transform="rotate(180 408.759 979.525)" stroke="#FF0000"/>
<circle id="node_12" cx="293.759" cy="800.525" r="27.5" transform="rotate(180 293.759 800.525)" stroke="#FF0000"/>
<circle id="node_11" cx="456.759" cy="623.525" r="27.5" transform="rotate(180 456.759 623.525)" stroke="#FF0000"/>
<circle id="node_10" cx="550.759" cy="564.525" r="27.5" transform="rotate(180 550.759 564.525)" stroke="#FF0000"/>
<circle id="node_9" cx="689.759" cy="779.525" r="27.5" transform="rotate(180 689.759 779.525)" stroke="#FF0000"/>
<circle id="node_8" cx="640.759" cy="824.525" r="27.5" transform="rotate(180 640.759 824.525)" stroke="#FF0000"/>
<circle id="node_7" cx="696.759" cy="944.525" r="27.5" transform="rotate(180 696.759 944.525)" stroke="#FF0000"/>
<circle id="node_6" cx="805.759" cy="959.525" r="27.5" transform="rotate(180 805.759 959.525)" stroke="#FF0000"/>
<circle id="node_5" cx="851.759" cy="902.525" r="27.5" transform="rotate(180 851.759 902.525)" stroke="#FF0000"/>
<circle id="node_4" cx="772.759" cy="814.525" r="27.5" transform="rotate(180 772.759 814.525)" stroke="#FF0000"/>
<circle id="node_3" cx="375.759" cy="209.525" r="27.5" transform="rotate(180 375.759 209.525)" stroke="#FF0000"/>
<circle id="node_2" cx="218.759" cy="773.525" r="27.5" transform="rotate(180 218.759 773.525)" stroke="#FF0000"/>
<circle id="node_1" cx="252.759" cy="1169.53" r="27.5" transform="rotate(180 252.759 1169.53)" stroke="#FF0000"/>
</g>
</g>
</svg>
