<svg xmlns="http://www.w3.org/2000/svg" viewBox="0 0 100 100" width="400" height="400" fill="none" style="background:#000"><line x1="50" y1="28" x2="46" y2="8" stroke="white" stroke-width="1.8" stroke-linecap="round"/><line x1="50" y1="28" x2="56" y2="10" stroke="white" stroke-width="1.8" stroke-linecap="round"/><line x1="46" y1="8" x2="40" y2="3" stroke="white" stroke-width="1.2" stroke-linecap="round"/><line x1="56" y1="10" x2="62" y2="5" stroke="white" stroke-width="1.2" stroke-linecap="round"/><polygon points="40,3 22,8 18,20 28,26 38,18" stroke="white" stroke-width="1.2" fill="rgba(255,255,255,0.7)" stroke-linejoin="miter"/><line x1="40" y1="3" x2="26" y2="18" stroke="white" stroke-width="0.5"/><line x1="28" y1="10" x2="24" y2="20" stroke="white" stroke-width="0.4"/><polygon points="62,5 78,8 80,18 72,24 64,16" stroke="white" stroke-width="1.2" fill="rgba(255,255,255,0.7)" stroke-linejoin="miter"/><line x1="62" y1="5" x2="74" y2="16" stroke="white" stroke-width="0.5"/><line x1="72" y1="10" x2="76" y2="18" stroke="white" stroke-width="0.4"/><polygon points="42.0,28.0 50.7,33.0 50.7,43.0 42.0,48.0 33.3,43.0 33.3,33.0" stroke="rgba(0,0,0,0.7)" stroke-width="1.0" fill="rgba(255,255,255,0.95)" stroke-linejoin="miter"/><polygon points="60.6,28.3 67.7,35.4 65.1,45.1 55.4,47.7 48.3,40.6 50.9,30.9" stroke="rgba(0,0,0,0.7)" stroke-width="1.0" fill="rgba(255,255,255,0.9272727272727272)" stroke-linejoin="miter"/><polygon points="34.9,42.0 43.1,47.8 42.2,57.7 33.1,62.0 24.9,56.2 25.8,46.3" stroke="rgba(0,0,0,0.7)" stroke-width="1.0" fill="rgba(255,255,255,0.9045454545454545)" stroke-linejoin="miter"/><polygon points="50.0,39.0 59.5,44.5 59.5,55.5 50.0,61.0 40.5,55.5 40.5,44.5" stroke="rgba(0,0,0,0.7)" stroke-width="1.0" fill="rgba(255,255,255,0.8818181818181818)" stroke-linejoin="miter"/><polygon points="67.7,42.2 75.4,48.6 73.7,58.4 64.3,61.8 56.6,55.4 58.3,45.6" stroke="rgba(0,0,0,0.7)" stroke-width="1.0" fill="rgba(255,255,255,0.859090909090909)" stroke-linejoin="miter"/><polygon points="37.4,56.1 45.3,62.3 43.9,72.2 34.6,75.9 26.7,69.7 28.1,59.8" stroke="rgba(0,0,0,0.7)" stroke-width="1.0" fill="rgba(255,255,255,0.8363636363636363)" stroke-linejoin="miter"/><polygon points="52.0,55.0 60.7,60.0 60.7,70.0 52.0,75.0 43.3,70.0 43.3,60.0" stroke="rgba(0,0,0,0.7)" stroke-width="1.0" fill="rgba(255,255,255,0.8136363636363636)" stroke-linejoin="miter"/><polygon points="67.9,58.2 74.6,64.2 72.7,73.0 64.1,75.8 57.4,69.8 59.3,61.0" stroke="rgba(0,0,0,0.7)" stroke-width="1.0" fill="rgba(255,255,255,0.7909090909090909)" stroke-linejoin="miter"/><polygon points="42.8,69.0 50.2,74.2 49.4,83.2 41.2,87.0 33.8,81.8 34.6,72.8" stroke="rgba(0,0,0,0.7)" stroke-width="1.0" fill="rgba(255,255,255,0.7681818181818181)" stroke-linejoin="miter"/><polygon points="56.0,70.0 63.8,74.5 63.8,83.5 56.0,88.0 48.2,83.5 48.2,74.5" stroke="rgba(0,0,0,0.7)" stroke-width="1.0" fill="rgba(255,255,255,0.7454545454545454)" stroke-linejoin="miter"/><polygon points="49.4,82.1 55.5,87.3 54.1,95.1 46.6,97.9 40.5,92.7 41.9,84.9" stroke="rgba(0,0,0,0.7)" stroke-width="1.0" fill="rgba(255,255,255,0.7227272727272727)" stroke-linejoin="miter"/></svg>